<?xml version="1.0" encoding="UTF-8" standalone="no"?><!DOCTYPE svg PUBLIC "-//W3C//DTD SVG 1.1//EN" "http://www.w3.org/Graphics/SVG/1.1/DTD/svg11.dtd"><svg width="100%" height="100%" viewBox="0 0 1366 1272" version="1.1" xmlns="http://www.w3.org/2000/svg" xmlns:xlink="http://www.w3.org/1999/xlink" xml:space="preserve" xmlns:serif="http://www.serif.com/" style="fill-rule:evenodd;clip-rule:evenodd;stroke-linejoin:round;stroke-miterlimit:2;"><path d="M1156.667,1011.25c70,5.833 139.583,12.917 209.167,20.833c-56.667,-22.083 -115.417,-40.833 -174.583,-57.083c-8.75,12.5 -17.917,25 -27.917,36.667c-2.5,0 -4.583,0 -6.667,-0.417Z" style="fill:#fff;fill-rule:nonzero;"/><path d="M174.583,975c-59.583,16.25 -117.917,35.417 -174.583,57.083c69.167,-8.333 139.167,-15.417 209.167,-20.833c-2.083,0 -4.167,0.417 -6.25,0.417c-10,-11.667 -19.167,-24.167 -28.333,-36.667Z" style="fill:#fff;fill-rule:nonzero;"/><path d="M682.917,0c-342.5,0 -620,277.5 -620,620c0,132.083 41.25,254.583 112.083,355c8.75,12.5 17.917,25 27.917,36.667c2.083,0 4.167,-0.417 6.25,-0.417c27.917,-2.083 55.833,-4.167 83.75,-6.25c-2.083,0 -4.167,0.417 -6.25,0.417l6.25,-58.333l2.083,-18.75c4.167,5.417 8.75,10.417 12.917,15.833c17.5,20.417 37.083,39.167 57.917,56.667c1.667,0 2.917,0 4.583,-0.417c10,-0.417 20.417,-1.25 30.417,-1.667c1.667,0 3.75,0 5.417,-0.417c21.25,-0.833 42.917,-2.083 64.167,-2.917c-32.083,-17.917 -61.25,-40 -87.5,-65.417c-81.667,-78.333 -132.083,-188.75 -132.083,-310.833c0,-238.333 193.333,-431.667 431.667,-431.667c238.333,0 431.667,193.333 431.667,431.667c0,122.083 -50.833,232.5 -132.083,310.833c-26.25,25.417 -55.417,47.083 -87.5,65.417c33.75,1.25 67.5,2.917 100.833,4.583c1.667,0 3.333,0 5,0.417l-1.25,0c21.25,-17.5 40.417,-36.667 57.917,-56.667c4.583,-5 8.75,-10.417 13.333,-15.833l2.083,18.75l6.25,58.333c-2.083,0 -3.75,-0.417 -5.833,-0.417c27.917,2.083 55.417,3.75 83.333,6.25c2.083,0 4.167,0.417 6.25,0.417c9.583,-12.083 19.167,-24.167 27.917,-36.667c70.417,-100.417 112.083,-222.917 112.083,-355c0,-342.083 -277.5,-619.583 -619.583,-619.583Zm-552.917,556.667l56.25,58.333l-57.083,59.167c-3.75,-38.75 -3.333,-78.333 0.833,-117.5Zm17.5,-85.417l74.583,-32.917c-12.5,32.083 -21.667,64.583 -27.5,97.917l-47.083,-65Zm45.417,221.667c5,33.75 13.333,66.667 25.417,98.333l-73.333,-32.917l47.917,-65.417Zm37.5,250.833c-22.917,-32.083 -42.5,-66.667 -57.917,-102.5l77.5,22.5l-19.583,80Zm-54.167,-552.917c5.833,-13.333 12.5,-26.25 19.583,-39.167c12.083,-22.083 25.417,-42.5 40,-62.083l19.167,78.75l-78.75,22.5Zm125,-87.083l-8.333,-80l80.417,8.75c-25.833,20.833 -50,44.583 -72.083,71.25Zm137.083,-115.417l-80,-20c32.083,-22.917 66.667,-42.5 102.5,-57.917l-22.5,77.917Zm72.083,-32.5l32.917,-73.333l65.417,47.917c-33.333,5 -66.25,13.333 -98.333,25.417Zm172.5,-31.667l-55,-57.083c18.333,-2.083 36.667,-2.917 55,-2.917c18.333,0 37.083,0.833 55,2.917l-55,57.083Zm73.75,6.25l65.417,-47.917l32.917,73.333c-31.667,-12.083 -65,-20.417 -98.333,-25.417Zm170.417,57.917l-22.5,-77.917c35.833,15.833 70.417,35 102.5,57.917l-80,20Zm137.083,115.417c-21.667,-26.667 -46.25,-50.417 -72.5,-71.25l80.417,-8.75l-7.917,80Zm46.25,64.167l19.167,-78.75c14.583,19.583 27.917,40.417 40,62.083c7.083,12.917 13.75,25.833 19.583,39.167l-78.75,-22.5Zm107.917,103.333l-47.083,65c-5.417,-32.917 -14.583,-65.833 -27.5,-97.917l74.583,32.917Zm-83.333,472.5l-19.583,-80l77.5,-22.5c-15.833,35.833 -35,70.417 -57.917,102.5Zm12.5,-152.083c11.667,-31.667 20.417,-65 25.417,-98.333l47.917,65.833l-73.333,32.5Zm31.667,-176.667l56.25,-58.333c4.583,39.583 4.583,78.75 0.833,117.917l-57.083,-59.583Z" style="fill:#fff;fill-rule:nonzero;"/><path d="M346.25,441.667c-7.083,5.417 -13.333,10.833 -19.167,16.667c-6.25,-5 -12.5,-10.417 -18.333,-15.417c-1.667,3.333 -2.917,6.667 -4.583,10l0,0.417c-1.25,3.333 -2.917,6.25 -4.167,9.583c0,0.417 -0.417,0.417 -0.417,0.833c-1.25,2.917 -2.5,6.25 -3.75,9.583c0,0.417 -0.417,0.833 -0.417,0.833c-1.25,3.333 -2.5,6.25 -3.333,9.583c0,0.417 0,0.417 -0.417,0.833c-1.25,3.333 -2.5,6.667 -3.333,10.417c-4.583,14.167 -8.333,28.75 -11.25,43.333c0,0.833 -0.417,1.25 -0.417,2.083c-0.417,2.917 -1.25,5.833 -1.667,8.75c0,0.833 -0.417,2.083 -0.417,2.917c-0.417,2.5 -0.833,5 -1.25,7.917c0,1.25 -0.417,2.5 -0.417,3.333c-0.417,2.5 -0.833,5 -0.833,7.5c0,1.25 -0.417,2.5 -0.417,3.75c-0.417,2.5 -0.417,5 -0.833,7.5c0,1.25 -0.417,2.5 -0.417,3.75c0,2.5 -0.417,5 -0.417,7.5c0,1.25 0,2.5 -0.417,3.75c0,2.917 -0.417,5.417 -0.417,8.333l0,14.167c0,4.583 0,9.583 0.417,14.167l0,2.917c0.417,9.583 1.25,19.167 2.083,28.333l0,1.25c0.417,4.583 1.25,9.583 1.667,14.167c5.417,-10.417 12.917,-20.833 21.667,-29.167c12.917,15.417 40.417,40.417 88.75,59.583c-37.917,-26.25 -60.833,-66.25 -71.25,-88.333c-1.667,-20.833 -3.333,-72.5 17.917,-138.333c5.417,-5.833 10.833,-12.5 17.5,-18.75c0,-0.833 -0.417,-1.667 -0.417,-2.083c-1.25,-7.083 -1.667,-14.583 -1.25,-21.667Z" style="fill:#fff;fill-rule:nonzero;"/><path d="M632.917,797.083c0,-1.25 2.5,-29.167 20,-55.417c-1.25,-5.833 -2.917,-12.917 -5,-20.833c-26.667,-20.417 -61.25,-47.083 -88.75,-69.583c-1.25,-11.667 -3.75,-38.333 -4.167,-65.833c-2.917,0 -6.25,-0.417 -9.583,-0.417l-7.917,0c-7.5,26.667 -10,51.667 -10.833,66.25c-30.417,14.583 -94.167,47.083 -119.583,74.167l-2.083,2.083l0,2.917c0,3.333 0.833,85 50.417,149.583c-10,30 -29.167,52.083 -35.417,58.333c0.417,0.417 0.833,0.417 1.25,0.833c8.333,-2.5 31.25,-11.25 58.333,-42.917c19.167,6.25 57.083,16.25 104.583,16.25c18.75,0 39.167,-1.667 60.417,-5.417l4.167,-0.833l1.667,-3.75c0.417,-1.25 4.583,-10.833 10,-25c-10.833,-25.833 -21.25,-53.75 -27.083,-77.083c-0.417,-0.417 -0.417,-1.667 -0.417,-3.333Z" style="fill:#fff;fill-rule:nonzero;"/><path d="M802.917,223.75c-0.417,0 -0.417,0 0,0c-35,18.75 -52.5,42.083 -55,43.75c0.833,-0.417 39.167,-25.417 94.583,-29.583c-13.333,-5.417 -26.25,-10 -39.583,-14.167Z" style="fill:#fff;fill-rule:nonzero;"/><path d="M645.417,260.833c5,0.417 9.167,3.75 10.833,8.333c0.417,0.833 5,15 6.25,32.083c18.75,7.917 39.167,15.417 50.833,18.333c2.083,-5.417 5.833,-11.25 12.083,-16.25c2.083,-1.667 5,-2.917 7.917,-2.917c0.833,0 1.667,0 2.5,0.417c0,0 2.917,0.417 7.5,1.667c-1.667,-10.417 -4.167,-20 -6.667,-27.083l-1.25,-3.333l-2.917,-1.25c-2.917,-1.25 -51.25,-21.667 -109.167,-21.667c-17.5,0 -35.417,1.667 -53.75,6.667c-6.25,-7.5 -14.583,-16.667 -25.417,-26.25c-2.917,0.833 -5.833,2.083 -8.75,3.333c-1.25,0.417 -2.083,0.833 -3.333,1.25c3.75,11.667 5.417,23.333 5.833,33.75c25,-4.167 57.5,-8.333 86.25,-8.333c7.5,0.417 15,0.417 21.25,1.25Z" style="fill:#fff;fill-rule:nonzero;"/><path d="M840.417,327.917c-35.417,0 -107.083,-14.167 -107.083,-14.167c-9.583,7.917 -10.417,20 -10.417,20l-1.667,0c-1.25,0 -3.333,-0.417 -5,-0.417l-0.417,0c-0.417,0 -1.25,-0.417 -1.667,-0.417l-0.417,0c-20.833,-4.583 -62.917,-22.917 -62.917,-22.917c0,-18.75 -6.25,-36.667 -6.25,-36.667l-2.5,0c-5.833,-0.417 -11.667,-0.833 -17.917,-0.833l-15.833,0c-1.667,0 -2.917,0 -4.583,0.417l-0.417,0c-48.75,2.917 -101.667,15 -101.667,15c0,0 -126.667,69.583 -141.667,144.583c-0.417,1.667 -0.833,3.75 -0.833,5.417l0,0.417c-0.833,5.833 -0.833,11.25 0,17.083c0.417,1.667 0.417,3.75 0.833,5.417c18.333,85 97.083,126.667 97.083,126.667c33.333,-10 61.25,-13.75 84.167,-14.167l4.167,0c3.333,0 6.25,0 9.583,0.417c41.25,1.667 62.083,14.583 62.083,14.583c10.833,29.167 -0.833,52.5 -0.833,52.5c27.5,19.583 42.083,70.417 47.5,93.333c1.667,7.083 2.5,11.25 2.5,11.25c-13.75,18.75 -18.75,39.583 -20,48.75c-0.417,2.917 -0.833,5 -0.833,5c0,0.417 0.417,1.25 0.417,1.667c0.417,1.667 0.833,3.333 1.25,4.583c0.417,0.833 0.417,2.083 0.833,2.917c0.417,1.25 0.833,2.5 1.25,3.75c0.417,1.25 0.833,2.083 0.833,3.333c0.417,1.25 0.833,2.5 1.25,3.75c0.417,1.25 0.833,2.083 1.25,3.333c0.417,1.25 0.833,2.917 1.25,4.167c0.833,1.667 1.25,3.75 2.083,5.417c0.417,1.25 2.083,6.25 2.5,7.5c0.417,1.25 0.833,2.5 1.25,3.333c0.417,1.25 0.833,2.5 1.667,3.75c0.417,1.25 0.833,2.083 1.25,3.333c0.417,1.25 0.833,2.5 1.667,4.167c0.417,1.25 0.833,2.083 1.25,3.333c19.167,49.167 42.5,96.667 42.5,96.667l89.167,-8.333l-1.667,0c58.333,-70.417 51.25,-102.917 51.25,-102.917c10,-2.083 19.167,-7.083 27.083,-12.5c0,0.833 -0.417,2.083 -0.417,2.917c1.667,-10 0,-15 0,-15c28.333,-5.833 51.25,-35 51.25,-35c-4.583,-15.417 -7.083,-31.667 -7.917,-47.083l0,-0.417c-0.417,-3.333 -0.417,-7.083 -0.417,-10.417l0,-17.083c0,-3.75 0,-7.5 0.417,-11.25l0,-1.25c0,-1.25 0,-2.5 0.417,-3.75l0,-1.667c0,-1.25 0,-2.083 0.417,-3.333l0,-1.667c0,-0.833 0,-2.083 0.417,-2.917l0,-1.667c0,-1.25 0.417,-2.5 0.417,-3.75c0,-0.833 0,-1.667 0.417,-2.5l0,-1.25c0,-0.833 0,-1.667 0.417,-2.5l0,-0.833c0,-0.833 0,-1.667 0.417,-2.5l0,-0.417c0.833,-7.5 1.667,-11.667 1.667,-11.667c3.333,-2.917 6.667,-5.833 9.583,-8.75c1.667,-1.667 3.75,-3.333 5.417,-5c2.083,-1.667 4.167,-3.75 5.833,-5.417c1.667,-1.667 3.333,-2.917 5,-4.583c1.667,-1.667 3.75,-3.333 5.417,-5.417c1.667,-1.667 12.5,-12.5 13.75,-13.75c1.667,-1.667 2.917,-3.333 4.583,-4.583c1.25,-1.25 2.5,-2.917 3.75,-4.167c1.25,-1.667 2.917,-2.917 4.167,-4.583c1.25,-1.25 2.5,-2.5 3.75,-3.75c1.25,-1.25 2.5,-2.917 3.75,-4.167c1.25,-1.25 2.083,-2.5 3.333,-3.75c1.25,-1.25 2.5,-2.917 3.333,-4.167c0.833,-1.25 2.083,-2.5 2.917,-3.75c1.25,-1.25 2.083,-2.5 2.917,-3.75c0.833,-1.25 1.667,-2.083 2.5,-3.333c0.833,-1.25 1.667,-2.5 2.917,-3.75c0.833,-1.25 1.667,-2.083 2.5,-3.333c0.833,-1.25 1.667,-2.5 2.5,-3.333c0.833,-0.833 1.25,-2.083 2.083,-2.917c0.833,-1.25 1.667,-2.083 2.083,-3.333c0.417,-0.833 1.25,-2.083 1.667,-2.917c0.833,-1.25 1.25,-2.083 2.083,-2.917c0.417,-0.833 1.25,-1.667 1.667,-2.5c0.417,-0.833 1.25,-2.083 1.667,-2.917c0.417,-0.833 0.833,-1.667 1.25,-2.5c0.417,-0.833 0.833,-1.667 1.25,-2.917c0.417,-0.833 0.833,-1.667 1.25,-2.083c0.417,-0.833 0.833,-1.667 1.25,-2.5c0.417,-0.833 0.833,-1.25 0.833,-2.083c0.417,-0.833 0.833,-1.667 0.833,-2.5c0.417,-0.833 0.417,-1.25 0.833,-1.667c0.417,-0.833 0.417,-1.667 0.833,-2.5c0,-0.417 0.417,-1.25 0.417,-1.667c0.417,-0.833 0.417,-1.667 0.833,-2.083c0,-0.417 0.417,-0.833 0.417,-1.25c0,-0.833 0.417,-1.25 0.417,-2.083c0,-0.417 0,-0.833 0.417,-1.25c0,-0.833 0.417,-1.25 0.417,-2.083l0,-0.833c0,-0.833 0,-1.25 0.417,-2.083l0,-6.667c-0.417,-4.167 -1.667,-5.833 -1.667,-5.833c-0.833,0.417 -2.083,1.25 -2.917,1.667l-0.417,0c-0.833,0.417 -1.25,0.833 -2.083,0.833c-25.833,11.667 -76.25,16.25 -76.25,16.25c-3.333,-3.75 -7.083,-7.5 -10,-10.833c-0.833,-0.833 -1.667,-1.667 -2.5,-2.917c-2.917,-3.333 -5.833,-6.667 -8.75,-10.417c0,-0.417 -0.417,-0.417 -0.417,-0.833c-66.667,-81.667 -79.167,-165.833 -79.167,-165.833l-7.5,-0Z" style="fill:#fff;fill-rule:nonzero;"/><path d="M1023.75,488.75c0,-0.417 0,-0.417 0,0c3.75,-23.333 5,-66.25 -18.75,-117.917c10.833,45.417 -0.417,88.333 -8.75,110l-55.833,10c4.167,4.583 8.333,9.583 12.5,14.167c19.167,-1.667 55.833,-7.5 70.833,-16.25Z" style="fill:#fff;fill-rule:nonzero;"/><path d="M1077.5,637.917c-1.667,-18.75 -8.333,-69.167 -34.167,-117.917c-5.417,25.417 -30,70.417 -110.833,142.083c-1.667,12.083 -6.25,47.5 -2.083,84.583l35.833,27.083c0.833,-0.833 2.083,-1.25 2.917,-2.083c2.083,-1.25 4.583,-2.917 7.083,-4.167l0.417,-0.417l0.417,0c1.667,-1.25 3.75,-2.083 5.833,-3.333c0.833,-1.25 2.083,-2.917 3.333,-5c2.083,-3.333 3.333,-6.25 4.167,-9.167c0.833,-2.917 2.917,-5 5.833,-5.833l0,-0.417l0.417,0.417l1.667,0c2.5,0 4.583,0.833 6.25,2.917l0.417,0.833c0,0.417 0.417,0.417 0.833,1.25l0.417,0.417c0.417,0.417 0.417,0.833 0.833,1.25l0.417,0.417c0.417,0.417 0.417,1.25 0.833,1.667c0,0.417 0.417,0.417 0.417,0.833c0.417,0.833 0.417,1.25 0.833,2.083c18.333,-19.167 42.5,-47.917 59.167,-84.167l25,-4.167c0.417,-3.333 0.833,-7.083 0.833,-10.417l0,-1.667c0.417,-2.917 0.417,-5.833 0.833,-9.167l0,-2.083l-17.917,-5.833Z" style="fill:#fff;fill-rule:nonzero;"/><path d="M707.917,966.667c-4.583,0 -9.167,-2.5 -11.25,-7.083c-0.417,-0.833 -3.75,-7.917 -9.167,-18.75c-19.167,-9.583 -31.25,-16.667 -31.667,-17.083c2.5,4.167 13.333,37.917 85.417,65.417l-1.667,3.333l5,0c15.833,0 32.083,0.417 47.917,0.833l10.417,0c18.333,0.417 36.667,0.833 55,1.25c5,-2.5 10,-5 15,-7.5c0.833,-0.417 2.083,-0.833 2.917,-1.667c4.583,-2.5 9.583,-5 14.167,-7.917c10,-5.833 20,-12.083 29.583,-19.167c1.25,-0.833 2.917,-2.083 4.167,-2.917c3.333,-2.083 6.25,-4.583 9.583,-7.083c2.083,-1.667 3.75,-2.917 5.833,-4.583c2.5,-2.083 5,-3.75 7.5,-5.833c2.083,-1.667 4.167,-3.75 6.25,-5.417c1.25,-1.25 2.917,-2.5 4.167,-3.75l-12.083,-6.25c4.583,-7.917 10,-18.75 15,-32.917c-0.417,0 -0.833,0.417 -1.25,0.417c-0.417,0 -0.417,0 -0.833,0.417c-0.833,0.417 -2.083,0.417 -2.917,0.833l-0.833,0c-2.917,0.833 -5.833,1.25 -8.75,1.25c-1.667,0 -2.917,0 -4.583,-0.417c-6.25,12.083 -12.083,20.417 -15.833,25.417l-0.417,0.417c-46.667,37.917 -117.917,51.25 -152.5,55.417c-11.25,-2.917 -21.667,-6.667 -32.083,-10.417l-31.667,2.917c0.417,0.417 -0,0.833 -0.417,0.833Z" style="fill:#fff;fill-rule:nonzero;"/><path d="M1000.833,755.833c-0.417,-0.417 -0.417,-0.833 -0.833,-1.25c0,0 0,-0.417 -0.417,-0.417c-0.417,-0.417 -0.417,-0.833 -0.833,-0.833l0,-0.417c0,-0.417 -0.417,-0.417 -0.417,-0.833l0,-0.417c-1.25,4.167 -2.917,7.917 -5,11.25c-2.5,4.583 -5,7.5 -5,7.5c-0.417,0 -0.417,0.417 -0.833,0.417c-2.083,1.25 -4.167,2.083 -6.25,3.333c-0.417,0 -0.833,0.417 -0.833,0.417c-2.083,1.25 -4.583,2.5 -6.667,4.167c-15.417,9.583 -27.083,18.75 -27.083,18.75c-4.167,14.583 -1.667,29.167 -1.667,29.167l-13.75,14.167c2.917,13.333 -0.417,35.417 -0.417,35.417c0.833,0.833 1.25,2.083 2.083,2.5c0.417,0.417 0.833,0.833 1.25,0.833c0.417,0.417 0.833,0.833 1.25,1.25c0.417,0.417 0.833,0.417 1.667,0.833c0.417,0 0.833,0.417 0.833,0.417c0.417,0.417 1.25,0.417 1.667,0.833c0.417,0 0.417,0.417 0.833,0.417c1.667,0.417 3.75,0.833 5.417,0.833c2.083,0 4.583,-0.417 6.667,-0.833l0.417,0c0.833,-0.417 1.667,-0.417 2.5,-0.833c0.417,0 0.417,0 0.833,-0.417c0.417,-0.417 1.25,-0.417 1.667,-0.833c0.417,0 0.417,-0.417 0.833,-0.417c0.417,0 0.833,-0.417 1.25,-0.417c0.417,0 0.833,-0.417 0.833,-0.417c0.417,0 0.417,-0.417 0.833,-0.417c0.417,0 0.833,-0.417 0.833,-0.417c0.417,0 0.417,-0.417 0.833,-0.417c1.25,-21.667 30.417,-66.25 30.417,-66.25c10,-19.167 11.25,-33.75 10,-43.75l0,-0.833c0,-0.833 -0.417,-1.667 -0.417,-2.5c0,-0.417 0,-0.833 -0.417,-1.25c0,-0.833 -0.417,-1.667 -0.417,-2.083c0,-0.417 -0.417,-0.833 -0.417,-1.25c-0.417,-0.833 -0.417,-1.25 -0.833,-2.083c0,-0.417 -0.417,-0.417 -0.417,-0.833c-0.417,-0.417 -0.417,-1.25 -0.833,-1.667c0.833,-0 0.833,-0.417 0.833,-0.417Z" style="fill:#fff;fill-rule:nonzero;"/><path d="M333.75,1271.667c-32.083,0 -52.917,1.667 -80.833,-9.167c-24.167,-9.167 -28.333,-22.917 -28.333,-40l0,-108.75c0,-15.417 2.5,-25.833 19.583,-36.25c15.417,-9.167 40.833,-11.25 66.25,-11.25l144.583,0l0.417,43.333l-130.417,0c-5.833,0 -10.417,1.667 -14.583,4.167c-4.167,2.917 -5,5.833 -5,9.167l0,91.667c0,4.167 2.5,7.083 7.917,9.583c6.667,3.333 14.583,2.083 23.75,2.083l120.417,0l0,44.583l-123.75,0.833Z" style="fill:#fff;fill-rule:nonzero;"/><path d="M756.667,1271.667l-21.25,-44.583l-107.083,0l-23.75,44.583l-81.25,0l97.917,-181.667c8.75,-16.25 30,-27.917 60,-27.917c28.333,0 50.417,10 58.333,25.417l100,184.167l-82.917,0Zm-75.833,-155l-31.667,65.833l63.333,0l-31.667,-65.833Z" style="fill:#fff;fill-rule:nonzero;"/><path d="M1010.417,1109.583c-6.25,0 -10.417,2.083 -14.583,4.583c-4.167,2.5 -5.417,5.417 -5.417,9.167l0,21.25l150.417,0l0,44.583l-151.25,0l0,82.5l-78.75,0l0,-157.917c0,-15 2.917,-27.083 20,-37.5c15,-9.167 38.75,-9.583 65,-9.583l145.417,-0.417l0,43.333l-130.833,-0Z" style="fill:#fff;fill-rule:nonzero;"/><path d="M270,619.167c0,-226.667 184.583,-411.25 411.25,-411.25c226.667,0 411.25,184.583 411.25,411.25c0,165 -97.917,307.917 -238.75,372.917c2.917,0 5.833,0.417 8.75,0.417c138.333,-67.5 234.167,-209.583 234.167,-373.75c0,-229.167 -186.25,-415.417 -415.417,-415.417c-229.167,-0 -415.417,186.25 -415.417,415.417c0,164.167 95.833,306.25 234.167,373.75c2.917,0 5.833,-0.417 8.75,-0.417c-140.833,-65 -238.75,-207.917 -238.75,-372.917Z" style="fill:#fff;fill-rule:nonzero;"/></svg>