<?xml version="1.0" encoding="UTF-8" standalone="no"?><!DOCTYPE svg PUBLIC "-//W3C//DTD SVG 1.1//EN" "http://www.w3.org/Graphics/SVG/1.1/DTD/svg11.dtd"><svg width="100%" height="100%" viewBox="0 0 2084 738" version="1.1" xmlns="http://www.w3.org/2000/svg" xmlns:xlink="http://www.w3.org/1999/xlink" xml:space="preserve" xmlns:serif="http://www.serif.com/" style="fill-rule:evenodd;clip-rule:evenodd;stroke-linejoin:round;stroke-miterlimit:2;"><path d="M751.46,79.554l-41.612,73.796l-0.258,498.342l0,0.054l76.346,-65.983l-0.05,-0.104c48.587,-41.925 79.417,-103.846 79.417,-173.112l-0.1,-319.396c-0.521,-34.321 -19.896,-62.342 -45.517,-78.275l-68.225,64.679Z" style="fill:#fff;fill-rule:nonzero;"/><path d="M1519.244,369.15l0,-0.104l0,0.104Z" style="fill:#fff;fill-rule:nonzero;"/><path d="M1537.569,0l-441.158,0l-98.533,125.404c-28.229,35.729 -33.592,51.196 -33.592,88.692l0,78.275c2.967,-114.367 106.658,-133.633 151.6,-136.758c12.708,-0.887 20.729,-0.521 20.417,-0.575l278.308,0l122.958,-155.038Z" style="fill:#fff;fill-rule:nonzero;"/><path d="M709.585,651.733c-45.208,-2.083 -152.646,-31.142 -192.121,-152.275l-109.938,138.946c14.442,37.901 43.607,68.4 80.825,84.521c17.188,8.804 40.467,14.479 65.412,14.479c26.975,0 60.725,-12.862 82.075,-26.142c9.221,-5.888 66.192,-51.667 73.746,-59.529" style="fill:#fff;fill-rule:nonzero;"/><path d="M2024.344,0.746l-250.446,0l0,0.046c-160.925,0.938 -276.75,120.667 -287.008,272.271c-0.569,8.25 -0.847,16.518 -0.833,24.788l-0.104,-0l0,144.154l0.054,0c-0.054,-25.208 11.25,-72.704 11.25,-72.704c26.35,-101.5 129.883,-215.292 278.567,-213.208l131.238,-1.354l122.283,-153.996l-5,0.004Z" style="fill:#fff;fill-rule:nonzero;"/><path d="M1497.123,369.842c-1.25,5.312 -11.196,48.542 -11.142,72.129l-0.054,0c0.054,7.917 0.367,15.729 0.888,23.279c10.258,151.55 126.083,271.229 287.004,272.113l138.271,0l121.654,-153.842l-258,-1.354c-148.579,2.083 -252.058,-111.5 -278.517,-212.846c0,0 -0.05,0.158 -0.104,0.521" style="fill:#fff;fill-rule:nonzero;"/><path d="M1134.448,155.017l-2.188,0c-3.542,0 -9.167,0.104 -16.354,0.575c-44.838,3.125 -148.058,22.292 -151.6,135.821l0.367,445.95l171.596,0l0,-243.729l0.312,0l0,-0.417l228.263,0l0,-159.883l-228.575,0l0,-178.317c-0.05,0.054 -0.675,0 -1.821,0" style="fill:#fff;fill-rule:nonzero;"/><path d="M771.765,0.608c16.458,0 33.229,5.104 47.917,14.271l-573.029,722.537l-197.063,0l583.283,-736.808l138.892,-0Z" style="fill:#fff;fill-rule:nonzero;"/></svg>