<?xml version="1.0" encoding="utf-8"?>
<!-- Generator: Adobe Illustrator 27.2.0, SVG Export Plug-In . SVG Version: 6.00 Build 0)  -->
<svg version="1.1" id="Capa_1" xmlns="http://www.w3.org/2000/svg" xmlns:xlink="http://www.w3.org/1999/xlink" x="0px" y="0px"
	 viewBox="0 0 276.1 341.2" style="enable-background:new 0 0 276.1 341.2;" xml:space="preserve">
<style type="text/css">
	.st0{fill:#FFFFFF;}
</style>
<g>
	<path class="st0" d="M225.7,290.7l9,8.3c-13.9,15.1-31.4,26.9-51,34.1l-4.2-11.5C197.2,315.1,213,304.4,225.7,290.7 M170.5,324.5
		l3.3,11.8c-11.4,3.2-23.4,4.9-35.8,4.9c-12.4,0-24.3-1.7-35.7-4.9l3.3-11.7c10.5,2.9,21.4,4.4,32.3,4.4
		C149.3,329,160.2,327.4,170.5,324.5 M96.8,321.7l-4.2,11.5c-19.7-7.2-37.1-19-51.1-34.1l9-8.3C63.2,304.4,79,315.1,96.8,321.7"/>
	<path class="st0" d="M231.7,283.6c16-20.3,25.6-45.8,25.6-73.6c0-65.7-53.4-119-119.3-119c-65.9,0-119.3,53.3-119.3,119
		c0,27.8,9.6,53.4,25.6,73.7l-9.6,7.6C17.1,268.9,6.6,240.6,6.6,210c0-72.5,58.9-131.2,131.5-131.2S269.5,137.5,269.5,210
		c0,30.7-10.5,58.9-28.2,81.2L231.7,283.6z"/>
	<path class="st0" d="M36.1,210c0-56.1,45.8-101.8,102-101.8S240,153.8,240,210c0,56.1-45.8,101.8-102,101.8S36.1,266.1,36.1,210
		 M31.2,210c0,58.8,48,106.7,106.9,106.7S244.9,268.8,244.9,210c0-58.8-47.9-106.7-106.9-106.7C79.1,103.3,31.2,151.1,31.2,210"/>
	<path class="st0" d="M211.8,210c0,40.7-33,73.6-73.8,73.6s-73.8-33-73.8-73.6c0-40.7,33-73.6,73.8-73.6S211.8,169.3,211.8,210
		 M138.1,140.6c-38.4,0-69.5,31.1-69.5,69.4c0,38.3,31.1,69.4,69.5,69.4c38.4,0,69.5-31.1,69.5-69.4
		C207.6,171.6,176.4,140.6,138.1,140.6"/>
	<path class="st0" d="M78.9,156.7c3.7-4,3.7-8.4,0-11.9c-3.6-3.4-7.9-3-11.7,1l-3.5,3.8l11.7,10.9L78.9,156.7z M69.6,147.7
		c2.2-2.3,4.7-2.4,6.9-0.4c2.3,2.2,2.5,4.7,0.3,7.1l-1.3,1.4l-7.2-6.7L69.6,147.7z M96.9,141.6l-1.8-2.5l-5.8,4l-2.1-2.9l4.9-3.4
		l-1.6-2.3l-4.9,3.4l-2-2.8l5.6-3.9l-1.7-2.4l-8.4,5.9l9.2,13.1L96.9,141.6z M106.9,137.1c4-1.7,5.2-4.9,3.4-9l-3.7-8.6l-3.1,1.3
		l3.7,8.6c1,2.3,0.4,4-1.5,4.8c-1.9,0.8-3.5,0-4.5-2.3l-3.7-8.6l-3.2,1.3l3.7,8.6C99.8,137.5,103,138.8,106.9,137.1 M120.9,132.3
		l3.4-0.7l-2.5-12.7l4.5-0.9l-0.6-3l-12.3,2.4l0.6,3l4.5-0.9L120.9,132.3z M142.3,125.8c0-2.8-1.5-3.8-4.1-4.9
		c-2.1-0.8-2.9-1.2-2.9-2.4c0-0.9,0.7-1.4,1.8-1.4c1.5,0,2.4,0.9,2.8,1.5l2-2.2c-0.9-1.2-2.4-2.4-5.1-2.3c-3.1,0.1-5.2,2-5.2,4.6
		c0,2.9,1.9,4,4.3,5c1.8,0.6,2.5,1.3,2.5,2.4c0,0.9-0.7,1.6-2.2,1.6c-1.7,0-2.7-1.2-3.2-1.9l-2.1,2.3c0.9,1.2,2.5,2.7,5.4,2.6
		C140.3,130.7,142.4,128.5,142.3,125.8 M154.4,129.2c-2.8-0.5-4.3-2.9-3.7-6c0.6-3.1,2.8-4.7,5.6-4.2c1.6,0.3,2.6,1.1,3.2,2.5
		l2.8-1.6c-1-2-2.6-3.4-5.5-3.9c-4.8-0.9-8.8,1.8-9.7,6.6c-0.9,5,1.7,8.8,6.5,9.7c3.1,0.6,5.2-0.3,6.7-1.8l-1.9-2.4
		C157.6,129,156.4,129.6,154.4,129.2 M172.4,138.1l3.2,1.4l6.3-14.7l-3.2-1.4l-2.5,5.9l-5.7-2.4l2.5-5.9l-3.2-1.4l-6.3,14.7l3.2,1.4
		l2.6-6l5.7,2.4L172.4,138.1z M188.8,148.4l1.8-2.5l-5.8-4.1l2.1-2.9l4.8,3.4l1.7-2.3l-4.8-3.4l2-2.8l5.6,3.9l1.7-2.4l-8.4-5.9
		l-9.2,13L188.8,148.4z M194.6,153.9l3.9-3.7l0.8,0.9l-1.5,6.3l2.9,3l1.4-7.1c2,1,4.1,0.8,5.8-0.9c2.5-2.4,2.2-5.4-0.7-8.4l-3.5-3.6
		l-11.6,11L194.6,153.9z M204,145l1.1,1.2c1.4,1.4,1.4,2.8,0.4,3.8c-1.2,1.1-2.5,1-3.9-0.5l-1.1-1.2L204,145z M58,244.6l4-1.8
		l2.6,5.9l2.8-1.2l-4-9L48.8,245l1.4,3.1l5.1-2.3l2.4,5.3l2.7-1.2L58,244.6z M75.2,259.2l-7.6,5.5c-2,1.4-3.8,1.3-5-0.4
		c-1.2-1.7-0.8-3.4,1.2-4.9l7.6-5.5l-2-2.8l-7.6,5.4c-3.7,2.6-4.2,6-1.8,9.4c2.5,3.5,5.9,4,9.6,1.4l7.6-5.4L75.2,259.2z M82.6,270.9
		c1.1,1,1.1,2.3,1,3l2.9-0.2c0.2-1.5-0.1-3.4-2.1-5.1c-2.3-2.1-5.1-2.1-6.9-0.2c-1.9,2.1-1.4,4.2-0.3,6.6c0.9,1.7,1,2.6,0.2,3.5
		c-0.6,0.7-1.6,0.7-2.7-0.3c-1.3-1.2-1.2-2.7-1.1-3.6l-3.1,0.3c-0.2,1.5,0,3.6,2.1,5.6c2.7,2.4,5.7,2.3,7.5,0.3
		c1.9-2,1.5-3.8,0.4-6.3c-0.9-2-1.2-2.9-0.4-3.7C80.8,270,81.7,270.1,82.6,270.9 M95.7,277.1c-2.6-1.7-5.4-1.2-6.8,1.1
		c-1.5,2.4-0.6,4.4,0.9,6.5c1.1,1.5,1.4,2.4,0.8,3.4c-0.5,0.8-1.5,0.9-2.7,0.1c-1.5-0.9-1.6-2.5-1.7-3.3l-3,0.8
		c0.1,1.5,0.6,3.6,3.1,5.1c3.1,1.9,6,1.2,7.4-1.1c1.5-2.3,0.8-4-0.7-6.3c-1.3-1.9-1.7-2.6-1.1-3.6c0.5-0.7,1.4-0.8,2.3-0.2
		c1.3,0.8,1.5,2,1.6,2.8l2.9-0.7C98.5,280.3,97.9,278.5,95.7,277.1 M108.6,284.1l-4.8-1.9l-5.9,14.8l5.2,2c3.6,1.4,6,0.5,7-1.9
		c0.8-2-0.1-3.7-1.5-4.6l0,0c1.5,0.1,3-0.6,3.7-2.5C113.3,287.6,112.1,285.4,108.6,284.1 M107.1,295.4c-0.4,1.1-1.5,1.5-3.1,0.8
		l-1.8-0.7l1.4-3.5l1.7,0.7C107,293.3,107.6,294.2,107.1,295.4 M109,289.2c-0.4,1.1-1.5,1.5-2.9,0.9l-1.5-0.6l1.4-3.4l1.5,0.6
		C109,287.3,109.5,288.1,109,289.2 M121.9,288l0.3,1.5l-8.3,13.3l3.5,0.6l1.7-2.9l5.5,1l0.6,3.3l3.7,0.6l-3.5-16.8L121.9,288z
		 M120.6,298l2.6-4.5l0,0l0.9,5.1L120.6,298z M139,302.5l-0.2-12.8l-3.4,0.1l0.2,15.9l9.3-0.1l0-3.1L139,302.5z M154.1,301.1
		l-2.3-12.6l-3.4,0.6l2.8,15.6l9.1-1.6l-0.6-3L154.1,301.1z M161.6,293.9l5.7-1.8l0.8,2.6l-5.7,1.8L161.6,293.9z M180.6,286.6
		L180.6,286.6c1.1-1.1,1.5-2.6,0.6-4.5c-1.2-2.3-3.5-2.8-6.9-1.1l-4.6,2.4l7.2,14.2l4.9-2.5c3.4-1.8,4.4-4.2,3.2-6.5
		C184.1,286.6,182.2,286.1,180.6,286.6 M175.7,287.6l-1.7-3.3l1.5-0.8c1.4-0.7,2.4-0.5,2.9,0.5c0.5,1.1,0.1,2.1-1.2,2.8L175.7,287.6
		z M180.3,292.5l-1.7,0.9l-1.7-3.4l1.7-0.8c1.5-0.8,2.6-0.6,3.2,0.5C182.3,290.7,181.9,291.7,180.3,292.5 M193.7,267.5l-2.6,2.1
		l5.9,7.2c1.6,1.9,1.5,3.7-0.1,5c-1.6,1.3-3.4,1-4.9-0.9l-5.9-7.2l-2.7,2.2l5.9,7.2c2.9,3.5,6.3,3.9,9.5,1.2
		c3.3-2.7,3.6-6.1,0.8-9.6L193.7,267.5z M203.4,255.9l7.7,5.9l0,0l-11.9-0.6l-2.5,3.3l2,0.1l11.4,8.7l2.1-2.7l-7.7-5.9l0,0l11.7,0.6
		l1.9-2.5l-12.6-9.7L203.4,255.9z M221.1,239.2c-4.5-2-8.4-0.3-10.7,4.7l-2.1,4.7l14.5,6.5l2.1-4.7
		C227.1,245.4,225.7,241.3,221.1,239.2 M222.1,248.9l-0.8,1.7l-8.9-4l0.8-1.7c1.3-2.9,3.7-3.8,6.4-2.6
		C222.5,243.7,223.5,246,222.1,248.9 M196.9,216.7c0,0-11.2-37.1-13-43.1c-1.6-5.1-5.6-4.8-5.6-4.8s-1.3,0.1-11.9-0.1
		c-10.2-0.1-11.2,2.4-3.9,12c2.3,3,1.4,3.5-4.5,4.5c-5.9,1-8.7-4.7-9.1-7.3c-0.3-2.5-1.6-11.5-1.8-12c-0.4-1.1,2.4-1.9,3.7-1
		c2.5,1.6,2.1,2.1,2.1-2.6c0-4.7-6.2-4.3-6.2-4.3c-0.4-4.9-7.8-4.1-10.2-3.9c-2.4,0.2-4.8,1.9-11.1,1.9c-6.3,0-5.2,8.1-5.2,8.1
		s2.9-0.9,5.2-0.8c2.2,0.1,7.9-0.1,6.2,3.4c0,0-4.6-1.6-6.7-1.6c-2.2,0-7.3,0-8.6-1.9c-1.3-1.9-1.8-2.5-1.8-2.5s-1.5,5.9,1.9,6.5
		c3.3,0.6,6.8,0,8.4-0.1c1.6-0.1,4.8-0.1,5.7,0c0.9,0.1-0.1,1-1.7,1.1c-1.7,0.1-5.5-0.2-4.5,1.6c1,1.7,2.8,2.7,3.9,2.9
		c1.1,0.2,4.1-0.3,2.8,2.9l-0.7,2.1c-0.8,2.4-3.4,8.1-9.3,7.1c-5.9-1-6.8-1.4-4.5-4.5c7.2-9.6,6.3-12.1-3.9-12
		c-10.6,0.1-11.9,0.1-11.9,0.1s-4-0.3-5.6,4.8c-1.8,5.9-15.9,43.6-15.9,43.6s-0.6,3.6,2.4,4.7c4,1.3,5.3-2.6,5.3-2.6l10.2-27
		c0.8,0.5,1.5,0.9,2.3,1.4l-12.7,35.3c0,0-1.3,3.9,2.8,5.3c3.7,1.3,5.3-3.3,5.3-3.3l12.3-33.4c0.7,0.3,1.3,0.6,1.9,0.8L96.1,235
		c0,0-1.2,4,2.6,5.2c3.8,1.3,5.4-3.2,5.4-3.2l12.8-36.2c0.8,0.2,1.5,0.4,2.3,0.6c0,0,0,0.1,0,0.1l-6.5,21.7c0,0-1.1,3.7,2.6,5.2
		c3.7,1.4,5.7-3.4,5.7-3.4l6-19.2c0,0,2.4,10-1.9,17c-4.3,7-8.6,11.6-14.1,14.2c0,0,0.1,0.8,2.2,0.9c2,0.2,2.2,0.7,2.4,1l-2.9,4.4
		c0,0-0.4,1.6-2.4,0.7c-1.9-0.9-4.4-2.2-4.4-2.2s-2.5-0.6-3.1,0.6l-0.6,1.2c0,0-2.9,0.3-3.2,1.9c-0.4,1.7,0.1,1.9,0.1,1.9
		s1.3-0.9,1.9-0.6c0.8,0.5,0.1,1.8,1,2.2c1.6,0.6,2.8-0.3,3.6-1.1c0.6-0.5,1.9,0.1,2,0.5c0.1,0.4-0.6,1.6-2.2,1.8
		c-1.7,0.2-5.3,0.9-5,2.7c0.2,1.6,0.2,1.7,0.2,1.7c0,0-1.3,2.9,1.4,3.9c0,0,0.4-1.7,1-1.7c0.6,0,1.1,1,2.1,1c1,0,1.9-0.9,2.5-2.6
		c0.6-1.7,1.6-4,1.6-4s0.7-0.9,1.2-0.7c0.4,0.1,0.7,0.9,0.5,1.4c-0.1,0.5-0.4,1.7-0.5,1.9c-0.1,0.3-2.5,3.3-0.6,4.7
		c1.9,1.4,1.7,2,2.2,2.4c0.5,0.4,2.5,1.1,3.2,0.7c0,0-0.9-1.6-1.1-1.9s-0.1-0.9,1.2-0.9c1.4,0,1.4-1.7,0.5-3
		c-0.9-1.3-1.2-2.5-1.4-3.4c-0.6-1.7,1-2.3,1.7-0.6c0.7,1.7,0.4,3.3,1.9,3.1c1.1-0.2,1.4-0.9,1.9-0.8c0.5,0.1,1.9,1.1,1.2,2.9
		c0,0,3.4-0.5,2.2-3.6c-0.8-2-1.7-1-1.1-3c0.5-1.6-0.9-2.7-2.6-2.7c-1.6,0.1-3.6-0.4-2.6-2.2c1-2,2.4-4.4,2.4-4.4l2.4,2.7
		c0,0,2.2-5.6,4.3-8.1c2-2.5,4.5-5.6,5.6-5c1.2,0.6,1.5,8.8,0.6,12.9c-0.9,4.1-4.3,13.1-5.1,14.3c-0.8,1.2,4.5-0.8,5.1-1
		c0.6-0.2,1.9-1.8,2.2,0.7c0.3,2.4,1.2,7.1,3.5,9.5l0.1-0.1c2.2-2.4,3.3-7.2,3.6-9.6c0.3-2.4,1.6-0.9,2.2-0.6c0.6,0.2,5.9,2.2,5.1,1
		c-0.8-1.2-4.2-10.2-5.1-14.3c-0.9-4.1-0.6-12.2,0.6-12.9c1.1-0.6,3.6,2.5,5.6,5c2,2.5,4.2,8.1,4.2,8.1l2.4-2.7c0,0,1.4,2.4,2.4,4.4
		c1,1.9-1,2.3-2.6,2.2c-1.7-0.1-3.1,1.1-2.6,2.7c0.6,2-0.3,1-1.1,3c-1.1,3.1,2.2,3.6,2.2,3.6c-0.8-1.9,0.7-2.8,1.2-2.9
		c0.5-0.1,0.8,0.7,1.9,0.8c1.5,0.2,1.2-1.4,1.9-3.1c0.7-1.7,2.2-1.1,1.7,0.6c-0.3,0.8-0.6,2.1-1.4,3.4c-0.9,1.3-0.9,3,0.5,3
		c1.4,0,1.4,0.6,1.2,0.9c-0.2,0.3-1.1,1.9-1.1,1.9c0.7,0.4,2.7-0.3,3.2-0.7c0.5-0.4,0.3-0.9,2.2-2.4c1.9-1.4-0.5-4.5-0.6-4.7
		c-0.1-0.3-0.4-1.4-0.5-1.9c-0.1-0.5,0.1-1.3,0.5-1.4c0.4-0.1,1.1,0.7,1.1,0.7s1,2.3,1.6,4c0.6,1.7,1.5,2.6,2.5,2.6c1,0,1.5-1,2.1-1
		c0.6,0,1,1.7,1,1.7c2.7-1.1,1.4-3.9,1.4-3.9c0,0,0-0.2,0.2-1.7c0.2-1.9-3.4-2.5-5-2.7c-1.7-0.2-2.3-1.4-2.2-1.8
		c0.1-0.4,1.4-1,2-0.5c0.9,0.8,2,1.7,3.6,1.1c0.9-0.3,0.3-1.7,1-2.2c0.6-0.3,1.9,0.6,1.9,0.6s0.5-0.2,0.1-1.9
		c-0.4-1.7-3.2-1.9-3.2-1.9l-0.6-1.2c-0.6-1.2-3.1-0.6-3.1-0.6s-2.5,1.3-4.4,2.2c-1.9,0.9-2.4-0.7-2.4-0.7l-2.3-5
		c0.3-0.4,0.4-0.9,2.4-1c2-0.1,2.2-0.9,2.2-0.9c-5.5-2.6-8.4-6.4-12.7-13.4c-4.3-7-1.9-16.9-1.9-16.9l6,19.2c0,0,2,4.9,5.7,3.4
		c3.7-1.4,2.6-5.2,2.6-5.2l-6.7-22.3c0,0,0,0,0,0c0.7-0.2,1.5-0.4,2.2-0.6l11,36.5c0,0,1.5,4.5,5.4,3.2c3.8-1.3,2.6-5.2,2.6-5.2
		l-11.2-37.4c0.6-0.3,1.3-0.6,1.9-0.9l0,0l10.5,33.9c0,0,1.6,4.6,5.3,3.3c4.1-1.4,2.8-5.3,2.8-5.3l-11.1-36.1c0,0,0,0,0,0
		c0.7-0.4,1.4-0.9,2.1-1.4c0.2,0.2,0.3,0.5,0.3,0.5l8.4,27.3c0,0,1.3,3.9,5.3,2.5C197.5,220.3,196.9,216.7,196.9,216.7 M84.5,217.3
		c0,0-0.7,2.2-1.9,1.6c-1.2-0.6-0.3-2.4-0.3-2.4s9.7-24.9,10.7-27.4c0.7,0.5,1.4,1,2.1,1.5L84.5,217.3z M92.3,229.1
		c0,0-0.6,2.2-1.9,1.6c-1.3-0.6-0.4-2.4-0.4-2.4s10.4-28.9,12.1-33.5c0.7,0.4,1.5,0.8,2.2,1.1L92.3,229.1z M101.5,235.8
		c0,0-0.6,2.2-1.9,1.6c-1.3-0.5-0.4-2.4-0.4-2.4s10.6-30.4,12.6-35.9c0.8,0.3,1.6,0.5,2.3,0.8L101.5,235.8z M118,223.9
		c0,0-0.5,2.2-1.8,1.7c-1.3-0.5-0.5-2.4-0.5-2.4s5.1-16.9,6.4-21.4c0.9,0.2,1.7,0.3,2.5,0.4L118,223.9z M136.4,160.7
		c-1,0-1.9-1.1-1.9-1.1s0.5-1,1.9-1c1.3,0.1,1.9,1,1.9,1S137.4,160.8,136.4,160.7 M162.3,223.4c0,0,0.8,1.9-0.5,2.4
		c-1.3,0.5-1.8-1.7-1.8-1.7l-6.7-21.3c0,0-0.2-0.3,0.1-0.7c0.7-0.1,1.4-0.3,2.2-0.4C156.1,202.9,162.3,223.4,162.3,223.4 M177.1,235
		c0,0,0.8,1.9-0.5,2.4c-1.3,0.5-1.8-1.7-1.8-1.7l-11.2-36.2c0.8-0.3,1.6-0.6,2.3-0.8C167.1,202.5,177.1,235,177.1,235 M186.4,228.5
		c0,0,0.8,1.9-0.5,2.4c-1.3,0.5-1.8-1.7-1.8-1.7l-10.6-34.1c0.7-0.4,1.5-0.8,2.2-1.2C176.5,196.2,186.4,228.5,186.4,228.5
		 M193.4,218.7c-1.3,0.5-1.8-1.7-1.8-1.7l-8.5-27.8c0.7-0.5,1.4-1,2.1-1.6c0,0,0,0,0,0c0.2,0.7,8.7,28.7,8.7,28.7
		S194.7,218.2,193.4,218.7 M22.1,49.8H0l17.9,13.6l-6.8,21.9L29,71.7l17.9,13.6L40,63.4l17.9-13.6H35.8L29,27.8L22.1,49.8z
		 M94.9,21.9H72.7l17.9,13.6l-6.8,21.9l17.9-13.6l17.9,13.6l-6.8-21.9l17.9-13.6h-22.1L101.7,0L94.9,21.9z M167.6,21.9h-22.1
		l17.9,13.6l-6.8,21.9l17.9-13.6l17.9,13.6l-6.8-21.9l17.9-13.6h-22.1L174.4,0L167.6,21.9z M240.3,49.8h-22.1l17.9,13.6l-6.8,21.9
		l17.9-13.6l17.9,13.6l-6.8-21.9l17.9-13.6H254l-6.8-21.9L240.3,49.8z"/>
</g>
</svg>
