<?xml version="1.0" encoding="utf-8"?>
<!-- Generator: Adobe Illustrator 27.2.0, SVG Export Plug-In . SVG Version: 6.00 Build 0)  -->
<svg version="1.1" id="Capa_1" xmlns="http://www.w3.org/2000/svg" xmlns:xlink="http://www.w3.org/1999/xlink" x="0px" y="0px"
	 viewBox="0 0 115.6 184.4" style="enable-background:new 0 0 115.6 184.4;" xml:space="preserve">
<style type="text/css">
	.st0{fill:#FFFFFF;}
</style>
<g transform="matrix(1.8881068 0 0 1.8881068 -12.857803 -14.088659)">
	<path class="st0" d="M10.3,49.1c-0.1,0.2-0.4,0.9-0.6,1.6c-0.2,0.7-0.4,1.5-0.5,1.9C9.2,53,9.1,53.5,9,53.8l-0.1,0.5
		c-0.3-0.9-0.5-1.5-0.7-1.9c-0.2-0.4-0.5-0.9-0.7-1.1c-0.2-0.2-0.3-0.4-0.4-0.4c0,0-0.1,0.3-0.1,0.6c-0.1,0.4-0.1,0.8,0,2
		c0.1,0.8,0.2,1.6,0.2,1.8c0.1,0.2,0.1,0.6,0.2,0.8c0,0.3,0.1,0.7,0.2,0.9c0.1,0.3,0.2,0.7,0.3,1.1c0.1,0.3,0.3,1.1,0.4,1.6
		c0.2,0.6,0.3,1.1,0.4,1.3c0,0.1,0.2,0.6,0.4,1c0.2,0.4,0.4,0.9,0.6,1.1l0.2,0.4c-0.1,1.1-0.3,1.9-0.5,2.6c-0.2,0.7-0.4,1.5-0.5,1.8
		c-0.1,0.3-0.2,0.8-0.2,0.9l-0.1,0.3C8.3,68,8.1,67.5,8,67.2c-0.1-0.3-0.4-0.7-0.6-1C7.2,66,7,65.8,7,65.8c-0.1,0-0.1,0.2-0.1,0.4
		c0,0.2,0,0.8,0,1.4c0,0.5,0.1,1.3,0.1,1.7c0,0.4,0.1,1,0.2,1.4c0.1,0.4,0.2,0.9,0.2,1.1c0,0.2,0.2,0.8,0.3,1.4
		c0.2,0.6,0.4,1.6,0.6,2.1c0.2,0.5,0.4,1.3,0.6,1.7c0.2,0.4,0.4,0.9,0.6,1.1l0.2,0.4c-0.1,1-0.1,1.7-0.1,2.3c0,0.5,0.1,1.1,0.1,1.4
		c0,0.2,0.1,0.7,0.1,1c0,0.3,0.1,0.7,0.1,0.8c0,0.1,0,0.2,0,0.2c0,0-0.2-0.2-0.3-0.4c-0.1-0.2-0.5-0.7-0.8-1s-0.6-0.6-0.6-0.6
		c0,0-0.1,0-0.2-0.1c-0.1-0.1-0.3-0.2-0.5-0.3l-0.4-0.2c0,0.5,0,0.8,0.1,1c0.1,0.2,0.2,0.6,0.3,0.9C7.8,83.6,8,83.9,8,83.9
		c0,0,0.2,0.5,0.6,1.2c0.3,0.6,0.6,1.2,0.6,1.2c0,0,0.3,0.5,0.6,1c0.3,0.5,0.5,0.9,0.6,0.9c0,0,0.1,0,0.1,0.1c0,0.1,0.1,0.3,0.3,0.5
		c0.2,0.2,0.4,0.6,0.6,0.8c0.2,0.2,0.4,0.5,0.4,0.6c0.1,0.1,0.5,0.6,0.9,1.1c0.4,0.5,0.8,0.9,0.9,0.9c0.1,0.1,0.5,0.5,0.9,0.9
		c0.4,0.5,0.9,1,1.2,1.3c0.3,0.2,0.7,0.5,0.8,0.6c0.1,0.1,0.2,0.1,0.2,0.2c0,0,0.1,0.1,0.1,0.1c0.1,0,0.2,0.1,0.3,0.1
		c0.1,0.1,0.3,0.2,0.5,0.4c0.2,0.2,0.4,0.3,0.5,0.3c0.1,0,0.1,0,0.1,0.1c0,0,0.2,0.2,0.4,0.3c0.2,0.1,0.4,0.2,0.4,0.3
		c0,0-0.6,0.1-1.2,0c-0.7,0-1.3,0-1.6,0.1c-0.3,0.1-0.5,0.2-0.5,0.3c0,0.1-0.1,0.2-0.1,0.2c0,0,0.1,0.1,0.1,0.2
		c0.1,0.1,0.2,0.2,0.3,0.3c0.1,0.1,0.3,0.1,0.5,0.2c0.2,0,0.4,0.1,0.6,0.2c0.2,0.1,0.4,0.1,0.5,0.1s0.4,0.1,0.7,0.2
		c0.3,0.1,0.7,0.2,0.9,0.2c0.2,0,0.4,0,0.4,0.1c0,0,0.2,0.1,0.4,0.1s0.5,0,0.7,0.1c0.2,0,0.6,0.1,0.8,0.1c0.2,0,1,0.1,1.8,0.1
		c0.8,0,1.7,0.1,2.1,0S26,99,26,99c0,0,0.2,0,0.3-0.1c0.1,0,0.5-0.1,0.7-0.1c0.3,0,0.5,0,0.5,0.1c0,0.1,0.1,0.1,0.2,0.2
		c0.1,0,0.7,0.2,1.3,0.4c0.6,0.2,1.1,0.4,1.2,0.4c0.1,0.1,0.1,0.1,0,0.2c0,0-0.2,0.1-0.4,0.3c-0.2,0.1-0.6,0.3-0.8,0.5
		s-0.7,0.4-0.8,0.5c-0.2,0.1-0.5,0.4-0.7,0.6c-0.2,0.2-0.4,0.5-0.5,0.6c-0.1,0.2-0.1,0.3-0.1,0.3c0,0,0.5,0.1,1.1,0.1
		c0.6,0,1.4,0,1.8-0.1c0.4-0.1,1.1-0.2,1.5-0.3c0.4-0.1,1.1-0.4,1.7-0.7c0.5-0.2,0.9-0.4,0.9-0.3c0,0,0,0.1-0.1,0.1
		c0,0-0.3,0.3-0.5,0.7c-0.3,0.3-0.7,1-0.9,1.4c-0.4,0.6-0.5,0.9-0.5,1.1v0.3h1.6c0.2-0.8,0.4-1.3,0.6-1.6c0.2-0.4,0.5-1,0.7-1.4
		c0.2-0.4,0.6-1,0.9-1.3c0.2-0.3,0.5-0.6,0.7-0.7c0.1-0.1,0.5-0.1,1.1-0.1c0.6,0,0.9,0,1.1,0.1c0.1,0.1,0.4,0.4,0.7,0.7
		c0.2,0.3,0.6,0.9,0.9,1.3c0.2,0.4,0.6,1,0.8,1.4c0.2,0.4,0.4,0.9,0.4,1.1l0.1,0.4h1.6c0-0.5-0.1-0.7-0.1-0.9
		c-0.1-0.2-0.3-0.5-0.4-0.8c-0.2-0.2-0.5-0.7-0.7-1.1c-0.2-0.3-0.5-0.7-0.6-0.8c-0.1-0.1-0.1-0.2-0.1-0.2c0,0,0.4,0.2,0.9,0.4
		c0.5,0.2,1.1,0.5,1.3,0.6c0.2,0.1,0.6,0.2,0.8,0.2c0.2,0.1,0.6,0.1,0.9,0.2c0.3,0,1.1,0.1,1.8,0.1c0.7,0,1.3,0,1.3-0.1
		c0,0,0-0.2-0.1-0.3c-0.1-0.1-0.3-0.4-0.5-0.6c-0.2-0.2-0.4-0.4-0.4-0.4c0,0-0.2-0.1-0.4-0.3c-0.2-0.1-0.7-0.4-1.1-0.6
		c-0.4-0.2-0.8-0.5-0.9-0.5c-0.1-0.1-0.1-0.2-0.1-0.2c0.1,0,0.2-0.1,0.4-0.2c0.2,0,0.5-0.1,0.8-0.2c0.3-0.1,0.8-0.2,1.2-0.3
		c0.6-0.2,0.8-0.2,1.2-0.1c0.3,0,0.9,0.1,1.5,0.1c0.5,0,1.5,0,2.2,0s1.5-0.1,2-0.2c0.4,0,1.1-0.1,1.5-0.2c0.4-0.1,1.1-0.2,1.6-0.3
		c0.5-0.1,1.1-0.3,1.3-0.3c0.2-0.1,0.6-0.2,1-0.4c0.4-0.2,0.6-0.3,0.6-0.4c0-0.1-0.3-0.2-0.6-0.3c-0.5-0.1-0.9-0.2-1.8-0.2
		c-1.2-0.1-1.2-0.1-1-0.2c0.1-0.1,0.7-0.4,1.1-0.7c0.5-0.3,0.9-0.6,1-0.7c0-0.1,0.2-0.2,0.4-0.3c0.2-0.1,0.6-0.5,0.9-0.8
		c0.3-0.3,0.7-0.8,0.9-1c0.2-0.2,0.4-0.5,0.6-0.7c0.2-0.1,0.7-0.6,1.1-1.1c0.4-0.5,0.9-1.1,1.2-1.4c0.2-0.3,0.5-0.7,0.6-0.9
		c0.1-0.2,0.4-0.6,0.5-0.8c0.2-0.2,0.3-0.5,0.4-0.6c0-0.1,0.1-0.2,0.2-0.3c0-0.1,0.2-0.4,0.4-0.6c0.1-0.3,0.4-0.8,0.7-1.2
		c0.2-0.4,0.4-0.9,0.5-1c0-0.1,0.2-0.5,0.4-0.9c0.2-0.4,0.3-0.9,0.4-1.1c0.1-0.2,0.1-0.5,0.1-0.6l0-0.3c-0.7,0.5-1.1,0.7-1.2,0.9
		c-0.1,0.1-0.4,0.5-0.7,0.8c-0.2,0.3-0.5,0.6-0.6,0.8c-0.1,0.1-0.2,0.2-0.2,0.2c0,0,0-0.4,0.1-0.8c0.1-0.4,0.1-1,0.1-1.2
		c0-0.3,0.1-0.9,0.1-1.4c0-0.5,0-1.2,0-1.6c-0.1-0.6-0.1-0.6,0.1-0.9c0.1-0.2,0.2-0.3,0.2-0.3c0,0,0.1-0.3,0.3-0.7
		c0.2-0.3,0.5-1,0.7-1.6c0.2-0.5,0.4-1.1,0.4-1.3c0-0.2,0.2-0.8,0.3-1.3c0.1-0.5,0.3-1.3,0.4-1.7c0.1-0.4,0.2-1,0.2-1.4
		c0.1-0.3,0.1-0.8,0.2-1.1c0-0.3,0.1-1,0.1-1.7c0-0.7,0-1.3-0.1-1.3s-0.1-0.1-0.1-0.1c0,0-0.2,0.3-0.4,0.5c-0.2,0.3-0.4,0.6-0.5,0.7
		c-0.1,0.1-0.3,0.6-0.5,1.1l-0.3,0.9c-0.1-0.5-0.2-1-0.3-1.4c-0.1-0.4-0.2-0.9-0.2-1.1c0-0.2-0.2-0.6-0.3-1c-0.1-0.3-0.3-1-0.3-1.4
		l-0.1-0.7c0.4-0.6,0.7-1.2,0.9-1.7c0.2-0.5,0.5-1.3,0.6-1.6c0.1-0.3,0.3-1,0.4-1.5c0.1-0.5,0.3-1.2,0.4-1.5c0.1-0.4,0.2-1,0.3-1.4
		c0.1-0.4,0.2-1,0.2-1.2c0-0.3,0.1-0.7,0.1-1c0-0.3,0.1-0.6,0.1-0.6c0,0,0-0.5,0-1c0-0.5-0.1-0.9-0.1-1c0-0.1-0.2,0.1-0.4,0.3
		c-0.2,0.2-0.4,0.5-0.5,0.7c-0.1,0.2-0.3,0.5-0.4,0.8c-0.1,0.2-0.3,0.7-0.3,1l-0.2,0.6c-0.3-1.3-0.4-2-0.6-2.5
		c-0.1-0.5-0.3-1.3-0.5-1.7c-0.1-0.4-0.3-0.8-0.4-1c-0.1-0.1-0.2-0.3-0.2-0.3c0,0-0.1,0.1-0.2,0.3c-0.1,0.2-0.3,0.6-0.4,1
		c-0.2,0.5-0.3,1.3-0.5,2.2c-0.1,0.8-0.3,1.6-0.3,1.7c0,0.1-0.1,0.2-0.1,0.2c0,0-0.2-0.5-0.5-1c-0.2-0.5-0.4-1-0.4-1
		c0,0-0.2-0.2-0.3-0.5c-0.1-0.2-0.3-0.5-0.4-0.6c-0.1-0.1-0.2-0.2-0.3-0.3c-0.1-0.1-0.1,0-0.1,0.3c0,0.2,0,0.7,0.1,1.3
		c0,0.5,0.2,1.6,0.3,2.5c0.1,0.8,0.3,1.6,0.3,1.7c0,0.1,0.1,0.5,0.2,0.8c0.1,0.3,0.2,0.8,0.3,1.1c0.1,0.3,0.2,0.7,0.3,1
		c0.1,0.2,0.2,0.6,0.3,0.7c0.1,0.2,0.3,0.6,0.4,1c0.2,0.4,0.4,0.9,0.6,1.2c0.2,0.3,0.3,0.6,0.3,0.6c0,0,0,0.1,0.1,0.1
		c0,0,0.1,0.4,0.1,1c0.1,0.9,0.1,1-0.2,1.7c-0.1,0.4-0.3,1.3-0.4,1.9c-0.1,0.6-0.2,1.3-0.2,1.4c0,0.2,0,0.3-0.1,0.3
		c0,0-0.2-0.3-0.3-0.7c-0.1-0.4-0.3-0.8-0.4-1c-0.1-0.2-0.3-0.6-0.4-0.8c-0.1-0.2-0.4-0.5-0.5-0.7c-0.2-0.2-0.4-0.4-0.4-0.4
		c-0.1,0-0.1,0.1-0.1,0.5c0,0.3,0.1,1,0.1,1.5c0,0.5,0.1,1.1,0.1,1.3c0,0.2,0.1,0.7,0.2,1c0,0.3,0.2,1,0.3,1.5
		c0.1,0.5,0.2,1,0.2,1.1c0,0.1,0.1,0.3,0.1,0.4c0,0.1,0.1,0.4,0.2,0.7c0.1,0.3,0.2,0.6,0.2,0.7c0,0.1,0,0.1,0.1,0.1
		c0,0,0.1,0.1,0.1,0.1c0,0.1,0.1,0.4,0.3,0.7c0.1,0.3,0.3,0.7,0.3,0.8c0,0.1,0.3,0.6,0.5,1.1c0.5,0.9,0.5,0.9,0.5,1.4
		c0,0.5,0,0.6-0.3,1c-0.1,0.2-0.4,0.6-0.5,0.9c-0.1,0.2-0.5,0.9-0.8,1.5c-0.3,0.6-0.6,1-0.6,1c0,0-0.1-0.5-0.1-1.2
		c0-0.6-0.1-1.2-0.1-1.2c0,0-0.1-0.2-0.1-0.4c0-0.2-0.2-0.6-0.2-0.8c-0.1-0.2-0.2-0.4-0.2-0.4c0,0-0.1,0.1-0.1,0.2s-0.1,0.5-0.2,0.8
		c-0.1,0.3-0.3,1-0.4,1.7c-0.1,0.6-0.3,1.4-0.3,1.8c0,0.4-0.1,0.9-0.2,1.1c0,0.2-0.1,1-0.1,1.7c0,0.8,0,1.8,0,2.6
		c0,0.8,0.1,1.6,0.2,2.1l0.2,0.9c-0.5,0.5-0.7,0.8-0.8,0.9c-0.1,0.2-0.3,0.2-0.9,0.3c-0.4,0-1.2,0.2-1.8,0.3s-1.3,0.2-1.5,0.3
		l-0.3,0c0.3-0.3,0.5-0.5,0.6-0.6c0.1-0.1,0.4-0.4,0.7-0.7c0.3-0.3,0.6-0.6,0.7-0.8s0.3-0.5,0.4-0.6c0.1-0.2,0.2-0.4,0.2-0.5
		c0-0.1,0-0.1,0-0.1s-0.5,0.2-1.1,0.5c-0.6,0.3-1.1,0.6-1.2,0.6c-0.1,0.1-0.6,0.3-1.1,0.6s-0.9,0.6-1.1,0.6
		c-0.1,0.1-0.5,0.3-0.8,0.5c-0.3,0.2-0.7,0.5-0.9,0.7c-0.2,0.2-0.5,0.4-0.7,0.5c-0.1,0.1-0.5,0.4-0.8,0.7c-0.3,0.3-0.9,0.8-1.3,1.3
		s-0.8,0.9-0.9,1.1c-0.1,0.2-0.3,0.3-0.4,0.3c-0.1,0-0.5-0.1-0.8-0.3c-0.4-0.2-0.7-0.3-0.8-0.3c0,0,0-0.1,0.1-0.3
		c0.1-0.1,0.4-0.5,0.6-0.8c0.2-0.3,0.5-0.8,0.6-1.1c0.1-0.3,0.3-0.7,0.3-0.9c0.1-0.2,0.1-0.4,0-0.4c0,0-0.6,0.1-1.2,0.3
		s-1.4,0.4-1.8,0.6c-0.4,0.1-1,0.3-1.5,0.5c-0.4,0.1-1.1,0.4-1.5,0.7c-0.6,0.3-0.8,0.5-1.4,1.1c-0.4,0.4-0.8,0.9-1,1.2l-0.3,0.5
		h-2.2c-0.5-0.7-0.9-1.3-1.3-1.7c-0.6-0.7-0.8-0.8-1.4-1.2c-0.4-0.2-1-0.5-1.4-0.6c-0.4-0.1-1.2-0.4-1.9-0.6
		c-0.7-0.2-1.5-0.5-1.9-0.6c-0.3-0.1-0.7-0.2-0.7-0.2c0,0,0,0.1,0,0.1c0,0.1,0.1,0.4,0.1,0.7c0.1,0.3,0.2,0.6,0.2,0.7
		c0.1,0.1,0.3,0.6,0.6,1c0.3,0.4,0.6,0.8,0.6,0.8c0,0,0,0,0,0.1c0,0-0.4,0.2-0.8,0.4c-0.4,0.2-0.8,0.3-0.8,0.3
		c-0.1,0-0.2-0.1-0.3-0.2c-0.1-0.1-0.2-0.3-0.3-0.4c0-0.1-0.2-0.3-0.4-0.4c-0.1-0.1-0.3-0.2-0.3-0.3c0,0-0.2-0.3-0.5-0.6
		c-0.3-0.3-0.6-0.6-0.8-0.7c-0.2-0.1-0.5-0.4-0.7-0.5c-0.2-0.2-0.4-0.3-0.5-0.4c-0.1,0-0.3-0.2-0.4-0.3c-0.2-0.1-0.5-0.4-0.7-0.5
		s-0.6-0.4-0.7-0.5c-0.2-0.1-0.7-0.4-1.2-0.7c-0.5-0.3-1-0.6-1.1-0.7c-0.1-0.1-0.7-0.3-1.3-0.6c-0.5-0.3-1-0.5-1.1-0.5s-0.1,0-0.1,0
		c0,0,0,0.2,0.1,0.3c0.1,0.2,0.3,0.6,0.5,0.8c0.2,0.3,0.6,0.7,0.8,1c0.2,0.2,0.5,0.5,0.6,0.5c0.1,0,0.3,0.2,0.4,0.3
		c0.2,0.2,0.3,0.3,0.2,0.3c-0.1,0-0.2,0-0.3,0c-0.1,0-0.3-0.1-0.5-0.1c-0.2-0.1-0.5-0.1-0.8-0.2c-0.3,0-0.7-0.1-0.9-0.2
		c-0.2-0.1-0.8-0.2-1.2-0.2L15.6,93c-0.7-0.8-0.9-1.1-0.9-1.1c0-0.1,0-0.3,0.1-0.5c0-0.2,0.1-0.9,0.2-1.5c0.1-0.7,0.1-1.6,0.1-2.3
		c0-0.7-0.1-1.7-0.1-2.3c-0.1-0.6-0.1-1.2-0.2-1.3c0-0.1-0.1-0.4-0.1-0.5c0-0.1,0-0.5-0.1-0.8c-0.1-0.3-0.2-0.8-0.2-1.1
		c-0.1-0.3-0.2-0.7-0.2-1c0-0.3-0.2-0.7-0.2-1c-0.1-0.3-0.2-0.6-0.2-0.5c0,0-0.2,0.3-0.3,0.7c-0.1,0.4-0.2,0.7-0.3,0.8
		c0,0.1-0.1,0.7-0.1,1.3c0,0.6-0.1,1.1-0.1,1.1c0,0-0.2-0.2-0.3-0.6c-0.2-0.3-0.4-0.9-0.7-1.3c-0.2-0.4-0.5-0.9-0.7-1.2
		c-0.2-0.3-0.4-0.6-0.4-0.7c0-0.1-0.1-0.4-0.1-0.7c0-0.5,0-0.6,0.4-1.2c0.2-0.3,0.6-1.1,0.8-1.7c0.2-0.6,0.4-1.1,0.4-1.1
		c0-0.1,0-0.1,0.1-0.2c0,0,0.1-0.3,0.2-0.5c0.1-0.2,0.2-0.9,0.4-1.4c0.1-0.5,0.3-1.2,0.3-1.5c0.1-0.3,0.2-0.9,0.3-1.5
		c0.1-0.5,0.2-1.1,0.2-1.3c0-0.2,0-0.4,0.1-0.5c0-0.1,0.1-0.6,0.1-1.1c0-0.8,0-1-0.1-1c-0.1,0-0.3,0.2-0.5,0.5
		c-0.2,0.2-0.4,0.6-0.5,0.8c-0.1,0.2-0.2,0.5-0.3,0.6c-0.1,0.1-0.2,0.5-0.4,1c-0.1,0.4-0.3,0.7-0.3,0.7c0,0-0.1-0.3-0.2-0.7
		c-0.1-0.4-0.1-0.9-0.2-1.2c0-0.2-0.1-0.6-0.1-0.9c0-0.2-0.2-0.7-0.3-1c-0.2-0.5-0.2-0.6-0.1-1.5c0-0.5,0.1-1,0.1-1
		c0,0,0.1-0.2,0.2-0.3c0.1-0.2,0.2-0.3,0.2-0.3c0,0,0.2-0.4,0.4-0.9c0.2-0.5,0.4-1,0.5-1.2c0.1-0.2,0.3-0.8,0.4-1.4
		c0.2-0.6,0.4-1.5,0.5-2.1c0.1-0.6,0.3-1.3,0.3-1.7c0.1-0.4,0.2-1.3,0.3-2c0.1-0.7,0.2-1.6,0.2-1.8c0-0.3,0-0.5-0.1-0.5
		c-0.1,0-0.2,0.1-0.4,0.3c-0.1,0.2-0.4,0.6-0.6,1c-0.2,0.3-0.5,0.9-0.6,1.3c-0.1,0.3-0.3,0.7-0.3,0.8c-0.1,0.1-0.1,0.1-0.1,0
		c0-0.1-0.1-0.5-0.2-0.9c0-0.4-0.1-1-0.2-1.3c-0.1-0.3-0.1-0.7-0.2-0.9c0-0.2-0.2-0.7-0.3-1.1c-0.1-0.4-0.3-0.8-0.4-1
		c-0.1-0.1-0.1-0.2-0.1-0.2C10.5,48.7,10.4,48.9,10.3,49.1L10.3,49.1z"/>
	<g>
		<path class="st0" d="M64.9,33.8l-6.7,0c0-2.6,0-3.6,0-3.8l0-0.5l-26.5,0c0,0-0.1,0-0.2,0c-0.1,0-0.1,0-0.2,0l-14.6,0l0,2.2v0
			l0,2.2l-6.8,0c0,0,0,0,0,0H9.9v13.5h6.9c0,29.5,0,35,0.1,35.6c0,0.5,0.2,1.3,0.3,1.7c0.1,0.4,0.3,1,0.5,1.3
			c0.2,0.3,0.4,0.7,0.5,0.9c0.1,0.2,0.4,0.6,0.7,0.9c0.3,0.3,0.8,0.8,1.1,1s0.9,0.6,1.3,0.8c0.4,0.2,1,0.4,1.5,0.5
			c0.5,0.1,1.3,0.2,1.8,0.3c0.5,0,2,0.1,3.3,0.1c1.7,0.1,2.5,0.1,3.1,0.2c0.4,0.1,1.2,0.3,1.7,0.4c0.5,0.2,1.2,0.5,1.6,0.7
			c0.4,0.2,1,0.6,1.3,0.9c0.3,0.3,0.8,0.7,1.1,1c0.2,0.3,0.6,0.7,0.7,1c0.1,0.2,0.3,0.4,0.3,0.4c0,0,0.1,0,0.1-0.1
			c0,0,0.2-0.4,0.4-0.7c0.3-0.4,0.7-0.9,1.1-1.3c0.4-0.3,1-0.8,1.4-1c0.4-0.2,1-0.6,1.5-0.7c0.4-0.2,1.1-0.4,1.6-0.5
			c0.4-0.1,1-0.2,1.4-0.2c0.4,0,1.5-0.1,2.6-0.1c1.1,0,2.2-0.1,2.6-0.1c0.3,0,0.9-0.1,1.3-0.1c0.4-0.1,1-0.2,1.4-0.4
			c0.4-0.1,0.8-0.3,1-0.4c0.1-0.1,0.5-0.3,0.9-0.5c0.3-0.2,0.8-0.6,1.1-0.9c0.3-0.3,0.7-0.8,0.9-1.1c0.2-0.3,0.4-0.7,0.5-0.8
			c0.1-0.1,0.2-0.5,0.4-0.9c0.1-0.4,0.3-0.9,0.3-1.2c0-0.3,0.1-1,0.1-1.6c0-0.6,0.1-8.8,0.1-18.1c0-14.2,0-16.5,0.1-16.9H65
			L64.9,33.8L64.9,33.8L64.9,33.8z M27.9,76.1v-2.5h1c0.5,0,1,0,1,0c0,0-0.1-0.5-0.2-1.1c-0.1-0.6-0.3-1.1-0.3-1.2
			c0-0.1-0.6-0.1-5.5-0.1l-0.2,1c-0.1,0.6-0.3,1.1-0.3,1.2c0,0.2,0,0.2,1.9,0.2l0,2.5l-2.8,0c-1.5,0-2.8,0-2.9,0
			c0,0-0.1-0.6-0.1-2.6l1.6,0l0.1-0.5c0.1-0.3,0.2-0.7,0.3-1s0.6-2,1.2-3.6c0.5-1.7,1-3.2,1.1-3.4c0.1-0.2,0.2-0.5,0.2-0.7
			c0.1-0.2,0.5-1.8,1.1-3.4c0.5-1.7,1-3.1,1-3.1v0c0,0,0.4-0.1,0.7-0.1c0.5,0,0.7,0,0.8,0.1c0,0.1,0.2,0.4,0.3,0.7
			c0.1,0.4,0.3,1.1,0.5,1.7c0.2,0.6,0.4,1.4,0.5,1.9c0.1,0.5,0.9,3.2,1.6,6c0.8,2.8,1.4,5.2,1.4,5.3c0,0.2,0.1,0.2,1.7,0.2v2.5H27.9
			z M45.6,81.2c-0.1,0.2-0.4,0.4-0.6,0.6c-0.2,0.2-0.5,0.4-0.7,0.5c-0.2,0.1-0.5,0.2-0.7,0.3c-0.2,0.1-0.7,0.1-1.1,0.1
			c-0.5,0-1,0-1.3-0.2c-0.3-0.1-0.8-0.3-1.1-0.4c-0.4-0.2-0.7-0.5-1.3-1c-0.5-0.5-0.9-0.8-1.1-0.9c-0.2-0.1-0.7-0.3-1-0.4
			c-0.3-0.1-0.8-0.1-1.1-0.1c-0.3,0-0.8,0-1,0.1c-0.3,0-0.5,0.1-0.6,0.2c-0.1,0.1-0.4,0.2-0.7,0.4c-0.3,0.2-0.6,0.3-0.8,0.3
			c-0.2,0-0.3,0-0.5-0.1c-0.1-0.1-0.2-0.3-0.2-0.5c0-0.2,0.1-0.4,0.1-0.6c0.1-0.2,0.2-0.4,0.4-0.6c0.1-0.1,0.4-0.4,0.6-0.5
			c0.2-0.2,0.5-0.4,0.7-0.5c0.2-0.1,0.7-0.3,1.9-0.7l0-10.9c0-8.6,0-10.9-0.1-11c-0.1,0-0.2-0.1-0.4-0.1c-0.2,0-0.6-0.1-1-0.1
			c-0.4-0.1-1.1-0.2-1.6-0.3c-0.5-0.1-1.1-0.3-1.4-0.4c-0.3-0.1-0.8-0.3-1.1-0.5c-0.3-0.2-0.8-0.4-1-0.6c-0.2-0.2-0.6-0.5-0.9-0.7
			c-0.2-0.2-0.5-0.5-0.7-0.7c-0.1-0.1-0.4-0.5-0.6-0.7c-0.2-0.3-0.5-0.9-0.8-1.3c-0.2-0.5-0.4-0.9-0.4-0.9c0-0.1,0-0.1,0-0.1
			c0,0,0.1,0.1,0.2,0.1c0.1,0.1,0.4,0.2,0.6,0.4c0.2,0.1,0.8,0.4,1.2,0.6c0.4,0.2,1.2,0.5,1.7,0.6c0.5,0.1,1.2,0.3,1.6,0.4
			c0.4,0.1,1.2,0.2,1.7,0.3c0.5,0.1,1.5,0.1,2.5,0.1c0.9,0,2,0,2.4-0.1c0.4,0,1.2-0.2,1.6-0.2c0.4-0.1,1.4-0.3,2.1-0.6
			c0.7-0.2,1.5-0.5,1.7-0.5c0.2-0.1,0.8-0.1,1.3-0.2c0.6-0.1,1.1-0.1,1.6,0c0.4,0,0.9,0.1,1.1,0.2c0.3,0.1,0.7,0.2,1,0.3
			c0.3,0.1,0.8,0.4,1.1,0.6c0.3,0.2,0.7,0.6,0.9,0.8c0.2,0.2,0.4,0.6,0.5,0.8c0.1,0.2,0.3,0.6,0.3,0.9c0.1,0.3,0.2,0.9,0.2,1.4
			c0,0.5,0,1,0,1.2c0,0.2-0.1,0.4-0.3,0.5c-0.1,0.1-0.3,0.3-0.5,0.3c-0.2,0.1-0.4,0.1-0.6,0.1c-0.2,0-0.6-0.1-0.8-0.2
			c-0.2-0.1-0.7-0.4-1.1-0.6c-0.4-0.3-1-0.7-1.3-0.9c-0.3-0.3-0.8-0.6-1-0.7c-0.2-0.1-0.6-0.3-0.8-0.4c-0.3-0.1-0.7-0.2-1.1-0.2
			c-0.4,0-0.9,0-1.3,0c-0.4,0-0.9,0.1-1.3,0.2c-0.3,0.1-1,0.3-1.6,0.5c-0.6,0.2-1.2,0.4-1.9,0.6l0,8.3h3l0-2.9l2.2,0v8.7h-2.2v-3h-3
			v11.1l0.5,0.2c0.3,0.1,0.8,0.3,1.2,0.5c0.4,0.2,1.1,0.6,1.6,1c0.5,0.4,1.2,0.8,1.4,0.9c0.3,0.1,0.6,0.2,0.8,0.3
			c0.3,0,0.6,0,1.1-0.2c0.4-0.1,0.8-0.2,0.9-0.2c0.1,0,0.3,0,0.4,0.1c0.1,0.1,0.3,0.2,0.3,0.3c0.1,0.1,0.1,0.4,0.1,0.5
			C45.9,80.8,45.8,81,45.6,81.2z M55.1,76.1h-5.8l0-2.5h2l-0.1-0.2c0-0.1-0.2-0.7-0.5-2.2l-2.6,0c-1.4,0-2.7,0-2.8,0
			c-0.1,0-0.2,0.1-0.2,0.2c0,0.1-0.1,0.6-0.3,1.2c-0.1,0.5-0.2,1-0.2,1c0,0,0.5,0.1,2,0.1v2.6l-2.6,0c-1.4,0-2.7,0-3.2,0l0-2.6
			l1.6,0l0.3-0.9c0.2-0.5,0.5-1.7,0.8-2.6c0.3-1,0.7-2.3,1-3.1c0.2-0.7,0.6-1.9,0.9-2.7c0.2-0.8,0.5-1.7,0.6-2.1
			c0.1-0.4,0.3-1,0.4-1.4c0.1-0.4,0.4-1.2,0.6-1.8c0.2-0.6,0.4-1.1,0.4-1.2l0,0c0-0.1,0.2-0.1,1.6-0.1l0.1,0.3
			c0,0.1,0.1,0.4,0.2,0.6c0.1,0.2,0.2,0.8,0.4,1.3c0.1,0.5,0.4,1.3,0.5,1.7c0.1,0.4,0.5,1.7,0.8,2.8c0.3,1.1,0.6,2.3,0.7,2.7
			c0.1,0.3,0.3,1.2,0.5,1.9c0.2,0.7,0.6,2,1.3,4.5l1.7,0L55.1,76.1z M63.6,46H11.5l0-1.6c0-0.9,0-1.6,0.1-1.7c0,0,11.7-0.1,26-0.1
			c14.3,0,26,0,26,0.1C63.6,42.8,63.6,43.4,63.6,46z M63.6,38.5l-52.1,0l0-1.6c0-0.9,0-1.6,0.1-1.7c0,0,11.7,0,26,0
			c14.2,0,26,0,26,0C63.6,35.2,63.6,35.6,63.6,38.5z"/>
		<path class="st0" d="M58.3,32c0-0.1,0-0.4,0-0.6c0-0.2,0,0,0,0.3C58.2,32,58.2,32.1,58.3,32z"/>
		<path class="st0" d="M65,45c0-0.2,0,0,0,0.3s0,0.5,0,0.3C65,45.5,65,45.2,65,45z"/>
		<path class="st0" d="M58.2,49.9c0,0.3,0,0.5,0,0.3c0-0.1,0-0.4,0-0.6C58.2,49.5,58.2,49.6,58.2,49.9z"/>
		<path class="st0" d="M58.2,56.8c0,0.3,0,0.5,0,0.3c0-0.2,0-0.5,0-0.6C58.2,56.3,58.2,56.4,58.2,56.8z"/>
		<path class="st0" d="M58.2,59c0,0.3,0,0.5,0,0.3c0-0.1,0-0.4,0-0.6C58.2,58.6,58.2,58.7,58.2,59z"/>
		<path class="st0" d="M48.3,61.8C48.3,61.8,48.3,61.9,48.3,61.8c-0.1,0.1-0.2,0.4-0.3,0.6c-0.1,0.3-0.3,1.1-0.5,1.8
			c-0.2,0.7-0.5,1.6-0.6,1.9c-0.1,0.3-0.3,1.1-0.5,1.6c-0.2,0.6-0.3,1-0.3,1s0.9,0,2,0c1.1,0,2,0,2-0.1c0,0-0.4-1.6-0.8-3.5
			C48.8,63.4,48.4,61.8,48.3,61.8z"/>
		<path class="st0" d="M26.9,61.9c0,0-0.1,0-0.1,0.1c0,0.1-0.2,0.5-0.3,0.9c-0.1,0.4-0.3,1.1-0.5,1.5c-0.1,0.4-0.5,1.5-0.7,2.5
			c-0.3,1-0.5,1.8-0.5,1.8c0,0,0.9,0.1,2,0.1h2c-0.1-0.3-0.4-1.9-0.9-3.7C27.3,63.4,26.9,62,26.9,61.9z"/>
		<path class="st0" d="M58.2,65.9c0,0.3,0,0.5,0,0.3c0-0.2,0-0.5,0-0.6C58.2,65.4,58.2,65.6,58.2,65.9z"/>
		<path class="st0" d="M58.2,68.2c0,0.3,0,0.5,0,0.3c0-0.1,0-0.4,0-0.6C58.2,67.7,58.2,67.8,58.2,68.2z"/>
		<path class="st0" d="M58.2,75c0,0.3,0,0.5,0,0.3c0-0.2,0-0.5,0-0.6C58.2,74.5,58.2,74.7,58.2,75z"/>
		<path class="st0" d="M58.2,77.3c0,0.3,0,0.5,0,0.3c0-0.1,0-0.4,0-0.6C58.2,76.8,58.2,77,58.2,77.3z"/>
	</g>
	<path class="st0" d="M37.3,7.6c-0.1,0.1-0.2,0.6-0.4,1.1c-0.2,0.5-0.4,1.3-0.5,1.6c-0.1,0.4-0.3,0.8-0.3,1c0,0.2-0.2,0.8-0.4,1.3
		c-0.2,0.6-0.4,1-0.5,1.1c-0.1,0-1.6,0.1-3.4,0c-1.8,0-3.3,0-3.3,0c0,0,0.3,0.3,0.7,0.6c0.4,0.3,1,0.7,1.2,0.9
		c0.2,0.2,0.5,0.3,0.6,0.4c0.1,0.1,0.4,0.3,0.8,0.6c0.3,0.2,0.8,0.6,1.1,0.7c0.2,0.2,0.6,0.4,0.8,0.6l0.3,0.3
		c-0.3,0.8-0.5,1.6-0.8,2.4c-0.3,0.8-0.5,1.5-0.5,1.6c0,0.1-0.2,0.6-0.4,1.2c-0.2,0.6-0.3,1.1-0.3,1.1s0.1,0,0.3-0.1
		c0.2-0.1,0.5-0.4,0.8-0.6c0.3-0.2,0.9-0.6,1.2-0.9s0.8-0.6,0.8-0.6c0.1-0.1,0.4-0.3,0.7-0.5c0.3-0.2,0.8-0.6,1-0.8
		c0.3-0.2,0.5-0.4,0.6-0.4c0.1,0,0.3,0.1,0.5,0.3c0.2,0.2,0.5,0.4,0.6,0.4c0.1,0,0.2,0.1,0.2,0.1c0,0,0.3,0.2,0.5,0.4
		s0.8,0.6,1.2,0.8c0.4,0.2,0.7,0.5,0.8,0.6c0.1,0.1,0.4,0.3,0.6,0.4s0.6,0.4,0.8,0.5c0.3,0.2,0.4,0.3,0.4,0.1c0-0.1-0.2-0.8-0.4-1.5
		c-0.2-0.8-0.6-2-0.9-2.8c-0.2-0.8-0.5-1.5-0.6-1.8L40.9,18c0.7-0.5,1.8-1.3,2.8-2c1-0.7,2-1.5,2.3-1.7l0.5-0.4
		c-0.6,0-2.1-0.1-3.8-0.1l-3,0c-0.2-0.3-0.4-1-0.6-1.6c-0.2-0.6-0.6-2-0.9-2.9c-0.3-1-0.6-1.8-0.6-1.9C37.4,7.4,37.3,7.5,37.3,7.6z"
		/>
	<g transform="translate(.229118)">
		<path class="st0" d="M22.3,13.9c0,0.1-0.2,0.5-0.3,1c-0.1,0.4-0.4,1.1-0.5,1.4c-0.1,0.3-0.2,0.7-0.3,0.9c0,0.1-0.2,0.6-0.4,1.1
			c-0.2,0.5-0.3,0.9-0.4,0.9c-0.1,0-1.3,0.1-2.8,0c-1.5,0-2.8,0-2.8,0c0,0,0.2,0.3,0.6,0.5c0.4,0.3,0.8,0.6,1,0.8
			c0.2,0.1,0.4,0.3,0.5,0.3c0.1,0.1,0.3,0.3,0.6,0.5c0.3,0.2,0.7,0.5,0.9,0.6c0.2,0.1,0.5,0.4,0.7,0.5l0.3,0.2
			c-0.2,0.6-0.5,1.4-0.7,2.1c-0.2,0.7-0.4,1.3-0.5,1.4c0,0.1-0.2,0.5-0.3,1c-0.1,0.5-0.3,0.9-0.3,1c0,0,0.1,0,0.2-0.1
			c0.1-0.1,0.4-0.3,0.7-0.5c0.3-0.2,0.7-0.5,1-0.7c0.3-0.2,0.6-0.5,0.7-0.5c0.1-0.1,0.3-0.3,0.6-0.4c0.3-0.2,0.7-0.5,0.9-0.6
			c0.2-0.2,0.4-0.3,0.5-0.3c0.1,0,0.3,0.1,0.4,0.3c0.2,0.1,0.4,0.3,0.5,0.3c0.1,0,0.2,0.1,0.2,0.1c0,0,0.2,0.2,0.4,0.3
			c0.2,0.2,0.7,0.5,1,0.7c0.3,0.2,0.6,0.4,0.7,0.5c0.1,0.1,0.3,0.2,0.5,0.3s0.5,0.3,0.7,0.5C27,28.1,27,28.1,27,28
			c0-0.1-0.2-0.7-0.4-1.3c-0.2-0.6-0.5-1.7-0.7-2.3c-0.2-0.6-0.4-1.3-0.5-1.5l-0.1-0.3c0.6-0.4,1.5-1.1,2.3-1.7
			c0.8-0.6,1.7-1.2,1.9-1.4l0.4-0.3c-0.5,0-1.8,0-3.2-0.1l-2.5,0c-0.1-0.3-0.3-0.8-0.5-1.3c-0.2-0.5-0.5-1.6-0.8-2.5
			c-0.3-0.8-0.5-1.5-0.5-1.6C22.4,13.8,22.3,13.8,22.3,13.9L22.3,13.9z"/>
		<path class="st0" d="M51.8,13.9c0,0.1-0.2,0.5-0.3,1c-0.1,0.4-0.4,1.1-0.5,1.4c-0.1,0.3-0.2,0.7-0.3,0.9c0,0.1-0.2,0.6-0.4,1.1
			c-0.2,0.5-0.3,0.9-0.4,0.9c-0.1,0-1.3,0.1-2.8,0c-1.5,0-2.8,0-2.8,0c0,0,0.2,0.3,0.6,0.5c0.4,0.3,0.8,0.6,1,0.8
			c0.2,0.1,0.4,0.3,0.5,0.3c0.1,0.1,0.3,0.3,0.6,0.5c0.3,0.2,0.7,0.5,0.9,0.6c0.2,0.1,0.5,0.4,0.7,0.5l0.3,0.2
			c-0.2,0.6-0.5,1.4-0.7,2.1c-0.2,0.7-0.4,1.3-0.5,1.4c0,0.1-0.2,0.5-0.3,1c-0.1,0.5-0.3,0.9-0.3,1c0,0,0.1,0,0.2-0.1
			c0.1-0.1,0.4-0.3,0.7-0.5c0.3-0.2,0.7-0.5,1-0.7c0.3-0.2,0.6-0.5,0.7-0.5c0.1-0.1,0.3-0.3,0.6-0.4c0.3-0.2,0.7-0.5,0.9-0.6
			c0.2-0.2,0.4-0.3,0.5-0.3c0.1,0,0.3,0.1,0.4,0.3c0.2,0.1,0.4,0.3,0.5,0.3c0.1,0,0.2,0.1,0.2,0.1c0,0,0.2,0.2,0.4,0.3
			c0.2,0.2,0.7,0.5,1,0.7c0.3,0.2,0.6,0.4,0.7,0.5c0.1,0.1,0.3,0.2,0.5,0.3s0.5,0.3,0.7,0.5c0.3,0.2,0.3,0.2,0.3,0.1
			c0-0.1-0.2-0.7-0.4-1.3c-0.2-0.6-0.5-1.7-0.7-2.3C55.3,23.8,55,23.1,55,23l-0.1-0.3c0.6-0.4,1.5-1.1,2.3-1.7
			c0.8-0.6,1.7-1.2,1.9-1.4l0.4-0.3c-0.5,0-1.8,0-3.2-0.1l-2.5,0c-0.1-0.3-0.3-0.8-0.5-1.3c-0.2-0.5-0.5-1.6-0.8-2.5
			c-0.3-0.8-0.5-1.5-0.5-1.6C51.9,13.8,51.9,13.8,51.8,13.9L51.8,13.9z"/>
	</g>
</g>
</svg>
