<?xml version="1.0" encoding="utf-8"?>
<!-- Generator: Adobe Illustrator 27.2.0, SVG Export Plug-In . SVG Version: 6.00 Build 0)  -->
<svg version="1.1" id="Capa_1" xmlns="http://www.w3.org/2000/svg" xmlns:xlink="http://www.w3.org/1999/xlink" x="0px" y="0px"
	 viewBox="0 0 56.2 80" style="enable-background:new 0 0 56.2 80;" xml:space="preserve">
<style type="text/css">
	.st0{fill-rule:evenodd;clip-rule:evenodd;fill:#FFFFFF;}
	.st1{fill:#FFFFFF;}
</style>
<g>
	<path class="st0" d="M31,8.8l-1.1-3.3l2.7-2V3.3h-3.4L28.2,0H28l-1,3.3h-3.4v0.1l2.7,2l-1,3.3h0.2l2.6-2l2.7,2H31z M18.1,12.4L17,9
		l2.7-2V6.8h-3.4l-1.1-3.3h-0.1l-1,3.3h-3.4V7l2.7,2l-1,3.3h0.2l2.6-2l2.7,2H18.1z M38.2,12.4L39.2,9l-2.7-2V6.8h3.4L41,3.5h0.1
		l1,3.3h3.4V7l-2.7,2l1,3.3h-0.2l-2.6-2l-2.7,2H38.2z M7.3,20.2l-1.1-3.3l2.7-2v-0.1H5.6l-1.1-3.3H4.4l-1,3.3H0v0.1l2.7,2l-1,3.3
		h0.2l2.6-2l2.7,2H7.3z M54.6,20.2l-1.1-3.3l2.7-2v-0.1h-3.4l-1.1-3.3h-0.1l-1,3.3h-3.4v0.1l2.7,2l-1,3.3h0.2l2.6-2l2.7,2H54.6z"/>
	<path class="st1" d="M28.1,80c1.6-1.9,3.2-3.2,4.8-4.3c2.3-1.5,4.5-2.4,6.5-3.2c3.5-1.4,6.7-2.8,9.2-6.9c1.7-2.8,2.5-6,2.5-9.2
		V37.2c0-4.3,2-8.2,5.1-10.8c-6.6-0.5-10.2-3.7-13.9-6.8c-3.7-3.1-7.4-6-14.2-6c-1.8,0-3.4,0.2-4.8,0.6c-4.7,1.2-7.6,4-10.9,6.7
		C9.2,23.5,5.8,26,0,26.4c1.6,1.3,2.8,2.9,3.7,4.7c0.9,1.9,1.4,4,1.4,6.1v19.2c0,3.2,0.8,6.4,2.5,9.2C12.6,73.9,20.3,70.9,28.1,80
		 M32.9,18.6c2.6,0.9,4.6,2.6,7,4.6c2.4,2,5.1,4.3,8.9,5.8c-1.3,2.5-1.9,5.3-1.9,8.2v2h-4.4v-4.6h-0.2l-3.8,3.8
		c-0.5,0.5-1.2,0.8-2,0.8h-3.6v-3.6c0-0.7,0.3-1.5,0.8-2l3.8-3.8v-0.2h-4.6V18.6z M16.3,23.2c2.4-2,4.4-3.7,7-4.6v11h-4.6v0.2
		l3.8,3.8c0.5,0.5,0.8,1.2,0.8,2v3.6h-3.6c-0.8,0-1.5-0.3-2-0.8L14,34.6h-0.2v4.6H9.4v-2c0-2.8-0.7-5.6-1.9-8.2
		C11.2,27.5,13.9,25.3,16.3,23.2z M6.1,47.8V45h6.7v2.8H6.1z M18.6,68.6c-3.3-1.3-5.5-2.2-7.3-5.2c-1.2-2.1-1.9-4.5-1.9-7v-7.7h4.4
		v4.6H14l3.8-3.8c0.5-0.5,1.2-0.8,2-0.8h3.6v3.6c0,0.7-0.3,1.5-0.8,2l-3.8,3.8v0.2h4.6v12.5c0.1,0.1,0.3,0.1,0.4,0.2
		C21.9,70,20.1,69.2,18.6,68.6z M24,47.5c-0.2,0-0.4,0-0.6,0c-0.2,0-0.3,0-0.4,0h-0.9c-0.6,0-1.1,0-1.5-0.2c-0.4-0.1-0.8-0.3-1-0.5
		c-0.3-0.3-0.5-0.6-0.6-1c-0.1-0.4-0.2-0.9-0.2-1.5v-0.9c0-0.6,0-1,0.2-1.4c0.1-0.4,0.3-0.7,0.6-0.9c0.3-0.2,0.6-0.4,1-0.5
		c0.4-0.1,0.9-0.2,1.5-0.2H23c0.2,0,0.3,0,0.5,0s0.4,0,0.7,0l-0.3,1.6c-0.3,0-0.5,0-0.8,0h-0.9c-0.3,0-0.5,0-0.7,0.1
		c-0.2,0-0.3,0.1-0.4,0.2s-0.2,0.3-0.2,0.5c0,0.2-0.1,0.5-0.1,0.7v0.9c0,0.3,0,0.5,0.1,0.7c0,0.2,0.1,0.3,0.2,0.5
		c0.1,0.1,0.2,0.2,0.4,0.2c0.2,0,0.4,0.1,0.7,0.1h0.9c0.1,0,0.3,0,0.5,0c0.2,0,0.4,0,0.7,0L24,47.5z M24.3,15
		c0.9-0.2,1.8-0.3,2.8-0.3v14h-2.8V15z M25.3,47.5v-7h3.6c0.8,0,1.3,0.1,1.6,0.4c0.3,0.3,0.5,0.7,0.5,1.3v0.1c0,0.7-0.3,1.2-0.8,1.4
		c0.3,0.1,0.6,0.3,0.8,0.6c0.2,0.3,0.3,0.6,0.3,1v0.2c0,0.7-0.2,1.2-0.6,1.5c-0.4,0.3-1,0.5-1.9,0.5H25.3z M31.9,75.2
		c-1,0.7-1.9,1.4-2.8,2.3V59.3h2.8V75.2z M32.1,47.5v-7l5.3,0L37.1,42h-3.2v1.4h3l-0.3,1.5h-2.7v2.6H32.1z M46.9,56.4
		c0,2.5-0.7,4.9-1.9,7c-1.8,3-4,3.9-7.3,5.2c-1.4,0.6-3.1,1.2-4.8,2.2V58.3h4.6v-0.2l-3.8-3.8c-0.5-0.5-0.8-1.2-0.8-2v-3.6h3.6
		c0.8,0,1.5,0.3,2,0.8l3.8,3.8h0.2v-4.6h4.4V56.4z M50.1,43h-6.7v-2.8h6.7V43z"/>
	<path class="st1" d="M29,43c0.1-0.1,0.2-0.3,0.2-0.5v-0.1c0-0.2-0.1-0.4-0.2-0.5c-0.1-0.1-0.3-0.1-0.5-0.1H27v1.3h1.4
		C28.7,43.2,28.9,43.1,29,43z"/>
	<path class="st1" d="M29.4,45.4v-0.1c0-0.3-0.1-0.5-0.2-0.6c-0.1-0.1-0.4-0.1-0.7-0.1H27l0,1.5h1.5c0.3,0,0.5,0,0.6-0.1
		C29.3,45.8,29.4,45.6,29.4,45.4z"/>
</g>
</svg>
