<?xml version="1.0" encoding="utf-8"?>
<!-- Generator: Adobe Illustrator 27.2.0, SVG Export Plug-In . SVG Version: 6.00 Build 0)  -->
<svg version="1.1" id="Capa_1" xmlns="http://www.w3.org/2000/svg" xmlns:xlink="http://www.w3.org/1999/xlink" x="0px" y="0px"
	 viewBox="0 0 74.2 59.1" style="enable-background:new 0 0 74.2 59.1;" xml:space="preserve">
<style type="text/css">
	.st0{fill:#FFFFFF;}
</style>
<path class="st0" d="M0,0l0,59.1h73.9V0H0z M60.9,31.1c0,0.1-0.1,0.2-0.4,0.4l-0.2,0.1l0.1,0.1c0,0.1,0,0.2-0.1,0.2l-0.2,0.1
	c-0.1,0.1-0.2,0-0.3,0L59.8,32l-0.3,0.2l0.1,0.1c0,0.1,0,0.2-0.1,0.2l-0.2,0.1c-0.1,0-0.2,0-0.3,0l0-0.1c-0.9,0.4-2,0.9-3.1,1.4
	l0.1,0.1c0,0.1,0,0.2-0.1,0.2l-0.2,0.1c-0.1,0.1-0.2,0-0.3,0l-0.1-0.1l-0.4,0.2l0.1,0.1c0,0.1,0,0.2-0.1,0.2l-0.2,0.1
	c-0.1,0.1-0.2,0-0.3,0l-0.1-0.1c-0.5,0.2-1,0.3-1.4-0.5c-0.2-0.3-0.2-1.1-0.3-1.5c-0.1-0.2-0.3-0.3-0.3-0.3
	c-4.8-0.9-6.4,0.1-9.5-0.7c-1-0.2-1.5-1.1-2.7-1.1c-2.6-0.1-3.4,0-6.2-0.2c-0.1,0.2-0.1,0.3-0.1,0.5l-9.9,0l1.5,0.8l0.5,4.4
	c0,0-0.4,0.1-0.5,0.1c0.1,0.9,0.2,2.1,0.2,3.1c0,1,0.1,2,0.1,2.6c0,0.2,0,0.7-0.3,1.2c-0.2,0.3-0.5,0.6-0.8,0.8
	c-0.1,0.1-0.5,0.3-0.9,0.6c-0.5,0.3-1,0.5-1.2,0.7c0,0.1,0.1,0.2,0.1,0.3c-6,2.9-13.5,3.9-16,8.6C6,54.6,5,54.3,5,53.7
	c0-0.3,0-0.7,0-0.9l-0.1,0c-0.1,0-0.1-0.1-0.1-0.2l0-0.3c0-0.1,0.1-0.2,0.2-0.2l0.1,0c0-0.3,0.1-0.5,0.2-0.8l-0.1,0
	C5,51.2,5,51.1,5,51l0.1-0.3c0.1-0.1,0.1-0.2,0.2-0.2l0.1,0c0.4-1,1.3-1.5,1.6-2.4l-0.1,0c-0.1,0-0.1-0.1-0.1-0.3l0.1-0.3
	c0.1-0.1,0.1-0.2,0.2-0.2l0.1,0c0.1-0.1,0.1-0.3,0.2-0.4L7.5,47c-0.1,0-0.1-0.2,0-0.3l0.1-0.2c0.1-0.1,0.2-0.2,0.2-0.1l0,0l0,0
	c0,0,0,0,0,0c0,0,0.1-0.1,0.1-0.1C8.5,46,9,46,9.4,46.3c0.4,0.2,1.9,1.1,3.3-0.2c2.4-2.1,5.1-5,7.2-5.1c-0.6-1.2-1.5-3.8-1.6-4.7
	l-0.7-0.1c-0.4-0.8-1.2-4.4-1.5-7.1c0,0-0.3-2.9,0-3.9c-0.2,0-0.5,0.2-0.5,0.2c-0.4-0.9,0.9-8.8,2.1-11.1l1.9-0.7
	c-0.2,0-1.5-0.1-5.1-0.4c-2,1.8-4.3,3.6-5.4,4.7c-0.2,0.1-0.5,1.3-0.5,1.3S7.7,19.6,7.2,20c-0.7,0.5-2.5,0.9-2.9,0.3
	c-0.1-0.1-0.1-0.2,0-0.3c0.3-0.3,1.3-0.8,1.6-1.4c-0.6,0.3-1.2,0.6-1.7,0.5c-0.2,0-0.3-0.5,0-0.6C5,18.1,5.6,18,6.1,17.4
	c0.4-0.6,0.9-1,1.6-1c0,0,3.3-4.3,5.2-6.4c0.5-0.6,1.5-0.4,1.5-0.4L14.6,9c0,0,6.7-0.8,9.8,0.2c-0.1-1.9,0.8-4.4,3.7-4.4
	c1.5,0,3.8,1.3,4.1,3c0.1,0.5-0.2,0.8-0.3,1.5c-0.3,1,0.1,2,0,2.4c-0.1,0.3-0.4,0.3-0.7,0.6c-0.3,0.4-0.6,1.2-0.6,1.2l-0.4,0.9
	l-2.1-0.2c-0.8,1.6-2.3,5-2.9,8.3c1.6,0.1,9,1.2,9,1.2l0.2,0.6c0,0,3.1,0.4,5.7,1.6c0.6,0.1,2-0.1,2.9,0.4c0.1,0,0.2-0.2,0.3-0.2
	c3.3,1,6.1,2.8,9.3,3.5c0,0,1.5,0.4,2,0.5c1.2,0.2,1.9,0.3,2.6,0.3c1,0.1,1.6,0.1,2.4,0.1C60.1,30.5,60.7,30.4,60.9,31.1L60.9,31.1z
	 M65.7,29.2c-2.3,0-4.1-1.8-4.1-4.1c0-2.3,1.8-4.1,4.1-4.1c2.3,0,4.1,1.8,4.1,4.1C69.8,27.4,68,29.2,65.7,29.2z"/>
</svg>
