<?xml version="1.0" encoding="UTF-8" standalone="no"?><!DOCTYPE svg PUBLIC "-//W3C//DTD SVG 1.1//EN" "http://www.w3.org/Graphics/SVG/1.1/DTD/svg11.dtd"><svg width="100%" height="100%" viewBox="0 0 5334 4698" version="1.1" xmlns="http://www.w3.org/2000/svg" xmlns:xlink="http://www.w3.org/1999/xlink" xml:space="preserve" xmlns:serif="http://www.serif.com/" style="fill-rule:evenodd;clip-rule:evenodd;stroke-linejoin:round;stroke-miterlimit:2;"><g id="Capa-1" serif:id="Capa 1"><g><path d="M2777.578,-0c6.659,8.36 16.133,5.19 24.342,5.196c70.569,0.058 140.146,10.664 209.903,19.338c7.564,0.94 14.891,3.814 25.95,6.763c56.666,147.438 114.109,296.913 174.218,453.32c-364.992,-54.053 -723.204,-53.043 -1088.289,0.644c58.303,-155.861 115.805,-305.081 172.743,-454.365c36.034,-9.834 71.458,-14.658 106.702,-17.352c36.498,-2.787 72.781,-9.608 109.622,-8c5.573,0.238 11.849,0.987 15.181,-5.544l249.629,0Z" style="fill:#fff;fill-rule:nonzero;"/><path d="M3568.612,1599.772c-11.611,5.805 -20.261,-1.858 -29.259,-7.024c-120.054,-68.735 -248.352,-113.668 -384.777,-137.238c-89.17,-15.326 -178.804,-20.028 -268.496,-14.397c-140.663,8.766 -275.985,41.914 -404.689,100.374c-4.238,1.916 -9.579,2.496 -11.495,7.895c-151.809,68.038 -278.888,168.18 -383.732,296.884c-22.525,27.691 -43.075,56.892 -65.194,86.267l-19.39,0c-11.146,-12.365 -23.221,-23.454 -33.439,-42.147c99.968,-153.26 231.981,-273.024 390.93,-364.458c55.267,-24.963 108.501,-54.222 165.684,-75.179c92.769,-33.903 187.744,-57.008 285.68,-69.838c70.361,-9.289 140.721,-12.946 211.14,-8.882c193.375,11.088 376.301,60.375 545.816,155.757c3.367,1.916 6.618,4.006 9.753,6.328c2.264,1.684 4.238,3.89 6.154,5.689c1.916,26.414 -0.522,36.341 -14.687,59.969m-50.622,98.516c-11.669,3.135 -18.867,-1.509 -26.472,-6.096c-117.384,-70.477 -244.636,-114.887 -379.552,-133.813c-93.64,-13.178 -188.557,-16.719 -282.893,-0.581c-193.898,25.137 -368.522,96.426 -521.26,219.151c-78.256,62.814 -143.798,137.238 -197.961,221.705c-4.644,7.257 -9.347,14.455 -13.178,20.435c-8.186,3.657 -14.804,3.309 -22.989,0.987c-9.753,-11.378 -20.261,-23.744 -28.562,-41.392c107.34,-175.611 255.086,-306.695 441.553,-394.994c66.239,-26.182 132.129,-53.003 201.677,-70.012c117.384,-28.62 236.335,-40.231 356.389,-30.942c179.733,13.991 347.913,66.413 501.58,162.259c2.438,1.509 4.47,3.599 8.418,6.792c1.451,26.937 -25.776,31.697 -36.748,46.501m8.127,124.002c0.174,4.818 -0.116,9.695 -4.702,14.339c-10.392,8.244 -19.216,0.464 -27.517,-5.689c-104.089,-76.804 -220.138,-126.498 -346.113,-154.189c-49.113,-10.74 -98.632,-16.661 -149.023,-17.822c-91.144,-2.206 -181.184,3.832 -269.193,29.491c-3.657,1.103 -7.663,1.103 -9.927,4.876c-146.41,40.115 -274.185,112.855 -382.803,219.035c-41.624,40.695 -77.849,85.803 -109.953,134.335c-18.925,28.678 -51.261,34.426 -82.319,15.036c-3.948,-13.004 5.341,-21.77 11.146,-31.233c108.85,-177.701 261.704,-302.283 455.776,-376.998c75.934,-29.201 154.131,-49.345 235.116,-58.227c45.223,-2.148 90.389,-5.689 135.728,-4.412c194.072,5.515 371.192,63.046 531.477,172.418c3.89,2.67 7.082,6.444 10.508,9.579c3.657,16.661 1.219,33.148 1.8,49.461m-8.94,169.806c-17.59,10.45 -25.718,-0.813 -34.658,-9.289c-87.08,-82.552 -188.615,-140.489 -303.212,-174.914c-72.276,-21.712 -145.888,-36.632 -222.17,-30.826c-235.174,-4.006 -500.709,106.586 -652.402,345.765c-20.261,5.167 -32.858,-11.262 -48.242,-17.3c-7.431,-17.706 -1.103,-30.884 7.895,-44.353c107.573,-161.62 256.015,-267.741 440.276,-325.562c11.03,-3.483 22.002,-7.024 33.032,-10.566c18.693,1.219 36.051,-5.979 53.931,-9.23c84.061,-15.384 168.238,-18.519 253.518,-10.74c160.343,14.687 302.109,74.25 429.245,171.315c15.268,11.669 29.665,24.498 45.165,37.328c-1.742,26.53 1.916,53.467 -2.38,78.372m-38.431,79.475c-6.966,7.953 -13.933,15.907 -19.912,22.699c-17.242,6.386 -24.15,-5.863 -32.568,-14.804c-60.259,-64.323 -130.039,-115.7 -212.243,-147.862c-212.185,-83.074 -415.893,-65.136 -609.327,56.137c-102.638,64.323 -179.675,151.403 -228.149,262.981c-4.528,10.392 -4.935,10.217 -22.234,21.712c-10.682,-37.909 -30.536,-71.58 -6.096,-112.159c112.739,-187.28 274.766,-301.819 490.956,-339.031c45.049,-7.721 90.157,-10.682 135.612,-10.217c79.765,6.444 158.253,18.867 233.664,47.081c101.593,38.025 190.995,94.743 266.29,173.115c3.948,4.122 7.547,8.592 8.882,10.159c6.734,14.049 -2.67,21.247 -4.876,30.188m-110.011,26.414c-27.517,21.073 -31.523,23.047 -54.686,26.588c-11.669,-9.347 -24.15,-20.028 -37.212,-29.781c-99.329,-74.54 -211.43,-115.061 -335.257,-107.224c-205.218,12.888 -363.471,106.121 -445.326,299.787c-65.484,154.828 -37.851,303.096 64.381,436.386c90.447,117.906 199.703,215.029 327.827,290.614c3.309,1.974 6.27,4.354 11.436,7.953c0.116,27.285 -23.337,34.89 -34.832,49.403c-13.12,4.006 -22.467,-0.29 -31.929,-5.863c-139.154,-81.855 -260.601,-184.261 -355.634,-315.171c-130.968,-180.429 -120.054,-443.817 24.789,-614.261c112.159,-132.013 255.608,-199.413 429.013,-211.488c163.013,-11.32 301.064,41.218 423.498,144.32c8.998,7.547 18.867,14.455 13.933,28.736m-103.857,124.524c-15.094,5.631 -24.789,-0.232 -34.658,-9.753c-56.544,-54.396 -124.118,-88.183 -200.922,-102.464c-178.746,-33.148 -352.383,55.557 -420.015,194.304c-61.536,126.208 -48.358,247.597 37.212,359.117c56.776,74.076 124.814,137.18 200.226,192.214c6.212,4.528 12.133,9.347 19.622,15.152c-0.581,22.757 -6.386,41.566 -14.049,57.24c-13.701,7.605 -21.596,1.277 -29.433,-4.354c-97.471,-69.838 -184.029,-151.287 -251.545,-250.5c-119.59,-175.727 -76.804,-411.481 95.846,-542.681c183.564,-139.444 437.895,-126.672 606.482,30.594c6.27,5.805 13.991,10.74 15.326,22.757c-3.89,14.339 -15.21,26.298 -24.092,38.373m12.191,165.161c-15.5,7.837 -22.409,-1.916 -29.955,-8.94c-34.135,-31.465 -68.793,-62.407 -102.058,-94.801c-113.784,-110.94 -292.588,-81.158 -381.7,12.365c-79.359,83.248 -88.415,208.295 -17.822,299.322c60.317,77.849 132.303,143.391 214.274,198.02c9.23,6.096 21.654,9.463 25.485,24.847c-18.345,17.242 -42.031,23.337 -66.297,30.014c-49.636,-30.594 -92.827,-67.632 -134.509,-106.47c-31.929,-29.781 -59.911,-63.104 -88.183,-96.194c-123.944,-145.075 -86.093,-377.462 108.211,-467.328c132.013,-61.072 259.44,-47.313 374.617,45.92c33.09,26.704 65.31,54.512 100.316,83.771c-0.232,27.982 3.773,54.686 -2.38,79.475m-53.525,45.282c-30.304,28.562 -30.304,28.562 -55.209,28.388c-35.703,-31.929 -72.16,-65.136 -109.256,-97.529c-53.119,-46.326 -122.202,-55.093 -180.487,-23.744c-77.617,41.798 -95.149,131.781 -37.618,198.484c52.712,61.188 113.552,113.204 182.403,155.641c8.186,5.051 16.255,10.275 25.079,15.849c3.019,26.879 17.764,51.667 15.79,78.314c-13.236,6.154 -20.319,-0.406 -27.575,-4.47c-98.168,-54.744 -183.622,-125.047 -254.679,-212.185c-87.428,-107.166 -37.096,-263.329 99.561,-307.45c75.063,-24.266 146.352,-13.004 207.947,36.109c44.469,35.471 84.584,76.514 126.498,115.178c4.238,3.89 8.127,8.36 7.547,17.416m-109.604,107.631c-15.326,7.605 -23.047,-2.438 -31.639,-9.985c-37.038,-32.394 -74.134,-64.787 -111.462,-97.471c-16.603,-2.322 -33.032,-4.644 -41.624,15.558c1.277,14.92 12.017,23.454 22.06,32.394c41.102,36.632 82.261,73.205 123.363,109.895c8.476,7.547 19.506,13.991 13.817,30.478c-14.746,9.172 -29.607,21.48 -48.591,25.543c-4.528,-2.496 -8.36,-3.715 -11.088,-6.212c-45.049,-40.928 -90.853,-81.1 -134.625,-123.421c-46.907,-45.398 -38.141,-113.146 17.474,-140.895c31.639,-15.79 63.684,-12.946 93.988,5.109c8.244,4.935 15.79,11.204 23.337,17.184c34.658,27.633 69.257,55.325 105.367,84.119c-3.309,23.221 -10.159,41.74 -20.377,57.705m-192.563,1183.647c-75.992,-25.66 -149.835,-56.37 -221.996,-91.202c-30.072,-14.513 -49.403,-50.797 -46.617,-89.924c58.75,29.897 118.138,56.021 178.63,79.591c60.433,23.512 122.783,41.856 186.351,61.653c-22.467,32.742 -67.516,49.694 -96.368,39.883m-352.557,-272.328c-7.721,-16.313 -5.051,-29.085 -4.993,-41.392c0.058,-11.32 -2.961,-23.105 2.787,-34.135c14.862,-8.592 23.744,4.006 33.381,10.217c90.099,58.111 184.551,107.689 283.764,148.326c8.882,3.657 17.358,8.36 28.852,9.056c13.41,22.873 25.485,43.54 36.98,63.22c-4.586,10.624 -13.584,13.526 -19.216,20.493c-128.356,-45.688 -250.151,-104.322 -361.555,-175.785m11.436,-220.312c43.946,22.06 80.578,55.209 123.015,79.01c41.914,23.512 83.539,47.488 125.975,71.696c1.8,21.131 2.554,42.031 -0.987,67.226c-95.614,-43.192 -184.377,-92.711 -266.522,-153.841c7.257,-22.989 2.729,-44.469 18.519,-64.091m-115.758,-232.503c14.978,-12.656 23.221,-1.161 32.103,7.489c65.136,63.684 135.38,121.041 211.198,171.547c53.815,35.877 110.011,67.748 169.922,97.355c0.348,24.731 10.159,49.694 -6.212,75.295c-152.041,-70.07 -286.144,-161.098 -407.011,-275.056c-1.451,-27.053 -1.742,-52.074 0,-76.63m-49.984,-145.017c5.457,-21.422 2.787,-48.126 25.369,-72.218c31.175,36.225 59.911,70.593 89.692,104.031c29.549,33.206 61.885,63.742 95.091,93.292c33.845,30.188 69.141,58.866 106.528,84.584c36.399,24.963 73.611,48.649 112.101,74.018c-8.708,18.171 -15.5,31.813 -23.976,42.959c-11.727,4.47 -20.086,0.29 -28.736,-4.702c-142.288,-81.333 -265.419,-185.596 -370.844,-310.875c-1.8,-2.148 -2.496,-5.167 -5.225,-11.088m-473.192,-1005.54c-22.409,-9.869 -23.744,-36.167 -35.471,-56.079c16.661,-28.911 38.083,-52.538 58.866,-76.456c134.742,-155.176 297.639,-271.05 488.344,-347.855c3.541,-1.393 6.966,-3.251 10.45,-4.935c26.53,-5.167 50.739,-17.184 76.282,-25.427c101.187,-32.742 204.405,-54.86 310.759,-62.001c24.963,-1.684 49.694,-6.096 74.773,-3.599c17.764,13.759 20.725,33.961 26.356,51.551c-3.309,5.631 -7.199,5.863 -10.972,5.921c-121.215,2.148 -239.644,21.712 -355.344,57.647c-82.203,25.485 -160.691,59.853 -235.87,101.651c-3.193,1.8 -5.515,5.109 -8.244,7.721c-113.494,62.756 -212.533,143.682 -300.135,238.947c-28.794,31.291 -55.789,64.149 -81.042,98.4c-3.89,5.341 -6.966,11.785 -18.751,14.513m-56.254,-108.037c-2.903,3.773 -6.212,7.257 -10.856,12.539c-23.802,-4.586 -47.546,-9.056 -65.832,-32.161c98.226,-135.67 218.686,-245.275 355.866,-337.405c49.403,-26.066 95.962,-57.182 146.468,-81.333c129.226,-61.827 263.446,-107.747 405.386,-129.749c52.306,-8.127 104.496,-17.358 157.731,-17.59c9.579,0 19.274,-1.684 29.491,2.148c12.539,15.152 22.176,32.626 30.478,49.81c-6.56,14.165 -17.184,16.545 -29.491,16.719c-134.916,2.496 -265.652,28.969 -393.485,70.883c-29.839,9.753 -60.666,17.59 -87.602,34.832c-123.828,47.197 -234.245,116.803 -335.896,200.922c-75.411,62.407 -142.869,132.535 -202.257,210.385m-125.337,-57.008c-10.856,-19.738 -9.289,-42.379 -12.017,-64.033c-1.161,-9.289 5.167,-16.081 10.856,-22.873c96.194,-114.945 206.321,-214.391 332.181,-295.839c40.521,-26.182 82.668,-49.752 124.06,-74.482c47.371,-21.306 94.278,-43.772 142.23,-63.684c83.771,-34.774 170.27,-61.362 258.743,-81.449c5.515,-1.219 11.495,-0.639 18.403,-0.987c16.313,13.41 36.399,23.628 45.688,44.585c-5.979,16.545 -21.131,15.036 -32.161,17.3c-166.09,33.555 -321.325,94.859 -466.458,181.997c-13.875,8.302 -31.813,9.579 -42.147,24.092c-69.104,44.027 -299.533,256.565 -347.158,317.203c-7.721,9.811 -12.83,25.543 -32.22,18.171m287.48,-492.233c33.09,-13.643 61.827,-35.064 93.059,-52.016c102.812,-55.731 210.095,-100.432 321.441,-133.755c23.279,13.991 34.774,26.879 43.482,48.184c-3.135,11.553 -13.178,12.133 -22.525,14.92c-101.767,30.652 -199.587,71.057 -293.227,121.331c-5.689,3.077 -13.004,4.296 -16.139,11.262c-95.962,50.448 -183.564,113.088 -266.174,182.984c-33.148,28.04 -64.729,57.821 -95.323,88.647c-7.895,7.953 -14.629,19.1 -32.568,12.423c-9.521,-19.564 -10.043,-43.366 -13.294,-67.864c85.048,-87.022 180.778,-159.472 281.268,-226.117m-240.863,-105.018c39.766,-21.538 73.379,-52.306 113.494,-76.166c27.633,-3.832 52.596,7.082 79.243,19.912c-12.133,27.285 -42.263,28.504 -57.473,47.604c-41.914,25.718 -81.971,54.28 -121.273,83.829c-9.869,7.373 -19.39,16.835 -34.542,8.94c-10.043,-14.397 -5.631,-33.148 -12.075,-47.313c2.903,-21.131 21.538,-25.485 32.626,-36.806m262.226,-40.695c40.695,-23.918 83.248,-44.178 125.221,-65.6c16.777,-8.534 31.813,-10.914 49.287,-4.354c17.01,6.444 35.006,10.043 49.984,19.274c7.373,17.474 -4.993,21.364 -15.674,25.485c-50.39,19.332 -98.574,43.366 -146.12,68.619c-37.154,19.796 -75.237,38.141 -108.385,64.671c-55.731,31.813 -105.018,73.495 -157.673,108.327c-19.912,-10.275 -34.077,-21.189 -45.514,-33.961c-0.987,-14.629 9.753,-19.274 17.648,-25.892c42.147,-35.296 87.602,-66.123 132.129,-98.284c33.032,-19.448 66.065,-38.896 99.097,-58.285m1236.766,261.994c26.066,6.444 51.9,14.107 77.443,22.525c62.059,20.493 122.899,44.062 180.952,73.844c6.792,23.105 15.965,44.237 13.817,70.709c-6.908,0 -11.378,1.335 -14.455,-0.174c-108.734,-54.396 -222.75,-93.988 -340.83,-122.144c-1.974,-0.464 -3.019,-4.586 -4.412,-6.85c18.287,-32.045 51.203,-46.849 87.486,-37.909m844.674,115.352c-6.618,-91.26 -11.32,-182.693 -20.086,-273.895c-5.631,-58.75 -29.375,-99.329 -84.7,-126.498c-154.247,-75.701 -311.862,-142.346 -476.443,-192.214c-93.001,-28.156 -187.338,-50.913 -282.661,-69.606c-97.297,-19.1 -194.827,-35.529 -294.04,-43.017c-73.031,-5.457 -146.062,-13.41 -219.209,-14.862c-168.006,-3.309 -335.838,-2.322 -502.915,21.77c-81.1,11.669 -162.317,22.525 -242.372,39.244c-112.101,23.512 -223.273,51.609 -331.716,89.17c-56.137,19.506 -113.494,36.109 -166.497,63.917c-3.657,0.987 -7.547,1.684 -11.088,3.135c-81.158,33.671 -160.401,71.289 -238.889,110.824c-39.941,20.086 -62.349,50.506 -67.574,94.22c-11.495,96.949 -21.422,194.072 -24.615,291.717c-5.631,170.444 3.019,340.076 27.517,509.069c26.356,182.113 69.199,360.046 129.517,533.683c121.912,350.816 304.315,666.915 548.545,946.79c206.495,236.567 446.371,433.077 718.002,590.75c38.838,22.525 76.688,21.247 115.178,-1.045c296.768,-171.838 555.105,-389.247 773.327,-653.795c235.116,-285.041 407.417,-604.392 518.647,-956.659c1.567,-3.483 3.599,-6.85 4.702,-10.45c35.296,-114.133 63.917,-229.833 85.338,-347.507c17.126,-93.988 31.987,-188.383 36.98,-283.474c5.573,-106.818 12.83,-213.752 5.051,-321.267" style="fill:#fff;fill-rule:nonzero;"/><path d="M1241.094,2840.348c220.887,473.029 539.657,859.095 950.523,1176.698c-179.628,135.113 -357.614,268.99 -537.393,404.225c-312.257,-153.237 -577.496,-363.988 -797.065,-635.195c127.63,-314.387 254.917,-627.927 383.935,-945.728" style="fill:#fff;fill-rule:nonzero;"/><path d="M3139.818,4017.643c49.223,-40.486 95.985,-77.826 141.534,-116.6c266.749,-227.069 487.455,-492.773 668.843,-792.264c49.107,-81.083 96.339,-162.386 129.714,-251.254c0.9,-2.403 3.646,-4.116 7.187,-7.93c127.595,313.9 254.604,626.359 382.263,940.41c-218.878,270.72 -484.152,481.609 -796.728,635.352c-177.353,-135.711 -353.765,-270.702 -532.812,-407.714" style="fill:#fff;fill-rule:nonzero;"/><path d="M1034.409,2290.176c-154.311,-116.24 -308.634,-232.468 -462.934,-348.731c-56.265,-42.39 -112.466,-84.856 -167.971,-126.742c1.771,-116.884 166.595,-533.828 269.442,-681.928c92.415,4.058 185.805,8.162 278.168,12.22c-39.447,387.343 -8.615,767.167 89.535,1141.756c-2.078,1.144 -4.162,2.281 -6.241,3.425" style="fill:#fff;fill-rule:nonzero;"/><path d="M4387.693,1144.037c92.014,1.422 182.188,-6.014 271.155,-11.645c87.515,105.454 269.158,557.886 271.898,678.532c-210.611,159.327 -422.738,319.792 -640.031,484.17c48.625,-191.877 82.592,-379.802 97.309,-571.232c14.751,-191.901 14.159,-383.488 -0.331,-579.824" style="fill:#fff;fill-rule:nonzero;"/><path d="M339.072,2321.798c47.522,24.429 91.974,47.25 136.396,70.117c120.913,62.245 241.821,124.513 362.728,186.786c2.566,1.324 5.045,2.833 7.582,4.22c49.287,26.873 61.06,59.638 38.727,110.493c-58.552,133.308 -117.407,266.487 -176.145,399.714c-35.79,81.17 -71.516,162.363 -107.52,243.44c-3.768,8.482 -4.818,18.908 -17.875,26.13c-162.694,-327.211 -242.604,-672.651 -243.893,-1040.9" style="fill:#fff;fill-rule:nonzero;"/><path d="M1743.151,566.951c-89.861,24.696 -176.064,51.958 -260.996,83.155c-10.833,3.982 -22.008,7.262 -32.382,12.214c-60.555,28.916 -126.748,30.49 -191.314,39.523c-70.61,9.875 -141.406,18.385 -212.161,27.221c-23.5,2.937 -47.099,5.039 -77.246,8.22c245.159,-261.187 529.579,-452.409 863.24,-583.667c-30.35,140.733 -59.551,276.124 -89.141,413.333" style="fill:#fff;fill-rule:nonzero;"/><path d="M4350.95,731.27c-48.44,1.155 -95.579,-10.426 -143.455,-14.885c-39.209,-3.657 -78.192,-9.765 -117.291,-14.658c-47.691,-5.968 -96.148,-8.429 -142.869,-18.757c-38.17,-8.435 -74.424,-25.805 -111.265,-39.9c-73.786,-28.231 -149.464,-50.373 -225.514,-71.394c-5.521,-1.527 -10.844,-3.756 -18.571,-6.467c-27.581,-133.993 -55.383,-269.077 -83.852,-407.365c28.266,5.225 49.908,17.637 72.218,27.337c162.503,70.657 314.956,158.561 457.454,264.218c97.942,72.625 189.213,152.558 275.828,238.094c13.712,13.538 26.286,28.028 37.003,44.086l0.313,-0.308Z" style="fill:#fff;fill-rule:nonzero;"/><path d="M2192.426,4603.232c89.797,-68.154 173.562,-131.792 257.402,-195.332c42.332,-32.086 84.653,-64.184 127.264,-95.904c20.179,-15.024 41.531,-28.62 66.738,-33.195c36.864,-6.699 71.028,0.261 101.355,23.256c128.536,97.437 257.118,194.821 385.63,292.292c2.2,1.666 3.779,4.157 8.563,9.55c-315.763,63.713 -628.304,63.696 -946.952,-0.668" style="fill:#fff;fill-rule:nonzero;"/><path d="M4992.947,2461.398c-3.193,55.789 -8.65,111.52 -16.081,166.903c-14.513,108.908 -35.877,216.539 -66.297,322.253c-1.045,3.599 -3.193,6.85 -4.818,10.275c-37.386,138.979 -90.505,271.747 -153.144,399.754c-7.779,-0.755 -10.043,-3.483 -11.669,-7.257c-92.189,-210.153 -184.377,-420.305 -276.624,-630.458c-7.953,-9.927 -11.669,-22.06 -16.719,-33.381c-19.912,-44.991 -7.605,-81.216 36.051,-104.264c77.675,-40.986 155.583,-81.507 233.432,-122.144c82.958,-43.308 165.916,-86.673 249.048,-129.749c8.244,-4.296 15.732,-11.378 27.343,-10.159c0,46.21 2.09,92.363 -0.522,138.225" style="fill:#fff;fill-rule:nonzero;"/></g></g></svg>