<?xml version="1.0" encoding="utf-8"?>
<!-- Generator: Adobe Illustrator 27.2.0, SVG Export Plug-In . SVG Version: 6.00 Build 0)  -->
<svg version="1.1" id="Livello_1" xmlns="http://www.w3.org/2000/svg" xmlns:xlink="http://www.w3.org/1999/xlink" x="0px" y="0px"
	 viewBox="0 0 147.7 250" style="enable-background:new 0 0 147.7 250;" xml:space="preserve">
<style type="text/css">
	.st0{fill:#FFFFFF;}
</style>
<g>
	<polygon class="st0" points="62,36.5 73.9,27.9 85.7,36.5 81.2,22.5 93,14 78.4,14 73.9,0 69.3,13.9 54.7,13.9 66.5,22.5 	"/>
	<path class="st0" d="M137.8,48.6H9.9c-5.4,0-9.8,4.2-9.9,9.7v127.5c0,18.9,12.8,36,37,49.5c11.5,6.3,23.8,11.2,36.4,14.6l0.5,0.1
		l0.5-0.1c12.6-3.2,24.9-8.1,36.4-14.3c24.2-13.3,37-30.5,37-49.8V58.3C147.7,53,143.2,48.6,137.8,48.6z M141.4,184.8
		c0,40.1-61.4,56.9-67.5,58.5c-2.9-0.8-18.5-5.2-33.9-13.8c-22.3-12.6-33.6-27.6-33.6-44.7V55.4h135V184.8z"/>
	<path class="st0" d="M105,208.5c0,1.2,0.7,2.2,2,2.7l3.2-2.2v0.5c0,1.5-0.4,2.8-1.2,3.7l-2.3-1.2l-1.2,1.1l2.8,1.4
		c1-0.7,1.9-1.7,2.5-2.7c0.5-1,0.8-2,0.8-3.1c0-1-0.3-1.9-0.9-2.6c-0.7-0.8-1.6-1.3-2.6-1.6c-0.9,0.5-1.7,1.2-2.3,2
		C105.2,207,105,207.7,105,208.5z M107.1,205.7c0.8,0.2,1.4,0.5,1.9,1c0.5,0.5,0.8,1.2,1,1.9l-1.5,1c0,0.1-0.1,0.1-0.2,0.2H108
		c-0.6-0.1-1-0.3-1.3-0.7c-0.4-0.5-0.6-1-0.6-1.6C106.1,206.8,106.5,206.1,107.1,205.7z"/>
	<path class="st0" d="M38,205.8l0.2,0.3l0.6-0.5c0.1,0.1,0.3,0.2,0.5,0.4c0.1,0.2,0.2,0.5,0.2,0.8v5.2c0,0.4-0.2,0.8-0.5,1l1.7,1.3
		l1.9-1.6l-0.2-0.4l-0.3,0.3c-0.2,0.2-0.3,0.2-0.4,0.2c-0.1,0-0.2-0.1-0.4-0.3c-0.1-0.1-0.2-0.2-0.2-0.3v-5.8c0-0.2,0-0.6,0-0.8
		c-0.1-0.2-0.1-0.4-0.2-0.6c-0.2-0.2-0.3-0.3-0.5-0.5c-0.2-0.1-0.4-0.2-0.6-0.3L38,205.8z"/>
	<path class="st0" d="M100.7,204.3c-1,0.6-1.8,1.5-2.4,2.4c-0.5,0.8-0.8,1.9-0.8,2.9c0,1.1,0.3,2.2,0.9,3c0.6,0.9,1.5,1.5,2.5,1.8
		c0.9-0.6,1.8-1.5,2.4-2.5c0.5-0.8,0.8-1.8,0.8-2.8c0-1-0.2-1.9-0.8-2.8C102.5,205.4,101.7,204.8,100.7,204.3z M102,213
		c-1-0.2-1.8-0.8-2.4-1.6c-0.7-0.9-1-2-1-3.1c0-0.5,0-0.9,0.2-1.3c0.1-0.5,0.4-0.9,0.8-1.2c0.9,0.2,1.8,0.7,2.4,1.5
		c0.6,0.7,0.9,1.6,0.9,2.5C103,210.9,102.6,212.1,102,213z"/>
	<path class="st0" d="M46.5,204.5c-0.9,0.5-1.7,1.2-2.3,2c-0.5,0.6-0.7,1.3-0.7,2c0,1.2,0.6,2.1,2,2.7l3.1-2.2v0.5
		c0.1,1.3-0.3,2.6-1.2,3.6l-2.3-1.2l-1.2,1.2l2.8,1.3c1-0.8,1.9-1.6,2.5-2.7c0.5-1,0.8-2,0.8-3.1c0-1-0.3-1.8-0.9-2.5
		C48.3,205.3,47.5,204.7,46.5,204.5z M46.9,209.7c0,0.1-0.2,0.1-0.2,0.1h-0.2c-0.5,0-1-0.3-1.3-0.7c-0.4-0.5-0.6-1-0.6-1.6
		c0-0.8,0.4-1.4,1-1.8c0.8,0.2,1.4,0.5,2,1c0.5,0.5,0.8,1.2,1,1.8L46.9,209.7z"/>
	<path class="st0" d="M73.9,191.1c-10,0-18.2,8.2-18.2,18.2c0,10,8.2,18.2,18.2,18.2s18.2-8.1,18.2-18.2
		C92.1,199.3,84,191.1,73.9,191.1z M73.9,225.6c-9,0-16.2-7.3-16.2-16.2c0-9,7.3-16.2,16.2-16.2s16.2,7.3,16.2,16.2
		C90.1,218.4,82.9,225.6,73.9,225.6z"/>
	<polygon class="st0" points="76.2,207.6 78,207.5 78,204.9 82.7,204.9 82.7,203.5 78,203.5 78,202.2 83.2,202.2 83.2,200.7 
		76.2,200.7 	"/>
	<polygon class="st0" points="66.7,215.2 71.6,215.2 71.6,213.8 66.7,213.8 66.7,212.6 72.3,212.6 72.3,211.2 65,211.2 65,218 
		72.3,218 72.3,216.5 66.7,216.5 	"/>
	<path class="st0" d="M71.9,204.5c0.2-0.4,0.3-0.9,0.3-1.4v0c0-0.6-0.2-1.3-0.8-1.7c-0.6-0.5-1.4-0.6-2.2-0.6H65v6.8h1.7v-2.2h2.6
		l1.2,2.2h2l-1.5-2.4C71.4,205,71.7,204.8,71.9,204.5z M70.5,203c0,0.2-0.1,0.5-0.3,0.7c-0.3,0.1-0.7,0.2-1,0.2h-2.5v-1.7h2.6
		c0.4,0,0.7,0,1,0.2C70.5,202.5,70.5,202.8,70.5,203L70.5,203z"/>
	<polygon class="st0" points="76.2,218 78,218 78,215.3 82.7,215.3 82.7,213.9 78,213.9 78,212.6 83.2,212.6 83.2,211.2 76.2,211.2 
			"/>
	<path class="st0" d="M71.5,142.8h-1.8l-0.3,0.4c0.5,0,0.8,0.3,1.2,0.6l0,0l0-0.1c0.2-0.3,0.6-0.5,1.1-0.6L71.5,142.8z"/>
	<polygon class="st0" points="72.4,148.1 72.4,148.8 75.2,148.8 75.2,148.1 72.4,148.1 	"/>
	<path class="st0" d="M77.7,142.8h-1.5l-0.3,0.4c0.4,0.1,0.8,0.3,1.1,0.7l0,0l0.1-0.1c0.2-0.4,0.6-0.6,1.1-0.6l-0.3-0.4H77.7z"/>
	<path class="st0" d="M74.5,149.2H73l-0.3,0.4c0.5,0,0.8,0.3,1.2,0.7l0,0l0-0.1c0.2-0.3,0.7-0.5,1.1-0.6l-0.3-0.4L74.5,149.2z"/>
	<polygon class="st0" points="72,142.5 72,141.8 69.2,141.8 69.2,142.5 70,142.5 	"/>
	<polygon class="st0" points="71.8,143.2 71.8,143.2 71.8,143.2 	"/>
	<path class="st0" d="M69.1,139.1c-0.6,0-1,0.5-1,1c0,0.2,0,0.3,0.1,0.5l0.3,0.7c0.1-0.2,0.4-0.4,0.7-0.4c0.3,0,0.7,0.2,0.8,0.5h1.2
		c0.1-0.3,0.4-0.5,0.8-0.5c0.3,0,0.5,0.2,0.6,0.4l0.3-0.7c0.1-0.1,0.1-0.3,0.1-0.5c0-0.5-0.5-1-1-1c-0.4,0-0.8,0.2-0.9,0.6
		c0.2-0.6,0.3-1.1,0.3-1.7c0-1-0.9-2-0.9-2s-0.9,1-0.9,2c0,0.6,0.1,1.1,0.3,1.7C69.9,139.3,69.5,139.1,69.1,139.1z"/>
	<path class="st0" d="M73.2,146.1c-0.2-0.5-0.8-0.8-1.3-0.5c-0.3,0.2-0.6,0.5-0.6,0.9c0,0.2,0,0.3,0.1,0.5l0.3,0.6
		c0.1-0.2,0.3-0.4,0.6-0.4c0.4,0,0.7,0.2,0.8,0.5h1.2c0.1-0.3,0.4-0.5,0.8-0.5c0.3,0,0.5,0.1,0.6,0.4l0.3-0.6
		c0.1-0.2,0.1-0.4,0.1-0.5c0-0.6-0.4-1-1-1c-0.4,0-0.8,0.2-0.9,0.6c0.2-0.5,0.3-1.1,0.3-1.7c0-1-0.9-2-0.9-2s-0.9,1-0.9,2
		C72.9,145,73.1,145.5,73.2,146.1z"/>
	<rect x="75.6" y="141.8" class="st0" width="2.8" height="0.7"/>
	<path class="st0" d="M75,141.3c0.1-0.2,0.4-0.4,0.7-0.4c0.3,0,0.7,0.2,0.8,0.6h1.2c0.1-0.3,0.4-0.6,0.8-0.6c0.3,0,0.5,0.2,0.6,0.4
		l0.3-0.7c0.1-0.1,0.1-0.3,0.1-0.5c0-0.5-0.5-1-1-1c-0.4,0-0.8,0.2-0.9,0.6c0.2-0.5,0.3-1.1,0.3-1.7c0-1-0.9-2-0.9-2s-0.9,1-0.9,2
		c0,0.6,0.1,1.2,0.3,1.7c-0.2-0.5-0.8-0.8-1.3-0.5c-0.4,0.1-0.6,0.5-0.6,0.9c0,0.2,0.1,0.4,0.2,0.6L75,141.3z"/>
	<path class="st0" d="M77,179c-1.2,0.2-2.3,1.2-2.6,1.5l0.4,0c0.2,0,1.4,0.1,2.5,0.1c0.8-0.1,1.5-0.4,2.1-0.9
		c0.3-0.2,0.8-0.5,0.8-0.5C79.2,179,78,178.9,77,179z"/>
	<polygon class="st0" points="74.4,180.6 74.4,180.5 74.4,180.5 	"/>
	<path class="st0" d="M74.2,179.1c1.5-0.1,2.6-1.1,2.6-2.4c0-1-0.7-2-1.7-2.2c0-0.1,0-0.2,0-0.4c0-0.2,0.1-0.4,0.1-0.4l-0.4,0.2
		c-0.2,0-0.3,0.1-0.5,0.3c0-0.1-0.1-0.2-0.2-0.4c-0.1-0.1-0.2-0.2-0.3-0.3c-0.2,0.1-0.2,0.2-0.4,0.3c-0.1,0.2-0.2,0.2-0.3,0.4
		c-0.1-0.1-0.2-0.2-0.4-0.2c-0.2-0.1-0.4-0.1-0.7,0l0.3,0.3l0.2,0.3c-1.1,0.1-1.7,1.2-1.7,2.2c0,1.2,1.2,2.2,2.7,2.4
		c0,0.4,0.1,0.8,0.1,1.2v0.2c-0.4-0.2-2-1.4-2.8-1.5c-1.1-0.2-2.4-0.1-2.9-0.1c0.3,0.2,0.7,0.5,1,0.8c0.5,0.5,1.1,0.8,1.8,1
		c1,0.2,2,0.2,3-0.1c0,0.5-0.2,0.9-0.3,1.3c0,0,0.3-0.1,0.5-0.1c0.1,0,0.2-0.1,0.4-0.1l0.1-1v-0.3C74.4,179.9,74.2,179.5,74.2,179.1
		z M74,178.8c-0.5-0.5-0.9-1.3-0.9-2.1s0.3-1.5,0.9-2.1C75.2,175.8,75.2,177.6,74,178.8L74,178.8z"/>
	<path class="st0" d="M87.4,127.5c-1.3-0.4-2.7,0.3-3.1,1.6c-0.2,0.5-0.2,1.1,0,1.7c0-0.2,0.1-0.4,0.2-0.6c0.1-0.2,0.2-0.4,0.4-0.5
		c-0.1,0.2-0.2,0.5-0.1,0.8c0,0.3,0.2,0.6,0.4,0.8c0-0.1,0-0.3,0.1-0.4c0-0.1,0-0.1,0.2-0.1c0,0,0.1,0,0.1,0.1c0,0.1,0,0.3,0.1,0.4
		c0,0.2,0,0.3-0.1,0.5c-0.2,0.8-1,1.2-1.8,0.9c-0.1-0.1-0.2-0.1-0.3-0.2c-0.3-0.2-0.6-0.3-1-0.5c-0.4-0.1-0.8-0.1-1.2,0.1
		c-0.3,0.1-0.5,0.4-0.5,0.8c0.2-0.2,0.5-0.4,0.9-0.2c0.1,0,0.1,0.1,0.1,0.2c0,0.3,0.4,0.5,0.7,0.5c0,0,0.1,0,0.2,0
		c0.1,0,0.2-0.1,0.4-0.2c0.1,0,0.2,0.1,0.2,0.1c0,0.1,0,0.2-0.1,0.2c-0.2,0-0.4,0.1-0.6,0.1c-0.3,0.2-0.6,0.5-0.8,0.9
		c-0.1,0.3,0,0.6,0.1,0.9c0-0.3,0.2-0.6,0.5-0.8c0.1,0,0.2,0,0.2,0c0.2,0.2,0.6,0.1,0.8-0.1c0.1-0.1,0.1-0.1,0.1-0.2
		s0.1-0.3,0.2-0.5c0-0.1,0.1-0.1,0.2-0.1c0,0,0.1,0.1,0.1,0.2c0,0.2-0.1,0.3-0.1,0.5c0,0.4,0.1,0.8,0.3,1.2c0.2,0.2,0.5,0.3,0.8,0.3
		c-0.3-0.1-0.4-0.5-0.4-0.8c0-0.1,0-0.2,0.1-0.2c0.3-0.1,0.4-0.5,0.3-0.8c0,0,0-0.1-0.1-0.1s0-0.2-0.1-0.2c-0.1-0.1,0-0.2,0.1-0.2
		h0.2c1,0.7,2.4,0.5,3.2-0.5c-0.2,0-0.4,0-0.6-0.1c-0.2,0-0.3-0.2-0.5-0.2c0.6,0,1.1-0.4,1.4-0.9c-0.4,0.2-0.8,0-0.9-0.4
		c-0.2-0.4,0-0.8,0.5-0.9c0.1,0,0.3,0,0.5,0c0.1,0,0.2,0,0.3-0.1v-0.1C89.3,129.1,88.6,127.9,87.4,127.5z"/>
	<path class="st0" d="M89.3,112.3L89.3,112.3c1.3,0.5,2.4,1.4,3.2,2.5c0.6-0.4,1.7-0.8,2.4-0.4h0c0.1-0.1-0.2-0.6-0.5-0.6h0
		c0,0-0.2,0.1-0.2,0.2h0c0,0,0-0.1,0-0.2v-0.1c-0.1-0.1-0.3-0.1-0.5,0c0,0.1-0.1,0.1-0.1,0.2v0l0.2,0.2c0,0,0,0-0.1,0
		c-0.1,0-0.4,0.1-0.5-0.1c0,0-0.1-0.2,0-0.2v0c0,0-0.2,0-0.2-0.1c-0.1-0.1,0-0.3,0.1-0.4c0,0,0,0,0,0s0,0.1,0,0.2v0
		c0.2,0,0.4,0,0.4-0.2c0,0,0-0.2,0-0.2h0c-0.1,0-0.2,0-0.2,0c0,0,0,0,0,0c0.1,0,0.2-0.1,0.3-0.2h0c0.1-0.1,0-0.3-0.2-0.4
		c-0.1-0.1-0.2-0.1-0.2,0v0c-0.1,0.1-0.1,0.2-0.2,0.3h0c0,0-0.1-0.2-0.1-0.2v0c-0.1,0-0.3,0-0.4,0.2c0,0,0,0.1,0,0.2h0
		c0.1,0,0.2,0,0.2,0s0,0,0,0c-0.2,0.2-0.3,0.3-0.5,0.2c-0.1,0-0.2-0.2-0.1-0.3c-0.1,0-0.2,0-0.3-0.1c-0.2-0.2,0-0.4,0-0.5l0.1,0
		c0,0,0,0.2,0.1,0.2c0,0,0,0,0,0c0.2,0,0.4,0,0.4-0.2c0-0.1,0-0.1,0-0.2h-0.1c0,0-0.1,0-0.2,0c0,0,0,0,0,0c0.1-0.1,0.2-0.2,0.3-0.2
		c0,0,0,0,0,0c0-0.2,0-0.4-0.2-0.4c-0.1,0-0.1,0-0.2,0v0.1c0,0.1-0.1,0.3-0.1,0.3h0c0,0-0.1-0.2-0.1-0.2c0,0,0,0,0,0
		c-0.2,0-0.3,0-0.4,0.2c0,0.1,0,0.1,0.1,0.2h0l0.2,0c0,0,0,0,0,0.1c-0.2,0.2-0.3,0.4-0.5,0.2c-0.1,0-0.1-0.2-0.1-0.2
		c-0.1,0-0.2,0-0.3,0c-0.2-0.2-0.1-0.3,0-0.5l0,0c0.1,0,0.1,0.1,0.1,0.2c0,0,0,0.1,0,0.1c0.2,0,0.3-0.1,0.3-0.3c0-0.1,0-0.1,0-0.2
		h-0.3c0,0,0,0,0-0.1c0,0,0.2-0.2,0.2-0.2c0,0,0,0,0-0.1c0-0.1,0-0.2-0.1-0.3c-0.1,0-0.2,0-0.4,0v0c0,0.1,0,0.2,0,0.4h0
		c0,0-0.1-0.2-0.1-0.2l0,0c-0.2,0-0.3,0.1-0.3,0.2c0,0.1,0,0.1,0,0.2h0.3c0,0,0,0,0,0.1c-0.1,0.2-0.1,0.3-0.3,0.2
		c0-0.1-0.1-0.1-0.1-0.2h0c0,0-0.1,0-0.2,0c-0.1,0-0.2-0.3-0.2-0.5c0,0,0-0.1,0.1,0c0,0,0.1,0.1,0.2,0.1H90c0.1,0,0.2-0.2,0.2-0.4
		c0,0-0.1-0.2-0.1-0.2h0c-0.1,0-0.2,0.1-0.2,0.1h0c0-0.1,0.1-0.2,0.1-0.3v0c0-0.2-0.7-0.4-0.7-0.2v0
		C89.6,110.5,89.5,111.6,89.3,112.3z"/>
	<path class="st0" d="M82.9,115.4c0.2,0.2,0.4,0.3,0.7,0.5c0.2,0,0.3,0,0.5,0h2.8c-0.8-0.2-1.8-0.3-2.5-0.6
		c-0.2-0.1-0.4-0.2-0.6-0.4c-0.4-0.5-1.2-0.5-1.8-0.1c0.2,0,0.2,0,0.4,0C82.5,114.9,82.7,115.1,82.9,115.4z"/>
	<path class="st0" d="M85.2,114.9c0,0.2,0,0.5,0.2,0.6c0.1-0.5,0.6-0.7,1-0.5c0.5,0.1,0.7,0.6,0.5,1c-0.1,0.3-0.5,0.6-0.8,0.5H86
		c-0.2,0-0.4-0.3-0.3-0.5c-0.1,0.1-0.2,0.2-0.2,0.3c-0.1,0.4-0.1,0.8-0.2,1.1c-0.1,0.2-0.3,0.2-0.4,0.5c1.1-0.4,1.3-0.1,1.6-0.1
		c0.5-0.2,1-0.4,1.5-0.5c0.1,0,0.2-0.2,0.2-0.3v-0.1c-0.1-0.1-0.1-0.3,0-0.5l0.1-0.3c0,0,0,0,0.1,0c0,0,0,0,0,0.1
		c0,0-0.1,0.1-0.1,0.1c0,0.2,0,0.4,0.1,0.5c0,0.1,0,0.1,0.1,0.2c0,0.1,0.2,0.2,0.2,0.3v0.1c-0.1,0-0.7,0.2-0.9,0.3
		c-0.1,0-0.2,0.2-0.1,0.3c0,0.2,0,0.2-0.1,0.4c-0.1,0.1-0.2,0.2-0.4,0.2c-0.7,0-1.4,0.1-2.1,0.2c-0.5,0.2-0.9,0.7-0.9,1.3
		c0.5-0.1,1,0,1.5,0.2l0.3,0.2l-0.3,0.2c-0.4,0.4-0.6,0.9-0.6,1.4c0.5-0.2,1-0.2,1.5,0l0.3,0.2l-0.2,0.2c-0.3,0.3-0.5,0.9-0.2,1.3
		c0.5-0.4,1.1-0.5,1.7-0.3l0.2,0l0,0.2v0c0,0.4,0.2,0.8,0.4,1c0.4-0.5,0.9-0.8,1.5-0.8c0.5-0.2,0.9-0.7,1-1.2c-1,0.5-1-0.2-0.7-0.4
		c0.6-0.7,0.8-1.4,1-2.2c0,0,0-0.1,0-0.2c0.1-0.1,0-0.2-0.1-0.3c-0.1-0.1-0.2-0.2-0.2-0.4c0.7,0.5,1.2-0.3,1.2-0.8
		c-0.4,0.5-0.5,0.2-0.5,0.1c0-0.2,0.2-2.1-0.2-3.1c0.4,0.1,0.8-0.1,1-0.5c0,0,0-0.1,0-0.1c-0.3,0.1-0.7,0-1-0.2
		c-0.1-0.2-0.2-0.4-0.5-0.5c-0.6-0.7-1.5-1.2-2.4-1.5c-0.2,0.2-0.5,0.3-0.8,0.3l-1.3,0c-0.2-0.1-0.5,0-0.6,0.2
		c-0.4,0.2-0.8,0.4-1.2,0.6c-0.2,0-0.2,0.2-0.2,0.3c0,0,0.1,0.1,0.1,0.2C85.2,114.4,85.2,114.7,85.2,114.9z M86.9,114.2l0.2-0.3v0h0
		l1.1,0.3c-0.3,0.5-0.9,0.5-1.4,0.2l0,0V114.2z"/>
	<path class="st0" d="M93.8,118.3c-1,2.2,0.8,4.7,1.6,6.7c0.4,1.2,0.6,2.4,0.5,3.6c0,0.1,0,0.3-0.1,0.4c-0.2,0.8-0.9,1.2-1.7,1.2
		c-0.1,0-0.2,0-0.2-0.2c0-0.6-0.3-1.2-0.8-1.7c-1.2-1-1.6-1.1-2.2-1.9c-0.5-0.5-0.6-1.2-0.4-1.8c-0.5,0-1.1,0.3-1.4,0.8l-0.2,0.2
		l-0.2-0.1c-0.5-0.3-0.9-0.8-0.9-1.5c-0.4,0-0.9,0.1-1.2,0.5l-0.2,0.2l-0.2-0.2c-0.1-0.1-0.1-0.2-0.2-0.3l-0.5,0
		c-0.2,0.4-0.5,0.8-0.8,1.1c1.3,0.7,2.5,1.2,3.7,1.9c1.2,0.8,1.8,2.2,1.4,3.5c0,0.2-0.5,2-0.3,3c0,0.6,0.3,1.1,0.8,1.5
		c-0.1-0.2-0.1-0.4-0.1-0.7c0-0.2,0-0.4,0.2-0.5c0,0.2,0,0.5,0.2,0.7c0.2,0.2,0.4,0.5,0.7,0.6c-0.1-0.2-0.1-0.5,0-0.8
		c0.1-0.3,0.3-0.5,0.6-0.6c0.6-0.2,1-0.7,1.2-1.2c0.2,0.5,0.1,1-0.2,1.5c0.3,0.2,0.4,0.6,0.2,1c0,0.4-0.3,0.8-0.6,0.9
		c0,0-0.5,0.2-1.5-0.2c-0.4-0.1-0.8-0.1-1.2,0.1c-0.3,0.2-0.5,0.4-0.5,0.8c0.2-0.2,0.5-0.3,0.8-0.2c0.1,0,0.2,0.1,0.2,0.2
		c0,0.3,0.3,0.5,0.7,0.5c0,0,0.1,0,0.2-0.1c0.1,0,0.2-0.1,0.4-0.1c0.1,0,0.2,0.1,0.2,0.1s-0.1,0.2-0.1,0.2c-0.2,0-0.3,0.1-0.5,0.1
		c-0.3,0.2-0.7,0.5-0.8,0.9c-0.1,0.3,0,0.6,0.1,0.9c0-0.3,0.2-0.6,0.5-0.8c0.1,0,0.2,0,0.2,0c0.2,0.2,0.6,0.1,0.8-0.1
		c0,0,0-0.1,0.1-0.2c0,0,0.1-0.3,0.2-0.5c0-0.1,0.1-0.1,0.2-0.1c0.1,0,0.1,0.1,0.1,0.2c-0.1,0.2-0.2,0.4-0.3,0.7
		c-0.2,0.4-0.2,0.8-0.2,1.2c0.1,0.3,0.3,0.5,0.6,0.7c-0.2-0.2-0.2-0.6,0-0.9c0-0.1,0.1-0.1,0.2-0.1c0.3,0,0.6-0.2,0.6-0.5
		c0-0.2-0.2-0.4-0.1-0.6c0-0.1,0.1-0.1,0.1-0.1c0.5,0.1,1-0.2,1.1-0.8c0-0.2,0-0.4-0.1-0.5c-0.5-1.1,1.4-2,1.4-2.6
		c0.2-0.5-0.1-1-0.6-1.1c-0.2-0.1-0.3-0.1-0.5-0.1c-0.2,0.1-0.5-0.1-0.5-0.3c-0.1-0.5-0.3-0.9-0.6-1.3l0.2-0.3
		c1.2,0.2,2.5-0.6,2.8-1.8c0.1-0.3,0.2-0.6,0.2-1c0-1.3-0.2-2.5-0.7-3.8c-0.8-2.1-3-4.5-1.2-6.8c0.8-0.9,1.8-0.8,2.1-0.4
		c0.4,0.2,0.7,0.7,1.1,1.9c0.2,0.8,0.8,1.4,1.6,1.5c-0.3-0.2-0.5-0.7-0.6-1c0-0.1,0-0.2,0.1-0.2c0.1,0,0.2,0,0.2,0
		c0.6,0.8,1.7,1,2.5,0.4c0.2-0.2,0.5-0.4,0.5-0.7c-0.3,0.2-0.8,0.3-1.2,0.1c-0.6-0.2-0.8-1.2-1.2-1.7c-0.4-0.6-1.1-1.1-1.8-1.3
		C96.7,115.7,94.6,116.5,93.8,118.3z"/>
	<path class="st0" d="M77.3,117.5L77.3,117.5c0.2,0.2,0.6,0.3,0.8,0.1c0,0,0.1-0.1,0.1-0.1c0.1,0,0.2-0.1,0.2-0.2c0.1,0,0.2,0,0.2,0
		c0,0.1,0.1,0.1,0,0.1v0c-0.1,0.5,0.1,1,0.6,1.2c0.1,0,0.1,0,0.2,0c0.2,0.3,0.4,0.5,0.6,0.8c0,0-0.1,0-0.1,0c-0.3,0-0.6-0.2-0.8-0.5
		c0,0.3,0,0.7,0.3,0.9c0.3,0.2,0.7,0.4,1.1,0.4c-0.3,0.2-0.7,0.2-1,0.1c0.2,0.3,0.5,0.5,0.8,0.6c0.7,0.1,1.4,0.2,2.1,0.3
		c0.5,0.1,0.5,0.5,1,0.5c0.3-0.2,0.7-0.3,1-0.5c0.1-0.2,0.2-0.4,0.3-0.6c-0.3-0.1-0.8-0.1-1.1,0l-0.4,0.1v-0.4c0-0.4,0-0.7,0.2-1
		c-0.4,0-0.8-0.1-1.2-0.2c-0.1,0-0.3-0.1-0.4-0.2c-0.4-0.2-0.7-0.4-1-0.7l0-0.1l-0.1,0v0l0,0V118c0,0,0,0,0-0.1
		c0-0.1-0.1-0.2-0.2-0.2c-0.2-0.4-0.3-0.9-0.3-1.3c-0.1-0.2-0.1-0.4-0.1-0.6c0-0.3,0.1-0.3,0.2-0.8c0-0.4-0.1-0.8-0.3-1.2
		c-0.2-0.2-0.5-0.3-0.8-0.3h-0.1c0.2,0.1,0.5,0.4,0.5,0.8c0,0.1,0,0.2-0.1,0.2c-0.3,0.2-0.5,0.5-0.4,0.8c0,0.1,0,0.1,0.1,0.2
		c0,0.1,0,0.2,0.1,0.3v0.2c0,0.1-0.1,0.2-0.2,0.1c0,0,0,0-0.1,0l-0.2-0.2c-0.2-0.2-0.1-0.3-0.4-0.7c-0.2-0.3-0.6-0.6-1-0.7
		c-0.3,0-0.6,0-0.8,0.2l0,0c0.3,0,0.7,0,0.8,0.3c0.1,0.1,0.1,0.2,0,0.2c-0.1,0.3,0,0.7,0.2,0.8c0.1,0,0.1,0,0.2,0
		c0.2,0,0.3,0.1,0.4,0.3c0,0,0.1,0.1,0,0.2c0,0-0.1,0.1-0.2,0.1h-0.5c-0.4,0-0.8,0.3-1,0.6c-0.2,0.2-0.2,0.5-0.2,0.8v0.1
		c0.1-0.3,0.3-0.5,0.7-0.6C77.2,117.3,77.3,117.3,77.3,117.5z"/>
	<path class="st0" d="M80.6,127.8c0.2,0.2,0.5,0.3,0.8,0.3h0.1c-0.3-0.1-0.5-0.4-0.5-0.8c0-0.1,0-0.2,0.2-0.2
		c0.2-0.2,0.4-0.5,0.2-0.8c-0.1,0-0.1-0.1-0.1-0.1c0-0.1-0.1-0.2-0.1-0.3v-0.1c0,0,0.1-0.1,0.2-0.1h0c0.5,0.2,1,0.1,1.2-0.4
		c0-0.1,0-0.2,0.1-0.2c0.3-0.2,0.6-0.3,0.9-0.5c0,0,0,0.1,0,0.1c0,0.3-0.3,0.6-0.6,0.7c0.3,0.1,0.7,0,0.9-0.2c0.3-0.2,0.5-0.6,0.5-1
		c0.1,0.4,0.1,0.8-0.1,1c0.5-0.2,0.8-0.6,0.8-1.1v0c0-0.1,0.1-0.2,0.2-0.2s0,0,0.1,0c0.2,0.1,0.3,0.1,0.5,0.1
		c-0.2-0.5-0.1-1,0.2-1.4c-0.4-0.1-0.7,0-1,0.2l-0.3,0.2l-0.1-0.4c-0.1-0.3-0.2-0.6-0.1-0.9c-1.5,1.1-1.5,1.7-2.9,2.1
		c-0.5,0.2-0.9,0.2-1.3,0.2c-0.2,0-0.4,0-0.6,0c-0.3,0-0.3-0.2-0.8-0.3c-0.4-0.1-0.8-0.1-1.2,0.1c-0.2,0.2-0.5,0.4-0.5,0.7v0.1
		c0.2-0.2,0.5-0.3,0.8-0.3c0.1,0,0.2,0.1,0.2,0.2c0.1,0.3,0.4,0.5,0.7,0.5c0,0,0.1-0.1,0.2-0.1c0.1,0,0.2,0,0.3,0h0.1
		c0.1,0,0.1,0.2,0,0.2c0,0,0,0,0,0c0,0.1-0.1,0.1-0.2,0.2c-0.2,0.2-0.3,0.1-0.8,0.3c-0.3,0.2-0.6,0.5-0.8,0.9
		c-0.1,0.2,0,0.5,0.1,0.8c0,0,0,0,0,0.1c0-0.3,0.1-0.6,0.4-0.8c0.1,0,0.2,0,0.2,0c0.2,0.2,0.6,0.1,0.8-0.1c0.1-0.2,0.2-0.4,0.4-0.5
		c0.1-0.1,0.2-0.1,0.2-0.1c0,0.1,0.1,0.1,0.1,0.2c-0.1,0.2-0.1,0.3-0.1,0.5C80.2,127,80.3,127.5,80.6,127.8z"/>
	<path class="st0" d="M51.7,180c5.7,3.3,13.6,5.1,22.2,5.1c15.8,0,32.6-5.9,32.6-22.7v-57.3H41.2v57.2C41.2,169.9,44.8,176,51.7,180
		z M53.7,178.4c-0.3-0.2-0.5-0.3-0.8-0.5c-1-0.5-1.9-1.2-2.8-1.9v-32.9h3.5V178.4z M56.7,179.5v-36.2h3.5v36.2
		c-0.6,0.1-1.2,0.1-1.9,0.1C57.7,179.5,57.2,179.5,56.7,179.5z M73.9,182.7c-5.2,0-10.3-0.7-15.2-2.2c4.1-0.1,8.1-2.1,11.1-5.7
		c2-2.4,3.3-5.1,4-8.1c0.7,3.1,2,5.9,4,8.2c2.9,3.4,7.1,5.5,11.5,5.6C84.3,182,79.1,182.8,73.9,182.7z M63.2,178.5v-35.3h0.4
		c0.1,2.9,1.2,5.8,3.1,7.9v25.2C65.7,177.2,64.5,178,63.2,178.5z M69.7,173.3v-19.9c1.1,0.6,2.3,0.9,3.6,1v8
		C73.3,166.3,72.1,170.1,69.7,173.3z M104.2,162.3c0,6.9-3.2,12.1-9.3,15.7c-0.8,0.5-1.5,0.8-2.4,1.2c-0.8,0.2-1.8,0.3-2.7,0.3
		c-4.3,0-8.5-1.9-11.3-5.2c-2.8-3.4-4.2-7.6-4.2-11.9v-8c1.4-0.1,2.8-0.5,4-1.2v3.7c-1.3,0.4-2,1.8-1.7,3c0.2,0.8,0.9,1.5,1.7,1.7
		v2.5c0,1.2,0.2,2.3,0.5,3.5c-1,0.9-1.1,2.4-0.2,3.4c0.5,0.6,1.2,0.9,1.9,0.9c0.3,0,0.6,0,0.9-0.2c1.5,1.6,3.4,2.7,5.6,3.2
		c0.2,1.3,1.5,2.2,2.8,2c1-0.2,1.8-1,2-2c2.1-0.5,4-1.6,5.5-3.2c1.2,0.5,2.7-0.1,3.2-1.4c0.4-1,0.1-2.1-0.7-2.8
		c0.3-1.1,0.5-2.3,0.5-3.5v-2.5c1.3-0.4,2.1-1.8,1.7-3c-0.2-0.8-0.8-1.5-1.7-1.7V150c1.3-0.4,2.1-1.8,1.7-3c-0.4-1.3-1.8-2.1-3-1.7
		c-0.8,0.2-1.5,0.8-1.7,1.6h-5.6c-0.4-1.3-1.8-2-3-1.6c-0.8,0.2-1.4,0.8-1.7,1.6h-3.6c0.4-1.2,0.6-2.5,0.7-3.8h20.2L104.2,162.3z
		 M81.5,167.2c-0.5-0.2-0.9-0.3-1.4-0.2c-0.3-1-0.4-1.9-0.4-2.9v-2.5c0.8-0.2,1.4-0.8,1.6-1.6h5.2c0.1,0.3,0.2,0.7,0.5,1L81.5,167.2
		z M81.7,169.5c0,0.8-0.6,1.3-1.3,1.3s-1.4-0.6-1.4-1.3s0.6-1.4,1.4-1.4C81.2,168,81.7,168.7,81.7,169.5z M82.5,168.1l5.5-6.3
		c0.2,0.1,0.4,0.1,0.6,0.2v10.1c-0.7,0.2-1.3,0.7-1.6,1.4c-1.8-0.5-3.3-1.4-4.6-2.7C83,170,83,169,82.5,168.1z M87.7,159.2
		c0-0.9,0.8-1.6,1.7-1.6c0.9,0,1.6,0.8,1.6,1.7c0,0.9-0.8,1.6-1.6,1.6C88.4,160.9,87.7,160.1,87.7,159.2z M89.2,173.1
		c0.8,0,1.4,0.6,1.4,1.4s-0.6,1.3-1.4,1.3s-1.3-0.6-1.3-1.3C87.9,173.8,88.5,173.1,89.2,173.1z M90,172.1v-10c0.2,0,0.4-0.1,0.5-0.2
		l5.6,6.2c-0.6,0.9-0.5,2,0.1,2.8c-1.2,1.3-2.8,2.2-4.6,2.7C91.2,172.8,90.7,172.3,90,172.1z M91.6,161c0.2-0.3,0.4-0.7,0.5-1h5.1
		c0.2,0.8,0.9,1.4,1.7,1.6v2.5c0,1-0.2,2-0.5,2.9h-0.3c-0.3,0-0.7,0.1-1,0.2L91.6,161z M98.2,168c0.8,0,1.3,0.6,1.3,1.4
		s-0.6,1.3-1.3,1.3s-1.3-0.6-1.3-1.3C96.8,168.7,97.4,168.1,98.2,168z M98.2,159.2c0-0.8,0.6-1.4,1.4-1.4s1.3,0.6,1.3,1.4
		s-0.6,1.3-1.3,1.3C98.9,160.6,98.2,160,98.2,159.2z M98.2,147.7c0-0.8,0.6-1.4,1.4-1.4s1.3,0.6,1.3,1.4s-0.6,1.3-1.3,1.3
		C98.9,149,98.2,148.5,98.2,147.7z M98.6,149.9c0.1,0.1,0.2,0.1,0.3,0.2v6.8c-0.8,0.2-1.4,0.9-1.7,1.7h-5.1
		c-0.1-0.3-0.2-0.6-0.4-0.9L98.6,149.9z M90.7,156.8c-0.2-0.2-0.5-0.2-0.7-0.3V150c0.8-0.2,1.4-0.9,1.7-1.7h5.6
		c0.1,0.2,0.2,0.4,0.3,0.6L90.7,156.8z M89.2,149c-0.8,0-1.3-0.6-1.3-1.3s0.6-1.4,1.3-1.4s1.4,0.6,1.4,1.4S90,149,89.2,149z
		 M88.6,150v6.5c-0.2,0-0.5,0.1-0.7,0.3l-6-6.8c0.3-0.5,0.6-1,0.9-1.5h4.2C87.2,149.2,87.7,149.8,88.6,150z M86.9,157.7
		c-0.2,0.2-0.3,0.5-0.3,0.8h-5.2c-0.2-0.8-0.9-1.4-1.7-1.6v-4.6c0.5-0.4,1-0.8,1.4-1.3L86.9,157.7z M80.3,159.2
		c0,0.8-0.6,1.3-1.4,1.3s-1.3-0.6-1.3-1.3s0.6-1.4,1.3-1.4S80.3,158.5,80.3,159.2z M74.3,107.5h29.9v34.7H84
		c-0.2-6-4.5-10.9-9.7-11.2L74.3,107.5z M82.2,142.6c0,5.5-3.8,10-8.4,10c-4.7,0-8.4-4.5-8.4-10s3.8-9.9,8.4-9.9
		C78.5,132.7,82.2,137.1,82.2,142.6z M43.5,107.5h29.9v23.4c-2.2,0.2-4.2,1-5.8,2.5H65v-9.3h1.1v-4H65v-2.7h0.8v-2.3h-0.7v1h-0.7v-1
		H63v1h-0.7v-1h-0.7v2.3h0.8v2.7H60v-5.8h1v-2.8h-0.7v1h-1.1v-1h-1.4v1h-1.2v-1h-0.7v2.8h1v5.8h-2.5v-2.6h0.8v-2.4h-0.7v1h-0.7v-1
		h-1.4v1h-0.7v-1h-0.7v2.4h0.8v2.6h-1.1v4h1.1v9.3h-2v4.6h6.8v-3.3c0-1,0.9-1.9,1.9-1.9c1,0,1.8,0.9,1.8,1.9v3.3h4.2
		c-0.5,1.3-0.8,2.7-0.8,4H43.5V107.5z M62.2,125.3v2.6h-2v-2.6c0-0.5,0.5-1,1-1C61.8,124.3,62.2,124.8,62.2,125.3z M56.5,125.3v2.6
		h-2v-2.6c0-0.5,0.5-1,1-1C56,124.3,56.5,124.8,56.5,125.3z M47.1,173.1c-2.5-3-3.7-6.9-3.6-10.8v-19.2h3.6V173.1z"/>
	<path class="st0" d="M33,114.1c0-0.3-0.1-0.5-0.4-0.7c-0.4-0.3-0.7-0.8-0.6-1.2c0-0.5,0.2-1,0.6-1.2c0.1-0.1,0.3-0.4,0.3-0.6
		c0-0.4-0.3-0.7-0.7-0.7h-8.5c-0.3,0-0.6,0.3-0.6,0.7c0,0.2,0.1,0.4,0.3,0.5c0.5,0.3,0.7,0.8,0.7,1.3c0,0.5-0.2,1-0.6,1.3
		c-0.2,0.2-0.4,0.4-0.3,0.7c0,0.4,0.2,0.8,0.7,0.8h8.5C32.8,114.8,33,114.5,33,114.1z"/>
	<rect x="21.8" y="171.1" class="st0" width="12.4" height="3.6"/>
	<path class="st0" d="M31.7,148.8c-2.7,1.5-5.2,2.7-7.5,3.7v13.1c0,1.7-0.4,2.8-0.8,3.6c-0.1,0.2-0.1,0.4,0.1,0.5
		c0,0.1,0.1,0.1,0.2,0.1h8.9c0.2,0,0.4-0.4,0.2-0.6c-0.5-0.8-0.8-1.8-0.8-3.6v-17L31.7,148.8z"/>
	<path class="st0" d="M33,137v4.1c1.1-0.7,2.2-1.5,3-2.5l0.5-0.5C35.9,137.6,34.4,137.1,33,137z"/>
	<path class="st0" d="M27,125.6c1.7-0.2,3.4-0.3,5-0.3V116h-7.9v10.2C25,126,26,125.8,27,125.6z"/>
	<path class="st0" d="M34.4,177.8c-0.8-0.2-1.5-0.4-2.2-0.7c-1.2-0.5-2.5-0.8-3.8-0.8c-1.3,0-2.6,0.3-3.9,0.8
		c-0.8,0.3-1.5,0.6-2.2,0.7c-0.9,0.1-1.8,0-2.7-0.1c-0.2-0.1-0.5-0.1-0.8-0.2v1.2c0.2,0,0.4,0,0.6,0.1c0.7,0.1,1.4,0.2,2.1,0.2
		c0.4,0,0.8-0.1,1.1-0.1c0.8-0.1,1.6-0.4,2.5-0.8c1.1-0.5,2.2-0.8,3.5-0.8c1.1,0,2.3,0.2,3.3,0.8c0.8,0.4,1.6,0.6,2.5,0.8
		c1.1,0.2,2.2,0.1,3.2-0.1c0.2-0.1,0.4-0.1,0.5-0.1v-1.2c-0.2,0-0.5,0-0.7,0.1C36.2,177.8,35.3,177.9,34.4,177.8z"/>
	<path class="st0" d="M37.2,180.4c-0.9,0.2-1.9,0.3-2.8,0.2c-0.8-0.2-1.5-0.4-2.2-0.7c-1.2-0.5-2.5-0.8-3.8-0.8
		c-1.3,0-2.6,0.3-3.9,0.8c-0.8,0.3-1.5,0.6-2.2,0.7c-0.9,0.1-1.8,0-2.7-0.1c-0.2-0.1-0.5-0.1-0.8-0.2v1.2c0.2,0,0.4,0,0.6,0.1
		c0.7,0.1,1.4,0.2,2.1,0.2c0.4,0,0.8-0.1,1.1-0.1c0.8-0.1,1.6-0.4,2.5-0.8c1.1-0.5,2.2-0.8,3.5-0.8c1.1,0,2.3,0.2,3.3,0.8
		c0.8,0.4,1.6,0.6,2.5,0.8c1.1,0.2,2.2,0.1,3.2-0.1c0.2-0.1,0.4-0.1,0.5-0.1v-1.2C37.7,180.3,37.4,180.3,37.2,180.4L37.2,180.4z"/>
	<path class="st0" d="M34.4,183.2c-0.8-0.2-1.5-0.4-2.2-0.7c-1.2-0.5-2.5-0.8-3.8-0.8c-1.3,0-2.6,0.3-3.9,0.8
		c-0.8,0.3-1.5,0.5-2.2,0.7c-0.9,0.1-1.8,0-2.7-0.2c-0.2,0-0.5-0.1-0.8-0.1v1.2c0.2,0,0.4,0,0.6,0.1c0.7,0.2,1.4,0.2,2.1,0.2
		c0.4,0,0.8,0,1.1-0.1c0.8-0.2,1.6-0.4,2.5-0.8c1.1-0.5,2.2-0.8,3.5-0.8c1.1,0,2.3,0.2,3.3,0.8c0.8,0.3,1.6,0.6,2.5,0.8
		c1.1,0.1,2.2,0.1,3.2-0.2c0.2,0,0.4-0.1,0.5-0.1V183c-0.2,0-0.5,0-0.7,0.1C36.2,183.3,35.3,183.3,34.4,183.2z"/>
	<path class="st0" d="M22.4,130.8c0.3-0.2,0.4-0.6,0.2-0.9c-0.1-0.3-0.4-0.5-0.8-0.4v0l-0.3,0.1L22,131L22.4,130.8z"/>
	<path class="st0" d="M32,133.2c-1.2,0-2.3,0.1-3.4,0.2c-1.6,0.2-3.1,0.5-4.5,1v11.2c2.3-0.9,4.5-2,6.6-3.3c0.4-0.2,0.8-0.5,1.2-0.8
		V133.2z"/>
	<path class="st0" d="M20.8,151.8c-0.1,0.4-0.1,0.7-0.2,1c6.4-2.1,16.2-7.8,16.8-8.9l-0.5-4.4c-1.1,1.1-3.5,2.7-5.5,3.8
		c-3.5,2.1-7,3.7-9.5,4.4C21.5,148.5,21.2,150.3,20.8,151.8z"/>
	<path class="st0" d="M17.6,137.3l0.3-0.5c1.5-2.1,6-4,10.6-4.6c1.5-0.2,3-0.2,4.5-0.2c2.9,0,5.4,0.2,7.1,0.8V127
		c-1.5-0.5-4.3-0.7-7.4-0.7c-1.8,0-3.7,0.1-5.5,0.4c-5.7,0.8-9.9,3-11.2,4.8c-0.3,0.3-0.5,0.8-0.4,1.2
		C15.7,133,16.7,135.3,17.6,137.3z M33.1,130.9c0.1-0.2,0.2-0.5,0.2-0.7v0h0.2v0c0.1,0.4,0.4,0.7,0.8,0.7c0.3,0,0.8-0.1,0.8-0.5
		s-0.3-0.5-0.8-0.8c-0.5-0.2-1.2-0.5-1-1.4c0-0.6,0.6-1.2,1.7-1.1c0.4,0,0.8,0.2,1.1,0.4l0,0l0,0c-0.1,0.2-0.2,0.4-0.2,0.5v0h-0.2v0
		c-0.1-0.3-0.4-0.5-0.7-0.5c-0.5,0-0.7,0.1-0.7,0.4c0,0.3,0.3,0.4,0.7,0.6c0.5,0.3,1.2,0.7,1.2,1.4c0,0.7-0.8,1.1-1.7,1.1h-0.3
		C33.7,131.3,33.4,131.2,33.1,130.9l-0.1,0L33.1,130.9z M28,127.6c0.2,0,1,0,1.2-0.1h0v0c0.3,0.6,0.6,1.2,1,1.8
		c0.2,0.2,0.2,0.5,0.4,0.7c0.3-0.8,0.7-1.8,0.9-2.7v0h0.1c0.2,0,0.4,0,0.6,0h0.2l-0.2,0.5c-0.5,1.2-1,2.3-1.4,3.5v0l-0.6,0.1v-0.1
		c-0.6-1.1-1.2-2.2-2.1-3.6L28,127.6L28,127.6z M24.9,128.2c0.1,0,0.2,0,0.4,0c0.2,0,0.2-0.1,0.4-0.1l0.2,0v0l0.8,3.2
		c0.6-0.1,1-0.2,1.4-0.4h0l0.2,0.6l-2.7,0.5v0l-0.8-3.8L24.9,128.2z M21.9,129c1.1-0.5,1.6,0,1.8,0.4c0.1,0.3,0.1,0.6,0,0.8
		c-0.2,0.4-0.7,0.8-1.5,1l0.6,1.6l-1,0.4l-1.5-3.6L21.9,129z"/>
	<polygon class="st0" points="73.5,67 74.2,67 74.2,65.6 75.2,65.6 75.2,64.8 74.2,64.8 74.2,63.8 73.5,63.8 73.5,64.8 72.5,64.8 
		72.5,65.6 73.5,65.6 	"/>
	<path class="st0" d="M115.7,148.7v16.9c0,1.8-0.3,2.9-0.8,3.6c-0.1,0.2,0,0.6,0.2,0.6h9c0.2,0,0.3-0.2,0.3-0.4c0-0.1,0-0.1,0-0.2
		c-0.5-0.8-0.8-2-0.8-3.6v-13.1c-2.4-0.9-5-2.2-7.6-3.6h0C116,148.8,115.9,148.8,115.7,148.7z"/>
	<path class="st0" d="M73.9,70.8c0.8,0,1.6-0.6,1.8-1.4h-3.5C72.2,70.2,73,70.8,73.9,70.8z"/>
	<path class="st0" d="M114.7,137c-1.4,0.1-2.9,0.6-3.5,1.1l0.5,0.5c0.9,0.9,1.9,1.8,3,2.5V137z"/>
	<path class="st0" d="M44.2,89.5c0,0.1,0,0.2-0.1,0.2c-0.5,0.3-0.8,0.8-1,1.2c0,0.1,0,0.2,0.1,0.2h0.1c1.1-0.5,2.4,0,2.9,1.1
		c0.1,0.2,0.1,0.4,0.1,0.5c0,0.1,0.1,0.2,0.2,0.2c0,0,0,0,0.1,0c0.6-0.5,1.5-0.3,1.9,0.3c0.3,0.4,0.4,1,0.2,1.4c0,0.1,0,0.2,0,0.2
		c2.9,1.8,4.8,4.9,5.2,8.4c0,0.1,0.1,0.2,0.2,0.2c11.5-3.4,27.9-3.4,39.4,0c0.1,0,0.2,0,0.2-0.2c0.4-3.4,2.2-6.5,5.2-8.4
		c0.1-0.1,0.1-0.2,0-0.2c-0.3-0.7,0-1.5,0.7-1.9c0.5-0.2,1-0.1,1.4,0.2c0.1,0,0.2,0,0.2,0c0,0,0.1-0.1,0.1-0.1
		c0.2-1.2,1.3-2,2.5-1.8c0.2,0,0.4,0.1,0.5,0.2c0.1,0,0.2,0,0.2-0.1v-0.1c-0.2-0.6-0.5-1-1-1.2c-0.1-0.1-0.1-0.2-0.1-0.2
		c0.6-1.2,1-2.6,1.2-4c0.9-7-5.7-10.5-15.3-9.2c-2.1-3.5-7.5-4.8-14.5-3.2c-0.1-0.6,0-1.8-1.1-1.8c-1.1,0-1.1,1.1-1.1,1.8
		c-7-1.5-12.4-0.3-14.5,3.2c-9.5-1.5-16.1,2.2-15.3,9.2C43.2,87,43.6,88.3,44.2,89.5z M56.1,100.5c-0.6,0-1-0.5-1-1
		c0-0.5,0.5-0.9,1-0.9c0.5,0,0.9,0.4,0.9,0.9C57,100.2,56.6,100.5,56.1,100.5z M64.2,98.3c0,0.1,0,0.1,0,0.1l-2.5,1.6
		c0,0-0.1,0-0.2,0l-2.7-1c-0.1,0-0.2-0.1-0.1-0.2c0,0,0.1-0.1,0.1-0.1l2.4-1.5c0.1-0.1,0.1-0.1,0.2-0.1l2.7,1.1
		C64.2,98.2,64.3,98.2,64.2,98.3z M67.6,99.3c-0.6,0-1.1-0.5-1.1-1.1s0.5-1.1,1.1-1.1c0.6,0,1.1,0.5,1.1,1.1S68.2,99.3,67.6,99.3z
		 M76.8,98c-0.1,0.1-0.1,0.1-0.1,0.1c-0.9,0.5-1.8,0.9-2.7,1.4c0,0-0.1,0-0.2,0l-2.7-1.4C71,98,71,98,71,97.8c0,0,0.1,0,0.1-0.1
		c0.9-0.5,1.8-0.9,2.7-1.4c0.1,0,0.1,0,0.2,0c0.9,0.5,1.8,0.9,2.7,1.4C76.8,97.8,76.9,97.9,76.8,98z M80.1,99.3
		c-0.6,0-1.1-0.5-1.1-1.1s0.5-1.1,1.1-1.1c0.6,0,1.1,0.5,1.1,1.1S80.7,99.3,80.1,99.3z M88.9,99l-2.7,1c0,0-0.2,0-0.2,0l-2.5-1.6
		c-0.1,0-0.1-0.2,0-0.2c0,0,0,0,0.1,0l2.7-1.1c0.1,0,0.1,0,0.2,0.1l2.4,1.5C89,98.8,89,98.9,88.9,99z M91.7,100.5
		c-0.5,0-1-0.4-1-0.9c0-0.6,0.4-1,1-1s1,0.4,1,1C92.6,100.2,92.2,100.5,91.7,100.5z M90,87c-0.2-0.1-0.4-0.3-0.6-0.3
		c-0.4-0.1-0.6-0.4-0.5-0.7c1.3-2.7,2.2-6.1,0.9-9c5.9-0.6,10.2,0.7,11.9,4.2c0.8,1.9,0.8,4.2,0.1,6.9c0,0,0,0.1,0,0.2
		c0.2,0.4,0.4,0.7,0.5,1.1c0.1,0.1,0,0.2,0,0.2h0c-0.3,0-0.5,0.1-0.8,0.3c-0.1,0-0.2,0-0.2,0c-0.2-0.5-0.4-0.9-0.8-1.2
		c-0.2-0.2-0.4,0-0.5,0.2c-0.6,0.6-1,1.4-1,2.3c0,0.1,0,0.2-0.2,0.2c0,0-0.1,0-0.1-0.1c-0.5-0.6-1.2-0.8-1.9-0.5
		c0,0-0.1,0.1-0.1,0.2c-0.1,0.3-0.1,0.5,0,0.8c0,0.1,0,0.2-0.1,0.2h-0.1c-0.6-0.4-1.4-0.2-1.8,0.3c-0.1,0-0.1,0.1,0,0.2
		c0.2,0.5,0.6,0.8,1.1,1c0.1,0,0.2,0.1,0.2,0.2c0,0.1,0,0.1,0,0.1c-0.1,0.1-0.2,0.3-0.2,0.5c0,0.1,0,0.2,0.1,0.2h0.2
		c0.3-0.2,0.8-0.2,1.1-0.1c0.2,0.9-0.2,1.8-1.2,2.1c-0.9,0.2-1.9-0.2-2.1-1.2c0-0.1,0-0.2,0-0.4c0.5-0.2,0.7-0.8,0.4-1.2
		c-0.2-0.4-0.8-0.6-1.2-0.4c-0.5,0.2-0.6,0.8-0.5,1.2c-1.5,1.2-4.6,0.8-4.2-1.4c0-0.6,0.6-1,1.2-1h0.1c0.5,0.1,0.9,0.5,0.9,1
		c0,0.1,0.1,0.2,0.2,0.2c0,0,0.1,0,0.1,0c0.2-0.2,0.4-0.5,0.5-0.9c0-0.1,0-0.2,0.1-0.2c0.1,0,0.1,0,0.2,0c0.5,0.1,1.2-0.1,1.5-0.5
		c0.1,0,0.1-0.1,0.1-0.2c-0.2-0.5-0.7-0.9-1.2-1c-0.1,0-0.2,0-0.2,0c0-0.1,0-0.1,0-0.2c0-0.3,0-0.7-0.1-1C91.5,89,91.5,89,91.4,89
		c0,0,0,0-0.1,0.1c-0.2,0.6-0.9,0.9-1.5,0.6c-0.7-0.4-1-0.9-0.9-1.5h0c0.1-0.5,0.5-1,1.1-1c0.1,0,0.1,0,0.1-0.1C90,87,90,87,90,87z
		 M88.6,89.8c0.3,0.6,0.1,1.3-0.5,1.6s-1.3,0.1-1.6-0.5c-0.2-0.5-0.1-1,0.2-1.5c0.5-0.4,1.2-0.4,1.7,0.1
		C88.5,89.7,88.6,89.8,88.6,89.8z M75.2,82.4c0.2-0.2,0.2-0.2,0.2-0.2c0.2,0,0.5-0.2,0.5-0.5v0c0-0.1,0-0.2,0-0.2
		c-0.5-1.4-0.8-2.8-0.8-4.2c0-1.2,0-2.4-0.2-3.6c5.6-1,9.9-0.5,11.8,2.1c1.9,2.4,1,6-0.1,8.6c0,0.1,0,0.2,0,0.2
		c0.4,0.2,0.7,0.5,1,0.8c0.3,0.3-0.3,0.9-0.7,1c-0.2,0-0.5,0-0.7,0.1c-0.1,0.1-0.1,0.1-0.1,0.2c0,0,0,0.1,0.1,0.1
		c0.6,0.2,0.8,0.9,0.6,1.5c-0.2,0.6-0.9,0.8-1.5,0.6c-0.4-0.1-0.7-0.5-0.7-1c0-0.1,0-0.2-0.1-0.1c-0.1,0-0.1,0-0.1,0
		c-0.2,0.2-0.4,0.5-0.4,0.9c0,0.1,0,0.2-0.1,0.2c0,0.1-0.1,0-0.2,0c-0.5-0.1-1.1,0.1-1.5,0.5c0,0.1,0,0.2,0,0.2
		c0.2,0.5,0.7,0.9,1.2,1c0,0,0.2,0,0.2,0c0,0.1,0,0.2,0,0.2c-0.1,0.4,0,0.7,0.1,1c0,0.1,0.1,0.1,0.2,0.1c0,0,0,0,0.1-0.1
		c0.2-0.6,1-0.8,1.5-0.6c0.5,0.2,0.8,0.8,0.7,1.3c-0.3,2.2-3.7,1.7-4.8-0.1c0.5-0.2,0.7-0.8,0.4-1.2s-0.8-0.7-1.2-0.4
		S80,91.6,80.2,92c0,0.1,0.1,0.2,0.2,0.2c-1.6,2-6.1,1.5-5.6-1.1c0.2-0.8,0.9-1.2,1.7-1.1c0.5,0.1,0.9,0.5,1,1
		c0,0.1,0.1,0.2,0.2,0.2c0,0,0.1,0,0.1-0.1c0.2-0.4,0.4-0.7,0.4-1.1c0-0.2,0-0.3,0.2-0.3c0.6,0,1.3-0.3,1.6-0.9c0.1,0,0.1-0.2,0-0.2
		c-0.3-0.5-1-0.9-1.6-0.9c-0.3,0-0.2-0.1-0.2-0.4c0-0.4-0.1-0.8-0.4-1.1c0-0.1-0.1-0.1-0.2,0c0,0-0.1,0-0.1,0.1
		c-0.2,0.8-1,1.2-1.7,1c-0.8-0.2-1.2-0.9-1-1.6c0.1-0.5,0.5-0.9,1-1c0.1,0,0.2-0.1,0.2-0.2c0,0,0-0.1-0.1-0.1
		c-0.2-0.2-0.5-0.2-0.8-0.3c-0.4,0-0.7-0.4-0.7-0.8C74.4,82.8,74.7,82.4,75.2,82.4z M74,87.2c0.6,0.2,1.1,0.6,1.2,1.2
		c0.1,0.8-0.4,1.4-1.2,1.5c-0.8,0.1-1.4-0.4-1.5-1.2v-0.4C72.6,87.7,73.3,87.2,74,87.2z M60.9,75.8c2-2.5,6.2-3.1,11.8-2
		c0,0.7-0.1,2.3-0.2,3.6c0,1.5-0.3,2.9-0.8,4.2c0,0,0,0.2,0,0.2c0,0.2,0.2,0.5,0.5,0.5h0c0.5-0.1,1,0.2,1,0.7v0.1
		c0,0.4-0.3,0.8-0.7,0.9c-0.3,0-0.6,0.1-0.8,0.3c-0.1,0-0.1,0.2,0,0.2c0,0,0,0.1,0.1,0.1c0.8,0.2,1.2,1,1,1.7
		c-0.2,0.7-0.9,1.2-1.6,1c-0.5-0.1-0.9-0.5-1-1c0-0.1-0.1-0.2-0.2-0.2c0,0-0.1,0.1-0.1,0.1c-0.2,0.3-0.4,0.7-0.4,1.1
		c0,0.2,0.1,0.4-0.2,0.4c-0.6,0-1.3,0.3-1.6,0.9c-0.1,0-0.1,0.2,0,0.2c0.3,0.5,1,0.9,1.6,0.9c0.3,0,0.2,0.1,0.2,0.3
		c0,0.4,0.1,0.8,0.4,1.1c0,0.1,0.1,0.1,0.2,0c0,0,0.1,0,0.1-0.1c0.2-0.8,1-1.1,1.7-1c0.5,0.2,0.9,0.6,1,1.1c0.5,2.6-4.1,3.1-5.6,1.1
		c0.4-0.3,0.4-1,0-1.3c-0.3-0.4-0.9-0.4-1.3,0c-0.3,0.3-0.3,1,0,1.3c0,0,0.2,0.2,0.2,0.2c-1,1.9-4.4,2.3-4.8,0.1
		c-0.2-0.6,0.2-1.2,0.8-1.3h0.1c0.5-0.1,1,0.2,1.2,0.7c0,0.1,0.1,0.1,0.2,0.1c0,0,0,0,0.1-0.1c0.2-0.3,0.2-0.7,0.1-1
		c0-0.1,0-0.2,0-0.2c0.1-0.1,0.1-0.1,0.2-0.1c0.5-0.1,1-0.4,1.3-1c0.1,0,0-0.1,0-0.2c-0.4-0.4-1-0.6-1.5-0.5c0,0-0.2,0-0.2,0
		c-0.1-0.1,0-0.2-0.1-0.2c0-0.4-0.2-0.7-0.5-0.9c0,0-0.2,0-0.2,0s0,0,0,0.1c0,0.7-0.6,1.1-1.2,1.1s-1.1-0.6-1.1-1.2
		c0-0.5,0.3-0.8,0.7-1c0.1-0.1,0.1-0.1,0.1-0.2c0,0,0-0.1-0.1-0.1c-0.2-0.1-0.4-0.2-0.7-0.2c-0.5,0-1-0.7-0.7-1
		c0.3-0.2,0.6-0.5,1-0.8c0.1,0,0.1-0.1,0-0.2C59.9,81.7,59,78.2,60.9,75.8z M59.2,89.8c0.3-0.5,1-0.8,1.6-0.5
		c0.1,0.1,0.2,0.1,0.2,0.2c0.5,0.5,0.5,1.2,0.1,1.7c-0.5,0.5-1.2,0.5-1.7,0.1C59,90.9,58.9,90.3,59.2,89.8z M45.5,89.2
		c0.2-0.3,0.3-0.7,0.5-1c0-0.1,0-0.2,0-0.2c-0.8-2.7-0.8-5,0.1-6.9c1.6-3.5,5.9-4.8,11.8-4.2c-1.3,2.8-0.5,6.3,0.9,9
		c0.1,0.2-0.2,0.5-0.5,0.6c-0.2,0.1-0.5,0.2-0.6,0.4c0,0,0,0.1,0,0.2s0,0.1,0.1,0.1c0.6,0,1.1,0.6,1,1.2c0,0.6-0.6,1.1-1.2,1
		c-0.5,0-0.8-0.3-1-0.7c0-0.1-0.1-0.1-0.2-0.1c0,0-0.1,0-0.1,0.1c-0.2,0.3-0.2,0.7-0.1,1c0,0.1,0,0.2,0,0.2s-0.1,0-0.2,0
		c-0.5,0.1-1,0.5-1.2,1c0,0.1,0,0.2,0.1,0.2c0.4,0.4,0.9,0.6,1.5,0.5c0,0,0.1,0,0.2,0c0.1,0,0,0.2,0.1,0.2c0,0.3,0.2,0.7,0.5,0.9
		c0,0,0.1,0,0.2,0c0-0.1,0-0.1,0-0.1c0-0.6,0.6-1.1,1.2-1c0.5,0,1,0.5,1,1c0.4,2.2-2.8,2.6-4.2,1.4c0-0.1,0.1-0.2,0.1-0.3
		c0-0.5-0.4-0.9-0.9-0.9c-0.5,0-0.9,0.4-0.9,0.9c0,0.3,0.2,0.7,0.5,0.8c-0.1,1-0.9,1.7-1.8,1.5c-1-0.1-1.7-0.9-1.5-1.8
		c0-0.1,0-0.2,0-0.3c0.4-0.2,0.8-0.1,1.1,0.1c0.1,0,0.2,0,0.2,0c0,0,0.1-0.1,0-0.2c0-0.2-0.1-0.3-0.2-0.5c0-0.1,0-0.2,0.1-0.2l0,0
		c0.5-0.1,1-0.5,1.1-1c0.1,0,0-0.1,0-0.1c-0.4-0.6-1.2-0.7-1.8-0.4c-0.1,0.1-0.2,0.1-0.2,0c0,0,0-0.1,0-0.2c0-0.2,0-0.5,0-0.8
		c0,0,0-0.1-0.1-0.2c-0.7-0.2-1.5,0-1.9,0.6c0,0.1-0.1,0.1-0.2,0c0,0,0-0.1,0-0.2c0-0.8-0.4-1.6-1-2.3c-0.1-0.1-0.3-0.3-0.5-0.2
		c-0.3,0.4-0.5,0.8-0.8,1.2c0,0.1-0.1,0.1-0.2,0c-0.2-0.1-0.5-0.2-0.8-0.3C45.5,89.5,45.4,89.4,45.5,89.2z"/>
	<rect x="113.5" y="171.1" class="st0" width="12.4" height="3.6"/>
	<path class="st0" d="M73.5,67.3c-0.7,0.2-1.2,0.7-1.3,1.4h1.3V67.3z"/>
	<path class="st0" d="M74.2,67.3v1.4h1.4C75.5,68,75,67.5,74.2,67.3z"/>
	<path class="st0" d="M18.7,137.5c0,0.1-0.1,0.2-0.2,0.3l-0.3,0.7v0c0.2,1.3,2.1,2.1,4.9,2.3v-5.1c-0.6,0-1.2,0-1.8-0.2
		C20.4,136,19.5,136.8,18.7,137.5z"/>
	<path class="st0" d="M125.5,177.8c-0.8-0.1-1.5-0.4-2.2-0.7c-1.2-0.5-2.5-0.8-3.9-0.8c-1.3,0-2.6,0.3-3.8,0.8
		c-0.8,0.3-1.5,0.5-2.2,0.7c-0.9,0.1-1.9,0-2.8-0.2c-0.2,0-0.5-0.1-0.8-0.1v1.2c0.2,0,0.4,0,0.5,0.1c1,0.2,2.2,0.4,3.2,0.2
		c0.9-0.2,1.7-0.4,2.5-0.8c1-0.5,2.2-0.8,3.3-0.8c1.2,0,2.4,0.2,3.5,0.8c0.8,0.3,1.6,0.5,2.5,0.8c0.3,0,0.7,0.1,1.1,0.1
		c0.7,0,1.4-0.1,2.1-0.2c0.2,0,0.4-0.1,0.6-0.1v-1.2c-0.3,0-0.5,0-0.8,0.1C127.3,177.8,126.5,177.9,125.5,177.8z"/>
	<path class="st0" d="M124.2,110.8c0.2,0,0.3-0.2,0.3-0.5h0c0-0.3-0.3-0.7-0.6-0.7h-8.5c-0.4,0-0.7,0.3-0.7,0.7
		c0,0.2,0.2,0.5,0.4,0.6c0.4,0.3,0.6,0.8,0.6,1.2c0,0.5-0.2,1-0.6,1.2c-0.2,0.2-0.4,0.4-0.4,0.7c0,0.4,0.2,0.8,0.7,0.8h8.5
		c0.4,0,0.6-0.3,0.6-0.8c0-0.3-0.1-0.5-0.3-0.7c-0.4-0.3-0.7-0.8-0.6-1.3C123.5,111.5,123.8,111,124.2,110.8z"/>
	<path class="st0" d="M123.6,126.2V116h-7.9v9.3c1.8,0,3.4,0.1,5,0.3v0C121.7,125.8,122.7,126,123.6,126.2z"/>
	<path class="st0" d="M125.5,180.6c-0.8-0.1-1.5-0.4-2.2-0.7c-1.2-0.6-2.5-0.8-3.9-0.9c-1.3,0-2.6,0.3-3.8,0.8
		c-0.8,0.3-1.5,0.6-2.2,0.7c-1,0.1-1.9,0-2.8-0.1c-0.2-0.1-0.5-0.1-0.8-0.1v1.2c0.2,0,0.4,0,0.5,0.1c1.1,0.2,2.2,0.3,3.2,0.1
		c0.9-0.1,1.7-0.4,2.5-0.8c1-0.5,2.2-0.8,3.3-0.8c1.2,0,2.4,0.2,3.5,0.8c0.8,0.3,1.6,0.5,2.5,0.8c0.3,0,0.7,0.1,1.1,0.1
		c0.7,0,1.4-0.1,2.1-0.2c0.2-0.1,0.4-0.1,0.6-0.1v-1.2c-0.3,0-0.5,0-0.8,0.2C127.3,180.7,126.5,180.8,125.5,180.6z"/>
	<path class="st0" d="M110.3,143.8c0.6,1.1,10.5,6.8,16.8,8.9c0-0.3-0.1-0.6-0.2-1c-0.4-1.5-0.8-3.2-1-4.1c-2.6-0.8-6-2.3-9.5-4.4
		c-2-1.2-4.4-2.8-5.5-3.9L110.3,143.8z"/>
	<path class="st0" d="M125.5,183.2c-0.8-0.2-1.5-0.4-2.2-0.7c-1.2-0.5-2.5-0.8-3.9-0.8c-1.3,0-2.6,0.3-3.8,0.8
		c-0.8,0.3-1.5,0.5-2.2,0.7c-1,0.1-1.9,0-2.8-0.2c-0.2,0-0.5-0.1-0.8-0.1v1.2c0.2,0,0.4,0,0.5,0.1c1.1,0.2,2.2,0.4,3.2,0.2
		c0.9-0.2,1.7-0.4,2.5-0.8c1-0.5,2.2-0.8,3.3-0.8c1.2,0,2.4,0.2,3.5,0.8c0.8,0.3,1.6,0.5,2.5,0.8c0.3,0,0.7,0.1,1.1,0.1
		c0.7,0,1.4-0.1,2.1-0.2c0.2,0,0.4-0.1,0.6-0.1V183c-0.3,0-0.5,0-0.8,0.1C127.3,183.3,126.5,183.3,125.5,183.2z"/>
	<path class="st0" d="M123.2,130c0.1-0.2,0.2-0.3,0.3-0.5c0-0.1,0-0.2,0-0.2c0-0.4-0.4-0.5-0.8-0.6h0l-0.3,1.3
		C122.7,130,123,130,123.2,130z"/>
	<polygon class="st0" points="127.7,131.2 126.7,131.9 127.6,132.3 	"/>
	<path class="st0" d="M123.6,145.7L123.6,145.7v-11.2c-1.4-0.5-2.9-0.9-4.5-1c-1-0.2-2.2-0.2-3.4-0.2v8.4c0.4,0.2,0.8,0.5,1.2,0.8
		C119.1,143.6,121.3,144.7,123.6,145.7z"/>
	<path class="st0" d="M119.2,132.4c4.6,0.5,9,2.5,10.6,4.6l0.3,0.5c0.9-2,1.9-4.4,2-4.7c0-0.5-0.1-0.9-0.4-1.2
		c-1.3-1.8-5.5-4-11.2-4.8c-1.8-0.2-3.7-0.4-5.5-0.4c-3.1,0-5.9,0.2-7.4,0.7v5.9c1.7-0.6,4.2-0.8,7.1-0.8
		C116.2,132.2,117.7,132.2,119.2,132.4z M128.2,130.2c0,0,0.2,0.1,0.2,0.2s0.1,0,0.2,0.1h0l-0.1,4.3l-0.1,0c-0.1-0.1-0.8-0.5-1-0.5
		h0v-0.1c0-0.4,0.1-0.8,0.1-1.2l-1.3-0.6c-0.1,0.1-0.2,0.1-0.3,0.2c-0.2,0.2-0.5,0.3-0.7,0.5l0,0l0,0c-0.1,0-0.5-0.2-0.5-0.3
		l-0.1-0.1L128.2,130.2L128.2,130.2z M123.4,128.2c0.3,0.1,0.7,0.2,1,0.4c0.3,0.2,0.5,0.6,0.4,1c-0.1,0.5-0.6,0.8-1.2,0.8
		c0.1,0.5,0.4,0.9,0.5,1.3c0,0.2,0.1,0.2,0.1,0.4l0.2,0.5l-0.2,0c-0.2,0-1-0.2-1.2-0.3h0l-0.5-1.4c0-0.1-0.1-0.2-0.2-0.4
		c0-0.1,0-0.2-0.1-0.2L122,132h0c-0.2,0-0.8-0.2-1-0.2h0l1-3.8L123.4,128.2z M117.2,127.8c0.1-0.1,0.1-0.3,0.1-0.4v-0.1l3.6,0.4v0.1
		c0,0.2,0,0.3,0,0.5v0.1h-0.2c-0.3,0-0.7-0.1-1.1-0.2l-0.4,3.4h0c-0.2,0-0.8-0.1-1-0.1h0l0.3-3.4c-0.4,0-0.8,0-1.1,0h-0.1
		L117.2,127.8z M113.2,127.7c-0.4,1.2-0.8,2.4-1.1,3.6v0.1H112c-0.2,0-0.3,0-0.5,0.1h0l0,0c-0.7-1-1.4-2.2-2.4-3.5l0-0.1h0.1
		c0.2,0,1-0.1,1.2-0.1h0v0c0.3,0.6,0.7,1.2,1.1,1.8c0.1,0.2,0.3,0.5,0.4,0.7c0.2-0.8,0.6-1.8,0.8-2.8v-0.1h0c0.2,0,0.4,0,0.6-0.1
		l0.1,0L113.2,127.7z M114.5,127.3L114.5,127.3c0.2,0,0.9,0.1,1,0h0.1l-0.1,3.4c0.6,0,1,0,1.5,0h0.1v0.1c0.1,0.1,0.1,0.2,0.1,0.4
		v0.1l-2.7,0L114.5,127.3z"/>
	<path class="st0" d="M119.5,94.2c0.2-0.1,0.5-0.1,0.7,0v-1.3h0.9v-0.7h-0.9V91h-0.7v1.1h-1v0.7h1V94.2z"/>
	<path class="st0" d="M113.1,99.8L113.1,99.8c0.1,0.1,0.1,0.1,0.1,0.2c0.6,0.9,1.5,2.3,2.7,4.2c0.2-0.2,0.5-0.2,0.8-0.4
		c-0.6-1.3-1.3-3.2-1.8-4.5c0,0,0,0,0-0.1c-0.1,0-0.2,0-0.4,0C113.8,99.2,113.4,99.5,113.1,99.8z"/>
	<path class="st0" d="M124,104.1c1.1-1.8,2-3.2,2.6-4.1c0,0,0-0.1,0.1-0.2c-0.3-0.4-0.8-0.7-1.3-0.7c-0.1,0-0.2,0-0.3,0
		c0,0,0,0,0,0.1c-0.5,1.3-1.2,3.1-1.8,4.5C123.5,103.8,123.7,104,124,104.1z"/>
	<path class="st0" d="M118.8,103.2v-5.5c-0.1-0.1-0.2-0.2-0.4-0.2c-0.1,0-0.2,0-0.4,0c-0.6,0-1.2,0.3-1.4,0.9c0,0.1,0.1,0.2,0.1,0.2
		c0.5,1.3,1.3,3.2,1.8,4.7H118.8z"/>
	<path class="st0" d="M128.9,137.6c-0.7-0.8-1.6-1.5-2.6-1.9c-0.6,0.1-1.2,0.1-1.8,0.1v5.1c2.9-0.2,4.7-1,4.9-2.2v-0.1L129,138
		C129,137.8,129,137.7,128.9,137.6z"/>
	<path class="st0" d="M123.2,98.5c-0.2-0.6-0.8-1-1.5-1c-0.1,0-0.2,0-0.4,0c-0.2,0-0.2,0.1-0.4,0.2v5.5c0.1,0,0.2,0,0.3,0
		c0.8-2,1.4-3.5,1.8-4.6C123.1,98.5,123.1,98.5,123.2,98.5z"/>
	<path class="st0" d="M114.8,105c0.2-0.1,0.2-0.2,0.4-0.3c0-0.1,0.1-0.1,0.2-0.1c-0.8-1.3-2-3.1-2.7-4.2c0,0,0-0.1,0-0.1l0,0
		c-0.6-1-0.6-2,0-2.6c0.3-0.4,0.8-0.6,1.4-0.5c0.2,0,0.4,0,0.5,0c0-0.2,0-0.5,0.1-0.8c-0.2,0-0.4,0-0.6,0c-0.8,0-1.4,0.3-1.9,0.8
		c-0.8,1-0.8,2.4,0,3.7C112.8,101.9,114,103.7,114.8,105z"/>
	<path class="st0" d="M125.8,97c0.5,0,1,0.2,1.4,0.5c0.5,0.7,0.5,1.7,0,2.6v0c0,0,0,0,0,0c-0.6,0.9-1.5,2.3-2.7,4.2
		c0,0,0.1,0,0.2,0.1c0.1,0.1,0.3,0.2,0.5,0.3c0.8-1.3,1.9-3,2.6-4.1c0.9-1.3,0.9-2.7,0.1-3.7c-0.5-0.5-1.2-0.8-2-0.8
		c-0.2,0-0.4,0-0.6,0c0.1,0.2,0.1,0.5,0.1,0.8C125.5,97.1,125.7,97,125.8,97z"/>
	<polygon class="st0" points="114.8,105 114.8,105 114.8,105 	"/>
	<path class="st0" d="M115,97.4v0.2c0.1,0.5,0.2,1,0.4,1.5l0,0c0.5,1.3,1.2,3.2,1.8,4.6c0.2-0.1,0.5-0.2,0.7-0.2
		c-0.5-1.4-1.3-3.2-1.8-4.6l-0.1-0.1c-0.2-0.5-0.3-1-0.3-1.4v-0.3c0-0.1,0-0.2,0-0.4v-0.2c0,0,0-0.1,0-0.1c0.2-0.7,0.8-1.2,1.5-1.1
		c0.6,0,1.2,0.2,1.7,0.6v-1c-0.5-0.3-1-0.5-1.7-0.5c-0.5,0-1,0.2-1.4,0.5c-0.4,0.3-0.7,0.7-0.8,1.1c0,0.1,0,0.1-0.1,0.1v0.2
		C115,96.8,114.9,97.1,115,97.4L115,97.4z"/>
	<path class="st0" d="M120.7,95.8L120.7,95.8c0.6-0.3,1.1-0.5,1.7-0.6c0.7,0,1.3,0.5,1.5,1.1c0,0,0,0.1,0,0.1v0.1
		c0,0.2,0.1,0.2,0.1,0.4v0.3c-0.1,0.5-0.2,1-0.4,1.4l-0.1,0.2c-0.5,1.4-1.2,3.2-1.8,4.5c0.2,0,0.5,0.2,0.8,0.2
		c0.5-1.3,1.3-3.2,1.8-4.5v-0.1c0.2-0.4,0.3-0.9,0.3-1.4v-0.3c0-0.3,0-0.6,0-0.9V96c0,0,0,0,0-0.1c-0.3-1-1.2-1.6-2.2-1.6
		c-0.6,0-1.2,0.2-1.7,0.5V95.8z"/>
	<path class="st0" d="M120.2,94.8c-0.1-0.2-0.4-0.3-0.6-0.2c-0.1,0.1-0.2,0.1-0.2,0.2v8.4h0.8V95C120.3,94.9,120.3,94.9,120.2,94.8z
		"/>
	<path class="st0" d="M29.1,103c0.1,0,0.2,0,0.2,0c0.2-0.8,0.6-1.6,0.7-2c0.5-1.5,1.4-2.9,2.5-4.1c0,0,0,0,0.1,0
		c0-1.2-1-2.2-2.2-2.2c-0.5,0-1,0.2-1.4,0.5V103z"/>
	<path class="st0" d="M24.2,107.5c0,0.1,0.2,0.1,0.2,0.1c0,0,0.1,0,0.2,0c1-0.5,2.2-0.8,3.3-0.8s2.3,0.3,3.3,0.8
		c0.2,0,0.3,0,0.4-0.1l1.3-2.2v0h0c-3-2.2-7.2-2.2-10.2,0.1L24.2,107.5z"/>
	<path class="st0" d="M20,100.5c0.8,1.5,1.6,2.8,2.5,4.2c0.5-0.4,1-0.7,1.5-0.9c-0.2-0.5-0.5-1.5-0.6-2c-0.4-1.2-1.2-2.8-2.5-3.9
		l-0.1-0.1C20,98.5,19.7,99.5,20,100.5L20,100.5z"/>
	<path class="st0" d="M28.3,95L28.3,95c0.1-0.2-0.1-0.5-0.4-0.5c-0.3,0-0.5,0.2-0.5,0.5v8c0.3,0,0.6,0,0.9,0V95z"/>
	<path class="st0" d="M124.2,105.1c0,0-0.1,0-0.2-0.1h0l-0.1,0l0-0.1l-0.1,0c-0.3-0.2-0.7-0.3-1.1-0.5h0c-0.1,0-0.1,0-0.1,0l-0.1,0
		c-0.3-0.1-0.6-0.2-0.9-0.2l-0.2-0.1h0c-0.1,0-0.3,0-0.6-0.1H119c-0.2,0-0.4,0-0.5,0.1h0l-0.2,0.1c-0.3,0-0.6,0.1-0.9,0.2l-0.2,0.1
		c-0.3,0.2-0.8,0.3-1.1,0.5l-0.3,0.2c-0.1,0-0.1,0-0.2,0.1c-0.1,0.1-0.3,0.2-0.5,0.3l1.4,2c0,0.1,0,0.1,0.1,0.1h0.1
		c0.2-0.2,0.4-0.2,0.7-0.4l0.2,0c0.8-0.3,1.7-0.5,2.5-0.5c0.8,0,1.6,0.2,2.3,0.5h0.1c0,0,0,0,0.1,0c0.2,0.1,0.5,0.2,0.8,0.3h0
		c0,0,0,0,0.1,0l1.4-2C124.6,105.3,124.3,105.2,124.2,105.1z"/>
	<path class="st0" d="M31.7,103.8c0.5,0.2,1,0.5,1.5,0.9c0.9-1.3,1.8-2.8,2.5-4.2v0c0.4-1,0-2-0.8-2.6l-0.1,0.1
		c-1.3,1-2.1,2.7-2.5,3.9C32.2,102.3,32,103.2,31.7,103.8z"/>
	<path class="st0" d="M30.1,103.2L30.1,103.2c0.3,0.1,0.6,0.2,0.9,0.3c0.3-1,0.5-1.6,0.7-1.9c0.4-1.5,1.3-3,2.5-4.1
		c-0.2-0.1-0.4-0.1-0.5-0.1h-0.2c-0.1,0-0.2,0.1-0.4,0.1c-1,1-1.8,2.3-2.3,3.8C30.7,101.7,30.4,102.5,30.1,103.2z"/>
	<path class="st0" d="M24.7,103.5c0.3-0.1,0.5-0.2,0.9-0.2c-0.2-0.8-0.5-1.5-0.7-1.9c-0.5-1.4-1.2-2.6-2.3-3.8c-0.1,0-0.2,0-0.4-0.1
		h-0.2c-0.2,0-0.3,0-0.5,0c1.1,1.2,2,2.5,2.5,4C24.2,102,24.5,102.8,24.7,103.5z"/>
	<path class="st0" d="M23.2,97c1.1,1.2,2,2.6,2.5,4.1c0.2,0.4,0.4,1.1,0.7,1.9v0.1c0,0,0.1,0,0.2-0.1v-7.8c-0.9-0.8-2.2-0.6-3,0.4
		C23.2,96,23.1,96.4,23.2,97C23.1,97.7,23.2,96.9,23.2,97z"/>
	<path class="st0" d="M27.5,93.9c0.3-0.1,0.5-0.1,0.8,0h0V93h1v-0.9h-1V91h-0.8v1.1h-1V93h1V93.9z"/>
</g>
</svg>
