<?xml version="1.0" encoding="utf-8"?>
<!-- Generator: Adobe Illustrator 27.2.0, SVG Export Plug-In . SVG Version: 6.00 Build 0)  -->
<svg version="1.1" id="Capa_1" xmlns="http://www.w3.org/2000/svg" xmlns:xlink="http://www.w3.org/1999/xlink" x="0px" y="0px"
	 viewBox="0 0 400 457.2" style="enable-background:new 0 0 400 457.2;" xml:space="preserve">
<style type="text/css">
	.st0{fill:#FFFFFF;}
</style>
<g>
	<path class="st0" d="M79.1,158.2c-0.1-0.2-0.3-0.4-0.4-0.5s-0.1-0.1-0.2-0.2c-0.1-0.1-0.1-0.1-0.2-0.2c-0.2-0.1-0.3-0.2-0.5-0.3
		c-0.1,0-0.1-0.1-0.2-0.1s-0.2-0.1-0.3-0.1c-0.4-0.1-0.9-0.1-1.3,0.1c-0.2,0.1-0.3,0.2-0.5,0.4c-0.3,0.2-0.5,0.5-0.7,0.9
		c-0.2,0.3-0.3,0.8-0.4,1.2c-0.3,1-0.3,2,0.1,2.3c0.4,0.2,5.6,1.1,5.7,0.9l0,0l0,0C80.6,162.4,79.8,159.2,79.1,158.2L79.1,158.2z"/>
	<path class="st0" d="M88,247.3c0.2,0,0.4,0.1,0.5,0.1c0.2,0,0.4,0.1,0.4,0.1c0.2,0,0.2-0.1,0.3-0.4l0,0l0,0c0.1-0.7,0-2-0.2-3.2
		c-0.1-0.8-0.3-1.5-0.5-2.1c0-0.1-0.1-0.2-0.1-0.3s-0.1-0.2-0.1-0.3l-0.1-0.1c-0.8-1.6-2-2.6-3.9-3.3c-0.2-0.1-0.4-0.1-0.5-0.2l0,0
		c-1.2-0.4-2.4-0.7-3.5-0.6c-0.1,0-0.1,0-0.2,0s-0.2,0-0.3,0c-0.9,0.1-1.7,0.4-2.2,0.9c-0.1,0-0.1,0.1-0.2,0.1
		c-1.1,1.1-1.4,2.4-1.2,5.3l0.1,1.9l6.2,1.2c1.9,0.4,3.7,0.7,4.9,0.9C87.6,247.2,87.8,247.3,88,247.3z"/>
	<path class="st0" d="M271.4,400.1l-19.7,6.9l-19.7,6.9l-0.1,21.6l-0.1,21.6H400l-0.1-21.7l-0.1-21.7l-19.6-6.9l-19.6-6.9l-0.1-171
		l-0.1-171l18.2-6.7c10-3.7,18.9-6.9,19.7-7.2l1.5-0.6V0h-168v43.7l19.9,7.3l19.9,7.3v130.4H128.8V58.1l0.8-0.3
		c0.4-0.2,9.3-3.4,19.6-7.2c10.4-3.8,18.9-6.9,19-6.9s0.1-9.8,0.1-21.9V0H0v21.9v21.9L0.8,44c0.4,0.2,9,3.3,19,6.9
		c10,3.7,18.5,6.8,19,6.9l0.8,0.3l-0.1,171l-0.1,171L19.7,407l-19.6,6.9L0,435.6l0,21.6h168.2l-0.1-21.6L168,414l-19.7-6.9
		l-19.7-6.9v-73.9v-73.9h142.8l-0.1,73.9L271.4,400.1z M66.4,235.9c0.1-0.7,0.2-1.3,0.3-2c0-0.1,0-0.2,0-0.3
		c1.7-10,7.5-13.9,16.9-11.5c3.5,1,6.9,2.8,9.3,5.1c0.6,0.6,1.1,1.1,1.5,1.6c1.9,2.4,3.2,5.3,4,8.7c0.7,3.7,0.9,8.7,0.8,16L99.1,264
		l-16.5-3.2c-9-1.8-16.5-3.2-16.5-3.2C66,257.5,66.2,238.3,66.4,235.9z M66.5,201.8C66.5,201.7,66.5,201.7,66.5,201.8
		c0.1,0,4.3,0.8,9.2,1.8c8.4,1.7,11.9,2.2,13.1,1c0.7-0.7,0.8-1.8,0.6-3.5c-0.2-3.2-0.2-3.2-12.9-5.8c-4.9-1-9.3-1.9-9.6-2l-0.6-0.1
		v-7.6l0,0c0-0.7,0-1.4,0-2.1c0-0.6,0-1.2,0-1.8s0-1.2,0-1.7c0-0.2,0-0.4,0-0.5c0-1,0.1-1.5,0.2-1.5c0.2,0,4.7,0.9,10.1,2
		c0.3,0.1,0.6,0.1,0.9,0.2c4.1,0.9,8.2,1.9,10.1,2.4c0.5,0.2,1,0.3,1.4,0.5c0.7,0.3,1.4,0.7,2,1c0.3,0.2,0.7,0.5,1,0.7
		c1.7,1.4,3.1,2.8,4.1,4.5c1.9,3.4,2.7,7.9,2.7,14.2l0,0c0,7-0.9,11.4-3.3,13.8c-0.2,0.2-0.3,0.3-0.5,0.5c-1.6,1.4-3.8,2-6.7,2
		c-2,0-18-3-21.5-4c-0.2-0.1-0.4-2.2-0.5-4.8c0-0.1,0-0.1,0-0.2c0-0.3,0-0.7,0-1.1c0-0.1,0-0.1,0-0.2c0-0.8,0-1.6-0.1-2.4V207
		c0-0.4,0-0.8,0-1.2c0-0.2,0-0.4,0-0.6C66.3,203.5,66.4,202,66.5,201.8z M67.2,107.7c5.2-1.2,10.5-2.4,15.7-3.7
		c7.8-1.8,15.7-3.6,15.9-3.6c0.5,0,0.5,0.5,0.5,7.5v7.6l-1.1,0.2c-0.8,0.1-1.6,0.2-2.4,0.3l-1.4,0.2l0,0v11l2.4,1.2l2.4,1.2v15.2
		V160l-5.1,2.1c-1.4,0.6-2.7,1.1-3.6,1.5s-1.5,0.7-1.4,0.7l0,0l0,0c0,0,0.2,0,0.4,0.1c0.3,0.1,0.7,0.1,1.1,0.2
		c0.5,0.1,1,0.2,1.6,0.3c2.9,0.6,6.8,1.4,7,1.4c0.1,0,0.1,3.4,0.1,7.5c0,3.9,0,5.8-0.1,6.7c0,0.2,0,0.3-0.1,0.4
		c0,0.1-0.1,0.2-0.1,0.2s0,0-0.1,0c0,0-0.1,0-0.2,0c-0.3-0.1-7.7-1.5-16.5-3.2l-16-3.1v-11.4c0-7.7,0.1-11.9,0.6-14.7
		c0.1-0.5,0.2-0.9,0.3-1.3c0.1-0.3,0.2-0.5,0.3-0.8c0.1-0.2,0.2-0.5,0.3-0.7c0.3-0.7,0.7-1.3,1.2-1.9c0.2-0.2,0.3-0.4,0.5-0.6
		c0.3-0.4,0.6-0.7,0.9-0.9c0.3-0.3,0.6-0.5,0.9-0.7c0.2-0.1,0.4-0.2,0.7-0.3c0.5-0.2,0.9-0.3,1.5-0.4s1.2-0.1,2-0.1
		c2.2,0,3.9,0.4,5.3,1.6c1.4,1.2,2.5,3,3.6,5.9c0.1,0.3,0.2,0.5,1.4,0.1c0.3-0.1,0.6-0.2,0.9-0.4s0.8-0.3,1.3-0.5s1.1-0.5,1.8-0.7
		c0.3-0.1,0.7-0.3,1.1-0.5c0.8-0.3,1.5-0.6,2.2-0.9c0.2-0.1,0.4-0.2,0.6-0.2c0.7-0.3,1.3-0.6,1.8-0.8c0.3-0.1,0.5-0.3,0.7-0.4
		c0.1-0.1,0.2-0.1,0.2-0.1c0.1-0.1,0.2-0.2,0.3-0.2l0.1-0.1c0.1-0.1,0-0.2-0.2-0.3c0,0-0.1-0.1-0.3-0.2s-0.3-0.2-0.6-0.4
		c-0.2-0.1-0.3-0.2-0.6-0.3c-0.4-0.3-0.9-0.6-1.5-0.9c-2.8-1.8-7.5-4.6-12.6-7.8L66,124.7v-8.5v-8.5L67.2,107.7z M84.5,308.2
		L84.5,308.2c1.1,0.3,2.2,0.8,3.2,1.4c5.4,3.4,9.6,10.4,11.1,18.1c0,0.3,0.1,0.5,0.1,0.8c0,0.1,0,0.1,0,0.2
		c0.7,4.6,0.4,9.3-1.1,13.6c-0.1,0.2-0.1,0.4-0.2,0.6c-0.1,0.3-0.2,0.5-0.3,0.8c-0.2,0.5-0.4,0.9-0.6,1.4c-0.2,0.4-0.4,0.7-0.6,1.1
		c-0.1,0.2-0.2,0.3-0.3,0.5c-0.1,0.2-0.2,0.3-0.3,0.5c-0.1,0.2-0.3,0.4-0.4,0.6c-0.1,0.1-0.1,0.2-0.2,0.3c-0.2,0.2-0.3,0.4-0.5,0.6
		l-0.1,0.1c-1.9,2.2-4.3,3.6-6.9,4.1h-0.1c-0.2,0-0.5,0.1-0.7,0.1c-0.1,0-0.2,0-0.3,0c-0.2,0-0.4,0-0.6,0c-0.3,0-0.5,0-0.8,0h-0.1
		c-4-0.1-8.1-2.1-11.5-6l-0.1-0.1c-0.2-0.3-0.5-0.6-0.7-0.8c-0.1-0.1-0.1-0.1-0.2-0.2c-0.2-0.3-0.4-0.6-0.6-0.9
		c0-0.1-0.1-0.1-0.1-0.2c-0.2-0.3-0.5-0.7-0.7-1c0,0,0-0.1-0.1-0.1c-0.7-1.2-1.4-2.5-2-3.8c-0.5-1.1-0.8-2.1-1.2-3.2v-0.1
		c-0.1-0.2-0.1-0.3-0.1-0.5c-1.9-6.6-1.5-13.7,0.7-19.2C71.3,310,77.2,305.9,84.5,308.2z M99.3,370.4c0,0.3,0,0.6,0,0.9s0,0.5,0,0.7
		c0,0.1,0,0.2,0,0.2c0,0.1,0,0.2,0,0.3l0,0c-0.1,0-2.3-0.4-4.9-1l0,0c-2.7-0.5-5.3-1.1-5.9-1.2l0,0l-1.1-0.2v9.3l5.9,1.1l5.9,1.1
		l0.1,7.2c0,1,0,1.8,0,2.6c0,0.5,0,1,0,1.4s0,0.8,0,1.1c0,1.5-0.1,2.1-0.2,2.1s-3-0.6-7.3-1.4c-0.6-0.1-1.3-0.3-2-0.4
		c-2.1-0.4-4.5-0.9-7-1.4s-4.8-0.9-6.9-1.4c-0.7-0.1-1.4-0.3-2-0.4c-1.3-0.3-2.4-0.5-3.4-0.7c-0.7-0.1-1.2-0.2-1.7-0.3
		c-0.5-0.1-0.9-0.2-1.2-0.2c-0.5-0.1-0.7-0.1-0.8-0.1v-0.1c0-0.2,0-0.6,0-1.1c0-0.3,0-0.6,0-0.9s0-0.7,0-1.1l0,0c0-0.4,0-0.8,0-1.2
		l0,0c0-0.4,0-0.9,0-1.4s0-1,0-1.5c0-2.1,0-3.6,0-4.7c0-1.2,0.1-1.8,0.1-2.1c0.1-0.3,0.2-0.4,0.3-0.3c1,0.3,9.5,1.9,10.1,1.9
		c0.3,0,0.4,0,0.5-0.7c0-0.2,0-0.5,0.1-0.9c0-0.3,0-0.6,0-1s0-0.8,0-1.3c0-0.2,0-0.5,0-0.8v-4.6l0,0l-1.4-0.3
		c-0.7-0.2-3.3-0.6-5.6-1.1l-4.2-0.8v-7.2c0-4,0.1-7.2,0.2-7.2s7.4,1.4,16.2,3.1c0.7,0.1,1.3,0.3,2,0.4c0.3,0.1,0.6,0.1,0.9,0.2
		c1.4,0.3,2.8,0.5,4.1,0.8c0.7,0.1,1.4,0.3,2,0.4c0.9,0.2,1.7,0.3,2.4,0.5c3,0.6,4.8,0.9,4.9,0.9c0,0,0.1,0.1,0.1,0.3
		c0,0.2,0,0.6,0.1,1c0.1,1.3,0.1,3.5,0.1,5.9c0,1.5,0,2.9,0,4.1C99.3,369.7,99.3,370.1,99.3,370.4z M90.6,286.8
		c-4.8,2.4-8.7,4.4-8.7,4.5l0,0l0,0l0,0c0.1,0.1,3.1,0.7,6.9,1.4c0.6,0.1,1.1,0.2,1.7,0.3l8.7,1.6l0.1,7.4l0.1,7.4l-0.6-0.1
		c-0.2,0-1.4-0.3-3.3-0.6c-0.9-0.2-2-0.4-3.3-0.6s-2.6-0.5-4-0.7c-0.9-0.2-1.9-0.3-2.9-0.5c-2.4-0.4-5-0.9-7.3-1.3
		c-1-0.2-1.9-0.3-2.8-0.5c-0.4-0.1-0.9-0.2-1.3-0.2c-1.7-0.3-3.2-0.6-4.4-0.8c-1.8-0.3-2.9-0.5-3-0.5l0,0c0-0.1,0-0.2,0-0.3
		c-0.1-1-0.1-4.1-0.1-7.6v-8l7.9-4c6.5-3.3,7.8-4,7.2-4.1c-0.3-0.1-2.1-0.4-4.4-0.8c-0.4-0.1-0.8-0.2-1.3-0.2
		c-1.5-0.3-3.2-0.6-4.6-0.9c-0.4-0.1-0.8-0.1-1.2-0.2c-0.2,0-0.4-0.1-0.6-0.1c-0.5-0.1-1-0.2-1.4-0.3c-0.8-0.1-1.4-0.2-1.4-0.2
		s0-0.1-0.1-0.3c0-0.1,0-0.2,0-0.2c0-0.2,0-0.4,0-0.7c0-0.5,0-1.1,0-1.8c0-0.5,0-1,0-1.5c0-0.8,0-1.7,0-2.7l0,0
		c0-5.6,0.1-7.3,0.4-7.3c0.2,0,7.6,1.3,16.4,3l0,0l16,2.9l0.1,7.3l0.1,7.3L90.6,286.8z M97.3,96.9c-1.4,3.8-1,3.7-5.8,0.3
		c-1.1-0.8-2.2-1.6-3-2.1c-0.3-0.2-0.6-0.4-0.8-0.6c-0.2-0.2-0.4-0.3-0.5-0.4S87.1,94,87.1,94c-0.1-0.1,0-0.2,0.1-0.5
		c0.1-0.2,0.2-0.4,0.3-0.7c0.2-0.4,0.4-0.9,0.7-1.5c1.5-2.8,2.3-5.2,2.5-7.1c0-0.5,0-0.9,0-1.3c-0.1-0.6-0.2-1.1-0.5-1.5
		c-0.2-0.3-0.4-0.5-0.6-0.7c-0.1-0.1-0.3-0.2-0.4-0.3c-0.1-0.1-0.3-0.1-0.4-0.2c-0.1,0-0.2-0.1-0.3-0.1c-0.1,0-0.3,0-0.4,0.1
		s-0.2,0.2-0.4,0.3c-0.1,0.1-0.1,0.2-0.2,0.3c-0.1,0.2-0.2,0.4-0.3,0.7s-0.2,0.6-0.3,1c-0.1,0.4-0.2,0.8-0.3,1.4
		c-0.1,0.5-0.2,1.1-0.4,1.7c-1.7,8.6-6.2,11.9-11.9,8.8c-2.1-1.2-3.9-3.4-5.3-6.2c-0.3-0.6-0.6-1.3-0.9-2c-0.8-2-1.4-4.3-1.8-6.6
		c-0.1-0.8-0.2-1.6-0.3-2.4c0-0.4-0.1-0.8-0.1-1.2c-0.1-1.2-0.1-2.4-0.1-3.6c0-0.4,0-0.8,0.1-1.2c0.1-0.8,0.1-1.6,0.2-2.3
		c0.3-2.3,0.9-4.5,1.8-6.4c0.2-0.5,0.5-0.9,0.7-1.2c0.2-0.2,0.5-0.1,0.9,0.1c0.7,0.5,1.8,1.4,3.1,2.4l0.1,0.1l0,0
		c1.9,1.6,3.6,3,3.7,3.1c0,0,0,0.2,0,0.4c0,0.1,0,0.2-0.1,0.2c-0.1,0.2-0.1,0.4-0.2,0.6s-0.2,0.5-0.3,0.7c-2.1,4.2-2.3,9.5-0.3,10.6
		c0.9,0.5,1.5-0.4,2-2.8c2.2-12.9,8.9-16.5,16.4-8.9C99.9,74.2,101.4,86.4,97.3,96.9z M300.3,157.1l9.2-0.1l0,0l0,0l2.8-7.8
		c1-2.9,2-5.7,2.7-7.5c0.5-1.3,0.8-2.2,1-2.6c0.2-0.4,0.3-0.7,0.3-0.7l0,0c0,0,1.6,4.2,3.5,9.3l0,0l3.4,9.3l9.3,0.1l9.3,0.1
		l-6.7,4.8c-3.7,2.7-7.2,5.2-7.8,5.7l-1.1,0.8l0,0l3.1,9.2c1.7,5.1,3.1,9.2,3,9.3c-0.1,0-3.8-2.6-8.3-5.9l-8.2-6l-7.7,5.6
		c-4.2,3.1-7.8,5.6-7.9,5.6l0,0c0,0,0,0,0-0.1s0-0.1,0.1-0.2c0-0.1,0-0.1,0.1-0.2c0.1-0.2,0.1-0.4,0.2-0.7c0-0.1,0.1-0.3,0.1-0.5
		c0.1-0.2,0.1-0.5,0.2-0.7c0.1-0.3,0.2-0.7,0.3-1c0.2-0.7,0.5-1.6,0.8-2.5c0.1-0.2,0.1-0.4,0.2-0.6c0.1-0.4,0.3-0.7,0.4-1.1
		c0.1-0.4,0.3-0.8,0.4-1.2c0.7-2.1,1.4-4.1,1.9-5.7c0.2-0.5,0.3-1,0.5-1.4c0.1-0.4,0.2-0.7,0.3-0.9c0-0.1,0.1-0.2,0.1-0.3
		c0.1-0.3,0.1-0.5,0.2-0.6c0,0,0,0,0-0.1v-0.1c0-0.1-3.4-2.7-7.5-5.7l-7.4-5.5L300.3,157.1z M309.5,222.9L309.5,222.9L309.5,222.9
		l0.9-2.4l3.4-9.3l0,0c1.4-3.8,2.5-6.9,2.6-6.9c0,0,1.6,4.2,3.4,9.3l0,0l3.4,9.2l9.4,0.1l9.4,0.1l-7.8,5.7l-3,2.2l-4.8,3.5l3.1,9.4
		c1.7,5.1,3.1,9.4,3.1,9.4s-3.7-2.6-8.2-5.9c-4.5-3.3-8.3-6-8.4-6c0,0,0,0-0.1,0s-0.2,0.1-0.4,0.2l0,0c-0.2,0.1-0.4,0.2-0.6,0.4
		c-0.1,0.1-0.3,0.2-0.4,0.3c-0.1,0-0.1,0.1-0.2,0.1c-0.5,0.3-1,0.7-1.7,1.2c-0.6,0.4-1.2,0.8-1.9,1.3c-0.9,0.6-1.8,1.3-2.7,2
		c-2.2,1.6-4.1,3-5.5,4c-1.3,1-2.2,1.5-2.2,1.5s1.2-3.8,2.8-8.3s2.9-8.6,3-8.9c0.2-0.6-0.7-1.3-7.4-6.4l-7.6-5.7h18.4V222.9z
		 M300.3,318.1C300.3,318.1,300.3,318.2,300.3,318.1c-0.1,0.1,1.2-3.9,2.8-8.8v-0.1c1.4-4.1,2.6-7.6,2.9-8.6
		c0.1-0.2,0.1-0.3,0.1-0.3c0-0.1-3.4-2.7-7.4-5.7l-7.4-5.5l9-0.1c7.4-0.1,8.8-0.1,9.2-0.4c0.1,0,0.1-0.1,0.1-0.2
		c0,0,0.1-0.2,0.2-0.4c0.4-1.1,1.7-4.6,3.1-8.6c1.7-4.6,3.1-8.6,3.2-8.8l0,0c0-0.1,0.1-0.1,0.1-0.2c0.2-0.3,0.6,0.8,3.6,9l0,0
		c1.7,4.6,3.2,8.7,3.3,8.9c0.3,0.5,0.9,0.5,9.4,0.6l9.2,0.1l-7.5,5.4c-0.1,0.1-0.1,0.1-0.2,0.2c-0.4,0.3-0.9,0.6-1.3,0.9
		c-1.1,0.8-2.2,1.6-3.1,2.2c-0.7,0.5-1.3,0.9-1.8,1.3c-0.2,0.2-0.5,0.3-0.6,0.5l-0.1,0.1c-0.2,0.1-0.4,0.3-0.5,0.3
		c-0.1,0.1-0.1,0.1-0.1,0.1l0,0c-0.1,0.1,1.2,4.3,2.9,9.4c0.1,0.2,0.1,0.4,0.2,0.6c0.9,2.7,1.7,5.2,2.2,6.7c0.1,0.2,0.1,0.4,0.2,0.6
		c0.3,0.8,0.4,1.3,0.4,1.3s-3.7-2.6-8.2-5.9s-8.2-6-8.3-6c-0.1,0-3.6,2.5-7.8,5.6c-0.1,0.1-0.2,0.2-0.3,0.2
		C304,315.5,300.9,317.8,300.3,318.1z M333,361.3c-0.4,0.3-0.9,0.6-1.3,0.9s-0.8,0.6-1.2,0.9c-0.8,0.5-1.4,1-2,1.4
		c-0.7,0.5-1.1,0.8-1.3,1l-1.1,0.8l3.1,9.2c0.1,0.3,0.2,0.6,0.3,0.9c0.2,0.6,0.4,1.2,0.6,1.8c0.1,0.2,0.2,0.5,0.2,0.7
		c1.1,3.3,1.9,5.7,1.9,5.9l0,0c0,0-2.6-1.8-6.1-4.3c-0.3-0.2-0.7-0.5-1-0.7c-0.4-0.3-0.8-0.6-1.2-0.9l-3.5-2.5l-4.7-3.5l-7.7,5.6
		c-4.2,3.1-7.8,5.6-7.8,5.6l0,0V384c0-0.1,0-0.1,0.1-0.2c0-0.1,0.1-0.3,0.1-0.5c0.4-1.3,1.3-4,2.3-7.2c0.1-0.3,0.2-0.6,0.3-0.9
		c1.1-3.3,2.1-6.3,2.6-7.8c0-0.1,0-0.1,0-0.2c0-0.2,0.1-0.3,0.1-0.4c0.1-0.2,0.1-0.3,0.1-0.4s0-0.2,0-0.2c-0.1,0-2.8-2.1-6.3-4.7
		c-0.2-0.2-0.5-0.4-0.7-0.5s-0.4-0.3-0.6-0.4l-7.4-5.5l9.2-0.1l9.2-0.1l2.8-7.8c1-2.7,1.9-5.3,2.6-7.1c0.6-1.7,1-2.6,1.2-3.1
		c0.2-0.3,0.3-0.4,0.4-0.3c0,0,0.1,0.2,0.1,0.4c0,0.1,0.1,0.2,0.1,0.4c0,0.1,0.1,0.2,0.1,0.3c0.1,0.2,0.1,0.4,0.2,0.6
		c0.1,0.3,0.2,0.6,0.4,1c0.1,0.4,0.3,0.8,0.5,1.2c0.6,1.6,1.3,3.5,2,5.5l0,0l0,0l3.2,8.9l9.3,0.1l9.3,0.1l-6.7,4.8
		C334.4,360.3,333.7,360.8,333,361.3z M300.3,91.3c1.1,0,2,0,2.8,0c0.4,0,0.8,0,1.2,0c0.4,0,0.7,0,1,0c0.6,0,1.2,0,1.6,0
		c0.2,0,0.4,0,0.6,0c1.3-0.1,1.7-0.1,1.9-0.3c0.1-0.1,0.1-0.1,0.2-0.2c0.2-0.3,1.6-4.3,3.3-8.9c0.2-0.6,0.4-1.1,0.6-1.7
		c1.4-3.9,2.5-6.9,2.6-7.1c0.1-0.3,0.2-0.4,0.5,0.3c0.2,0.4,0.5,1.1,0.9,2.2c0.3,0.7,0.6,1.5,1,2.6c0.4,1,0.8,2.3,1.4,3.8
		c0.3,0.8,0.6,1.6,0.8,2.3c0.1,0.1,0.1,0.3,0.2,0.4c0.4,1.1,0.8,2.2,1.1,3.1c0.1,0.3,0.2,0.6,0.3,0.8c0.1,0.4,0.3,0.7,0.4,1
		s0.2,0.5,0.3,0.7c0.1,0.3,0.2,0.5,0.2,0.5s0,0.1,0.1,0.1c0,0.1,0.1,0.1,0.2,0.1c0.2,0.1,0.6,0.2,1.5,0.2c0.5,0,1.1,0.1,1.9,0.1
		c0.5,0,1.2,0,1.9,0c0.3,0,0.6,0,0.9,0c0.9,0,1.9,0,3.1,0l9.2,0.1l-7.7,5.6c-1.1,0.8-2.2,1.6-3.1,2.2c-0.3,0.2-0.6,0.4-0.9,0.6
		c-0.7,0.5-1.2,0.9-1.7,1.3s-0.9,0.7-1.2,1c-0.1,0.1-0.2,0.2-0.3,0.3c-0.3,0.3-0.4,0.4-0.4,0.5s0,0.1,0.1,0.2
		c0.2,0.6,0.6,1.8,1.2,3.4c0.2,0.4,0.3,0.9,0.5,1.4c0.1,0.2,0.2,0.5,0.3,0.8c0.2,0.5,0.3,1,0.5,1.6c0.2,0.5,0.4,1.1,0.5,1.6
		c0.1,0.3,0.2,0.5,0.3,0.8c0.3,0.8,0.5,1.6,0.8,2.4c0.2,0.5,0.3,1,0.5,1.5s0.3,0.9,0.4,1.4c0.3,0.9,0.5,1.6,0.7,2.1
		c0,0.1,0.1,0.3,0.1,0.4c0.1,0.2,0.1,0.4,0.2,0.5c0,0.1,0.1,0.2,0.1,0.2s0,0-0.1,0s-0.2-0.1-0.3-0.2s-0.4-0.3-0.6-0.4
		s-0.4-0.3-0.6-0.4c-0.2-0.2-0.5-0.3-0.7-0.5c-0.1-0.1-0.2-0.1-0.3-0.2c-0.3-0.2-0.6-0.4-0.9-0.6c-0.1-0.1-0.2-0.2-0.4-0.3
		c-1.3-0.9-2.8-2-4.4-3.2c-1.1-0.8-2.2-1.6-3.2-2.3c-1.5-1.1-2.7-2-3.6-2.6s-1.4-1-1.5-1l0,0c0,0,0,0-0.1,0
		c-0.5,0.3-3.8,2.7-7.8,5.5c-0.5,0.4-1,0.8-1.5,1.1c-0.3,0.2-0.5,0.4-0.7,0.5c-0.5,0.3-0.9,0.7-1.4,1c-0.9,0.6-1.7,1.2-2.3,1.6
		c-0.5,0.3-0.9,0.6-1.2,0.8c-0.2,0.1-0.4,0.3-0.5,0.3c-0.1,0.1-0.2,0.1-0.2,0.1l0,0v-0.1c0.2-0.8,1.4-4.4,2.9-8.7
		c0.2-0.6,0.4-1.2,0.6-1.8c0.3-0.9,0.6-1.7,0.8-2.4c0.1-0.3,0.2-0.7,0.3-1c0.7-2.2,1.2-3.7,1.2-3.8c0,0-0.5-0.4-1.3-1
		c-0.3-0.2-0.6-0.4-0.9-0.7c-0.7-0.5-1.5-1.1-2.4-1.8c-0.9-0.7-1.9-1.4-2.9-2.2l-7.4-5.5L300.3,91.3z"/>
	<path class="st0" d="M77.1,330.1c0.1,0.5,0.2,0.9,0.3,1.4c0.1,0.2,0.1,0.5,0.2,0.7c0.2,0.5,0.3,0.9,0.6,1.3
		c0.2,0.4,0.4,0.8,0.7,1.2s0.5,0.8,0.8,1.1c0.1,0.2,0.3,0.3,0.5,0.5c0.4,0.4,0.8,0.7,1.2,1c0.4,0.3,0.9,0.5,1.4,0.6
		c1,0.2,2,0.2,3-0.3c0.3-0.1,0.5-0.3,0.7-0.4c0.1-0.1,0.2-0.1,0.2-0.2c0.1-0.1,0.3-0.2,0.4-0.4c0.1-0.1,0.1-0.2,0.2-0.3
		c0.1-0.2,0.2-0.3,0.3-0.5c0-0.1,0.1-0.1,0.1-0.2c1.2-2.2,1-5.6-0.2-8.4c-0.8-1.8-2.1-3.4-3.9-4.2c-0.3-0.1-0.6-0.2-0.9-0.3h-0.1
		c-0.2-0.1-0.5-0.1-0.7-0.1c-0.1,0-0.1,0-0.2,0c-0.2,0-0.3,0-0.5,0c-0.1,0-0.1,0-0.2,0c-0.2,0-0.4,0.1-0.6,0.1c-0.1,0-0.1,0-0.2,0.1
		c-0.2,0.1-0.4,0.2-0.6,0.3c-0.4,0.2-0.7,0.5-1,0.8c-0.5,0.5-0.8,1-1.1,1.6c-0.1,0.2-0.2,0.4-0.2,0.6c-0.2,0.6-0.3,1.3-0.4,2
		c0,0.2,0,0.5,0,0.7s0,0.5,0,0.7C77,329.6,77,329.9,77.1,330.1z"/>
	<path class="st0" d="M86.3,123.2c0,0,0.1-0.6,0.1-1.4c0-0.5,0-1.1,0-1.7l-0.1-3l-4.9,0.6c-2.7,0.3-4.9,0.6-4.9,0.7l0,0
		C76.4,118.6,86.2,123.4,86.3,123.2z"/>
</g>
</svg>
