<?xml version="1.0" encoding="utf-8"?>
<!-- Generator: Adobe Illustrator 27.2.0, SVG Export Plug-In . SVG Version: 6.00 Build 0)  -->
<svg version="1.1" id="Capa_1" xmlns="http://www.w3.org/2000/svg" xmlns:xlink="http://www.w3.org/1999/xlink" x="0px" y="0px"
	 viewBox="0 0 633.8 501.2" style="enable-background:new 0 0 633.8 501.2;" xml:space="preserve">
<style type="text/css">
	.st0{fill:#FFFFFF;}
</style>
<g>
	<path class="st0" d="M121,440h16.5v45h28.8v14.4H121V440z M173.6,440h16.5v59.4h-16.5V440z M199,469.9v-0.2
		c0-17.3,13.6-30.9,32-30.9c10.4,0,17.8,3.2,24.1,8.7l-9.7,11.6c-4.2-3.6-8.5-5.6-14.3-5.6c-8.6,0-15.2,7.2-15.2,16.3v0.2
		c0,9.6,6.7,16.5,16.1,16.5c4,0,7-0.8,9.5-2.5v-7.2h-11.7v-12.1h27.3v26.7c-6.3,5.2-15,9.2-25.8,9.2
		C212.8,500.6,199,487.9,199,469.9 M301.2,476l-6.6-16.9l-6.7,16.9H301.2z M286.8,439.6h15.9l25.3,59.8h-17.6l-4.3-10.6H283
		l-4.2,10.6h-17.3L286.8,439.6z"/>
	<path class="st0" d="M429.2,499.4h-18.5v-34.8l-16.1,20.2H393l-16.2-20.3v34.8h-17.9v-60h16.7l18.2,22.8l18.8-22.8h16.6V499.4z
		 M512.2,499.5h-23.4l-14.5-17.5l-14.1,17.5h-22.8l25.3-31.1l-23.8-29h22.8l12.7,16.1l12.1-16.1h23L486,468.2L512.2,499.5z"/>
	<path class="st0" d="M523.6,445.3v3.4h2.2c1,0,1.6-0.1,2.1-0.4c0.4-0.3,0.7-0.7,0.7-1.3c0-0.6-0.2-1.1-0.6-1.3
		c-0.4-0.3-1.2-0.4-2.2-0.4H523.6z M523.6,455.1h-1.8v-11.3h3.9c1.4,0,2.4,0.1,2.9,0.3c0.6,0.2,1,0.6,1.4,1.1
		c0.3,0.5,0.5,1.1,0.5,1.6c0,0.9-0.3,1.6-0.9,2.2c-0.6,0.6-1.4,0.9-2.3,1c0.4,0.2,0.8,0.5,1.2,0.9s0.8,1.1,1.4,2l1.4,2.2h-2.2
		l-1-1.8c-0.7-1.3-1.3-2.1-1.7-2.5c-0.4-0.4-1-0.6-1.7-0.6h-1.1L523.6,455.1z M526,440.7c-2.4,0-4.5,0.9-6.2,2.6
		c-1.7,1.7-2.6,3.8-2.6,6.2c0,2.4,0.9,4.5,2.6,6.2c1.7,1.7,3.8,2.5,6.2,2.5c2.4,0,4.5-0.8,6.2-2.6c1.7-1.7,2.6-3.8,2.6-6.2
		c0-2.4-0.9-4.5-2.6-6.2S528.4,440.7,526,440.7 M526,439c1.9,0,3.6,0.5,5.2,1.4c1.6,0.9,2.9,2.2,3.9,3.8c0.9,1.6,1.4,3.4,1.4,5.2
		c0,1.9-0.5,3.6-1.4,5.2c-0.9,1.6-2.2,2.9-3.8,3.8c-1.6,0.9-3.4,1.4-5.3,1.4c-1.9,0-3.7-0.5-5.3-1.4c-1.6-0.9-2.9-2.2-3.8-3.8
		c-0.9-1.6-1.4-3.4-1.4-5.2c0-1.9,0.5-3.6,1.4-5.2c0.9-1.6,2.2-2.9,3.8-3.8C522.3,439.4,524.2,438.9,526,439"/>
	<path class="st0" d="M64,167.8c28.4-47.1,56.1-78.1,64.4-89.2c8.3-11.1,16.5-39.5,1.1-53.8c-5.9-5.5-12.7-7.4-19.4-7.4
		c-10.7,0-21,5.1-26.5,8.5c-9,5.6-19.9,18.1-38,43.8C27.4,95.3,6.5,139.4,2,171.5s-1.5,52.3,7.6,89.2c9.1,36.9,29.5,71.2,29.5,71.2
		c-1.1-2.5-10.5-34.4-9.5-54.3C30.7,257.6,35.6,214.9,64,167.8"/>
	<path class="st0" d="M100.4,341.8c2.6-5.5,4.5-16.6,25.9-56.6c21.4-40,59.2-84.3,71.2-100.5c12-16.2,13.3-47.8-10-68.6
		c-11.5-10.3-24.4-13.3-35.4-13.3c-11.3,0-20.7,3.2-24.3,5.1c-16.6,8.3-25.4,19.7-51,60.4C51,209.1,39.3,252.6,37.2,268.6
		c-1.9,14.5-1.6,33,12,54.8c14.1,22.4,30.5,27.3,36.7,27.4C92.2,350.8,97.8,347.3,100.4,341.8"/>
	<path class="st0" d="M624.2,260.7c9.1-36.9,12.1-57.2,7.6-89.2c-4.5-32-25.4-76.1-43.5-101.8c-18.1-25.7-29-38.2-38-43.8
		c-5.6-3.4-15.9-8.5-26.6-8.5c-6.6,0-13.4,1.9-19.4,7.4c-15.5,14.3-7.2,42.8,1.1,53.8c8.3,11.1,36,42,64.4,89.2
		c28.4,47.1,33.3,89.8,34.3,109.7c1,20-8.4,51.8-9.5,54.3C594.6,331.9,615.1,297.6,624.2,260.7"/>
	<path class="st0" d="M584.6,323.4c13.7-21.8,13.9-40.3,12-54.8c-2.1-16-13.8-59.6-39.5-100.3c-25.7-40.7-34.5-52.1-51-60.4
		c-3.7-1.9-13-5.1-24.4-5.1c-11,0-23.9,3-35.4,13.3c-23.3,20.8-22,52.4-10,68.6c12,16.2,49.8,60.5,71.2,100.5s23.3,51.1,25.9,56.6
		c2.6,5.5,8.2,9,14.4,9C554.1,350.7,570.5,345.8,584.6,323.4"/>
	<path class="st0" d="M502.9,304.8L502.9,304.8c-10.8-24.5-24.7-45.8-38.9-66.6c-19.4-28.3-39-54-60-80.9c21-29.2,43-59.9,61.8-92.5
		c2.7-4.7,6.1-9.4,7.6-14.2c2.8-8.8-1.5-17.4-5.8-22.5c-4.8-5.7-10.8-9.9-16.9-13.4C434,5.1,408.1-3.2,385,2.4
		c-6,1.5-10.8,4-15.2,7.4c-18,13.8-34.7,29.5-50.7,45.4c6,6,12,12.1,17.9,18.1l0.1,0.1c15.5,15.8,30.7,33.1,43.5,47.9
		c7.5,8.7,14.5,17.6,17.3,30.2c3,13.8-3.2,25.5-10.5,36.1c-21.3,31.1-44.7,61.1-68.5,90.4c16.6,20.4,33.5,40.5,50.5,60.6
		c10.4,12.3,20.8,24.6,31.3,36.9c3.5,4.1,7,9.4,10.6,12c8.5,6.2,22.9,7.2,34.1,6c12.8-1.3,23.4-5.5,31.7-10.6
		c8.4-5.2,16.1-12.3,22.1-20.5c5.8-7.9,10.9-17.9,11.6-30.7C511.3,323.2,505.9,311.4,502.9,304.8z"/>
	<path class="st0" d="M392,153c-2.5-11.3-8.7-19.2-16-27.6c-12.7-14.8-27.8-31.9-43.2-47.6l-0.1-0.1c-22.1-22.5-45-45.9-70.4-65.4
		c-4.5-3.4-9-5.6-14.1-6.9c-5-1.2-10.1-1.7-15.2-1.7c-17.8,0-35.8,6.4-48.4,13.7c-6.9,4-12,8-16.1,12.8c-2,2.3-8.1,10.6-5.3,19.6
		c1,3.3,3.2,6.7,5.2,10.1c0.7,1.2,1.5,2.4,2.2,3.6c19,32.8,41.6,64.4,61.6,92.2c0.8,1.1,0.7,2.5-0.1,3.6
		c-22.6,28.9-41.4,53.8-59.9,80.7c0,0,0,0,0,0c-13.6,19.8-27.7,41.3-38.7,66.1l-0.5,1.1c-2.8,6.4-7.5,17.1-7.1,24.6
		c0.6,10.3,4.1,19.5,11.1,29.1c5.7,7.8,13,14.6,21.2,19.7c9.1,5.6,19.4,9,30.4,10.2c10.4,1.1,24.2,0.2,32-5.5
		c2.2-1.6,4.6-4.6,6.9-7.6c1-1.3,2.1-2.7,3.2-4c10.5-12.2,21-24.7,31.3-36.9l1.4-1.7c40.6-48.2,82.6-98.1,118.8-150.8
		C388.9,174.9,394.6,164.5,392,153z"/>
</g>
</svg>
