<?xml version="1.0" encoding="utf-8"?>
<!-- Generator: Adobe Illustrator 27.2.0, SVG Export Plug-In . SVG Version: 6.00 Build 0)  -->
<svg version="1.1" id="Calque_1" xmlns="http://www.w3.org/2000/svg" xmlns:xlink="http://www.w3.org/1999/xlink" x="0px" y="0px"
	 viewBox="0 0 488.8 461.8" style="enable-background:new 0 0 488.8 461.8;" xml:space="preserve">
<style type="text/css">
	.st0{fill:#FFFFFF;}
	.st1{fill:none;}
</style>
<path class="st0" d="M-456.1,201.8L-456.1,201.8"/>
<g>
	<g>
		<g>
			<g>
				<path class="st0" d="M235.7,103.7c-15-18.9-46.9-33.5-68.1-43c-1.2-0.5-2.4-1.1-3.5-1.6c-39.9-18.2-112.2-40.8-113-41L49,17.3
					c-1.2-0.4-2.3,0.7-2,1.9l0.6,2.2C58.1,59,79,83.4,94.7,97.3c5.7,5,11.1,9.1,15.8,12.2l-36.7-8l-4.8-1l1.5,4.7
					c4.6,13.9,11.5,26,20.6,35.9c7.5,8.1,16.4,14.8,26.5,19.9c14.3,7.1,28.4,9.7,36.4,10.2c-3.2,13.6-3.2,27.5,0.2,41.2
					c3,11.9,8.4,23.7,16.1,35.1c13.1,19.4,28.2,30.8,28.9,31.3l6.3,4.7c1.2,0.9,2.8-0.5,2-1.8l-4.2-6.7c-9.8-15.4-12.8-30.9-9-46.1
					c6.7-27,33.1-45.4,40.2-50l4.1,3.9l1.4,1.3c0.6,0.6,1.7,0.4,2.1-0.3l0.9-1.7c8-15,8.1-33.8,8.1-34.6
					C250.6,131.3,245.2,115.7,235.7,103.7z M241.3,181.3c-0.1,0.3-0.4,0.5-0.7,0.5c-0.3,0-0.6,0-0.8-0.3l-4.7-4.4
					c-0.2-0.2-0.6-0.3-0.9-0.1l-0.1,0.1l-0.1,0.1c-0.4,0.2-0.8,0.5-1.3,0.8l-0.5,0.3c-1.4,0.9-3.5,2.4-6.2,4.4l-0.2,0.2
					c-0.2,0.1-0.4,0.3-0.6,0.4c-4.9,3.8-9.4,7.9-13.5,12.2c-0.3,0.3-0.6,0.7-0.9,1c-0.6,0.7-1.3,1.4-1.9,2.1
					c-0.3,0.4-0.6,0.7-0.9,1.1c-2,2.4-3.7,4.7-5.3,6.9c-0.3,0.4-0.6,0.8-0.8,1.2c-1.1,1.7-2.2,3.5-3.2,5.3c-0.7,1.3-1.3,2.4-1.9,3.6
					c-0.5,1-0.9,2-1.4,3.1c-0.2,0.5-0.4,0.9-0.6,1.4c-0.2,0.6-0.4,1.1-0.6,1.7c-0.2,0.4-0.3,0.8-0.4,1.2c-1.4,4.3-2.3,8.6-2.6,12.8
					c-0.1,1-0.1,1.8-0.2,2.7c-0.4,12,3.2,24.2,10.9,36.2c0,0,0,0.1,0.1,0.1c0.2,0.4,0.1,0.9-0.3,1.2c-0.2,0.1-0.4,0.2-0.6,0.2
					s-0.4-0.1-0.5-0.2h-0.1c-0.6-0.5-16-12.1-29-31.6c-16.5-24.7-21.7-51.1-15-76.3c-7.1-0.3-63-4.4-83.5-63.1c0,0,0,0,0-0.1
					l-0.1-0.4c-0.2-0.5-0.3-0.9-0.5-1.4c-0.1-0.3,0-0.7,0.2-1c0.2-0.3,0.6-0.4,1-0.3L118,113v-0.1l0.1-0.6
					C102,102.8,64.5,75.5,49.3,21c0-0.1,0-0.1,0-0.2c0,0,0,0,0-0.1c0-0.1,0-0.2,0-0.3c0-0.1,0.1-0.2,0.1-0.3
					c0.1-0.1,0.1-0.2,0.2-0.2l0.1-0.1h0.1c0.1,0,0.2-0.1,0.3-0.1c0.1,0,0.2,0,0.3,0c0.7,0.2,72.6,22.6,112.8,40.9l3.6,1.6
					c21,9.5,52.6,23.9,67.3,42.5c9.2,11.6,14.4,26.7,14.8,42.4c0,0,0,0,0,0.1v0.2c0,0.1,0,0.1,0,0.2
					C249.1,148.4,249.1,166.7,241.3,181.3z"/>
				<path class="st0" d="M49.9,19.8c-0.1,0-0.1,0.1-0.1,0.1c0.1-0.1,0.2-0.1,0.3-0.1C49.9,19.7,49.9,19.8,49.9,19.8z"/>
			</g>
			<g>
				<path class="st0" d="M157.5,90c-10.1-5-20.5-10.1-31.2-15.6c-3.3-1.7-6.5-3.4-9.6-5c-0.2-0.1-0.4-0.2-0.7-0.4
					c-1.3-0.7-2.5-1.4-3.7-2c-0.3-0.2-0.6-0.3-0.9-0.5c-1.2-0.7-2.4-1.3-3.6-2c-0.5-0.3-1.1-0.6-1.6-0.9c-0.9-0.5-1.8-1-2.6-1.5
					c-0.9-0.5-1.8-1.1-2.7-1.6c-0.2-0.1-0.5-0.3-0.7-0.4c-12.5-7.6-22.4-14.5-30-20.3c7.5,5.8,17.3,12.6,29.8,20.1
					C82.7,49.4,70.4,40.2,62.3,33.4c-4.5-3.8-7.7-6.9-9.8-9c0,0,0,0.1,0,0.1c0,0-0.1-0.1-0.1-0.1c0,0,0.1,0.1,0.1,0.1
					c15.9,51.8,52.2,77.6,67.4,86.4c0.4,0.2,0.6,0.7,0.5,1.1l-0.1,0.6c0.2,0.1,0.5,0.3,0.8,0.4c-0.1,0,0,0.1,0,0.1
					c0.2,0.1,0.4,0.2,0.6,0.3c0.1,0,0.2,0.1,0.3,0.1c0.1,0.1,0.3,0.1,0.4,0.2c0.2,0.1,0.4,0.2,0.6,0.3c0.1,0.1,0.3,0.1,0.4,0.2
					c0.2,0.1,0.4,0.2,0.6,0.3c0.1,0.1,0.3,0.1,0.4,0.2c0.2,0.1,0.5,0.2,0.7,0.4c0.1,0.1,0.2,0.1,0.3,0.2c0.3,0.2,0.6,0.3,0.9,0.5
					c0.1,0.1,0.2,0.1,0.3,0.2c0.3,0.2,0.7,0.3,1,0.5c0.1,0,0.2,0.1,0.3,0.1c0.3,0.2,0.7,0.3,1,0.5c0.1,0,0.1,0.1,0.2,0.1
					c0.4,0.2,0.8,0.4,1.1,0.5c0.1,0,0.2,0.1,0.3,0.1c0.4,0.2,0.8,0.4,1.2,0.5c0.1,0,0.2,0.1,0.3,0.1c0.4,0.2,0.8,0.4,1.2,0.5
					c0.1,0,0.1,0,0.2,0.1c0.4,0.2,0.8,0.3,1.1,0.5c0.1,0,0.1,0.1,0.2,0.1c0.4,0.2,0.8,0.3,1.2,0.5c0.1,0,0.2,0.1,0.2,0.1
					c0.4,0.2,0.8,0.3,1.1,0.5c0.1,0,0.1,0.1,0.2,0.1c0.4,0.1,0.7,0.3,1.1,0.4c2.3,0.8,5.5,2.2,9,3.7c3.8,1.6,8,3.5,11.8,5.2
					c1.5,0.7,2.9,1.3,4.2,1.9c1.8,0.8,3.5,1.6,4.8,2.3c0.7,0.4,1.4,0.7,1.9,1c0.3,0.1,0.4,0.4,0.5,0.6c0.1,0.3,0,0.6-0.1,0.8
					c0,0-0.6,1-1.5,2.5c-0.3,0.4-0.5,0.9-0.8,1.4s-0.6,1.1-0.9,1.7c-2,3.6-4.5,8.4-6.4,13.2c0,0.1-0.1,0.2-0.2,0.3
					c0,0-0.1,0-0.1,0.1c-0.1,0.1-0.1,0.1-0.2,0.1c0,0-0.1,0-0.1,0.1c-0.1,0-0.1,0-0.2,0.1h-0.1c0,0,0,0-0.1,0c-0.1,0-0.2,0-0.3,0
					c-0.3-0.1-0.7-0.2-1.1-0.3c-0.1,0-0.2,0-0.2-0.1h-0.1c-1.3-0.4-2.6-0.7-3.8-1.1c-0.5-0.1-0.9-0.3-1.4-0.4
					c-0.8-0.3-1.7-0.5-2.5-0.8c-0.5-0.2-1-0.3-1.5-0.5c-0.7-0.2-1.5-0.5-2.2-0.7c-0.5-0.2-1.1-0.4-1.6-0.6c-0.7-0.2-1.4-0.5-2.1-0.7
					c-0.5-0.2-1.1-0.4-1.6-0.6c-0.7-0.2-1.3-0.5-2-0.7c-0.5-0.2-1.1-0.4-1.6-0.6c-0.6-0.2-1.3-0.5-1.9-0.7c-0.5-0.2-1.1-0.4-1.6-0.6
					c-0.6-0.2-1.2-0.5-1.8-0.8c-0.5-0.2-1-0.4-1.5-0.6c-0.6-0.3-1.2-0.5-1.8-0.8c-0.5-0.2-1-0.4-1.5-0.7c-0.6-0.3-1.2-0.5-1.8-0.8
					c-0.5-0.2-1-0.4-1.4-0.7c-0.6-0.3-1.2-0.5-1.7-0.8c-0.5-0.2-0.9-0.4-1.4-0.7c-0.6-0.3-1.2-0.6-1.7-0.9c-0.4-0.2-0.9-0.4-1.3-0.6
					c-0.6-0.3-1.2-0.6-1.8-0.9c-0.4-0.2-0.8-0.4-1.1-0.6c-0.7-0.4-1.4-0.7-2.1-1.1c-0.3-0.1-0.5-0.3-0.8-0.4c-0.9-0.5-1.8-1-2.7-1.5
					c-0.3-0.2-0.6-0.3-0.9-0.5c-0.6-0.4-1.2-0.7-1.8-1.1c-0.4-0.2-0.7-0.4-1.1-0.6c-0.5-0.3-1-0.6-1.5-0.9c-0.4-0.2-0.7-0.5-1.1-0.7
					c-0.5-0.3-0.9-0.6-1.4-0.9c-0.4-0.2-0.7-0.5-1.1-0.7c-0.4-0.3-0.9-0.6-1.3-0.9c-0.4-0.2-0.7-0.5-1.1-0.7
					c-0.4-0.3-0.9-0.6-1.3-0.9c-0.4-0.2-0.7-0.5-1.1-0.7c-0.4-0.3-0.8-0.6-1.2-0.9c-0.3-0.2-0.7-0.5-1-0.7c-0.4-0.3-0.8-0.6-1.2-0.9
					c-0.3-0.2-0.7-0.5-1-0.7c-0.4-0.3-0.8-0.6-1.2-0.9c-0.3-0.2-0.6-0.5-0.9-0.7c-0.4-0.3-0.8-0.6-1.1-0.9c-0.3-0.2-0.6-0.5-0.9-0.7
					c-0.4-0.3-0.8-0.6-1.1-0.9c-0.3-0.2-0.5-0.4-0.8-0.7c-0.4-0.3-0.8-0.7-1.2-1c-0.2-0.2-0.5-0.4-0.7-0.6c-0.4-0.4-0.9-0.8-1.3-1.1
					c-0.2-0.1-0.3-0.3-0.5-0.4c-0.6-0.5-1.2-1-1.7-1.6c-0.1,0-0.1-0.1-0.1-0.1c-0.5-0.5-1-0.9-1.5-1.4c-0.2-0.2-0.3-0.3-0.5-0.5
					c-0.4-0.3-0.7-0.7-1.1-1c-0.2-0.2-0.4-0.4-0.6-0.6c-0.3-0.2-0.5-0.5-0.8-0.7c22.6,56.7,80.1,57.4,80.7,57.4h0.6
					c0.3,0,0.6,0.1,0.8,0.4c0.2,0.2,0.3,0.6,0.2,0.9c-7.1,25.3-2.3,50.9,14.4,75.9c6.3,9.4,13.1,17,18.5,22.3
					c-0.1-0.2-0.2-0.3-0.4-0.5c-0.6-0.8-1.1-1.5-1.7-2.3c-0.2-0.3-0.5-0.7-0.7-1c-0.4-0.6-0.8-1.2-1.2-1.8c-0.2-0.3-0.4-0.6-0.6-1
					c-0.5-0.8-1-1.6-1.5-2.4c-0.2-0.3-0.4-0.7-0.6-1c-0.5-0.8-0.9-1.6-1.4-2.4c-0.2-0.3-0.3-0.6-0.5-0.9c-0.3-0.7-0.7-1.3-1-2
					c-0.1-0.3-0.3-0.6-0.4-0.9c-0.4-0.8-0.8-1.7-1.2-2.5c-0.1-0.3-0.3-0.6-0.4-0.9c-0.4-0.9-0.7-1.7-1.1-2.6
					c-0.1-0.2-0.2-0.4-0.2-0.6c-0.3-0.8-0.6-1.5-0.8-2.3c-0.1-0.2-0.2-0.5-0.2-0.7c-0.3-0.9-0.6-1.8-0.8-2.7
					c-0.1-0.2-0.1-0.5-0.2-0.7c-0.3-0.9-0.5-1.9-0.7-2.8c0-0.1-0.1-0.2-0.1-0.4c-0.2-0.9-0.4-1.8-0.6-2.6c0-0.2-0.1-0.4-0.1-0.6
					c-0.2-0.9-0.3-1.9-0.5-2.8c0-0.2-0.1-0.4-0.1-0.6c-0.1-1-0.3-2-0.4-2.9c0-0.1,0-0.1,0-0.2c-0.1-1-0.2-1.9-0.2-2.9
					c0-0.2,0-0.4,0-0.6c0-1-0.1-1.9-0.1-2.9c0-0.2,0-0.4,0-0.6c0-1,0-2,0.1-3c0.1-3.3,0.5-6.5,1-9.7c5.3-30.2,27.7-50.9,27.9-51.1
					c0.3-0.3,0.8-0.3,1.2-0.1c0.1,0,2,1.2,5.1,3.2c0,0,0,0,0.1,0c0.3,0.2,0.5,0.3,0.8,0.5c0,0,0.1,0,0.1,0.1
					c0.3,0.2,0.5,0.3,0.8,0.5c0.1,0,0.1,0.1,0.2,0.1c0.2,0.2,0.5,0.3,0.8,0.5c0.1,0.1,0.2,0.1,0.3,0.2c0.2,0.2,0.5,0.3,0.7,0.5
					c0.1,0.1,0.2,0.1,0.3,0.2c0.2,0.2,0.5,0.3,0.7,0.5c0.1,0.1,0.3,0.2,0.4,0.3c0.2,0.2,0.5,0.3,0.7,0.5c0.1,0.1,0.3,0.2,0.4,0.3
					c0.2,0.2,0.5,0.3,0.7,0.5c0.2,0.1,0.3,0.2,0.5,0.3c0.2,0.2,0.5,0.3,0.7,0.5c0.2,0.1,0.3,0.2,0.5,0.3c0.2,0.2,0.5,0.3,0.7,0.5
					c0.2,0.1,0.4,0.3,0.5,0.4c0.2,0.2,0.4,0.3,0.7,0.5c0.2,0.1,0.4,0.3,0.6,0.4c0.2,0.2,0.4,0.3,0.7,0.5c0.2,0.1,0.4,0.3,0.6,0.4
					c0.2,0.2,0.4,0.3,0.7,0.5c0.2,0.1,0.4,0.3,0.6,0.4c0.2,0.2,0.4,0.3,0.7,0.5c0.2,0.2,0.4,0.3,0.6,0.5s0.4,0.3,0.7,0.5
					c0.2,0.2,0.4,0.3,0.6,0.5s0.4,0.3,0.7,0.5c0.2,0.2,0.4,0.3,0.6,0.5s0.4,0.4,0.7,0.5c0.2,0.2,0.4,0.3,0.6,0.5
					c0.2,0.2,0.4,0.4,0.7,0.5c0.2,0.2,0.4,0.3,0.6,0.5s0.4,0.4,0.7,0.5c0.2,0.2,0.4,0.4,0.7,0.5c0.2,0.2,0.4,0.4,0.6,0.5
					c0.2,0.2,0.4,0.4,0.7,0.6c0.2,0.2,0.4,0.4,0.6,0.5c0.2,0.2,0.4,0.4,0.7,0.6c0.1,0.1,0.2,0.2,0.4,0.3c1-0.5,2.2-0.3,3.1,0.5
					l0.1,0.1l3.5,3.4c6.6-13.4,7-29.8,7-31.5v-0.1v-0.1C235.3,128.4,200.9,111.4,157.5,90z"/>
				<path class="st0" d="M159.1,155.9c-0.1,0-0.2-0.1-0.2-0.1C158.9,155.9,159,155.9,159.1,155.9z"/>
				<path class="st0" d="M201.2,277.4c-0.1,0-0.2,0.1-0.3,0.1C201,277.5,201.1,277.5,201.2,277.4z"/>
				<path class="st0" d="M201.3,277.4C201.3,277.4,201.2,277.4,201.3,277.4C201.2,277.4,201.3,277.4,201.3,277.4z"/>
				<path class="st0" d="M201.6,277.2C201.6,277.2,201.6,277.2,201.6,277.2C201.6,277.2,201.6,277.2,201.6,277.2
					C201.6,277.2,201.6,277.2,201.6,277.2z"/>
				<path class="st0" d="M200.9,277.5c-0.1,0-0.3-0.1-0.5-0.2C200.5,277.4,200.7,277.5,200.9,277.5z"/>
				<path class="st0" d="M201.5,277.3C201.5,277.3,201.6,277.2,201.5,277.3c0,0-0.1,0-0.2,0.1C201.4,277.4,201.4,277.3,201.5,277.3z
					"/>
				<path class="st0" d="M201.6,277.2c0.1-0.1,0.1-0.1,0.1-0.2C201.7,277,201.7,277.1,201.6,277.2z"/>
				<path class="st0" d="M201.8,276.1c0.1,0.2,0.1,0.4,0.1,0.6C201.9,276.5,201.9,276.3,201.8,276.1z"/>
				<path class="st0" d="M201.8,276.9c0,0,0-0.1,0.1-0.1C201.9,276.8,201.8,276.8,201.8,276.9z"/>
				<path class="st0" d="M201.8,277c0,0,0-0.1,0.1-0.1C201.8,276.9,201.8,276.9,201.8,277z"/>
			</g>
		</g>
		<g>
			<path class="st0" d="M313.4,61.6c-0.3,0-0.7,0.1-1,0.1c-1.2,0.2-2.4,0.4-3.6,0.6c-0.3,0.1-0.6,0.1-0.9,0.2
				c-1.1,0.2-2.1,0.4-3.2,0.6c-0.3,0.1-0.6,0.1-1,0.2c-1,0.2-2,0.4-3,0.6c-0.3,0.1-0.7,0.1-1,0.2c-1,0.2-2,0.5-3,0.7
				c-0.4,0.1-0.7,0.2-1.1,0.3c-1,0.3-1.9,0.5-2.8,0.8c-0.3,0.1-0.7,0.2-1,0.3c-0.9,0.3-1.8,0.5-2.7,0.8c-0.3,0.1-0.6,0.2-0.9,0.3
				c-0.8,0.2-1.5,0.5-2.2,0.7c-0.3,0.1-0.7,0.2-1,0.4c-0.8,0.3-1.5,0.5-2.2,0.8c-0.3,0.1-0.6,0.2-0.9,0.3c-0.8,0.3-1.6,0.6-2.3,0.9
				c-0.3,0.1-0.6,0.2-0.9,0.4c-0.7,0.3-1.5,0.6-2.2,0.9c-0.3,0.1-0.6,0.3-0.8,0.4c-0.7,0.3-1.4,0.7-2.1,1c-0.2,0.1-0.5,0.2-0.7,0.4
				c-0.6,0.3-1.2,0.6-1.7,0.9c-0.3,0.1-0.5,0.3-0.8,0.4c-0.6,0.3-1.2,0.6-1.8,1c-0.2,0.1-0.5,0.3-0.7,0.4c-0.6,0.3-1.2,0.7-1.8,1
				c-0.2,0.1-0.4,0.3-0.6,0.4c-0.6,0.3-1.1,0.7-1.7,1c-0.2,0.1-0.4,0.3-0.6,0.4c-0.5,0.4-1.1,0.7-1.6,1.1c-0.1,0.1-0.3,0.2-0.4,0.3
				c-0.5,0.3-0.9,0.6-1.3,1c-0.1,0.1-0.3,0.2-0.4,0.3c-0.5,0.4-1,0.7-1.4,1.1c-0.1,0.1-0.3,0.2-0.4,0.3c-0.5,0.4-0.9,0.7-1.3,1.1
				c-0.1,0.1-0.3,0.2-0.4,0.3c-0.4,0.4-0.8,0.7-1.2,1c-0.1,0.1-0.2,0.2-0.3,0.3c-0.4,0.4-0.8,0.7-1.2,1.1c-0.1,0.1-0.1,0.1-0.2,0.2
				c-0.3,0.3-0.7,0.6-1,1c-0.1,0.1-0.1,0.1-0.2,0.2c-0.3,0.3-0.7,0.7-1,1c-0.1,0.1-0.2,0.2-0.2,0.2c-0.3,0.3-0.6,0.6-0.9,1
				c-0.1,0.1-0.1,0.2-0.2,0.2c-0.3,0.3-0.6,0.6-0.8,0.9c-0.1,0.1-0.1,0.1-0.2,0.2c-0.3,0.3-0.5,0.6-0.8,0.9l-0.1,0.1
				c-0.2,0.3-0.5,0.6-0.7,0.8l-0.1,0.1c-0.2,0.3-0.4,0.5-0.6,0.8l-0.1,0.1c-0.2,0.2-0.4,0.5-0.5,0.7l-0.1,0.1
				c-0.2,0.2-0.3,0.4-0.4,0.6c0,0,0,0.1-0.1,0.1c-0.1,0.2-0.3,0.4-0.4,0.6l0,0c6.3,7.9,10.7,17.1,13.2,27.4
				c2.2-9.5,8.8-30.4,27.3-46.2c9.2-7.8,20.1-13.5,32.6-16.9c-0.1,0-0.3,0-0.4,0C315.9,61.3,314.7,61.4,313.4,61.6z"/>
			<path class="st0" d="M358.4,58c0,0-14.8-2-23.9-1.9h-1c-1,0-2.1,0-3.2,0c-4.2,0.1-9.1,0.4-14.4,0.6c-8.3,0.5-17.8,1-27.4,1
				c-7.2,0-13.5-0.3-19.3-0.9l-1-0.1c-3.9-0.4-7.8-0.8-12-0.8c-10.3,0-25.2,2.4-36,22.8l-1.4,2.7l2.8,1.2c0.1,0,10.3,4.6,19.5,15.8
				l0.3,0.4c7,8.8,11.6,19.2,13.5,30.9c0,0,1.2,6.1,1.2,12.3h2.8c0,0,0.7-7.9,1.5-12.5c0-0.3,3.6-28.9,27-48.9
				c11.2-9.6,25.2-15.8,41.7-18.3c1.8-0.3,3.6-0.5,5.6-0.7c0,0,8.2-1.6,23.2-0.9L358.4,58L358.4,58z M334.6,60
				c-2,0.2-3.9,0.5-5.7,0.8c-16.8,2.6-31.1,8.9-42.6,18.8c-24,20.5-27.6,49.8-27.6,50.1c-0.1,0.5-0.5,0.9-1,0.9l0,0
				c-0.5,0-0.9-0.4-1-0.8c-2-12-6.7-22.7-13.9-31.7c-0.1-0.1-0.2-0.2-0.2-0.3l-0.1-0.1l0,0C233,86,222.4,81.3,222.3,81.3
				c-0.3-0.1-0.5-0.3-0.5-0.6s-0.1-0.6,0.1-0.8c13-24.5,31.4-22.6,46.3-21.1l1,0.1c15.6,1.6,33,0.7,46.9-0.1
				c5.2-0.3,10.2-0.5,14.3-0.6l0,0c1.5,0,2.9,0,4.1,0c0.5,0,1,0.4,1,1C335.5,59.4,335.1,59.9,334.6,60z"/>
		</g>
		<path class="st0" d="M248.1,147.2L248.1,147.2"/>
	</g>
	<g>
		<path class="st0" d="M175.9,351.4h12.6v8.6h-23.9v-40.6h11.3L175.9,351.4L175.9,351.4z"/>
		<path class="st0" d="M204.2,319.5v40.6h-11.3v-40.6H204.2z"/>
		<path class="st0" d="M236.6,332.8c-0.6-1.1-1.6-1.9-2.7-2.5c-1.1-0.6-2.5-0.9-4-0.9c-2.8,0-5.1,0.9-6.7,2.8
			c-1.6,1.8-2.4,4.3-2.4,7.4c0,3.5,0.9,6.2,2.6,8s4.3,2.7,7.6,2.7c4,0,6.8-1.8,8.5-5.4h-11.4v-8.1h21.1v11c-0.9,2.1-2.2,4.2-3.9,6
			c-1.7,1.9-3.9,3.4-6.5,4.6s-5.6,1.8-8.9,1.8c-4.1,0-7.7-0.9-10.8-2.6s-5.6-4.2-7.3-7.3c-1.7-3.1-2.6-6.7-2.6-10.8
			s0.9-7.6,2.6-10.7c1.7-3.1,4.1-5.6,7.2-7.3s6.7-2.6,10.8-2.6c5.1,0,9.3,1.2,12.7,3.7c3.3,2.5,5.4,5.8,6.2,10.1L236.6,332.8
			L236.6,332.8z"/>
		<path class="st0" d="M280,353.5h-14.4l-2.2,6.6h-11.9l14.8-40.6h13l14.8,40.6h-11.9L280,353.5L280,353.5z M277.2,344.8l-4.4-13.1
			l-4.3,13.1H277.2z"/>
	</g>
	<path class="st0" d="M63.2,382v55c0,2.8-2.2,5-5,5h-13v-21.3H24v21.4H6.1v-54.5c0-3,2.5-5.5,5.5-5.5H24v21.6h21.2v-21.6h18V382z"/>
	<path class="st0" d="M195.4,386.8V438c0,2.8-2.2,5-5,5h-10.3c-2.3,0-4.3-1.3-5.4-3.3L158.6,408v32c0,1.7-1.3,3-3,3h-8.4
		c-2.8,0-5-2.2-5-5v-50.2c0-3.3,2.7-6,6-6h5.8c3.9,0,7.5,2.2,9.2,5.7l15.7,31.4v-33.6c0-1.9,1.6-3.5,3.5-3.5h7.9
		C193.2,381.8,195.4,384,195.4,386.8L195.4,386.8z"/>
	<path class="st0" d="M103.1,380.4c-17.4,0-31.5,14.4-31.5,32.1s14.1,32.1,31.5,32.1s31.5-14.4,31.5-32.1S120.5,380.4,103.1,380.4z
		 M103.1,429.8c-7.1,0-12.8-7.7-12.8-17.3s5.7-17.3,12.8-17.3s12.8,7.7,12.8,17.3S110.2,429.8,103.1,429.8z"/>
	<path class="st0" d="M225.5,380.4c-8.7,0-15.5,1-21.5,4.2c-0.9,0.5-2.1,1.7-2.1,3v48.9c1.7,4.8,8.2,7.2,13.9,7.2h13.4
		c10.3,0,19.9-5.8,24.3-15.1c2.2-4.7,3.5-10.1,3.5-15.9C257,394.9,246.2,380.4,225.5,380.4L225.5,380.4z M238.7,415.1
		c0,8.3-5.5,14.3-12.3,14.3h-7.5v-33.8h7.5c3.4,0,6.5,1.3,8.7,3.6c2.2,2.3,3.6,5.6,3.6,9.7V415.1z"/>
	<path class="st0" d="M317.4,389.6v36.2c0,6.6-4,12.7-10.2,15.1c-2.1,0.8-4.4,1.5-6.8,2c-2.9,0.6-6,0.9-9.2,0.9s-6-0.3-8.9-0.9
		c-1.2-0.2-2.4-0.5-3.5-0.9c-8.2-2.4-13.8-10-13.8-18.6v-38.9c0-0.7,0.3-1.3,0.9-1.7l0,0c1.4-0.9,4.5-1.4,8.4-1.4l0,0
		c4.4,0,8,3.6,8,8v29.4c0,5.1,4.3,9.2,9.6,9.2c3.7,0,8.3-2.3,8.5-7.2v-37.4l0,0c0.6-1.2,4.3-2,9-2l0,0
		C313.8,381.6,317.4,385.2,317.4,389.6L317.4,389.6z"/>
	<path class="st0" d="M364.9,411c0.9,0,2.9-0.7,4.8-2.8c1.8-2.1,3.5-5.6,3.5-11.3c0-3.9-0.8-15.7-22.3-15.7h-9.4
		c-4.1,0-15.9,2.5-15.9,6.4v48.5c0,0,2.3,7.7,14.5,7.7h14.1c6.7,0,21.3-5,21.3-17.1v-3.8C375.4,416.1,371,411.1,364.9,411L364.9,411
		z M341.4,394.5h9.5c4.2,0,6,2.7,6,6s-2.5,6-6.3,6h-9.2V394.5L341.4,394.5z M352,429.9h-10.6v-12h10.3c5,0,7,2.7,7,6
		S356,429.9,352,429.9z"/>
	<path class="st0" d="M426,431.5v4.5c0,3.5-2.9,6.4-6.4,6.4h-29c-4.4,0-8-3.6-8-8v-43.2c0-4.8,3.9-8.7,8.7-8.7h31.8
		c1.3,0,2.3,1,2.3,2.3v6.6c0,2.7-2.2,4.9-4.9,4.9h-20.9v9.3h20.7c1.3,0,2.4,1.1,2.4,2.4v5c0,3.3-2.6,5.9-5.9,5.9h-17.2v9.9h23.7
		C424.8,428.9,426,430.1,426,431.5L426,431.5z"/>
	<path class="st0" d="M482.7,386.9v5.6c0,2.4-1.9,4.2-4.2,4.2H466c-0.5,0-0.9,0.4-0.9,0.9v44.8h-11.3c-3.1,0-5.7-2.5-5.7-5.7v-39.3
		c0-0.4-0.3-0.6-0.6-0.6h-13.2c-1.1,0-2-0.9-2-2v-7.1c0-2.8,2.3-5.1,5.1-5.1h40.9C480.7,382.5,482.7,384.5,482.7,386.9z"/>
	<polygon class="st0" points="240.1,236.5 233.8,226.3 231.1,238.1 219.4,240.9 229.8,247.1 228.9,259.1 238,251.1 249.1,255.7 
		244.3,244.6 252.1,235.4 	"/>
	<path class="st0" d="M273.4,230.1l0.2,0.1l-0.4-0.6C273.3,229.8,273.3,229.9,273.4,230.1z"/>
	<path class="st0" d="M271.1,229.3l2.3,0.8c0-0.2-0.1-0.3-0.1-0.5c-0.7-2.4-1.7-4.8-2.9-7c-6.6-11.4-19.7-19.5-33.8-19.5
		c-5.7,0-11,1.2-15.9,3.3l0,0l0,0c0,0-0.1,0-0.1,0.1c-0.7,0.3-3.8,1.6-9.7,3.2c-0.1,0-0.2,0.2-0.1,0.3l1.6,1.4l1.2,1
		c0,0-1.9,2.6-3.5,5.4c-0.9,1.6-1.7,3.2-2,4.4c0,0,0.8,0,3.1-2.8c2-2.3,4.8-3.9,4.8-3.9s2.3,0.8,7.1,5.2l1-7.5
		c0.2-1.3,1-2.3,2.2-2.8l8.6-3.4h-7.5c3.3-1.5,6.2-1.8,10.1-1.8c7.7,0,19.9,3.8,26.3,9.8c-0.2,0.7-0.7,2.8-1.3,3.9
		c0,0-6.8-3.4-11.3-3.5c0,0,5.9,4.5,8.4,7c0.3,0.3,0.3,0.7,0.1,1c-0.7,1.1-1.6,2.8-4.4,6.6l8.1-1.1c1-0.2,2,0.3,2.6,1.2l5.4,8.2
		c0,0-0.1-4.7-0.5-9l0,0C270.9,229.3,271,229.2,271.1,229.3z"/>
	<path class="st0" d="M264.8,259.2c-3.1,3.6-5.5,6-6.6,7.1c-0.4,0.4-1.1,0.5-1.6,0.1c-2.1-1.6-4.2-3-5.6-4.4l0.4,5l0.2,2.6
		c0.1,0.7-0.2,1.5-0.8,1.9c-3.6,2.8-10.2,5.7-20.7,3.8c-16.5-3-22.6-13-23.6-14.9l0.1-0.3l1.4-5l5.9,2.2c-0.3-1.1-2.7-4.8-3.6-6.3
		c-0.2-0.4-0.3-0.9,0-1.3l4.7-7.9l-6.6,2.1c-0.7,0.2-1.4-0.2-1.4-1c0-1.5,0-3.7,0.1-5.1c0.2-2-0.1-3.7-0.1-3.7
		c-0.7,1.2-2.8,8.1-3.5,11.2c-0.4,1.9-1,2.7-1.5,3c0.7,4.4,2.2,8.5,4.4,12.2c6.4,11.2,18.4,18.7,32.2,18.7c5.2,0,10.1-1.1,14.6-3
		c3.8-1.6,7.2-3.9,10.2-6.7l-2.1-0.3C265.6,260.4,264.8,259.2,264.8,259.2z"/>
</g>
<path class="st1" d="M-571.7-100.3L-571.7-100.3"/>
<path class="st1" d="M-193.7,79.5L-193.7,79.5"/>
</svg>
