<?xml version="1.0" encoding="utf-8"?>
<!-- Generator: Adobe Illustrator 27.2.0, SVG Export Plug-In . SVG Version: 6.00 Build 0)  -->
<svg version="1.1" id="Calque_1" xmlns="http://www.w3.org/2000/svg" xmlns:xlink="http://www.w3.org/1999/xlink" x="0px" y="0px"
	 viewBox="0 0 488.8 461.8" style="enable-background:new 0 0 488.8 461.8;" xml:space="preserve">
<style type="text/css">
	.st0{fill:#FFFFFF;}
	.st1{fill:none;}
</style>
<path class="st0" d="M-456.1,201.8L-456.1,201.8"/>
<g>
	<g>
		<g>
			<path class="st0" d="M160.2,156.2C160.2,156.2,160.2,156.2,160.2,156.2c-0.3-0.1-0.7-0.2-1.1-0.3
				C159.5,156,159.9,156.1,160.2,156.2C160.2,156.2,160.2,156.2,160.2,156.2z"/>
			<path class="st0" d="M119.7,114.6C119.7,114.6,119.7,114.6,119.7,114.6c0.6,0.3,1.4,0.7,2.3,1.2
				C121.1,115.3,120.3,114.9,119.7,114.6z"/>
			<path class="st0" d="M166.1,141.3c-0.5,0.9-1,1.8-1.5,2.8C165.1,143.1,165.6,142.1,166.1,141.3z"/>
			<path class="st0" d="M159.9,154c1.4-3.5,3.2-7,4.7-9.9C163,147,161.3,150.5,159.9,154C159.9,154,159.9,154,159.9,154z"/>
			<path class="st0" d="M188.8,263.1c0.2,0.3,0.4,0.7,0.7,1C189.3,263.8,189.1,263.4,188.8,263.1z"/>
			<path class="st0" d="M177.7,233.6c-0.2-0.8-0.3-1.5-0.5-2.3C177.3,232.1,177.5,232.8,177.7,233.6z"/>
			<path class="st0" d="M187,260.3c0.2,0.3,0.4,0.7,0.6,1C187.4,261,187.2,260.7,187,260.3z"/>
			<path class="st0" d="M202.9,154c-0.2,0.2-22.6,21-27.9,51.1C180.2,175,202.6,154.2,202.9,154c0.3-0.3,0.8-0.3,1.2-0.1
				c0.1,0,2,1.2,5.1,3.2c-3.1-2-5-3.1-5.1-3.2C203.7,153.7,203.2,153.7,202.9,154z"/>
			<path class="st0" d="M173.9,218.4c0-0.2,0-0.4,0-0.6C173.9,218,173.9,218.2,173.9,218.4z"/>
			<path class="st0" d="M185.1,253.1c-0.4-0.7-0.8-1.5-1.1-2.2C184.3,251.6,184.7,252.3,185.1,253.1z"/>
			<path class="st0" d="M184.9,256.9c0.2,0.3,0.4,0.7,0.6,1C185.3,257.6,185.1,257.3,184.9,256.9z"/>
			<path class="st0" d="M178.8,244.2c0.1,0.2,0.2,0.4,0.2,0.6C179,244.6,178.9,244.4,178.8,244.2z"/>
			<path class="st0" d="M180.1,247.4c0.1,0.3,0.3,0.6,0.4,0.9C180.4,248,180.2,247.7,180.1,247.4z"/>
			<path class="st0" d="M178.7,237.5c-0.2-0.8-0.5-1.7-0.7-2.5C178.2,235.8,178.5,236.6,178.7,237.5z"/>
			<path class="st0" d="M183.1,253.7c0.2,0.3,0.3,0.6,0.5,0.9C183.4,254.2,183.3,253.9,183.1,253.7z"/>
			<path class="st0" d="M181.7,250.8c0.1,0.3,0.3,0.6,0.4,0.9C182,251.4,181.8,251.1,181.7,250.8z"/>
			<path class="st0" d="M191.9,263.9c-0.6-0.8-1.1-1.6-1.6-2.3C190.8,262.4,191.3,263.2,191.9,263.9z"/>
			<path class="st0" d="M195.3,268.5c-0.9-1.1-1.8-2.3-2.6-3.4C193.5,266.2,194.4,267.4,195.3,268.5z"/>
			<path class="st0" d="M189.3,260.2c-0.5-0.7-0.9-1.5-1.4-2.2C188.4,258.8,188.9,259.5,189.3,260.2z"/>
			<path class="st0" d="M187.1,256.6c-0.4-0.7-0.8-1.4-1.2-2.2C186.3,255.2,186.7,255.9,187.1,256.6z"/>
			<polygon class="st0" points="195.4,268.6 195.4,268.6 195.4,268.6 			"/>
			<path class="st0" d="M176.9,229.8c-0.1-0.7-0.2-1.5-0.4-2.2C176.7,228.3,176.8,229.1,176.9,229.8z"/>
			<path class="st0" d="M181.6,245.9c-1-2.4-1.9-4.8-2.6-7.2C179.8,241.1,180.6,243.5,181.6,245.9z"/>
			<path class="st0" d="M177.7,241.1c0.1,0.2,0.2,0.5,0.2,0.7C177.9,241.6,177.8,241.4,177.7,241.1z"/>
			<path class="st0" d="M176.4,226.1c-0.1-0.8-0.2-1.5-0.2-2.3C176.2,224.6,176.3,225.3,176.4,226.1z"/>
			<path class="st0" d="M183.3,249.5c-0.4-0.8-0.8-1.6-1.1-2.4C182.5,247.8,182.9,248.7,183.3,249.5z"/>
			<path class="st0" d="M225.9,169c-0.2-0.2-0.4-0.3-0.7-0.5C225.5,168.7,225.7,168.8,225.9,169z"/>
			<path class="st0" d="M224.6,168c-0.2-0.2-0.4-0.3-0.7-0.5C224.2,167.7,224.4,167.8,224.6,168z"/>
			<path class="st0" d="M222.1,166.1c-0.2-0.2-0.4-0.3-0.7-0.5C221.6,165.8,221.9,165.9,222.1,166.1z"/>
			<path class="st0" d="M223.4,167c-0.2-0.2-0.4-0.3-0.7-0.5C222.9,166.7,223.1,166.9,223.4,167z"/>
			<path class="st0" d="M176.7,237.7c0.1,0.2,0.1,0.5,0.2,0.7C176.8,238.2,176.7,237.9,176.7,237.7z"/>
			<path class="st0" d="M219.6,164.3c-0.2-0.2-0.5-0.3-0.7-0.5C219.2,163.9,219.4,164.1,219.6,164.3z"/>
			<path class="st0" d="M227.2,170c-0.2-0.2-0.4-0.4-0.7-0.5C226.8,169.7,227,169.9,227.2,170z"/>
			<path class="st0" d="M232.4,174.3c-0.2-0.2-0.4-0.4-0.6-0.5C232,173.9,232.2,174.1,232.4,174.3z"/>
			<path class="st0" d="M201.8,276.2C201.8,276.2,201.8,276.2,201.8,276.2C201.8,276.2,201.8,276.2,201.8,276.2z"/>
			<path class="st0" d="M231.1,173.2c-0.2-0.2-0.4-0.4-0.6-0.5C230.7,172.9,230.9,173,231.1,173.2z"/>
			<path class="st0" d="M229.8,172.1c-0.2-0.2-0.4-0.4-0.7-0.5C229.4,171.8,229.6,172,229.8,172.1z"/>
			<path class="st0" d="M218.4,163.4c-0.2-0.2-0.5-0.3-0.7-0.5C217.9,163.1,218.2,163.2,218.4,163.4z"/>
			<path class="st0" d="M228.5,171.1c-0.2-0.2-0.4-0.4-0.7-0.5C228.1,170.7,228.3,170.9,228.5,171.1z"/>
			<path class="st0" d="M220.8,165.2c-0.2-0.2-0.4-0.3-0.7-0.5C220.4,164.8,220.6,165,220.8,165.2z"/>
			<path class="st0" d="M174.6,227.8c0,0.2,0.1,0.4,0.1,0.6C174.6,228.3,174.6,228,174.6,227.8z"/>
			<path class="st0" d="M174.2,224.8c0,0.1,0,0.1,0,0.2C174.2,224.9,174.2,224.8,174.2,224.8z"/>
			<path class="st0" d="M217.2,162.6c-0.2-0.2-0.5-0.3-0.7-0.5C216.8,162.2,217,162.4,217.2,162.6z"/>
			<path class="st0" d="M175.1,231.3c0,0.2,0.1,0.4,0.1,0.6C175.2,231.7,175.2,231.5,175.1,231.3z"/>
			<path class="st0" d="M175.8,234.5c0,0.1,0.1,0.2,0.1,0.4C175.9,234.8,175.9,234.7,175.8,234.5z"/>
			<path class="st0" d="M210,157.6c-0.3-0.2-0.5-0.3-0.8-0.5C209.4,157.3,209.7,157.5,210,157.6z"/>
			<path class="st0" d="M174,221.3c0,0.2,0,0.4,0,0.6C174,221.7,174,221.5,174,221.3z"/>
			<path class="st0" d="M214.9,161c-0.2-0.2-0.5-0.3-0.7-0.5C214.5,160.7,214.7,160.8,214.9,161z"/>
			<path class="st0" d="M213.9,160.2c-0.2-0.2-0.5-0.3-0.7-0.5C213.4,159.9,213.6,160.1,213.9,160.2z"/>
			<path class="st0" d="M216.1,161.8c-0.2-0.2-0.5-0.3-0.7-0.5C215.6,161.4,215.8,161.6,216.1,161.8z"/>
			<path class="st0" d="M212.8,159.5c-0.2-0.2-0.5-0.3-0.7-0.5C212.3,159.2,212.6,159.4,212.8,159.5z"/>
			<path class="st0" d="M210.9,158.2c-0.3-0.2-0.5-0.4-0.8-0.5C210.3,157.9,210.6,158,210.9,158.2z"/>
			<path class="st0" d="M211.8,158.9c-0.3-0.2-0.5-0.3-0.8-0.5C211.3,158.5,211.6,158.7,211.8,158.9z"/>
			<path class="st0" d="M212.3,161.6c0.1,0.1,0.2,0.2,0.3,0.2C212.5,161.8,212.4,161.7,212.3,161.6z"/>
			<path class="st0" d="M229.3,174.3c0.2,0.2,0.4,0.4,0.7,0.6C229.7,174.7,229.5,174.5,229.3,174.3z"/>
			<path class="st0" d="M216.1,164.2c0.2,0.1,0.3,0.2,0.5,0.4C216.5,164.5,216.3,164.4,216.1,164.2z"/>
			<path class="st0" d="M215.1,163.5c0.2,0.1,0.3,0.2,0.5,0.3C215.5,163.8,215.3,163.6,215.1,163.5z"/>
			<path class="st0" d="M217.1,165c0.2,0.1,0.4,0.3,0.5,0.4C217.5,165.2,217.3,165.1,217.1,165z"/>
			<path class="st0" d="M228.2,173.4c0.2,0.2,0.5,0.4,0.7,0.6C228.6,173.8,228.4,173.6,228.2,173.4z"/>
			<path class="st0" d="M231.6,176.3C231.6,176.3,231.6,176.2,231.6,176.3C231.6,176.2,231.6,176.3,231.6,176.3
				C231.6,176.3,231.6,176.3,231.6,176.3z"/>
			<path class="st0" d="M222.5,168.9c0.2,0.2,0.4,0.3,0.6,0.5C223,169.3,222.8,169.1,222.5,168.9z"/>
			<path class="st0" d="M213.2,162.2c0.1,0.1,0.3,0.2,0.4,0.3C213.5,162.4,213.4,162.3,213.2,162.2z"/>
			<path class="st0" d="M214.2,162.9c0.1,0.1,0.3,0.2,0.4,0.3C214.5,163.1,214.3,163,214.2,162.9z"/>
			<path class="st0" d="M211.5,161c0.1,0.1,0.2,0.1,0.3,0.2C211.6,161.1,211.6,161.1,211.5,161z"/>
			<path class="st0" d="M218.2,165.7c0.2,0.1,0.4,0.3,0.6,0.4C218.6,166,218.4,165.8,218.2,165.7z"/>
			<path class="st0" d="M221.4,168.1c0.2,0.2,0.4,0.3,0.6,0.5C221.8,168.4,221.6,168.3,221.4,168.1z"/>
			<path class="st0" d="M223.7,169.8c0.2,0.2,0.4,0.3,0.6,0.5C224.1,170.1,223.9,170,223.7,169.8z"/>
			<path class="st0" d="M220.3,167.3c0.2,0.1,0.4,0.3,0.6,0.4C220.7,167.6,220.5,167.4,220.3,167.3z"/>
			<path class="st0" d="M224.8,170.7c0.2,0.2,0.4,0.3,0.6,0.5C225.2,171,225,170.8,224.8,170.7z"/>
			<path class="st0" d="M227,172.5c0.2,0.2,0.5,0.4,0.7,0.5C227.5,172.8,227.3,172.6,227,172.5z"/>
			<path class="st0" d="M219.3,166.5c0.2,0.1,0.4,0.3,0.6,0.4C219.6,166.8,219.4,166.6,219.3,166.5z"/>
			<path class="st0" d="M225.9,171.6c0.2,0.2,0.4,0.3,0.7,0.5C226.4,171.9,226.1,171.7,225.9,171.6z"/>
			<path class="st0" d="M230.4,175.3c0.2,0.2,0.5,0.4,0.7,0.6C230.9,175.7,230.7,175.5,230.4,175.3z"/>
			<path class="st0" d="M209.8,159.9c0.1,0,0.1,0.1,0.2,0.1C209.9,160,209.9,160,209.8,159.9z"/>
			<path class="st0" d="M176,222.4c-0.1-0.8-0.1-1.7-0.1-2.5C175.9,220.7,176,221.5,176,222.4z"/>
			<path class="st0" d="M210.6,160.5c0.1,0,0.1,0.1,0.2,0.1C210.8,160.6,210.7,160.5,210.6,160.5z"/>
			<path class="st0" d="M175.9,218.7c0-1.2,0-2.5,0-3.7C175.9,216.2,175.9,217.4,175.9,218.7z"/>
			<path class="st0" d="M209.1,159.5C209.1,159.5,209.2,159.5,209.1,159.5C209.2,159.5,209.1,159.5,209.1,159.5z"/>
			<path class="st0" d="M74.8,105.6L74.8,105.6c0.2,0.2,0.3,0.3,0.5,0.5C75.1,106,75,105.8,74.8,105.6z"/>
			<path class="st0" d="M52.4,24.4C52.5,24.4,52.5,24.4,52.4,24.4c5.8,5.8,20.5,19.2,47.6,35.5C73,43.6,58.2,30.2,52.4,24.4z"/>
			<polygon class="st0" points="49.5,20.1 49.5,20.1 49.5,20.1 			"/>
			<path class="st0" d="M127,72.5c-1.1-0.6-2.2-1.1-3.2-1.7C124.8,71.4,125.9,71.9,127,72.5c10.7,5.5,21.1,10.6,31.2,15.6
				c29.6,14.6,55,27.1,72.1,39.8c-17.2-12.7-42.5-25.2-72.1-39.8C148.1,83.1,137.7,77.9,127,72.5z"/>
			<path class="st0" d="M232.7,106c-14.4-18.2-45.8-32.5-66.6-41.9l-3.6-1.6C127.7,46.6,68.8,27.6,53.7,22.8
				c6.2,6.3,24,22.5,58.2,41.6c0.6,0.3,1.2,0.7,1.9,1c0.7,0.4,1.4,0.8,2.2,1.2c0.8,0.4,1.6,0.9,2.4,1.3c0.6,0.3,1.1,0.6,1.7,0.9
				c0.9,0.5,1.8,1,2.8,1.5c0.3,0.2,0.7,0.3,1,0.5c1.1,0.6,2.1,1.1,3.2,1.7c10.7,5.5,21.1,10.6,31.2,15.6
				c29.6,14.6,55,27.1,72.1,39.8c1.1,0.8,2.3,1.7,3.3,2.5c0,0,0,0,0,0c0.7,0.6,1.4,1.2,2.1,1.7c0,0,0.1,0.1,0.1,0.1
				c0.6,0.5,1.3,1.1,1.9,1.6c0.1,0.1,0.1,0.1,0.2,0.2c0.6,0.5,1.1,1,1.7,1.6c0.1,0.1,0.2,0.2,0.3,0.2c0.5,0.5,1.1,1,1.6,1.5
				c0.1,0.1,0.2,0.2,0.3,0.3c0.5,0.5,1,1,1.4,1.5c0.1,0.1,0.2,0.2,0.3,0.3c0.5,0.5,0.9,1,1.3,1.5c0.1,0.1,0.2,0.2,0.2,0.3
				c0.4,0.5,0.8,1,1.2,1.5c0.1,0.1,0.1,0.2,0.2,0.3c0.1,0.2,0.3,0.4,0.4,0.6C245.9,129.7,240.9,116.4,232.7,106z"/>
			<path class="st0" d="M121.1,113.1c0.2,0.1,0.4,0.2,0.6,0.3c0.1,0,0.2,0.1,0.3,0.1c0.1,0.1,0.3,0.1,0.4,0.2
				c0.2,0.1,0.4,0.2,0.6,0.3c0.1,0.1,0.3,0.1,0.4,0.2c0.2,0.1,0.4,0.2,0.6,0.3c0.1,0.1,0.3,0.1,0.4,0.2c0.2,0.1,0.5,0.2,0.7,0.4
				c0.1,0.1,0.2,0.1,0.3,0.2c0.3,0.2,0.6,0.3,0.9,0.5c0.1,0.1,0.2,0.1,0.3,0.2c0.3,0.2,0.7,0.3,1,0.5c0.1,0,0.2,0.1,0.3,0.1
				c0.3,0.2,0.7,0.3,1,0.5c0.1,0,0.1,0.1,0.2,0.1c0.4,0.2,0.8,0.4,1.1,0.5c0.1,0,0.2,0.1,0.3,0.1c0.4,0.2,0.8,0.4,1.2,0.5
				c0.1,0,0.2,0.1,0.3,0.1c0.4,0.2,0.8,0.4,1.2,0.5c0.1,0,0.1,0,0.2,0.1c0.4,0.2,0.8,0.3,1.1,0.5c0.1,0,0.1,0.1,0.2,0.1
				c0.4,0.2,0.8,0.3,1.2,0.5c0.1,0,0.2,0.1,0.2,0.1c0.4,0.2,0.8,0.3,1.1,0.5c0.1,0,0.1,0.1,0.2,0.1c0.4,0.1,0.7,0.3,1.1,0.4
				c0,0,0,0,0,0c5.7,2.1,17.1,7.1,25.1,10.8c1.8,0.8,3.5,1.6,4.8,2.3c0.7,0.4,1.4,0.7,1.9,1c0.3,0.1,0.4,0.4,0.5,0.6
				c0.1,0.3,0,0.6-0.1,0.8c0,0-0.6,1-1.5,2.5c-0.3,0.4-0.5,0.9-0.8,1.4c-0.3,0.5-0.6,1.1-0.9,1.7c-2,3.6-4.5,8.4-6.4,13.2
				c0,0.1-0.1,0.2-0.2,0.3c0,0-0.1,0-0.1,0.1c-0.1,0.1-0.1,0.1-0.2,0.1c0,0-0.1,0-0.1,0.1c-0.1,0-0.1,0-0.2,0.1c0,0-0.1,0-0.1,0
				c0,0,0,0-0.1,0c-0.1,0-0.2,0-0.3,0c0,0,0,0,0,0c-0.3-0.1-0.7-0.2-1.1-0.3c-0.1,0-0.2,0-0.2-0.1c0,0-0.1,0-0.1,0
				c-1.3-0.4-2.6-0.7-3.8-1.1c-0.5-0.1-0.9-0.3-1.4-0.4c-0.8-0.3-1.7-0.5-2.5-0.8c-0.5-0.2-1-0.3-1.5-0.5c-0.7-0.2-1.5-0.5-2.2-0.7
				c-0.5-0.2-1.1-0.4-1.6-0.6c-0.7-0.2-1.4-0.5-2.1-0.7c-0.5-0.2-1.1-0.4-1.6-0.6c-0.7-0.2-1.3-0.5-2-0.7c-0.5-0.2-1.1-0.4-1.6-0.6
				c-0.6-0.2-1.3-0.5-1.9-0.7c-0.5-0.2-1.1-0.4-1.6-0.6c-0.6-0.2-1.2-0.5-1.8-0.8c-0.5-0.2-1-0.4-1.5-0.6c-0.6-0.3-1.2-0.5-1.8-0.8
				c-0.5-0.2-1-0.4-1.5-0.7c-0.6-0.3-1.2-0.5-1.8-0.8c-0.5-0.2-1-0.4-1.4-0.7c-0.6-0.3-1.2-0.5-1.7-0.8c-0.5-0.2-0.9-0.4-1.4-0.7
				c-0.6-0.3-1.2-0.6-1.7-0.9c-0.4-0.2-0.9-0.4-1.3-0.6c-0.6-0.3-1.2-0.6-1.8-0.9c-0.4-0.2-0.8-0.4-1.1-0.6
				c-0.7-0.4-1.4-0.7-2.1-1.1c-0.3-0.1-0.5-0.3-0.8-0.4c-0.9-0.5-1.8-1-2.7-1.5c-0.3-0.2-0.6-0.3-0.9-0.5c-0.6-0.4-1.2-0.7-1.8-1.1
				c-0.4-0.2-0.7-0.4-1.1-0.6c-0.5-0.3-1-0.6-1.5-0.9c-0.4-0.2-0.7-0.5-1.1-0.7c-0.5-0.3-0.9-0.6-1.4-0.9c-0.4-0.2-0.7-0.5-1.1-0.7
				c-0.4-0.3-0.9-0.6-1.3-0.9c-0.4-0.2-0.7-0.5-1.1-0.7c-0.4-0.3-0.9-0.6-1.3-0.9c-0.4-0.2-0.7-0.5-1.1-0.7
				c-0.4-0.3-0.8-0.6-1.2-0.9c-0.3-0.2-0.7-0.5-1-0.7c-0.4-0.3-0.8-0.6-1.2-0.9c-0.3-0.2-0.7-0.5-1-0.7c-0.4-0.3-0.8-0.6-1.2-0.9
				c-0.3-0.2-0.6-0.5-0.9-0.7c-0.4-0.3-0.8-0.6-1.1-0.9c-0.3-0.2-0.6-0.5-0.9-0.7c-0.4-0.3-0.8-0.6-1.1-0.9
				c-0.3-0.2-0.5-0.4-0.8-0.7c-0.4-0.3-0.8-0.7-1.2-1c-0.2-0.2-0.5-0.4-0.7-0.6c-0.4-0.4-0.9-0.8-1.3-1.1c-0.2-0.1-0.3-0.3-0.5-0.4
				c-0.6-0.5-1.2-1-1.7-1.6c-0.1,0-0.1-0.1-0.1-0.1c-0.5-0.5-1-0.9-1.5-1.4c-0.2-0.2-0.3-0.3-0.5-0.5c-0.4-0.3-0.7-0.7-1.1-1
				c-0.2-0.2-0.4-0.4-0.6-0.6c-0.3-0.2-0.5-0.5-0.8-0.7c22.6,56.7,80.1,57.4,80.7,57.4l0.6,0c0.3,0,0.6,0.1,0.8,0.4
				c0.2,0.2,0.3,0.6,0.2,0.9c-7.1,25.3-2.3,50.9,14.4,75.9c6.3,9.4,13.1,17,18.5,22.3c-0.1-0.2-0.2-0.3-0.4-0.5
				c-0.6-0.8-1.1-1.5-1.7-2.3c-0.2-0.3-0.5-0.7-0.7-1c-0.4-0.6-0.8-1.2-1.2-1.8c-0.2-0.3-0.4-0.6-0.6-1c-0.5-0.8-1-1.6-1.5-2.4
				c-0.2-0.3-0.4-0.7-0.6-1c-0.5-0.8-0.9-1.6-1.4-2.4c-0.2-0.3-0.3-0.6-0.5-0.9c-0.3-0.7-0.7-1.3-1-2c-0.1-0.3-0.3-0.6-0.4-0.9
				c-0.4-0.8-0.8-1.7-1.2-2.5c-0.1-0.3-0.3-0.6-0.4-0.9c-0.4-0.9-0.7-1.7-1.1-2.6c-0.1-0.2-0.2-0.4-0.2-0.6
				c-0.3-0.8-0.6-1.5-0.8-2.3c-0.1-0.2-0.2-0.5-0.2-0.7c-0.3-0.9-0.6-1.8-0.8-2.7c-0.1-0.2-0.1-0.5-0.2-0.7
				c-0.3-0.9-0.5-1.9-0.7-2.8c0-0.1-0.1-0.2-0.1-0.4c-0.2-0.9-0.4-1.8-0.6-2.6c0-0.2-0.1-0.4-0.1-0.6c-0.2-0.9-0.3-1.9-0.5-2.8
				c0-0.2-0.1-0.4-0.1-0.6c-0.1-1-0.3-2-0.4-2.9c0-0.1,0-0.1,0-0.2c-0.1-1-0.2-1.9-0.2-2.9c0-0.2,0-0.4,0-0.6c0-1-0.1-1.9-0.1-2.9
				c0-0.2,0-0.4,0-0.6c0-1,0-2,0.1-3c0.1-3.3,0.5-6.5,1-9.7c5.3-30.2,27.7-50.9,27.9-51.1c0.3-0.3,0.8-0.3,1.2-0.1
				c0.1,0,2,1.2,5.1,3.2c0,0,0,0,0.1,0c0.3,0.2,0.5,0.3,0.8,0.5c0,0,0.1,0,0.1,0.1c0.3,0.2,0.5,0.3,0.8,0.5c0.1,0,0.1,0.1,0.2,0.1
				c0.2,0.2,0.5,0.3,0.8,0.5c0.1,0.1,0.2,0.1,0.3,0.2c0.2,0.2,0.5,0.3,0.7,0.5c0.1,0.1,0.2,0.1,0.3,0.2c0.2,0.2,0.5,0.3,0.7,0.5
				c0.1,0.1,0.3,0.2,0.4,0.3c0.2,0.2,0.5,0.3,0.7,0.5c0.1,0.1,0.3,0.2,0.4,0.3c0.2,0.2,0.5,0.3,0.7,0.5c0.2,0.1,0.3,0.2,0.5,0.3
				c0.2,0.2,0.5,0.3,0.7,0.5c0.2,0.1,0.3,0.2,0.5,0.3c0.2,0.2,0.5,0.3,0.7,0.5c0.2,0.1,0.4,0.3,0.5,0.4c0.2,0.2,0.4,0.3,0.7,0.5
				c0.2,0.1,0.4,0.3,0.6,0.4c0.2,0.2,0.4,0.3,0.7,0.5c0.2,0.1,0.4,0.3,0.6,0.4c0.2,0.2,0.4,0.3,0.7,0.5c0.2,0.1,0.4,0.3,0.6,0.4
				c0.2,0.2,0.4,0.3,0.7,0.5c0.2,0.2,0.4,0.3,0.6,0.5c0.2,0.2,0.4,0.3,0.7,0.5c0.2,0.2,0.4,0.3,0.6,0.5c0.2,0.2,0.4,0.3,0.7,0.5
				c0.2,0.2,0.4,0.3,0.6,0.5c0.2,0.2,0.4,0.4,0.7,0.5c0.2,0.2,0.4,0.3,0.6,0.5c0.2,0.2,0.4,0.4,0.7,0.5c0.2,0.2,0.4,0.3,0.6,0.5
				c0.2,0.2,0.4,0.4,0.7,0.5c0.2,0.2,0.4,0.4,0.7,0.5c0.2,0.2,0.4,0.4,0.6,0.5c0.2,0.2,0.4,0.4,0.7,0.6c0.2,0.2,0.4,0.4,0.6,0.5
				c0.2,0.2,0.4,0.4,0.7,0.6c0.1,0.1,0.2,0.2,0.4,0.3c1-0.5,2.2-0.3,3.1,0.5l0.1,0.1l3.5,3.4c6.6-13.4,7-29.8,7-31.5
				c0,0,0-0.1,0-0.1l0-0.1c-12-19.2-46.4-36.2-89.8-57.6c-10.1-5-20.5-10.1-31.2-15.6c-3.3-1.7-6.5-3.4-9.6-5
				c-0.2-0.1-0.4-0.2-0.7-0.4c-1.3-0.7-2.5-1.4-3.7-2c-0.3-0.2-0.6-0.3-0.9-0.5c-1.2-0.7-2.4-1.3-3.6-2c-0.5-0.3-1.1-0.6-1.6-0.9
				c-0.9-0.5-1.8-1-2.6-1.5c-0.9-0.5-1.8-1.1-2.7-1.6c-0.2-0.1-0.5-0.3-0.7-0.4C72.9,43.6,58.2,30.2,52.5,24.4
				c15.9,51.9,52.2,77.7,67.4,86.5c0.4,0.2,0.6,0.7,0.5,1.1l-0.1,0.6c0.2,0.1,0.5,0.3,0.8,0.4C121,113,121.1,113.1,121.1,113.1z"/>
			<path class="st0" d="M76.1,106.9c0.2,0.2,0.4,0.5,0.7,0.7c0.3,0.3,0.5,0.5,0.8,0.8c0.2,0.2,0.5,0.5,0.7,0.7
				c0.3,0.3,0.6,0.5,0.8,0.8c0.2,0.2,0.5,0.5,0.7,0.7c0.3,0.3,0.6,0.6,0.9,0.8c0.3,0.2,0.5,0.5,0.8,0.7c0.3,0.3,0.6,0.6,0.9,0.8
				c0.3,0.2,0.5,0.5,0.8,0.7c0.3,0.3,0.6,0.6,1,0.9c0.3,0.2,0.6,0.5,0.8,0.7c0.3,0.3,0.7,0.6,1,0.9c0.3,0.2,0.6,0.5,0.9,0.8
				c0.3,0.3,0.7,0.6,1,0.9c0.3,0.2,0.6,0.5,0.9,0.8c0.4,0.3,0.7,0.6,1.1,0.9c0.3,0.3,0.6,0.5,1,0.8c0.4,0.3,0.7,0.6,1.1,0.9
				c0.3,0.3,0.7,0.5,1,0.8c0.4,0.3,0.8,0.6,1.1,0.9c0.3,0.3,0.7,0.5,1.1,0.8c0.4,0.3,0.8,0.6,1.2,0.9c0.4,0.3,0.7,0.5,1.1,0.8
				c0.4,0.3,0.8,0.6,1.2,0.8c0.4,0.3,0.8,0.5,1.2,0.8c0.4,0.3,0.8,0.6,1.2,0.8c0.4,0.3,0.8,0.5,1.2,0.8c0.4,0.3,0.8,0.6,1.3,0.8
				c0.4,0.3,0.8,0.5,1.3,0.8c0.4,0.3,0.9,0.6,1.3,0.8c0.4,0.3,0.9,0.5,1.3,0.8c0.4,0.3,0.9,0.5,1.3,0.8c0.5,0.3,0.9,0.5,1.4,0.8
				c0.5,0.3,0.9,0.5,1.4,0.8c0.5,0.3,0.9,0.5,1.4,0.8c0.5,0.3,0.9,0.5,1.4,0.8c0.5,0.3,1,0.5,1.5,0.8c0.5,0.3,1,0.5,1.5,0.8
				c0.5,0.3,1,0.5,1.5,0.8c0.5,0.3,1,0.5,1.5,0.8c0.5,0.3,1.1,0.5,1.6,0.8c0.5,0.2,1,0.5,1.5,0.7c0.5,0.3,1.1,0.5,1.6,0.8
				c0.5,0.2,1,0.5,1.5,0.7c0.6,0.3,1.1,0.5,1.7,0.8c0.5,0.2,1.1,0.5,1.6,0.7c0.6,0.3,1.2,0.5,1.8,0.8c0.5,0.2,1.1,0.5,1.6,0.7
				c0.6,0.3,1.2,0.5,1.8,0.7c0.5,0.2,1.1,0.4,1.6,0.7c0.6,0.2,1.2,0.5,1.9,0.7c0.6,0.2,1.1,0.4,1.7,0.7c0.6,0.2,1.3,0.5,1.9,0.7
				c0.6,0.2,1.1,0.4,1.7,0.6c0.6,0.2,1.3,0.5,2,0.7c0.6,0.2,1.2,0.4,1.8,0.6c0.7,0.2,1.3,0.4,2,0.6c0.6,0.2,1.2,0.4,1.9,0.6
				c0.6,0.2,1.2,0.4,1.9,0.6c0.7,0.2,1.4,0.4,2.1,0.6c0.3,0.1,0.6,0.2,0.9,0.3c1,0.3,2,0.6,3.1,0.9c0.2,0,0.3,0.1,0.5,0.1
				c1.4-3.5,3.2-7,4.7-9.9c0.5-1,1-1.9,1.5-2.8c1.1-2.1,2.1-3.7,2.7-4.6c-6.6-3.3-23.3-10.8-30.7-13.4c-0.4-0.1-0.7-0.3-1.1-0.4
				c-0.1,0-0.2-0.1-0.2-0.1c-0.4-0.1-0.7-0.3-1.1-0.4c-0.1,0-0.2-0.1-0.2-0.1c-0.3-0.1-0.7-0.3-1-0.4c0,0-0.1,0-0.1-0.1
				c-0.4-0.2-0.8-0.3-1.2-0.5c-0.1,0-0.2-0.1-0.3-0.1c-0.4-0.2-0.8-0.3-1.1-0.5c-0.1,0-0.1-0.1-0.2-0.1c-0.3-0.2-0.7-0.3-1-0.5
				c-0.1,0-0.2-0.1-0.2-0.1c-0.4-0.2-0.7-0.3-1.1-0.5c-0.1,0-0.2-0.1-0.3-0.1c-0.4-0.2-0.7-0.4-1.1-0.5c0,0-0.1,0-0.1,0
				c-0.4-0.2-0.7-0.3-1-0.5c-0.1,0-0.2-0.1-0.3-0.1c-0.3-0.2-0.7-0.3-1-0.5c-0.1,0-0.1-0.1-0.2-0.1c-0.3-0.2-0.6-0.3-1-0.5
				c0,0-0.1,0-0.1,0c-0.3-0.2-0.7-0.3-1-0.5c-0.1,0-0.1-0.1-0.2-0.1c-0.3-0.2-0.6-0.3-0.9-0.5c0,0,0,0-0.1,0
				c-0.9-0.5-1.7-0.9-2.3-1.2c-0.1,0.2-0.2,0.4-0.4,0.5c-0.2,0.1-0.5,0.2-0.8,0.1l-43.8-9.6c0.2,0.2,0.3,0.3,0.5,0.5
				C75.5,106.4,75.8,106.7,76.1,106.9z"/>
			<path class="st0" d="M188.9,239.8c0-0.8,0.1-1.7,0.2-2.8c0.4-4.4,1.3-8.9,2.7-13.3c0.1-0.4,0.3-0.9,0.4-1.3
				c0.2-0.6,0.4-1.2,0.6-1.7c0.2-0.5,0.4-1,0.6-1.5c0.5-1.1,0.9-2.2,1.4-3.2c0.6-1.2,1.2-2.4,1.9-3.7c1-1.8,2.1-3.7,3.3-5.4
				c0.3-0.4,0.6-0.8,0.9-1.3c1.6-2.3,3.3-4.6,5.4-7.1c0.3-0.4,0.6-0.7,1-1.1c0.6-0.7,1.2-1.4,1.9-2.1c0.3-0.3,0.6-0.7,0.9-1
				c4.1-4.4,8.7-8.6,13.7-12.4c0.2-0.2,0.4-0.3,0.6-0.5l0.2-0.2c2.7-2.1,4.9-3.6,6.3-4.5l0.5-0.3c0.1-0.1,0.2-0.1,0.2-0.2
				c0,0,0,0-0.1-0.1c-0.1-0.1-0.3-0.3-0.4-0.4c-0.2-0.2-0.5-0.4-0.7-0.6c-0.2-0.1-0.3-0.3-0.5-0.4c-0.2-0.2-0.4-0.4-0.7-0.6
				c-0.2-0.1-0.3-0.3-0.5-0.4c-0.2-0.2-0.5-0.4-0.7-0.6c-0.2-0.1-0.3-0.2-0.5-0.4c-0.2-0.2-0.5-0.4-0.7-0.5
				c-0.2-0.1-0.3-0.3-0.5-0.4c-0.2-0.2-0.4-0.4-0.7-0.5c-0.2-0.1-0.3-0.3-0.5-0.4c-0.2-0.2-0.4-0.3-0.6-0.5
				c-0.2-0.1-0.3-0.3-0.5-0.4c-0.2-0.2-0.4-0.3-0.6-0.5c-0.2-0.1-0.3-0.3-0.5-0.4c-0.2-0.2-0.4-0.3-0.6-0.5
				c-0.2-0.1-0.3-0.3-0.5-0.4c-0.2-0.2-0.4-0.3-0.6-0.5c-0.2-0.1-0.3-0.3-0.5-0.4c-0.2-0.1-0.4-0.3-0.6-0.4
				c-0.2-0.1-0.3-0.2-0.5-0.4c-0.2-0.1-0.4-0.3-0.6-0.4c-0.2-0.1-0.3-0.2-0.5-0.4c-0.2-0.1-0.4-0.3-0.6-0.4
				c-0.2-0.1-0.3-0.2-0.5-0.4c-0.2-0.1-0.4-0.3-0.5-0.4c-0.2-0.1-0.3-0.2-0.5-0.4c-0.2-0.1-0.3-0.2-0.5-0.4
				c-0.2-0.1-0.3-0.2-0.5-0.4c-0.2-0.1-0.3-0.2-0.5-0.3c-0.2-0.1-0.4-0.3-0.5-0.4c-0.1-0.1-0.3-0.2-0.4-0.3
				c-0.2-0.1-0.4-0.3-0.6-0.4c-0.1-0.1-0.3-0.2-0.4-0.3c-0.2-0.1-0.4-0.3-0.6-0.4c-0.1-0.1-0.2-0.2-0.3-0.2
				c-0.2-0.1-0.4-0.3-0.6-0.4c-0.1-0.1-0.2-0.1-0.3-0.2c-0.2-0.1-0.4-0.3-0.6-0.4c-0.1,0-0.1-0.1-0.2-0.1c-0.2-0.1-0.4-0.3-0.6-0.4
				c-0.1,0-0.1-0.1-0.2-0.1c-0.2-0.2-0.5-0.3-0.7-0.4c0,0,0,0-0.1,0c-2.6-1.7-4.5-2.9-5.4-3.5c-3.8,3.7-26.5,27.1-27.8,58.9
				c-0.1,1.2-0.1,2.5,0,3.7c0,0.4,0,0.8,0,1.2c0,0.8,0.1,1.7,0.1,2.5c0,0.5,0.1,0.9,0.1,1.4c0.1,0.8,0.1,1.5,0.2,2.3
				c0.1,0.5,0.1,1,0.2,1.5c0.1,0.7,0.2,1.5,0.4,2.2c0.1,0.5,0.2,1,0.3,1.5c0.1,0.8,0.3,1.5,0.5,2.3c0.1,0.5,0.2,0.9,0.3,1.4
				c0.2,0.8,0.4,1.7,0.7,2.5c0.1,0.4,0.2,0.8,0.3,1.2c0.7,2.4,1.6,4.8,2.6,7.2c0.2,0.4,0.3,0.8,0.5,1.1c0.4,0.8,0.7,1.6,1.1,2.4
				c0.2,0.5,0.4,0.9,0.7,1.4c0.4,0.7,0.7,1.5,1.1,2.2c0.3,0.5,0.5,1,0.8,1.4c0.4,0.7,0.8,1.4,1.2,2.2c0.3,0.5,0.6,1,0.9,1.4
				c0.4,0.7,0.9,1.5,1.4,2.2c0.3,0.5,0.6,0.9,0.9,1.4c0.5,0.8,1.1,1.6,1.6,2.3c0.3,0.4,0.5,0.8,0.8,1.2c0.8,1.1,1.7,2.3,2.6,3.4
				c0,0,0,0.1,0.1,0.1c0,0,0,0,0,0C190.8,259,188.6,249.3,188.9,239.8z"/>
			<path class="st0" d="M235.7,103.7L235.7,103.7c-15-18.9-46.9-33.5-68.1-43c-1.2-0.5-2.4-1.1-3.5-1.6
				c-39.9-18.2-112.2-40.8-113-41L49,17.3c-1.2-0.4-2.3,0.7-2,1.9l0.6,2.2C58.1,59,79,83.4,94.7,97.3c5.7,5,11.1,9.1,15.8,12.2
				l-36.7-8l-4.8-1l1.5,4.7c4.6,13.9,11.5,26,20.6,35.9c7.5,8.1,16.4,14.8,26.5,19.9c14.3,7.1,28.4,9.7,36.4,10.2
				c-3.2,13.6-3.2,27.5,0.2,41.2c3,11.9,8.4,23.7,16.1,35.1c13.1,19.4,28.2,30.8,28.9,31.3l6.3,4.7c1.2,0.9,2.8-0.5,2-1.8l-4.2-6.7
				c-9.8-15.4-12.8-30.9-9-46.1c6.7-27,33.1-45.4,40.2-50l4.1,3.9l1.4,1.3c0.6,0.6,1.7,0.4,2.1-0.3l0.9-1.7c8-15,8.1-33.8,8.1-34.6
				C250.6,131.3,245.2,115.7,235.7,103.7z M241.3,181.3c-0.1,0.3-0.4,0.5-0.7,0.5c-0.3,0-0.6,0-0.8-0.3l-4.7-4.4
				c-0.2-0.2-0.6-0.3-0.9-0.1c0,0-0.1,0.1-0.1,0.1c0,0-0.1,0.1-0.1,0.1c0,0,0,0,0,0c-0.4,0.2-0.8,0.5-1.3,0.8l-0.5,0.3
				c-1.4,0.9-3.5,2.4-6.2,4.4l-0.2,0.2c-0.2,0.1-0.4,0.3-0.6,0.4c-4.9,3.8-9.4,7.9-13.5,12.2c-0.3,0.3-0.6,0.7-0.9,1
				c-0.6,0.7-1.3,1.4-1.9,2.1c-0.3,0.4-0.6,0.7-0.9,1.1c-2,2.4-3.7,4.7-5.3,6.9c-0.3,0.4-0.6,0.8-0.8,1.2c-1.1,1.7-2.2,3.5-3.2,5.3
				c-0.7,1.3-1.3,2.4-1.9,3.6c-0.5,1-0.9,2-1.4,3.1c-0.2,0.5-0.4,0.9-0.6,1.4c-0.2,0.6-0.4,1.1-0.6,1.7c-0.2,0.4-0.3,0.8-0.4,1.2
				c-1.4,4.3-2.3,8.6-2.6,12.8c-0.1,1-0.1,1.8-0.2,2.7c-0.4,12,3.2,24.2,10.9,36.2c0,0,0,0.1,0.1,0.1c0,0,0,0,0,0
				c0.2,0.4,0.1,0.9-0.3,1.2c-0.2,0.1-0.4,0.2-0.6,0.2c-0.2,0-0.4-0.1-0.5-0.2c0,0-0.1,0-0.1,0c-0.6-0.5-16-12.1-29-31.6
				c-16.5-24.7-21.7-51.1-15-76.3c-7.1-0.3-63-4.4-83.5-63.1c0,0,0,0,0-0.1l-0.1-0.4c-0.2-0.5-0.3-0.9-0.5-1.4c-0.1-0.3,0-0.7,0.2-1
				c0.2-0.3,0.6-0.4,1-0.3L118,113l0-0.1c0,0,0,0,0,0c0,0,0,0,0,0l0.1-0.6c-16.1-9.5-53.6-36.8-68.8-91.3c0-0.1,0-0.1,0-0.2
				c0,0,0,0,0-0.1c0-0.1,0-0.2,0-0.3c0,0,0,0,0,0c0-0.1,0.1-0.2,0.1-0.3c0,0,0,0,0,0s0,0,0,0c0.1-0.1,0.1-0.2,0.2-0.2c0,0,0,0,0,0
				c0,0,0.1-0.1,0.1-0.1c0,0,0.1,0,0.1,0c0,0,0,0,0,0c0.1,0,0.2-0.1,0.3-0.1c0,0,0,0,0,0c0.1,0,0.2,0,0.3,0c0,0,0,0,0,0
				c0.7,0.2,72.6,22.6,112.8,40.9l3.6,1.6c21,9.5,52.6,23.9,67.3,42.5c9.2,11.6,14.4,26.7,14.8,42.4c0,0,0,0,0,0.1l0,0.2
				c0,0.1,0,0.1,0,0.2C249.1,148.4,249.1,166.7,241.3,181.3z"/>
			<path class="st0" d="M53.7,22.8C53.7,22.8,53.7,22.8,53.7,22.8c6.1,6.3,23.8,22.4,58.2,41.6C77.6,45.3,59.9,29,53.7,22.8z"/>
			<path class="st0" d="M49.9,19.8c-0.1,0-0.1,0.1-0.1,0.1c0.1-0.1,0.2-0.1,0.3-0.1C49.9,19.7,49.9,19.8,49.9,19.8z"/>
			<path class="st0" d="M159.1,155.9c-0.1,0-0.2,0-0.2-0.1c0,0-0.1,0-0.1,0c0,0,0.1,0,0.1,0C158.9,155.8,159,155.9,159.1,155.9z"/>
			<path class="st0" d="M121,113c-0.3-0.2-0.6-0.3-0.8-0.4l0,0C120.4,112.7,120.7,112.8,121,113z"/>
			<path class="st0" d="M160.5,156.2c-0.1,0-0.2,0-0.3,0C160.3,156.2,160.4,156.2,160.5,156.2C160.5,156.2,160.5,156.2,160.5,156.2z
				"/>
			<path class="st0" d="M167.8,142.4c0.3-0.6,0.6-1.1,0.9-1.7C168.4,141.2,168.1,141.8,167.8,142.4z"/>
			<path class="st0" d="M167.8,142.4c-2,3.6-4.5,8.4-6.4,13.2c0,0.1-0.1,0.2-0.2,0.3c0.1-0.1,0.1-0.2,0.2-0.3
				C163.3,150.8,165.8,145.9,167.8,142.4z"/>
			<path class="st0" d="M138.8,121.3C138.8,121.3,138.8,121.3,138.8,121.3c5.8,2.1,17.2,7.1,25.1,10.8
				C155.9,128.5,144.5,123.4,138.8,121.3C138.8,121.3,138.8,121.3,138.8,121.3z"/>
			<path class="st0" d="M156.3,153c1,0.3,2,0.6,3.1,0.9c0.2,0,0.3,0.1,0.5,0.1c0,0,0,0,0,0c-0.2,0-0.3-0.1-0.5-0.1
				C158.3,153.6,157.3,153.3,156.3,153z"/>
			<path class="st0" d="M214.3,160.5c-0.1-0.1-0.3-0.2-0.4-0.3C214,160.3,214.1,160.4,214.3,160.5z"/>
			<path class="st0" d="M174,221.9c0.1,1,0.1,1.9,0.2,2.9C174.1,223.8,174,222.8,174,221.9z"/>
			<path class="st0" d="M210.1,157.7c0,0-0.1,0-0.1-0.1C210,157.7,210.1,157.7,210.1,157.7z"/>
			<path class="st0" d="M209.2,157.1C209.2,157.1,209.1,157.1,209.2,157.1C209.1,157.1,209.2,157.1,209.2,157.1z"/>
			<path class="st0" d="M211.1,158.4c-0.1,0-0.1-0.1-0.2-0.1C210.9,158.3,211,158.3,211.1,158.4z"/>
			<path class="st0" d="M215.4,161.3c-0.1-0.1-0.3-0.2-0.4-0.3C215.1,161.1,215.2,161.2,215.4,161.3z"/>
			<path class="st0" d="M212.1,159c-0.1-0.1-0.2-0.1-0.3-0.2C211.9,158.9,212,159,212.1,159z"/>
			<path class="st0" d="M213.2,159.7c-0.1-0.1-0.2-0.1-0.3-0.2C212.9,159.6,213,159.7,213.2,159.7z"/>
			<path class="st0" d="M231.8,173.8c-0.2-0.2-0.4-0.4-0.7-0.6C231.3,173.4,231.5,173.6,231.8,173.8z"/>
			<path class="st0" d="M225.3,168.5c-0.2-0.2-0.4-0.3-0.6-0.5C224.8,168.2,225,168.3,225.3,168.5z"/>
			<path class="st0" d="M226.5,169.5c-0.2-0.2-0.4-0.3-0.6-0.5C226.1,169.2,226.3,169.3,226.5,169.5z"/>
			<path class="st0" d="M229.2,171.6c-0.2-0.2-0.4-0.3-0.6-0.5C228.7,171.2,228.9,171.4,229.2,171.6z"/>
			<path class="st0" d="M224,167.5c-0.2-0.2-0.4-0.3-0.6-0.5C223.6,167.2,223.8,167.3,224,167.5z"/>
			<path class="st0" d="M227.8,170.5c-0.2-0.2-0.4-0.3-0.6-0.5C227.4,170.2,227.6,170.4,227.8,170.5z"/>
			<path class="st0" d="M230.5,172.7c-0.2-0.2-0.4-0.4-0.7-0.5C230,172.3,230.2,172.5,230.5,172.7z"/>
			<path class="st0" d="M216.5,162.1c-0.2-0.1-0.3-0.2-0.5-0.3C216.2,161.9,216.4,162,216.5,162.1z"/>
			<path class="st0" d="M218.9,163.8c-0.2-0.1-0.4-0.3-0.5-0.4C218.6,163.5,218.8,163.7,218.9,163.8z"/>
			<path class="st0" d="M217.7,162.9c-0.2-0.1-0.3-0.2-0.5-0.3C217.4,162.7,217.6,162.8,217.7,162.9z"/>
			<path class="st0" d="M220.2,164.7c-0.2-0.1-0.4-0.3-0.6-0.4C219.8,164.4,220,164.5,220.2,164.7z"/>
			<path class="st0" d="M221.4,165.6c-0.2-0.1-0.4-0.3-0.6-0.4C221,165.3,221.2,165.4,221.4,165.6z"/>
			<path class="st0" d="M233,174.9c-0.2-0.2-0.4-0.4-0.7-0.6C232.6,174.5,232.8,174.7,233,174.9z"/>
			<path class="st0" d="M222.7,166.5c-0.2-0.1-0.4-0.3-0.6-0.4C222.3,166.2,222.5,166.4,222.7,166.5z"/>
			<path class="st0" d="M173.9,218.4c0,1,0,1.9,0.1,2.9C173.9,220.4,173.9,219.4,173.9,218.4z"/>
			<path class="st0" d="M182.1,251.7c0.3,0.7,0.7,1.3,1,2C182.8,253,182.4,252.3,182.1,251.7z"/>
			<path class="st0" d="M173.9,217.8c0-1,0-2,0.1-3C173.9,215.8,173.9,216.8,173.9,217.8z"/>
			<path class="st0" d="M175.9,234.9c0.2,0.9,0.5,1.9,0.7,2.8C176.4,236.8,176.1,235.8,175.9,234.9z"/>
			<path class="st0" d="M176.9,238.4c0.3,0.9,0.5,1.8,0.8,2.7C177.4,240.2,177.1,239.3,176.9,238.4z"/>
			<path class="st0" d="M189.5,264.1c0.5,0.8,1.1,1.5,1.7,2.3C190.6,265.6,190.1,264.9,189.5,264.1z"/>
			<path class="st0" d="M180.5,248.3c0.4,0.8,0.8,1.7,1.2,2.5C181.3,250,180.9,249.1,180.5,248.3z"/>
			<path class="st0" d="M179,244.8c0.3,0.9,0.7,1.7,1.1,2.6C179.7,246.5,179.4,245.6,179,244.8z"/>
			<path class="st0" d="M178,241.8c0.3,0.8,0.5,1.5,0.8,2.3C178.5,243.4,178.2,242.6,178,241.8z"/>
			<path class="st0" d="M183.6,254.5c0.4,0.8,0.9,1.6,1.4,2.4C184.5,256.1,184,255.3,183.6,254.5z"/>
			<path class="st0" d="M185.6,258c0.5,0.8,1,1.6,1.5,2.4C186.5,259.6,186,258.8,185.6,258z"/>
			<path class="st0" d="M174.2,224.9c0.1,1,0.2,2,0.4,2.9C174.4,226.9,174.3,225.9,174.2,224.9z"/>
			<path class="st0" d="M174.7,228.5c0.1,0.9,0.3,1.9,0.5,2.8C175,230.4,174.8,229.4,174.7,228.5z"/>
			<path class="st0" d="M175.3,231.9c0.2,0.9,0.4,1.8,0.6,2.6C175.6,233.7,175.4,232.8,175.3,231.9z"/>
			<path class="st0" d="M187.6,261.3c0.4,0.6,0.8,1.2,1.2,1.8C188.4,262.5,188,261.9,187.6,261.3z"/>
			<path class="st0" d="M210,160c0.2,0.1,0.4,0.3,0.6,0.4C210.4,160.3,210.2,160.2,210,160z"/>
			<path class="st0" d="M190.2,261.6c-0.3-0.5-0.6-0.9-0.9-1.4C189.6,260.7,189.9,261.1,190.2,261.6z"/>
			<path class="st0" d="M201.6,277.2c-0.2,0.2-0.5,0.3-0.7,0.3c-0.2,0-0.4-0.1-0.5-0.2c0.2,0.1,0.4,0.2,0.5,0.2
				c0.2,0,0.4-0.1,0.6-0.2c0.4-0.3,0.5-0.8,0.3-1.2C202,276.5,201.9,276.9,201.6,277.2z"/>
			<path class="st0" d="M195.4,268.6C195.3,268.5,195.3,268.5,195.4,268.6C195.3,268.5,195.3,268.5,195.4,268.6z"/>
			<path class="st0" d="M203.7,156c0.9,0.6,2.9,1.8,5.4,3.5C206.6,157.8,204.6,156.6,203.7,156c-3.8,3.7-26.5,27.1-27.8,58.9
				C177.2,183.2,199.9,159.7,203.7,156z"/>
			<path class="st0" d="M192.7,265.1c-0.3-0.4-0.5-0.8-0.8-1.2C192.2,264.3,192.4,264.7,192.7,265.1z"/>
			<path class="st0" d="M210.8,160.6c0.2,0.1,0.4,0.3,0.6,0.4C211.3,160.9,211,160.7,210.8,160.6z"/>
			<path class="st0" d="M179,238.6c-0.1-0.4-0.2-0.8-0.3-1.2C178.8,237.9,178.9,238.2,179,238.6z"/>
			<path class="st0" d="M211.7,161.2c0.2,0.1,0.4,0.3,0.6,0.4C212.1,161.5,211.9,161.3,211.7,161.2z"/>
			<path class="st0" d="M178,235c-0.1-0.5-0.2-0.9-0.3-1.4C177.8,234,177.9,234.5,178,235z"/>
			<path class="st0" d="M188,258.1c-0.3-0.5-0.6-0.9-0.9-1.4C187.4,257.1,187.7,257.6,188,258.1z"/>
			<path class="st0" d="M176.1,223.8c0-0.5-0.1-0.9-0.1-1.4C176.1,222.9,176.1,223.3,176.1,223.8z"/>
			<path class="st0" d="M177.2,231.3c-0.1-0.5-0.2-1-0.3-1.5C177,230.3,177.1,230.8,177.2,231.3z"/>
			<path class="st0" d="M175.9,219.9c0-0.4,0-0.8,0-1.2C175.9,219.1,175.9,219.5,175.9,219.9z"/>
			<path class="st0" d="M185.9,254.5c-0.3-0.5-0.5-1-0.8-1.4C185.3,253.5,185.6,254,185.9,254.5z"/>
			<path class="st0" d="M209.2,159.5c0.2,0.1,0.4,0.3,0.7,0.4C209.6,159.8,209.4,159.6,209.2,159.5z"/>
			<path class="st0" d="M183.9,250.8c-0.2-0.5-0.5-0.9-0.7-1.4C183.5,249.9,183.7,250.4,183.9,250.8z"/>
			<path class="st0" d="M182.2,247c-0.2-0.4-0.3-0.8-0.5-1.1C181.8,246.3,182,246.6,182.2,247z"/>
			<path class="st0" d="M176.6,227.6c-0.1-0.5-0.1-1-0.2-1.5C176.4,226.6,176.5,227.1,176.6,227.6z"/>
			<path class="st0" d="M219.8,166.9c0.2,0.1,0.3,0.2,0.5,0.4C220.2,167.2,220,167,219.8,166.9z"/>
			<path class="st0" d="M226.6,172.1c0.2,0.1,0.3,0.3,0.5,0.4C226.9,172.3,226.7,172.2,226.6,172.1z"/>
			<path class="st0" d="M227.7,173c0.2,0.1,0.3,0.2,0.5,0.4C228,173.3,227.9,173.1,227.7,173z"/>
			<path class="st0" d="M218.8,166.1c0.2,0.1,0.3,0.2,0.5,0.4C219.1,166.4,218.9,166.2,218.8,166.1z"/>
			<path class="st0" d="M225.4,171.2c0.2,0.1,0.3,0.3,0.5,0.4C225.7,171.4,225.6,171.3,225.4,171.2z"/>
			<path class="st0" d="M220.9,167.7c0.2,0.1,0.3,0.2,0.5,0.4C221.3,168,221.1,167.8,220.9,167.7z"/>
			<path class="st0" d="M223.2,169.4c0.2,0.1,0.3,0.3,0.5,0.4C223.5,169.7,223.3,169.5,223.2,169.4z"/>
			<path class="st0" d="M222,168.6c0.2,0.1,0.3,0.3,0.5,0.4C222.4,168.8,222.2,168.7,222,168.6z"/>
			<path class="st0" d="M224.3,170.3c0.2,0.1,0.3,0.3,0.5,0.4C224.6,170.5,224.5,170.4,224.3,170.3z"/>
			<path class="st0" d="M212.7,161.8c0.2,0.1,0.4,0.3,0.6,0.4C213,162.1,212.9,162,212.7,161.8z"/>
			<path class="st0" d="M214.6,163.2c0.2,0.1,0.4,0.2,0.5,0.4C215,163.4,214.8,163.3,214.6,163.2z"/>
			<path class="st0" d="M231.1,175.9c0.1,0.1,0.3,0.3,0.4,0.4C231.4,176.1,231.3,176,231.1,175.9z"/>
			<path class="st0" d="M213.6,162.5c0.2,0.1,0.4,0.3,0.6,0.4C214,162.7,213.8,162.6,213.6,162.5z"/>
			<path class="st0" d="M215.6,163.9c0.2,0.1,0.3,0.2,0.5,0.4C216,164.1,215.8,164,215.6,163.9z"/>
			<path class="st0" d="M216.6,164.6c0.2,0.1,0.3,0.2,0.5,0.4C217,164.8,216.8,164.7,216.6,164.6z"/>
			<path class="st0" d="M230,174.9c0.2,0.1,0.3,0.3,0.5,0.4C230.3,175.1,230.1,175,230,174.9z"/>
			<path class="st0" d="M228.8,173.9c0.2,0.1,0.3,0.3,0.5,0.4C229.2,174.2,229,174.1,228.8,173.9z"/>
			<path class="st0" d="M217.7,165.4c0.2,0.1,0.3,0.2,0.5,0.4C218,165.6,217.9,165.5,217.7,165.4z"/>
		</g>
		<g>
			<path class="st0" d="M313.4,61.6c-0.3,0-0.7,0.1-1,0.1c-1.2,0.2-2.4,0.4-3.6,0.6c-0.3,0.1-0.6,0.1-0.9,0.2
				c-1.1,0.2-2.1,0.4-3.2,0.6c-0.3,0.1-0.6,0.1-1,0.2c-1,0.2-2,0.4-3,0.6c-0.3,0.1-0.7,0.1-1,0.2c-1,0.2-2,0.5-3,0.7
				c-0.4,0.1-0.7,0.2-1.1,0.3c-1,0.3-1.9,0.5-2.8,0.8c-0.3,0.1-0.7,0.2-1,0.3c-0.9,0.3-1.8,0.5-2.7,0.8c-0.3,0.1-0.6,0.2-0.9,0.3
				c-0.8,0.2-1.5,0.5-2.2,0.7c-0.3,0.1-0.7,0.2-1,0.4c-0.8,0.3-1.5,0.5-2.2,0.8c-0.3,0.1-0.6,0.2-0.9,0.3c-0.8,0.3-1.6,0.6-2.3,0.9
				c-0.3,0.1-0.6,0.2-0.9,0.4c-0.7,0.3-1.5,0.6-2.2,0.9c-0.3,0.1-0.6,0.3-0.8,0.4c-0.7,0.3-1.4,0.7-2.1,1c-0.2,0.1-0.5,0.2-0.7,0.4
				c-0.6,0.3-1.2,0.6-1.7,0.9c-0.3,0.1-0.5,0.3-0.8,0.4c-0.6,0.3-1.2,0.6-1.8,1c-0.2,0.1-0.5,0.3-0.7,0.4c-0.6,0.3-1.2,0.7-1.8,1
				c-0.2,0.1-0.4,0.3-0.6,0.4c-0.6,0.3-1.1,0.7-1.7,1c-0.2,0.1-0.4,0.3-0.6,0.4c-0.5,0.4-1.1,0.7-1.6,1.1c-0.1,0.1-0.3,0.2-0.4,0.3
				c-0.5,0.3-0.9,0.6-1.3,1c-0.1,0.1-0.3,0.2-0.4,0.3c-0.5,0.4-1,0.7-1.4,1.1c-0.1,0.1-0.3,0.2-0.4,0.3c-0.5,0.4-0.9,0.7-1.3,1.1
				c-0.1,0.1-0.3,0.2-0.4,0.3c-0.4,0.4-0.8,0.7-1.2,1c-0.1,0.1-0.2,0.2-0.3,0.3c-0.4,0.4-0.8,0.7-1.2,1.1c-0.1,0.1-0.1,0.1-0.2,0.2
				c-0.3,0.3-0.7,0.6-1,1c-0.1,0.1-0.1,0.1-0.2,0.2c-0.3,0.3-0.7,0.7-1,1c-0.1,0.1-0.2,0.2-0.2,0.2c-0.3,0.3-0.6,0.6-0.9,1
				c-0.1,0.1-0.1,0.2-0.2,0.2c-0.3,0.3-0.6,0.6-0.8,0.9c-0.1,0.1-0.1,0.1-0.2,0.2c-0.3,0.3-0.5,0.6-0.8,0.9c0,0-0.1,0.1-0.1,0.1
				c-0.2,0.3-0.5,0.6-0.7,0.8c0,0-0.1,0.1-0.1,0.1c-0.2,0.3-0.4,0.5-0.6,0.8c0,0-0.1,0.1-0.1,0.1c-0.2,0.2-0.4,0.5-0.5,0.7
				c0,0-0.1,0.1-0.1,0.1c-0.2,0.2-0.3,0.4-0.4,0.6c0,0,0,0.1-0.1,0.1c-0.1,0.2-0.3,0.4-0.4,0.6c0,0,0,0,0,0
				c6.3,7.9,10.7,17.1,13.2,27.4c2.2-9.5,8.8-30.4,27.3-46.2c9.2-7.8,20.1-13.5,32.6-16.9c-0.1,0-0.3,0-0.4,0
				C315.9,61.3,314.7,61.4,313.4,61.6z"/>
			<path class="st0" d="M358.4,58c0,0-14.8-2-23.9-1.9h-1c-1,0-2.1,0-3.2,0c-4.2,0.1-9.1,0.4-14.4,0.6c-8.3,0.5-17.8,1-27.4,1
				c-7.2,0-13.5-0.3-19.3-0.9l-1-0.1c-3.9-0.4-7.8-0.8-12-0.8c-10.3,0-25.2,2.4-36,22.8l-1.4,2.7l2.8,1.2c0.1,0,10.3,4.6,19.5,15.8
				l0.3,0.4c7,8.8,11.6,19.2,13.5,30.9c0,0,1.2,6.1,1.2,12.3h2.8c0,0,0.7-7.9,1.5-12.5c0-0.3,3.6-28.9,27-48.9
				c11.2-9.6,25.2-15.8,41.7-18.3c1.8-0.3,3.6-0.5,5.6-0.7c0,0,8.2-1.6,23.2-0.9L358.4,58L358.4,58z M334.6,60
				c-2,0.2-3.9,0.5-5.7,0.8c-16.8,2.6-31.1,8.9-42.6,18.8c-24,20.5-27.6,49.8-27.6,50.1c-0.1,0.5-0.5,0.9-1,0.9c0,0,0,0,0,0
				c-0.5,0-0.9-0.4-1-0.8c-2-12-6.7-22.7-13.9-31.7c-0.1-0.1-0.2-0.2-0.2-0.3l-0.1-0.1c0,0,0,0,0,0c-9.5-11.7-20.1-16.4-20.2-16.4
				c-0.3-0.1-0.5-0.3-0.5-0.6s-0.1-0.6,0.1-0.8c13-24.5,31.4-22.6,46.3-21.1l1,0.1c15.6,1.6,33,0.7,46.9-0.1
				c5.2-0.3,10.2-0.5,14.3-0.6c0,0,0,0,0,0c1.5,0,2.9,0,4.1,0c0.5,0,1,0.4,1,1C335.5,59.4,335.1,59.9,334.6,60z"/>
			<path class="st0" d="M268.9,60.7l-1-0.1c-14.8-1.5-31.5-3.3-43.8,19.1c2.8,1.4,11.1,6,19.1,15.4c0,0,0,0,0-0.1
				c0.1-0.2,0.2-0.4,0.4-0.5c0,0,0.1-0.1,0.1-0.1c0.1-0.2,0.2-0.3,0.4-0.5c0-0.1,0.1-0.1,0.1-0.2c0.2-0.2,0.3-0.4,0.5-0.7
				c0-0.1,0.1-0.1,0.1-0.2c0.2-0.2,0.3-0.4,0.5-0.6c0-0.1,0.1-0.1,0.1-0.2c0.2-0.2,0.4-0.5,0.6-0.8c0.1-0.1,0.1-0.1,0.2-0.2
				c0.2-0.3,0.4-0.5,0.7-0.8c0,0,0.1-0.1,0.1-0.1c0.2-0.3,0.5-0.5,0.7-0.8c0.1-0.1,0.1-0.2,0.2-0.2c0.3-0.3,0.5-0.6,0.8-0.9
				c0.1-0.1,0.1-0.1,0.2-0.2c0.3-0.3,0.5-0.5,0.8-0.8c0.1-0.1,0.2-0.2,0.2-0.2c0.3-0.3,0.6-0.6,1-0.9c0.1-0.1,0.2-0.2,0.3-0.3
				c0.3-0.3,0.6-0.6,0.9-0.9c0.1-0.1,0.1-0.1,0.2-0.2c0.4-0.3,0.7-0.7,1.1-1c0.1-0.1,0.2-0.2,0.3-0.3c0.4-0.3,0.8-0.7,1.2-1
				c0,0,0.1-0.1,0.1-0.1c0.4-0.3,0.8-0.6,1.2-1c0.1-0.1,0.2-0.2,0.4-0.3c0.5-0.3,0.9-0.7,1.4-1c0.1-0.1,0.2-0.2,0.3-0.2
				c0.4-0.3,0.8-0.6,1.3-0.9c0.1-0.1,0.2-0.2,0.4-0.2c0.5-0.4,1-0.7,1.6-1.1c0.1-0.1,0.3-0.2,0.4-0.3c0.5-0.3,1-0.6,1.5-1
				c0.1-0.1,0.2-0.1,0.2-0.2c0.6-0.4,1.2-0.7,1.8-1.1c0.2-0.1,0.3-0.2,0.5-0.3c0.6-0.4,1.2-0.7,1.9-1.1c0.1,0,0.2-0.1,0.2-0.1
				c0.6-0.3,1.2-0.6,1.8-1c0.2-0.1,0.3-0.2,0.5-0.3c0.7-0.3,1.4-0.7,2.1-1c0.2-0.1,0.3-0.1,0.5-0.2c0.6-0.3,1.3-0.6,1.9-0.9
				c0.1-0.1,0.3-0.1,0.4-0.2c0.7-0.3,1.5-0.7,2.3-1c0.2-0.1,0.4-0.2,0.6-0.2c0.8-0.3,1.5-0.6,2.3-0.9c0.1,0,0.1,0,0.2-0.1
				c0.8-0.3,1.7-0.6,2.5-1c0.2-0.1,0.4-0.1,0.6-0.2c0.9-0.3,1.7-0.6,2.6-0.9c0.1,0,0.2-0.1,0.3-0.1c0.8-0.3,1.7-0.5,2.5-0.8
				c0.2-0.1,0.4-0.1,0.6-0.2c0.9-0.3,1.9-0.6,2.8-0.8c0.2-0.1,0.4-0.1,0.6-0.2c0.9-0.2,1.8-0.5,2.7-0.7c0.1,0,0.3-0.1,0.4-0.1
				c1-0.3,2.1-0.5,3.1-0.7c0.2-0.1,0.5-0.1,0.7-0.2c1.1-0.2,2.2-0.5,3.3-0.7C292.4,61.7,280.2,61.8,268.9,60.7z"/>
		</g>
		<path class="st0" d="M248.1,147.2C248.1,147.2,248.1,147.2,248.1,147.2"/>
	</g>
	<g>
		<path class="st0" d="M175.9,351.4h12.6v8.6h-23.9v-40.6h11.3L175.9,351.4L175.9,351.4z"/>
		<path class="st0" d="M204.2,319.5v40.6h-11.3v-40.6H204.2z"/>
		<path class="st0" d="M236.6,332.8c-0.6-1.1-1.6-1.9-2.7-2.5c-1.1-0.6-2.5-0.9-4-0.9c-2.8,0-5.1,0.9-6.7,2.8
			c-1.6,1.8-2.4,4.3-2.4,7.4c0,3.5,0.9,6.2,2.6,8s4.3,2.7,7.6,2.7c4,0,6.8-1.8,8.5-5.4h-11.4v-8.1h21.1v11c-0.9,2.1-2.2,4.2-3.9,6
			c-1.7,1.9-3.9,3.4-6.5,4.6s-5.6,1.8-8.9,1.8c-4.1,0-7.7-0.9-10.8-2.6s-5.6-4.2-7.3-7.3c-1.7-3.1-2.6-6.7-2.6-10.8
			s0.9-7.6,2.6-10.7c1.7-3.1,4.1-5.6,7.2-7.3s6.7-2.6,10.8-2.6c5.1,0,9.3,1.2,12.7,3.7c3.3,2.5,5.4,5.8,6.2,10.1L236.6,332.8
			L236.6,332.8z"/>
		<path class="st0" d="M280,353.5h-14.4l-2.2,6.6h-11.9l14.8-40.6h13l14.8,40.6h-11.9L280,353.5L280,353.5z M277.2,344.8l-4.4-13.1
			l-4.3,13.1H277.2z"/>
	</g>
	<path class="st0" d="M63.2,382v55c0,2.8-2.2,5-5,5h-13v-21.3H24v21.4H6.1v-54.5c0-3,2.5-5.5,5.5-5.5H24v21.6h21.2v-21.6h18V382z"/>
	<path class="st0" d="M195.4,386.8V438c0,2.8-2.2,5-5,5h-10.3c-2.3,0-4.3-1.3-5.4-3.3L158.6,408v32c0,1.7-1.3,3-3,3h-8.4
		c-2.8,0-5-2.2-5-5v-50.2c0-3.3,2.7-6,6-6h5.8c3.9,0,7.5,2.2,9.2,5.7l15.7,31.4v-33.6c0-1.9,1.6-3.5,3.5-3.5h7.9
		C193.2,381.8,195.4,384,195.4,386.8L195.4,386.8z"/>
	<path class="st0" d="M103.1,380.4c-17.4,0-31.5,14.4-31.5,32.1s14.1,32.1,31.5,32.1s31.5-14.4,31.5-32.1S120.5,380.4,103.1,380.4z
		 M103.1,429.8c-7.1,0-12.8-7.7-12.8-17.3s5.7-17.3,12.8-17.3s12.8,7.7,12.8,17.3S110.2,429.8,103.1,429.8z"/>
	<path class="st0" d="M225.5,380.4c-8.7,0-15.5,1-21.5,4.2c-0.9,0.5-2.1,1.7-2.1,3v48.9c1.7,4.8,8.2,7.2,13.9,7.2h13.4
		c10.3,0,19.9-5.8,24.3-15.1c2.2-4.7,3.5-10.1,3.5-15.9C257,394.9,246.2,380.4,225.5,380.4L225.5,380.4z M238.7,415.1
		c0,8.3-5.5,14.3-12.3,14.3h-7.5v-33.8h7.5c3.4,0,6.5,1.3,8.7,3.6c2.2,2.3,3.6,5.6,3.6,9.7V415.1z"/>
	<path class="st0" d="M317.4,389.6v36.2c0,6.6-4,12.7-10.2,15.1c-2.1,0.8-4.4,1.5-6.8,2c-2.9,0.6-6,0.9-9.2,0.9s-6-0.3-8.9-0.9
		c-1.2-0.2-2.4-0.5-3.5-0.9c-8.2-2.4-13.8-10-13.8-18.6v-38.9c0-0.7,0.3-1.3,0.9-1.7l0,0c1.4-0.9,4.5-1.4,8.4-1.4l0,0
		c4.4,0,8,3.6,8,8v29.4c0,5.1,4.3,9.2,9.6,9.2c3.7,0,8.3-2.3,8.5-7.2v-37.4l0,0c0.6-1.2,4.3-2,9-2l0,0
		C313.8,381.6,317.4,385.2,317.4,389.6L317.4,389.6z"/>
	<path class="st0" d="M364.9,411c0.9,0,2.9-0.7,4.8-2.8c1.8-2.1,3.5-5.6,3.5-11.3c0-3.9-0.8-15.7-22.3-15.7h-9.4
		c-4.1,0-15.9,2.5-15.9,6.4v48.5c0,0,2.3,7.7,14.5,7.7h14.1c6.7,0,21.3-5,21.3-17.1v-3.8C375.4,416.1,371,411.1,364.9,411L364.9,411
		z M341.4,394.5h9.5c4.2,0,6,2.7,6,6s-2.5,6-6.3,6h-9.2V394.5L341.4,394.5z M352,429.9h-10.6v-12h10.3c5,0,7,2.7,7,6
		S356,429.9,352,429.9z"/>
	<path class="st0" d="M426,431.5v4.5c0,3.5-2.9,6.4-6.4,6.4h-29c-4.4,0-8-3.6-8-8v-43.2c0-4.8,3.9-8.7,8.7-8.7h31.8
		c1.3,0,2.3,1,2.3,2.3v6.6c0,2.7-2.2,4.9-4.9,4.9h-20.9v9.3h20.7c1.3,0,2.4,1.1,2.4,2.4v5c0,3.3-2.6,5.9-5.9,5.9h-17.2v9.9h23.7
		C424.8,428.9,426,430.1,426,431.5L426,431.5z"/>
	<path class="st0" d="M482.7,386.9v5.6c0,2.4-1.9,4.2-4.2,4.2H466c-0.5,0-0.9,0.4-0.9,0.9v44.8h-11.3c-3.1,0-5.7-2.5-5.7-5.7v-39.3
		c0-0.4-0.3-0.6-0.6-0.6h-13.2c-1.1,0-2-0.9-2-2v-7.1c0-2.8,2.3-5.1,5.1-5.1h40.9C480.7,382.5,482.7,384.5,482.7,386.9z"/>
	<polygon class="st0" points="240.1,236.5 233.8,226.3 231.1,238.1 219.4,240.9 229.8,247.1 228.9,259.1 238,251.1 249.1,255.7 
		244.3,244.6 252.1,235.4 	"/>
	<path class="st0" d="M273.4,230.1l0.2,0.1l-0.4-0.6C273.3,229.8,273.3,229.9,273.4,230.1z"/>
	<path class="st0" d="M271.1,229.3l2.3,0.8c0-0.2-0.1-0.3-0.1-0.5c-0.7-2.4-1.7-4.8-2.9-7c-6.6-11.4-19.7-19.5-33.8-19.5
		c-5.7,0-11,1.2-15.9,3.3l0,0l0,0c0,0-0.1,0-0.1,0.1c-0.7,0.3-3.8,1.6-9.7,3.2c-0.1,0-0.2,0.2-0.1,0.3l1.6,1.4l1.2,1
		c0,0-1.9,2.6-3.5,5.4c-0.9,1.6-1.7,3.2-2,4.4c0,0,0.8,0,3.1-2.8c2-2.3,4.8-3.9,4.8-3.9s2.3,0.8,7.1,5.2l1-7.5
		c0.2-1.3,1-2.3,2.2-2.8l8.6-3.4h-7.5c3.3-1.5,6.2-1.8,10.1-1.8c7.7,0,19.9,3.8,26.3,9.8c-0.2,0.7-0.7,2.8-1.3,3.9
		c0,0-6.8-3.4-11.3-3.5c0,0,5.9,4.5,8.4,7c0.3,0.3,0.3,0.7,0.1,1c-0.7,1.1-1.6,2.8-4.4,6.6l8.1-1.1c1-0.2,2,0.3,2.6,1.2l5.4,8.2
		c0,0-0.1-4.7-0.5-9l0,0C270.9,229.3,271,229.2,271.1,229.3z"/>
	<path class="st0" d="M264.8,259.2c-3.1,3.6-5.5,6-6.6,7.1c-0.4,0.4-1.1,0.5-1.6,0.1c-2.1-1.6-4.2-3-5.6-4.4l0.4,5l0.2,2.6
		c0.1,0.7-0.2,1.5-0.8,1.9c-3.6,2.8-10.2,5.7-20.7,3.8c-16.5-3-22.6-13-23.6-14.9l0.1-0.3l1.4-5l5.9,2.2c-0.3-1.1-2.7-4.8-3.6-6.3
		c-0.2-0.4-0.3-0.9,0-1.3l4.7-7.9l-6.6,2.1c-0.7,0.2-1.4-0.2-1.4-1c0-1.5,0-3.7,0.1-5.1c0.2-2-0.1-3.7-0.1-3.7
		c-0.7,1.2-2.8,8.1-3.5,11.2c-0.4,1.9-1,2.7-1.5,3c0.7,4.4,2.2,8.5,4.4,12.2c6.4,11.2,18.4,18.7,32.2,18.7c5.2,0,10.1-1.1,14.6-3
		c3.8-1.6,7.2-3.9,10.2-6.7l-2.1-0.3C265.6,260.4,264.8,259.2,264.8,259.2z"/>
</g>
<path class="st1" d="M-571.7-100.3L-571.7-100.3"/>
<path class="st1" d="M-193.7,79.5L-193.7,79.5"/>
</svg>
