<?xml version="1.0" encoding="utf-8"?>
<!-- Generator: Adobe Illustrator 27.2.0, SVG Export Plug-In . SVG Version: 6.00 Build 0)  -->
<svg version="1.1" id="Capa_1" xmlns="http://www.w3.org/2000/svg" xmlns:xlink="http://www.w3.org/1999/xlink" x="0px" y="0px"
	 viewBox="0 0 548 694.2" style="enable-background:new 0 0 548 694.2;" xml:space="preserve">
<style type="text/css">
	.st0{fill:#FFFFFF;}
</style>
<path class="st0" d="M428,9.9c-19.5,5.4-70.8,19.3-114,31c-43.2,11.6-79,21.7-79.7,22.3c-0.7,0.7-5.9,14.2-11.6,30.2l-10.4,29
	l27.7,0.5l27.8,0.5l-3.8,13c-2.1,7.1-8.4,29.2-14,49c-17.8,62.8-71,249.7-73,256.5c-4.3,14.5-4.8,17-4.2,17.2
	c0.4,0.2,43.6,0.1,96.1-0.2l95.4-0.5l3.9-14c9.4-34,11.1-40.1,11.5-41.3c0.4-0.9-12.9-1.2-64.6-1.2c-35.8,0-65.1-0.2-65.1-0.4
	s1.4-5,3-10.7c4.8-16.5,5.6-19.5,10.5-36.9c2.5-9.1,5.5-19.4,6.5-23c3-10.2,5.4-18.8,12.4-43.5c3.6-12.7,14.8-52.3,25-88
	C334,105.7,336,98.5,336,97.3c0-1,42.4-12.4,45.8-12.4c0.7,0,1.1,0.4,0.8,0.8c-0.3,0.5-1.9,5.8-3.5,11.8c-5,18.4-22.9,83.5-25,90.9
	c-3.7,13.2-12.2,44-22.8,82.5c-18,66-23.3,85.5-23.3,86.3c0,0.4,13.6,0.6,30.2,0.5l30.2-0.3l0.7-2.5c0.4-1.4,3.9-14.2,7.9-28.5
	c3.9-14.3,10.5-38.2,14.7-53c4.1-14.9,8.1-29.3,8.8-32c2.1-7.9,20.6-74.4,31.5-113.5c2.7-9.6,7.4-26.7,10.5-38
	c6.6-23.9,11.8-42.6,18.5-67c6.8-24.3,6.6-23,4.4-22.9C464.3,0.1,447.5,4.5,428,9.9 M169.8,508.4c-18.9,4.8-28.2,16.4-32.6,40.5
	c-2.5,14.1-2.5,90.2,0.1,103.7c4.2,22.8,12.8,34.1,29.7,39.4c7.5,2.3,27.9,2.9,36.4,0.9c11.5-2.6,22.1-10.2,26.6-19
	c5.2-10.2,6.2-17.5,6.7-48.3c0.3-15.8,0.2-30.3-0.1-32.2l-0.7-3.5l-24.1,0.2l-24.1,0.3l-3.8,10.5c-2.1,5.8-3.8,11.1-3.8,11.7
	c-0.1,1,3.4,1.3,14.4,1.3H209v14.7c0,22.8-2.2,32.2-8.3,36.7c-2.4,1.8-4.3,2.1-13,2.1c-12.4,0-15.3-1.2-18.4-7.5
	c-3.7-7.4-4.5-21.5-4-66.9c0.3-31.2,0.8-41.9,1.9-46.1c2.9-11,5.8-13,18.6-13c7.6,0,9.4,0.3,12.3,2.3c1.9,1.2,4,3.6,4.8,5.2
	c1.8,3.8,3.4,18.5,2.8,26.2c-0.3,3.5-0.1,6.3,0.3,6.3c0.5,0,7-2.9,14.6-6.5l13.7-6.5l-0.6-9.8c-1.2-21.6-9.8-34.9-26.6-41.3
	C199.8,507,178.5,506.2,169.8,508.4 M525.5,513.4c-12.1,3.6-22.7,6.8-23.5,7.3c-1.1,0.7-5.7,16.4-6,20.4c0,0.5,5.2,0.8,11.5,0.8H519
	v150h29v-92.5c0-50.9-0.1-92.5-0.2-92.4C547.6,507,537.6,509.9,525.5,513.4 M0.7,509.6C0.3,509.9,0,551.1,0,601.1v90.8h69.6l3.1-13
	l3-13H29v-157H15.2C7.6,508.9,1,509.2,0.7,509.6 M87.7,509.5c-0.4,0.4-0.7,41.6-0.7,91.6v90.8h30l-0.2-91.3l-0.3-91.2l-14.1-0.3
	C94.7,509,88.1,509.2,87.7,509.5 M255.4,510.2c-0.2,0.7-0.3,36.2-0.2,78.8c0.3,70.9,0.5,77.8,2.1,82.7c2.6,7.7,5.4,11.9,10.5,15.8
	c6.9,5.2,13.5,6.8,26.7,6.1c6-0.3,12-0.9,13.3-1.4c1.6-0.6,4.5-4.8,8.8-12.4l6.4-11.4v23.5h30l-0.2-91.3l-0.3-91.2h-29l-0.3,76.6
	l-0.2,76.7l-2.8,1.1c-4.2,1.7-12.9,3.1-19.4,3.1c-6.9,0-12.1-1.9-14-5.2c-1-1.8-1.4-17.4-1.8-77.3l-0.5-75l-14.3-0.3
	C258.9,508.9,255.8,509.1,255.4,510.2 M373.7,509.6c-0.4,0.3-0.7,41.5-0.7,91.5v90.8h72.8l1.6-7.3c0.9-3.9,2.3-9.8,3.1-12.9l1.3-5.8
	H402v-57h31.6l2.7-11.8c1.5-6.4,2.7-12.3,2.7-13c0-0.9-4.4-1.2-18.5-1.2H402v-47.5l23.5,0.2c21.7,0.2,23.5,0.1,23.5-1.5
	c-0.1-0.9-1.4-6.9-2.9-13.2l-2.9-11.5l-34.4-0.3C389.9,509,374.1,509.2,373.7,509.6"/>
</svg>
