<?xml version="1.0" encoding="utf-8"?>
<!-- Generator: Adobe Illustrator 27.2.0, SVG Export Plug-In . SVG Version: 6.00 Build 0)  -->
<svg version="1.1" id="Capa_1" xmlns="http://www.w3.org/2000/svg" xmlns:xlink="http://www.w3.org/1999/xlink" x="0px" y="0px"
	 viewBox="0 0 270.8 369.2" style="enable-background:new 0 0 270.8 369.2;" xml:space="preserve">
<style type="text/css">
	.st0{fill:#FFFFFF;}
</style>
<g>
	<path class="st0" d="M12.4,299h14v-14.8H36c-22.9-26-35.3-55.7-35.9-89.8s9.8-64.8,32.5-90.1c42.6-47.5,95-58.2,155.1-37.9
		c12.1-19.8,16.1-42,14.8-66.4c12.2,13.6,24,26.2,32.3,41.9c-0.8,3.1-1.7,6.4-2.5,9.8c4.1,9,7.8,18.2,10.3,28
		c-0.8,1.3-1.6,2.9-2.5,4.6c1.6,8,2.7,16.2,3.1,24.5c0.1,1.3,0.7,2.2,1.4,3.2c38,51.8,34.1,122.6-7.9,170c-0.4,0.5-0.8,1-1.6,2.1
		h9.4V299h14.1v70.3H12.4L12.4,299z M66.3,122c-0.2-0.4-0.4-0.7-0.8-0.2c0.1,0.2,0.2,0.5,0.3,0.7c2.1,3.8,4.2,7.5,6.3,11.4
		C58.2,149.4,51,167.4,49.6,188c-4.5,1.2-13.1,4-13.1,4.2c4.4,1.2,8.7,2.4,13.2,3.6c1.3,20.8,8.7,38.8,22.4,54.1
		c-2.1,3.8-4,7.4-6,11c-0.2,0.3-0.3,0.6-0.7,1.2c0.7-0.2,8.7-4.6,12.3-6.7c11,10,23.7,16.5,37.7,20.2c-2.8,15.7,7.5,28.3,22.5,26.7
		c3.6-0.4,6.9-1.8,9.8-4c7.6-6,9.5-13.9,7.7-22.8c14.4-3.7,26.9-10.3,37.8-20.1c4,2.3,11.7,6.5,12,6.4c-2.2-3.8-4.2-7.9-6.5-11.7
		c13.9-15.5,21.2-33.5,22.5-54.1c4.5-1.3,8.8-2.5,14.2-4c-5.5-1.5-9.8-2.6-14.2-3.8c-0.5-6.6-1.5-12.8-2.9-18.7
		c4.1-8.3,7-16.8,9.2-25.6c1.3-0.8,2.6-1.5,3.8-2.2c2.4-9.3,2.8-18.7,3.2-27.9c1.2-1,2.1-1.8,3.2-2.7c-0.2-9.7-1.5-19.1-3.7-28.3
		c0.9-1.4,1.7-2.6,2.5-3.9c-2.4-9.6-6-18.6-10.3-27.2c0.7-3.5,2.3-6.5,2.3-9.9c-5.6-9.6-12.1-18.3-20.3-26.8
		c-0.2,3.4-0.2,5.7-0.4,8.1c-3.7,37.6-22.1,65.2-56.3,81.8c-4.1,2-8.1,1.5-12.1,1c-1.7-3.8-1.7-7.9-4-12.2
		c-1.3,4.6-2.4,8.5-3.5,12.4c-20.7,1.2-38.7,8.7-54,22.3L66.3,122z M108.1,279.5c-11.8-3.7-22.4-9.7-31.9-17.5
		c-8.3,4.8-24.9,13.8-25.1,13.6l14.3-24.5c-9.6-11.7-16.1-24.5-19.4-39c-0.2-0.6-0.2-1.5-0.7-1.8c-4.3-2.9-4.4-6.7-1.8-11
		c-9.4-2.5-27.4-7.7-27.3-7.9c9.1-2.4,18.2-4.8,27.4-7.2c-2.6-5.3-2.5-6.7,1.2-10.2c1-1,1.3-2.2,1.6-3.5c3.2-13.2,9-25.1,17.4-35.7
		c0.6-0.8,1.6-1.4,1.5-2.7c-4.6-7.9-13.4-24.4-13.2-24.6l24.2,14.1c12-9.9,25.5-16.6,40.5-19.8c3.9-4.5,5.6-4.8,11.3-2.3
		c2.4-8.9,7.5-26.4,7.8-26.4c2.3,8.8,4.6,17.5,7.1,26.9c2.7-2.7,5.6-2.1,8.6-1.6c12.7-6.6,23.7-15.2,32.3-26.8
		C137.8,52.6,75.4,61,35.3,109.5c-18.7,22.7-28.7,48.9-29.5,78.4c-0.2,10.1,0.3,27.5,7.1,47.5c9.4,27.5,25.6,45.4,35.2,54.5h-16v15
		H18v58.8h234.7v-58.9h-14v-14.9H221c24.9-23.1,39.3-50.5,43.3-83.4c3.7-29.8-9.5-79.5-24.6-89.9c-0.5,10-1.3,19.7-3.7,29
		c-1.5,1-2.9,1.8-4.2,2.7c-1.9,7.4-4.6,14.4-7.1,20.4c-0.8,4.4,2.4,5.6,3.7,7.9c1.6,2.8-0.1,5.2-1,7.9c9.2,2.5,18.2,4.8,27.1,7.1
		v0.7l-27.2,7.1c2.1,4.8,2.4,7,0.1,9c-2.3,1.9-2.8,4.3-3.5,6.8c-1.6,6-3.7,11.8-6.5,17.5c-3.3,6.7-7.5,12.8-12.1,18.6
		c4.8,8.3,9.6,16.4,14.4,24.6c-0.2,0.2-16.9-8.9-25.2-13.8c-9.5,8-20.3,13.8-31.9,17.6c-1.3,17.8-11.7,28.9-26.8,29.1
		C120.4,308.8,109.8,297.8,108.1,279.5"/>
	<path class="st0" d="M47.5,340.2c4.5-8.6,8.7-16.4,12.9-24.1h9.1v39.1h-9.1c-0.1-2.9-0.2-5.8-0.2-8.7v-8.6
		c-3.3,5.8-6.5,11.5-9.7,17.3h-6c-2.9-5.6-9.4-16.8-9.6-16.8v16.4h-9.4v-39.1c1.4,0,2.9-0.1,4.4,0c1.6,0,3.2,0.1,4.7,0.2
		C38.7,323.9,42.9,331.8,47.5,340.2 M31.4,351.6v-26.7c2,3.3,4,6.8,6,10.3c3.3,5.8,6.4,11.6,9.4,17.2H48
		c5.1-9.1,10.2-18.3,15.3-27.5c0.2,8.9,0.2,17.8,0.4,26.8h2.5v-32.2h-1.7c-0.8,0-1.5,0.1-2.2,0.2c-4.9,9.4-9.8,18.9-14.8,28.3
		c-5-9.6-10.1-19.1-15.1-28.7h-1.9c-0.6,0-1.3,0-1.9,0.1c0,10.7,0.1,21.4,0.1,32.2H30C30.4,351.6,30.9,351.6,31.4,351.6 M83.9,325.4
		v5.3H105v9.4H84v5.9h22.8v9.2H74.4v-39h32v9.2C98.9,325.4,91.4,325.4,83.9,325.4 M77.7,319.4V352h25.6c0-0.5-0.1-0.9-0.1-1.3v-1.3
		c-7.5,0-15.1,0-22.5-0.1v-12.7h21.9c0-0.8,0.1-1.5,0.1-2.3c-3.7-0.1-7.3-0.2-11-0.2c-3.7-0.1-7.4-0.1-11-0.1V322h21.9v-2.7H90.2
		C88.4,319.4,79.6,319.4,77.7,319.4"/>
	<path class="st0" d="M232.2,244c3,0.6,5.3,1,8,1.5c-5,9.9-11.4,18.6-19,26.8l-3.7-5.6c4-4.9,8.3-9.8,11.7-15.5l-7.7-2
		c7.3-11.6,12.7-23.8,15.4-37.2l6.9,4c1.9-6,1.9-12.2,2.9-18.4l6.4-1.7c0,11-2.1,21.2-5.2,31.4l-6.8-4
		C238.7,230.1,236,237,232.2,244"/>
	<path class="st0" d="M41.1,132.7c2.9,0.5,5.2,0.9,8.2,1.4c-7.4,11.7-12.5,24.1-15.3,37.7c-2.5-1.7-4.4-3-6.7-4.6
		c-1.9,6.4-2.1,12.6-2.9,19.2c-2.2,0.5-4.5,1-6.7,1.5c0.2-4.2,0.6-8.8,1.4-13.7c1-6.7,2.5-12.7,4.1-17.9c1.2,0.6,4.5,2.5,6.7,4
		c1.3-3.6,2.5-7.1,3.9-10.5c1.3-3.4,2.9-6.7,4.6-10.5c-2.6-0.5-5-1-7.7-1.4c5-10.1,11.3-18.8,19.1-27.2c1.3,2.1,2.3,3.9,3.5,5.9
		C48.9,121.7,44.7,126.5,41.1,132.7 M77.3,106.1c-0.6-3.1-1-5.4-1.4-8.1c-5.7,3.1-10.2,7.3-15.2,11.2c-1.8-1.1-3.7-2.1-5.9-3.4
		c7.9-7.5,16.4-13.6,26.2-18.7c0.5,2.7,1,5.1,1.5,7.9c6.7-3.5,13.5-6.4,20.9-8.8c-1.7-2.3-3-4.3-4.7-6.6c10.8-3.7,21.7-5.4,32.9-6
		c-0.2,1.1-0.5,2.3-0.7,3.4c-0.2,1.1-0.5,2.1-0.6,3.2c-6.7,0.6-13.4,1.2-20.3,3.1c1.5,2.2,2.9,4.2,4.6,6.7
		C101.2,93.3,88.9,98.3,77.3,106.1 M53.4,266.4c-1.1,1.9-2.1,3.7-3.2,5.3c-5.1-3.4-16.1-18.7-19-26.3c2.4-0.5,4.8-1,7.5-1.4
		c-3.3-6.8-6.4-13.6-8.6-20.7c-2.8,0.5-4,3-6.8,4c-3.4-10.2-5.2-20.6-5.5-31.3c6.6,1.4,4.4,0.7,6.6,1.4c0.7,6.2,1.1,12.3,2.8,18.9
		c2.3-1.7,4.3-3,6.7-4.7c3,13.6,8,26,15.5,37.2c-2.5,1.7-5.3,0.6-7.6,2.2C44.9,256.5,49.1,261.3,53.4,266.4"/>
	<path class="st0" d="M196.2,339.1c2.4,1.6,4.8,3.1,7.1,4.7c-3.4,8.8-12.2,13.6-21.8,11.9c-10.1-1.7-16.8-9.5-16.9-19.5
		c-0.2-10,6.1-18.1,15.6-20.2c10.1-2.3,19.2,2.2,23.2,11.6c-2.4,1.6-4.8,3.1-7.1,4.7c-7.1-8.2-13.4-9.7-18.7-4.4
		c-4.4,4.3-4.4,11.8,0.1,16C182.9,348.9,189.4,347.4,196.2,339.1 M199,326.4c-4.7-6.9-12.1-9.3-19.7-6.7
		c-7.3,2.5-11.7,9.1-11.4,17.1c0.4,7.4,5.6,13.6,12.8,15.2c7.7,1.8,14.7-1,18-7.1l-1.7-1.2c-0.5,0.7-1.2,1.6-2.1,2.5
		c-0.4,0.4-2,1.7-4.1,2.7c-3.7,1.6-8.1,1.5-12.1-0.4c-5.3-2.6-8.2-7.9-7.7-14.4c0.5-6,4.4-10.7,10.2-12.2c6.5-1.7,11.7,0.4,15.8,5.6
		C197.6,327.2,198.2,326.9,199,326.4 M110.4,316H122c2.4,3.4,4.8,7,7.5,11c2.6-3.8,5.1-7.3,7.5-10.9h11.4
		c-4.5,6.6-8.7,12.8-13.1,19.1c4.5,6.6,9,13,13.8,20h-11.7c-2.5-3.6-5.1-7.4-7.9-11.6c-2.9,4.2-5.5,7.9-8,11.6H110
		c4.8-6.8,9.1-13.2,13.7-19.8C119.4,329.1,115.1,322.9,110.4,316 M129.7,337.9c6.4,9.1,9.9,14.1,9.9,14.1s0.1,0,3.3-0.1
		c-3.9-5.6-7.8-11.1-11.7-16.8c4-5.4,7.9-10.9,11.8-16.3c-1,0.1-2.1,0.1-3.2,0.2c-3.6,4.6-7.1,9.1-10.6,13.7
		c-5.2-7-9.9-13.4-9.9-13.4h-2.8c3.7,5.3,7.4,10.6,11.1,16c-4,5.5-7.9,11-11.8,16.5c1.1,0,2.2,0,3.3,0.1
		C122.7,347.2,126.2,342.6,129.7,337.9"/>
	<path class="st0" d="M200.2,282.5c3.2-2.5,6.6-5.2,10.2-8.1c1.8,1.1,3.7,2.1,5.9,3.5c-2.9,2.6-5.6,4.9-8.3,7.3V297h23.2l0.2,7.4
		h-31C200.2,297.2,200.2,290.1,200.2,282.5"/>
	<path class="st0" d="M63.1,297.3v-12.1c-2.6-2.3-5.3-4.6-8.2-7.1c0.8-0.7,4.8-3.3,5.6-3.7c3.5,2.8,7,5.6,10.4,8.3v21.8H39.5v-7.1
		C47.3,297.3,55.2,297.3,63.1,297.3"/>
	<path class="st0" d="M245.9,336c-0.1,11.3-9,20.2-20.2,20.2c-11.3,0-20.4-9.2-20.3-20.5s9-20.1,20.2-20.1
		C237.1,315.5,246,324.4,245.9,336 M242.5,335.9c0.1-9.4-7.2-16.9-16.6-17.1c-9.6-0.1-17.1,7.3-17.1,16.9c0,9.4,7.4,16.8,16.8,16.8
		C235,352.6,242.5,345.3,242.5,335.9"/>
	<path class="st0" d="M241.5,160.4c2.1-1.4,4-2.8,6.4-4.4c3.7,10.5,5.5,31.9,5.5,31.9l-6.5-1.3c-0.6-6.4-1-12.8-2.9-19.3
		c-2.2,1.5-4.1,2.9-6.4,4.4c-1.7-6-3.6-11.9-5.3-17.9l0.7-3.3c1.2-0.6,2.5-1.2,3.7-1.7C239.8,156.1,239.6,156.4,241.5,160.4"/>
	<path class="st0" d="M161.1,355.3h-9.3v-39.2h9.3V355.3z M157.7,351.6v-31.5c-0.4,0-0.9-0.1-1.3-0.1H155c0,11.4,0.1,31.6,0.1,31.6
		L157.7,351.6z"/>
	<path class="st0" d="M172.8,79.6c-4.5,5.4-14.2,11-14.2,11l-1.9-0.7c1.4-2.1,2.8-4,4.4-6.4c-6.8-1.9-13.4-2.5-20.2-2.9
		c-0.3-1.1-0.6-2.2-1-3.4c-0.2-1.1-0.5-2.2-0.7-3.3C150.8,74.1,161.7,76.2,172.8,79.6"/>
	<g>
		<path class="st0" d="M82.2,313c-0.5-3.2-0.8-6-1.3-9.1c6.4-1,12.5-1.8,18.9-2.7c0.2,1.5,0.4,3,0.6,4.6c0.2,1.5,0.4,3,0.6,4.5
			C94.8,311.3,88.8,312.1,82.2,313 M96.6,304.9c-4,0.6-7.9,1.1-11.5,1.7c0,0.5,0.1,0.9,0.2,1.4c0.1,0.5,0.2,1,0.3,1.4
			c3.8-0.6,7.8-1.2,11.7-1.7C96.6,304.9,97.2,307.7,96.6,304.9 M102.5,121.7c-1.4,4-2.7,7.3-4,11c6.1,5.6,13.5,6.7,21,6.8
			c5.6-3.7,9.1-8.7,11.7-14.5c2.5-5.6,3.2-11.7,4.1-18.5c1.2,2.5,2,4.2,2.9,6.1c3.7-1.2,7.1-2.4,11.1-3.7c1.5,14.1-2.4,26-11.4,36.4
			c-9.1,10.3-20.8,15.5-35,16.2c7.5,23.6,20.7,42,41,55.1c0.4,0,0.7,0.2,1,0c6.9-3.3,13.7-2,20.7,0.1c12.3,3.7,39,10.3,39.7,11.4
			c-3.2,6.6-7.7,12.4-12.9,18c0.8,2,1.7,4,2.5,6c-28.3-14.4-50.5-25.8-65.7-33.4c-1.6-0.8-5.9-3-11.1-6.8
			c-17.2-12.4-27.2-28.3-23.7-50.5c-3.8-2.2-7.6-4.3-11.3-6.7c-3.6-2.3-6.7-5.1-9.3-8.5C76.5,139.7,92.4,125.9,102.5,121.7
			 M210.6,21.6c6.3,7,11,13.6,15.2,20.8c-6.6,25.5-20.6,45.5-43.1,60.3c-1.1-4.7-2.1-9-3.3-13.5C198.1,71.1,208.6,48.8,210.6,21.6"
			/>
		<path class="st0" d="M183.7,119.5v-14.1c18.8-11.9,32.5-28.5,40.9-50.2c4,7.6,6.7,15.1,8.8,22.9
			C221.6,97.2,205.5,111.1,183.7,119.5"/>
		<path class="st0" d="M231.7,85.5c1.7,8.7,2.9,16.2,2.9,24c-15,14.4-32.5,23.5-53.7,26.7c0.9-4.8,1.6-9,2.5-13.7
			C202.9,115.3,219,103.3,231.7,85.5"/>
		<path class="st0" d="M174.7,151.9c1.8-4.4,3.6-8.3,5.4-12.6c18.9-2.7,35.9-10.2,51.3-23c0.1,8.4-1,16-2.5,23.2
			C212.5,148.9,190.2,154.1,174.7,151.9 M163,168.6c15.4,4.4,30.9,5.3,47.4,2.2c-2.9,5.9-6.1,10.6-9.7,15.6
			c6.5,1.7,12.9,3.5,19.4,5.2c-4.9,1.1-9.8,2.3-14.7,3.4c-12.1-3.1-22.1-5.7-30.5-7.7c-4.8-1.2-11.8-4-20.9-8.3
			c-0.5-0.2-0.9-0.6-1.5-1C156.1,175,159.3,172,163,168.6"/>
		<path class="st0" d="M216.4,166.7c-17.3,4-34.1,4.4-51.4-0.6c2.7-3.9,5.2-7.5,7.9-11.4c17.4,1.2,34.2-1.8,51-9.7
			C222.2,153.2,219.5,159.9,216.4,166.7 M200.2,197.2c-9.3,2.8-18.5,5.6-27.8,8.3c-12.6-3.9-23.9-9.8-34.2-18.5
			c4-2.4,7.7-4.6,11.7-7c7.8,4,16.1,7.3,24.6,10C183,192.8,191.6,194.8,200.2,197.2 M158.9,104.1c6.9,30.7-16.2,63.6-49.2,67.1
			c-1.5-1.9-2-4.4-2.9-7.1c14.1-1.8,26-7.7,34.8-18.7c8.9-11,12.3-23.7,10.6-37.9C154.3,106.3,156.5,105.3,158.9,104.1 M122.1,193
			c4.6-1.6,8.7-3,13.3-4.5c9.2,7.7,19.7,14,32.5,18.5c-8.3,2.5-15.6,4.7-23,6.9C136.2,208.2,128.7,201.6,122.1,193 M130.6,222.7
			c4.9,2.5,9.4,4.9,14.1,7.2v15.5c-6.5,1.6-13.3-3-14-9.6C130.3,231.6,130.6,227.4,130.6,222.7 M110.7,174c3.4-0.7,6.4-1.3,9.6-2.1
			c3.7,4.9,7.8,9.5,12.5,14c-4,2.4-8.2,3.1-12.4,4.4C116.6,185.3,113.5,180,110.7,174 M158.8,136.9c1-3.3,1.8-6.1,2.8-9.3
			c6.1-1.2,12.3-2,18.6-4.2c0.1,4.8-1.3,8.8-2.4,13.2C171.5,137.4,165.4,137.3,158.8,136.9 M180.6,120.5c-6.1,2.1-11.9,3.3-18.3,4.1
			c0.3-3.4,0.6-6.4,0.9-9.6c5.8-2.2,11.6-4.7,17.3-7.8C181.3,111.9,181.2,116.1,180.6,120.5"/>
		<path class="st0" d="M144.6,157.8c2.3-2.6,4.3-4.8,6.4-7.3c6,1.7,12,3,18.4,4c-1.9,4.3-4.8,7.4-7.5,10.7
			C155.8,163.5,150.4,160.9,144.6,157.8 M177.3,91.1c1.7,4.5,2.6,8.6,2.9,13c-5.3,3.2-10.8,5.8-17.1,7.7c-0.4-3.3-0.7-6.3-1.2-9.6
			C167.2,99.1,172.2,95.4,177.3,91.1 M142.3,159.8c5.6,3,11.2,5.6,17.2,7.7c-2.8,3.7-6.2,6.1-9.6,9.1c-5.5-3.1-10.5-6.7-15.3-11
			C137.2,163.6,139.6,161.9,142.3,159.8 M176.7,139.6c-1.3,4.5-3.1,8.3-5.2,12.1c-6.3-0.2-12.2-1.7-18.5-3.6
			c1.6-2.9,3.1-5.6,4.7-8.5C163.9,140.2,170.1,140.2,176.7,139.6 M131.9,167c4.8,4.1,9.6,7.7,15.2,11.2c-3.7,2.9-7.4,4.8-11.4,6.7
			c-4.6-4.2-8.8-8.7-12.5-13.9C126.2,169.6,128.9,168.5,131.9,167 M108,229.1c-6.7-7.3-6.1-14.4,1.6-20.2c1.8,1.4,3.7,2.9,5.6,4.4
			c1.7,1.3,3.6,2.5,4.6,3.3C115.8,220.8,111.9,224.9,108,229.1 M97.3,247.4c-1.2-13.3-6.8-18.9-19.9-20.2c4.8-4.2,12.9-3.7,18.1,1.1
			C101,233.4,101.8,241.3,97.3,247.4 M149.5,266.7c-9.1-8.7-17.8-8.8-28.7,0c1.1-5.2,3.7-8.6,7.9-10.7c5.1-2.6,10.3-2.4,15,0.9
			C147,259.1,149.9,262.1,149.5,266.7 M68.3,163.1c-3.4-5.2-2.7-7.9,3.3-14.5c3,2.7,6,5.5,9.4,8.7C76,157.8,71.9,159.6,68.3,163.1
			 M141.3,279.4c-0.9,2.5-1.6,4.8-2.3,6.9c-2.5,0.5-4.7,0.4-7.2,0c-0.7-2.1-1.5-4.4-2.3-6.8c2-1.4,3.9-2.8,5.9-4.3
			C137.4,276.7,139.2,277.9,141.3,279.4 M122.4,270.9c0.7,2.8,1.3,4.8,1.7,6.8c-1.2,2.1-2.8,3.7-5.1,5.7
			C118.5,278.7,119.5,275,122.4,270.9"/>
		<path class="st0" d="M142,265.9c-2.5,1.3-4.4,2.4-6.2,3.4c-2.3-0.7-4.3-1.8-6.4-3.4C133.5,264,137.4,264,142,265.9 M148.5,271.1
			c2.9,3.9,3.7,7.6,3.3,12.8c-2.1-2.2-3.5-3.8-5-5.5C146.9,275.9,147.6,273.7,148.5,271.1 M133.1,297.3c-4.8-1-8.1-2.8-10.8-6.7h6.5
			C130.8,292.3,131.6,294.6,133.1,297.3 M141.5,290.7c2.2-0.2,4.3-0.2,7.5-0.5c-3,4.1-6.3,6-11.3,7
			C139.1,294.7,140.3,292.8,141.5,290.7 M106.1,231.4l-1.9,1.7c-0.6,0.6-1.2,1.1-1.7,1.7c-1-2-1.9-4-2.9-6c0.3-0.4,0.7-0.8,1-1.2
			c0.5-0.5,0.9-1,1.3-1.5C103.2,227.8,104.6,229.5,106.1,231.4 M144.7,249.1l-0.2,4.8c-2.1-0.7-4.1-1.4-6.3-2.2l-0.1-3.6
			C140.2,248.5,142.4,248.8,144.7,249.1 M76.7,223.7c-1.8-0.6-3.4-1.2-5.8-2c3.9-1.4,7-1.5,10.5-0.1C79.7,222.4,78.4,223,76.7,223.7
			 M119.8,260.5c-0.5,1.2-0.9,2.4-1.4,3.7c-1.3,0.6-4.4,1.5-4.6,1.3C114.8,263,119.7,260.4,119.8,260.5 M149.4,266.7
			c0.1,0,0.2-0.1,0.2-0.1C149.7,266.7,149.6,266.7,149.4,266.7 M239.5,335.6c0,8.1-5.9,14.3-13.7,14.4c-8,0.1-14.2-6.3-14.1-14.4
			c0.1-8,6.2-14.2,14-14.2S239.4,327.6,239.5,335.6 M225.8,324.8c-6-0.1-10.6,4.7-10.7,10.9c0,6.2,4.6,11,10.6,11
			c5.8,0,10.4-4.7,10.6-10.6C236.4,329.9,231.7,324.9,225.8,324.8"/>
	</g>
</g>
</svg>
