<?xml version="1.0" encoding="utf-8"?>
<!-- Generator: Adobe Illustrator 27.2.0, SVG Export Plug-In . SVG Version: 6.00 Build 0)  -->
<svg version="1.1" id="Capa_1" xmlns="http://www.w3.org/2000/svg" xmlns:xlink="http://www.w3.org/1999/xlink" x="0px" y="0px"
	 viewBox="0 0 424.1 448.1" style="enable-background:new 0 0 424.1 448.1;" xml:space="preserve">
<style type="text/css">
	.st0{fill:#FFFFFF;}
</style>
<path class="st0" d="M88.7,294.6l-2.3,2.3l6.3,6.3l-1.4,1.4l-6.3-6.3l-2.3,2.3l-1.2-1.2l6-6L88.7,294.6z M98.5,293l-3.3-7.3l2.1-2.1
	l7.5,7.5l-1.4,1.4l-5.8-5.8l0,0l3.6,8.1l-1,1l-8.1-3.6l0,0l5.8,5.8l-1.4,1.4l-7.5-7.5l2.1-2.1L98.5,293z"/>
<path class="st0" d="M168.2,172.5l4.7,14.5l-12.4-9l-12.4,9l4.7-14.5l-12.3-9h15.3l4.7-14.5l4.7,14.5h15.3L168.2,172.5z M97.1,172.5
	l12.4-9H94.2L89.5,149l-4.7,14.5H69.5l12.4,9l-4.7,14.5l12.4-9l12.3,9L97.1,172.5z M129.8,210.8l-4.7-14.5l-4.7,14.5h-15.3l12.3,9
	l-4.7,14.5l12.4-9l12.3,9l-4.7-14.5l12.4-9H129.8z M83.6,115.7l-14-31.9h-0.4v42.6c0,0.6-0.4,1.1-1,1.1c0,0-0.1,0-0.1,0H55.5
	c-0.6,0-1.1-0.4-1.1-1c0,0,0-0.1,0-0.1V53c0-0.6,0.4-1.1,1-1.1c0,0,0.1,0,0.1,0h13.2c0.8-0.1,1.5,0.4,1.8,1.1l19.1,43.1H90L108.8,53
	c0.3-0.7,1-1.2,1.8-1.1h13c0.6,0,1.1,0.4,1.1,1c0,0,0,0.1,0,0.1v73.4c0,0.6-0.4,1.1-1,1.1c0,0-0.1,0-0.1,0H111c-0.6,0-1.1-0.4-1.1-1
	c0,0,0-0.1,0-0.1V83.8h-0.4l-14,31.9c-0.3,0.9-1.2,1.5-2.1,1.4h-7.7C84.7,117.2,83.9,116.6,83.6,115.7 M136,127.5h49.2
	c0.6,0,1.1-0.4,1.1-1c0,0,0-0.1,0-0.1V114c0-0.6-0.4-1.1-1-1.1c0,0-0.1,0-0.1,0h-33.3c-0.3,0-0.6-0.2-0.7-0.5c0-0.1,0-0.1,0-0.2V53
	c0-0.6-0.4-1.1-1-1.1c0,0-0.1,0-0.1,0H136c-0.6,0-1.1,0.4-1.1,1c0,0,0,0.1,0,0.1v73.4c0,0.6,0.4,1.1,1,1.1
	C135.9,127.5,135.9,127.5,136,127.5 M227.3,82l-4-0.6c-8.7-1.2-11.8-4-11.8-8.3c0-4.8,3.4-8.2,10.1-8.2c6.2,0,11.8,2,17.6,5.8
	c0.5,0.3,1.2,0.2,1.5-0.3c0,0,0,0,0,0l6.8-10.1c0.6-0.8,0.4-1.2-0.2-1.7c-6.3-4.9-15.7-7.9-25.7-7.9c-16.3,0-26.8,9.2-26.8,23.1
	c0,13.3,8.6,20.6,23.9,22.7l4,0.6c9,1.2,11.7,4,11.7,8.5c0,5.3-4.4,9-12.3,9c-8,0-14.8-3.8-19.8-7.8c-0.4-0.4-1.1-0.4-1.6,0
	c0,0-0.1,0.1-0.1,0.1l-8.4,9.7c-0.5,0.6-0.4,1.4,0.1,1.9c5.9,5.7,17.3,10.3,29.1,10.3c19.6,0,29.7-10.1,29.7-23.8
	C251.1,91.2,242.9,84.1,227.3,82"/>
<path class="st0" d="M406.7,25.6v-8.7H19.6l0,8.7l0,147.1C19.5,231,38.5,287.7,73.7,334.1c0.5,0.7,1.1,1.4,1.7,2.1L24.5,387
	l12.3,12.3l49.6-49.6c14.2,16.1,30.2,30.4,47.7,42.6c23.4,16.3,49.2,28.8,76.5,36.9l2.5,0.7l2.5-0.7c27.3-8.1,53.1-20.6,76.5-36.9
	c23.1-16.1,43.5-35.7,60.5-58.2c35.2-46.4,54.2-103.1,54.1-161.3L406.7,25.6z M87.5,323.6C54.6,280.2,36.9,227.2,37,172.7l0-138.4
	h340.3L87.7,323.8C87.7,323.8,87.6,323.7,87.5,323.6 M376,253.7c-8.6,25.1-21.2,48.7-37.2,69.9c-15.9,21-35,39.4-56.6,54.4
	c-21.1,14.8-44.4,26.1-69,33.8c-24.6-7.6-47.9-19-69-33.8c-16.7-11.7-32-25.3-45.4-40.7L389.4,46.8l0,126
	C389.4,200.3,384.9,227.6,376,253.7"/>
</svg>
