<?xml version="1.0" encoding="UTF-8" standalone="no"?><!DOCTYPE svg PUBLIC "-//W3C//DTD SVG 1.1//EN" "http://www.w3.org/Graphics/SVG/1.1/DTD/svg11.dtd"><svg width="100%" height="100%" viewBox="0 0 4500 3447" version="1.1" xmlns="http://www.w3.org/2000/svg" xmlns:xlink="http://www.w3.org/1999/xlink" xml:space="preserve" xmlns:serif="http://www.serif.com/" style="fill-rule:evenodd;clip-rule:evenodd;stroke-linejoin:round;stroke-miterlimit:2;"><rect id="Página-1" serif:id="Página 1" x="0" y="0" width="4500" height="3446.808" style="fill:none;"/><g id="Capa-1" serif:id="Capa 1"><path d="M1787.893,1816.634c61.167,0 122.467,-2.492 183.463,0.725c57.037,3.004 120.062,-39.642 121.213,-116.85c0.95,-64.021 1.662,-128.108 -0.192,-192.088c-2.104,-72.721 -50.221,-114.967 -109.783,-115.812c-128.038,-1.821 -256.125,-0.763 -384.192,-0.237c-53.992,0.221 -107.4,54.842 -107.612,108.942c-0.25,64.987 -0.063,129.979 -0.058,194.967c0.004,73.242 46.8,120.392 119.396,120.358c59.254,-0.025 118.513,-0.004 177.767,-0.004m1.071,206.021c-95.563,0 -191.171,1.708 -286.671,-0.688c-51.312,-1.288 -96.479,-26.167 -135.2,-57.629c-77.846,-63.254 -115.854,-145.483 -112.133,-247.733c3.058,-84 0.854,-168.204 0.571,-252.312c-0.429,-129.388 101.163,-244.142 224.271,-272.138c22.833,-5.196 47.146,-5.263 70.783,-5.325c161.533,-0.429 323.079,-1.575 484.592,0.213c124.05,1.371 216.513,57.233 269.792,171.104c11.288,24.129 17.463,51.033 17.425,78.613c-0.146,110.875 0.137,221.746 -0.137,332.621c-0.154,60.379 -25.367,110.942 -64.442,155.042c-43.754,49.379 -97.55,81.875 -162.888,95.471c-18.129,3.775 -35.842,2.808 -53.629,2.954c-84.108,0.683 -168.221,0.304 -252.333,0.304l0,-0.496" style="fill:#fff;fill-rule:nonzero;"/><path d="M3486.236,1186.599c-47.842,67.083 -92.55,129.312 -136.638,191.975c-9.242,13.133 -21.583,12.308 -34.787,12.3c-171.033,-0.104 -342.067,-0.3 -513.096,0.058c-62.221,0.133 -102.946,30.146 -120.75,86.95c-9.25,29.513 -5.554,34.7 24.988,34.7c201.608,0.017 403.217,0.304 604.825,-0.446c20.296,-0.079 28.179,3.183 27.304,25.921c-1.975,51.521 -1.779,103.208 -0.042,154.746c0.679,20.079 -6.271,23.054 -23.95,22.996c-170.075,-0.583 -340.154,-0.517 -510.233,-0.258c-62.125,0.096 -103.65,31.175 -122.758,88.254c-3.229,9.654 -2.958,18.571 -3.013,27.775c-0.342,57.325 -0.583,114.663 0.113,171.983c0.175,14.296 -2.833,19.967 -18.692,19.746c-64.958,-0.904 -129.95,-0.958 -194.908,0.004c-16.983,0.254 -20.579,-5.696 -20.5,-21.375c0.892,-184.387 2.179,-368.779 1.254,-553.158c-0.6,-119.442 122.154,-252.129 241.588,-258.367c27.463,-1.433 54.996,-3.637 82.517,-3.667c236.938,-0.238 473.875,-0.138 716.779,-0.138" style="fill:#fff;fill-rule:nonzero;"/><path d="M4098.941,2022.55c-109.879,0 -219.787,1.4 -329.629,-0.646c-48.15,-0.896 -90.738,-21.846 -129.758,-50.387c-61.271,-44.817 -98.888,-104.521 -115.958,-177.771c-2.117,-9.087 -2.5,-18.737 -2.517,-28.129c-0.175,-105.112 -0.787,-210.229 0.096,-315.338c0.637,-76.137 36.662,-136.267 90.037,-187.508c59.4,-57.029 131.65,-76.888 212.404,-76.492c199.708,0.975 399.429,0.75 599.137,-0.263c23.225,-0.117 28.533,6.733 27.833,28.625c-1.587,49.638 -1.942,99.421 0.125,149.025c0.996,23.896 -7.546,27.696 -28.975,27.596c-177.733,-0.812 -355.533,2.375 -533.179,-1.654c-88.9,-2.021 -139.346,64.358 -138.279,139.333c0.779,54.454 0.346,108.933 0.104,163.4c-0.254,57.217 50.383,127.967 124.642,126.829c181.517,-2.779 363.108,-0.288 544.654,-1.558c25.754,-0.179 32.083,6.571 31.029,31.533c-2.096,49.6 -1.571,99.379 -0.15,149.029c0.562,19.667 -4.188,25.717 -24.817,25.508c-108.925,-1.112 -217.867,-0.521 -326.8,-0.521l0,-0.612" style="fill:#fff;fill-rule:nonzero;"/><path d="M438.432,825.812c-49.479,80.942 -94.142,164.333 -129.954,252.183c-10.658,26.15 -20.538,52.692 -29.529,79.679c-33.067,99.263 -57.779,200.279 -73.1,304.175c-0.617,4.196 -1.108,8.396 -1.679,12.592c-18.879,195.871 1.542,414.033 77.425,655.717c35.712,113.733 78.696,218.221 128.696,313.525c39.087,65.862 82.871,128.971 131.542,188.992c6.35,7.829 12.779,15.608 19.296,23.333c9.429,11.179 18.975,22.2 28.642,33.058c57.996,65.15 120.292,124.483 187.087,177.783c33.4,26.65 67.925,51.792 103.6,75.4c23.783,15.737 48.079,30.796 72.896,45.163c24.817,14.367 50.15,28.042 76.013,41.021c12.933,6.492 25.996,12.804 39.192,18.946c13.196,6.137 26.525,12.1 39.988,17.887c21.337,9.175 42.812,17.796 64.437,25.871c7.413,2.771 14.846,5.471 22.296,8.112c140.3,40.646 284.304,58.325 426.763,58.329c284.938,0.017 563.8,-70.342 795.192,-167.308c1.008,-0.567 2.025,-1.1 3.029,-1.667c92.371,-52.288 179.608,-111.9 254.225,-188.346c-0.979,-1.079 -1.908,-2.2 -2.796,-3.354c-21.875,15.221 -43.379,31.012 -65.679,45.579c-216.8,141.621 -459.579,194.604 -713.708,207.154c-19.146,0.946 -38.283,1.396 -57.425,1.396c-77.696,0 -155.258,-7.458 -231.65,-19.721c-133.558,-21.433 -264.542,-54.837 -390.012,-108.196c-167.938,-71.412 -320.6,-165.271 -451.613,-293.158c-38.312,-37.392 -75.296,-76.25 -107.887,-118.425c-118.654,-153.525 -200.108,-325.4 -245.554,-514.037c-27.192,-112.879 -41.196,-227.554 -41.2,-343.717c0,-44.604 1.833,-89.162 4.346,-133.792c3.296,-58.596 9.6,-116.879 19.95,-173.967c28.029,-154.592 73.404,-304.183 141.725,-446.496c121.617,-253.313 290.088,-465.146 533.408,-612.388c18.221,-11.025 40.967,-15.833 55.758,-34.758c-2.329,-0.925 -4.392,-1.292 -6.279,-1.292c-4.525,0 -8.033,2.104 -11.733,3.621c-91.567,37.588 -176.017,88.117 -256.983,144.304c-35.05,24.321 -68.783,50.2 -101.408,77.408c-110.029,97.925 -217.275,214.029 -307.312,349.392" style="fill:#fff;fill-rule:nonzero;"/><path d="M2709.401,2902.06c-15.646,3.921 -24.175,17.763 -36.287,26.571c-86.371,62.788 -181.171,110.204 -280.067,148.454c-84.583,32.712 -172.821,54.054 -262.242,71.075c-14.733,2.8 -29.517,5.225 -44.317,7.471c-59.321,15.808 -119.825,28.079 -181.392,36.608c-4.108,3.25 -9.037,5.321 -14.25,5.971c-52.708,6.571 -104.175,7.458 -147.562,7.458c-17.746,0 -35.721,-0.175 -53.108,-0.342c-17.25,-0.167 -35.088,-0.338 -52.775,-0.338c-5.308,0 -10.608,0.017 -15.917,0.05c-2.9,0.021 -5.808,0.033 -8.708,0.033c-54.842,0 -105.342,-3.575 -154.388,-10.921c-93.979,-14.079 -186.033,-37.1 -274.725,-68.642c-36.012,-10.421 -71.287,-22.121 -105.637,-35.263c-186.088,-71.192 -348.413,-182.087 -482.475,-329.592c-78.417,-86.283 -147.417,-185.692 -206.721,-297.113c-39.133,-65.379 -73.992,-133.825 -104.208,-205.029c-68.046,-160.35 -107.204,-320.458 -116.383,-475.871c-7.55,-127.767 -4.612,-231.029 9.242,-324.979c0.033,-0.208 0.071,-0.421 0.1,-0.629c23.587,-218.021 96.796,-424.542 219.521,-618.021c0.088,-0.138 0.175,-0.271 0.262,-0.404c18.858,-31.854 39.167,-64.529 61.208,-98.337l1.483,-2.258c1.175,-2.617 2.767,-5.092 4.762,-7.329c18.583,-20.812 36.779,-42.946 54.379,-64.346c21.858,-26.583 44.479,-53.937 68.658,-80.004c29.246,-39.733 60.062,-78.358 93.179,-115.421c76.246,-85.329 162.513,-158.037 257.246,-221.221c33.967,-22.65 69.538,-42.892 109.179,-67.175c-22.679,0.583 -37.121,8.133 -51.862,15.129c-93.454,44.346 -181.612,97.312 -265.913,157.404c-89.317,63.675 -170.154,136.963 -244.075,217.092c-69.046,74.842 -129.463,156.946 -183.992,243.583c-74.067,117.692 -130.813,243.337 -174.033,374.538c-43.65,132.5 -67.721,270.008 -75.592,409.329c-5.612,99.396 -3.333,199.408 11.604,298.083c11.25,74.35 24.558,148.546 45.329,221.196c41.396,144.787 101.008,281.537 177.796,410.921c58.733,98.954 128.05,189.854 204.192,276.183c70.675,80.137 149.608,151.3 235.308,213.617c151.008,109.8 316.125,193.246 497.592,241.358c128.129,33.975 258.033,57.242 391.058,58.117c68.279,0.45 136.237,0.096 204.492,-10.142c72.992,-10.95 145.746,-21.775 217.537,-39.062c159.463,-38.392 308.483,-102.088 448.412,-186.808c82.425,-49.904 159.392,-107.587 228.1,-175.646c-1.337,-1.783 -2.675,-3.567 -4.012,-5.35" style="fill:#fff;fill-rule:nonzero;"/></g></svg>