<?xml version="1.0" encoding="utf-8"?>
<!-- Generator: Adobe Illustrator 27.2.0, SVG Export Plug-In . SVG Version: 6.00 Build 0)  -->
<svg version="1.1" id="Capa_1" xmlns="http://www.w3.org/2000/svg" xmlns:xlink="http://www.w3.org/1999/xlink" x="0px" y="0px"
	 viewBox="0 0 424.4 566.9" style="enable-background:new 0 0 424.4 566.9;" xml:space="preserve">
<style type="text/css">
	.st0{fill:#FFFFFF;}
</style>
<g>
	<path class="st0" d="M346.5,248.8c-0.6,3.1-1.3,6.2-1.9,9.3h34.6v-42.7h-23.8c-1,3.1-1.9,6.3-2.9,9.4l18.2,0.1v23.7L346.5,248.8z"
		/>
	<path class="st0" d="M224,513.1h-23.6l-0.3-45c-3,1-6.2,1.4-9.2,1.4v52h42.6v-52c-3,0-6.2-0.4-9.2-1.4L224,513.1z"/>
	<path class="st0" d="M341.4,279.4h36l23.2,29.4V162l-23.2,29.6h-13.1c-2.3,5.5-4.5,11-6.4,16.6h28.6v57.2h-43.1
		C342.6,270.1,341.9,274.7,341.4,279.4z"/>
	<path class="st0" d="M224.3,90.4c2.8-0.9,6-1.1,9.2-0.7V45.4h-42.6v44.2c3.2-0.4,6.4-0.2,9.2,0.7l0.3-36.5H224L224.3,90.4z"/>
	<path class="st0" d="M375.2,167.8c-2.7,5.4-5.3,10.9-7.8,16.5h6.4l34.1-43.4V330l-34.1-43.3h-33.3c-0.1,1.5-0.3,3.1-0.4,4.7
		c-0.1,1.4-0.3,3-0.4,4.5h29.7l47.7,60V115.1L375.2,167.8z"/>
	<path class="st0" d="M246,93c3.5,1.4,6.9,3.1,10.2,4.8V47l29.5-23.2h-147L168.3,47v50.7c3.2-1.7,6.7-3.3,10.2-4.8
		c1.7-0.6,3.5-1.3,5.2-1.8V38.2h57.2v52.9C242.5,91.7,244.2,92.3,246,93z"/>
	<path class="st0" d="M71.9,224.8c-0.9-3.1-1.9-6.3-2.9-9.4H45.1v42.7h34.6c-0.6-3.1-1.2-6.2-1.9-9.3l-24.3-0.2v-23.7L71.9,224.8z"
		/>
	<path class="st0" d="M151.8,106.6c2.7-1.4,5.3-2.8,7.8-4.2c0.4-0.2,0.9-0.4,1.3-0.7V50.5l-43.4-34.1h189.2l-43.4,34.1v51.1
		c0.4,0.3,0.9,0.5,1.3,0.7c2.6,1.4,5.2,2.9,7.8,4.2V55l60.1-47.7H91.7L151.8,55V106.6z"/>
	<path class="st0" d="M47,191.6L23.8,162v146.9L47,279.4h36c-0.6-4.7-1.2-9.4-2-14H37.9v-57.2h28.6c-1.9-5.6-4.1-11.2-6.4-16.6
		L47,191.6L47,191.6z"/>
	<path class="st0" d="M83.9,286.7H50.5l-34,43.3V140.8l34.1,43.4H57c-2.5-5.6-5.1-11.1-7.8-16.6L7.3,115.1v240.8l47.7-60h29.7
		c-0.1-1.5-0.3-3-0.4-4.5C84.2,289.8,84,288.2,83.9,286.7z"/>
	<path class="st0" d="M334.4,203.2c5.3-15.6,11.7-30.9,19.2-45.6L334.5,137c-8.9,3.6-18.4,4.8-27.9,4.2c-19.4-1-38.2-8.8-54.6-18.9
		c-3.4-2-6.6-4.2-10-6c-4.2,4.7-10.9,7.8-17.2,7.1c-5.5-0.6-10.4-3.5-12.6-8.6l0,0c-2.2,5.1-7.1,8-12.6,8.6
		c-6.3,0.7-13-2.4-17.2-7.1c-3.4,1.9-6.6,4-10,6c-16.4,10.1-35.3,17.9-54.6,18.9c-9.4,0.6-19.1-0.6-27.9-4.2l-19.1,20.5
		c7.4,14.8,13.8,30,19.2,45.6c9.2,27.1,15,55.2,17.9,83.6c2.8,28.2,2.6,56.7-0.2,84.8c13.5,8.1,25.6,18.3,35.3,30.8
		c11.2,14.3,21.9,30,37.9,39.5c5.1,3,9.7,6.3,14,1.7c2.8-3.1,6.2-4.5,9.4-4.7c3-0.1,6,1.1,8.1,3.2c2.1-2.1,5.1-3.3,8.1-3.2
		c3.2,0.1,6.6,1.6,9.4,4.7c4.2,4.7,8.9,1.4,14-1.7c16-9.5,26.6-25.1,37.9-39.5c9.6-12.5,21.7-22.8,35.3-30.8
		c-2.8-28.1-3-56.6-0.2-84.8C319.4,258.4,325.2,230.3,334.4,203.2z M293.1,275.1c-3.5,28.3-4.3,56.7-3.5,85.2
		c-8.4,5.3-15.6,11.1-22.3,18.4c-8.9,9.7-15.5,23.1-26.1,30.8c-16.7,12-41.5,12-58.2,0c-10.6-7.7-17.2-21.1-26.1-30.8
		c-6.7-7.3-14-13.2-22.3-18.4c0.9-28.5,0.1-56.9-3.5-85.2c-3.5-27.8-9.5-54.8-18.3-81.4l11.8-14.2c16,1.9,31.2,0.5,46.7-4
		c9.3-2.8,16.1-7.8,26.5-6.3c5.1,0.7,9.9,3.2,14.3,5.8c4.4-2.6,9.1-5.1,14.3-5.8c10.4-1.6,17.2,3.5,26.5,6.3
		c15.4,4.5,30.7,5.9,46.7,4l11.8,14.2C302.6,220.3,296.6,247.3,293.1,275.1z M177.4,128.7l1.2,5.4l-11,2.5l1.7,7.1l9.6-2.2l1.2,5.4
		l-9.6,2.2l3,12.9l-4.6,1.1l-7.1-30.8L177.4,128.7z M187.1,158.5l-1.2-6.2l4.5-0.9l1.2,6.3L187.1,158.5z M202.2,126.9h10.3
		c4.8,0,7.8,3.3,7.8,10.2c0,5.8-1.8,10.1-8.1,10.1h-5v11.4h-5V126.9z M260.9,132.1l-1.2,5.4l-11-2.5l-1.7,7.1l9.6,2.2l-1.2,5.4
		l-9.6-2.2l-3,12.9l-4.6-1l6.9-30.8L260.9,132.1z M223.6,158.5v-6.3h4.9v6.3H223.6z"/>
	<path class="st0" d="M272.5,449.6c-1.3,1.2-2.6,2.3-3.9,3.5c0,0.1-0.1,0.1-0.1,0.1c-0.4,0.4-0.8,0.7-1.2,1.1
		c-0.1,0-0.1,0.1-0.2,0.1c0,0.1-0.1,0.1-0.1,0.1c-0.1,0.1-0.4,0.3-0.6,0.5l-0.1,0.1c0,0.1-0.1,0.1-0.1,0.1c-0.1,0.1-0.3,0.2-0.4,0.4
		l-0.1,0.1c0,0.1-0.1,0.1-0.1,0.1c-0.1,0.1-0.3,0.2-0.4,0.4c-0.1,0-0.1,0.1-0.1,0.1l-0.1,0.1h-0.1c-0.1,0.1-0.4,0.3-0.5,0.4
		s-0.1,0.1-0.2,0.1l-0.1,0.1c-0.1,0.1-0.2,0.1-0.3,0.1v59.2l43.4,34.1H117.6l43.4-34.1v-59.2c-0.1,0-0.1-0.1-0.1-0.1
		c-0.2-0.1-0.4-0.3-0.5-0.4s-0.3-0.2-0.4-0.4c-0.1-0.1-0.3-0.2-0.5-0.4c-0.1-0.1-0.1-0.1-0.2-0.1c-0.1-0.1-0.4-0.3-0.5-0.4
		s-0.2-0.1-0.4-0.3c-0.1-0.1-0.3-0.2-0.4-0.3c-0.1-0.1-0.2-0.2-0.4-0.4c-0.1-0.1-0.3-0.2-0.4-0.3c-0.1-0.1-0.2-0.3-0.4-0.4
		c-0.1-0.1-0.1-0.1-0.1-0.1c-0.1,0-0.1-0.1-0.1-0.1h-0.1c-0.1-0.1-0.4-0.3-0.5-0.4s-0.1-0.1-0.1-0.1c-0.2-0.1-0.4-0.3-0.6-0.5
		c-0.1,0-0.1-0.1-0.1-0.1c-0.1-0.1-0.1-0.1-0.1-0.1c-1-0.9-2.1-1.8-3-2.7v62.4L92,559.6h240.9l-60.1-47.7v-62.3H272.5z"/>
	<path class="st0" d="M254.8,462.8c-4.5,2.6-9.2,4.7-14,5.8v60.1h-57.2v-60.1c-4.8-1.1-9.6-3.2-14-5.8c-0.4-0.2-0.9-0.4-1.3-0.7
		v57.8l-29.5,23.2h146.9l-29.5-23.2v-57.8C255.7,462.4,255.2,462.6,254.8,462.8z"/>
	<path class="st0" d="M296.5,187.3c-15.3,1.5-30.9-0.4-45.6-4.8c-7.8-2.3-14.8-7.3-23.3-6c-5.6,0.9-10.7,4.3-15.3,7.2l0,0
		c-4.7-2.9-9.7-6.3-15.3-7.2c-8.6-1.3-15.5,3.7-23.3,6c-14.8,4.4-30.3,6.3-45.6,4.8l-6.7,8.1c8.4,25.8,14,52.1,17.4,78.9
		c3.4,26.8,4.4,54.1,3.7,82.1c8,5.3,14.4,11.1,20.2,17.5c8.4,9.2,15,22.5,25,29.7c14,10.2,35.5,10.2,49.5,0
		c10-7.2,16.6-20.5,25-29.7c5.8-6.4,12.2-12.2,20.2-17.5c-0.7-27.9,0.3-55.3,3.7-82.1c3.3-26.9,8.9-53.1,17.4-78.9L296.5,187.3z
		 M278.6,273.4c-3.3,26.2-4.4,52.7-3.8,79.2c-6.6,4.8-12.7,10.2-18.2,16.3c-8.1,9-14,21.7-23.8,28.8c-11.5,8.4-29.5,8.4-41,0
		c-9.8-7.1-15.7-19.8-23.8-28.8c-5.5-6.1-11.6-11.5-18.2-16.3c0.6-26.5-0.5-53-3.8-79.2c-3.2-25.9-8.6-51.6-16.4-76.5l1.7-2.1
		c15,1,30.1-1.1,44.5-5.3c6.2-1.8,13.8-6.8,20.2-5.8c5.9,0.9,11.7,5.6,16.4,8.5c4.7-2.9,10.5-7.6,16.4-8.5c6.3-1,14,4,20.2,5.8
		c14.4,4.2,29.5,6.3,44.5,5.3l1.7,2.1C287.1,221.8,281.8,247.5,278.6,273.4z"/>
	<path class="st0" d="M350,208.4c6.3-18.6,14.3-36.2,23.5-53.5L338,116.4c-9.9,6.3-18.6,9-30.5,8.4c-16.8-0.9-32-8-46.4-16
		c-9.1-5.1-26.6-15.2-35.5-11.1c-8.6,4-11.1,17.2-0.1,18.4c5.6,0.6,12.5-4.2,13.5-9.6c5.7,2.5,11.1,6.1,16.8,9.6
		c15.2,9.3,33.2,16.8,51.2,17.8c10.3,0.5,20.2-0.9,29.2-5.8l26.2,28.2c-8.4,16-15.3,32.4-21.1,49.2c-18.6,54.4-23.1,113-16.8,170
		c-14.5,7.9-27.2,18.2-37.3,31.3c-7.8,10-15,20.4-24.3,29.2c-7,6.6-18.6,16.1-28.7,17c-4.9,0.5-7-1.2-10.1-4.6
		c-4.2-4.6-9.7-1.7-7.6,4.1c2.7,7.2,11.4,10.3,18.5,9.6c12.3-1.2,25.4-11.2,34.1-19.4c9.6-9.1,17.1-19.8,25.2-30.2
		c10.9-14,24.3-23.5,39.9-31.7C327.5,322.8,331.1,264.1,350,208.4z"/>
	<path class="st0" d="M129.9,412.4c8.1,10.4,15.6,21.1,25.2,30.2c8.6,8.2,21.7,18.3,34.1,19.4c7.1,0.7,15.8-2.4,18.5-9.6
		c2.2-5.8-3.4-8.7-7.6-4.1c-3.1,3.4-5.2,5.1-10.1,4.6c-10-0.9-21.7-10.4-28.7-17c-9.2-8.8-16.5-19.2-24.3-29.2
		c-10.1-13.1-22.8-23.4-37.3-31.3c6.3-57,1.8-115.6-16.8-170c-5.8-16.8-12.7-33.3-21.1-49.2L88,128c9.1,4.9,18.9,6.3,29.2,5.8
		c18-1,36-8.5,51.2-17.8c5.7-3.5,11.1-7.1,16.8-9.6c1,5.4,7.8,10.2,13.5,9.6c11-1.2,8.6-14.4-0.1-18.4c-8.9-4.1-26.4,6-35.5,11.1
		c-14.4,8-29.6,15-46.4,16c-11.8,0.6-20.5-2.2-30.5-8.4l-35.6,38.6c9.2,17.3,17.2,34.9,23.5,53.5C93.3,264.1,96.8,322.8,90,380.7
		C105.6,388.9,119,398.4,129.9,412.4z"/>
	<path class="st0" d="M215.4,137c0-2.6-0.9-4.7-3.6-4.7h-4.6v9.4h4.6C214.1,141.8,215.4,140.2,215.4,137z"/>
	<path class="st0" d="M195.6,269.7v40c0,6.9,7.5,12.6,16.6,12.6s16.6-5.7,16.6-12.6v-40H195.6z M202.7,312.4c-1.7,0-3.2-1.4-3.2-3.1
		s1.4-3.2,3.2-3.2c1.7,0,3.1,1.4,3.1,3.2C205.8,311,204.3,312.4,202.7,312.4z M202.7,281.4c-1.7,0-3.2-1.4-3.2-3.1s1.4-3.2,3.2-3.2
		c1.7,0,3.1,1.4,3.1,3.2S204.3,281.4,202.7,281.4z M212.2,297c-1.7,0-3.1-1.4-3.1-3.2c0-1.7,1.4-3.1,3.1-3.1c1.7,0,3.1,1.4,3.1,3.1
		C215.3,295.6,213.9,297,212.2,297z M221.8,312.4c-1.7,0-3.2-1.4-3.2-3.1s1.4-3.2,3.2-3.2c1.7,0,3.1,1.4,3.1,3.2
		C224.9,311,223.5,312.4,221.8,312.4z M221.8,281.4c-1.7,0-3.2-1.4-3.2-3.1s1.4-3.2,3.2-3.2c1.7,0,3.1,1.4,3.1,3.2
		C224.9,280.1,223.5,281.4,221.8,281.4z"/>
	<path class="st0" d="M195.6,334.2v40.1c0,6.9,7.5,12.5,16.6,12.5s16.6-5.6,16.6-12.5v-40.1H195.6z M202.7,376.9
		c-1.7,0-3.2-1.4-3.2-3.1s1.4-3.2,3.2-3.2c1.7,0,3.1,1.4,3.1,3.2S204.3,376.9,202.7,376.9z M202.7,345.9c-1.7,0-3.2-1.4-3.2-3.2
		c0-1.7,1.4-3.1,3.2-3.1c1.7,0,3.1,1.4,3.1,3.1S204.3,345.9,202.7,345.9z M212.2,361.5c-1.7,0-3.1-1.4-3.1-3.2
		c0-1.7,1.4-3.1,3.1-3.1l0,0c1.7,0,3.1,1.4,3,3.1C215.3,360.1,213.9,361.5,212.2,361.5z M224.9,373.9c0,1.7-1.4,3.1-3.1,3
		c-1.7,0-3.2-1.4-3.2-3.1s1.4-3.2,3.2-3.2C223.5,370.7,224.9,372.1,224.9,373.9C224.9,373.8,224.9,373.9,224.9,373.9z M221.8,345.9
		c-1.7,0-3.2-1.4-3.2-3.2c0-1.7,1.4-3.1,3.2-3.1c1.7,0,3.1,1.4,3.1,3.1C224.9,344.4,223.5,345.9,221.8,345.9z"/>
	<path class="st0" d="M155.4,309.7c0,6.9,7.5,12.6,16.7,12.6s16.7-5.7,16.7-12.6v-40h-33.4V309.7z M181.6,275.2
		c1.7,0,3.2,1.4,3.2,3.2c0,1.7-1.4,3.1-3.2,3.1c-1.7,0-3.2-1.4-3.2-3.1C178.4,276.6,179.9,275.2,181.6,275.2z M181.6,306.1
		c1.7,0,3.2,1.4,3.2,3.2c0,1.7-1.4,3.1-3.2,3.1c-1.7,0-3.2-1.4-3.2-3.1C178.4,307.6,179.9,306.1,181.6,306.1z M172,290.7
		c1.7,0,3.2,1.4,3.2,3.1s-1.4,3.2-3.2,3.2c-1.7,0-3.2-1.4-3.2-3.2C168.8,292.1,170.3,290.7,172,290.7z M162.4,275.2
		c1.7,0,3.2,1.4,3.2,3.2c0,1.7-1.4,3.1-3.2,3.1c-1.7,0-3.2-1.4-3.2-3.1C159.3,276.6,160.7,275.2,162.4,275.2z M162.4,306.1
		c1.7,0,3.2,1.4,3.2,3.2c0,1.7-1.4,3.1-3.2,3.1c-1.7,0-3.2-1.4-3.2-3.1C159.3,307.6,160.7,306.1,162.4,306.1z"/>
	<path class="st0" d="M235.5,309.7c0,6.9,7.5,12.6,16.7,12.6s16.7-5.7,16.7-12.6v-40h-33.4V309.7z M261.9,275.2
		c1.7,0,3.2,1.4,3.2,3.2c0,1.7-1.4,3.1-3.2,3.1c-1.7,0-3.2-1.4-3.2-3.1C258.8,276.6,260.2,275.2,261.9,275.2z M261.9,306.1
		c1.7,0,3.2,1.4,3.2,3.2c0,1.7-1.4,3.1-3.2,3.1c-1.7,0-3.2-1.4-3.2-3.1C258.8,307.6,260.2,306.1,261.9,306.1z M252.4,290.7
		c1.7,0,3.2,1.4,3.2,3.1s-1.4,3.2-3.2,3.2c-1.7,0-3.2-1.4-3.2-3.2C249.2,292.1,250.6,290.7,252.4,290.7z M242.8,275.2
		c1.7,0,3.2,1.4,3.2,3.2c0,1.7-1.4,3.1-3.2,3.1c-1.7,0-3.2-1.4-3.2-3.1C239.6,276.6,241.1,275.2,242.8,275.2z M242.8,306.1
		c1.7,0,3.2,1.4,3.2,3.2c0,1.7-1.4,3.1-3.2,3.1c-1.7,0-3.2-1.4-3.2-3.1S241.1,306.1,242.8,306.1z"/>
	<path class="st0" d="M195.6,205.2v40.1c0,7,7.5,12.6,16.6,12.6s16.6-5.6,16.6-12.6v-40.1L195.6,205.2L195.6,205.2z M202.7,248
		c-1.7,0-3.2-1.4-3.2-3.1c0-1.7,1.4-3.2,3.2-3.2c1.7,0,3.1,1.4,3.1,3.2C205.8,246.6,204.3,248,202.7,248z M202.7,216.9
		c-1.7,0-3.2-1.4-3.2-3.1c0-1.7,1.4-3.2,3.2-3.2c1.7,0,3.1,1.4,3.1,3.2C205.8,215.6,204.3,216.9,202.7,216.9z M212.2,232.6
		c-1.7,0-3.1-1.4-3.1-3.1c0-1.7,1.4-3.2,3.1-3.2c1.7,0,3.1,1.4,3.1,3.2C215.3,231.2,213.9,232.6,212.2,232.6z M221.8,248
		c-1.7,0-3.2-1.4-3.2-3.1c0-1.7,1.4-3.2,3.2-3.2c1.7,0,3.1,1.4,3.1,3.2C224.9,246.6,223.5,248,221.8,248z M221.8,216.9
		c-1.7,0-3.2-1.4-3.2-3.1c0-1.7,1.4-3.2,3.2-3.2c1.7,0,3.1,1.4,3.1,3.2C224.9,215.6,223.5,216.9,221.8,216.9z"/>
</g>
<g>
	<path class="st0" d="M-407.3,101.3v240.8c0,5.9-3.8,11.3-9.4,13.2c-1.5,0.5-3.1,0.8-4.6,0.8c-4.2,0-8.2-1.9-11-5.3l-43.5-54.7
		h-17.1c-1,22.4-0.2,45.5,2.6,69.3c0.7,5.8-2.3,11.3-7.4,14c-16,8.4-26.9,17-35.4,27.9c-1.6,2-3.2,4.1-4.7,6.1
		c-4.6,6-9.3,12.1-14.5,18c0.5,1.4,0.7,2.8,0.7,4.4v55.5l54.8,43.5c4.7,3.7,6.5,10,4.5,15.6c-2,5.6-7.3,9.4-13.2,9.4h-240.9
		c-6,0-11.3-3.8-13.2-9.4c-2-5.6-0.1-11.9,4.5-15.6l54.8-43.5v-55.6c0-1.3,0.2-2.6,0.5-3.8c-5.5-6.1-10.3-12.4-15.1-18.6
		c-1.5-2-3.1-4.1-4.7-6.2c-8.5-10.9-19.4-19.5-35.4-27.9c-5.1-2.7-8.1-8.3-7.4-14c2.8-23.8,3.7-46.9,2.7-69.2h-17l-43.5,54.7
		c-2.7,3.4-6.8,5.3-11,5.3c-1.5,0-3.1-0.2-4.6-0.8c-5.6-2-9.4-7.3-9.4-13.2V101.3c0-5.9,3.8-11.2,9.4-13.2c1.5-0.5,3.1-0.8,4.6-0.8
		c4.2,0,8.2,1.9,10.9,5.3l26.9,33.8l30.7-33.3c2.7-3,6.5-4.5,10.3-4.5c2.5,0,5.1,0.7,7.4,2.1c7.5,4.6,12.9,6.4,20.1,6.4
		c0.7,0,1.5,0,2.3-0.1c7.6-0.5,14.9-2.5,21.9-5.2V48l-54.8-43.5c-4.7-3.7-6.5-10-4.5-15.6c2-5.6,7.3-9.4,13.2-9.4h240.8
		c7.7,0,14,6.3,14,14c0,4.5-2.1,8.5-5.4,11.1L-552,48v43.8c7,2.8,14.3,4.8,21.8,5.2c0.8,0,1.7,0.1,2.5,0.1c7.2,0,12.6-1.7,19.8-6.3
		c2.3-1.5,4.9-2.2,7.5-2.2c3.8,0,7.6,1.5,10.3,4.5l30.8,33.5l27-34c2.7-3.4,6.8-5.3,11-5.3c1.5,0,3.1,0.2,4.6,0.8
		C-411.1,90.1-407.3,95.4-407.3,101.3z"/>
</g>
<g>
	<path d="M-491.9,235.1c-0.6,3.1-1.3,6.2-1.9,9.3h34.6v-42.7H-483c-1,3.1-1.9,6.3-2.9,9.4l18.2,0.1v23.7L-491.9,235.1z"/>
	<path d="M-614.4,499.3H-638l-0.3-45c-3,1-6.2,1.4-9.2,1.4v52h42.6v-52c-3,0-6.2-0.4-9.2-1.4L-614.4,499.3z"/>
	<path d="M-497,265.6h36l23.2,29.4V148.2l-23.2,29.6h-13.1c-2.3,5.5-4.5,11-6.4,16.6h28.6v57.2H-495
		C-495.8,256.4-496.5,261-497,265.6z"/>
	<path d="M-614.1,76.6c2.8-0.9,6-1.1,9.2-0.7V31.6h-42.6v44.2c3.2-0.4,6.4-0.2,9.2,0.7L-638,40h23.6L-614.1,76.6z"/>
	<path d="M-463.2,154.1c-2.7,5.4-5.3,10.9-7.8,16.5h6.4l34.1-43.4v189.1l-34.1-43.3h-33.3c-0.1,1.5-0.3,3.1-0.4,4.7
		c-0.1,1.4-0.3,3-0.4,4.5h29.7l47.7,60V101.3L-463.2,154.1z"/>
	<path d="M-592.4,79.2c3.5,1.4,6.9,3.1,10.2,4.8V33.2l29.5-23.2h-147l29.6,23.2v50.7c3.2-1.7,6.7-3.3,10.2-4.8
		c1.7-0.6,3.5-1.3,5.2-1.8V24.4h57.2v52.9C-595.9,77.9-594.2,78.5-592.4,79.2z"/>
	<path d="M-766.5,211.1c-0.9-3.1-1.9-6.3-2.9-9.4h-23.9v42.7h34.6c-0.6-3.1-1.2-6.2-1.9-9.3l-24.3-0.2v-23.7L-766.5,211.1z"/>
	<path d="M-686.6,92.8c2.7-1.4,5.3-2.8,7.8-4.2c0.4-0.2,0.9-0.4,1.3-0.7V36.7l-43.4-34.1h189.2l-43.4,34.1v51.1
		c0.4,0.3,0.9,0.5,1.3,0.7c2.6,1.4,5.2,2.9,7.8,4.2V41.2l60.1-47.7h-240.8l60.1,47.7V92.8z"/>
	<path d="M-791.4,177.9l-23.2-29.6v146.9l23.2-29.5h36c-0.6-4.7-1.2-9.4-2-14h-43.1v-57.2h28.6c-1.9-5.6-4.1-11.2-6.4-16.6
		L-791.4,177.9L-791.4,177.9z"/>
	<path d="M-754.5,273h-33.4l-34,43.3V127l34.1,43.4h6.4c-2.5-5.6-5.1-11.1-7.8-16.6l-41.9-52.5v240.8l47.7-60h29.7
		c-0.1-1.5-0.3-3-0.4-4.5C-754.2,276-754.4,274.5-754.5,273z"/>
	<path d="M-504,189.4c5.3-15.6,11.7-30.9,19.2-45.6l-19.1-20.6c-8.9,3.6-18.4,4.8-27.9,4.2c-19.4-1-38.2-8.8-54.6-18.9
		c-3.4-2-6.6-4.2-10-6c-4.2,4.7-10.9,7.8-17.2,7.1c-5.5-0.6-10.4-3.5-12.6-8.6l0,0c-2.2,5.1-7.1,8-12.6,8.6
		c-6.3,0.7-13-2.4-17.2-7.1c-3.4,1.9-6.6,4-10,6c-16.4,10.1-35.3,17.9-54.6,18.9c-9.4,0.6-19.1-0.6-27.9-4.2l-19.1,20.5
		c7.4,14.8,13.8,30,19.2,45.6c9.2,27.1,15,55.2,17.9,83.6c2.8,28.2,2.6,56.7-0.2,84.8c13.5,8.1,25.6,18.3,35.3,30.8
		c11.2,14.3,21.9,30,37.9,39.5c5.1,3,9.7,6.3,14,1.7c2.8-3.1,6.2-4.5,9.4-4.7c3-0.1,6,1.1,8.1,3.2c2.1-2.1,5.1-3.3,8.1-3.2
		c3.2,0.1,6.6,1.6,9.4,4.7c4.2,4.7,8.9,1.4,14-1.7c16-9.5,26.6-25.1,37.9-39.5c9.6-12.5,21.7-22.8,35.3-30.8
		c-2.8-28.1-3-56.6-0.2-84.8C-519,244.6-513.2,216.6-504,189.4z M-545.3,261.4c-3.5,28.3-4.3,56.7-3.5,85.2
		c-8.4,5.3-15.6,11.1-22.3,18.4c-8.9,9.7-15.5,23.1-26.1,30.8c-16.7,12-41.5,12-58.2,0c-10.6-7.7-17.2-21.1-26.1-30.8
		c-6.7-7.3-14-13.2-22.3-18.4c0.9-28.5,0.1-56.9-3.5-85.2c-3.5-27.8-9.5-54.8-18.3-81.4l11.8-14.2c16,1.9,31.2,0.5,46.7-4
		c9.3-2.8,16.1-7.8,26.5-6.3c5.1,0.7,9.9,3.2,14.3,5.8c4.4-2.6,9.1-5.1,14.3-5.8c10.4-1.6,17.2,3.5,26.5,6.3
		c15.4,4.5,30.7,5.9,46.7,4l11.8,14.2C-535.8,206.6-541.8,233.6-545.3,261.4z M-661,114.9l1.2,5.4l-11,2.5l1.7,7.1l9.6-2.2l1.2,5.4
		l-9.6,2.2l3,12.9l-4.6,1.1l-7.1-30.8L-661,114.9z M-651.3,144.8l-1.2-6.2l4.5-0.9l1.2,6.3L-651.3,144.8z M-636.2,113.1h10.3
		c4.8,0,7.8,3.3,7.8,10.2c0,5.8-1.8,10.1-8.1,10.1h-5v11.4h-5V113.1z M-577.5,118.3l-1.2,5.4l-11-2.5l-1.7,7.1l9.6,2.2l-1.2,5.4
		l-9.6-2.2l-3,12.9l-4.6-1l6.9-30.8L-577.5,118.3z M-614.8,144.8v-6.3h4.9v6.3H-614.8z"/>
	<path d="M-565.9,435.9c-1.3,1.2-2.6,2.3-3.9,3.5c0,0.1-0.1,0.1-0.1,0.1c-0.4,0.4-0.8,0.7-1.2,1.1c-0.1,0-0.1,0.1-0.2,0.1
		c0,0.1-0.1,0.1-0.1,0.1c-0.1,0.1-0.4,0.3-0.6,0.5l-0.1,0.1c0,0.1-0.1,0.1-0.1,0.1c-0.1,0.1-0.3,0.2-0.4,0.4l-0.1,0.1
		c0,0.1-0.1,0.1-0.1,0.1c-0.1,0.1-0.3,0.2-0.4,0.4c-0.1,0-0.1,0.1-0.1,0.1l-0.1,0.1h-0.1c-0.1,0.1-0.4,0.3-0.5,0.4
		c-0.1,0.1-0.1,0.1-0.2,0.1l-0.1,0.1c-0.1,0.1-0.2,0.1-0.3,0.1v59.2l43.4,34.1h-189.6l43.4-34.1v-59.2c-0.1,0-0.1-0.1-0.1-0.1
		c-0.2-0.1-0.4-0.3-0.5-0.4c-0.1-0.1-0.3-0.2-0.4-0.4c-0.1-0.1-0.3-0.2-0.5-0.4c-0.1-0.1-0.1-0.1-0.2-0.1c-0.1-0.1-0.4-0.3-0.5-0.4
		c-0.1-0.1-0.2-0.1-0.4-0.3c-0.1-0.1-0.3-0.2-0.4-0.3c-0.1-0.1-0.2-0.2-0.4-0.4c-0.1-0.1-0.3-0.2-0.4-0.3c-0.1-0.1-0.2-0.3-0.4-0.4
		c-0.1-0.1-0.1-0.1-0.1-0.1c-0.1,0-0.1-0.1-0.1-0.1h-0.1c-0.1-0.1-0.4-0.3-0.5-0.4c-0.1-0.1-0.1-0.1-0.1-0.1
		c-0.2-0.1-0.4-0.3-0.6-0.5c-0.1,0-0.1-0.1-0.1-0.1c-0.1-0.1-0.1-0.1-0.1-0.1c-1-0.9-2.1-1.8-3-2.7v62.4l-60.1,47.7h240.9
		l-60.1-47.7v-62.3H-565.9z"/>
	<path d="M-583.6,449c-4.5,2.6-9.2,4.7-14,5.8v60.1h-57.2v-60.1c-4.8-1.1-9.6-3.2-14-5.8c-0.4-0.2-0.9-0.4-1.3-0.7v57.8l-29.5,23.2
		h146.9l-29.5-23.2v-57.8C-582.7,448.6-583.2,448.9-583.6,449z"/>
	<path d="M-541.9,173.6c-15.3,1.5-30.9-0.4-45.6-4.8c-7.8-2.3-14.8-7.3-23.3-6c-5.6,0.9-10.7,4.3-15.3,7.2l0,0
		c-4.7-2.9-9.7-6.3-15.3-7.2c-8.6-1.3-15.5,3.7-23.3,6c-14.8,4.4-30.3,6.3-45.6,4.8l-6.7,8.1c8.4,25.8,14,52.1,17.4,78.9
		c3.4,26.8,4.4,54.1,3.7,82.1c8,5.3,14.4,11.1,20.2,17.5c8.4,9.2,15,22.5,25,29.7c14,10.2,35.5,10.2,49.5,0
		c10-7.2,16.6-20.5,25-29.7c5.8-6.4,12.2-12.2,20.2-17.5c-0.7-27.9,0.3-55.3,3.7-82.1c3.3-26.9,8.9-53.1,17.4-78.9L-541.9,173.6z
		 M-559.8,259.6c-3.3,26.2-4.4,52.7-3.8,79.2c-6.6,4.8-12.7,10.2-18.2,16.3c-8.1,9-14,21.7-23.8,28.8c-11.5,8.4-29.5,8.4-41,0
		c-9.8-7.1-15.7-19.8-23.8-28.8c-5.5-6.1-11.6-11.5-18.2-16.3c0.6-26.5-0.5-53-3.8-79.2c-3.2-25.9-8.6-51.6-16.4-76.5l1.7-2.1
		c15,1,30.1-1.1,44.5-5.3c6.2-1.8,13.8-6.8,20.2-5.8c5.9,0.9,11.7,5.6,16.4,8.5c4.7-2.9,10.5-7.6,16.4-8.5c6.3-1,14,4,20.2,5.8
		c14.4,4.2,29.5,6.3,44.5,5.3l1.7,2.1C-551.3,208.1-556.6,233.8-559.8,259.6z"/>
	<path d="M-488.4,194.6c6.3-18.6,14.3-36.2,23.5-53.5l-35.5-38.5c-9.9,6.3-18.6,9-30.5,8.4c-16.8-0.9-32-8-46.4-16
		c-9.1-5.1-26.6-15.2-35.5-11.1c-8.6,4-11.1,17.2-0.1,18.4c5.6,0.6,12.5-4.2,13.5-9.6c5.7,2.5,11.1,6.1,16.8,9.6
		c15.2,9.3,33.2,16.8,51.2,17.8c10.3,0.5,20.2-0.9,29.2-5.8l26.2,28.2c-8.4,16-15.3,32.4-21.1,49.2c-18.6,54.4-23.1,113-16.8,170
		c-14.5,7.9-27.2,18.2-37.3,31.3c-7.8,10-15,20.4-24.3,29.2c-7,6.6-18.6,16.1-28.7,17c-4.9,0.5-7-1.2-10.1-4.6
		c-4.2-4.6-9.7-1.7-7.6,4.1c2.7,7.2,11.4,10.3,18.5,9.6c12.3-1.2,25.4-11.2,34.1-19.4c9.6-9.1,17.1-19.8,25.2-30.2
		c10.9-14,24.3-23.5,39.9-31.7C-510.9,309-507.3,250.4-488.4,194.6z"/>
	<path d="M-708.5,398.6c8.1,10.4,15.6,21.1,25.2,30.2c8.6,8.2,21.7,18.3,34.1,19.4c7.1,0.7,15.8-2.4,18.5-9.6
		c2.2-5.8-3.4-8.7-7.6-4.1c-3.1,3.4-5.2,5.1-10.1,4.6c-10-0.9-21.7-10.4-28.7-17c-9.2-8.8-16.5-19.2-24.3-29.2
		c-10.1-13.1-22.8-23.4-37.3-31.3c6.3-57,1.8-115.6-16.8-170c-5.8-16.8-12.7-33.3-21.1-49.2l26.2-28.2c9.1,4.9,18.9,6.3,29.2,5.8
		c18-1,36-8.5,51.2-17.8c5.7-3.5,11.1-7.1,16.8-9.6c1,5.4,7.8,10.2,13.5,9.6c11-1.2,8.6-14.4-0.1-18.4c-8.9-4.1-26.4,6-35.5,11.1
		c-14.4,8-29.6,15-46.4,16c-11.8,0.6-20.5-2.2-30.5-8.4l-35.6,38.6c9.2,17.3,17.2,34.9,23.5,53.5c19.2,55.7,22.7,114.4,15.9,172.3
		C-732.8,375.1-719.4,384.6-708.5,398.6z"/>
	<path d="M-623,123.2c0-2.6-0.9-4.7-3.6-4.7h-4.6v9.4h4.6C-624.3,128.1-623,126.4-623,123.2z"/>
	<path d="M-642.8,256v40c0,6.9,7.5,12.6,16.6,12.6c9.1,0,16.6-5.7,16.6-12.6v-40H-642.8z M-635.7,298.6c-1.7,0-3.2-1.4-3.2-3.1
		s1.4-3.2,3.2-3.2c1.7,0,3.1,1.4,3.1,3.2C-632.6,297.2-634.1,298.6-635.7,298.6z M-635.7,267.6c-1.7,0-3.2-1.4-3.2-3.1
		s1.4-3.2,3.2-3.2c1.7,0,3.1,1.4,3.1,3.2S-634.1,267.6-635.7,267.6z M-626.2,283.2c-1.7,0-3.1-1.4-3.1-3.2c0-1.7,1.4-3.1,3.1-3.1
		s3.1,1.4,3.1,3.1C-623.1,281.9-624.5,283.2-626.2,283.2z M-616.6,298.6c-1.7,0-3.2-1.4-3.2-3.1s1.4-3.2,3.2-3.2
		c1.7,0,3.1,1.4,3.1,3.2C-613.5,297.2-614.9,298.6-616.6,298.6z M-616.6,267.6c-1.7,0-3.2-1.4-3.2-3.1s1.4-3.2,3.2-3.2
		c1.7,0,3.1,1.4,3.1,3.2S-614.9,267.6-616.6,267.6z"/>
	<path d="M-642.8,320.5v40.1c0,6.9,7.5,12.5,16.6,12.5c9.1,0,16.6-5.6,16.6-12.5v-40.1H-642.8z M-635.7,363.1
		c-1.7,0-3.2-1.4-3.2-3.1s1.4-3.2,3.2-3.2c1.7,0,3.1,1.4,3.1,3.2S-634.1,363.1-635.7,363.1z M-635.7,332.1c-1.7,0-3.2-1.4-3.2-3.2
		c0-1.7,1.4-3.1,3.2-3.1c1.7,0,3.1,1.4,3.1,3.1S-634.1,332.1-635.7,332.1z M-626.2,347.8c-1.7,0-3.1-1.4-3.1-3.2
		c0-1.7,1.4-3.1,3.1-3.1l0,0c1.7,0,3.1,1.4,3,3.1C-623.1,346.4-624.5,347.8-626.2,347.8z M-613.5,360.1c0,1.7-1.4,3.1-3.1,3
		c-1.7,0-3.2-1.4-3.2-3.1s1.4-3.2,3.2-3.2C-614.9,357-613.5,358.4-613.5,360.1C-613.5,360-613.5,360.1-613.5,360.1z M-616.6,332.1
		c-1.7,0-3.2-1.4-3.2-3.2c0-1.7,1.4-3.1,3.2-3.1c1.7,0,3.1,1.4,3.1,3.1S-614.9,332.1-616.6,332.1z"/>
	<path d="M-683,296c0,6.9,7.5,12.6,16.7,12.6s16.7-5.7,16.7-12.6v-40H-683V296z M-656.8,261.5c1.7,0,3.2,1.4,3.2,3.2
		c0,1.7-1.4,3.1-3.2,3.1c-1.7,0-3.2-1.4-3.2-3.1C-660,262.9-658.5,261.5-656.8,261.5z M-656.8,292.4c1.7,0,3.2,1.4,3.2,3.2
		c0,1.7-1.4,3.1-3.2,3.1c-1.7,0-3.2-1.4-3.2-3.1S-658.5,292.4-656.8,292.4z M-666.4,277c1.7,0,3.2,1.4,3.2,3.1s-1.4,3.2-3.2,3.2
		c-1.7,0-3.2-1.4-3.2-3.2C-669.6,278.4-668.1,277-666.4,277z M-676,261.5c1.7,0,3.2,1.4,3.2,3.2c0,1.7-1.4,3.1-3.2,3.1
		c-1.7,0-3.2-1.4-3.2-3.1C-679.1,262.9-677.7,261.5-676,261.5z M-676,292.4c1.7,0,3.2,1.4,3.2,3.2c0,1.7-1.4,3.1-3.2,3.1
		c-1.7,0-3.2-1.4-3.2-3.1C-679.1,293.9-677.7,292.4-676,292.4z"/>
	<path d="M-602.9,296c0,6.9,7.5,12.6,16.7,12.6c9.2,0,16.7-5.7,16.7-12.6v-40h-33.4V296z M-576.5,261.5c1.7,0,3.2,1.4,3.2,3.2
		c0,1.7-1.4,3.1-3.2,3.1c-1.7,0-3.2-1.4-3.2-3.1C-579.6,262.9-578.2,261.5-576.5,261.5z M-576.5,292.4c1.7,0,3.2,1.4,3.2,3.2
		c0,1.7-1.4,3.1-3.2,3.1c-1.7,0-3.2-1.4-3.2-3.1C-579.6,293.9-578.2,292.4-576.5,292.4z M-586,277c1.7,0,3.2,1.4,3.2,3.1
		s-1.4,3.2-3.2,3.2c-1.7,0-3.2-1.4-3.2-3.2C-589.2,278.4-587.8,277-586,277z M-595.6,261.5c1.7,0,3.2,1.4,3.2,3.2
		c0,1.7-1.4,3.1-3.2,3.1c-1.7,0-3.2-1.4-3.2-3.1C-598.8,262.9-597.3,261.5-595.6,261.5z M-595.6,292.4c1.7,0,3.2,1.4,3.2,3.2
		c0,1.7-1.4,3.1-3.2,3.1c-1.7,0-3.2-1.4-3.2-3.1S-597.3,292.4-595.6,292.4z"/>
	<path d="M-642.8,191.4v40.1c0,7,7.5,12.6,16.6,12.6c9.1,0,16.6-5.6,16.6-12.6v-40.1L-642.8,191.4L-642.8,191.4z M-635.7,234.2
		c-1.7,0-3.2-1.4-3.2-3.1c0-1.7,1.4-3.2,3.2-3.2c1.7,0,3.1,1.4,3.1,3.2C-632.6,232.9-634.1,234.2-635.7,234.2z M-635.7,203.1
		c-1.7,0-3.2-1.4-3.2-3.1c0-1.7,1.4-3.2,3.2-3.2c1.7,0,3.1,1.4,3.1,3.2C-632.6,201.9-634.1,203.1-635.7,203.1z M-626.2,218.9
		c-1.7,0-3.1-1.4-3.1-3.1c0-1.7,1.4-3.2,3.1-3.2s3.1,1.4,3.1,3.2C-623.1,217.4-624.5,218.9-626.2,218.9z M-616.6,234.2
		c-1.7,0-3.2-1.4-3.2-3.1c0-1.7,1.4-3.2,3.2-3.2c1.7,0,3.1,1.4,3.1,3.2C-613.5,232.9-614.9,234.2-616.6,234.2z M-616.6,203.1
		c-1.7,0-3.2-1.4-3.2-3.1c0-1.7,1.4-3.2,3.2-3.2c1.7,0,3.1,1.4,3.1,3.2C-613.5,201.9-614.9,203.1-616.6,203.1z"/>
</g>
</svg>
