<?xml version="1.0" encoding="utf-8"?>
<!-- Generator: Adobe Illustrator 27.2.0, SVG Export Plug-In . SVG Version: 6.00 Build 0)  -->
<svg version="1.1" id="Layer_1" xmlns="http://www.w3.org/2000/svg" xmlns:xlink="http://www.w3.org/1999/xlink" x="0px" y="0px"
	 viewBox="0 0 269 342" style="enable-background:new 0 0 269 342;" xml:space="preserve">
<style type="text/css">
	.st0{fill:#FFFFFF;}
</style>
<g>
	<path class="st0" d="M59.4,34.4C73.6,40.9,82.5,49,84,50.5c-0.8-3.8-3.5-21.2-5-32.3c8.1,5.8,27.3,19.2,33.5,23.5
		c2.3-8.1,11.2-34.3,11.2-34.3s15.8,26.2,18.9,30.4c3.5-3.5,22.3-25,27.3-30.4c0.8,12.3,1.9,30,2.3,32.7c1.2-1.2,8.5-11.5,20.4-21.2
		c-5.4,10.4-7.7,25-8.9,36.9c-11.9-3.5-24.6-5.4-37.7-5.4c-25,0-48.9,6.5-69.3,18.5C72.9,57.5,67.1,43.6,59.4,34.4"/>
	<path class="st0" d="M206,181.4v-18.1c0,0-8.1-2.7-16.5-9.2c-17.3,2.7-38.1,20-38.1,20s6.9,13.5,14.6,28.1
		C179.5,204.1,199.5,186.8,206,181.4"/>
	<path class="st0" d="M223.3,214.1c0,0-1.5-7.7-7.3-14.6l-13.5,0.4c0,0-18.1,15.8-29.2,16.2c0,0,6.2,11.5,9.2,17.3
		c6.2-1.2,16.9-6.2,21.2-11.2c0,0,2.7,9.2,2.3,20.4C211.8,239.1,220.3,229.5,223.3,214.1"/>
	<path class="st0" d="M228.7,154.5c-6.9,5.8-12.7,8.9-12.7,8.9v18.1c5,5.4,9.6,10,13.1,18.1C236.4,187.5,234.9,169.5,228.7,154.5"/>
	<path class="st0" d="M230.3,138.3l1.2-8.5c0.4-4.6-0.8-12.3-7.3-20c-7.7-8.9-27.7-23.1-36.9-26.6c0,0-0.8,9.2-3.8,13.5
		c-18.9-13.9-28.1-16.9-28.1-16.9c-20.8,3.1-33.9,11.2-41.2,17.3l6.2,5.4c-12.3,3.8-20.4,14.6-20.4,14.6L111,119
		c0,0-1.2,13.1,15,21.2c13.9,6.9,33.9-1.5,52.7,5.8c-12.3-14.2-20.8-20.8-20.8-20.8s-5-1.2-8.5-1.2c-4.2,0-10.8,0.8-17.7-1.9
		c-3.5-1.2-7.3-3.8-10.4-5.8c0,0,8.5-8.9,21.2-11.2c0,0,11.5,3.1,20.4,10c6.2-5.8,12.3-5.8,12.3-5.8s-6.2,5.8-4.2,13.1
		c9.2,8.1,18.9,19.6,18.9,19.6c10-5.4,31.6-4.2,36.2,0.8c-5.8-7.3-13.9-13.5-20-18.9c-0.8-2.7-7.7-12.3-8.9-13.5
		c0,0,6.5,1.9,12.3,7.3c1.5-2.3,5-5,9.2-5.8c4.2,3.8,5,9.6,5,10.4c-1.9,2.3-3.8,3.5-3.8,3.5L230.3,138.3l1.2-8.5"/>
	<path class="st0" d="M240.7,144.8c16.2,30,20,66.2,8.9,102c-0.8-0.8-9.2-10.4-12.7-14.2c-2.3,35-12.3,62.3-42.3,85.4
		c0,0-2.7-11.2-4.6-18.1c-49.3,36.6-91.6,19.6-103.5,13.9c9.2-42.7,1.9-67.3-4.2-85.8c-13.1,21.9-26.6,38.5-40,50
		c-9.2-21.6-10-62-2.3-85.4c-2.3,0.8-16.9,5.4-25,7.7c3.1-21.9,17.3-50.8,32.3-65.4c-1.9-0.4-9.6-1.5-15.8-2.3
		c3.8-7.7,14.6-21.9,31.6-35.4c-0.4,9.6,3.1,20.8,13.5,26.2c-6.9-11.9-7.7-26.6-0.4-34.3c6.9-7.7,18.9-5,26.6,0.8
		c-1.5-4.2-4.6-8.9-8.9-11.9c20.8-9.6,46.2-15.4,74.7-11.2c4.2,3.8,9.2,9.2,11.9,12.7c0-2.3-0.4-6.9-1.2-10.8
		c11.5,2.7,23.9,7.3,36.6,13.9C192.9,59.8,147.1,52.8,109,64c-8.9,2.7-17.3,6.2-25.4,10c-8.5,0-13.9,5.4-16.9,10
		c-24.6,16.5-42.3,38.1-50.8,56.2c1.9,0.4,7.7,1.2,13.1,1.9c-11.2,15.8-25.4,45.4-24.6,72.4c2.3-0.8,15.8-5,22.3-6.9
		c-3.5,23.5-2.3,63.1,12.7,85.8c19.2-13.9,30-28.1,39.3-40.8c2.3,11.5,4.6,32.3-3.5,66.6c6.5,5,54.3,30.4,108.5-2.7l4.6,18.1
		l5.8-3.8c33.1-21.6,45.4-50.8,50-74.7c1.5,1.5,7.7,8.5,9.6,10.4C262.2,243.7,278.8,189.1,240.7,144.8"/>
</g>
</svg>
