<?xml version="1.0" encoding="utf-8"?>
<!-- Generator: Adobe Illustrator 27.2.0, SVG Export Plug-In . SVG Version: 6.00 Build 0)  -->
<svg version="1.1" id="Capa_1" xmlns="http://www.w3.org/2000/svg" xmlns:xlink="http://www.w3.org/1999/xlink" x="0px" y="0px"
	 viewBox="0 0 240 298.2" style="enable-background:new 0 0 240 298.2;" xml:space="preserve">
<style type="text/css">
	.st0{fill:#FFFFFF;}
</style>
<g>
	<g>
		<g transform="matrix(.44962 0 0 -.44962 -1596.905 937.635)">
			<path class="st0" d="M3594.9,1445.6c-0.5,0.5-0.8,1.5-0.1,2.3l10.2,11.7c0.5,0.7,1.3,0.7,2,0.1c6-4.8,14.2-9.4,23.9-9.4
				c9.5,0,14.9,4.4,14.9,10.9c0,5.4-3.2,8.7-14.1,10.2l-4.8,0.7c-18.5,2.5-28.8,11.3-28.8,27.3c0,16.8,12.6,27.9,32.3,27.9
				c12.1,0,23.3-3.6,31-9.5c0.8-0.5,0.9-1.1,0.3-2l-8.2-12.2c-0.5-0.7-1.2-0.8-1.9-0.4c-7,4.6-13.7,7-21.2,7c-8,0-12.2-4.2-12.2-9.9
				c0-5.2,3.8-8.6,14.2-10.1l4.8-0.7c18.8-2.5,28.7-11.1,28.7-27.6c0-16.5-12.2-28.7-35.8-28.7
				C3615.8,1433.1,3602,1438.7,3594.9,1445.6"/>
			<path class="st0" d="M3676.4,1524.4c0,0.8,0.5,1.3,1.3,1.3h58.5c0.8,0,1.3-0.5,1.3-1.3v-14.3c0-0.8-0.5-1.3-1.3-1.3H3697
				c-0.5,0-0.8-0.3-0.8-0.8v-18.1c0-0.5,0.3-0.8,0.8-0.8h32.7c0.8,0,1.3-0.5,1.3-1.3v-14.2c0-0.8-0.5-1.3-1.3-1.3H3697
				c-0.5,0-0.8-0.3-0.8-0.8v-18.9c0-0.5,0.3-0.8,0.8-0.8h39.3c0.8,0,1.3-0.5,1.3-1.3v-14.3c0-0.8-0.5-1.3-1.3-1.3h-58.5
				c-0.8,0-1.3,0.5-1.3,1.3V1524.4z"/>
			<path class="st0" d="M3798.4,1497.5c0,6.8-4.8,11.3-12.3,11.3H3770c-0.5,0-0.8-0.3-0.8-0.8v-21c0-0.5,0.3-0.8,0.8-0.8h16.1
				C3793.6,1486.1,3798.4,1490.5,3798.4,1497.5 M3799.9,1434.6c-1.2,0-1.6,0.4-2,1.3l-15.7,33.4H3770c-0.5,0-0.8-0.3-0.8-0.8v-32.6
				c0-0.8-0.5-1.3-1.3-1.3h-17c-0.8,0-1.3,0.5-1.3,1.3v88.5c0,0.8,0.5,1.3,1.3,1.3h36.3c18.6,0,31-11.7,31-28.3
				c0-11.7-6.2-20.9-16.2-25.3l18-35.9c0.4-0.8,0-1.6-0.9-1.6H3799.9z"/>
			<path class="st0" d="M3830.5,1524.4c0,0.8,0.5,1.3,1.3,1.3h17c0.8,0,1.3-0.5,1.3-1.3v-88.5c0-0.8-0.5-1.3-1.3-1.3h-17
				c-0.8,0-1.3,0.5-1.3,1.3V1524.4z"/>
			<path class="st0" d="M3864.9,1524.4c0,0.8,0.5,1.3,1.3,1.3h58.5c0.8,0,1.3-0.5,1.3-1.3v-14.3c0-0.8-0.5-1.3-1.3-1.3h-39.3
				c-0.5,0-0.8-0.3-0.8-0.8v-18.1c0-0.5,0.3-0.8,0.8-0.8h32.7c0.8,0,1.3-0.5,1.3-1.3v-14.2c0-0.8-0.5-1.3-1.3-1.3h-32.7
				c-0.5,0-0.8-0.3-0.8-0.8v-18.9c0-0.5,0.3-0.8,0.8-0.8h39.3c0.8,0,1.3-0.5,1.3-1.3v-14.3c0-0.8-0.5-1.3-1.3-1.3h-58.5
				c-0.8,0-1.3,0.5-1.3,1.3V1524.4z"/>
			<path class="st0" d="M4012,1468.6l-10.3,31.9h-0.4l-10.3-31.9H4012z M3991.5,1524.4c0.3,0.8,0.8,1.3,1.7,1.3h16.9
				c0.9,0,1.5-0.5,1.7-1.3l30.8-88.5c0.3-0.8,0-1.3-0.9-1.3h-17.4c-0.9,0-1.5,0.4-1.7,1.3l-5.2,16h-31.9l-5.1-16
				c-0.3-0.9-0.8-1.3-1.7-1.3h-17.6c-0.9,0-1.2,0.5-0.9,1.3L3991.5,1524.4z"/>
			<path class="st0" d="M3818.6,1548l222.2,140.8h-136.1L3818.6,1548z M3818.6,1548l-222.2,140.8h136.1L3818.6,1548z"/>
		</g>
	</g>
	<g>
		<path class="st0" d="M92.4,4.9L20.1,173.3h61.2L120,71.1l16.7,44.1h-21.1l-14.4,38h49.9l7.6,20.1h61.2L147.6,4.9H92.4z"/>
	</g>
</g>
</svg>
