<?xml version="1.0" encoding="utf-8"?>
<!-- Generator: Adobe Illustrator 27.2.0, SVG Export Plug-In . SVG Version: 6.00 Build 0)  -->
<svg version="1.1" id="Capa_1" xmlns="http://www.w3.org/2000/svg" xmlns:xlink="http://www.w3.org/1999/xlink" x="0px" y="0px"
	 viewBox="0 0 327.7 305.1" style="enable-background:new 0 0 327.7 305.1;" xml:space="preserve">
<style type="text/css">
	.st0{fill:#FFFFFF;}
</style>
<path class="st0" d="M277.6,242.7c16.8,1.4,33.5,3.1,50.2,5c-13.6-5.3-27.7-9.8-41.9-13.7c-2.1,3-4.3,6-6.7,8.8
	C278.6,242.8,278.1,242.8,277.6,242.7z"/>
<path class="st0" d="M41.9,234c-14.3,3.9-28.3,8.5-41.9,13.7c16.6-2,33.4-3.7,50.2-5c-0.5,0-1,0.1-1.5,0.1
	C46.3,240,44.1,237,41.9,234z"/>
<path class="st0" d="M163.9,0C81.7,0,15.1,66.6,15.1,148.8c0,31.7,9.9,61.1,26.9,85.2c2.1,3,4.3,6,6.7,8.8c0.5,0,1-0.1,1.5-0.1
	c6.7-0.5,13.4-1,20.1-1.5c-0.5,0-1,0.1-1.5,0.1v0l1.5-14l0.5-4.5c1,1.3,2.1,2.5,3.1,3.8c4.2,4.9,8.9,9.4,13.9,13.6
	c0.4,0,0.7,0,1.1-0.1c2.4-0.1,4.9-0.3,7.3-0.4c0.4,0,0.9,0,1.3-0.1c5.1-0.2,10.3-0.5,15.4-0.7c-7.7-4.3-14.7-9.6-21-15.7
	c-19.6-18.8-31.7-45.3-31.7-74.6c0-57.2,46.4-103.6,103.6-103.6c57.2,0,103.6,46.4,103.6,103.6c0,29.3-12.2,55.8-31.7,74.6
	c-6.3,6.1-13.3,11.3-21,15.7c8.1,0.3,16.2,0.7,24.2,1.1c0.4,0,0.8,0,1.2,0.1c-0.1,0-0.2,0-0.3,0c5.1-4.2,9.7-8.8,13.9-13.6
	c1.1-1.2,2.1-2.5,3.2-3.8l0.5,4.5l1.5,14v0c-0.5,0-0.9-0.1-1.4-0.1c6.7,0.5,13.3,0.9,20,1.5c0.5,0,1,0.1,1.5,0.1
	c2.3-2.9,4.6-5.8,6.7-8.8c16.9-24.1,26.9-53.5,26.9-85.2C312.6,66.6,246,0,163.9,0z M31.2,133.6L31.2,133.6l13.5,14L31,161.8
	C30.1,152.5,30.2,143,31.2,133.6z M35.4,113.1l17.9-7.9c-3,7.7-5.2,15.5-6.6,23.5L35.4,113.1z M46.3,166.3c1.2,8.1,3.2,16,6.1,23.6
	l-17.6-7.9L46.3,166.3z M55.3,226.5c-5.5-7.7-10.2-16-13.9-24.6l18.6,5.4L55.3,226.5z M42.3,93.8c1.4-3.2,3-6.3,4.7-9.4
	c2.9-5.3,6.1-10.2,9.6-14.9c0,0,0,0,0,0l4.6,18.9L42.3,93.8z M72.3,72.9l-2-19.2l19.3,2.1C83.4,60.8,77.6,66.5,72.3,72.9z
	 M105.2,45.2L86,40.4c7.7-5.5,16-10.2,24.6-13.9L105.2,45.2z M122.5,37.4l7.9-17.6l15.7,11.5C138.1,32.5,130.2,34.5,122.5,37.4z
	 M163.9,29.8l-13.2-13.7c4.4-0.5,8.8-0.7,13.2-0.7c4.4,0,8.9,0.2,13.2,0.7L163.9,29.8z M181.6,31.3l15.7-11.5l7.9,17.6
	C197.6,34.5,189.6,32.5,181.6,31.3z M222.5,45.2l-5.4-18.7c8.6,3.8,16.9,8.4,24.6,13.9L222.5,45.2z M255.4,72.9
	c-5.2-6.4-11.1-12.1-17.4-17.1l19.3-2.1L255.4,72.9z M266.5,88.3l4.6-18.9c0,0,0,0,0,0c3.5,4.7,6.7,9.7,9.6,14.9
	c1.7,3.1,3.3,6.2,4.7,9.4L266.5,88.3z M292.4,113.1l-11.3,15.6c-1.3-7.9-3.5-15.8-6.6-23.5L292.4,113.1z M272.4,226.5
	C272.4,226.5,272.4,226.5,272.4,226.5L272.4,226.5l-4.7-19.2l18.6-5.4C282.5,210.5,277.9,218.8,272.4,226.5z M275.4,190
	c2.8-7.6,4.9-15.6,6.1-23.6l11.5,15.8L275.4,190z M283,147.6l13.5-14h0c1.1,9.5,1.1,18.9,0.2,28.3L283,147.6z"/>
<path class="st0" d="M83.1,106c-1.7,1.3-3.2,2.6-4.6,4c-1.5-1.2-3-2.5-4.4-3.7c-0.4,0.8-0.7,1.6-1.1,2.4c0,0,0,0.1,0,0.1
	c-0.3,0.8-0.7,1.5-1,2.3c0,0.1-0.1,0.1-0.1,0.2c-0.3,0.7-0.6,1.5-0.9,2.3c0,0.1-0.1,0.2-0.1,0.2c-0.3,0.8-0.6,1.5-0.8,2.3
	c0,0.1,0,0.1-0.1,0.2c-0.3,0.8-0.6,1.6-0.8,2.5c0,0,0,0,0,0c-1.1,3.4-2,6.9-2.7,10.4c0,0.2-0.1,0.3-0.1,0.5
	c-0.1,0.7-0.3,1.4-0.4,2.1c0,0.2-0.1,0.5-0.1,0.7c-0.1,0.6-0.2,1.2-0.3,1.9c0,0.3-0.1,0.6-0.1,0.8c-0.1,0.6-0.2,1.2-0.2,1.8
	c0,0.3-0.1,0.6-0.1,0.9c-0.1,0.6-0.1,1.2-0.2,1.8c0,0.3-0.1,0.6-0.1,0.9c0,0.6-0.1,1.2-0.1,1.8c0,0.3,0,0.6-0.1,0.9
	c0,0.7-0.1,1.3-0.1,2c0,0.2,0,0.5,0,0.7c0,0.9,0,1.8,0,2.7c0,1.1,0,2.3,0.1,3.4c0,0.2,0,0.5,0,0.7c0.1,2.3,0.3,4.6,0.5,6.8
	c0,0.1,0,0.2,0,0.3c0.1,1.1,0.3,2.3,0.4,3.4c1.3-2.5,3.1-5,5.2-7c3.1,3.7,9.7,9.7,21.3,14.3c-9.1-6.3-14.6-15.9-17.1-21.2
	c-0.4-5-0.8-17.4,4.3-33.2c1.3-1.4,2.6-3,4.2-4.5c0-0.2-0.1-0.4-0.1-0.5C83.1,109.5,83,107.7,83.1,106z"/>
<path class="st0" d="M151.9,191.3c0-0.3,0.6-7,4.8-13.3c-0.3-1.4-0.7-3.1-1.2-5c-6.4-4.9-14.7-11.3-21.3-16.7
	c-0.3-2.8-0.9-9.2-1-15.8c-0.7,0-1.5-0.1-2.3-0.1c-0.6,0-1.2,0-1.9,0c-1.8,6.4-2.4,12.4-2.6,15.9c-7.3,3.5-22.6,11.3-28.7,17.8
	l-0.5,0.5v0.7c0,0.8,0.2,20.4,12.1,35.9c-2.4,7.2-7,12.5-8.5,14c0.1,0.1,0.2,0.1,0.3,0.2c2-0.6,7.5-2.7,14-10.3
	c4.6,1.5,13.7,3.9,25.1,3.9c4.5,0,9.4-0.4,14.5-1.3l1-0.2l0.4-0.9c0.1-0.3,1.1-2.6,2.4-6c-2.6-6.2-5.1-12.9-6.5-18.5
	C151.9,192,151.9,191.7,151.9,191.3z"/>
<path class="st0" d="M192.7,53.7C192.6,53.7,192.6,53.7,192.7,53.7c-8.4,4.5-12.6,10.1-13.2,10.5c0.2-0.1,9.4-6.1,22.7-7.1
	C199,55.8,195.9,54.7,192.7,53.7z"/>
<path class="st0" d="M154.9,62.6c1.2,0.1,2.2,0.9,2.6,2c0.1,0.2,1.2,3.6,1.5,7.7c4.5,1.9,9.4,3.7,12.2,4.4c0.5-1.3,1.4-2.7,2.9-3.9
	c0.5-0.4,1.2-0.7,1.9-0.7c0.2,0,0.4,0,0.6,0.1c0,0,0.7,0.1,1.8,0.4c-0.4-2.5-1-4.8-1.6-6.5l-0.3-0.8l-0.7-0.3
	c-0.7-0.3-12.3-5.2-26.2-5.2c-4.2,0-8.5,0.4-12.9,1.6c-1.5-1.8-3.5-4-6.1-6.3c-0.7,0.2-1.4,0.5-2.1,0.8c-0.3,0.1-0.5,0.2-0.8,0.3
	c0.9,2.8,1.3,5.6,1.4,8.1c6-1,13.8-2,20.7-2C151.6,62.4,153.4,62.4,154.9,62.6z"/>
<path class="st0" d="M201.7,78.7c-8.5,0-25.7-3.4-25.7-3.4c-2.3,1.9-2.5,4.8-2.5,4.8c0,0,0,0,0,0l0,0c-0.1,0-0.3,0-0.4,0
	c-0.3,0-0.8-0.1-1.2-0.1c0,0-0.1,0-0.1,0c-0.1,0-0.3-0.1-0.4-0.1c0,0-0.1,0-0.1,0c-5-1.1-15.1-5.5-15.1-5.5c0-4.5-1.5-8.8-1.5-8.8
	c-0.2,0-0.4,0-0.6,0c-1.4-0.1-2.8-0.2-4.3-0.2c-0.8,0-1.5,0-2.3,0c-0.1,0-0.1,0-0.2,0c-0.4,0-0.7,0-1.1,0c-0.1,0-0.1,0-0.2,0
	c-0.4,0-0.7,0-1.1,0.1c0,0-0.1,0-0.1,0c-11.7,0.7-24.4,3.6-24.4,3.6S90,85.8,86.4,103.8c0,0,0,0,0,0c-0.1,0.4-0.2,0.9-0.2,1.3
	c0,0,0,0.1,0,0.1c-0.2,1.4-0.2,2.7,0,4.1c0,0,0,0,0,0c0.1,0.4,0.1,0.9,0.2,1.3c4.4,20.4,23.3,30.4,23.3,30.4
	c8-2.4,14.7-3.3,20.2-3.4c0,0,0,0,0,0c0.3,0,0.5,0,0.8,0c0.1,0,0.1,0,0.2,0c0.8,0,1.5,0,2.3,0.1c0,0,0,0,0,0c0,0,0,0,0,0
	c9.9,0.4,14.9,3.5,14.9,3.5c2.6,7-0.2,12.6-0.2,12.6c6.6,4.7,10.1,16.9,11.4,22.4l0,0c0,0,0,0,0,0c0.4,1.7,0.6,2.7,0.6,2.7
	c0,0,0,0,0,0c0,0,0,0,0,0c-3.3,4.5-4.5,9.5-4.8,11.7c-0.1,0.7-0.2,1.2-0.2,1.2c0,0.1,0.1,0.3,0.1,0.4c0.1,0.4,0.2,0.8,0.3,1.1
	c0.1,0.2,0.1,0.5,0.2,0.7c0.1,0.3,0.2,0.6,0.3,0.9c0.1,0.3,0.2,0.5,0.2,0.8c0.1,0.3,0.2,0.6,0.3,0.9c0.1,0.3,0.2,0.5,0.3,0.8
	c0.1,0.3,0.2,0.7,0.3,1c0.2,0.4,0.3,0.9,0.5,1.3c0.1,0.3,0.2,0.6,0.3,0.9c0.1,0.3,0.2,0.6,0.3,0.9c0.1,0.3,0.2,0.6,0.3,0.8
	c0.1,0.3,0.2,0.6,0.4,0.9c0.1,0.3,0.2,0.5,0.3,0.8c0.1,0.3,0.2,0.6,0.4,1c0.1,0.3,0.2,0.5,0.3,0.8c4.6,11.8,10.2,23.2,10.2,23.2
	l21.4-2l-0.4,0c14-16.9,12.3-24.7,12.3-24.7c2.4-0.5,4.6-1.7,6.5-3c0,0.2-0.1,0.5-0.1,0.7c0.4-2.4,0-3.6,0-3.6
	c6.8-1.4,12.3-8.4,12.3-8.4c-1.1-3.7-1.7-7.6-1.9-11.3l0,0c0,0,0-0.1,0-0.1c-0.1-0.8-0.1-1.7-0.1-2.5c0,0,0-0.1,0-0.1
	c0-0.8,0-1.6,0-2.4c0,0,0,0,0-0.1c0,0,0-0.1,0-0.1c0-0.4,0-0.9,0-1.3c0,0,0-0.1,0-0.1c0-0.9,0-1.8,0.1-2.7c0-0.1,0-0.2,0-0.3
	c0-0.3,0-0.6,0.1-0.9c0-0.1,0-0.3,0-0.4c0-0.3,0-0.5,0.1-0.8c0-0.1,0-0.3,0-0.4c0-0.2,0-0.5,0.1-0.7c0-0.1,0-0.3,0-0.4
	c0-0.3,0.1-0.6,0.1-0.9c0-0.2,0-0.4,0.1-0.6c0-0.1,0-0.2,0-0.3c0-0.2,0-0.4,0.1-0.6c0-0.1,0-0.2,0-0.2c0-0.2,0-0.4,0.1-0.6
	c0,0,0-0.1,0-0.1c0.2-1.8,0.4-2.8,0.4-2.8c0,0,0,0,0,0c0,0,0,0,0,0c0.8-0.7,1.6-1.4,2.3-2.1c0.4-0.4,0.9-0.8,1.3-1.2
	c0.5-0.4,1-0.9,1.4-1.3c0.4-0.4,0.8-0.7,1.2-1.1c0.4-0.4,0.9-0.8,1.3-1.3c0.4-0.4,0.7-0.7,1.1-1.1c0.4-0.4,0.8-0.8,1.2-1.2
	c0.3-0.3,0.7-0.7,1-1c0.4-0.4,0.7-0.8,1.1-1.1c0.3-0.3,0.6-0.7,0.9-1c0.3-0.4,0.7-0.7,1-1.1c0.3-0.3,0.6-0.6,0.9-0.9
	c0.3-0.3,0.6-0.7,0.9-1c0.3-0.3,0.5-0.6,0.8-0.9c0.3-0.3,0.6-0.7,0.8-1c0.2-0.3,0.5-0.6,0.7-0.9c0.3-0.3,0.5-0.6,0.7-0.9
	c0.2-0.3,0.4-0.5,0.6-0.8c0.2-0.3,0.4-0.6,0.7-0.9c0.2-0.3,0.4-0.5,0.6-0.8c0.2-0.3,0.4-0.6,0.6-0.8c0.2-0.2,0.3-0.5,0.5-0.7
	c0.2-0.3,0.4-0.5,0.5-0.8c0.1-0.2,0.3-0.5,0.4-0.7c0.2-0.3,0.3-0.5,0.5-0.7c0.1-0.2,0.3-0.4,0.4-0.6c0.1-0.2,0.3-0.5,0.4-0.7
	c0.1-0.2,0.2-0.4,0.3-0.6c0.1-0.2,0.2-0.4,0.3-0.7c0.1-0.2,0.2-0.4,0.3-0.5c0.1-0.2,0.2-0.4,0.3-0.6c0.1-0.2,0.2-0.3,0.2-0.5
	c0.1-0.2,0.2-0.4,0.2-0.6c0.1-0.2,0.1-0.3,0.2-0.4c0.1-0.2,0.1-0.4,0.2-0.6c0-0.1,0.1-0.3,0.1-0.4c0.1-0.2,0.1-0.4,0.2-0.5
	c0-0.1,0.1-0.2,0.1-0.3c0-0.2,0.1-0.3,0.1-0.5c0-0.1,0-0.2,0.1-0.3c0-0.2,0.1-0.3,0.1-0.5c0-0.1,0-0.2,0-0.2c0-0.2,0-0.3,0.1-0.5
	c0-0.1,0-0.1,0-0.2c0-0.2,0-0.3,0-0.4c0,0,0-0.1,0-0.1c0-0.2,0-0.3,0-0.4c0,0,0,0,0-0.1c0-0.2,0-0.3,0-0.4c0,0,0,0,0,0
	c-0.1-1-0.4-1.4-0.4-1.4c-0.2,0.1-0.5,0.3-0.7,0.4c0,0-0.1,0-0.1,0c0,0,0,0,0,0c0,0,0,0,0,0c-0.2,0.1-0.3,0.2-0.5,0.2c0,0,0,0,0,0
	c-6.2,2.8-18.3,3.9-18.3,3.9c-0.8-0.9-1.7-1.8-2.4-2.6c-0.2-0.2-0.4-0.4-0.6-0.7c-0.7-0.8-1.4-1.6-2.1-2.5c0-0.1-0.1-0.1-0.1-0.2
	l0,0c-16-19.6-19-39.8-19-39.8C202.9,78.7,202.3,78.7,201.7,78.7z"/>
<path class="st0" d="M245.7,117.3C245.7,117.2,245.7,117.2,245.7,117.3c0.9-5.6,1.2-15.9-4.5-28.3c2.6,10.9-0.1,21.2-2.1,26.4
	l-13.4,2.4c1,1.1,2,2.3,3,3.4C233.3,120.8,242.1,119.4,245.7,117.3z"/>
<path class="st0" d="M258.6,153.1c-0.4-4.5-2-16.6-8.2-28.3c-1.3,6.1-7.2,16.9-26.6,34.1c-0.4,2.9-1.5,11.4-0.5,20.3l8.6,6.5
	c0.2-0.2,0.5-0.3,0.7-0.5c0.5-0.3,1.1-0.7,1.7-1l0.1-0.1l0.1,0c0.4-0.3,0.9-0.5,1.4-0.8c0.2-0.3,0.5-0.7,0.8-1.2
	c0.5-0.8,0.8-1.5,1-2.2c0.2-0.7,0.7-1.2,1.4-1.4l0-0.1l0.1,0.1c0.1,0,0.3,0,0.4,0c0.6,0,1.1,0.2,1.5,0.7c0,0,0,0,0.1,0.2
	c0,0.1,0.1,0.1,0.2,0.3l0.1,0.1c0.1,0.1,0.1,0.2,0.2,0.3l0.1,0.1c0.1,0.1,0.1,0.3,0.2,0.4c0,0.1,0.1,0.1,0.1,0.2
	c0.1,0.2,0.1,0.3,0.2,0.5c0,0,0,0,0,0c4.4-4.6,10.2-11.5,14.2-20.2l6-1c0,0,0,0,0,0c0.1-0.8,0.2-1.7,0.2-2.5c0-0.1,0-0.3,0-0.4
	c0.1-0.7,0.1-1.4,0.2-2.2c0-0.2,0-0.3,0-0.5L258.6,153.1z"/>
<path class="st0" d="M169.9,232c-1.1,0-2.2-0.6-2.7-1.7c-0.1-0.2-0.9-1.9-2.2-4.5c-4.6-2.3-7.5-4-7.6-4.1c0.6,1,3.2,9.1,20.5,15.7
	l-0.4,0.8c0.4,0,0.8,0,1.2,0c3.8,0,7.7,0.1,11.5,0.2c0.8,0,1.7,0,2.5,0c4.4,0.1,8.8,0.2,13.2,0.3c1.2-0.6,2.4-1.2,3.6-1.8
	c0.2-0.1,0.5-0.2,0.7-0.4c1.1-0.6,2.3-1.2,3.4-1.9c0,0,0,0,0,0c2.4-1.4,4.8-2.9,7.1-4.6c0.3-0.2,0.7-0.5,1-0.7
	c0.8-0.5,1.5-1.1,2.3-1.7c0.5-0.4,0.9-0.7,1.4-1.1c0.6-0.5,1.2-0.9,1.8-1.4c0.5-0.4,1-0.9,1.5-1.3c0.3-0.3,0.7-0.6,1-0.9l-2.9-1.5
	c1.1-1.9,2.4-4.5,3.6-7.9c-0.1,0-0.2,0.1-0.3,0.1l0,0c-0.1,0-0.1,0-0.2,0.1c-0.2,0.1-0.5,0.1-0.7,0.2c-0.1,0-0.1,0-0.2,0
	c-0.7,0.2-1.4,0.3-2.1,0.3c-0.4,0-0.7,0-1.1-0.1c-1.5,2.9-2.9,4.9-3.8,6.1l-0.1,0.1c-11.2,9.1-28.3,12.3-36.6,13.3
	c-2.7-0.7-5.2-1.6-7.7-2.5l-7.6,0.7C170.1,231.9,170,232,169.9,232z"/>
<path class="st0" d="M240.2,181.4c-0.1-0.1-0.1-0.2-0.2-0.3c0,0,0-0.1-0.1-0.1c-0.1-0.1-0.1-0.2-0.2-0.2c0,0,0,0,0-0.1
	c0-0.1-0.1-0.1-0.1-0.2c0,0,0,0,0,0c0,0,0-0.1,0-0.1c-0.3,1-0.7,1.9-1.2,2.7c-0.6,1.1-1.2,1.8-1.2,1.8c-0.1,0-0.1,0.1-0.2,0.1
	c-0.5,0.3-1,0.5-1.5,0.8c-0.1,0-0.2,0.1-0.2,0.1c-0.5,0.3-1.1,0.6-1.6,1c-3.7,2.3-6.5,4.5-6.5,4.5c-1,3.5-0.4,7-0.4,7l-3.3,3.4
	c0.7,3.2-0.1,8.5-0.1,8.5c0.2,0.2,0.3,0.5,0.5,0.6c0.1,0.1,0.2,0.2,0.3,0.2c0.1,0.1,0.2,0.2,0.3,0.3c0.1,0.1,0.2,0.1,0.4,0.2
	c0.1,0,0.2,0.1,0.2,0.1c0.1,0.1,0.3,0.1,0.4,0.2c0.1,0,0.1,0.1,0.2,0.1c0,0,0,0,0,0c0.4,0.1,0.9,0.2,1.3,0.2c0.5,0,1.1-0.1,1.6-0.2
	c0,0,0.1,0,0.1,0c0.2-0.1,0.4-0.1,0.6-0.2c0.1,0,0.1,0,0.2-0.1c0.1-0.1,0.3-0.1,0.4-0.2c0.1,0,0.1-0.1,0.2-0.1
	c0.1,0,0.2-0.1,0.3-0.1c0.1,0,0.2-0.1,0.2-0.1c0.1,0,0.1-0.1,0.2-0.1c0.1,0,0.2-0.1,0.2-0.1c0,0,0,0,0,0c0.1,0,0.1-0.1,0.2-0.1
	c0,0,0,0,0,0c0,0,0,0,0,0c0.3-5.2,7.3-15.9,7.3-15.9c2.4-4.6,2.7-8.1,2.4-10.5c0,0,0,0,0,0c0-0.1,0-0.1,0-0.2c0-0.2-0.1-0.4-0.1-0.6
	c0-0.1,0-0.2-0.1-0.3c0-0.2-0.1-0.4-0.1-0.5c0-0.1-0.1-0.2-0.1-0.3c-0.1-0.2-0.1-0.3-0.2-0.5c0-0.1-0.1-0.1-0.1-0.2
	c-0.1-0.1-0.1-0.3-0.2-0.4C240.2,181.5,240.2,181.4,240.2,181.4z"/>
<path class="st0" d="M80.1,305.2c-7.7,0-12.7,0.4-19.4-2.2c-5.8-2.2-6.8-5.5-6.8-9.6v-26.1c0-3.7,0.6-6.2,4.7-8.7
	c3.7-2.2,9.8-2.7,15.9-2.7h34.7l0.1,10.4H78c-1.4,0-2.5,0.4-3.5,1c-1,0.7-1.2,1.4-1.2,2.2v22c0,1,0.6,1.7,1.9,2.3
	c1.6,0.8,3.5,0.5,5.7,0.5h28.9v10.7L80.1,305.2L80.1,305.2z"/>
<path class="st0" d="M181.6,305.2l-5.1-10.7h-25.7l-5.7,10.7h-19.5l23.5-43.6c2.1-3.9,7.2-6.7,14.4-6.7c6.8,0,12.1,2.4,14,6.1
	l24,44.2H181.6z M163.4,268l-7.6,15.8h15.2L163.4,268z"/>
<path class="st0" d="M242.5,266.3c-1.5,0-2.5,0.5-3.5,1.1c-1,0.6-1.3,1.3-1.3,2.2v5.1h36.1v10.7h-36.3v19.8h-18.9v-37.9
	c0-3.6,0.7-6.5,4.8-9c3.6-2.2,9.3-2.3,15.6-2.3l34.9-0.1v10.4L242.5,266.3L242.5,266.3z"/>
<path class="st0" d="M64.8,148.6c0-54.4,44.3-98.7,98.7-98.7c54.4,0,98.7,44.3,98.7,98.7c0,39.6-23.5,73.9-57.3,89.5
	c0.7,0,1.4,0.1,2.1,0.1c33.2-16.2,56.2-50.3,56.2-89.7c0-55-44.7-99.7-99.7-99.7s-99.7,44.7-99.7,99.7c0,39.4,23,73.5,56.2,89.7
	c0.7,0,1.4-0.1,2.1-0.1C88.3,222.5,64.8,188.2,64.8,148.6z"/>
</svg>
