<?xml version="1.0" encoding="UTF-8" standalone="no"?><!DOCTYPE svg PUBLIC "-//W3C//DTD SVG 1.1//EN" "http://www.w3.org/Graphics/SVG/1.1/DTD/svg11.dtd"><svg width="100%" height="100%" viewBox="0 0 4500 4500" version="1.1" xmlns="http://www.w3.org/2000/svg" xmlns:xlink="http://www.w3.org/1999/xlink" xml:space="preserve" xmlns:serif="http://www.serif.com/" style="fill-rule:evenodd;clip-rule:evenodd;stroke-linejoin:round;stroke-miterlimit:2;"><rect id="Página-1" serif:id="Página 1" x="0" y="0" width="4500" height="4500" style="fill:none;"/><g id="Capa-1" serif:id="Capa 1"><path d="M4284.01,2251.255c2.804,-1124.479 -913.575,-2035.971 -2034.442,-2035.913c-1121.304,0.062 -2039.608,914.379 -2034.358,2045.929c5.15,1110.612 914.304,2032.842 2053.817,2023.229c1106.05,-9.337 2015.958,-911.417 2014.983,-2033.246m-2034.95,-2202.925c1216.046,2.658 2201.95,981.242 2201.842,2202.458c-0.108,1215.458 -981.717,2201.458 -2203.354,2200.196c-1216.121,-1.254 -2192.738,-980.85 -2198.625,-2189.242c-5.979,-1226.904 982.825,-2210.088 2200.137,-2213.413" style="fill:#fff;fill-rule:nonzero;"/><path d="M2375.051,1139.72c-277.375,-28.242 -532.308,35.421 -767.133,195.875c13.717,5.546 23.112,9.346 31.871,12.888c11.042,17.962 8.008,32.387 -8.575,47.208l-97.683,0c-276.438,222.617 -485.317,646.379 -367.521,1125.3c99.463,404.387 434.417,765.196 932.05,836.3c402.308,57.479 771.525,-115.733 977.213,-359.658c-8.504,-15.8 -17.2,-32.996 0.367,-52.354c6.171,-0.817 14.196,-2.354 22.287,-2.825c9.196,-0.538 18.45,-0.125 27.908,-0.125c39.412,-49.779 74.629,-99.954 104.6,-159.829l-35.283,0c-74.862,0 -149.729,0.029 -224.596,-0.042c-9.342,-0.008 -18.846,0.425 -27.992,-1.079c-14.258,-2.346 -23.104,-12.729 -23.112,-25.233c-0.004,-13.433 8.208,-21.571 19.717,-25.013c8.708,-2.604 18.446,-2.346 27.729,-2.362c86.3,-0.154 172.604,-0.033 258.908,-0.163c11.175,-0.017 22.346,-0.992 34.608,-1.571c6.946,-16.55 13.117,-31.25 21.2,-50.512l-418.071,0c-17.892,-10.779 -24.479,-21.771 -18.425,-36.804c5.179,-12.863 16.354,-18.325 29.8,-18.929c9.346,-0.421 18.713,-0.325 28.071,-0.329c122.696,-0.021 245.392,0.021 368.088,-0.092c11.079,-0.008 22.162,-0.975 33.812,-1.525c4.667,-16.433 8.529,-30.042 13.621,-47.963c-16.171,-0.396 -28.258,-0.95 -40.342,-0.95c-262.029,-0.037 -524.058,0.062 -786.088,-0.167c-16.117,-0.012 -32.229,-2.479 -44.9,-3.521c-13.204,-18.225 -11.992,-31.433 1.204,-48.2c13.025,-1.171 29.25,-3.879 45.479,-3.896c267.225,-0.258 534.454,-0.175 801.679,-0.171l39.429,0c3.079,-17.033 5.721,-31.638 8.854,-48.979c-36.433,-1.287 -69.158,-2.446 -99.062,-3.504c-15.863,-18.204 -16.012,-32.875 -0.392,-51.221c35.192,-1.3 73.1,-2.696 113.517,-4.188l0,-49.517l-32.279,0c-69.667,0 -139.333,0.037 -209,-0.033c-14.433,-0.013 -29.438,1.517 -42.792,-14.667c0.704,-8.983 1.625,-20.708 2.808,-35.729c16.633,-1.817 30.708,-4.592 44.8,-4.683c69.662,-0.463 139.333,-0.138 208.996,-0.292c11.025,-0.025 22.046,-1.071 33.658,-1.679l0,-49.242l-42.762,0c-513.658,0 -1027.317,0 -1540.975,-0.004c-9.358,0 -18.754,0.454 -28.067,-0.204c-20.021,-1.421 -31.137,-11.867 -30.733,-28.05c0.396,-16.096 11.358,-25.729 31.871,-27.071c10.354,-0.679 20.787,-0.242 31.187,-0.242c512.617,-0.008 1025.237,-0.004 1537.854,-0.004c13.217,0 26.429,-0.004 43.321,-0.004c-1.867,-18.858 -3.321,-33.575 -5.025,-50.771l-42.917,0c-539.654,-0.008 -1079.304,-0.013 -1618.958,-0.037c-10.396,0 -20.875,0.542 -31.162,-0.579c-17.758,-1.929 -27.588,-12.592 -27.396,-28.067c0.179,-14.329 9.113,-24.2 25.421,-26.546c8.167,-1.175 16.596,-0.704 24.908,-0.708c119.575,-0.037 239.15,-0.029 358.729,-0.025c422.154,0.004 844.313,0.017 1266.467,-0.025c12.067,0 24.129,-0.608 39.829,-1.033c-4.371,-19.008 -7.737,-33.642 -11.492,-49.962l-39.867,0c-406.562,0 -813.121,0 -1219.683,-0.008c-28.071,0 -56.175,0.658 -84.208,-0.446c-11.717,-0.462 -23.287,-4.729 -37.375,-7.8c0.883,-15.363 1.554,-27.054 2.45,-42.642c18.779,-1.642 34.867,-4.267 50.958,-4.275c426.312,-0.221 852.629,-0.158 1278.946,-0.204c12.046,0 24.096,-0.6 38.792,-0.988c-5.667,-19.529 -3.879,-37.192 -22.229,-50.2l-40.908,0c-389.921,0 -779.846,0 -1169.767,-0.008c-9.358,0 -18.762,0.479 -28.062,-0.287c-28.683,-2.367 -36.033,-13.979 -28.346,-43.817c13.15,-14.117 30.504,-11.046 46.862,-11.05c305.7,-0.112 611.4,-0.083 917.1,-0.088c85.263,0 170.525,0.058 255.792,-0.087c10.812,-0.017 21.625,-1.129 36.867,-1.983c-7.354,-18.896 -12.8,-32.888 -19.108,-49.096l-38.292,0c-197.562,-0.004 -395.121,0.108 -592.683,-0.225c-15.054,-0.025 -30.1,-3.192 -42.892,-4.642c-14.55,-34.642 -7.267,-48.4 23.1,-50.683c8.271,-0.621 16.629,-0.192 24.946,-0.192c119.575,-0.004 239.15,-0.004 358.729,-0.004c68.625,0 137.254,0.229 205.879,-0.242c10.55,-0.071 23.208,4.979 32.188,-8.975c-6.975,-12.858 -14.225,-26.225 -22.333,-41.183l-37.642,0c-177.804,0 -355.608,0.004 -533.412,-0.008c-9.358,0 -18.779,0.554 -28.062,-0.308c-27.467,-2.563 -35.354,-15.458 -27.992,-45.017c13.25,-13.608 30.592,-10.467 46.917,-10.483c169.483,-0.142 338.971,-0.038 508.458,-0.15c10.763,-0.004 21.525,-1.221 37.071,-2.162c-11.433,-19.092 -19.75,-32.987 -28.625,-47.808c-13.508,-0.696 -25.804,-1.858 -38.108,-1.875c-107.096,-0.146 -214.196,-0.075 -321.296,-0.112c-8.304,-0.004 -16.75,0.517 -24.883,-0.771c-14.667,-2.325 -24.808,-14.183 -25.012,-31.846c2.825,-4.467 7.583,-12.004 12.621,-19.979c13.933,-0.642 26.287,-1.679 38.646,-1.7c92.542,-0.133 185.083,-0.012 277.625,-0.154c9.621,-0.013 19.246,-1.221 35.729,-2.346c-18.196,-20.95 -31.408,-36.158 -43.792,-50.417l-293.287,0c-75.904,0 -151.808,-0.063 -227.713,0.046c-14.858,0.025 -29.475,0.112 -40.296,-18.521c0.504,-6.55 1.267,-16.438 1.771,-23c14.975,-14.892 30.171,-11.908 44.458,-11.921c140.371,-0.15 280.746,-0.004 421.117,-0.287c10.567,-0.021 22.537,3.742 34.129,-7.942c-17.6,-15.867 -34.229,-30.858 -51.229,-46.187l-350.479,0c-17.533,-12.483 -22.854,-25.329 -14.1,-41.267c11.679,-13.388 26.492,-12.513 41.108,-12.504c69.662,0.029 139.329,0.125 208.996,-0.137c10.467,-0.038 21.938,2.633 34.537,-6.721c-14.408,-9.979 -26.467,-17.592 -37.687,-26.288c-17.183,-13.317 -35.883,-19.158 -57.9,-18.342c-33.229,1.229 -66.533,0.304 -99.808,0.3c-25.871,-0.004 -51.746,-0.004 -74.796,-0.004c-20.304,-21.738 -20.304,-21.738 -11.962,-46.708c26.562,-19.433 59.85,-2.233 94.858,-14.817c-49.612,-20.442 -92.192,-44.192 -142.271,-44.938c-44.7,-0.662 -89.421,0.004 -134.129,-0.287c-11.242,-0.071 -22.475,-1.562 -36.358,-2.6c-4.254,-13.175 -8.221,-25.45 -13.183,-40.804m-123.954,2294.633c-656.287,-3.05 -1185.512,-527.3 -1184.692,-1186.317c0.812,-653.133 526.312,-1182.283 1185.375,-1181.462c652.854,0.817 1180.913,525.212 1181.588,1182.2c0.675,656.725 -526.063,1181.171 -1182.271,1185.579" style="fill:#fff;fill-rule:nonzero;"/><path d="M1819.577,532.124c8.504,39.667 16.242,75.738 24.571,114.579c79.329,-15.646 155.171,-30.604 234.054,-46.158c5.917,32.625 11.183,61.654 16.962,93.521c-77.687,15.925 -152.596,31.283 -231.092,47.379c5.271,29.829 7.946,58.504 21.033,84.488c9.842,19.533 29.225,22.892 48.475,20.037c32.817,-4.858 65.367,-11.529 97.958,-17.812c35.492,-6.842 70.9,-14.108 109.646,-21.85c6.475,32.475 12.242,61.404 18.517,92.892c-18.883,4.663 -34.683,9.087 -50.713,12.438c-50.842,10.621 -101.675,21.308 -152.688,31.05c-33.129,6.325 -66.167,5.858 -98.133,-7.038c-50.454,-20.362 -73.254,-61.996 -84.296,-111.687c-9.912,-44.613 -18.062,-89.617 -27.013,-134.442c-12.604,-63.138 -25.258,-126.271 -37.846,-189.413c-5.75,-28.858 5.267,-46.721 33.279,-52.492c62.017,-12.775 124.129,-25.083 186.192,-37.633c35.608,-7.2 71.183,-14.587 106.817,-21.667c5.85,-1.163 11.929,-1.167 21.167,-2c5.458,30.388 10.675,59.429 16.596,92.4c-83.917,21.092 -166.787,33.358 -253.487,53.408" style="fill:#fff;fill-rule:nonzero;"/><path d="M1217.85,692.683c26.487,-21.367 51.154,-41.262 77.138,-62.217c7.754,7.483 14.158,12.525 19.179,18.692c61.513,75.542 122.742,151.308 184.213,226.879c28.383,34.888 45.875,75.629 48.796,119.279c2.921,43.667 -9.388,86.242 -34.346,123.775c-38.825,58.396 -90.496,100.658 -159.367,116.312c-76.333,17.346 -144.729,0.271 -197.404,-60.896c-43.883,-50.962 -86.129,-103.342 -128.95,-155.221c-20.433,-24.754 -40.579,-49.742 -60.717,-74.737c-7.025,-8.721 -13.642,-17.779 -22.542,-29.433c26.592,-21.379 51.271,-41.221 78.754,-63.321c10.588,12.092 20.175,22.417 29.071,33.304c55.725,68.196 110.862,136.879 167.104,204.646c26.592,32.042 60.288,50.208 103.8,44.563c49.571,-6.438 83.529,-35.204 105.171,-77.763c21.342,-41.975 14.071,-83.171 -14.829,-119.562c-53.437,-67.3 -107.837,-133.833 -161.7,-200.796c-10.888,-13.538 -21.171,-27.562 -33.371,-43.504" style="fill:#fff;fill-rule:nonzero;"/><path d="M3257.725,1333.01c-31.971,-20.817 -55.588,-48.137 -83.933,-72.275c9.388,-33.358 18.338,-65.158 28.067,-99.725c-31.304,-25.146 -63.125,-50.708 -97.512,-78.333c30.283,-19.633 56.933,-36.912 83.708,-54.271c15.125,9.658 28.454,18.171 44.242,28.254c16.333,-56.933 31.392,-109.417 47.158,-164.375c-15.458,-1.087 -24.446,6.879 -33.204,12.575c-85.217,55.417 -170.008,111.483 -255.075,167.133c-11.171,7.304 -23.192,13.312 -35.846,20.504c-30.379,-17.004 -59.637,-33.383 -93.042,-52.083c33.762,-22.854 62.429,-42.792 91.625,-61.921c66.783,-43.758 133.758,-87.233 200.792,-130.608c53.133,-34.383 106.363,-68.625 159.771,-102.575c19.229,-12.225 38.646,-14.112 57.346,2.008c6.271,5.408 13.412,9.792 19.929,14.929c19.4,15.296 23.946,33.617 16.746,57.983c-27.317,92.421 -52.854,185.363 -79.483,277.988c-20.646,71.821 -41.883,143.467 -63.021,215.146c-1.717,5.821 -4.7,11.271 -8.267,19.646" style="fill:#fff;fill-rule:nonzero;"/><path d="M2799.368,785.86c-76.979,-19.867 -151.754,-39.167 -229.938,-59.346c-18.562,68.463 -36.604,134.996 -54.471,200.888c-44.775,4.212 -76.621,-9.888 -94.008,-41.817c6.742,-27.85 13.3,-57.121 20.942,-86.108c23.012,-87.267 46.042,-174.533 69.833,-261.592c21.696,-79.413 85.217,-118.242 160.004,-104.3c71.179,13.267 140.779,35.054 211.021,53.283c3.771,0.979 7.092,3.7 13.633,7.237c-6.254,28.004 -12.458,55.792 -18.529,82.992c-25.708,5.654 -46.213,-3.829 -66.863,-8.9c-44.279,-10.867 -87.958,-24.158 -132.1,-35.621c-34.104,-8.854 -53.188,1.1 -66.458,33.575c-4.688,11.479 -8.55,23.342 -12.012,35.258c-2.558,8.804 -3.858,17.975 -6.292,29.758c23.896,7.104 46.354,14.412 69.154,20.421c44.154,11.633 88.542,22.367 132.725,33.896c8.579,2.238 16.658,6.388 26.033,10.079c-7.708,30.692 -14.683,58.463 -22.675,90.296" style="fill:#fff;fill-rule:nonzero;"/><path d="M1322.803,2459.265l0,-44.192c12.221,-2.492 22.992,-5.412 33.954,-6.7c9.225,-1.083 18.675,-0.296 28.025,-0.296c455.112,-0.004 910.221,-0.033 1365.329,0.113c16.429,0.004 32.858,1.713 47.171,2.512c16.037,16.812 16.479,31.388 0.267,50.092c-10.879,0.713 -25.071,2.446 -39.267,2.45c-417.704,0.154 -835.408,0.142 -1253.108,0.154c-46.758,0 -93.517,0.237 -140.271,-0.167c-12.171,-0.108 -24.321,-2.221 -42.1,-3.967" style="fill:#fff;fill-rule:nonzero;"/><path d="M2966.389,2305.765c0.933,15.825 1.671,28.3 2.521,42.733c-12.179,3.296 -20.767,6.358 -29.617,7.775c-7.096,1.133 -14.512,0.296 -21.787,0.296c-380.329,0 -760.663,0.033 -1140.996,-0.117c-15.208,-0.004 -30.421,-1.733 -41.804,-2.425c-15.137,-16.675 -15.867,-29.763 -2.583,-48.146c10.167,-1.242 24.146,-4.338 38.142,-4.429c73.775,-0.496 147.558,-0.237 221.338,-0.237c308.633,0 617.262,-0.058 925.892,0.179c15.113,0.013 30.221,2.633 48.896,4.371" style="fill:#fff;fill-rule:nonzero;"/><path d="M1845.161,2569.644c-164.908,0 -330.867,0.083 -496.829,-0.258c-7.829,-0.017 -15.654,-3.8 -21.725,-5.371c-10.429,-16.217 -9.742,-29.504 2.892,-45.467c9.487,-1.271 21.562,-4.271 33.646,-4.3c150.567,-0.321 301.138,-0.296 451.704,-0.046c11.129,0.021 22.254,2.45 32.308,3.633c13.204,16.863 14.667,31.583 -1.996,51.808" style="fill:#fff;fill-rule:nonzero;"/><path d="M1327.034,2671.009c-10.388,-15.179 -10.408,-28.504 1.4,-44.996c8.367,-1.508 19.254,-5.133 30.158,-5.179c102.6,-0.425 205.2,-0.308 307.804,-0.104c8.117,0.017 16.233,1.879 23.117,2.733c16.604,16.171 16.458,31.729 4.712,47.921c-28.321,7.133 -338.092,6.967 -367.192,-0.375" style="fill:#fff;fill-rule:nonzero;"/><path d="M2485.166,1559.34c13.796,16.4 12.7,31.046 -0.004,45.179c-24.675,6.75 -273.988,9.363 -339.55,3.633c-13.458,-6.942 -22.617,-16.842 -18.463,-34.721c6.342,-13.792 18.217,-17.913 32.792,-17.892c101.683,0.137 203.367,0.062 305.05,0.342c7.038,0.021 14.071,2.362 20.175,3.458" style="fill:#fff;fill-rule:nonzero;"/><path d="M1585.806,1877.709c9.504,-1 16.617,-2.388 23.733,-2.4c81.821,-0.175 163.642,0.067 245.462,-0.321c19.904,-0.092 34.763,5.025 38.296,27.579c-3.621,19 -15.621,27.763 -34.867,27.742c-84.925,-0.096 -169.85,-0.096 -254.771,-0.338c-5.054,-0.013 -10.104,-1.829 -17.233,-3.208c-4.421,-6.642 -9.408,-14.138 -15.492,-23.275c5.288,-9.167 10.217,-17.708 14.871,-25.779" style="fill:#fff;fill-rule:nonzero;"/><path d="M1691.385,2732.334c15.275,14.596 12.862,29.417 1.963,48.996c-85.521,2.467 -172.167,1.088 -258.775,0.571c-7.7,-0.046 -15.375,-4.425 -25.25,-7.463l0,-36.096c9.7,-3.271 19.075,-9.129 28.483,-9.179c81.746,-0.417 163.492,0.196 245.242,0.604c1.967,0.008 3.933,1.171 8.338,2.567" style="fill:#fff;fill-rule:nonzero;"/><path d="M2404.995,1453.227c10.317,19.029 10.238,32.942 -8.812,49.192c-79.996,0.454 -164.583,0.108 -247.467,0.175c-15.767,-8.117 -27.017,-17.371 -21.162,-34.821c4.958,-14.779 17.787,-18.737 32.379,-18.712c73.492,0.108 146.983,-0.046 220.471,0.267c8.012,0.033 16.012,2.479 24.592,3.9" style="fill:#fff;fill-rule:nonzero;"/><path d="M1924.762,1796.539c-4.421,19.846 -16.942,27.167 -34.383,27.208c-62.304,0.15 -124.612,0.308 -186.908,-0.267c-8.867,-0.083 -17.692,-4.192 -28.825,-7.017c-1.658,-11.908 -3.146,-22.588 -4.233,-30.4c10.667,-16.287 23.779,-17.854 37.737,-17.833c59.192,0.087 118.383,0.225 177.571,-0.071c19.608,-0.096 35.088,4.513 39.042,28.379" style="fill:#fff;fill-rule:nonzero;"/><path d="M2726.882,2625.3c11.925,23.725 11.925,23.725 0.596,48.521c-58.596,5.708 -119.4,1.792 -180.025,2.104c-8.542,0.046 -17.112,-4.992 -27.05,-8.113l0,-37.338c11.65,-3.521 22.062,-9.212 32.579,-9.408c50.679,-0.929 101.388,-0.542 152.079,-0.15c7.012,0.054 14.004,2.742 21.821,4.383" style="fill:#fff;fill-rule:nonzero;"/><path d="M2480.075,1288.023l-183.512,0c-16.646,-10.246 -19.508,-23.946 -11.233,-45.404c8.6,-2.392 19.958,-8.046 31.442,-8.304c46.629,-1.05 93.304,-0.775 139.95,-0.179c9.904,0.125 19.767,3.638 27.104,5.087c14.646,18.958 11.408,33.388 -3.75,48.8" style="fill:#fff;fill-rule:nonzero;"/><path d="M2297.023,1394.655c-16.683,-10.983 -19.725,-23.792 -12.7,-43.121c6.754,-2.717 15.846,-9.404 25.058,-9.567c52.675,-0.933 105.383,-0.475 158.075,0.013c5.858,0.054 11.688,3.283 16.992,4.879c14.812,17.983 10.829,32.792 -5.517,47.796l-181.908,0Z" style="fill:#fff;fill-rule:nonzero;"/><path d="M1753.16,1609.807c-17.425,-18.525 -20.246,-32.925 -4.237,-51.563c46.312,-4.271 95.15,-4.271 142.046,-0.258c17.513,33.171 9.492,50.625 -21.792,51.546c-39.133,1.15 -78.329,0.275 -116.017,0.275" style="fill:#fff;fill-rule:nonzero;"/><path d="M1408.46,2354.2c-11.904,-24.742 -11.904,-24.742 -0.65,-48.325c39.229,-7.983 79.817,-5.679 119,-1.667c16.367,25.017 16.367,25.017 -0.312,49.992l-118.038,0Z" style="fill:#fff;fill-rule:nonzero;"/><path d="M2250.65,2525.231l0,38.737c-44.204,9.254 -85.188,7.554 -129.479,1.575l0,-39.85c29.679,-15.771 97.25,-16.296 129.479,-0.463" style="fill:#fff;fill-rule:nonzero;"/><path d="M2326.448,2624.517c14.108,19.1 14.025,33.133 -0.817,49.208c-32.483,5.229 -67.642,3.342 -102.596,1.283c-14.425,-0.85 -21.95,-12.096 -21.754,-25.742c0.204,-14.138 8.962,-25.758 24.725,-27.296c20.583,-2.012 41.467,-1.775 62.192,-1.287c14.05,0.329 28.054,2.754 38.25,3.833" style="fill:#fff;fill-rule:nonzero;"/><path d="M2410.49,1775.297l0,40.571c-10.004,3.029 -17.613,7.062 -25.371,7.358c-23.717,0.917 -47.529,1.258 -71.229,0.162c-19.017,-0.879 -31.217,-12.825 -31.454,-27.642c-0.246,-15.25 11.463,-26.296 31.292,-27.058c23.721,-0.912 47.517,-0.771 71.246,0c7.788,0.254 15.471,3.892 25.517,6.608" style="fill:#fff;fill-rule:nonzero;"/><path d="M2404.85,1665.354c11.779,18.054 10.458,31.329 -1.963,48.292c-9.767,1.138 -22.692,3.35 -35.7,3.987c-15.467,0.758 -31.008,-0.1 -46.508,0.237c-18.617,0.404 -31.95,-6.675 -38.192,-25.162c-0.787,-15.496 5.771,-27.763 21.329,-29.038c33.75,-2.762 67.758,-4.404 101.033,1.683" style="fill:#fff;fill-rule:nonzero;"/><path d="M2604.325,2779.293c-11.5,-21.196 -11.5,-21.196 -2.8,-44.8c38.779,-11.488 79.725,-4.838 118.825,-4.171c19.258,23.192 19.258,23.192 3.85,49.375c-39.421,4.433 -80.283,4.996 -119.875,-0.404" style="fill:#fff;fill-rule:nonzero;"/><path d="M2432.415,2781.713c-31.742,0 -65.833,0.875 -99.842,-0.408c-14.667,-0.554 -22.879,-11.454 -23.392,-24.621c-0.538,-13.817 8.792,-26.3 24.646,-26.967c33.004,-1.387 66.104,-0.421 96.675,-0.421c18.504,25.492 18.504,25.492 1.912,52.417" style="fill:#fff;fill-rule:nonzero;"/><path d="M1843.442,1663.896c17.046,18.246 14.771,32.771 1.779,48.142c-23.062,9.825 -48.129,6.929 -72.371,4.396c-23.529,-2.463 -29.433,-19.067 -18.571,-48.383c29.713,-11.367 60.933,-4.912 89.162,-4.154" style="fill:#fff;fill-rule:nonzero;"/><path d="M1505.002,1817.461c-0.817,-13.996 -1.546,-26.45 -2.267,-38.804c29.933,-16.492 57.254,-9.817 81.829,-8.071c18.062,16.162 17.267,30.742 3.396,48.175c-24.296,8.696 -50.362,6.817 -82.958,-1.3" style="fill:#fff;fill-rule:nonzero;"/><path d="M2324.634,2944.963c14.525,16.833 14.758,31.521 0.012,48.65c-22.408,4.8 -46.279,9.317 -68.188,-4.479c-9.267,-16.121 -8.783,-29.35 5.267,-44.171l62.908,0Z" style="fill:#fff;fill-rule:nonzero;"/><path d="M1840.57,1499.688l-60.792,0c-19.312,-23.383 -19.338,-24.008 -1.579,-47.571l64.45,0c11.679,17.175 12.308,31.046 -2.079,47.571" style="fill:#fff;fill-rule:nonzero;"/><path d="M2399.837,2837.344c15.133,14.679 15.083,28.129 7.446,44.858c-22.117,11.979 -46.25,7.6 -69.562,3.746c-15.217,-24 -15.217,-24 2.254,-48.604l59.863,0Z" style="fill:#fff;fill-rule:nonzero;"/><path d="M1608.968,1665.152c20.279,-3.575 38.275,-7.679 50.675,10.267c6.45,9.338 5.221,20.046 -2,29.075c-12.325,15.4 -28.046,15.342 -46.958,8.688c-4.438,-6.333 -9.688,-13.821 -16.296,-23.254c5.138,-8.729 10.146,-17.242 14.579,-24.775" style="fill:#fff;fill-rule:nonzero;"/><path d="M2083.888,2626.784c12.387,15.075 12.85,29.825 -1.796,46.992l-41.317,0c-13.517,-16.154 -13.537,-30.304 -3.479,-45.208c15.096,-10.637 30.654,-9.629 46.592,-1.783" style="fill:#fff;fill-rule:nonzero;"/><path d="M2125.124,1771.183l40.988,0c15.679,15.883 14.65,29.892 4.633,44.933c-14.908,10.596 -30.6,8.875 -46.85,1.862c-11.879,-13.354 -12.567,-27.35 1.229,-46.796" style="fill:#fff;fill-rule:nonzero;"/><path d="M2284.682,3050.286l36.225,0c16.558,19.792 19.008,31.829 9.408,43.671c-10.7,13.2 -29.512,12.908 -52.6,-0.817c-5.142,-21.129 -5.142,-21.129 6.967,-42.854" style="fill:#fff;fill-rule:nonzero;"/><path d="M2999.612,2458.641c-12.221,-14.396 -12.708,-27.679 -3.942,-41.942c16.204,-11.458 32.692,-9.8 48.787,-2.254c10.333,14.638 10.454,27.942 0.383,41.704c-13.908,9.904 -28.804,8.567 -45.229,2.492" style="fill:#fff;fill-rule:nonzero;"/><path d="M2726.664,2884.945c-13.279,-19.325 -10.35,-32.771 3.346,-46.129l41.025,0c12.433,15.808 12.358,28.946 4.404,43.075c-16.358,10.746 -32.796,8.35 -48.775,3.054" style="fill:#fff;fill-rule:nonzero;"/><path d="M1462.336,2884.094c-17.717,7.258 -35.263,8.954 -53.575,-6.654l0,-27.725c20.55,-15.75 41.163,-18.404 53.9,-7.554c11.071,9.433 11.087,20.713 -0.325,41.933" style="fill:#fff;fill-rule:nonzero;"/><path d="M2040.356,2779.839c-12,-23.3 -12,-23.3 -0.529,-47.704l41.962,0c14.717,15.733 15.188,30.246 0.708,47.704l-42.142,0Z" style="fill:#fff;fill-rule:nonzero;"/><path d="M3012.141,2882.878c-11.704,-16.292 -9.829,-30.533 5.308,-44.204c15.696,-4.529 31.35,-6.096 48.071,7.967l0,32.342c-18.479,13.204 -35.592,13.117 -53.379,3.896" style="fill:#fff;fill-rule:nonzero;"/></g></svg>