<?xml version="1.0" encoding="utf-8"?>
<!-- Generator: Adobe Illustrator 27.2.0, SVG Export Plug-In . SVG Version: 6.00 Build 0)  -->
<svg version="1.1" id="Capa_1" xmlns="http://www.w3.org/2000/svg" xmlns:xlink="http://www.w3.org/1999/xlink" x="0px" y="0px"
	 viewBox="0 0 146.5 200" style="enable-background:new 0 0 146.5 200;" xml:space="preserve">
<style type="text/css">
	.st0{fill:#FFFFFF;}
</style>
<g>
	<path class="st0" d="M0,0v126.2c0,13.4,6.5,26.1,17.4,33.9L73.3,200l55.8-39.9c10.9-7.8,17.4-20.5,17.4-33.9V0H0z M142.9,126.2
		c0,12.3-6,23.8-15.9,31l-53.7,38.4l-53.7-38.4c-10-7.1-15.9-18.7-15.9-31V3.6h139.3V126.2z"/>
	<polygon class="st0" points="105.7,160.5 115,153.8 115,77.1 105.7,81.3 	"/>
	<path class="st0" d="M124.3,72.7v66.5c0,0.7,0,1.4-0.1,2.2c-0.4,3.1-1.5,6-3.3,8.5l3.6-2.6c6-4.4,9.2-11.4,9.2-19.1l0-59.8
		L124.3,72.7z"/>
	<polygon class="st0" points="87.2,173.9 96.4,167.2 96.4,85.6 87.2,89.8 	"/>
	<polygon class="st0" points="68.6,94.1 68.6,180.5 73.3,183.9 77.9,180.6 77.9,94.1 73.2,96.2 	"/>
	<polygon class="st0" points="31.5,153.7 40.8,160.4 40.8,81.2 31.5,77 	"/>
	<polygon class="st0" points="59.3,89.8 50.1,85.5 50.1,167.1 59.3,173.8 	"/>
	<path class="st0" d="M22.1,147.2l3.6,2.6c-1.8-2.5-3-5.4-3.3-8.5c-0.1-0.7-0.1-1.4-0.1-2.2V72.7L13,68.4l0,59.8
		C13,135.8,16.1,142.8,22.1,147.2z"/>
	<path class="st0" d="M60.9,78.4l12.3,5.7l12.3-5.6c2.5-1.2,4.1-3.7,4.1-6.4V52.1c0-2.9-1.7-5.5-4.3-6.6l-17.6-8.1V23.7h10.9v8
		l11,5.1V17.9c0-2.5-2.1-4.6-4.6-4.6H61.5c-2.6,0-4.6,2.1-4.6,4.6v22c0,2.9,1.7,5.4,4.3,6.6l17.6,8.1v15.7l-5.5,2.5l-5.5-2.5v-9.3
		l-11-5.1v16C56.8,74.8,58.4,77.3,60.9,78.4z"/>
	<path class="st0" d="M111.6,56.6c0-1.3,0.8-2.5,2-3.1l9-4.1v12.1l6.8-3.1c2.5-1.2,4.1-3.7,4.1-6.5V13.3h-28.1
		c-2.6,0-4.8,2.1-4.8,4.8v53.5l11-5V56.6z M111.6,23.7h10.9v13.7l-10.9,5V23.7z"/>
	<path class="st0" d="M17.2,58.4l28.6,13.2V13.3h-11v41.2l-9.1-4.2c-1.1-0.5-1.8-1.6-1.8-2.9V13.3H13v38.4
		C13,54.6,14.6,57.2,17.2,58.4z"/>
</g>
</svg>
