<?xml version="1.0" encoding="UTF-8"?>
<svg id="svg14469" xmlns="http://www.w3.org/2000/svg" viewBox="0 0 1000 437.72">
  <defs>
    <style>
      .cls-1 {
        fill: #fff;
      }
    </style>
  </defs>
  <g id="layer1">
    <g id="g3193">
      <path id="path3195" class="cls-1" d="m.38,249.91L182.66,69.09C234.5,18.34,266.9,0,367.89,0h455.71l-94.82,93.35h-338.84c-79.49,0-98.67,10.92-135.24,46.31l-113.19,110.25H.38Z"/>
      <path id="path3197" class="cls-1" d="m167.22,249.91l102.74-102.9c26.97-26.58,45.08-38.22,109.07-38.22h335.05l-87.47,87.32h-236.68c-36,0-47.34,9.58-55.86,17.88l-36.02,35.92h-130.83Z"/>
      <path id="path3199" class="cls-1" d="m593.83,249.91L843.15,0h156.85l-249.91,249.91h-156.26Z"/>
      <g id="g3201">
        <path id="path3203" class="cls-1" d="m823.8,249.99v-26.54h-9.58v-4.49h24.59v4.49h-9.78v26.54h-5.23Z"/>
        <path id="path3205" class="cls-1" d="m842.76,249.99v-31.03h7.94l6.89,18.84c.68,2.05,1.17,3.58,1.48,4.59.35-1.13.9-2.79,1.65-4.97l6.46-18.46h7.8v31.03h-4.81v-24.15l-8.96,24.15h-4.61c-2.99-6.39-5.13-15.71-8.12-23.57v23.57h-5.72Z"/>
      </g>
    </g>
    <path id="path3207" class="cls-1" d="m0,435.36v-144.86h110.28v19.38H22.27v42.96h84.48v19.39H22.27v63.13H0Z"/>
    <path id="path3209" class="cls-1" d="m171.05,317.09c-37.92,0-50.56,23.33-50.56,48.33v23.05c0,30.6,16.59,49.25,49.21,49.25h16.74c28.68,0,52.98-12.96,52.98-50.91v-19.56c0-26.46-13.02-50.16-52.13-50.16h-16.24Zm-1.05,18.21h20.69c21.24,0,26.46,12.52,26.46,26.46v30.65c0,18.58-8.01,26.98-26.98,26.98h-24.1c-14.68,0-23.57-9.59-23.57-28.03v-28.55c0-19.86,10.3-27.51,27.51-27.51Z"/>
    <path id="path3211" class="cls-1" d="m258.02,435.36v-85.2c0-19.34,6.94-30.58,35.1-30.58h28.55v19.25h-23.58c-14.88,0-18.86,6.97-18.86,16.1l-.26,80.17-20.96.26Z"/>
    <path id="path3213" class="cls-1" d="m339.75,435.36v-115.78h21.22v24.62c.51-10.58,7.56-24.62,27.77-24.62h18.07c23.59,0,29.19,19.16,29.19,19.16,0,0,1.94-19.16,26.6-19.16h17.81c26.21,0,34.84,17.07,34.84,39.29v76.49h-21.22v-78.06c0-13.91-6.17-18.47-18.54-18.47h-18.81c-14.53,0-18.57,7.52-18.57,18.73v77.8h-21.22v-78.32c0-11.27-3.81-18.21-18.73-18.21h-18.6c-11.6,0-18.6,4.47-18.6,18.47v78.06h-21.22Z"/>
    <path id="path3215" class="cls-1" d="m536.74,319.58v76.49c0,22.39,8.84,39.29,35.36,39.29h67.85v-115.78h-21.22v96.4h-44.01c-11.5,0-16.77-6.41-16.77-17.62v-78.78h-21.22Z"/>
    <path id="path3217" class="cls-1" d="m665.2,290.5h21.22v144.86h-21.22v-144.86Z"/>
    <path id="path3219" class="cls-1" d="m708.32,319.58v18.34h75.7l-58.15,36.41c-15.69,9.97-22.86,17.33-22.86,32.55,0,21.31,14.52,28.49,33.08,28.49h75.29v-81.08c0-7.06-1.29-18.8-8.23-25.52-6.94-6.72-18.6-9.18-31.05-9.18h-63.78Zm81.99,34.58v61.82h-52.91c-7.05,0-12.26-2.9-12.26-11.17s4.7-12.22,11.73-16.85l53.44-33.79h0Z"/>
    <path id="path3223" class="cls-1" d="m864.7,435.36v-19.39h43.75v-100.59c0-2.46-1.78-5.5-5.5-5.5h-33.79v-19.23h37.98c17.94,0,23.45,11.01,23.45,23.42v101.9h38.64v19.39h-104.52Z"/>
  </g>
</svg>