<?xml version="1.0" encoding="UTF-8"?>
<svg id="Capa_1" data-name="Capa 1" xmlns="http://www.w3.org/2000/svg" viewBox="0 0 995.23 995.54">
  <defs>
    <style>
      .cls-1 {
        fill: #fff;
      }
    </style>
  </defs>
  <path class="cls-1" d="m991.16,172.6c-5.98-6.67-12.43-12.98-19.09-18.99-33.19-29.94-66.63-59.6-99.76-89.61-19.79-17.93-39.1-36.41-58.77-54.48-6.87-6.31-14.88-9.78-24.65-9.51-15.54.43-31.1.12-46.65.12-35.94,0-71.88-.06-107.82.04-8.84.02-17.56,1.72-19.79,11.87-1.95,8.88-7.29,14.22-14.67,18.08-24.82,12.98-51.72,18.66-79.32,19.48-21.2.63-42.49,1.52-63.8-1.52-20.67-2.94-40.74-7.07-59.33-16.81-7.09-3.72-14.52-7.23-16.36-16.4-2.18-10.88-10.14-14.63-20-14.66-53.22-.17-106.44-.07-159.66-.09-4.83,0-9.49,1.13-13.08,4.15-7.83,6.59-15.23,13.68-22.85,20.52-19.28,17.28-38.73,34.37-57.86,51.81-33.85,30.84-67.57,61.82-101.2,92.9-7.87,7.28-8.53,15.05-2.24,24.13,28.45,41.02,57.06,81.93,85.58,122.91,9.18,13.19,18.2,26.5,27.43,39.66,7.27,10.36,15.67,12.27,25.79,4.74,11.11-8.26,21.1-18.03,32.26-26.2,7.73-5.66,13.39-14.25,24.03-17.82-.19,17.76,3.24,34.15,6.33,50.66,10.18,54.49,25.9,107.7,36.97,161.97,3.51,17.23,6.62,34.94,5.94,52.06-1.21,30.74-10.64,60.43-18.76,90.06-19.12,69.73-40.58,138.81-53.39,210.2-5.71,31.82-10.74,63.51-10.02,95.92.28,12.39,5.45,17.73,17.99,17.73,87.78.01,175.55.01,263.33.01,120.95,0,241.91,0,362.86,0,9.92,0,20.44-8.34,19.09-16.65-3.33-20.43-2.29-41.12-5.3-61.66-4.58-31.24-10.19-62.26-17.88-92.73-14.99-59.38-31.64-118.34-48.09-177.34-9.45-33.92-15.44-68.18-8.98-103.18,7.7-41.69,18.61-82.7,28.26-123.98,7.48-31.99,17.1-63.73,17.2-97.09,0-1.81-1.14-4.28,1.62-5.27,2.74-.99,4.4.83,6.26,2.43,14.16,12.18,28.38,24.29,42.57,36.44,18.16,15.55,24.69,9.65,34.2-3.09,12.42-16.63,23.56-34.22,35.4-51.29,25.26-36.38,50.48-72.78,76.04-108.95,5.15-7.29,6.08-13.97.16-20.56Zm-390.56-105.04c-15.64,34.68-56.02,70.76-116.48,65.17-37.79-3.49-74.99-30.34-89.9-65.09,68.91,21.48,137.15,21.39,206.38-.08Zm350.91,125.34c-28.11,39.73-56.09,79.55-84.08,119.37-8.77,12.47-8.63,12.37-20.23,2.58-20.98-17.71-42.16-35.2-63.15-52.91-6.81-5.74-14.18-6.67-21.44-2.02-7.11,4.56-8.94,11.88-6.34,19.76,9.15,27.72,6.06,55.35.42,83.16-10.95,53.97-26.63,106.83-36.8,161-4.5,23.97-7.1,47.85-5.73,72.02,1.24,21.78,7.72,42.72,13.34,63.69,15.86,59.16,33.01,117.99,47.88,177.39,8.05,32.14,14.71,64.76,17.67,97.99.78,8.8,5.32,20.1.49,25.57-5.08,5.75-16.89,1.75-25.73,1.77-90.2.14-180.39.09-270.59.09H214.19c-15.81,0-17-1.41-14.54-17.58,5.25-34.48,10.44-68.96,18.59-102.93,11.5-47.94,24.92-95.35,38.37-142.76,9.01-31.78,18.83-63.52,23.31-96.2,2.99-21.8,1.02-44.16-2.66-66.31-9.7-58.43-27.96-114.91-38.47-173.14-2.51-13.93-5.86-27.61-6.12-41.91-.25-13.71,2.02-26.85,5.57-39.97,2.27-8.39,1.64-16.73-6.56-21.71-8.21-4.98-15.56-2.82-22.92,3.6-21.43,18.69-43.42,36.73-65.15,55.08-5.5,4.64-9.85,4.49-14.09-1.86-12.44-18.64-24.95-37.23-37.81-55.58-15.97-22.79-32.34-45.32-48.49-67.98-3.28-4.6-5.76-8.09.52-13.65,31.95-28.3,63.24-57.35,94.84-86.03,20.19-18.33,40.68-36.33,60.7-54.84,4.1-3.79,7.96-5.42,13.49-5.39,41.81.21,83.64.59,125.44-.25,9.3-.19,11.77,3.83,12.68,10.75,2.95,22.41,12.06,42.46,25.26,60.19,23.92,32.12,54.91,53.79,95.5,60.17,40.44,6.35,77.59-.75,111.14-24.89,32.53-23.4,53.41-54.28,60.58-93.89,1.56-8.65,4.1-12.54,14.45-12.31,39.38.89,78.82,1.3,118.16-.14,14.38-.53,21.89,7.79,30.35,15.37,27.78,24.91,54.86,50.58,82.4,75.77,20.4,18.66,40.84,37.29,61.8,55.32,5.92,5.1,4.66,8.5,1.02,13.64Z"/>
</svg>