<?xml version="1.0" encoding="UTF-8"?>
<svg id="Capa_1" data-name="Capa 1" xmlns="http://www.w3.org/2000/svg" viewBox="0 0 289.99 80.65">
  <defs>
    <style>
      .cls-1 {
        fill: #fff;
      }
    </style>
  </defs>
  <path class="cls-1" d="m42.6,45.13c-6.16,0-11.15,5-11.15,11.15s5,11.15,11.15,11.15,11.15-5,11.15-11.15-5-11.15-11.15-11.15Zm0,15.07c-2.14,0-3.91-1.74-3.91-3.91s1.74-3.91,3.91-3.91,3.91,1.74,3.91,3.91-1.74,3.91-3.91,3.91Z"/>
  <path class="cls-1" d="m234.37,45.13c-6.16,0-11.15,5-11.15,11.15s5,11.15,11.15,11.15,11.15-5,11.15-11.15-5-11.15-11.15-11.15Zm0,15.07c-2.14,0-3.91-1.74-3.91-3.91s1.74-3.91,3.91-3.91,3.91,1.74,3.91,3.91-1.74,3.91-3.91,3.91Z"/>
  <path class="cls-1" d="m234.37,31.98h-.07c-10.34,0-20.71.49-31.05.72-9.12.2-17.98-6.93-25.92-11.03-1.38-.71-2.79-1.43-4.32-1.7-3.17-.55-6.3.9-9.18,2.32-.96-6.73-.29-13.94-.27-20.72,0-.48-.03-1.04-.41-1.34-.29-.23-.68-.24-1.05-.23-9.57.06-19.15.05-28.73.05-1.74,0-3.48,0-5.19.31-6.57,1.16-72.96,32.47-73.24,33,1.36-2.64-5.78-16.92-6.76-19.79-1.18-1.52-14.94-1.15-17.15-1.31-5.89-.42-12.55-.85-18,1.89-3.51,1.76-5.8,5.2-8.67,7.89-1.19,1.12-2.52,2.16-3.24,3.62-.61,1.24-.71,2.66-.79,4.04-.18,3.18-.47,40.6-.25,40.6h22.65c4.42,6.23,11.66,10.36,19.86,10.36,6.06,0,11.56-2.21,15.84-5.87h160.14c4.25,3.67,9.78,5.87,15.84,5.87,8.22,0,15.47-4.09,19.86-10.36.84-1.2,12.07,0,13.57,0,7.38,0,14.75,0,22.13-.03.05,0,.03-18.38.03-20.52-17.38-10.43-34.94-17.72-55.58-17.72l-.03-.04ZM146.12,7.27h10.15v16.77l-10.15,2.65V7.27ZM7.34,63.04v-9.13h11.08c-.07.79-.11,1.6-.11,2.39,0,2.32.37,4.57.98,6.71H7.37l-.03.03Zm12.96-16.38H7.34v-17.42l8.44-8.44h27.13l3.99,11.63c-1.42-.25-2.86-.4-4.34-.4-9.96,0-18.56,6.06-22.32,14.68l.07-.06Zm22.29,26.71c-9.43,0-17.07-7.64-17.07-17.07s7.64-17.07,17.07-17.07,17.07,7.64,17.07,17.07-7.64,17.07-17.07,17.07Zm21.56-5.87c1.19-2.32,2.02-4.85,2.43-7.57h143.74c.4,2.67,1.23,5.22,2.43,7.57H64.15Zm146.21-14.82H66.62c-.79-5.25-3.23-9.96-6.85-13.54L129.59,7.29h9.27v28.77l33.47-8.69,25.08,12.75,19.23-.47c-3.3,3.51-5.58,8.01-6.34,13.01h.06Zm24.02,20.71c-9.43,0-17.07-7.64-17.07-17.07s7.64-17.07,17.03-17.07h.04c9.43,0,17.07,7.64,17.07,17.07s-7.64,17.07-17.07,17.07h0Zm48.33-10.33h-24.99c.62-2.14.98-4.39.98-6.71,0-5.62-1.92-10.8-5.15-14.89,9.27,2.09,18.19,5.65,26.38,10.69l2.76,1.7v9.24l.03-.03Z"/>
  <path class="cls-1" d="m121.4,17.16c-6.27,2.76-22.36,9.82-28.8,12.68l13.12-.79c-3.09,5.07-6.74,11.08-8.85,14.49,6.38-2.39,30.68-11.52,37.53-14.1l-22.02,2.6c3.18-5.22,6.88-11.31,9.06-14.89h-.04Z"/>
</svg>