<?xml version="1.0" encoding="UTF-8"?>
<svg id="Capa_1" data-name="Capa 1" xmlns="http://www.w3.org/2000/svg" viewBox="0 0 96.16 96.16">
  <defs>
    <style>
      .cls-1 {
        fill: #fff;
      }
    </style>
  </defs>
  <path class="cls-1" d="m48.1,96.16C21.55,96.17.01,74.65,0,48.1-.01,21.55,21.51.01,48.06,0c25.96-.01,47.25,20.59,48.07,46.54.81,26.58-20.09,48.79-46.68,49.59-.45.01-.91.02-1.36.02Zm26.83-60.64c-5.59-2.76-10.85-5.35-16.1-7.96-2.29-1.15-2.76-1.1-4.27.95-3.18,4.44-10.44,14.17-10.56,14.7s1.1,13.57,1.56,19.74c-.07,1.18.81,2.21,2,2.31,5.79,1.04,11.66,1.62,17.54,1.75,1.31.12,2.62-.28,3.65-1.1,4.02-3.29,8.06-6.47,12.06-9.87.51-.67.8-1.48.82-2.31.03-.57-.08-1.14-.33-1.66-1.82-4.97-3.65-9.93-5.48-14.88-.14-.38-.65-1.29-.79-1.67.96.4,1.85.93,2.66,1.58,2.77,2.27,5.59,4.51,8.19,6.97,2.32,2.19,2.5,2.37,3.63-.77,1.02-2.8,1.62-6.09,2.5-9.21.53,1.75.82,3.57.86,5.41.11,4.19,0,8.4.09,12.6.18,1.92.49,3.83.93,5.71,2.06-8.66,1.51-17.74-1.59-26.08-.16.78-.12,1.79-.24,2.36-1.03-2.92-2.02-6.26-3.21-8.97-3.03-6.89-8.19-12.29-15.92-14-.91-.2-1.1.1-1.77.7-2.13,1.83-4.24,3.67-6.41,5.48-.84.7-.78,1.2-.1,2.03,4.05,4.85,7,10.42,10.27,16.17ZM4.59,44.79c-2.28,4.11-2.52,13.32-2.29,14.25,1.48,6.24,4.24,12.11,8.11,17.23.3.57.73,1.06,1.27,1.41,2.64,1.15,5.35,2.15,8.1,3,.26-.11,3.65-5.81,5.24-8.32.54-.74.47-1.77-.16-2.43-3.88-4.55-6.46-9.87-9.14-15.14-.3-.48-.56-.98-.8-1.49.55.26,1.23.71,1.58.88,4.52,2.11,9.02,4.23,13.56,6.32.92.65,2.19.44,2.84-.48.07-.1.14-.22.19-.33,3.39-5.21,10.77-16.14,10.85-16.45s-.81-12.06-1.1-17.66c-.11-2.04-.1-2.19-2.08-2.45-4.78-.55-9.59-.89-14.37-1.38-.84-.2-1.71-.22-2.57-.07-1.75.52-7.07,5.37-12.31,11.29-1.12,1.06-1.58,2.63-1.21,4.12.66,3.08,1.43,6.13,2.26,9.17.62,2.25,1.56,4.56,2.37,7.03-4.12-1.98-7.19-5.12-10.35-8.5Zm74.21,36.34c.55-1.38,1.5-3.19,1.91-4.61.79-2.77,1.47-5.58,2.13-8.38.14-.61.43-1.61-.87-1.3-3.77.83-7.65,1.06-11.49.69-2.21-.15-4.42.37-6.33,1.5-4.8,2.58-9.87,4.61-14.9,6.8-1.49.66-1.8,1.1-1.46,2.69.48,2.31,1.71,10.53,2.34,11.19s12.01,2.72,15.9.68c4.08-2.17,7.89-4.82,11.34-7.91.19-.16,1.24-1.21,1.44-1.36,0,0-2.7,3.88-4,5.55,6.96-3.66,17.54-17.97,17.82-23.91-1.5,1.59-3.18,2.83-4.16,4.87-2.55,4.94-5.81,9.49-9.66,13.5ZM42.81,2.69c-3.3-.53-6.68-.27-9.87.75-5.79,2.05-11.15,5.14-15.84,9.1-3.29,2.7-4.81,6.22-5.75,10.18-.24,1.02,0,1.28,1.1.94,3.98-1.33,10.96-1.86,11.43-2.02.86-.25,12.84-6.63,17.49-8.88.82-.25,1.37-1,1.37-1.85-.07-2.66.08-5.43.08-8.21Zm9.07,91.92c-.56-1.1-1.32-4.39-1.75-4.89-.62-.68-9.41-5.12-12.48-7.42-1.56-1.19-3.55-1.67-5.48-1.32-4.13.16-8.26.05-12.37-.34-.21.54-.99,4.39.92,5.78,7.98,5.74,17.58,8.81,27.41,8.77,1.26-.1,2.52-.3,3.75-.58ZM75.51,9.7C66.36,3.13,55.14.1,43.92,1.18c-.46,0-1.1.83-1.1,1.5,3.71,2.28,7.19,3.85,10.59,6.05.87.65,1.93.99,3.02.96,5.27-.27,10.55.18,15.7,1.33.35.07.36-.05,3.38-1.33Z"/>
</svg>