<?xml version="1.0" encoding="UTF-8"?>
<svg id="Capa_1" data-name="Capa 1" xmlns="http://www.w3.org/2000/svg" viewBox="0 0 1041.4 994.04">
  <defs>
    <style>
      .cls-1 {
        fill: #fff;
      }
    </style>
  </defs>
  <path class="cls-1" d="m1041.4,888.05c-4.03,4.52-7.42,9.92-12.19,13.43-40.5,29.75-85.77,41.82-135.76,35.76-11.81-1.43-19.16-7.07-21.09-19.49-7.9-50.76-37.64-91.46-62.23-134.51-.24-.42-1.02-.52-2.62-1.28,0,15.59-.36,30.7.08,45.79.81,27.85-10.37,49.33-33.57,64.32-5.37,3.47-6.6,7.42-6.6,13.35,0,40.55-9.93,54.52-48.57,67.66-38.2,12.98-78.07,16.22-117.94,18.55-62.26,3.63-124.56,3.33-186.72-2-33.72-2.89-67.33-7.02-99.08-19.97-5.3-2.16-10.46-4.79-15.36-7.76-16.61-10.04-26.68-24.08-24.62-44.37,1.4-13.76-1.76-23.51-14.51-31.98-17.98-11.93-25.43-31.09-25.54-52.76-.08-16.77-.02-33.55-2.1-50.86-8.22,14.22-15.69,28.93-24.8,42.55-19.31,28.89-31.43,60.53-38.18,94.38-2.17,10.89-8.43,16.65-19,18.05-51.05,6.78-97.22-5.41-138.59-36.03-9.77-7.23-13.99-16.31-8.96-28.29.26-.62.35-1.31.57-1.95,8.98-25.91,12-50.99,2.66-78.61-10.32-30.51-6.53-63.27-2.85-94.96,16.45-141.53,62.52-273.02,137.6-393.84,18.11-29.14,41.47-55.1,63.29-81.8,9.46-11.57,19.8-12.44,26.82-5.07,6.86,7.19,5.08,15.91-5.25,26.29-30.84,30.97-54.83,66.94-77.6,106.69,4.11-1.85,6.44-2.64,8.52-3.87,20.69-12.22,41.53-24.2,61.9-36.93,9.17-5.74,17.03-5.69,26.35-.32,82.98,47.8,166.13,95.31,249.24,142.89,3.14,1.8,6.4,3.41,11.32,6.02,0-16.6,0-31.7,0-46.8,0-7.46-.2-14.94.09-22.39.42-10.62,6.14-16.85,15.04-16.91,8.91-.06,15.03,6.16,15.22,16.71.34,18.99.12,38,.14,56.99,0,3.61,0,7.22,0,12.72,6.62-3.7,11.56-6.41,16.46-9.21,81.35-46.56,162.77-93.01,243.96-139.85,9.79-5.65,17.79-5.35,27.23.53,22.05,13.74,44.59,26.71,69.39,41.45-2.21-4.65-3.09-6.94-4.31-9.02-23.83-40.44-49.64-79.44-85.72-110.2-9.95-8.48-21.18-15.93-32.84-21.85-32.27-16.36-65.08-31.67-97.68-47.37-2.07-1-4.25-1.78-6.62-2.76-16.06,19.4-36.71,31.72-59.81,39.12-22.4,7.18-45.53,12.06-70.05,18.4,0,2.04,0,6.01,0,9.98-.01,32.23.12,64.46-.13,96.69-.08,10.35-6.43,16.91-15.07,16.94-8.67.03-14.62-6.51-15.21-16.85-.16-2.71-.06-5.43-.06-8.14,0-29.52,0-59.03,0-88.55,0-3.7,0-7.4,0-12.18-48.42-6.61-94.99-17.1-130.39-55.41-24.39,11.69-49.03,23.49-73.65,35.29-5.18,2.49-10.32,5.08-15.52,7.51-11.35,5.31-20.51,3.3-24.43-5.28-4.07-8.91-.16-16.76,11.44-22.35,29.24-14.11,58.47-28.25,87.86-42.05,5.63-2.64,7.89-5.74,7.74-12.2-.47-20.01.1-40.03-.26-60.04-.29-16.6,6.4-30.16,20.86-36.74,16.7-7.6,34.55-14.35,52.57-17.07,57.91-8.74,116.09-8.73,173.74,2.77,12.68,2.53,25.18,7.89,36.69,13.97,14.53,7.68,21.46,20.8,21.08,37.79-.44,19.33.18,38.68-.25,58.01-.15,6.93,1.69,10.77,8.36,13.86,28.85,13.33,57.02,28.22,86.14,40.91,39.65,17.27,70.7,44.68,97.18,78.06,51.72,65.19,87.62,139.04,117.1,216.28,28.01,73.39,47.89,148.9,56.33,227.21.86,8.01,1.86,16,2.79,24v48.86c-4.7,18.52-9.43,37.04-14.05,55.58-.39,1.58-.47,3.44-.04,4.99,4.62,16.47,9.38,32.91,14.09,49.36v10.18Zm-536.19,13.82c.33-3.12.79-5.41.79-7.71.04-90.59.12-181.17-.27-271.76-.02-3.9-3.62-9.41-7.13-11.44-74.96-43.42-150.14-86.46-225.31-129.53-2.15-1.23-4.59-1.98-7.77-3.33v12.42c0,111.62.34,223.25-.29,334.86-.12,22.26,8.99,36.84,27.97,46.35,6.33,3.17,12.83,6.28,19.59,8.25,13.61,3.97,27.45,7.14,41.19,10.65,7.57,1.93,14.11,6.22,12.87,14.41-.82,5.4-5.12,11.38-9.62,14.73-2.96,2.2-9.19.83-13.71-.11-12.42-2.59-24.72-5.81-37.11-8.79-2.06,16.08-.04,20.49,13.37,27.44,5.37,2.78,11.08,5.14,16.88,6.84,54.57,15.99,110.78,16.83,166.97,17.7.53,0,1.07-.74,1.78-1.27v-29.01c-4.61,0-8.61.15-12.59-.02-24.69-1.09-49.38-2.09-74.05-3.47-11.04-.62-17.49-7.29-16.75-16.24.75-9.03,8.17-14.63,18.92-14.1,19.95,1,39.89,2.19,59.84,3.06,8.02.35,16.07.06,24.44.06Zm271.84-424.31c-3.88,1.92-6.01,2.84-8.01,3.98-74.51,42.73-148.94,85.57-223.59,128.05-6.83,3.89-9.12,8.15-9.1,15.92.28,88.15.18,176.29.18,264.44v11.29c2.94.38,4.91.96,6.84.84,42.51-2.74,85.1-4.62,127.48-8.7,26.88-2.59,53.35-8.84,77.76-21.48,19.05-9.86,28.86-24.35,28.73-47.06-.62-111.54-.28-223.08-.28-334.61v-12.68Zm185.74,29.93c.25-1.67.59-2.39.39-2.88-13.21-32.61-26.3-65.27-39.92-97.71-1.51-3.61-5.61-6.62-9.19-8.78-24.03-14.53-48.23-28.78-72.39-43.08-7.48-4.43-15.01-8.76-24.94-14.54-2.96,25.17-5.86,48.29-8.11,71.47-.22,2.23,3.13,5.62,5.62,7.16,14.09,8.72,28.57,16.83,42.6,25.65,3.8,2.39,8.78,6.33,9.13,9.96.52,5.32-1.01,13.25-4.67,15.91-4.1,2.98-12.52,3.44-17.35,1.24-12.1-5.52-23.24-13.17-35.58-20.44-.45,2.71-.83,3.95-.83,5.2-.03,85.13-.07,170.25.09,255.38,0,3.5,1.26,7.37,3.01,10.44,22.84,39.99,45.76,79.94,69.1,119.64,1.98,3.38,7,6.76,10.8,6.98,34.78,2.07,67.17-6.5,96.5-25.1,5.97-3.79,11.92-11.08,13.44-17.77,4.62-20.34,9.61-41.14,9.87-61.81.67-52.8-9.21-104.45-21.8-155.58q-8.84-35.9-40.6-54.63c-15.46-9.08-30.92-18.17-46.23-27.5-6.67-4.06-11.18-10.66-7.14-17.86,2.65-4.74,8.92-8.47,14.35-10.24,3.21-1.05,8.23,2.12,11.95,4.24,13.96,7.97,27.72,16.28,41.89,24.67Zm-727.74-55.78c-2.87,1.19-3.84,1.46-4.68,1.96-53.78,31.94-107.6,63.81-161.22,96.03-3.26,1.96-5.97,6.32-7.1,10.12-13.51,45.53-23.1,91.91-27.84,139.18-3.56,35.5-5.14,70.94,6.54,105.67,3.14,9.32,8.16,16.01,16.41,20.81,28.43,16.54,58.97,24.75,91.93,24.17,7.3-.13,11.46-2.81,15.09-9.22,21.85-38.58,44.3-76.81,66.12-115.4,2.82-4.99,4.52-11.36,4.54-17.1.29-81.69.2-163.37.2-245.06,0-3.28,0-6.56,0-11.16Zm547.73-99.36c-.98.41-2.23.8-3.34,1.43-78.93,45.15-157.89,90.25-236.63,135.74-3.17,1.83-5.93,7.25-6.02,11.07-.55,23.37-.31,46.76-.23,70.15,0,2.44.65,4.87.97,7.12,1.3,0,1.69.12,1.93-.02,77.74-44.5,155.49-88.99,233.13-133.68,2.14-1.23,4.2-4.49,4.39-6.94,2.13-27.96,3.88-55.95,5.79-84.87Zm-523.28-.63c2,27.71,4.25,53.97,5.58,80.27.37,7.29,2.55,11.23,9,14.9,74.04,42.11,147.86,84.6,221.76,126.97,2.83,1.62,5.82,2.97,10.21,5.2,0-26.72-.22-52.04.15-77.34.1-6.63-2.05-10.23-7.88-13.53-52.64-29.83-105.06-60.04-157.57-90.1-26.92-15.41-53.87-30.75-81.23-46.37ZM530.53,29.28c-32.43,2.43-56.12,3.34-79.55,6.28-13.57,1.71-27.15,5.6-39.97,10.5-13.96,5.33-14.47,11.22-3.11,20.6,5.96,4.92,12.4,9.58,19.3,12.98,60.81,29.92,122.24,30.64,183.66,2.2,9.93-4.6,18.67-12.01,27.5-18.72,6.57-4.99,5.45-10.57-1.51-14.27-5.92-3.14-12.13-6.74-18.58-7.7-31.97-4.77-64.07-8.74-87.73-11.88ZM225.77,340.27c-36.04,21.46-69.13,41.06-102.03,60.96-2.57,1.56-4.37,5.03-5.66,7.99-9.03,20.76-18.03,41.53-26.64,62.47-4.67,11.37-8.54,23.06-13.66,37.05,52.4-31.12,102.34-60.73,152.15-90.57,2.07-1.24,4.22-4.82,3.99-7.06-2.34-22.81-5.16-45.57-8.15-70.85Zm510.43,570.23c-65.42,19.35-132.38,20.26-198.95,22.63v29.56c2.32.2,3.97.56,5.59.46,35.78-2.06,71.77-2.46,107.26-6.87,24.51-3.05,48.75-10.42,72.32-18.24,14.24-4.73,15.61-10.77,13.79-27.55ZM506.03,183.18c0-14.09-.52-27.23.19-40.3.45-8.33-2.76-10.32-10.5-11.97-22.68-4.84-45.24-10.51-67.47-17.11-9.74-2.89-18.58-8.84-28.88-13.92,0,8.5.98,16.03-.2,23.2-2.51,15.27,5.33,24.07,16.94,31.5,26.82,17.16,56.34,25.62,89.93,28.6Zm137.15-84.05c-33.13,20.32-68.43,30.26-105.77,33.47v50.81c9.3-1.38,17.7-2.22,25.93-3.93,25.04-5.2,49.02-13.37,69.14-29.77,4.77-3.88,9.34-10.3,10.24-16.14,1.64-10.58.47-21.6.47-34.44ZM148.58,880.4c-39.46,0-74.43-10.11-107.84-28.56-2.05,7.63-4.49,14.32-5.41,21.22-.4,3.03,1.33,7.98,3.71,9.5,29.31,18.7,61.52,27.22,96.24,25.7,2.38-.1,6.01-2.17,6.73-4.17,2.6-7.22,4.21-14.8,6.57-23.68Zm853.25-28.67c-33.74,18.96-69.08,28.5-107.72,28.87,1.81,6.93,3.88,12.36,4.54,17.96.96,8.22,5.31,10.16,12.92,10.19,30.07.14,58.17-7.26,84.56-21.31,13.4-7.13,13.23-7.44,9.18-22.53-1.05-3.91-2.07-7.82-3.49-13.19Z"/>
</svg>