<?xml version="1.0" encoding="UTF-8"?>
<svg id="Capa_1" data-name="Capa 1" xmlns="http://www.w3.org/2000/svg" viewBox="0 0 103.66 92.73">
  <defs>
    <style>
      .cls-1 {
        fill: #fff;
      }
    </style>
  </defs>
  <path class="cls-1" d="m22.58,57.51c2.19.42,4.23,1.71,5.56,3.55,12.59,17.33,31.97,31.67,51.14,31.67,6.93,0,13.85-1.88,20.41-6.16l.02-.02c1.49-.92,2.68-2.29,3.34-3.94.86-2.1.81-4.37-.13-6.39-2.09-4.48-6.93-10.17-15.27-17.88-1.6-1.49-2.9-3.21-3.86-5.14l-19.57-39.43c-.86-1.71-2.38-3.01-4.23-3.55-1.83-.55-3.82-.3-5.46.66-3.28,1.93-6.2,3.31-8.79,4.3-.16-.03-.31-.05-.47-.07l-3.26-7.61c-.9-2.03-2.88-3.41-5.17-3.59-2.53-.22-5.13-1.41-7.97-3.66-.02-.02-.04-.02-.07-.03-.1-.07-.21-.13-.32-.17-.08-.03-.14-.04-.22-.05-.09-.02-.18-.03-.27-.03-.07,0-.13.02-.19.03-.09.02-.17.04-.26.08-.05.03-.1.04-.16.08-.13.08-.25.17-.34.28l-14.09,17.26s-.05.08-.08.12c-.39.58-1.39,1.57-2.55,2.72-5.08,5.03-15.64,15.47-7.11,25.75,5.01,6.03,7.93,9.04,19.37,11.21h0ZM55.83,13.13c.67-.39,1.41-.6,2.17-.6.42,0,.83.07,1.25.18,1.16.35,2.1,1.14,2.64,2.22l3.72,7.48-6.76-.49c-.74-.04-1.34.48-1.39,1.19-.05.71.48,1.34,1.19,1.39l8.29.61,2.66,5.35-6.3-.47c-.74-.05-1.34.48-1.39,1.19-.05.71.48,1.34,1.19,1.39l7.84.58,2.66,5.34-5.83-.43c-.71-.04-1.34.48-1.39,1.2-.05.71.48,1.34,1.19,1.39l7.36.53,2.66,5.35-5.35-.4c-.72-.05-1.34.48-1.39,1.19-.05.71.48,1.34,1.19,1.39l6.88.52,2.54,5.12c.23.46.48.9.74,1.34l-5.77.83c-1.57.23-3.06-.52-3.82-1.89-1.74-3.11-3.56-6.78-5.51-10.65-5.77-11.51-11.71-23.35-17.96-27.4,2.06-.91,4.27-2.03,6.67-3.45h0Zm-26.12-3.3c.44-1.65.42-1.84.04-5.08-.03-.23-.05-.48-.09-.75,2.37,1.49,4.67,2.31,6.94,2.5,1.35.1,2.5.9,3.01,2.03l3.28,7.62c-3.65,1.11-6.5,1.39-8.54,1.32-1.01-.03-3.65-1.37-4.98-2.96-.46-.55-.53-.87-.52-.95.38-1.99.67-3.04.85-3.74h0Zm-2.59-5.35c.03.21.05.39.07.57q.34,2.94.03,4.11c-.19.74-.49,1.84-.9,3.95-.18.93.16,1.93.99,2.97,1.59,1.99,4.99,3.94,6.99,4,2.68.09,6.57-.34,11.68-2.2,6.06,1.76,13.14,15.87,18.84,27.26,1.96,3.9,3.8,7.58,5.56,10.74,1.14,2.04,3.24,3.26,5.53,3.26.31,0,.62-.03.93-.07l7.06-1.01c.62.76,1.28,1.5,2.01,2.18,5.18,4.79,9,8.84,11.59,12.21-7.01,2.29-15.43-.99-27.02-10.47-.56-.46-1.37-.37-1.83.18s-.37,1.37.18,1.83c9.72,7.94,17.48,11.78,24.2,11.78,2.1,0,4.1-.4,6.01-1.13.62.96,1.14,1.85,1.53,2.68.63,1.36.66,2.9.09,4.31-.61,1.48-1.81,2.66-3.33,3.21-7.61,2.84-18.14-.02-30.76-8.2.97-3.6,1.19-7.03.61-10.18-.74-4.08-3.14-7.89-6.96-11.01-4.21-3.45-7.27-8.41-9.11-14.73-.97-3.28-3.41-5.95-6.54-7.17-6.44-2.52-12.17-4.48-17.49-6.01-3.05-.88-5.43-3.26-6.22-6.23-.58-2.17-1.05-4.6-1.44-7.37l7.72-9.46Zm-12.15,14.88l2.23-2.73c.32,1.94.7,3.72,1.14,5.35,1.01,3.84,4.08,6.92,8,8.05,5.25,1.5,10.9,3.45,17.26,5.93,2.4.93,4.26,2.98,5,5.48,1.98,6.84,5.34,12.23,9.97,16.01,2.32,1.9,5.26,5.09,6.05,9.47.47,2.54.34,5.28-.35,8.2-1.71-1.18-3.46-2.43-5.25-3.81-2.62-2.01-5.14-4.35-7.49-6.97-4.24-4.74-8.32-8.47-12.48-11.43-4.7-3.81-8.29-7.22-10.91-10.38-2.38-2.86-4.74-5.22-7.22-7.22l-4.68-3.76c-1.81-1.45-2.94-3.52-3.19-5.85-.22-2.3.46-4.55,1.92-6.35h0Zm-4.51,4.74c-.04.62-.04,1.26.03,1.9.31,3.01,1.79,5.7,4.15,7.59l4.68,3.76c2.33,1.88,4.58,4.11,6.84,6.84,2.73,3.29,6.44,6.83,11.34,10.79,4.05,2.89,8,6.5,12.1,11.09,2.45,2.73,5.09,5.2,7.84,7.29,12.59,9.64,23.39,14.69,32.24,15.12-21.33,6.83-44.98-9.06-59.47-28.97-1.72-2.37-4.34-4.04-7.17-4.58-11.03-2.09-13.31-4.84-17.86-10.33-5.89-7.11-.8-14.23,5.28-20.52h0Z"/>
</svg>