<?xml version="1.0" encoding="UTF-8" standalone="no"?><!DOCTYPE svg PUBLIC "-//W3C//DTD SVG 1.1//EN" "http://www.w3.org/Graphics/SVG/1.1/DTD/svg11.dtd"><svg width="100%" height="100%" viewBox="0 0 4500 4500" version="1.1" xmlns="http://www.w3.org/2000/svg" xmlns:xlink="http://www.w3.org/1999/xlink" xml:space="preserve" xmlns:serif="http://www.serif.com/" style="fill-rule:evenodd;clip-rule:evenodd;stroke-linejoin:round;stroke-miterlimit:2;"><rect id="Página-1" serif:id="Página 1" x="0" y="0" width="4500" height="4500" style="fill:none;"/><g id="Capa-2" serif:id="Capa 2"><path d="M1147.243,1859.204c-117.104,0 -199.358,86.433 -199.358,210.508c0,122.679 82.254,207.721 199.358,207.721c121.283,0 202.142,-85.042 202.142,-207.721c0,-124.075 -82.25,-210.508 -202.142,-210.508m9.758,878.279l-203.538,0l243.967,-324.825c-25.096,6.971 -51.583,11.154 -76.675,11.154c-210.508,0 -352.708,-147.775 -352.708,-354.1c0,-217.479 161.717,-369.433 379.196,-369.433c220.267,0 384.767,161.713 384.767,370.829c0,122.679 -40.425,211.9 -154.742,366.642l-220.267,299.733Z" style="fill:#f2f2f2;fill-rule:nonzero;"/><path d="M2072.909,2598.074c161.717,0 256.512,-132.438 256.512,-368.042c0,-241.179 -94.796,-373.617 -256.512,-373.617c-160.317,0 -255.117,132.438 -255.117,373.617c0,235.604 94.8,368.042 255.117,368.042m0,-899.192c260.696,0 432.171,214.692 432.171,531.15c0,315.067 -161.713,525.571 -432.171,525.571c-270.454,0 -430.771,-210.504 -430.771,-525.571c0,-316.458 170.079,-531.15 430.771,-531.15" style="fill:#f2f2f2;fill-rule:nonzero;"/><path d="M3407.992,2384.735l157.429,0c0,106.592 60.742,169.525 161.146,169.525c106.608,0 174.783,-71.921 174.783,-186.221c0,-109.162 -63.217,-183.646 -172.304,-183.646c-69.417,0 -132.638,35.958 -164.867,84.763l-140.075,-30.825l111.567,-491.871l472.287,0l0,151.546l-358.246,0l-48.342,195.204c43.388,-29.537 97.929,-46.233 159.904,-46.233c180.983,0 301.225,127.142 301.225,312.075c0,202.913 -137.596,341.613 -339.65,341.613c-189.658,0 -314.858,-125.858 -314.858,-315.929" style="fill:#f2f2f2;fill-rule:nonzero;"/><path d="M1636.564,3490.007c-684.012,0 -1240.5,-556.483 -1240.5,-1240.5c0,-684.013 556.488,-1240.5 1240.5,-1240.5c416.342,0 785.425,206.179 1010.542,521.787l125.771,-85.983c-45.213,-63.704 -95.925,-123.725 -151.908,-179.708c-127.829,-127.829 -276.704,-228.196 -442.492,-298.321c-171.679,-72.612 -354.004,-109.433 -541.913,-109.433c-187.904,0 -370.233,36.821 -541.913,109.433c-165.783,70.121 -314.658,170.492 -442.492,298.321c-127.833,127.833 -228.2,276.708 -298.321,442.492c-72.612,171.679 -109.433,354.008 -109.433,541.913c0,187.908 36.821,370.233 109.433,541.912c70.125,165.788 170.492,314.662 298.321,442.496c127.833,127.829 276.708,228.2 442.492,298.317c171.675,72.617 354,109.433 541.913,109.433c187.913,0 370.237,-36.817 541.913,-109.433c165.787,-70.121 314.662,-170.492 442.492,-298.317c67.275,-67.275 126.862,-140.433 178.517,-218.767l-125.733,-85.954c-221.925,337.508 -603.938,560.813 -1037.188,560.813" style="fill:#f2f2f2;fill-rule:nonzero;"/><rect x="2653.929" y="2147.525" width="598.863" height="152.475" style="fill:#f2f2f2;"/><path d="M2994.975,1929.167l-146.588,0c28.162,104.333 43.279,213.971 43.279,327.083c0,92.225 -10.083,182.129 -29.037,268.75l144.992,0c16.971,-87.625 25.712,-177.512 25.712,-268.75c0,-111.608 -13.092,-221.192 -38.358,-327.083" style="fill:#f2f2f2;fill-rule:nonzero;"/></g></svg>