<svg version="1.1" id="Layer_1" xmlns="http://www.w3.org/2000/svg" xmlns:xlink="http://www.w3.org/1999/xlink" x="0px" y="0px" viewBox="99 334.4 1277.5 413.6" style="enable-background:new 99 334.4 1277.5 413.6;" xml:space="preserve">
 <style type="text/css">
  .st0{fill:#FFFFFF;}
 </style>
 <g>
  <path class="st0" d="M669.4,639.8c0-98.2,0-196.1,0-294.3c2.2-0.1,4-0.3,5.7-0.3c41.2,0.1,82.4-0.2,123.5,0.4
		c20.8,0.3,40.5,5.5,58.4,17.1c38.1,24.5,39.1,100.1-8,119.9c-0.8,0.3-1.5,0.9-2.8,1.8c2.6,1,4.6,1.9,6.6,2.7
		c23.7,8.9,37.6,25.9,41.4,50.9c2.3,14.9,1.8,29.8-2.2,44.3c-7.9,29.2-28.4,45.7-56.7,52.4c-15,3.6-30.8,5-46.3,5.3
		c-38.2,0.7-76.5,0.2-114.7,0.2C672.8,640.2,671.3,640,669.4,639.8z M733,584.6c24.5,0,48.6,0.8,72.6-0.3
		c12.5-0.6,20.1-9.5,22.1-22.1c0.7-4.2,1.1-8.5,1.2-12.8c0.1-23.2-9.6-33.8-32.8-34.7c-16.2-0.6-32.5-0.3-48.8-0.3
		c-4.7,0-9.3,0-14.3,0C733,538.5,733,561.9,733,584.6z M732.9,465.1c20.6,0,40.7,0.7,60.7-0.2c19.2-0.9,27.7-10.9,27.9-30.2
		c0-4-0.2-8.1-0.9-12.1c-1.9-11.3-9-18-20.1-20.1c-5.1-1-10.3-1.3-15.5-1.4c-15.6-0.2-31.2-0.1-46.8,0c-1.7,0-3.4,0.3-5.4,0.5
		C732.9,422.8,732.9,443.4,732.9,465.1z">
  </path>
  <path class="st0" d="M1179.9,639.9c-25.1,0-49,0-73.8,0c-5.6-18.7-11.2-37.7-16.9-57c-35.3,0-70.5,0-106.6,0
		c-5.5,18.7-11.1,37.7-16.8,56.9c-23.2,0-46.1,0-70,0c34.1-98.5,67.9-196.3,101.8-294.3c26.5,0,52.6,0,79.2,0
		C1111.1,443.4,1145.3,541.1,1179.9,639.9z M1036.8,395.6c-12.7,44.1-25.2,87.5-37.7,131c25.1,0,49.4,0,74.1,0
		C1061,482.9,1049,439.8,1036.8,395.6z">
  </path>
  <path class="st0" d="M1374.8,352.5c0,19.2,0,37.6,0,55.8c-13.6-2.4-26.8-5.8-40.2-6.7c-15.3-1.1-30.8-1.2-46,0.6
		c-22.8,2.7-37.5,16.3-42.8,38.7c-8.1,33.9-7.9,68.2,0,102.1c5.8,24.9,21.6,37.8,47.1,41.1c25.5,3.2,50.1-0.5,74.3-8.4
		c2.8-0.9,5.5-1.9,9-3.1c0,18.9,0,37.5,0,57.8c-9.6,3-19.9,6.9-30.5,9.5c-27.9,7-56,7.2-84.1,0.8c-41.1-9.4-68.1-34.7-80.4-74.6
		c-14-45.5-14.7-91.9-2.8-137.8c12.4-47.9,44.2-75.9,93-84.5C1306.4,337.6,1340.8,340.6,1374.8,352.5z">
  </path>
  <path class="st0" d="M373.1,436.9c0,30,0,58.7,0,87.9c-90.9,55.4-182,110.9-273.9,167c0-46.2,0-91.4,0-137.1
		C190,515.6,281.1,476.5,373.1,436.9z">
  </path>
  <path class="st0" d="M372.9,334.4c0,27.2,0,53.3,0,79.9c-91,39.1-182.1,78.2-273.9,117.6c0-41.8,0-82.5,0-123.9
		C189.9,383.6,280.9,359.1,372.9,334.4z">
  </path>
  <path class="st0" d="M372.9,549.4c0,32.4,0,63.7,0,95.9c-34.3,33-69.1,66.5-104,100.1c-56.5,0-112.8,0-169.7,0c0-9.6,0-19.2,0-29.1
		C190.1,660.8,281.1,605.3,372.9,549.4z">
  </path>
  <path class="st0" d="M553,536c-14.2,35-28.2,69.5-42.2,104.1c-38.8,0-77.1,0-116,0c0-76.5,0-152.7,0-230.5
		C448,452.1,500.4,494,553,536z">
  </path>
  <path class="st0" d="M478.7,745.4c-59.7,0-118.7,0-179.7,0c29.7-28.6,58.4-56.2,87.2-83.9c30.7,0,61.4,0,92.5,0
		C478.7,689.4,478.7,717,478.7,745.4z">
  </path>
  <path class="st0" d="M1045.1,666.5c6.9,0,13.1,0,19.7,0c7,17.5,13.9,34.8,21.3,53.4c7.5-18.5,14.6-35.9,21.6-53.3
		c6.7,0,12.9,0,19.5,0c0,26.2,0,52.1,0,78.5c-5,0-10.1,0-15.7,0c0-14.6,0-29.2,0-43.7c-0.5-0.1-1.1-0.3-1.6-0.4
		c-5.9,14.6-11.8,29.3-17.9,44.2c-3.9,0-7.6,0-12.2,0c-5.9-14.7-11.9-29.7-17.9-44.7c-0.3,0-0.7,0-1,0c0,14.8,0,29.6,0,44.7
		c-5.7,0-10.6,0-15.8,0C1045.1,719,1045.1,693.2,1045.1,666.5z">
  </path>
  <path class="st0" d="M884.9,667.4c14.1,0,27.7-0.9,41.1,0.3c12.3,1,20.8,9.2,22.2,21.3c1.4,11.4,1.2,23.4-0.4,34.8
		c-1.6,11.1-9.5,19.3-20.8,20.4c-13.8,1.3-27.8,0.3-42.1,0.3C884.9,719,884.9,693.2,884.9,667.4z M903.3,730
		c8.8-1.2,19.4,3.4,24.5-6.1c6-11.3,6.3-24.5,0.1-35.8c-5.1-9.4-15.7-4.8-24.5-5.9C903.3,698.4,903.3,713.8,903.3,730z">
  </path>
  <path class="st0" d="M961.6,705.6c0-1.4,0-2.7,0-4.1c1-28.4,16.8-40.9,44.8-35.8c11.9,2.2,19.8,8.7,22.9,20.4
		c3.6,13.3,3.5,26.8-0.1,40.2c-3.1,11.6-11,18.4-23,20.2c-2.7,0.4-5.4,0.7-8.1,0.8c-22.5,0.6-34.6-10.3-36.3-32.8
		c-0.2-2.9,0-5.9,0-8.8C961.8,705.6,961.7,705.6,961.6,705.6z M980.4,707.3c0.3,3,0.4,8,1.4,12.8c1.6,7.9,6.1,11,14.7,11.1
		c8.6,0.1,14-2.9,14.8-10.7c1.1-9.5,1-19.3-0.1-28.8c-0.4-3.5-4.6-8.2-8.1-9.5c-12.3-4.7-20.9,1.3-22.3,14.4
		C980.7,699.4,980.7,702.4,980.4,707.3z">
  </path>
  <path class="st0" d="M784.8,713.2c5.8,10.6,11.5,20.8,17.6,31.8c-7.3,0-13.6,0-20.7,0c-4.5-9.3-9.1-19-13.7-28.5c-3.8,0-7.1,0-11,0
		c0,9.6,0,18.8,0,28.5c-6.1,0-11.6,0-17.7,0c0-25.7,0-51.8,0-77.5c13.4,0,26.9-0.7,40.3,0.2c9.8,0.7,15.7,7.3,17.5,17.1
		c2.1,11.8-1.3,21-10.1,26.6C786.5,711.8,786,712.3,784.8,713.2z M757.1,703.1c7.4-1.3,15.7,2.8,19.9-4.6c2-3.6,1.9-10.8-0.4-13.8
		c-4.8-6.2-12.6-2.9-19.5-3C757.1,688.9,757.1,695.4,757.1,703.1z">
  </path>
  <path class="st0" d="M1165.9,666.5c7.3,0,14,0,21.7,0c9.1,25.8,18.2,51.9,27.6,78.6c-7.1,0-13.3,0-20,0c-1.5-4.8-3.1-9.6-4.7-14.7
		c-9.5,0-18.7,0-28.5,0c-1.4,4.8-2.9,9.7-4.4,14.8c-6.1,0-11.9,0-18.9,0C1147.9,718.7,1156.9,692.7,1165.9,666.5z M1177.2,684
		c-0.5,0-1.1,0-1.6,0c-2.9,10.2-5.8,20.3-8.9,30.8c6.7,0,12.7,0,19.7,0C1183.3,704.1,1180.3,694.1,1177.2,684z">
  </path>
  <path class="st0" d="M862.4,697.7c0,5.2,0,9.3,0,14.1c-9.5,0-18.9,0-28.8,0c0,6.3,0,11.8,0,18.1c11.7,0,23.5,0,35.7,0
		c0,5.4,0,10,0,15.2c-18,0-35.7,0-53.8,0c0-26,0-51.9,0-78.3c17.2,0,34.4,0,52.1,0c0,4.9,0,9.8,0,15.2c-11.2,0-22.2,0-33.8,0
		c0,5.3,0,10.1,0,15.6C843.1,697.7,852.5,697.7,862.4,697.7z">
  </path>
  <path class="st0" d="M721.6,666.8c0,6.4,0,10.9,0,16c-4.6-0.6-9-1.3-13.3-1.6c-16.2-1.1-22.1,4-22.7,20.1c-0.2,5.4,0,10.9,0.8,16.2
		c1.4,8.7,5.7,12.9,14.6,13.1c6.9,0.2,13.8-1.1,21-1.7c0,4,0,8.7,0,13.3c-19.8,13.5-49.1,2.7-53.7-20.5c-1.8-9.3-1.9-19.4-0.7-28.8
		c2.2-16.8,13.1-26.5,30.1-27.5C705.5,664.9,713.3,666.2,721.6,666.8z">
  </path>
  <path class="st0" d="M1376.5,728.8c0,4.6,0,9.3,0,13.8c-26,13.9-52.4,0.2-54.8-28.4c-0.6-7.6-0.5-15.4,1-22.8
		c3.2-16.5,13.3-25.1,30-26c7.7-0.4,15.5,0.9,23.5,1.5c0,6.2,0,10.9,0,15.8c-6.2-0.5-12.2-1.5-18.2-1.5
		c-11.3,0.1-16.3,4.6-17.3,15.6c-0.6,6.5-0.5,13.1,0.2,19.5c1.2,9.8,5.7,14.1,15.7,14.3C1363.1,730.8,1369.5,729.5,1376.5,728.8z">
  </path>
  <path class="st0" d="M1234.5,682.5c-7.8,0-14.3,0-21.2,0c0-5.5,0-10.3,0-15.7c19.8,0,39.3,0,59.6,0c0,4.8,0,9.8,0,15.6
		c-6.5,0-13.1,0-20.4,0c0,21.2,0,41.6,0,62.7c-6.1,0-11.7,0-18,0C1234.5,724.8,1234.5,704.2,1234.5,682.5z">
  </path>
  <path class="st0" d="M1305.2,745.2c-5.8,0-11.3,0-17.4,0c0-25.9,0-51.9,0-78.4c5.5,0,11.3,0,17.4,0
		C1305.2,692.8,1305.2,718.8,1305.2,745.2z">
  </path>
 </g>
</svg>