<?xml version="1.0" encoding="UTF-8"?>
<svg id="Capa_1" data-name="Capa 1" xmlns="http://www.w3.org/2000/svg" viewBox="0 0 306.91 361.24">
  <defs>
    <style>
      .cls-1 {
        fill: #fff;
      }
    </style>
  </defs>
  <path class="cls-1" d="m56.56,241.21c-25.76-57.43-26.75-127.92-5.33-214.68-2.3.75-4.63,1.54-6.99,2.36-21.31,85.11-20.6,156.6,8.29,215.97,1.05-.49,2.1-.98,3.14-1.49.51-.25,1.02-.51,1.53-.76-.21-.46-.43-.92-.64-1.39Z"/>
  <path class="cls-1" d="m65.2,154.76h-.88v.08c-.29.04-.57.09-.85.16-3.39.82-6.3,3.78-8.08,7.93-.34.79-.64,1.63-.89,2.51-.5-.12-1.01-.19-1.54-.19-.04,0-.07,0-.11,0-3.94.07-7.13,3.62-7.13,8.05s3.25,8.06,7.24,8.06c.14,0,.27-.01.4-.02.55-.03,1.09-.13,1.61-.3.33.9.71,1.74,1.14,2.53,1.8,3.37,4.4,5.73,7.37,6.42.28.07.56.13.85.17v.06h30.08c2.71-14.29,10.51-26.76,21.44-35.47h-50.65Z"/>
  <path class="cls-1" d="m120.49,171.74l22.14,14.48c1.22-.83,2.56-1.5,3.97-2.02v-26.31c-10.28,1.48-19.41,6.52-26.1,13.84Z"/>
  <path class="cls-1" d="m134.58,201.4c0-1.74.26-3.41.71-5l-21.85-14.32c-2.86,5.83-4.47,12.39-4.47,19.32,0,6,1.2,11.72,3.38,16.93l22.45-14.2c-.13-.88-.22-1.77-.22-2.69v-.03Z"/>
  <path class="cls-1" d="m153.58,195.42s-.03,0-.04,0c-.01,0-.02,0-.03,0-.04,0-.07,0-.11,0-.16-.01-.32-.02-.48-.02-3.32,0-6.02,2.71-6.02,6.02,0,0,0,.01,0,.02,0,3.32,2.7,6.01,6.02,6.01h.02c.16,0,.32-.01.47-.02.03,0,.07,0,.1,0,0,0,.02,0,.03,0,.01,0,.02,0,.04,0,3.02-.33,5.37-2.88,5.36-5.99v-.02c0-3.1-2.35-5.64-5.35-5.97Z"/>
  <path class="cls-1" d="m262.72,28.91c-2.3-.8-4.58-1.57-6.84-2.31,11.44,46.36,16.47,88.06,14.75,125.62-.03.75-.07,1.5-.11,2.24h2.17s4.35,0,4.35,0c2.21-38.08-2.87-79.85-14.32-125.56Z"/>
  <g>
    <path class="cls-1" d="m292.04,29.48C257.61,9.48,190.09,0,153.46,0S49.27,9.48,14.87,29.48C-30.43,190.06,31.17,299.26,153.46,361.24c122.28-61.98,183.88-171.72,138.59-331.76Zm-101.27,126.79c.4.35.8.71,1.19,1.08.24.23.48.46.72.68.24.23.49.46.73.7,6.27,6.09,11.44,13.08,14.56,21.7.51,1.4.97,2.85,1.36,4.34h.07c.61,2.2,1.11,4.39,1.52,6.55.27,1.41.51,2.82.71,4.21,0,0,.2-.03.55-.08,2.7-.4,14.79-2.25,21.17-4.52,3.11-1.09,4.42-2.95,5.26-5.14.31-.8.55-1.63.8-2.5l2.69-.13,25.62-1.26,2.33-.11,4.06-.2,17.89-.88c-14.47,72.8-61.29,131.25-138.54,169.63-47.75-23.72-83.87-55.12-107.92-92.82,4.24-.64,8.4-1.39,12.43-2.26,1.58-.34,3.13-.7,4.67-1.07.09-.02.17-.04.26-.06,16.41-4,30.76-9.92,41.88-17.55h0c-.37-.51-.73-1.06-1.11-1.63-3.98-5.84-6.94-12.43-8.65-19.51-10.88,11.23-23.91,20.19-37.82,27.16-.51.26-1.02.51-1.53.76-1.04.51-2.09,1-3.14,1.49-3.85,1.79-7.76,3.43-11.7,4.93C6.89,191.42.69,118.8,23.86,36.59c7-2.86,13.78-5.41,20.37-7.71.02-.08.04-.16.06-.25,2.33-.88,4.67-1.72,7.03-2.53.01-.06.03-.12.04-.18,29.63-10.32,66.1-15.77,102.12-15.77v.17s.05,0,.07,0v-.17c36.03,0,72.49,5.45,102.16,15.77.02.08.04.15.06.23,2.31.8,4.6,1.62,6.88,2.48.02.09.04.18.07.27,6.56,2.29,13.32,4.83,20.3,7.68,11.84,42.01,16.01,81.51,12.74,117.89l-18.72-.02h-4.35s-2.17,0-2.17,0l-80.99-.07h-.92c.73.62,1.46,1.25,2.17,1.89Z"/>
    <path class="cls-1" d="m193.41,158.74c5.98,5.92,11.35,13.54,14.56,21.7-3.12-8.62-8.29-15.61-14.56-21.7Z"/>
  </g>
  <g>
    <path class="cls-1" d="m100.79,82.7c.17-2.47-.14-4.94-.58-6.36l-9.95.34c.74,4.26.74,8.87.44,13.47l-.3,5.65c-.13,4.64-.44,9.58-1.18,13.84h11.27c-.27-4.26-.14-9.58.17-14.18.3-5.69,1.66-8.87,3.75-11,2.4-2.47,5.41-3.18,7.81-2.81l.3-7.11c-3.15,0-7.37,1.42-11.74,8.16Z"/>
    <path class="cls-1" d="m74.33,61.44l-15.97,2.13c.31,2.13-.3,6.36-1.96,11.34-3.28,9.55-8.69,25.49-12.92,34.73h9.95c.57-3.21,1.32-6.02,2.84-9.92l14.75-.37c.57,2.84,1.66,7.45,1.79,10.29h13.4c-1.66-3.93-3.75-12.05-5.11-17.74l-6.77-30.46Zm-15.97,32.22l7.24-20.89,4.36,20.55-11.6.34Z"/>
    <path class="cls-1" d="m132.55,89.09c-2.57-1.08-5.14-2.5-6.33-2.84-1.22-.71-3.62-1.42-3.45-4.27.27-2.47,3.15-3.55,6.16-3.55,2.54,0,5.11.71,7.07,1.79l.14-5.69c-1.49-.34-3.75-1.05-7.37-1.05-2.84,0-6.6.71-9.47,2.13-3.32,2.13-5.72,4.94-5.85,8.16-.3,4.94,2.27,7.07,6.02,8.83,2.54,1.42,4.97,2.84,6.46,3.55,1.96,1.05,3.75,2.13,3.62,4.6-.17,2.47-2.44,4.27-6.19,4.27-3.15,0-7.65-2.13-10.82-4.98l-.14,7.45c2.71,1.42,7.07,2.13,11.13,2.13,6.9,0,15.49-3.18,15.63-11,.17-6.02-4.06-8.16-6.6-9.55Z"/>
    <path class="cls-1" d="m240.69,90.14c-.61-8.5-4.19-14.18-18.06-14.18-2.4,0-5.85.37-8.69,1.05l.44,6.4c2.84-1.76,5.72-3.18,9.34-3.18s6.9,1.76,7.21,7.07c-3.62.37-6.94,1.05-10.69,2.84-4.19,1.76-8.56,5.31-8.12,10.97.44,6.4,5.28,9.24,11.3,9.24,4.67,0,7.81-2.13,9.61-4.26.3,1.42.78,2.47,1.22,3.55h9.47c-1.35-3.55-2.1-7.82-2.4-12.42l-.61-7.08Zm-13.39,14.89h0c-3.32,0-6.02-1.79-6.16-5.69,0-3.89,2.4-7.07,10.08-8.16l.44,6.03c.17,2.13.17,3.55.47,5.31-1.08,1.42-2.87,2.13-4.84,2.5Z"/>
    <path class="cls-1" d="m207,84.83c-.3-6.4-3.92-9.92-9.95-9.92-3.28,0-7.21,1.05-10.52,5.31-.14-1.08-.61-3.89-1.22-5.31l-9-.37c.74,4.27,1.05,8.5,1.18,13.1l.17,8.87c.14,4.6,0,8.87-.3,13.13h11.26c-.58-4.26-.88-8.53-1.05-13.13l-.3-9.92c-.14-3.55,2.57-6.03,5.28-6.03,3.15,0,4.67,2.13,4.8,5.31l.47,10.63c.14,4.6.14,8.87-.17,13.13h10.82c-.58-4.26-.88-8.53-1.05-13.13l-.44-11.68Z"/>
    <path class="cls-1" d="m173.01,104.32l-2.27-3.22c-1.66,1.42-4.36,3.55-8.73,3.55-3.9-.28-6.62-2.58-8.37-6.21-.03-.06-.06-.13-.09-.19-.02-.04-.03-.07-.05-.11-.05-.12-.11-.23-.16-.35-.23-.52-.44-1.07-.63-1.63l.63-.23.16-.06.05-.02.09-.03,19.5-7.11c-.61-6.73-3.01-10.63-6.16-13.1-2.57-1.79-5.58-2.5-8.73-2.5-1.47,0-3.04.22-4.61.66-.03,0-.07.02-.1.03-.02,0-.04.01-.06.02-.06.02-.11.03-.17.05-6.16,1.89-12.15,7.44-11.91,18.03.1,10.23,5.92,15.22,11.93,17.12.05.02.1.03.15.05.02,0,.03.01.05.02.03,0,.06.02.09.02,2.01.6,4.02.86,5.84.86,6.46,0,10.39-2.47,13.53-5.65Zm-21.51-17.03c0-3.43.8-5.66,1.83-7.1.06-.08.11-.16.17-.23.02-.02.04-.04.05-.06.03-.04.07-.08.1-.12,1.38-1.64,3.05-2.06,3.86-2.06,2.4-.34,4.5,1.08,5.28,3.93.88,3.18.58,6.03-2.87,7.08l-6.27,2.46-.1.04-.05.02-.16.06-1.54.6c-.17-1.42-.3-2.84-.3-4.6Z"/>
    <path class="cls-1" d="m254.4,63.57l-10.25-1.79c1.05,4.64,1.35,7.82,1.96,12.42l2.4,22.31c.47,4.6.91,8.87.78,13.13h11.13c-1.08-4.26-1.52-8.53-1.96-13.13l-4.06-32.94Z"/>
  </g>
  <g>
    <path class="cls-1" d="m186.89,173.48c-6.83-8.3-16.64-14.04-27.79-15.61v26.26c2.22.8,4.24,2,5.97,3.54l21.82-14.2Z"/>
    <path class="cls-1" d="m164.38,190.43l.25-.17c-.31-.32-.63-.63-.96-.93l.71,1.09Z"/>
    <path class="cls-1" d="m153.61,144.93s-.05,0-.07,0c-.01,0-.03,0-.04,0-.05,0-.09,0-.14,0-.15,0-.3-.01-.45-.01-31.15,0-56.42,25.32-56.42,56.49s25.27,56.49,56.42,56.49c.17,0,.35-.01.52-.01.03,0,.05,0,.08,0,0,0,.01,0,.02,0,0,0,0,0,.01,0,30.9-.34,55.83-25.48,55.83-56.48s-24.9-56.1-55.76-56.48Zm3.56,40.7v-31.14c13.73,1.23,25.77,8.35,33.55,18.83l-1.87,1.22-.75.49-21.63,14.04-1.84,1.19-.25.17-.71-1.09c-1.84-1.64-4.05-2.86-6.5-3.52v-.18Zm-8.63-31.13v31.34c-2.15.6-4.13,1.63-5.82,3l-.83-.55-1.05-.69-21.76-14.27-1.6-1.05-1.03-.68c7.77-9.52,19.17-15.93,32.09-17.12Zm-36.91,66.37l-1.22.78c-2.92-6.13-4.56-12.99-4.56-20.24,0-8.2,2.09-15.9,5.77-22.61l1.12.73,1.5.98,21.62,14.18,1.3.85.56.37c-.62,1.72-.98,3.57-.98,5.5v.03c0,1.13.12,2.23.35,3.29l-.81.51-1.12.71-22.09,14.01-1.43.91Zm36.91-2.71v30.15c-13.85-1.28-25.95-8.56-33.7-19.23l1.42-.9,1.22-.77,21.75-13.8,1.68-1.07.19-.12c1.99,2.13,4.55,3.73,7.44,4.54v1.19Zm4.99-8.47s-.02,0-.03,0c-.03,0-.07,0-.1,0-.16.01-.33.03-.49.03-4.57,0-8.29-3.72-8.29-8.33s3.72-8.29,8.29-8.33c.16,0,.32.01.48.02.04,0,.07,0,.11,0,.01,0,.02,0,.03,0,.01,0,.03,0,.04,0,4.28.34,7.65,3.91,7.65,8.28h0c0,4.36-3.37,7.93-7.66,8.3-.01,0-.02,0-.04,0Zm3.64,38.63v-31.32c2.86-.78,5.4-2.31,7.39-4.38l.31.2,1.53,1,21.57,14.12,1.33.87,1.29.84c-7.79,10.38-19.76,17.43-33.42,18.65Zm37.94-26.01l-1.08-.71-1.54-1.01-21.9-14.36-.99-.65-.93-.61c.26-1.15.41-2.34.41-3.57v-.03c0-1.18-.13-2.32-.37-3.43l.38-.25,1.53-1,21.97-14.29.98-.64,1.65-1.07c3.06,6.25,4.78,13.27,4.78,20.7h0c0,7.51-1.76,14.61-4.89,20.91Z"/>
    <path class="cls-1" d="m140.7,215.05s.01,0,.02.01h.02s-.03-.01-.03-.01Z"/>
    <path class="cls-1" d="m140.69,215.07s.05.05.08.07l.03-.02s-.06-.05-.09-.07l-.03.02Z"/>
    <path class="cls-1" d="m165.08,215.16s.01,0,.02-.01h-.03s.02.01.02.01Z"/>
  </g>
  <path class="cls-1" d="m196.82,198.82h-.03s-25.51,3.33-25.51,3.33h-.05c0-.25,0-.5,0-.74v-.03c0-.91-.09-1.78-.21-2.65l22.36-14.54c1.93,4.54,3.13,9.46,3.42,14.63Z"/>
  <path class="cls-1" d="m270.05,181.79l-2.33.11c-.12.8-.25,1.6-.38,2.39-11.13,68.29-48.18,121.45-113.82,163.06h0s-.02-.01-.03-.02c0,0,0,0,0,0-40.65-25.78-70.32-56-89.67-91.5-.31-.57-.62-1.14-.93-1.71-.09.02-.17.04-.26.06-1.54.37-3.1.73-4.67,1.07,20.17,36.24,51.5,67.78,95.53,94.98,71.57-44.21,109.6-99.91,120.62-168.65l-4.06.2Z"/>
</svg>