<?xml version="1.0" encoding="UTF-8"?>
<svg id="Capa_1" data-name="Capa 1" xmlns="http://www.w3.org/2000/svg" viewBox="0 0 999.35 642.79">
  <defs>
    <style>
      .cls-1 {
        fill: #fff;
      }
    </style>
  </defs>
  <path class="cls-1" d="m242.19.14c60.86,0,121.72.13,182.58-.1,14.02-.05,24.83,5.43,31.29,17.4,4.88,9.05,11.59,11.54,21.06,11.3,15.26-.39,30.54-.02,45.81-.06,2.86,0,5.73-.33,8.58-.62,3.8-.4,6.53-2.41,8.44-5.71,1.66-2.87,3.3-5.78,5.28-8.42,6.81-9.05,15.86-13.77,27.31-13.77,122.61-.04,245.22-.09,367.83-.14,2.21,0,4.46-.12,6.63.21,10.31,1.54,15.5,10.75,11.05,20.21-2.53,5.38-5.94,10.34-9.01,15.46-2,3.34-5.31,4.59-8.89,5.14-4.78.72-8.09,3.17-10.1,7.58-1.01,2.21-2.37,4.24-3.5,6.4-3.45,6.59-8.14,11.52-16,12.54-4.09.53-6.87,3.24-8.51,6.75-6.97,14.96-19.45,21.59-34.81,25.84-42.39,11.73-84.52,24.4-126.74,36.75-9.81,2.87-18.19,7.69-23.75,16.84-5.25,8.64-13.16,14.39-22.67,17.5-10.07,3.29-20.33,6.06-30.57,8.83-34.14,9.26-68.35,18.22-102.42,27.71-12.79,3.56-23.43,1.2-32.79-8.21-6.55-6.59-13.46-12.81-20.22-19.19-.96-.91-1.89-1.88-2.96-2.65-4.8-3.45-7.37-3.43-11.75.63-7.46,6.92-14.78,14-22.13,21.03-4.87,4.65-10.2,8.34-17.02,9.72-5.66,1.15-11.02.18-16.36-1.27-41.61-11.26-83.2-22.56-124.79-33.89-13.43-3.66-24.79-10.11-32.4-22.46-5-8.12-13.39-12-22.25-14.65-14.62-4.36-29.27-8.6-43.91-12.87-29.92-8.72-59.81-17.56-89.8-26.04-11.35-3.21-19.68-9.68-25.14-20.03-.72-1.37-1.46-2.74-2.32-4.02-2.17-3.2-4.93-5.69-8.88-6.43-7.31-1.39-12.33-5.62-15.47-12.27-.66-1.4-1.62-2.65-2.25-4.06-2.48-5.56-5.96-9.84-12.56-10.38-.21-.02-.42-.14-.63-.21-8.1-2.95-18.61-19.91-17.65-28.48.67-5.96,6.08-11.15,12.52-11.86,1.97-.22,3.98-.11,5.97-.11,61.3,0,122.61,0,183.91,0v.09Zm52.92,101.9h408.65c1.33-8.75.96-59.03-.39-63.56h-408.26v63.56ZM49.37,11.17c1.06,12.56,8.07,19.36,18.66,19.36,126.34,0,252.68,0,379.02-.03,1.67,0,3.35-.2,5.58-.35-1.59-2.79-2.89-5.07-4.18-7.35-5.04-8.89-12.6-13.32-22.89-13.05-3.98.11-7.96.06-11.95.06-118.15-.02-236.31-.06-354.46-.01-3.17,0-6.34.87-9.79,1.37Zm496.68,19.34c3.66,0,5.86,0,8.05,0,123.26.02,246.51.04,369.77.06,3.32,0,6.64.14,9.96.04,8.18-.24,16.49-10.17,15.66-18.64-.02-.18-.25-.35-1.06-1.42-3.14-.21-7.04-.7-10.93-.7-104-.05-208.01-.05-312.01-.06-17.04,0-34.08.01-51.12-.03-8.14-.02-15.41,2.12-20.59,8.73-2.69,3.43-4.76,7.35-7.73,12.03Zm-28.01,79.15c1.43,4.72,2.42,8.1,3.46,11.46,4.89,15.82,10.11,31.54,14.57,47.48,2.37,8.46,6.07,15.93,11.06,23.11,4.12,5.93,9.21,7.12,15.49,5.55,7.07-1.76,14.06-3.83,21.09-5.78,1.97-.55,3.93-1.14,6.77-1.97-7.59-5.72-12.14-12.49-16.37-19.51-11.29-18.73-22.64-37.43-33.79-56.25-1.66-2.81-3.44-4.28-6.76-4.15-4.83.18-9.67.05-15.53.05Zm-109.57,80.06c11.57,2.78,21.59,6.77,32.32,8.07,4.99.6,9.36-1.32,12.02-5.55,2.56-4.07,4.91-8.44,6.41-12.98,6.71-20.34,13.1-40.79,19.58-61.21.77-2.42,1.41-4.88,2.2-7.68h-19.69c-11.74,19.37-23.29,38.46-34.86,57.53-4.7,7.75-9.35,15.55-17.98,21.82ZM712.26,46.39c5.56.45,10.58.96,15.63,1.26,18.75,1.1,37.51,2.06,56.27,3.19,32.43,1.95,64.85,3.99,97.27,5.97,7.28.44,14.56.84,21.85,1.18,4.52.21,8.92-.23,12.12-3.98,3.53-4.13,6.05-8.84,8.18-14.03h-211.32v6.42Zm-425.32-6.49H75.13c3.05,5.02,5.54,9.39,8.31,13.58,1.8,2.73,4.65,4.1,7.89,4.31,2.64.17,5.3.16,7.95,0,16.99-1.01,33.98-2.13,50.97-3.11,34.87-2,69.75-3.87,104.62-5.9,10.15-.59,20.28-1.48,30.41-2.29.58-.05,1.12-.56,1.66-.85v-5.74Zm176.53,153.14c1.77-1.5,2.75-2.26,3.65-3.11,6.59-6.21,13.09-12.52,19.75-18.65,8.15-7.5,16.44-7.6,24.87-.38,2.85,2.44,5.5,5.11,8.24,7.68,5.23,4.92,10.46,9.85,16.1,15.16-9.27-28.26-18.3-55.82-27.35-83.42h-18.33c-8.9,27.34-17.74,54.5-26.93,82.72Zm-99.77-15.46c7.56,2.05,14.35,3.97,21.17,5.74,13.1,3.41,20.75.55,28.55-10.57,1.01-1.44,1.92-2.96,2.83-4.48,7.31-12.09,14.64-24.17,21.91-36.28,4.18-6.96,8.28-13.96,13.1-22.11-3.66,0-6.32.48-8.75-.08-9.71-2.25-15.78,2.28-22.15,9.21-18.19,19.79-36.39,39.61-56.67,58.57Zm271.95-.04c-23.42-21.61-43.86-45.11-65.49-67.12h-21.69c1.13,2.16,1.86,3.74,2.75,5.21,9.36,15.51,18.72,31.02,28.14,46.49,2.53,4.15,5.11,8.28,7.93,12.23,6.49,9.1,15.09,12.48,26.05,9.32,7.2-2.08,14.46-3.98,22.32-6.13Zm76.68-113.23c1.29.26,2.32.55,3.38.67,19.54,2.22,39.08,4.43,58.62,6.63,26.35,2.98,52.69,6,79.04,8.91,7.9.87,15.83,1.51,23.76,2.14,3.39.27,6.69-.31,9.24-2.8,3.77-3.68,6.59-7.98,8.51-13.73-61.15-3.74-121.71-7.29-182.55-10.69v8.86Zm-608.38,1.78c1.25,2.48,1.98,3.82,2.61,5.2,3.96,8.64,10.24,12.72,20.1,11.32,10.49-1.5,21.08-2.26,31.61-3.44,34.24-3.85,68.48-7.74,102.72-11.63,8.52-.97,17.03-1.97,25.73-2.99v-9.16c-60.88,3.57-121.27,7.11-182.77,10.71Zm478.56,43.88c1.34,1.9,1.75,2.65,2.32,3.25,12.17,12.8,24.33,25.61,36.56,38.35,4.89,5.09,9.78,10.21,14.97,14.99,5.72,5.27,12.52,7.23,20.24,5.22,5.98-1.56,11.97-3.05,17.94-4.62,3.04-.8,6.04-1.73,8.95-2.57-7.42-4.83-14.6-9.15-21.39-14-17.25-12.31-34.3-24.9-51.51-37.26-2.06-1.48-4.58-3.05-6.97-3.21-6.58-.44-13.2-.15-21.09-.15Zm-266.34,54.39c.08.06.55.56,1.1.71,8.96,2.41,17.88,4.97,26.91,7.07,5.62,1.31,11.05.12,15.71-3.44,2.8-2.14,5.54-4.43,7.98-6.96,14.45-14.94,28.8-29.96,43.17-44.97,1.77-1.85,3.4-3.83,6.24-7.05-6.12,0-10.54.32-14.89-.08-6.14-.55-11.14,1.54-15.97,5.1-16.18,11.95-32.42,23.84-48.79,35.53-6.98,4.99-14.35,9.44-21.47,14.08Zm396.06-81.7c1.86.45,3.12.83,4.4,1.04,31.16,5.22,62.31,10.54,93.5,15.59,15.94,2.58,38.24-1.38,52.85-9.13-50.6-5.62-100.51-11.39-150.76-16.89v9.39Zm-425.37-9.41c-50.55,5.7-100.23,11.31-149.91,16.91,5.45,2.82,10.91,4.53,16.41,6.07,12.52,3.49,25.25,4.48,38.1,2.44,24.01-3.81,48-7.77,72-11.7,7.8-1.28,15.59-2.66,23.41-4v-9.72Zm-2.44,66.98c2.51,3.51,4.87,6.91,7.34,10.23,3.74,5.03,8.71,7.2,15,6.47,6.62-.76,12.15-3.92,17.39-7.67,16.53-11.84,33-23.76,49.46-35.69,1.11-.8,2.01-1.88,3.97-3.75-8.14,0-14.98.06-21.81-.02-4.08-.05-7.68,1.1-11.39,2.86-19.72,9.37-38.51,20.76-59.96,27.57Zm338.76-30.25c-.36.56-.72,1.12-1.08,1.68.8.39,1.67.67,2.38,1.19,17.04,12.29,34.09,24.56,51.06,36.94,5.36,3.91,11.46,5.51,17.8,6.77,5.38,1.06,9.64-.68,12.96-4.73,2.91-3.55,5.51-7.35,8.54-11.44-5.18-1.97-10-3.44-14.5-5.59-15.55-7.43-30.96-15.14-46.48-22.64-2.13-1.03-4.54-2-6.84-2.07-7.94-.25-15.88-.1-23.83-.1Zm-336.4-18.24c-30.74,5.19-61,10.31-91.27,15.44-.15.03-.29.31-.38.49-.08.17-.07.37-.13.7,6.55,1.91,13.09,3.93,19.7,5.7,7.54,2.02,15.28,3.21,22.99,1.59,16.39-3.44,32.7-7.29,49.09-10.98v-12.95Zm425.54,11.99c1.98.7,3.79,1.49,5.69,1.98,10.27,2.62,20.56,5.1,30.83,7.73,19.12,4.9,37.39,1.6,55.4-6.37-30.51-5.06-61.01-10.13-91.92-15.26v11.92Zm-384.69,7c-12-.41-23.97-2.08-35.74.89-13.06,3.3-26.08,6.8-39.11,10.25-1.32.35-2.56.98-3.84,1.48,7.27,3.08,14.53,4.85,21.71,6.91,5.73,1.65,11.41,1.7,16.97-.22,14-4.83,26.82-12.19,40.01-19.32Zm422.45,13.37c-.02-.45-.03-.9-.05-1.35-7.88-2.01-15.86-3.72-23.63-6.09-16.57-5.05-33.35-8.11-50.75-6.64-1.35.11-2.7.26-4.69.45,1.18,1.04,1.59,1.59,2.14,1.86,9.91,4.8,19.8,9.64,29.77,14.31,5.23,2.45,10.77,3.75,16.61,3.85,10.74.17,20.57-3.5,30.6-6.38Z"/>
  <path class="cls-1" d="m508.65,402.22v113.96h-38.33v-139.64c6.5-3.43,13.89-4.85,21.13-6.56,19.3-4.54,38.84-6.55,58.56-3.58,5.8.88,11.53,3.02,16.96,5.35,3.56,1.53,6.42,1.59,10.05.34,18.68-6.39,37.88-9.05,57.45-5.51,6.42,1.16,12.8,3.55,18.67,6.46,11.84,5.86,18.81,15.86,21.29,28.77.96,4.97,1.49,10.1,1.51,15.16.13,31.63.07,63.27.06,94.9,0,1.3-.13,2.59-.23,4.32h-38.46c0-2.5,0-4.87,0-7.23-.12-26.77-.22-53.53-.39-80.3-.02-3.98-.09-7.99-.64-11.92-1.34-9.63-7.19-15.44-16.67-17.25-9.45-1.81-18.44-.04-27.28,2.96v113.76h-38.11c-.11-2.07-.31-4.2-.31-6.32-.06-28.32.04-56.63-.25-84.95-.05-5.2-1.52-10.41-2.56-15.56-1.23-6.09-5.78-8.49-11.31-9.69-7.95-1.73-15.84-1-23.7.58-2.35.47-4.65,1.21-7.43,1.94Z"/>
  <path class="cls-1" d="m174.84,516.31c-2.03.14-3.75.37-5.47.37-20.34.02-40.68.03-61.02,0-10.87-.02-21.63-1.04-32.18-3.76-27.44-7.08-44.01-25.59-48.24-53.48-2.89-19.08-1.35-37.53,7.78-54.8,11.88-22.47,31.3-34.21,55.95-37.72,13.22-1.88,26.49-1.54,39.47,2.09,20.9,5.83,34.17,19.44,40.37,40.09,2.75,9.19,3.62,18.68,3.69,28.18.19,24.76.09,49.52.08,74.29,0,1.49-.26,2.98-.42,4.75Zm-39.61-32.07c-.36-19.46-.56-38.01-1.16-56.55-.12-3.66-1.39-7.41-2.75-10.88-3.15-8.03-8.86-13.58-17.14-16.42-20.24-6.94-42.79,5.55-47.3,26.39-2.08,9.62-2.36,19.38-.06,28.97,3.37,14.06,11.61,23.52,26.31,26.62,13.58,2.86,27.24,1.65,42.09,1.87Z"/>
  <path class="cls-1" d="m447.8,516.67c-2.17,0-3.68,0-5.2,0-20.14,0-40.28.26-60.41-.1-9.25-.17-18.58-.98-27.7-2.5-29.54-4.95-47.54-22.82-53.17-52.46-3.02-15.89-2.68-31.66,2.93-47.09,8.1-22.29,23.35-37.27,45.95-44.32,17.7-5.52,35.74-5.86,53.7-1.17,24.22,6.33,37.6,22.88,42.48,46.74,1.32,6.45,1.74,13.18,1.79,19.78.16,25.45,0,50.9-.04,76.34,0,1.3-.16,2.6-.31,4.78Zm-38.65-32.56c0-18.45.25-35.91-.16-53.36-.11-4.72-1.85-9.53-3.51-14.06-2.18-5.96-6.05-10.95-11.8-13.84-18.47-9.28-44.6-2.42-51.75,21.13-3.14,10.34-3.11,20.93-.87,31.5,3.25,15.36,12.9,24.34,28.03,27.33,13.1,2.59,26.36,1.36,40.07,1.29Z"/>
  <path class="cls-1" d="m974.08,443.59c-.03,41.85-34.41,76.76-75.79,76.39-45.6-.4-76.69-36.87-76.8-76.2-.12-42.75,34.33-77.06,76.6-76.85,42.49.21,76.01,34.03,75.99,76.66Zm-76.67,41.17c22.89.01,41.64-18.57,41.58-41.19-.07-22.67-18.34-41.09-40.79-41.14-23.3-.04-41.38,17.86-41.41,41.01-.03,22.6,18.36,41.3,40.62,41.31Z"/>
  <path class="cls-1" d="m817.49,380.89c-5.52,9.41-10.74,18.3-16.17,27.56-2.09-1.2-3.56-2.06-5.05-2.89-12.46-6.96-25.63-8.13-39.12-4.01-11.69,3.57-18.91,11.93-22.37,23.48-3.24,10.81-3.53,21.8-.86,32.78,4.14,17.05,16.3,26.97,34.18,28.05,11.16.68,21.54-1.66,31.44-8.74,6.44,8.18,12.77,16.22,19.51,24.78-2.17,1.83-3.88,3.48-5.79,4.85-25.01,17.96-67.25,17.62-91.98-.77-11.91-8.85-20.36-20.32-24.33-34.66-6.09-22.02-5.57-43.84,4.33-64.75,10.73-22.66,29.05-35.7,53.58-39.94,15.55-2.69,30.88-.97,45.8,4.04,6.1,2.05,11.71,5.13,16.84,10.22Z"/>
  <path class="cls-1" d="m999.09,288.47c-333,5.54-665.99,5.54-998.99-.05-.03-.49-.07-.99-.1-1.48,1.88-.14,3.75-.39,5.63-.42,48.46-.85,96.92-2.08,145.38-2.44,117.74-.88,235.48-1.68,353.22-1.88,92.95-.16,185.91.42,278.87,1.08,63.29.45,126.59,1.56,189.88,2.44,8.79.12,17.58.62,26.38.94-.09.6-.18,1.21-.26,1.81Z"/>
  <path class="cls-1" d="m235.15,516.43h-39.25c-.18-1.63-.51-3.3-.52-4.96-.04-24.78-.31-49.57.11-74.35.14-8.1,1.34-16.37,3.37-24.21,6.38-24.56,23.22-38.37,47.42-43.81,14.38-3.23,28.99-3.13,43.6-2.03,4.16.31,8.3.85,13.27,1.36-2.97,11.5-5.81,22.51-8.81,34.14-2.61-.28-4.94-.63-7.29-.77-6.82-.39-13.69-1.31-20.47-.91-13.15.77-22.17,7.97-27.47,19.88-2.83,6.36-3.83,13.09-3.83,20.04.01,22.57-.08,45.14-.14,67.71,0,2.4,0,4.79,0,7.91Z"/>
  <path class="cls-1" d="m241.72,619.8c8.13-15.06,15.44-28.6,22.9-42.42h6.31c2.49,20.87,4.97,41.61,7.52,63.01-2.57.21-4.45.43-6.33.51-1.97.08-3.94.02-6.75.02-1.23-12.52-2.44-24.72-3.77-38.23-7.76,12.5-13.67,24.64-19.08,36.46-4.1,1.73-5.34-.61-6.56-3.15-3.36-6.96-6.72-13.92-10.19-20.83-1.77-3.54-3.76-6.97-6.81-10.45-1.27,11.7-2.53,23.4-3.86,35.64h-10.41c2.79-20.97,5.54-41.66,8.37-63.02,2.18-.22,4.22-.43,6.38-.65,7.32,14.17,14.38,27.85,22.26,43.11Z"/>
  <path class="cls-1" d="m937.7,639.27c-3.93,1.44-4.99-.78-6.13-3.05-4.64-9.28-9.32-18.54-14.03-27.78-.66-1.29-1.56-2.46-3.23-5.05-1.32,13.25-2.49,24.95-3.69,37.08h-9.14c-1.17-4.85,4.13-49.8,7.51-63.16,1.73-.09,3.62-.2,5.76-.32,7.35,14.03,14.58,27.84,22.39,42.77,5.11-9.53,9.57-17.87,14.06-26.2,2.3-4.28,4.8-8.46,6.93-12.82,1.64-3.36,3.83-4.69,8.25-2.96,2.46,20.49,4.96,41.41,7.51,62.71h-13.27c-1.15-12.21-2.25-24.02-3.36-35.83-8.38,10.67-13.62,22.85-19.55,34.62Z"/>
  <path class="cls-1" d="m105.27,642.66c-17.86,1.69-34.15-12.55-34.17-33.98-.03-19.7,13.95-33.93,33.11-33.86,19.55.07,33.28,13.87,33.4,33.57.13,20.12-13.19,34.23-32.34,34.26Zm19.4-33.64c-.5-5.82-1.68-11.16-4.43-16.09-3.34-5.99-8.25-9.83-15.33-9.9-7.25-.07-12.97,3.3-16.21,9.66-5.31,10.44-5.53,21.4-.25,31.85,3.23,6.39,8.82,10.6,16.52,10.23,7.82-.38,13.36-4.59,16.13-11.78,1.71-4.45,2.42-9.29,3.58-13.96Z"/>
  <path class="cls-1" d="m521.36,642.66c-19.04,0-32.62-14.17-32.6-34.05.01-19.11,14.05-33.72,32.47-33.81,19.87-.09,33.9,13.92,33.97,33.65.08,23.29-17.76,35.67-33.84,34.21Zm20.44-33.84c-.59-6.08-1.44-11.94-4.84-17.14-7.97-12.16-23.89-11.72-30.75,1.17-5.7,10.71-5.44,21.88.23,32.44,6.83,12.72,23.18,12.81,30.83.54,3.27-5.24,4.03-11.14,4.53-17.01Z"/>
  <path class="cls-1" d="m177.22,613.04c7.78,9.21,15.12,17.9,23.38,27.68-5.15.2-9.07.83-12.83.31-2.04-.28-4.18-2.19-5.63-3.9-5.43-6.4-10.58-13.03-15.87-19.54-1.2-1.48-2.14-3.57-5.32-2.41v25.21h-12.48v-62.76c6.19-1.84,23.28-1.84,28.86.04,7.02,2.36,11.8,6.8,12.88,14.46,1.1,7.82-1.8,13.81-8.42,18.04-1.29.83-2.6,1.64-4.58,2.88Zm-16.45-6.67c7.25.64,13.05.02,16.48-6.03,2.24-3.96,1.92-8.31-.96-11.76-4.09-4.9-9.68-5.03-15.53-4.02v21.81Z"/>
  <path class="cls-1" d="m611.19,617.41v-39.95h8.58c1.25,4.55,1.62,53.98.44,62.78-4.17,1.56-6.77-.46-9.49-3.56-10.79-12.31-21.81-24.42-32.75-36.59-.27-.31-.71-.47-2.02-1.3-.12,7.24-.27,13.9-.32,20.57-.05,6.84-.01,13.68-.01,21.03h-9.62v-62.69c4.35-2.05,7.32-.62,10.37,2.79,10.61,11.88,21.49,23.51,32.29,35.22.41.45,1.04.71,2.54,1.7Z"/>
  <path class="cls-1" d="m288.69,577.38c1.29-.17,2.36-.41,3.43-.43,2.63-.06,5.26-.02,8.39-.02.24,2.02.6,3.69.62,5.35.1,9.94.13,19.88.19,29.82,0,1.77-.03,3.54.06,5.3.58,12.34,10.12,18.63,21.67,14.3,4.04-1.52,6.6-4.56,7.6-8.59.84-3.4,1.27-6.96,1.33-10.46.17-9.49.04-18.99.03-28.49,0-2.17,0-4.33,0-6.87h10.04c0,6.05.03,11.74,0,17.44-.04,6.85-.04,13.7-.21,20.54-.61,23.66-18.11,29.04-34.92,25.45-10.48-2.24-17.21-9.24-17.94-19.57-1.03-14.44-.26-29.02-.26-43.77Z"/>
  <path class="cls-1" d="m635.02,577.26h36.97v8.93h-24.41c-1.48,5.26-.55,10.66-.54,16.66,7.42.31,14.59.61,21.93.92v8.36h-21.66v19.16h25.64v9.21h-37.59c-1.31-4.69-1.63-54.94-.34-63.23Z"/>
  <path class="cls-1" d="m862.95,576.3h5.93c8.99,20.86,18.11,42.05,27.58,64.03h-14.64c-2.09-5.6-4.24-11.36-6.46-17.29h-22.96c-2.11,5.71-4.22,11.45-6.45,17.49h-11.45c9.32-21.67,18.92-42.59,28.45-64.23Zm9.22,38.06c-2.76-6.36-5.24-12.06-8.37-19.25-3.03,7.21-5.48,13.05-8.08,19.25h16.45Z"/>
  <path class="cls-1" d="m408.08,640.46h-11.54c9.74-21.86,19.12-42.93,28.57-64.14h5.93c9.11,21.15,18.24,42.34,27.64,64.17h-14.48c-2.3-5.88-4.55-11.6-6.84-17.46h-22.95c-2.11,5.82-4.21,11.58-6.33,17.42Zm17.98-45.21c-3.08,6.96-6.07,12.57-7.76,19.09h15.94c-2.72-6.36-5.2-12.15-8.17-19.09Z"/>
  <path class="cls-1" d="m804.05,586.01v17.35h22v8.6h-21.79v19.78c8.49-.32,16.97-.64,25.98-.98v9.75h-37.66c-1.24-4.8-1.63-53.54-.48-63.16h37.57v9.07c-8.4.48-16.71-.96-25.62-.43Z"/>
  <path class="cls-1" d="m38.1,586.22v18.14h22.93v8.89h-22.93c-.79,9.26.06,18.05-.58,27.2h-11.63v-63.13h38.04v8.91h-25.84Z"/>
  <path class="cls-1" d="m765.09,640.54h-12.08v-53.59h-19.97v-9.59h50.57v9.22h-18.52v53.96Z"/>
  <path class="cls-1" d="m368.62,632.03h25.66v8.44h-37.73v-63.04h12.07v54.6Z"/>
  <path class="cls-1" d="m701.23,579.48c-.31,5.28-4.93,9.28-10.27,8.9-5.18-.37-9.03-4.66-8.71-9.71.33-5.28,5.07-9.47,10.22-9.05,4.85.39,9.03,5.1,8.75,9.86Zm-13.38,5.56c.26-4.18.46-7.18.7-11.04,2.4.48,4.33.86,6.12,1.21q-.08,4.9,1.63,7.68c2.66-4.13,2.58-6.54-.3-8.94-2.54-2.11-5.98-2.18-8.51-.16-2.85,2.27-2.98,5.22.34,11.24Z"/>
  <path class="cls-1" d="m503.68,70.11c-.37,3.06-.78,6.11-1.09,9.17-.3,3.04-.5,6.1-.77,9.46-2.06.21-3.73.39-6.21.64.34-13.15,2.2-25.64,3.92-37.86,3.97-1.55,5.01.94,6.11,3.05,2.86,5.48,5.6,11.02,8.43,16.52.77,1.5,1.67,2.93,3.04,5.31,3.84-7.76,7.22-14.61,10.6-21.45,1.19-2.43,2.25-5.05,6.52-2.94,1.33,11.84,2.7,24.04,4.16,36.95-2.88.15-5.18.27-7.91.41-2.37-6.47-.99-13.23-2.84-21.01-3.08,6.23-5.6,11.2-8,16.23-1.19,2.49-2.64,4.11-6.17,2.57-2.77-5.44-5.75-11.29-8.73-17.14-.35.04-.69.07-1.04.11Z"/>
  <path class="cls-1" d="m419.2,90.26c-12.25-.16-19.77-7.92-19.52-20.14.25-12.05,8.05-20.1,19.25-19.87,11.38.23,19.41,8.5,19.41,20,0,11.75-8.04,20.16-19.14,20.01Zm-11.86-20.16c.82,3.15,1.13,6.56,2.55,9.41,3.42,6.87,12.41,7.65,16.94,1.75,4.25-5.53,4.26-16.25.01-21.76-4.63-6.01-13.54-5.29-16.87,1.58-1.3,2.7-1.73,5.81-2.64,9.01Z"/>
  <path class="cls-1" d="m662.85,65.12v23.75h-5.27v-37.04c2.97-1.6,4.6.32,6.22,2.13,5.16,5.76,10.29,11.54,15.43,17.31.85.95,1.7,1.91,3.58,4.01v-23.64c2.35-.19,4.13-.34,6.29-.52v37.38c-3.47,1.69-5.46.1-7.48-2.32-5.09-6.1-10.37-12.05-15.6-18.04-.68-.78-1.5-1.44-3.16-3.02Z"/>
  <path class="cls-1" d="m443.72,51.6c3.73-1.04,5.49.95,7.26,3.01,4.04,4.69,8.1,9.34,12.18,13.99,1.58,1.8,3.22,3.53,5.96,6.52.32-8.65.59-15.91.88-23.6h5.52v37c-3.53,1.65-5.56-.01-7.54-2.4-4.08-4.93-8.28-9.78-12.49-14.6-1.54-1.76-3.27-3.36-5.91-6.05v23.2c-2.23.18-3.82.31-5.87.47v-37.55Z"/>
  <path class="cls-1" d="m587.3,88.9h-6.73v-37c6.38-1.98,12.63-1.4,18.65.99,7.61,3.01,9.05,10.69,3.29,16.47-1.08,1.08-2.34,1.98-4.05,3.4,3.95,5.27,7.84,10.46,11.78,15.71-6.19,2.86-8.49,2.32-11.89-2.57-2.88-4.15-5.76-8.31-9.09-13.12-2.58,5.47-.23,10.67-1.96,16.12Zm.66-20.44c4.13.73,7.55.15,9.09-3.19.84-1.82.55-4.99-.56-6.69-1.79-2.74-5-3.01-8.53-1.85v11.72Z"/>
  <path class="cls-1" d="m576.61,89.76c-2.92-.2-5.46-.38-8.11-.56-1.34-2.85-2.54-5.41-3.97-8.44h-13.44c-1.04,2.34-2.26,5.09-3.62,8.15h-5.64c-.1-.55-.34-1-.22-1.3,4.53-11,9.11-21.97,13.63-32.97.79-1.92,1.66-4.09,4-3.57,1.4.31,2.99,1.89,3.6,3.28,4.65,10.71,9.09,21.5,13.53,32.3.3.73.14,1.64.25,3.12Zm-17.88-26.18l-1.53.16c-1.4,3.6-2.8,7.2-4.35,11.19h9.94c-1.51-4.21-2.78-7.78-4.06-11.35Z"/>
  <path class="cls-1" d="m313.77,89.25c-2.25.12-4.14.22-7.14.37,5.6-13.25,10.87-25.69,15.97-37.75,2.98-1.32,4.79-.91,5.89,1.69,4.88,11.51,9.78,23.01,14.98,35.24h-9.18c-1.21-2.8-2.4-5.58-3.6-8.36h-13.36c-1.16,2.88-2.22,5.49-3.56,8.81Zm5.27-14.39h10.11c-1.67-4.42-3.07-8.11-5.03-13.31-2.05,5.38-3.47,9.11-5.07,13.31Z"/>
  <path class="cls-1" d="m366.58,52.59c.13,1.59.27,3.46.47,5.9-2.43-.81-4.21-1.58-6.06-1.97-1.69-.35-3.56-.66-5.17-.27-1.3.32-3.13,1.6-3.3,2.67-.22,1.42.6,3.38,1.62,4.52,1.11,1.25,2.97,1.83,4.51,2.69,2.31,1.29,4.75,2.38,6.91,3.87,4.02,2.78,5.66,6.74,4.55,11.54-1.12,4.84-4.53,7.67-9.23,8.34-3.43.49-7.09.37-10.52-.23-5.43-.95-5.84-1.9-5.51-8.64,1.47.61,2.81,1.28,4.22,1.71,2.31.71,4.63,1.57,7,1.81,2.71.27,5.56-.24,6.31-3.48.66-2.87-1.36-4.4-3.65-5.6-2.93-1.54-5.93-2.97-8.68-4.79-4.71-3.11-6.4-7.2-5.31-11.82,1.13-4.77,5.03-8,10.6-8.48,3.74-.32,7.51-.38,11.24,2.22Z"/>
  <path class="cls-1" d="m637.59,51.44v5.36h-10.72c-.41,10.79.01,21.28-.27,32.1h-7.47v-31.61c-3.75-.17-6.93-.32-10.59-.49v-5.35h29.05Z"/>
  <path class="cls-1" d="m399.6,51.44v5.43h-10.94v32.06c-2.75.14-4.65.25-7.51.4-.48-10.78.03-21.28-.33-32.16h-10.61c-.16-2.02-.29-3.63-.46-5.72h29.84Z"/>
  <path class="cls-1" d="m642.44,51.39c2.27-.12,4.36-.24,7.42-.41,0,6.56.02,12.63.02,18.71,0,6.15,0,12.31,0,19.03h-7.45v-37.33Z"/>
</svg>