<?xml version="1.0" encoding="utf-8"?>
<!-- Generator: Adobe Illustrator 27.2.0, SVG Export Plug-In . SVG Version: 6.00 Build 0)  -->
<svg version="1.1" id="Capa_1" xmlns="http://www.w3.org/2000/svg" xmlns:xlink="http://www.w3.org/1999/xlink" x="0px" y="0px"
	 viewBox="0 0 206.4 274.5" style="enable-background:new 0 0 206.4 274.5;" xml:space="preserve">
<style type="text/css">
	.st0{fill:#FFFFFF;}
</style>
<g>
	<path class="st0" d="M103.1,274.5c-0.6,0-1.2-0.2-1.7-0.6l-87.3-66.3c-0.1-0.1-0.2-0.2-0.3-0.3c-0.2-0.2-4.5-4.5-6.4-7.2
		c-1.8-2.7-3.5-5.8-4.8-9.1c-0.9-2.3-1.6-4.8-2.2-7.8C0.2,182,0,179.7,0,179.4c0-0.1,0-0.1,0-0.2l0-153.9c0-0.3,0.1-0.7,0.2-1
		c0.2-0.5,1.1-2.9,2-4.3c1-1.5,2.2-2.8,3.5-3.9c1.4-1.1,2.9-1.9,4.4-2.6c2.4-1.2,5.1-2.2,8.3-3.1c7.1-2.1,21.4-4.6,22-4.7
		c0.3-0.1,8.3-1.4,12.4-2c8.3-1.1,17.2-2.3,26.3-2.9c6-0.4,12.1-0.6,18-0.7l4.4-0.1c4.6-0.1,9.3-0.2,14,0c8.1,0.3,16.1,1.1,25,2
		c4.4,0.5,12.9,1.6,13.3,1.7c0.1,0,0.1,0,0.2,0l30.2,6c0,0,0.1,0,0.1,0c0.2,0.1,5.4,1.3,8,2.2c2.4,0.9,4.7,1.7,6.9,3.2
		c1.2,0.8,2.4,1.9,3.6,3.3c0.7,0.9,1.4,1.9,1.9,3c0.5,1,0.9,2.1,1.1,3.1c0.3,1.2,0.3,3.1,0.3,3.5c0,0,0,0,0,0l0.2,28.2l-0.1,123.6
		c0,0.2,0,0.4-0.1,0.5c0,0.2-0.9,4.8-1.6,7.1c-0.6,2-1.1,4-2,6c-0.8,1.7-1.8,3.3-2.7,4.8l-0.2,0.3c-1.1,1.7-2.2,3.5-3.6,5.1
		c-1.6,1.9-3.5,3.4-5,4.7c-1.8,1.5-5.5,4.2-5.6,4.3c-26.5,20-53.6,40.6-80.7,61.1C104.3,274.3,103.7,274.5,103.1,274.5L103.1,274.5z
		 M17.7,203.2l85.4,64.9c26.6-20.2,53.1-40.4,79-59.9c0.1-0.1,3.7-2.7,5.3-4.1c1.7-1.5,3.1-2.7,4.4-4.1c1.1-1.3,2.1-2.8,3.1-4.4
		l0.2-0.3c0.9-1.4,1.7-2.7,2.3-4c0.7-1.6,1.2-3.3,1.7-5.2c0.5-1.8,1.2-5.4,1.4-6.4l0.1-123.3l-0.2-28.2c0-0.8-0.1-1.9-0.2-2.3
		c-0.1-0.6-0.4-1.2-0.7-1.8c-0.4-0.7-0.8-1.4-1.2-1.9c-0.8-1-1.6-1.7-2.4-2.2c-1.6-1.1-3.6-1.8-5.6-2.5c-2.3-0.8-6.9-1.9-7.4-2.1
		l-30.1-6c-0.9-0.1-8.9-1.2-13-1.6c-8.8-0.9-16.7-1.7-24.6-2c-4.5-0.2-9.2-0.1-13.7,0.1l-4.5,0.1C91.4,6,85.4,6.2,79.6,6.6
		c-8.9,0.7-17.8,1.8-26,2.9c-4,0.6-12.1,1.9-12.2,2C41.2,11.5,26.9,14,20,16c-2.9,0.8-5.3,1.7-7.4,2.8c-1.1,0.5-2.3,1.2-3.3,1.9
		c-0.9,0.8-1.7,1.6-2.4,2.6c-0.3,0.5-0.9,1.7-1.2,2.6L5.6,179.2c0.1,0.8,0.2,2.3,0.3,3c0.5,2.6,1.1,4.8,1.9,6.7c1.2,3,2.6,5.7,4.2,8
		C13.3,198.7,16.4,202,17.7,203.2L17.7,203.2z"/>
	<polygon class="st0" points="10.5,99.4 16.3,95.5 22,99.6 20.1,92.8 25.7,88.7 18.7,88.4 16.5,81.8 14.1,88.4 7.1,88.4 12.6,92.7 	
		"/>
	<polygon class="st0" points="94.5,29.5 100.8,25.3 107,29.7 104.9,22.4 111,17.9 103.4,17.6 101,10.4 98.4,17.5 90.8,17.6 
		96.8,22.3 	"/>
	<polygon class="st0" points="11,40.2 17.3,36 23.5,40.4 21.4,33.1 27.6,28.6 20,28.3 17.6,21.1 14.9,28.3 7.3,28.3 13.3,33 	"/>
	<polygon class="st0" points="18.3,164.9 24.8,169.6 22.6,161.9 29.1,157.2 21.1,156.9 18.6,149.3 15.8,156.8 7.9,156.9 14.1,161.8 
		11.7,169.4 	"/>
	<polygon class="st0" points="132,76.4 129.6,69.2 127,76.3 119.4,76.4 125.4,81.1 123.1,88.3 129.4,84.1 135.6,88.5 133.5,81.2 
		139.6,76.7 	"/>
	<polygon class="st0" points="77.9,115.4 75.5,108.2 72.9,115.4 65.3,115.4 71.3,120.1 69,127.4 75.3,123.1 81.5,127.6 79.4,120.2 
		85.5,115.7 	"/>
	<path class="st0" d="M107.9,75.8l52.7-40.3L146,33.3c0.3,0.7,0.5,1.4,0.5,2.2c0.1,0.8,0.1,1.5,0,2.3c-0.2,0.9-0.5,1.8-0.9,2.6
		c-0.7,1.1-1.6,2-2.6,2.8c-1.2,0.9-2.6,1.6-4,2.1c-1.3,0.5-2.7,0.8-4.1,0.8c-1.8,0.1-5.3-0.7-5.3-0.7s-0.8,1.7-1.4,2.4
		c-0.6,0.8-1.2,1.7-2.1,2.3c-1.2,0.9-2.6,1.5-4.1,1.9c-1.5,0.4-3.1,0.4-4.6,0.3c-1.3-0.1-2.7-0.5-4-0.9c-2.1-0.7-5.9-2.9-5.9-2.9
		L107.9,75.8L107.9,75.8z"/>
	<polygon class="st0" points="176.4,40.3 182.7,36.1 188.9,40.5 186.8,33.2 192.9,28.7 185.3,28.4 182.9,21.2 180.3,28.4 
		172.7,28.4 178.7,33.1 	"/>
	<path class="st0" d="M43.3,122.6c0-1.3,0-2.6,0-3.8c0-0.8-0.1-1.7-0.1-2.5c0-0.9,0-1.9-0.2-2.8c-0.3-1.5-0.8-3-1.3-4.4
		c-0.3-0.8-1.2-2.3-1.2-2.3s-1.1,0-1.7-0.2s-1.1-0.4-1.4-0.9c-0.3-0.4-0.3-1.1-0.2-1.6c0.2-0.8,1.5-1.9,1.5-1.9s2.4-3.1,3.2-4.8
		c1.2-2.4,1.8-5.1,2.7-7.7c1-2.9,2.2-5.7,2.8-8.6c0.7-2.9,1-5.9,1.1-8.9c0.1-1.6,0-3.2-0.2-4.8c-0.2-1.5-0.5-3-1.1-4.4
		c-0.7-1.8-2.5-3.2-2.9-5.1c-0.1-0.5,0-0.9,0.2-1.3c0.1-0.3,0.3-0.5,0.5-0.7c0.4-0.3,0.9-0.6,1.5-0.6c0.9-0.1,2.6,0.6,2.6,0.6
		s1-0.9,1.5-1.3c1.1-0.9,2-2.2,3.4-2.7c0.5-0.2,1.1-0.2,1.6-0.1c0.5,0.1,1.3,0.6,1.3,0.6l6.5-4.2c0,0,0.8-0.1,1.2,0.1
		c0.7,0.4,1.1,1.2,1.3,2c0.3,0.8,0.4,1.8,0.3,2.7c-0.1,1-0.6,1.8-0.9,2.7C64.6,57,62.8,60,62.8,60s0.7,2.3,0.9,3.4
		c0.2,1.1,0.1,2.3,0.6,3.2c1.1,1.9,5.1,4.4,5.1,4.4s0.9-0.9,1.2-1.3c0.8-0.9,1.5-1.9,2.2-2.9c1.4-2,2.6-4.2,4-6.1
		c0.8-1.1,1.4-2.3,2.4-3.1c0.5-0.4,1.1-0.8,1.8-0.9c1-0.3,3.2,0,3.2,0s-1.2,3.1-1.7,4.7c-1.5,4.8-2.1,9.8-3.8,14.5
		c-0.6,1.8-1.3,3.5-2.3,5.1c-1,1.7-2.1,3.4-3.5,4.8c-0.7,0.7-1.6,1.1-2.5,1.6c-0.6,0.3-1.2,0.7-1.8,0.9c-1,0.4-3,1.2-3,1.2
		s2.1,0,3.2-0.1c0.6-0.1,1.8-0.4,1.8-0.4s-0.3,2.3-0.5,3.4c-0.2,1.3-0.5,2.6-0.9,3.8c-0.7,2-1.6,4-2.7,5.8c-0.9,1.4-2,2.8-3.3,3.9
		c-0.7,0.7-2.5,1.6-2.5,1.6l0,4.3l33.4-25.7V50.2c0,0-2.4,1.1-3.8,1.5c-1.6,0.5-3.3,0.7-5,0.8c-1.5,0.1-3,0-4.5-0.2
		c-1.4-0.2-2.8-0.6-4.2-1.2c-1.3-0.6-2.5-1.3-3.5-2.3c-1-1-2.3-3.6-2.3-3.6s-1.8,0.8-2.8,1c-1.6,0.3-3.3,0.4-4.9,0.2
		c-2-0.2-4.1-0.5-5.9-1.5c-2-1-3.6-2.6-5.1-4.3c-0.7-0.8-1.3-1.6-1.7-2.5c-0.5-1-0.8-3.2-0.8-3.2l-18.5,3.6L31,134.1l12.1-9.2
		C43.1,124.9,43.3,123.3,43.3,122.6L43.3,122.6z"/>
	<polygon class="st0" points="34,171.1 34,171.1 34,171.1 34,208.7 34,208.7 34,208.7 62,230 62,230 62,149.8 	"/>
	<polygon class="st0" points="117,107.5 89,128.7 89,250.7 103.2,261.7 117,250.7 117,250.7 117,250.7 	"/>
	<polygon class="st0" points="144.2,86.6 144.2,230.1 172,209.1 172,65.3 	"/>
</g>
</svg>
