<?xml version="1.0" encoding="utf-8"?>
<!-- Generator: Adobe Illustrator 27.2.0, SVG Export Plug-In . SVG Version: 6.00 Build 0)  -->
<svg version="1.1" id="Capa_1" xmlns="http://www.w3.org/2000/svg" xmlns:xlink="http://www.w3.org/1999/xlink" x="0px" y="0px"
	 viewBox="0 0 142 144" style="enable-background:new 0 0 142 144;" xml:space="preserve">
<style type="text/css">
	.st0{fill-rule:evenodd;clip-rule:evenodd;stroke:#000000;stroke-width:0.1893;stroke-miterlimit:10;}
	.st1{fill-rule:evenodd;clip-rule:evenodd;fill:#004D98;}
	.st2{fill:#A50044;}
	.st3{fill-rule:evenodd;clip-rule:evenodd;fill:#FFFFFF;}
	.st4{fill-rule:evenodd;clip-rule:evenodd;fill:#FFED02;}
	.st5{fill:#DB0030;}
	.st6{fill-rule:evenodd;clip-rule:evenodd;fill:#EDBB00;stroke:#DEB405;stroke-width:0.1775;stroke-miterlimit:10;}
	.st7{fill:none;stroke:#000000;stroke-width:0.7571;stroke-miterlimit:10;}
	.st8{fill:#EDBB00;stroke:#000000;stroke-width:0.7609;stroke-miterlimit:1.0145;}
	.st9{fill:none;stroke:#000000;stroke-width:0.6624;stroke-miterlimit:10;}
	.st10{fill-rule:evenodd;clip-rule:evenodd;stroke:#000000;stroke-width:3.785400e-02;stroke-miterlimit:10;}
	.st11{fill:#FFFFFF;}
</style>
<g>
	<path class="st0" d="M-41.5-234.1c9.5,4.2,25,3.7,35.5-4.2c14.6,10.7,28.6,9.6,42,0c8.9,6.5,22.7,9.2,35.6,4.3l5.8,8
		c-15.1,20.1-9.5,39.4,6.1,56.4l-6.5,6.6c1.5,43.5-32.2,53.8-51.5,54.9L15-99.6l-10.3-8.4c-34.5-3-52.7-21.2-51.6-54.9l-6.7-6.8
		c13.1-14.2,23-33.6,6.1-56.3L-41.5-234.1z"/>
	<path class="st1" d="M-40.7-163.7h111c2.9,30.7-16.6,47.3-46.3,48.9l-18.9,0C-23.2-116.8-44.4-131.8-40.7-163.7"/>
	<path class="st2" d="M7.2-163.4h15.7v49.1H7.2V-163.4z"/>
	<path class="st2" d="M-24.1-163.4h15.7v43.9h-15.7V-163.4z"/>
	<path class="st2" d="M-18.7-121.7h10.2v4.5h-10.2V-121.7z M38.3-163.4H54v43.9H38.3V-163.4z"/>
	<path class="st2" d="M38.3-121.7h10.2v4.5H38.3V-121.7z"/>
	<path class="st3" d="M14.5-224v43.6l-53,0.4l5.5-21l-6.8-25.1l33.5-4.3L14.5-224z"/>
	<path class="st4" d="M15.3-224v43.6l53,0.4l-5.5-21l6.8-25.1l-33.5-4.3L15.3-224z"/>
	<path class="st5" d="M-16.1-229.1h15.2v48.5h-15.2V-229.1z"/>
	<path class="st5" d="M14.5-211v15.2h-47.3V-211H14.5z"/>
	<path class="st5" d="M20-225.7h5.6v44.8H20V-225.7z M30.7-228.9h5.6v48.1h-5.6V-228.9z M41.4-226.2h5.6v45.5h-5.6V-226.2z
		 M52.1-224.5h5.6v43.8h-5.6V-224.5z"/>
	<path class="st6" d="M-6.1-234.9c-9.8,7.2-25.3,7.9-34.2,4.3l-3.6,4.6c15.3,21.5,6.5,43.1-5.6,56.4l5.6,5.9
		c-2.3,32.4,16.6,51.1,49.9,53.1l9,7.5l9-7.6c19.4-0.3,53.3-11.2,49.6-53l5.6-5.8c-14.2-15.8-19.1-37.4-5.4-56.4l-3.3-4.6
		c-12.2,4-26.1,1.8-34.4-4.3C23.5-225.8,7.6-224.8-6.1-234.9z M36.2-228.7c7.6,4.7,15.9,6,30.3,4.8c-7.2,12.5-8,27.3-1.6,41.6
		l-99.8-0.1c5.4-12.8,6.6-27.5-1.8-41.9c10.4,1.5,20.5,1.1,30.6-4.4C7.6-220.5,21.7-220.4,36.2-228.7z M-38.5-163.2h107
		c2.8,29.6-16,45.6-44.6,47.2l-18.2,0C-21.6-118-42-132.4-38.5-163.2z"/>
	<path class="st7" d="M-36.9-224.1c8.4,14.3,7.2,29.1,1.8,41.9l99.8,0.1c-6.4-14.3-5.6-29.2,1.6-41.6c-14.4,1.3-22.7-0.1-30.3-4.8
		c-14.5,8.3-28.6,8.2-42.3,0.1C-16.4-222.9-26.5-222.6-36.9-224.1z M-38.5-163.3h107c2.8,29.6-16,45.6-44.6,47.2l-18.2,0
		C-21.6-118-42-132.4-38.5-163.3L-38.5-163.3z M14.9-222.6v40.4"/>
	<path class="st8" d="M29.7-140.2c0,8-6.5,14.6-14.5,14.6c-8,0-14.6-6.5-14.6-14.5c0,0,0-0.1,0-0.1c0-8,6.5-14.6,14.5-14.6
		c8,0,14.6,6.5,14.6,14.5C29.7-140.2,29.7-140.2,29.7-140.2z"/>
	<g>
		<path class="st9" d="M6.7-152C5-145.8,4-139.7,8.9-136.8c3.4,2,5.7-2.1,6.4-3.7"/>
		<path class="st9" d="M1.7-134.3c2.9-0.1,4.4-0.4,6.2-3.2"/>
	</g>
	<path class="st9" d="M15.2-140.4c2.9-1.8,5.4-0.9,6.6,3.5c2.8-1.1,5.5,1,6.2,3.2"/>
	<path class="st9" d="M21.8-136.9c-2.1,5.1-7.7,7.5-15.6,8.3 M15.2-140.2c-1.8-1.6-4.5-3.5-0.5-8.2c-1.7-2.1-2.1-4.2,0.1-6.2"/>
	<path class="st9" d="M29.6-139.3c-2.6-4.6-8.6-10.9-15-9.2"/>
	<path d="M-5.2-179.7L-5.2-179.7l-2.6,0.1v13.8H-5v-5.7h4.1v-2.9H-5v-2.2h7v-3H-5.2z"/>
	<path class="st10" d="M16.4-175.4l2.6-1.3c-1.6-3.6-8.3-4.6-10.5,0c-2.3,5.5,0.1,10.7,4.5,11.2c2.8,0.4,5-1,5.9-3.4l-2.5-1.5
		c-0.7,1.7-3.3,2.8-5.2,0c-0.6-1.3-0.8-3.2-0.1-5.1C12.7-177.6,15.1-177.4,16.4-175.4L16.4-175.4z"/>
	<path class="st0" d="M26.2-179.7l0.1,13.9l7.6,0c2.5-0.3,5.7-4.4,1.9-7.5c2-1.8,1.7-5.5-2.2-6.3L26.2-179.7z M29.1-176.9h3.8
		c1.7,0.5,1.2,2.1,0.1,2.3h-3.8V-176.9z M29.2-171.9l4,0.1c2,0.6,1.5,2.8,0.1,3.2l-4,0L29.2-171.9z"/>
</g>
<g>
	<path class="st11" d="M139.5,71.4C124,54.4,118.4,35.1,133.5,15l-5.8-8c-12.9,4.9-26.6,2.1-35.6-4.3c-13.4,9.6-27.4,10.7-42,0
		c-10.4,7.9-26,8.4-35.5,4.2l-6,8.2c16.9,22.7,7,42.1-6.1,56.3l6.7,6.8C8.1,111.8,26.3,130,60.8,133l10.3,8.4l10.4-8.5
		c19.3-1.1,53-11.5,51.5-54.9L139.5,71.4z M80.1,130.2l-9,7.6l-9-7.5c-33.2-1.9-52.1-20.7-49.9-53.1l-5.6-5.9
		C18.8,58.1,27.6,36.5,12.3,15l3.6-4.6C24.7,14,40.2,13.3,50,6.1c13.7,10,29.6,9.1,42.2,0.1c8.4,6.1,22.3,8.3,34.4,4.3L130,15
		c-13.7,19-8.8,40.6,5.4,56.4l-5.6,5.8C133.4,119,99.5,129.9,80.1,130.2z"/>
	<path class="st2" d="M109.3,115.9c0.3-0.2,0.6-0.4,0.8-0.6v0C109.8,115.5,109.6,115.7,109.3,115.9z"/>
	<g>
		<path class="st11" d="M125.2,77.6l-0.5-0.5h-107l-0.5,0.4c-1.9,16.6,3.1,29.8,14.5,38.1c2,1.5,4.3,2.8,6.7,4
			c1.7,0.8,3.6,1.6,5.6,2.3c1.2,0.4,2.5,0.8,3.7,1.1c4.4,1.2,9.2,2,14.3,2.4l18.2,0c5.1-0.3,10-1,14.4-2.3c1.3-0.4,2.6-0.8,3.9-1.2
			c2-0.7,3.8-1.5,5.5-2.3c2-1,3.9-2.1,5.7-3.4c0.2-0.1,0.4-0.3,0.6-0.4l0.3-0.2C121.6,107.3,126.7,94.2,125.2,77.6z M44,121.4
			c-1.9-0.7-3.8-1.4-5.5-2.2c-2.4-1.1-4.5-2.4-6.6-3.9V77.7h15.7v41.5v2.2v1.1C46.4,122.2,45.2,121.9,44,121.4z M63.3,124.9V113
			c-2.4-1.5-4.2-3.8-5.4-6.4c-0.8-1.8-1.2-3.7-1.2-5.7c0,0,0-0.1,0-0.1c0-5.1,2.6-9.6,6.6-12.2V77.7H79v10.7
			c4.1,2.6,6.8,7.1,6.8,12.2c0,0,0,0.1,0,0.1c0,5.2-2.7,9.8-6.8,12.4v11.7L63.3,124.9z M109.3,115.9c-1.8,1.2-3.6,2.3-5.6,3.3
			c-1.7,0.8-3.5,1.6-5.4,2.2c-1.2,0.4-2.5,0.8-3.9,1.2v-1.2v-2.2V77.7h15.7v37.6C109.8,115.5,109.6,115.7,109.3,115.9z"/>
	</g>
	<path class="st11" d="M70.6,18.1c-5.1,0-10.2-1.1-15.2-3.3c-1.8-0.8-3.6-1.7-5.3-2.7c-0.2-0.1-0.3-0.1-0.5,0
		c-3.1,1.7-6.3,2.9-9.7,3.8c-6,1.5-12.5,1.7-20.4,0.5c-0.2,0-0.4,0.1-0.5,0.2c-0.1,0.2-0.1,0.4,0,0.5c2.4,4.1,4.1,8.4,5,12.9
		c1,4.8,1.2,9.9,0.4,15c-0.6,4.4-1.9,8.9-3.8,13.4c-0.1,0.2,0,0.3,0,0.5c0.1,0.1,0.2,0.2,0.4,0.2l49.5,0c0,0,0,0,0,0
		c0.1,0,0.3-0.1,0.4-0.1s0.1-0.2,0.1-0.4v-40C71.1,18.3,70.9,18.1,70.6,18.1z M19.4,16.9c6.9,1,13.8,1.1,20.5-0.6v13.6H24.5
		C23.6,25.6,22,21.2,19.4,16.9z M21.2,58.6c1.8-4.3,3.1-8.8,3.8-13.5h15v13.5L21.2,58.6z M70.6,58.6l-15.4,0V45.1h15.4V58.6z
		 M70.6,29.9H55.2V15.2c5.1,2.2,10.2,3.3,15.4,3.4V29.9z"/>
	<path class="st11" d="M122.9,16.9c-0.1-0.2-0.3-0.2-0.5-0.2c-3.1,0.3-6,0.4-8.6,0.4c-2,0-3.9,0-5.6-0.2c-1.8-0.1-3.4-0.4-5-0.7
		c-1.9-0.4-3.8-0.9-5.5-1.6c-1.7-0.7-3.4-1.5-5-2.5L92.5,12c-0.2-0.1-0.4-0.1-0.5,0c-1.8,1-3.6,1.9-5.3,2.7c-1.6,0.7-3.3,1.3-5,1.8
		c-1.9,0.6-3.7,1-5.5,1.2c-1.5,0.2-3,0.3-4.7,0.4c-0.3,0-0.5,0.2-0.5,0.5v40c0,0.3,0.2,0.5,0.5,0.5l49.4,0c0,0,0,0,0,0
		c0.2,0,0.3-0.1,0.4-0.2s0.1-0.3,0-0.5c-6.2-14-5.6-28.5,1.6-41C123,17.2,123,17,122.9,16.9z M71.4,58.6v-40c1.6,0,3.2-0.1,4.8-0.4
		v40.4L71.4,58.6z M81.8,58.6V16.9c1.7-0.5,3.4-1.1,5-1.8v43.5L81.8,58.6z M92.4,58.6V12.5c1.6,1,3.3,1.8,5.1,2.5v43.5L92.4,58.6z
		 M103.2,58.6V16.7c1.6,0.3,3.2,0.5,5,0.7v41.2L103.2,58.6z M120.8,58.6l-7,0v-41c2.6,0,5.5-0.2,8.7-0.4
		C115.3,29.6,114.5,44.4,120.8,58.6z"/>
	<polygon class="st11" points="58.1,64.2 58.1,61.2 50.9,61.2 50.9,61.3 48.3,61.3 48.3,75 51.1,75 51.1,69.3 55.2,69.3 55.2,66.4 
		51.1,66.4 51.1,64.2 	"/>
	<path class="st11" d="M72.5,65.5L72.5,65.5l2.6-1.3c-1.6-3.6-8.3-4.6-10.5,0c-2.3,5.5,0.1,10.7,4.5,11.2c2.8,0.4,5-1,5.9-3.4
		l-2.5-1.5c-0.7,1.7-3.3,2.8-5.2,0c-0.6-1.3-0.8-3.2-0.1-5.1C68.8,63.3,71.2,63.6,72.5,65.5z"/>
	<path class="st11" d="M91.8,67.6c2-1.8,1.7-5.5-2.2-6.3l-7.3,0l0.1,13.9l7.6,0C92.4,74.8,95.6,70.7,91.8,67.6z M85.2,64H89
		c1.7,0.5,1.2,2.1,0.1,2.3h-3.8V64z M89.3,72.3l-4,0l0-3.2l4,0.1C91.2,69.7,90.7,71.9,89.3,72.3z"/>
	<g>
		<path class="st11" d="M71,85.9c-4,0-7.7,1.6-10.5,4.4c-2.8,2.8-4.3,6.6-4.3,10.6v0.1c0,8.2,6.7,14.9,14.9,14.9h0.1
			c8.2,0,14.9-6.8,14.9-15v-0.1C86,92.5,79.3,85.9,71,85.9z M69.9,86.7c-1.5,1.7-1.4,3.6,0.3,5.9c-3.7,4.6-1.3,6.6,0.4,8.2l0.2,0.1
			c-0.5,0.9-1.5,2.9-3.2,3.4c-0.8,0.3-1.7,0.1-2.5-0.4c-4.8-2.9-3.6-9.1-2-14.8C65,87.8,67.4,86.9,69.9,86.7z M56.9,101v-0.1
			c0-3.8,1.4-7.4,4.1-10c0.3-0.4,0.7-0.7,1.1-1c-1.3,5.1-2.2,10.6,1.3,13.8c-1.6,2.4-3,2.7-5.4,2.8C57.3,104.7,56.9,102.9,56.9,101z
			 M58.3,107c2.4-0.2,3.9-0.5,5.6-3c0.2,0.2,0.5,0.4,0.7,0.5c0.7,0.4,1.3,0.6,2,0.6c0.4,0,0.7-0.1,1.1-0.2c2.1-0.7,3.4-3.3,3.7-4.2
			c1.2-0.7,2.3-0.9,3.3-0.5c1.2,0.5,2.1,1.8,2.7,3.9c-2,4.5-6.9,7.1-15.1,7.9C60.6,110.7,59.2,109,58.3,107z M71.1,115.1L71.1,115.1
			c-3,0-5.8-0.9-8-2.5c8.1-0.9,13-3.7,14.9-8.3c1.2-0.4,2.3-0.2,3,0.2c1.2,0.6,2.2,1.7,2.6,2.9l0.1,0
			C81.3,112,76.6,115.1,71.1,115.1z M84,106.7c-0.5-1.2-1.5-2.2-2.7-2.8c-1.1-0.5-2.2-0.6-3.3-0.3c-0.6-2.2-1.6-3.5-3-4
			c-1.2-0.4-2.5-0.2-4,0.6l0,0c-1.7-1.5-3.6-3.2-0.2-7.4c6.4-1.5,12.2,5.1,14.4,9C85.1,103.6,84.7,105.2,84,106.7z M70.7,92.2
			c-1.6-2.2-1.6-3.9,0.2-5.5h0.2c7.7,0,14,6.2,14.2,13.9C82.6,96.5,77,90.6,70.7,92.2z"/>
	</g>
</g>
</svg>
