<?xml version="1.0" encoding="utf-8"?>
<!-- Generator: Adobe Illustrator 27.2.0, SVG Export Plug-In . SVG Version: 6.00 Build 0)  -->
<svg version="1.1" id="svg5" xmlns="http://www.w3.org/2000/svg" xmlns:xlink="http://www.w3.org/1999/xlink" x="0px" y="0px"
	 viewBox="0 0 850.4 850.4" style="enable-background:new 0 0 850.4 850.4;" xml:space="preserve">
<style type="text/css">
	.st0{fill:#FFFFFF;}
</style>
<g>
	<path class="st0" d="M425.2,11.6c-228.4,0-413.6,185.2-413.6,413.6s185.2,413.6,413.6,413.6s413.6-185.2,413.6-413.6
		S653.6,11.6,425.2,11.6z M425.2,818.1c-217,0-392.9-175.9-392.9-392.9S208.2,32.3,425.2,32.3c217,0,392.9,175.9,392.9,392.9
		S642.2,818.1,425.2,818.1z"/>
	<path class="st0" d="M300.5,179.4l12.2-5.6c7-3.3,9-6,6-13c-2.8-6.6-7.6-6.7-14.7-3.5l-11.9,5.5L300.5,179.4z"/>
	<path class="st0" d="M402.2,115.1c-2.7-6.1-4.8-11.5-4.8-11.5H397c0,0-1.1,5.7-2.7,12.2l-4.7,19l20.5-1.7L402.2,115.1z"/>
	<path class="st0" d="M302.8,128.1c-2.5-5.9-6.7-6.4-12.8-3.5l-13.7,6.3l7.8,15.4l13.2-6.1C303.5,137.3,305.4,134.3,302.8,128.1z"/>
	<path class="st0" d="M425.2,50.9c-206.7,0-374.3,167.6-374.3,374.3s167.6,374.3,374.3,374.3s374.3-167.6,374.3-374.3
		S631.9,50.9,425.2,50.9z M740.6,274L713,316.6c-5.3,8.1-9.2,13-9.2,13l0.3,0.7c0,0,6.9-2.9,14.6-5.9l36.9-14l7.8,22.7l-86.1,32.6
		l-8.4-24l27.2-39.7c5.8-8.4,9.2-12.9,9.2-12.9l-0.3-0.7c0,0-6.3,3.1-14.3,6.7l-34.7,15.7L645.6,289l83.9-37.9L740.6,274z
		 M191.5,425.2c0-129.1,104.6-233.7,233.7-233.7s233.7,104.6,233.7,233.7c0,129-104.6,233.7-233.6,233.7c0,0,0,0,0,0
		C296.1,658.9,191.5,554.2,191.5,425.2z M272.6,632.7L250,648.5l-0.4-0.3l10.1-25.7L272.6,632.7z M682.2,189.9
		c14.4,15.4,17.8,30.2,0.7,45.2c-10.9,9.6-19,12.2-28.6,8.5l-14.7,37.1l-17.4-21.2l13.5-30.3l-8-8.6l-21.6,21.5l-17.8-16.9
		l65.8-65.4L682.2,189.9z M622,134.9L612,152l-35.7-19.6l-7.1,14l33,18.1l-9.9,16.7l-32-17.5l-7.8,15.3l34.8,19.1l-10.1,17.1
		l-54.8-30.1l41.7-82.1L622,134.9z M480.3,80.2l8.4,27.7c1.6,5.3,2.9,10.9,2.9,10.9l0.5,0.1c0,0,3.6-4.6,7.2-8.8l19.1-21.8l27.3,6.7
		l-46.5,50.6l-7.1,30.6l-24.1-5.2l6.2-30.8l-21.4-65.4L480.3,80.2z M380.8,79.2l28.5-2.5l41.6,90.6h-26.1l-7.5-16.6l-31.6,2.7
		L381,171l-25.8,4.5L380.8,79.2z M283.3,106.8c16.3-7.5,32.2-9.1,39.2,7.5c5.8,13.6,2.1,19.6-5,25.5l0.2,0.6
		c7.6-1.8,17.8-1.5,24.2,13.7c7.8,18.3-4.1,28.9-20.4,36.4l-34.4,15.9L246,124.1L283.3,106.8z M150,205.6c16-20.3,36.5-22,52.5-10.7
		l-15.3,19.4c-7.5-4.2-14.5-3.7-21.5,5.1c-7,8.8-5.4,19.8,10.1,31.4c14.8,11.1,26.4,10.7,32.9,2.5c6.9-8.8,5.6-15.8-1.2-22.7
		l15.4-19.6c15.9,14.4,18.7,34.2,2.8,54.3c-14.6,18.4-37,27.3-66,5.7C131,249.9,134.8,224.8,150,205.6z M110,271.8l18.5,7.3
		L113.8,320l17.2,5.7l13.8-38.3l18,7.1l-13.4,37.1l32.3,10.5l-6.9,23.5L86.5,337L110,271.8z M144.2,638.8l-12.7-20.4l33.3-19.4
		c7.8-4.5,13.6-7.7,13.6-7.7l-0.2-0.4c0,0-4-0.3-12.4-1.5l-33.9-5l-0.2-0.4l14.2-31.1c3.5-7.7,5.5-11.2,5.5-11.2l-0.2-0.4
		c0,0-5.8,3.2-13.8,7.3l-34.4,17.2l-10.2-21.8l82.4-41.3l10.6,22.6l-17.3,32.7c-2.6,4.9-4.8,8.8-4.8,8.8l0.2,0.4
		c0,0,4.6,0.3,10.1,0.7l36.8,3.3l13.1,21.2L144.2,638.8z M207.8,701.6c-17.9-14.1-26.9-33.2-9.6-53.9l37.7-44.9l18.3,16.3
		l-36.8,43.8c-6,7.3-5.7,14.9,3.4,22.1c9.1,7.2,16.6,5.7,22.3-1.9l33.9-46l20.1,14l-34.8,47.2C246.4,719.9,225.7,715.7,207.8,701.6z
		 M366.8,772l-24.8-6l-15.4-48.3c-2.9-9.4-4.2-15.3-4.2-15.3l-0.7-0.2c0,0-2.1,7.3-4.7,15l-12.5,37.5l-22.5-8.3l29.3-87.3l23.9,8.8
		l13.5,46.2c2.9,10,4.1,15.3,4.1,15.3l0.7,0.2c0,0,1.6-6.9,3.9-15.3l9.8-36.8l23.3,5.5L366.8,772z M451.2,777.4
		c-24.4,1.7-47.3-9.4-48.6-45c-1.4-36.1,18.6-49.6,42-51.2c25.4-1.7,40,12.5,42.6,31.7l-24.7,1.7c-2.3-8.3-6.7-13.3-17.6-12.5
		c-10.2,0.7-17.3,10-16.5,28.6c0.8,19.4,8.9,26.8,20.2,26.1c11.4-0.8,16.3-6.2,16.9-16.2l24.9-1.7
		C491,760.7,477.4,775.6,451.2,777.4z M586.2,736.7L570,703.9l-29.9,13.6l14.2,33.8l-22.9,8.8L496,675.2v-0.1l22.9-8.8l12.9,31
		l28.5-13l-15-30.2l21.7-11.5l40.9,82.5L586.2,736.7z M643.1,700.4l-61.6-68.5l44.1-42.2l14.2,13.9l-27.6,26.5l10.5,11.7l26.8-25.6
		l13.8,13.6l-27.6,26.5l11.5,12.8l31.1-29.8l14.2,13.9L643.1,700.4z M747.1,564.3l-50.2,7c-9.7,1.4-15.8,1.6-15.8,1.6l-0.3,0.7
		c0,0,6.8,3.2,14,7.1l34.8,18.7l-12,20.8l-81-43.6l12.6-22.1L697,549c10.3-1.2,15.8-1.5,15.8-1.5l0.3-0.7c0,0-6.5-2.7-14.3-6.4
		l-34.6-15.9l9.4-22.1l83.5,38.5L747.1,564.3z"/>
	<path class="st0" d="M666.6,217.8c5.9-5.2,5.7-10,0.4-15.7l-10-10.7l-15.6,15.6l9.5,10.2C656.3,222.8,660.7,223,666.6,217.8z"/>
	<polygon class="st0" points="520.1,395.9 520.1,395.9 520,395.8 520,395.9 	"/>
	<path class="st0" d="M267.1,474.1l-54.8-80c-4.6,31.7-2.1,64,7.4,94.6c9.4,30.6,25.6,58.8,47.4,82.3L267.1,474.1L267.1,474.1
		L267.1,474.1z"/>
	<path class="st0" d="M520.1,395.9l62.7,91.6v84.1c11.6-12.5,21.6-26.3,30-41.1l-29.5-43v-111v0l-62.7-91.6v-52.2
		c-15.3-7.6-31.4-13.3-48-17l47.5,69.4L520.1,395.9L520.1,395.9L520.1,395.9z"/>
	<polygon class="st0" points="267.1,474.1 267.1,474.1 267.2,474.2 267.2,474.1 	"/>
	<path class="st0" d="M520.1,506.9v-111l0,0v0l-62.7-91.6v-91.7c-32-4.8-64.7-2.3-95.7,7.3l0,0c-30.9,9.5-59.3,26-83,48.1l51.8,75.7
		v111l62.7,91.6v91.7c64.9,9.7,130.7-10.6,178.7-55.3L520.1,506.9z M456.3,637.6l-62.7-91.6V435l-62.7-91.6v-111l62.7,91.6v111
		l62.7,91.6V637.6z M519.5,618.1l-62.7-91.6v-111v-0.1l-62.7-91.6v-111l62.7,91.6v111v0.1l62.7,91.6V618.1z"/>
	<path class="st0" d="M330.4,454.5l-62.7-91.6v-84.1c-11.6,12.5-21.6,26.3-30,41.2l29.5,43.1v111l0,0v0l62.7,91.6v52.2
		c15.3,7.5,31.4,13.3,48,17l-47.5-69.4V454.5z"/>
	<path class="st0" d="M638.1,456.4c4.7-31.7,2.1-64.1-7.4-94.7c-9.4-30.6-25.6-58.8-47.4-82.3v97v0L638.1,456.4z"/>
</g>
</svg>
