<?xml version="1.0" encoding="UTF-8" standalone="no"?><!DOCTYPE svg PUBLIC "-//W3C//DTD SVG 1.1//EN" "http://www.w3.org/Graphics/SVG/1.1/DTD/svg11.dtd"><svg width="100%" height="100%" viewBox="0 0 665 1293" version="1.1" xmlns="http://www.w3.org/2000/svg" xmlns:xlink="http://www.w3.org/1999/xlink" xml:space="preserve" xmlns:serif="http://www.serif.com/" style="fill-rule:evenodd;clip-rule:evenodd;stroke-linejoin:round;stroke-miterlimit:2;"><path d="M322.917,0l0,25.292l-25.292,0l0,18.292l25.292,0l0,25.333l18.292,0l0,-25.333l25.333,0l0,-18.292l-25.333,0l0,-25.292l-18.292,0Zm-104.5,228l227.333,0l0,18.292l-227.333,0l0,-18.292Zm0,-36.75l227.333,0l0,18.292l-227.333,0l0,-18.292Zm104.5,-104.083l18.292,0l0,85.708l-18.292,0l0,-85.708Zm-94.583,79.5c-6.875,-12.833 -13.958,-26.125 -13.958,-36.375c0.944,-13.779 12.543,-24.611 26.355,-24.611c2.663,0 5.311,0.403 7.853,1.194c2.091,-5.822 5.04,-11.3 8.75,-16.25c-5.316,-2.158 -10.999,-3.267 -16.736,-3.267c-23.821,0 -43.634,19.127 -44.472,42.934c0,14.042 7.333,28.542 14.792,42.625l20.833,0l-3.417,-6.25Zm65.458,6.208c-0.583,-1.5 -1.208,-3 -1.875,-4.542c-4.958,-12.083 -11.125,-27.083 -11.125,-37.25c0,-15.208 8.333,-22.917 15.708,-25c2.718,-0.81 5.615,-0.81 8.333,-0l0,-18.583c-4.34,-0.534 -8.744,-0.208 -12.958,0.958c-17.708,4.875 -29.167,21.583 -29.167,42.542c0,13.042 5.917,28.167 11.542,41.667l19.542,0.208Zm131.917,-85.375c-6.45,-0.323 -12.894,0.772 -18.875,3.208c3.719,4.951 6.682,10.428 8.792,16.25c2.542,-0.792 5.188,-1.195 7.851,-1.195c13.805,0 25.393,10.838 26.316,24.612c0,10.25 -7.083,23.542 -13.917,36.375c-1.125,2.083 -2.208,4.167 -3.292,6.25l20.833,0c7.5,-14.083 14.833,-28.583 14.833,-42.625c-0.414,-23.237 -19.309,-42.28 -42.542,-42.875m-66.167,0l0,18.75c2.653,-0.77 5.472,-0.77 8.125,0c7.333,2.083 15.667,9.625 15.667,24.833c0,10.167 -6.167,25 -11.125,37.25l-1.875,4.542l19.792,0c5.583,-13.625 11.5,-28.75 11.5,-41.667c0,-20.833 -11.458,-37.5 -29.167,-42.542c-4.188,-1.231 -8.576,-1.627 -12.917,-1.167m245.083,1082.75c-30.333,0 -59.542,22.083 -59.542,22.083l119.083,0c0,0 -29.167,-22.083 -59.542,-22.083m-67.917,35.208c-30.375,0 -59.542,22.083 -59.542,22.083l119.083,0c0,0 -29.167,-22.083 -59.542,-22.083m-45.042,40.833c-27.167,-13.542 -63.125,-6.792 -63.125,-6.792l106.583,53.125c0,0 -16.25,-32.792 -43.458,-46.333m-88.083,0c-27.167,-13.542 -63.167,-6.792 -63.167,-6.792l106.583,53.125c0,0 -16.25,-32.792 -43.417,-46.333m225.875,-119.875c19.333,-23.417 20.833,-60 20.833,-60l-75.75,91.917c0,0 35.625,-8.333 54.917,-31.917m-73.167,31.917c16.667,-25.333 14.458,-61.833 14.458,-61.833l-65.708,99.333c0,0 34.5,-12.125 51.25,-37.5m-103.292,63.25c27.167,-13.542 43.417,-46.333 43.417,-46.333l-106.583,53.167c0,0 36,6.75 63.167,-6.833m-393.458,-51.333c30.375,0 59.542,22.083 59.542,22.083l-119.083,0c0,0 29.167,-22.083 59.542,-22.083m67.917,35.208c30.375,0 59.542,22.083 59.542,22.083l-119.083,0c0,0 29.167,-22.083 59.542,-22.083m44.875,40.833c27.167,-13.542 63.167,-6.792 63.167,-6.792l-106.583,53.125c0,0 16.25,-32.792 43.417,-46.333m88.292,0c27.167,-13.542 63.125,-6.792 63.125,-6.792l-106.583,53.125c0,0 16.292,-32.792 43.458,-46.333m-225.917,-119.875c-19.333,-23.417 -20.833,-60 -20.833,-60l75.75,91.917c0,0 -35.458,-8.333 -54.917,-31.917m73.167,31.917c-16.667,-25.333 -14.458,-61.833 -14.458,-61.833l65.75,99.333c0,0 -34.542,-12.125 -51.292,-37.5m103.333,63.292c-27.208,-13.583 -43.458,-46.375 -43.458,-46.375l106.583,53.167c0,0 -35.958,6.75 -63.125,-6.792" style="fill:#fff;fill-rule:nonzero;"/><path d="M8.333,282.917l0,566.417c0,177.741 146.259,324 324,324c177.741,0 324,-146.259 324,-324l0,-566.417l-648,0Zm314.625,871.875c-29.286,-0.879 -58.292,-5.973 -86.125,-15.125l-0,-838.458l86.125,0l0,853.583Zm-190.583,-853.583l86.125,0l0,831.75c-31.42,-12.677 -60.523,-30.474 -86.125,-52.667l-0,-779.083Zm-105.75,548.125l0,-548.125l87.5,0l0,761.875c-56.069,-56.984 -87.518,-133.807 -87.5,-213.75m611.375,-0c-0.216,164.225 -132.6,300.494 -296.75,305.458l0,-610.917c164.159,4.943 296.556,141.225 296.75,305.458" style="fill:none;fill-rule:nonzero;stroke:#000;stroke-width:20.83px;"/><path d="M122.875,1084.417c30.56,27.272 66.16,48.307 104.792,61.917l0,-854.167l-104.417,-0l-0.375,792.25Z" style="fill:#fff;fill-rule:nonzero;stroke:#000;stroke-width:20.83px;"/><path d="M227.667,1146.333c42.792,17.833 104.667,17.833 104.667,17.833l-0.25,-872.125l-104.417,-0l0,854.292Z" style="fill:#fff;fill-rule:nonzero;stroke:#000;stroke-width:20.83px;"/><path d="M123.25,292.042l-0.375,792.375c-67.09,-59.657 -105.481,-145.306 -105.375,-235.083l-0,-557.292l105.75,-0Zm209.083,242.458c172.712,0 314.833,142.121 314.833,314.833c0,172.712 -142.121,314.833 -314.833,314.833l0,-629.667Z" style="fill:#fff;fill-rule:nonzero;stroke:#000;stroke-width:20.83px;"/><path d="M409.458,473.559l1.439,0l4.675,19.141l-10.949,0l4.835,-19.141Zm-20.62,42.159l9.91,0l3.557,-14.066l15.425,0l3.477,14.066l11.109,0l0,-6.753l-12.867,-45.915l-17.703,0l-12.867,45.915l-0.04,6.753Zm-35.086,0l12.268,0l0,-21.979l17.703,0l0,-9.031l-17.703,0l0,-12.508l18.582,0l0,-9.071l-30.81,0l-0.04,52.589Zm242.323,-70.171l11.429,0l0,-31.969l1.359,0l15.145,31.969l13.866,0l0,-52.749l-11.469,0l0,31.969l-1.439,0l-15.025,-31.969l-13.866,0l0,52.749Zm-30.49,-42.159l1.439,0l4.675,18.981l-10.949,0l4.835,-18.981Zm-20.78,42.159l9.95,0l3.517,-14.066l15.505,0l3.477,14.066l11.149,0l0,-6.793l-12.907,-45.955l-17.903,0l-12.788,45.955l0,6.793Zm-19.98,0l12.268,0l0,-52.749l-12.268,0l0,52.749Zm-27.973,-20.54l7.553,0l0,7.992c-0.661,1.176 -1.61,2.166 -2.757,2.877c-1.555,0.924 -3.348,1.369 -5.155,1.279c-1.829,0.084 -3.641,-0.39 -5.195,-1.359c-1.205,-0.74 -2.175,-1.807 -2.797,-3.077l0,-27.134c0.622,-1.279 1.574,-2.369 2.757,-3.157c3.095,-1.806 6.935,-1.806 10.03,-0c1.205,0.752 2.153,1.853 2.717,3.157l0,5.395l11.988,0l0,-8.632c-0.659,-1.209 -1.421,-2.359 -2.278,-3.437c-1.147,-1.344 -2.495,-2.503 -3.996,-3.437c-1.766,-1.137 -3.674,-2.037 -5.674,-2.677c-2.512,-0.762 -5.128,-1.126 -7.752,-1.079c-2.707,-0.066 -5.407,0.312 -7.992,1.119c-2.064,0.677 -4.027,1.632 -5.834,2.837c-1.521,1.018 -2.871,2.273 -3.996,3.716c-0.913,1.253 -1.703,2.591 -2.358,3.996l0,31.969c0.655,1.405 1.444,2.743 2.358,3.996c1.126,1.444 2.475,2.698 3.996,3.716c1.799,1.219 3.764,2.175 5.834,2.837c2.585,0.807 5.285,1.185 7.992,1.119c2.625,0.047 5.24,-0.317 7.752,-1.079c2.014,-0.624 3.926,-1.539 5.674,-2.717c1.49,-0.948 2.836,-2.105 3.996,-3.437c0.839,-1.062 1.601,-2.184 2.278,-3.357l0,-19.98l-18.981,0l-0.16,8.552Zm-55.146,20.54l28.612,0l0,-9.111l-16.624,0l0,-43.637l-11.988,0l0,52.749Zm-40.8,0l31.969,0l0,-9.111l-19.98,0l0,-13.227l17.982,0l0,-9.111l-17.982,0l0,-11.988l19.341,0l0,-9.311l-31.489,0l0.16,52.749Zm-34.886,-8.791l0,-13.866l7.752,0c1.391,-0.016 2.764,0.313 3.996,0.959c1.107,0.524 2.028,1.375 2.637,2.438l0,6.833c-0.559,1.073 -1.402,1.972 -2.438,2.597c-1.382,0.753 -2.944,1.113 -4.516,1.039l-7.433,-0Zm0,-22.378l0,-12.628l7.433,0c1.393,-0.034 2.771,0.297 3.996,0.959c1.084,0.594 1.952,1.518 2.478,2.637l0,5.515c-0.655,1.008 -1.53,1.855 -2.558,2.478c-1.086,0.648 -2.332,0.98 -3.596,0.959l-7.752,0.08Zm-12.228,31.17l22.378,0c1.895,0.03 3.783,-0.24 5.595,-0.799c1.556,-0.481 3.036,-1.18 4.396,-2.078c1.261,-0.796 2.404,-1.764 3.397,-2.877c0.876,-0.986 1.653,-2.057 2.318,-3.197l0,-12.788c-0.741,-1.219 -1.688,-2.3 -2.797,-3.197c-1.058,-0.833 -2.181,-1.581 -3.357,-2.238c1.199,-0.692 2.313,-1.524 3.317,-2.478c0.909,-0.862 1.714,-1.827 2.398,-2.877l0,-11.189c-0.65,-1.152 -1.413,-2.236 -2.278,-3.237c-0.969,-1.091 -2.069,-2.058 -3.277,-2.877c-1.325,-0.883 -2.763,-1.582 -4.276,-2.078c-1.751,-0.584 -3.589,-0.868 -5.435,-0.839l-22.378,0l0,52.749Zm182.981,-70.171l28.572,0l0,-9.111l-16.304,0l0,-43.597l-12.268,0l0,52.709Zm-30.65,-42.159l1.439,0l4.635,18.981l-10.909,0l4.835,-18.981Zm-20.46,42.159l9.91,0l3.557,-14.066l15.505,0l3.477,14.066l11.109,0l0,-6.793l-12.867,-45.915l-17.823,0l-12.867,45.915l0,6.793Zm-26.294,0l12.268,0l0,-20.7l14.026,-25.215l0,-6.793l-10.11,0l-8.672,18.182l-1.439,0l-8.392,-18.062l-11.069,0l0,6.793l13.227,23.977l0.16,21.819Zm-59.182,-10.55c0.65,1.416 1.454,2.756 2.398,3.996c1.12,1.448 2.47,2.704 3.996,3.716c1.807,1.206 3.77,2.16 5.834,2.837c5.114,1.492 10.55,1.492 15.665,0c2.068,-0.668 4.032,-1.623 5.834,-2.837c1.521,-1.018 2.871,-2.273 3.996,-3.716c0.948,-1.229 1.74,-2.572 2.358,-3.996l0,-31.969c-0.618,-1.424 -1.41,-2.767 -2.358,-3.996c-1.126,-1.444 -2.475,-2.698 -3.996,-3.716c-1.802,-1.215 -3.766,-2.17 -5.834,-2.837c-5.114,-1.492 -10.55,-1.492 -15.665,0c-2.064,0.677 -4.027,1.632 -5.834,2.837c-1.526,1.012 -2.876,2.268 -3.996,3.716c-0.944,1.24 -1.748,2.58 -2.398,3.996l-0,31.969Zm12.268,-29.571c0.616,-1.293 1.568,-2.398 2.757,-3.197c3.095,-1.806 6.935,-1.806 10.03,0c1.188,0.789 2.13,1.897 2.717,3.197l0,27.213c-0.617,1.259 -1.554,2.334 -2.717,3.117c-3.095,1.806 -6.935,1.806 -10.03,0c-1.166,-0.791 -2.115,-1.863 -2.757,-3.117l0,-27.213Zm-46.435,11.988l0,-15.465l7.313,0c1.39,-0.008 2.761,0.321 3.996,0.959c1.17,0.577 2.123,1.516 2.717,2.677l0,8.472c-0.58,1.158 -1.519,2.098 -2.677,2.677c-1.232,0.646 -2.605,0.976 -3.996,0.959l-7.353,-0.28Zm16.784,27.973l9.551,0l0,-6.793l-9.111,-13.906c1.833,-0.724 3.524,-1.766 4.995,-3.077c1.414,-1.335 2.626,-2.87 3.596,-4.556l0,-15.265c-1.499,-2.841 -3.79,-5.187 -6.594,-6.753c-2.816,-1.583 -6.001,-2.397 -9.231,-2.358l-22.218,0l0,52.868l12.268,0l0,-19.341l5.115,0l11.629,19.181Zm66.895,117.765c0.415,0.88 1.083,1.618 1.918,2.118c1.195,0.745 2.59,1.108 3.996,1.039c1.408,0.085 2.808,-0.279 3.996,-1.039c0.835,-0.5 1.503,-1.238 1.918,-2.118l0,-5.714c-0.437,-0.865 -1.1,-1.597 -1.918,-2.118c-1.197,-0.741 -2.59,-1.103 -3.996,-1.039c-1.405,-0.052 -2.794,0.31 -3.996,1.039c-0.818,0.521 -1.481,1.252 -1.918,2.118l0,5.714Zm152.411,15.225c0.611,0.916 1.307,1.772 2.078,2.558c1.048,1.107 2.245,2.061 3.557,2.837c1.636,0.998 3.396,1.777 5.235,2.318c2.285,0.659 4.656,0.969 7.033,0.919c2.379,0.037 4.751,-0.286 7.033,-0.959c1.842,-0.565 3.613,-1.343 5.275,-2.318c2.261,-1.305 4.168,-3.143 5.555,-5.355l0,-18.462c-0.528,-1.029 -1.171,-1.994 -1.918,-2.877c-0.87,-1.02 -1.895,-1.896 -3.037,-2.597c-1.241,-0.794 -2.586,-1.413 -3.996,-1.838c-1.645,-0.498 -3.357,-0.741 -5.075,-0.719c-1.99,-0.033 -3.973,0.25 -5.874,0.839c-1.574,0.554 -3.045,1.365 -4.356,2.398l0,-12.228l23.977,0l0,-9.471l-35.006,0l0,29.931l10.949,0c0.652,-0.73 1.439,-1.327 2.318,-1.758c1.232,-0.646 2.605,-0.976 3.996,-0.959c1.551,-0.025 3.082,0.361 4.436,1.119c1.087,0.535 1.96,1.423 2.478,2.518l0,10.31c-0.5,1.127 -1.376,2.045 -2.478,2.597c-1.356,0.749 -2.887,1.122 -4.436,1.079c-1.567,0.052 -3.118,-0.335 -4.476,-1.119c-1.075,-0.583 -1.951,-1.474 -2.518,-2.558l0,-3.996l-10.909,0l0.16,7.792Zm-10.47,-39.481c-1.177,-1.257 -2.522,-2.346 -3.996,-3.237c-1.724,-1.069 -3.577,-1.915 -5.515,-2.518c-2.315,-0.718 -4.729,-1.069 -7.153,-1.039c-2.396,-0.041 -4.783,0.296 -7.073,0.999c-1.861,0.567 -3.645,1.359 -5.315,2.358c-1.311,0.792 -2.508,1.76 -3.557,2.877c-0.731,0.747 -1.387,1.563 -1.958,2.438l0,18.422c0.479,1.081 1.127,2.079 1.918,2.957c0.882,0.997 1.905,1.858 3.037,2.558c1.252,0.774 2.594,1.391 3.996,1.838c1.686,0.498 3.437,0.741 5.195,0.719c2.033,0.04 4.058,-0.257 5.994,-0.879c1.638,-0.529 3.178,-1.326 4.556,-2.358l0,10.39c-0.537,1.091 -1.404,1.986 -2.478,2.558c-2.809,1.491 -6.182,1.491 -8.991,0c-1.074,-0.571 -1.941,-1.466 -2.478,-2.558l0,-3.557l-10.63,0l0,7.593c0.61,0.893 1.292,1.735 2.038,2.518c1.061,1.092 2.256,2.046 3.557,2.837c1.662,0.975 3.432,1.753 5.275,2.318c2.283,0.673 4.654,0.996 7.033,0.959c2.419,0.037 4.829,-0.286 7.153,-0.959c1.944,-0.568 3.799,-1.402 5.515,-2.478c1.486,-0.889 2.833,-1.994 3.996,-3.277c0.883,-1.029 1.648,-2.155 2.278,-3.357l0,-34.926c-0.642,-1.175 -1.45,-2.252 -2.398,-3.197m-9.591,17.903c-0.981,0.696 -2.04,1.273 -3.157,1.718c-1.166,0.42 -2.397,0.637 -3.636,0.639c-1.621,0.041 -3.224,-0.36 -4.635,-1.159c-1.094,-0.558 -1.977,-1.455 -2.518,-2.558l0,-10.67c0.537,-1.091 1.404,-1.986 2.478,-2.558c2.796,-1.541 6.196,-1.541 8.991,0c1.074,0.571 1.941,1.466 2.478,2.558l-0,12.028Zm-35.685,5.395c-1.313,-1.406 -2.853,-2.581 -4.556,-3.477c1.448,-0.803 2.79,-1.783 3.996,-2.917c0.743,-0.74 1.438,-1.527 2.078,-2.358l0,-13.227c-0.588,-0.765 -1.215,-1.498 -1.878,-2.198c-1.024,-1.038 -2.18,-1.938 -3.437,-2.677c-1.632,-0.969 -3.377,-1.734 -5.195,-2.278c-2.302,-0.714 -4.704,-1.051 -7.113,-0.999c-2.379,-0.037 -4.751,0.286 -7.033,0.959c-1.819,0.523 -3.565,1.275 -5.195,2.238c-1.271,0.753 -2.439,1.666 -3.477,2.717c-0.689,0.702 -1.33,1.45 -1.918,2.238l0,13.227c0.58,0.902 1.279,1.722 2.078,2.438c1.178,1.146 2.526,2.103 3.996,2.837c-1.69,0.93 -3.216,2.131 -4.516,3.557c-0.989,1.067 -1.847,2.247 -2.558,3.517l0,11.149c0.574,1.191 1.314,2.294 2.198,3.277c1.163,1.283 2.51,2.387 3.996,3.277c6.022,3.567 13.262,4.479 19.98,2.518c1.923,-0.606 3.763,-1.451 5.475,-2.518c1.486,-0.889 2.833,-1.994 3.996,-3.277c0.898,-0.98 1.651,-2.084 2.238,-3.277l0,-11.149c-0.883,-1.337 -1.946,-2.547 -3.157,-3.596m-22.938,-18.022c0.644,-0.854 1.461,-1.562 2.398,-2.078c2.71,-1.434 5.962,-1.434 8.672,0c0.944,0.506 1.763,1.216 2.398,2.078l0,7.633c-0.626,0.892 -1.445,1.629 -2.398,2.158c-2.71,1.434 -5.962,1.434 -8.672,0c-0.945,-0.539 -1.762,-1.275 -2.398,-2.158l0,-7.633Zm13.707,30.211c-0.537,1.091 -1.404,1.986 -2.478,2.558c-1.374,0.781 -2.936,1.168 -4.516,1.119c-1.554,0.045 -3.089,-0.342 -4.436,-1.119c-1.081,-0.575 -1.959,-1.468 -2.518,-2.558l0,-7.992c0.552,-1.104 1.431,-2.012 2.518,-2.597c1.354,-0.758 2.884,-1.144 4.436,-1.119c1.577,-0.03 3.135,0.356 4.516,1.119c1.076,0.586 1.943,1.495 2.478,2.597l0,7.992Zm-60.941,11.509l26.934,0l0,-7.752l-7.433,0l0,-44.916l-9.87,0l-9.711,3.277l0,7.073l7.832,-0.799l0,35.365l-7.752,0l0,7.752Z" style="fill:#fff;fill-rule:nonzero;"/></svg>