<?xml version="1.0" encoding="UTF-8" standalone="no"?><!DOCTYPE svg PUBLIC "-//W3C//DTD SVG 1.1//EN" "http://www.w3.org/Graphics/SVG/1.1/DTD/svg11.dtd"><svg width="100%" height="100%" viewBox="0 0 1310 1326" version="1.1" xmlns="http://www.w3.org/2000/svg" xmlns:xlink="http://www.w3.org/1999/xlink" xml:space="preserve" xmlns:serif="http://www.serif.com/" style="fill-rule:evenodd;clip-rule:evenodd;stroke-linejoin:round;stroke-miterlimit:2;"><path d="M491.047,839.853c-3.601,-8.893 -13.367,-15.495 -24.443,-15.495l-223.808,-0.164l-0.055,0c-37.265,0 -43.267,12.931 -24.989,48.832c25.916,58.926 85.442,122.871 85.442,122.871c12.822,14.841 23.734,17.35 32.9,17.35l95.263,-2.073c6.82,-0.436 13.095,-3.71 16.532,-8.348l60.29,-81.241c5.292,-6.002 7.802,-17.95 4.092,-27.662l-21.224,-54.07Zm249.397,85.224c-0.382,0 -86.97,2.892 -86.97,2.892c0,0 -86.533,-2.892 -86.97,-2.892c-9.657,0.164 -21.879,4.747 -27.117,11.949l-63.727,89.098c-4.91,6.602 -4.365,20.46 1.964,27.662l60.017,68.965c3.819,4.256 10.148,11.13 23.407,14.295c25.698,4.092 61.49,8.73 90.571,8.73l3.71,0c29.135,0 64.927,-4.638 90.625,-8.73c13.258,-3.165 19.642,-9.93 23.352,-14.295l60.071,-68.965c6.22,-7.311 6.875,-21.115 1.964,-27.662l-63.727,-89.098c-5.238,-7.257 -17.514,-11.894 -27.171,-11.949" style="fill:#fff;fill-rule:nonzero;"/><path d="M1247.367,824.248c-8.02,0 -96.518,25.862 -96.518,25.862c-8.02,2.783 -17.296,8.73 -21.77,14.895c-22.043,45.176 -45.34,97.173 -112.668,165.101c0,0 -6.111,5.947 -3.546,18.823c2.292,10.312 16.15,71.856 16.15,71.856c1.255,5.183 6.002,7.202 10.694,7.202c1.2,0 2.346,-0.164 3.492,-0.436c-59.417,49.759 -128.436,88.225 -203.893,112.504c9.985,-5.783 9.166,-16.368 -2.182,-26.244l-41.139,-41.466c-5.238,-4.747 -12.003,-7.802 -20.351,-7.802c-2.019,0 -4.201,0.164 -6.384,0.546c-44.303,11.24 -91.607,13.476 -115.614,13.586l-1.582,0c-24.498,0 -70.656,-2.564 -113.977,-13.586c-2.182,-0.382 -4.365,-0.546 -6.384,-0.546c-8.239,0 -15.059,3.055 -20.297,7.802l-41.139,41.466c-11.349,9.875 -12.112,20.406 -2.292,26.244c-75.403,-24.17 -144.368,-62.745 -203.675,-112.395c1.037,0.218 2.182,0.327 3.328,0.327c4.692,0 9.439,-2.128 10.639,-7.257c0,0 13.913,-61.544 16.205,-71.911c2.673,-12.767 -3.601,-18.823 -3.601,-18.823c-67.328,-67.928 -90.68,-119.815 -112.668,-165.101c-4.419,-6.22 -13.749,-12.112 -21.715,-14.841c0,0 -88.607,-25.862 -96.627,-25.862c-9.112,0 -5.947,8.784 -5.947,8.784c74.421,261.237 314.761,452.472 599.84,452.472c285.08,0 525.365,-191.235 599.84,-452.472c0,0 3.055,-8.784 -6.002,-8.784l-0.164,0l-0.055,0.055Z" style="fill:#fff;fill-rule:nonzero;"/><path d="M875.645,1011.173l95.263,2.073c9.166,0 20.133,-2.51 32.9,-17.35c0,0 59.417,-63.945 85.387,-122.871c18.223,-35.846 12.276,-48.832 -24.989,-48.832l-223.808,0.164c-11.021,0 -20.897,6.547 -24.443,15.495l-21.224,54.07c-3.765,9.821 -1.255,21.661 4.092,27.662l60.29,81.241c3.437,4.638 9.821,8.02 16.532,8.348m382.471,-479.916l-54.834,-16.041c-5.456,-1.91 -9.603,-8.02 -9.112,-13.749l4.201,-146.441c0.382,-5.729 -3.874,-10.421 -9.712,-10.421l-127.29,-26.08c-5.729,0 -11.894,-4.529 -13.64,-10.039l-13.586,-49.487c-1.091,-3.383 -3.437,-5.238 -6.002,-5.238c-1.637,0 -3.383,0.709 -5.02,2.182l-188.889,222.226c-1.637,1.364 -3.001,2.073 -4.147,2.073c-1.91,0 -3.055,-1.91 -2.728,-5.565l31.427,-338.004c0.436,-4.747 -2.237,-7.857 -6.384,-7.857c-0.873,0 -1.746,0.164 -2.728,0.436l-86.097,49.814c-1.146,0.327 -2.237,0.436 -3.492,0.436c-4.638,0 -9.657,-2.401 -12.167,-6.274l-88.825,-139.839c-1.255,-2.292 -3.656,-3.765 -5.947,-3.765c-2.237,0 -4.583,1.473 -5.893,3.765l-88.825,139.839c-2.51,3.874 -7.42,6.384 -12.222,6.384c-1.2,0 -2.292,-0.164 -3.437,-0.491l-86.097,-49.814c-0.982,-0.327 -1.855,-0.382 -2.728,-0.382c-4.147,0 -6.82,3.165 -6.384,7.857l31.427,338.004c0.327,3.601 -0.818,5.565 -2.728,5.565c-1.146,0 -2.619,-0.655 -4.256,-2.128l-188.889,-222.226c-1.582,-1.419 -3.383,-2.182 -5.02,-2.182c-2.619,0 -4.91,1.855 -5.947,5.238l-13.586,49.487c-1.801,5.511 -7.911,10.039 -13.64,10.039l-127.345,26.135c-5.729,0 -10.094,4.692 -9.712,10.421l4.201,146.386c0.436,5.729 -3.71,11.949 -9.112,13.749l-54.779,16.095c-5.511,1.855 -6.82,6.766 -2.837,11.076l24.334,26.516c3.874,4.256 10.257,7.748 17.514,7.748l1131.862,0c7.311,0 13.695,-3.492 17.569,-7.748l24.225,-26.516c3.874,-4.31 2.619,-9.221 -2.837,-11.076c0,0 0.109,0 0.109,-0.109" style="fill:#fff;fill-rule:nonzero;"/><path d="M185.016,723.911c-1.855,4.965 -4.201,10.257 -11.894,16.586c-8.675,7.038 -20.515,11.021 -33.391,11.021c-33.773,0 -48.504,-25.916 -48.504,-50.851c0,-35.028 23.788,-51.614 50.36,-51.614c8.402,0 19.424,1.855 28.208,7.475c8.675,5.565 11.403,11.84 13.749,16.532l54.561,-9.766c-5.402,-15.604 -17.95,-52.051 -97.936,-52.051c-93.79,0 -110.595,57.616 -110.595,89.589c-0,45.231 28.044,71.093 61.817,81.623c15.222,4.692 31.045,6.056 47.14,6.056c36.119,0 73.93,-8.402 93.299,-38.247c5.292,-8.402 7.42,-14.459 9.275,-20.515l-56.252,-5.838l0.164,0Z" style="fill:#fff;fill-rule:nonzero;"/><path d="M372.214,618.282l71.365,164.664l-64.163,0l-8.893,-26.844l-62.963,0l-8.893,26.844l-64.6,0l12.112,-28.153l9.003,-20.733l9.384,-21.77l40.484,-94.008l67.164,0Zm-13.913,101.428l-19.424,-55.761l-18.878,55.761l38.302,0Z" style="fill:#fff;"/><path d="M585.055,655.547c0,22.152 0.218,30.063 1.091,52.706c-11.621,-15.222 -14.677,-18.933 -29.135,-34.537l-50.632,-55.543l-48.723,0l0,164.664l58.325,0l0,-34.973c-0.218,-21.006 -0.218,-27.335 -0.928,-55.761c7.475,9.33 10.257,12.822 18.66,22.588l60.453,68.146l48.996,0l0,-164.664l-58.107,0l0,37.374Z" style="fill:#fff;fill-rule:nonzero;"/><path d="M796.751,618.282l71.365,164.664l-64.218,0l-8.893,-26.844l-62.963,0l-8.893,26.844l-64.545,0l70.929,-164.664l67.219,0Zm-13.858,101.428l-19.424,-55.761l-18.933,55.761l38.356,0Zm490.992,55.488l3.383,7.748l-64.109,0l-8.893,-26.844l-62.963,0l-8.893,26.844l-64.6,0l70.929,-164.664l67.164,0l59.417,137.111l8.566,19.806Zm-81.95,-55.488l-19.424,-55.761l-18.933,55.761l38.356,0Zm-117.306,-17.623c0,12.876 -2.292,25.971 -7.42,37.592c-3.819,8.566 -10.367,20.078 -25.152,29.463c-1.801,1.091 -3.656,2.182 -5.674,3.219c-17.678,9.384 -34.1,10.476 -49.923,10.476l-104.538,0l0,-164.664l93.517,0c17.077,0 64.818,-0.982 87.734,38.956c3.055,5.456 9.657,17.405 11.13,37.047c0.327,2.401 0.327,5.074 0.327,7.911m-70.983,33.719l0.109,0c7.802,-7.038 13.258,-20.788 13.258,-34.755c0,-15.604 -6.329,-27.499 -14.731,-34.264c-10.203,-8.184 -24.225,-9.33 -35.137,-9.33l-27.608,0l0,88.225l25.862,0c20.078,0 31.482,-3.71 38.247,-9.766l0,-0.109Z" style="fill:#fff;"/></svg>