<?xml version="1.0" encoding="utf-8"?>
<!-- Generator: Adobe Illustrator 27.2.0, SVG Export Plug-In . SVG Version: 6.00 Build 0)  -->
<svg version="1.1" id="Capa_1" xmlns:xodm="http://www.corel.com/coreldraw/odm/2003"
	 xmlns="http://www.w3.org/2000/svg" xmlns:xlink="http://www.w3.org/1999/xlink" x="0px" y="0px" viewBox="0 0 490.7 546.9"
	 style="enable-background:new 0 0 490.7 546.9;" xml:space="preserve">
<style type="text/css">
	.st0{fill-rule:evenodd;clip-rule:evenodd;fill:#FFFFFF;}
	.st1{fill-rule:evenodd;clip-rule:evenodd;fill:#D5001B;}
	.st2{fill-rule:evenodd;clip-rule:evenodd;fill:#00338C;}
	.st3{fill-rule:evenodd;clip-rule:evenodd;fill:#94A7CD;}
	.st4{fill-rule:evenodd;clip-rule:evenodd;fill:#ABBCD9;}
</style>
<g id="Layer_x0020_1">
	<g id="_806914032">
		<path class="st0" d="M22.8-128.6c1.1-0.5,10.1-0.5,11.3,0l0.1,49.8c-1.2,0.4-10.3,0.4-11.3,0L22.8-128.6L22.8-128.6z
			 M-151.7-128.6L-151.7-128.6l11.1,0l0.1,49.8l-11,0L-151.7-128.6L-151.7-128.6z M-210.8-128.6L-210.8-128.6l11.1,0l0,38.7
			c4.8,0,37-0.4,38.8,0.2l0,10.8l-49.8,0.1L-210.8-128.6L-210.8-128.6z M-276.7-92.5L-276.7-92.5c-0.4-4.7-0.4-21.9,0.6-26.1
			c0.9-3.9,2.6-6.2,5.5-7.8c3-1.7,7.2-2.2,11-2.2c4.7-0.1,22.4-0.2,26.4,0.3c8.8,1,12.5,4.6,13.3,13.5c0.4,4.5,0.4,22-0.5,25.9
			c-2.9,12.2-17.2,10.1-29.8,10.1C-263.6-78.8-275.4-77.3-276.7-92.5L-276.7-92.5z M58.1-78.8L58.1-78.8l-11.1,0
			c0.1-7.8-0.5-33.2,0.5-38.7c1-5.9,3.9-8.8,9.3-10.2c5.4-1.4,12.7-0.9,18.5-0.9c12.2,0,25.5-2,27.9,11.1c0.9,4.7,0.5,22,0.5,28.9
			c0,2.1,0.3,8.2-0.1,9.9l-11,0l-0.1-17.3l-34.5,0L58.1-78.8L58.1-78.8z M-32.2-92.9L-32.2-92.9l0,14.2l-11,0l-0.1-49.8
			c2.6-0.2,31.7,0,35.2,0c12,0,21.7-0.4,23.2,12.2c0.5,4.1,0.5,12.9-1,16.4c-1.8,4.4-5.3,6.1-11.1,6.7C-7-92.2-22.3-93.7-32.2-92.9
			L-32.2-92.9z M-121.1-78.8L-121.1-78.8l-10,0c-0.2-1.7-0.1-29.7-0.1-32.3c0-2.7-0.3-14.2,0.3-15.8c1-2.8,7.7-4.7,11.1-0.4
			c1.2,1.5,2.3,3,3.5,4.6c2.3,3.1,23.8,31.8,24.6,32.4c0.7-0.8,1.1-1.4,1.8-2.3c8.8-11.4,17.5-23.4,26.2-34.5
			c1.3-1.7,2.5-2.7,5.6-2.6c2.6,0.1,4.6,1,5.3,2.8c0.6,1.6,0.3,34.5,0.3,40.1c0,2.1,0.2,6-0.1,8l-10,0c-0.4-1.5-0.2-28.8-0.1-32.5
			c-0.6,0.4-2.8,3.4-3.4,4.2l-17,22.3c-1.2,1.5-2.2,2.9-3.4,4.4c-1.2,1.6-2.4,2.7-5.2,2.7c-4.5,0.1-5.6-2.8-8.8-6.9l-17-22.3
			c-0.5-0.7-1.1-1.4-1.7-2.1c-0.7-0.9-1.1-1.6-1.9-2.2L-121.1-78.8L-121.1-78.8z M-197.9-139.9L-197.9-139.9l0-40
			c2.8-1.5,21.2-6.2,25.4-7.3c8.8-2.2,17.7-4.1,26.8-5.8c42.3-7.9,76.7-7.5,118.9,0.1c13.8,2.5,26.4,5.4,39.8,9
			c4.3,1.2,8.5,2.6,12.7,3.7l0,40.7c-1.9-0.6-4.2-1.6-6-2.3c-31.8-11.8-71.8-20.4-105.4-20.6c-30.2-0.2-58.7,5.9-86.8,13.9
			c-4.3,1.2-8.7,2.6-12.9,4.1L-197.9-139.9L-197.9-139.9z M-207.8-161L-207.8-161c0.5-1.3,0.4-18,0.5-22c0-2.9-0.3-2.9,1.1-3.1
			c7.7-1.3,13.9-2.6,21.4-5.1c2.6-0.9,11-3.5,11-6.6c-3.1-2.8-11.7-0.7-15.8,0.1c-15.3,2.9-26.2,5.8-41.7,2.7
			c-2.7-0.5-5.1-1.4-7.6-1.9c2,8.2,8.1,13.8,13.7,18.7c-0.6,9.1-10,11.2-13,13.1c1.7,1.5,10.9,3.3,13.9,3.7
			C-219.2-160.8-213.2-160.7-207.8-161L-207.8-161z M1.6-197.9L1.6-197.9c0.8,2.1,2.8,2.9,4.9,3.9c5.7,2.7,14.1,4.9,20.3,6.1
			c9.8,2,8.2,0.1,8.3,5c0,1.4,0,2.9,0.1,4.3c0.1,5.6-0.1,11.7,0.2,17.1c12.4,0.5,20.1-0.3,30.8-4c-0.6-0.5-1.4-0.7-2.3-1.1
			c-5.4-2.3-9.9-5.4-10.8-12.1c0.5-0.6,4.3-3.7,6.3-6.1c3.5-4.2,5.2-6,7.4-12.7c-1.4,0.1-5.6,1.5-7.6,1.9
			c-15.3,3.2-26.8,0.2-41.9-2.6C14.3-198.7,3-201.4,1.6-197.9L1.6-197.9z M-105.8-219.6L-105.8-219.6l8.7,0.8c0,3.9,0.9,5.1,1.5,8.2
			l-11.8-1c0-0.7,0.7-2.7,0.9-3.7C-106.2-216.5-106.1-218.5-105.8-219.6L-105.8-219.6z M-150.2-209.4L-150.2-209.4l-9.2,0.1
			c-0.6-4.3-1.6-7.7,0.6-12c2.8-5.4,10.2-7.4,16.4-7.9c-0.8,1.4-2.4,2.4-3.4,3.7c-1.1,1.4-1.9,2.4-2.8,4.2
			C-150.4-217.6-150.4-213.9-150.2-209.4z M-163.9-209.4L-163.9-209.4c-0.4-8.5-0.4-12.4,5.1-19.1l0.7-0.9c-2.3,0.4-4.3,1.6-5.9,2.6
			c-5.9,3.9-7.9,9.9-6.8,17.5L-163.9-209.4L-163.9-209.4z M-48.8-214.6L-48.8-214.6c2.4-3.2,3.9-3.5,4.2-9.3
			c1.1-0.6,3.5-1.1,4.7-1.4c4.8-1.5,9.5-3.1,14-5c3-1.3,5.9-2.4,8.7-3.9c1.4-0.7,2.8-1.4,4.1-2c1.3-0.7,3.1-1.9,4.3-2.2
			c2.4,1.4,3.2,2.7,7.4,4.8c-0.5,0.7-0.3,0.4-1.1,0.9c-12.2,6.8-19.4,10.2-33.3,14.7C-38.7-217.1-45.9-214.8-48.8-214.6L-48.8-214.6
			z M-94.9-225.7L-94.9-225.7c-0.9,0-8.5-0.5-9.7-0.8c-0.6-0.2-0.3-0.1-0.6-0.3l1.4-25c0.6,0.8,1.6,2.5,2.3,3.5
			c2.8,3.9,6.1,5.6,9.6,8.7c2.9,2.5,4.8,4.2,2.3,7c-1.1,1.2-1.8,1.9-2.8,3.1C-93.4-228-93.9-227.1-94.9-225.7L-94.9-225.7z
			 M-186.5-244.2L-186.5-244.2c16.3,0.7,7.2-4.3,16.3,1.4c5.4,3.4,8.3,4.7,13.2,7.5c-1.3,1.2-5.8,2.8-7.7,3.9
			c-1.9,1-2.1,0.2-3.9-0.8c-1.3-0.7-2.5-1.4-3.8-2.2C-173.8-235.2-185.2-242.5-186.5-244.2L-186.5-244.2z M-14.1-243.4L-14.1-243.4
			c-0.3-0.8-0.8-1.2-1.3-1.9l-3.4-5.9c-1.5-3-2.7-5.6-4.7-7.4c-2-1.7-6.2-3.1-9.5-2.2c-5.4,1.4-11.8,5.3-16,8.5
			c-9.7,7.3-6,8-1.8,13.9c2.2,3.1,3.8,7.2,4.3,7.8c5.3-0.7,19.6-6.7,24.9-9.1L-14.1-243.4L-14.1-243.4z M-185.4-271.7L-185.4-271.7
			c2.8,1.1,9.3,5.5,14.1,5.1c2.1-0.2,4.9-1.7,7.2-2.3c2.1-0.5,1.9,0,2.2,2.1c0.3,2.4-0.2,6-2.9,6.7c-6.7,1.7-13.3,0.9-17.3-5.1
			C-183.5-267.2-184.4-269.2-185.4-271.7L-185.4-271.7z M-185.3-282.4L-185.3-282.4c0.9,1.9,5.3,5.7,7.1,6.9
			c8,5.1,20.9,2.1,15.8-4.9c-1.4-1.9-2-1.9-5.1-1.7C-175.2-281.9-177.5-282.1-185.3-282.4L-185.3-282.4z M-143-289.8L-143-289.8
			c-2.2-2-9-5.1-12.7-6c-5.1-1.3-10-1.2-15.1-0.5c-1,0.1-1.1,0.1-1.7,0.6c2.5,0.8,4.2,3.1,5.4,5.4c0.6,1.2,4,2.9,6.1,4.6
			c9.1,7.3,3.2,11.3,1.8,13.2c1.3,5.1,2.4,9.7-1,13.6c-3.5,3.9-2.4,0.9-4.2,4.3c-1.6,3-2.7,3.6-3.6,5c1.2,1.3,13.9,8.4,16.4,9.3
			c2.2-2.3,5.7-18,6.5-22.5C-144.1-269.2-142.7-283.6-143-289.8L-143-289.8z M73.7-308.7L73.7-308.7c5.2,2.9,9.5,10.5,10.6,17.2
			c1.5,9.5-0.6,16.3-2,24.8c1.6-1,3.2-2.3,4.8-3.4c1.8-1.2,3.2-2.3,4.9-3.4c10.1-6.6,21-14.2,33.7-15.6l-0.2,0.3
			c-0.2,0.2-0.2,0.2-0.4,0.4c-11,9.9-8.8,14.7-16.4,24.3c-0.8,1-1.6,1.9-2.3,2.9c-1.7,2.2-6.1,5.6-8.5,7.2
			c-7.7,4.9-16.7,5.6-25.7,3.1c-5.2-1.4-4.2-1.5-4.9-5.5c-1.1-6.1-1.6-13.2-1-19.5c0.9-8.6,4-16.3,7.5-23.9
			C75-303,75.1-305.5,73.7-308.7L73.7-308.7z M-240.4-252.5L-240.4-252.5c-18.5,7.9-33.9-0.9-42.4-14.2c-2.8-4.5-6.7-13-9-16
			c-1.1-1.4-3.9-4.4-5.4-5.6c-0.3-0.2-0.2-0.1-0.4-0.3c-0.4-0.4-0.2-0.1-0.5-0.6c14.3,1.9,27.4,11.1,38.7,19.1
			c1.6,1.1,3.3,2.3,4.6,3.4c-0.1-0.9-1.6-7.9-2-11.5c-1.2-10.7-0.3-19.5,6.9-27.4c0.9-1,2.5-2.4,3.7-3.2c-0.4,2.3-1.7,4-0.6,7
			c0.7,1.9,1.8,4.1,2.6,6c1.7,3.8,3.3,8.2,4.4,12.5C-237.6-274-237.9-261.6-240.4-252.5L-240.4-252.5z M-168.7-255L-168.7-255
			c-7.8,0.1-12.6,1-18.7-3.9c-2.3-1.9-9.3-9.1-11.3-11.5c-1.2-1.4-2.4-2.6-3.5-4.1c-2.7-3.6-7.8-10.1-8.4-14.7
			c-0.9-7,1.9-19.5,3.7-26.5l3.2-11.9c-1.1,1.5-2.4,4.5-3.3,6.3c-4.1,8-12.4,27-13.7,35.1c-0.9,5.6,1.5,9.2,5.1,13.7l10.2,11.9
			c0.6,0.6,0.7,0.7,1.1,1.3c0.7,0.9,1.6,1.6,2.3,2.4c6.4,6.9,10.7,9.3,20.5,8.5c3.6-0.3,5.2-0.3,7.8-2.1
			C-172-251.7-169.7-253.8-168.7-255L-168.7-255z M84-341.1L84-341.1c0.7,2.6,1.9,4.1,1.7,7.5c-0.2,2.4-0.9,5.3-1.1,7.9
			c-1,10.6,1,20.7,5.6,30c1.7,3.4,1.1,3.6,5.6,3.4c12.2-0.4,22.4-7,27.1-17.6c3.5-7.8,3.8-16.2,6.1-21.1c1.1-2.3,2.7-4.4,3.3-5.6
			c-2.6,0.8-7.9,4.1-9.8,5.5c-5.9,4.3-10.4,9.5-15.1,15.2l-6.5,8.4c-0.4-7.5-1-15.3-3.8-21.4c-2-4.4-2.8-4.7-5.2-7.4
			C90.2-338,86.8-340.5,84-341.1L84-341.1z M-264.4-292.4L-264.4-292.4c1.4-1.3,3.9-7.6,4.8-10.2c5.9-16.7,1.2-28.8,1.7-33.1
			c0.3-2.4,1.2-3.8,1.6-5.6c-5.8,1.9-10.4,6.6-12.9,12.2c-2.7,6-3.7,14.2-3.8,21.5l-13.8-16.5c-4.4-4.8-11.7-10.4-17.7-12.6
			c1.1,2.2,2.7,3.9,3.8,6.8c3.3,8.6,2.5,25.8,18.8,34.1C-277-293.3-270.9-291.9-264.4-292.4L-264.4-292.4z M-148.1-236.5
			L-148.1-236.5c3-0.6,6.2-2.8,8.2-4.2c2.2-1.7,4-4.6,5.2-7.2c2.6-5.4,4.7-11.8,6.7-17.8c2.1-6.4,4.5-11.6,7-17.5
			c7.9-18.9,2.4-18.2-3.3-25.8c-1.8-2.3-3.4-4.6-5.2-6.9c-1.5-1.9-1-2.1-1-5.1l0-30.5c0-6.3,0-5.2,2.4-9.8c1.4-2.7,2.9-5.3,4.4-8
			c0.8-1.4,1.4-2.6,2.2-4c0.6-1,1.8-3,2.1-3.9c-3,0.8-13.2,6.9-16.2,8.8c-5.4,3.4-11.6,8-15.9,12c-0.6,0.5-0.9,1.1-1.5,1.6l-3.1,3.1
			c-4.9,5.5-12.9,16.2-14.5,22.7c-3.2-1.3-10.8-9.5-13.4-12.9c-1.4-1.8-2.3-3.1-3.5-5.1c-3.1-5.1-6.4-11.8-8.8-17.4
			c-0.5-1.1-2.1-5.2-2.7-5.8c-5.1,14-2.8,30.4,2.9,42.8c1.4,3.1,2.9,5.7,4.4,8.5c5.3,10.1,5.3,11.8-0.9,16.9l-5.4,4.4
			c-0.8,0.6-1.2,0.7-1.8,1.6c12.5-0.4,18.4,6.1,26.9,7.4c-2.6-2.1-2.5-1.8-4.9-4.2c-0.8-0.8-3.3-4.1-3.7-5.5c1.7-0.3,4.1-1.4,6-1.9
			c6.7-1.8,13.3-2.7,20.1-1c5.7,1.4,10.7,4.5,15.1,7.8c1.5,1.1,1.5,1.2,1.6,2.2c1.6,15-1.4,29.3-5.6,43.4
			C-145.6-244-147.1-240.2-148.1-236.5L-148.1-236.5z M109.2-350.1L109.2-350.1c0.7-0.3,0.4,0,0.8-1c0.1-0.3,0.3-0.8,0.5-1.2
			c0.3-0.8,0.7-1.7,1-2.4c2-4.5,4.7-9,7.4-12.8c2-2.9,4-5,6.3-7.3l3.4-3.2c0.7-0.6,1.1-1,1.8-1.5c0.7-0.6,1.1-1.1,1.9-1.4
			c-0.9,2.4-1.9,4-2.5,7c-1.4,6.7,2.6,24.5-12.4,34.1c-3.2,2.1-8.9,4.7-13.7,4.9c-1.4-1.4-4.6-6.7-5.7-8.8c-4.2-7.8-6.1-13-6.2-22.4
			c-0.1-8.4-0.6-5.8-3.1-11.1c6.3,1.4,11.5,6.1,14.1,9.9c3.1,4.7,4.7,9.8,5.6,15.4C108.7-349.9,108.7-350.4,109.2-350.1L109.2-350.1
			z M-276-335.1L-276-335.1c-4.7-0.2-10.6-2.8-13.9-5c-8.7-5.9-11.5-14.1-12-25.1c-0.1-2.9,0.2-6.2-0.4-9c-0.8-3.7-2.1-5.5-2.5-6.8
			l3.9,3c1.3,1.3,2.3,2,3.4,3.2c5.2,5.3,10.8,13.5,13.6,20.2c0.5,1.2,1.2,3.9,2.3,4.4c0.9-0.9,0.9-3.2,1.2-4.7
			c0.3-1.6,0.8-3.2,1.3-4.7c1-3,2.4-5.8,3.9-8c2.3-3.5,8.2-8.8,14-9.8c-0.3,0.8,0,0.1-0.4,0.8c-0.9,1.5-1.4,1.9-2.1,4.1
			c-2,5.6,2.5,11.7-6.9,28.9C-272.3-340.4-275.3-336.4-276-335.1L-276-335.1z M-267.6-389.5L-267.6-389.5c3.9-7.3,2.5-14.7,6.5-18.3
			c0.3-0.3,1.4-1.2,1.7-1.7c-6.9-0.2-12,3.6-14.7,7c-1.7,2.2-2.9,3.9-4.4,6.5c-0.6,1.1-3.1,6.6-3.9,7.1c-0.8-0.9-2.3-7.1-2.9-8.8
			c-2-5.9-4-11-7.2-16.2l-5.2-6.8c0.4,2.5,1.1,4.7,0.9,7.4c-0.3,5.9-3.4,13.2-0.7,22.2c2.4,8.2,8.9,13.9,17,16.6
			C-277-376.1-269.9-385.2-267.6-389.5L-267.6-389.5z M110.1-388.9L110.1-388.9c-0.5-0.2-0.3,0.3-1.1-1.5c-0.3-0.7-0.6-1.3-0.9-1.9
			c-1.6-3.2-4.1-7.7-6.3-10.1c-3.3-3.7-7.4-6.9-14.7-7.1c0.3,0.6,1.1,1.1,1.6,1.6c6.2,7-0.8,13.7,15.6,30.1c1,1,2.6,2.7,3.7,3.4
			c5-1.2,10.7-5.7,12.8-8.4c10-13.1,3-24.7,3.7-32.8c0.1-1.7,0.8-3.7,0.8-5.2C114.9-410.2,111.4-390.6,110.1-388.9L110.1-388.9z
			 M-237.6-377L-237.6-377c0,22,5,45.2,14.5,64.7c1.2,2.5,2.5,5.3,3.8,7.6c0.4-0.4,4.6-11,5.2-12.5c1.7-4.1,3.8-8.1,5.7-12.2
			l4.3-9.1c0.6-1.2,0-2.2-0.4-3.6c-2.3-9.3-1.2-8.4-1.7-16.1c-0.9,0.9-3,5.8-7.6,7.3c-2.3-4-2.9-9.2-2.9-14.5l0-0.2
			c0-4.9,0.3-9.6,0.8-14.4c0.4-4.4,1.4-9.5,1.6-13.7c-1,0.7-3.2,3.4-4.3,4.7c-3.5,4.2-8.8,11.1-11.4,15.7
			c-1.3-1.9-1.6-14.3-1.6-17.4c0-11.3,1.4-19.4,6.4-29c0.6-1.3,1.4-2.3,1.8-3.5c-2.4,1.3-7,7-9.3,9.4c-1.1,1.1-2,7.4-2.4,9.1
			C-236.7-395.7-237.6-386.4-237.6-377L-237.6-377z M-34.7-414.8L-34.7-414.8c-0.9,1.1-2.2,1.8-3.3,2.8c-3.2,3.2-6.3,6.4-8.7,10.4
			c-7.6,13.2-3.4,26.2,7.9,35.2c16.7,13.2,45.7,13,54.3,22.2c5,5.4,3.4,13.5-0.7,18.9c-2.3,3-3.4,4.2-6.1,6.5
			c-0.5,0.4-1.1,0.9-1.7,1.4c-1.7,1.3-3.9,3-5.9,3.8l-8.7-8.8c-0.8-0.8-1.5-1.2-2.2-2.1l-7-6.5c-8.3-7.4-12.6-9.6-24.4-11.1
			c-5.1-0.6-10-1.6-14.5-3.2c-12.1-4.2-22.7-10.9-29.3-21.6l-0.5-0.9c0,0-0.1-0.1-0.1-0.1c-0.2-0.3-0.2-0.2-0.4-0.4
			c0.9,15.9,15,30.1,28.7,36.4c3.3,1.5,20.2,1.7,34.6,11.8c6.9,4.8,12.3,11.5,15.6,21.7c1.5,4.6,2.4,10.2,4.1,14.5
			c3.3,8.4,6,10.1,11.3,16.6c1.4,1.7,2.4,3.7,3.1,6.2c1.8,6.5-0.9,10-5.1,12.4C1-246-3.8-246.7-6.9-250.9c-2.7-3.6-3.7-9.3-5.1-13.5
			c-1.5-4.8-5.1-6.7-9.7-8.9c-4.5-2.1-9.8-3.1-15.2-3.6c0.2-0.3,1.3-1.6,1.6-2c4.4-5.1,7.5-11.6,8.4-18.6c0.4-3,0.1-11.8-1.6-13.8
			c-1.2-1.4-4.4,0.4-5.6,1c-7.9,4.2-8.8,4.8-18,2.6c-3.7-0.9-27.3-7.7-28.7-10.2c-2.1-3.7-5.4-12.1-7.1-16.3
			c-1.5-3.5-3.2-7.5-4.1-11.4c-2.6-11.7,3-21,6.9-30.7c1.2-3,1.3-2.9,0.7-6.4c-1.2-6.7-8.8-28.4-11.9-34.5c-0.1,1.8,0.2,4.9,0.3,6.8
			c0.3,7.3,0.4,14.6-0.1,21.9c-0.2,2.4-0.2,4.4-1.1,6.4c-0.9,1.8-1.6,3.4-2.4,5.2c-1.5,3.5-2.9,7.1-4.1,10.9
			c-1.8,5.7-1.6,7.2-1.2,13c0.3,4.4,0.9,9.1,1.8,13.2c2.3,10.1,4.1,13.9,7,23c1.6,4.9,2.4,13.8-1.4,18.3l-6.8,8.2
			c-5,6.3-11.9,16.6-12.8,24.8c-0.5,4.3-0.4,10-0.5,14.5c-0.1,5-0.1,10,0,15c0.1,2.6,0.8,12.9,0.1,14.4c-1.2-1.1-2-2.7-3.1-3.8
			c-4.2-4.1-10.2-5.8-16.1-3.7c-3.8,1.3-5.6,3.6-7.1,7.2c-1.1,2.4-2.8,9.4-2.1,12.3c9.9,0,19.8-0.1,29.7,0c2.7,0,3-0.5,4.4-2.9
			c0.9-1.7,1.6-3.6,2-5.6c1-4.3,1.1-9.3,1.2-13.8c0.4-9.5,0.9-18.5,2-27.8c0.3-2.3,3.8-7.8,5.1-9.9c1.4-2.4,4.6-7.9,7.3-7.8
			c0.8,0.9,1,2.7,1.1,4.1c0.1,2.7,0,2.5-1.2,4.2c-2.3,3.4-7.1,11.3-5.3,15.8c1.4,3.5,3.7,5.5,6,7.6c2.7,2.3,8.2,6.7,9.7,9.4
			c1.7,3.1-0.9,4.6-3.2,6.4c-4.6,3.5-7.6,8.8-5.6,15c0.4,1.3,1.2,2.7,1.8,3.6c1.2,1.6,1,1.9,3.5,1.9c7.3-0.1,14.6,0,21.9,0
			c2.3,0,4-2.1,6.6-4c2.2-1.6,4.4-2.8,6.6-4.3c8.5-6.1,0.1-15.6-4.1-21.2c-1.3-1.7-3.7-4.8-2.8-7.8c0.8-2.5,3.1-5,4.6-6.1
			c8.2-6.3,18.5-15.4,30.1-10.5c2.8,1.2,4.8,2.6,6.2,4.7c3.6,5.1,2.7,6.8,8.5,13.2c9.9,10.9,24.3,10.9,17.1,16.9
			c-3.3,2.8-5.6,5.2-6.3,10.1c-0.5,3.6-0.1,6.4,1.4,9c9.5,0.3,19.3,0,28.8,0c3.6,0,4.8,0.9,7-1.8c4.4-5.2,14.7-9.6,13.5-18.7
			c-1.6-12.5-11.6-14.7-18.7-21.9c-5.7-5.8-13.2-13.2-18.5-19.3L8-278.9c-2.2-2.6-2.1-5.3-2.5-9.3c-0.3-3.6-1.1-6.4-1.7-9.7
			c3.7-2.4,7-4.1,10.4-7c3.2-2.8,6.2-5.5,8.5-9.1c6-9.3,8.7-22.5,3-32.7c-1.4-2.5-2.8-4.1-4.6-5.9c-1.9-1.8-4.2-3-6.5-4.2
			c-12.8-6.1-27.9-6-42.3-14.2c-5.5-3.1-11.6-8.1-14.9-13.4c-2.1-3.4-1.8-7.7,0.1-11.4c1.7-3.4,8.7-14,11.9-16.3
			c11.1,5.8,16.3-6.3,15.6-17.6c-0.8,0.5-2.6,4.4-6.2,6.2c-1.7,0.9-3.9,0.8-4.6-0.7c-0.6-1.5,0.8-3.6,1.4-4.8
			c3.8-7.1,2.3-13.7,0.4-21.6c-0.1,0.2-0.2,0.2-0.3,0.5c-0.7,1.6-1,3.4-1.7,5c-1.6,3.6-4.1,5.5-7,7.8c-4.3,3.3-10,6.1-7.8,13.3
			C-38.8-417.8-36.5-417.9-34.7-414.8L-34.7-414.8z M104.1-425.2L104.1-425.2c0.7-2.2-0.9-13,3.1-24.1l2-4.9
			c0.1-0.1,0.4-0.8,0.4-0.8l0.3-0.5c0-0.1,0.1-0.1,0.1-0.1c-0.6,10.6,5.5,13.7,5.9,23.9c0.3,9-4.5,14.4-10.4,19.3
			c-2.4-0.5-7.8-4.4-10-6c-3.9-2.9-7.5-8-9.7-12.2c-2.6-4.8-2-4.2-5.8-6.5c1.6-1.1,6.2-0.6,8.2-0.2c2.6,0.6,4.6,1.9,6.4,3.1
			c0.9,0.7,1.9,1.4,2.6,2.1l4.6,4.9C103-426,103.2-425.2,104.1-425.2L104.1-425.2z M-277.7-412.5L-277.7-412.5
			c-1.1-0.5-3.5-2.7-4.2-3.4c-3.9-4.3-6.6-9.3-6.4-15.8c0.3-10.3,6.3-12.8,5.9-23.7c0.3,0.2,0.2,0.1,0.4,0.5c1.3,1.8,3.6,9.4,4,11.3
			c1,4.5,1.3,9.8,1.3,14.5c0,1.2-0.2,3.2,0.2,4c0.8-0.1,1.8-1.6,2.3-2.3c0.6-0.8,1.7-1.8,2.3-2.4c3-3.2,6.9-6.5,11.5-7.6
			c1.9-0.4,6.5-0.8,7.9,0.2c-4,2.3-3.2,1.7-5.9,6.6c-2.9,5.3-4.5,7-8.2,10.9C-268.2-417.8-275.2-413.3-277.7-412.5L-277.7-412.5z
			 M-225.3-285.5L-225.3-285.5c0.5-1.1,0.9-3.7,1.3-5.2c2.5-8.3,2.3-3.2-2.5-13.1c-9.5-19.4-15.6-37.3-17.3-60.3
			c-2.1-28.5,2.9-55.6,14.9-81c0.7-1.6,1.6-2.9,2.2-4.5c-0.1-0.1-7.5-2.1-8.1-2.2c-1.7,1.9-6.8,14.9-8.1,18.5
			c-7.9,21.7-11,45.7-9.3,69c1.5,21.7,7.7,43.5,17.2,62.1C-233.5-299.3-227.1-287.2-225.3-285.5L-225.3-285.5z M-272.2-444.8
			L-272.2-444.8c3,0.1,15.7-4.7,19.1-8.3c1-1,1.7-1.7,2.7-2.7c2.1-2.2,2.6-3.2,6.6-4.3c-1-1.3-4.5-1.9-6-2
			c-7.6-0.6-16.1,6.3-17.8,6.5c-0.1-3,4.8-8.9,2.8-28.1c-1.8,3.2,0.3,2.4-5.1,9.2c-2.2,2.8-3.9,5-5.7,8.6
			C-279.7-458.3-276.8-450-272.2-444.8L-272.2-444.8z M95.3-455.9L95.3-455.9c-1,0.1-1.9-0.8-2.6-1.2c-4.3-2.6-9.9-5.5-15.1-5.2
			c-1.9,0.1-5,0.9-6.1,2c2.4,1.3,3,0.3,6.6,4.3c1.6,1.8,3.5,3.8,5.7,5.2c3.1,2,11.5,5.4,15.9,6c2-1.7,4.3-6.5,5.1-9.3
			c1.1-4.1,0.3-8.4-1.4-11.9c-3.2-6.6-6.8-9.4-8.8-12.9c-1.1-1.9-1.3-3-2-5.2c-1.3,5.4-0.6,16,1,21.9
			C94-460.8,95.3-456.8,95.3-455.9L95.3-455.9z M80.2-480.2L80.2-480.2c-0.3-1.6-1.3-3.6-1.7-5.3c-1.6-5.7-2.2-12.6-1-18.5
			c2.6,8.3,6.1,7.9,9.1,14.5c1.4,3,2,6.5,1.2,10.1c-1,4.4-2.4,5.2-4,7.7c-4.1,0.1-10.8-2.8-13.6-4.7c-3.2-2.2-5.4-5.2-7.3-6.5
			c-1.1-0.7-2.2-0.8-3.1-1.3C68.9-490.1,77.8-480.8,80.2-480.2L80.2-480.2z M-256.1-471.7L-256.1-471.7c-3.9-5.3-6.1-10.7-2.9-17.7
			c1.5-3.2,3-4.5,4.9-7c4.9-6.2,2.5-4.3,4.2-7.6c0.8,2,0.6,10.6,0.2,13c-0.6,4.3-2.1,7.2-3,10.7c1,0.1,1.6-0.7,2.3-1.2
			c6.6-4.4,11-6.3,18.2-2.9c-0.2,0.2-0.1,0.1-0.5,0.3c-0.1,0-0.3,0.1-0.4,0.1c-5.3,2.1-4.6,4.1-9.6,7.5
			C-245.6-474.4-251.7-472.1-256.1-471.7L-256.1-471.7z M-105.5-494.1L-105.5-494.1c0.5-4.2-1.2-6.1-4-9.4c-0.8-1-1.4-1.5-2.1-2.6
			c1.6,0.4,3.7,1.4,5.2,2.1c2.8,1.2,7,3.1,9.5,4.6c0.8,0.4,1.5,1,2.2,1.4c0.4,0.3,0.7,0.4,1,0.7l0.9,0.9l-8.4-1
			C-102.1-496.6-104.1-494.5-105.5-494.1L-105.5-494.1z M-68.1-489.1L-68.1-489.1c-0.3-2.9-0.5-5.9-0.9-8.7c-0.3-2.1-0.6-2.1-1.8-3
			c-1.1-0.8-2-1.2-3.7-0.9l-11.7,2.6c-2.2,0.6-1.6,0.6-3.3-0.4c-3.9-2.2-8-4.6-12.1-6.7l-11.7-6.1c-0.9-0.6-0.1,0-0.6-0.5
			c1.9,0.4,4.2,1.3,6,2l11.2,4.1c1.6,0.6,4.1,1.8,5.4,2.2c1.8,0.4,21.3-3.9,26.3-3.9c1.6,1.2,3.4,4.9,3,8c-0.4,2.8-1.6,6-2.3,8.7
			c-1.3,5.1-1.2,10.3-3.2,13.5l-1.8,2.5c-0.6,0.6-0.2,0.2-0.9,0.5c0-3.8,0-8.9-2.5-11c-3,1.1-8.8,4.8-11.1,6.5
			c-11.4,8.4-9.5,12.3,4.6,15.7c3,0.7,8.2,2.3,11,0.6c1.4-0.9,1.2-0.9,2.2-2.1c0.5,0.8,0.5,3.6,0.5,4.5c0,9.7-5.3,16.8-10.7,20.3
			c-7,4.5-8.9,1.8-12.4,10.9c-0.4,0.9-1.7,4.9-2.1,5.4c-0.2-0.8-0.4-3.8-0.6-5c-0.2-1.6-0.5-3.1-0.8-4.6c-0.6-2.9-1.5-5.7-2.8-8.2
			c-3.9-8.2-10.9-8.1-12.6-9.2c2.7-1.5,11.5-2.9,15.1-2.9c8.1,0,11.9,4,13.7,3.5c3.4-1,7.6-5.2,8.2-9.2c-6.6,0-23.2-0.1-25.7-7.3
			c-2.8-7.9,13.9-17.3,20.3-20.4C-72.7-489.4-72.1-490-68.1-489.1L-68.1-489.1z M61.6-501.3L61.6-501.3c-2.6-0.6-8.6-6.9-17-1.5
			c2.9,0.3,3.2,0.8,4.9,2.3c1.1,0.9,2.8,2.2,4.2,3c2.8,1.6,7.8,3,11.5,2.7c2.8-4.1,3.3-10.4,0.7-14.8c-3.4-5.8-6.1-5.7-8.1-9.7
			l-0.5-0.8c-0.3,5.8,0.3,9.8,2.5,14.8C60.2-504.3,61.5-502.3,61.6-501.3L61.6-501.3z M-237.7-494.8L-237.7-494.8
			c3.9,0.2,8.7-1,11.6-2.7c4.2-2.4,5.2-5.2,9-5.3c-1.1-1.7-6.6-2.5-8.9-2c-3.9,0.8-6.9,3.3-8.1,3.4c0.1-0.7,2.5-4.8,3.4-8.1
			c0.9-3.4,1.2-7.2,1-10.9c-0.6,1-1,2.3-1.7,3l-2.4,2.3C-241.3-508.2-241.2-503.2-237.7-494.8L-237.7-494.8z M47.5-511.2L47.5-511.2
			c-3.8-2.6-7.3-9.9-7.6-13.7c2.9,0.3,17.5,8.3,13,14.2C51.8-509.2,48.7-510.3,47.5-511.2L47.5-511.2z M-26.6-450.7L-26.6-450.7
			c0.8-2.1,1.1-4.4,1.8-6.5l1.9,3.1c0.6,1.1,1.1,2.2,1.5,3.5c5.3,14.5-0.7,20.5-1,24.8c1.7-0.5,4.1-3.1,5.1-4.2
			c1.7-1.8,2.6-3.3,3.8-5.5c1.4,3.1,1.2,15.7-1,20.7c-1.1,2.6-3.4,5-5.7,6.2c-3.6,1.9-6.2,1.3-10,0.5c-3,3.7-9.4,10.4-10,17.6
			c-0.4,5,2.5,7,4.8,9.1c7.3,6.7,17.8,11.2,27.8,14.1c8.6,2.5,24.5,5.3,31.2,10.5c13.4,10.3,13.5,31.6,4.8,45.6
			c-3.5,5.7-8.6,10-14.2,13.6c-1.5,0.9-3.1,1.6-4.6,2.6c-0.2,1.7,0.5,6.4,0.6,8.6c0.2,4.4,0.8,4.1,2.7,6.5l7.5,8.7
			c0.6,0.6,0.5,0.8,1.2,1.2c1.7-1.3,5.7-6.2,7.3-7.8c1.3-1.3,2.3-2.7,3.5-4.2c15.5-19.3,26.3-41.8,31-67.6
			c6.6-36.4-0.8-72.8-16.3-100.4C41-460.2,35.4-468.2,28-476.7l-3.7-3.9C14.2-491.8,0.9-502-14.3-510.4
			c-21.3-11.8-47.5-18.2-72.9-18c-5,0-24.3,1.1-27.7,2.9c0.1,1.5,0.4,3.2,0.6,4.8c0.1,1.6,0.1,3.4,0.3,5c1,0.6,4.6,1.4,6,1.8
			c2,0.6,3.9,1.3,5.9,2c1.9,0.7,10.3,4.4,11.2,4.5c1.7,0.1,19.8-4.2,27.6-4.1c5.6,6.5,3.2,14.6,1.4,22.2c-1.8,7.6-1,11.3-5.6,15.4
			c-0.8,0.7-3.2,2.3-4.6,2.6c-0.2-3-0.7-8.7-1.7-10.9c-3,1.4-6.6,3.7-9.3,5.6c-0.8,0.5-1.3,1-2,1.5c-3.4,2.7-4.3,4.2-1,6.2
			c2.8,1.7,7.5,3.2,11.4,3.5c5.3,0.4,8-2.2,10.5-4.4c1.6,2.5,1.5,12.6,1,15.9c-1.9,12.5-8.1,14.1-16.2,19.5c-4.4,2.9-5,5-7,10.8
			l-3.4,10c-0.2,1,0.7,2.2,1.1,3.3c3.9,9.2,7,16.7,9,26.7c1,5.1-1.9,9-1.9,15.8c0.6,0.4,6.2,5.8,8.7,7.7
			c14.7,11,18.3,10.9,35.3,13.9c13.4,2.4,22.2,10,31.1,18.2c1.5,1.4,2.8,2.7,4.1,4.2c0.7,0.8,1.3,1.2,1.9,2.1c0.8,1,1.3,1.3,1.9,2.4
			c1.7-0.3,5.8-4,6.9-5c1.6-1.4,3.9-4.2,5.1-6.8c7.3-16.6-28.5-18.3-44-25.7c-7.9-3.8-14.2-9.5-19-16.5c-6.1-8.9-4.4-19.1-0.1-27.9
			c1.4-2.9,3-4.9,4.7-7.2l2.7-3.2c0.8-0.9,2.3-2.3,2.8-3.2c-2.1-3.3-4.7-6.3-4.5-11.9c0.4-10.3,10.3-11.3,14.8-18.2
			C-28.2-446.8-27.3-448.7-26.6-450.7L-26.6-450.7z M-212.3-524.8L-212.3-524.8c-0.1,2.6-2.9,8.2-4.1,10c-2.2,3.2-7,6.4-8.9,4
			C-229.7-516.6-214.7-525.2-212.3-524.8z M-135.1-500.6L-135.1-500.6c-0.9,7.8-5.2,12.6-11.6,16.5c-2,1.2-4.2,1.9-6.1,3.1
			c2.4-0.1,5.9-0.9,8.4-1.3c9.1-1.4,18.1-2,27.4-1.8c-1.5,3.1-3.5,3.6-5.9,10.7c-1.4,4.2-2,8.8-2.5,13.6c1.2-0.4,3-1.5,4.3-2.1
			c1.3-0.6,3-1.3,4.4-1.7c3.8-1.2,7-1.4,11.2-1.4c-0.6,1.2-2.8,2.9-3.8,4.1c-0.6,0.7-1.1,1.4-1.7,2.1c-12.3,15.6,0.4,19.7-5.4,41.4
			c2-0.4,6.7-4.5,8.2-6.2c7.4-8.3,5.3-14.7,6.5-17.5c1.3,2.4,2.2,11.2,2.2,14.4c0.2,17.3-8.1,29.2-20.2,39.9
			c-0.5,0.4-0.7,0.5-1.2,0.9c-6.6,5.9-14.5,10.3-22.4,14.5c-2.6,1.3-8.6,4.2-11.5,4.9c1-1.1,3.2-2.5,4.4-3.6
			c0.6-0.6,1.5-1.3,2.2-1.8c0.7-0.6,1.3-1.2,2-1.8l2.1-2c3.6-3.1,6.6-6.7,9.6-10.4c2.6-3.1,8-10.2,9.8-13.9
			c-6.5,3.4-14.3,9.4-20.1,14l-7.3,6.3c-2.4,2.1-4.5,4.6-6.7,6.9c-1,1-2.1,2.5-3,3.7c-5.6,7.4-9.9,16.4-11.7,25.7
			c-0.2,0.8-0.1,2.1-0.7,2.7c-0.5-1-1.6-2.2-2.4-3.4c-2.3-3.4-4.3-6.8-6.2-10.5c-5.3-10.7-9.4-22.8-9.5-35.2
			c-0.1-8.6,1.1-11.5,2.8-19.2c-2.7,3.5-5,7.4-7.2,11.8c-2.2,4.6-3.4,9.1-4.6,14.5c-1.1,5-2.1,10.6-3.7,15.3
			c-1.3,3.6-4.3,9.5-7.9,11.1c-0.3-16.5,0.8-34.2,8.1-48.8c1.7-3.4,4.6-8.8,7.1-11.5c-1.6,1-3,2.5-4.5,3.6
			c-2.4,1.8-10.2,9.7-12.1,12.2c-0.6,0.8-1.3,1.5-2,2.3l-12,16.4c-0.8-10.7,0.4-24.1,4.3-32.9c2-4.6,5-8.2,7.7-11.2
			c2.1-2.3,4.9-4.6,7.6-6.4c0.3-0.2,2.5-1.4,2.6-1.8c0-0.1,0.1-0.1,0.2-0.2c-8.8,0.9-15.7,5.2-21.1,11l-3.7,4.2
			c-0.2,0.2-0.5,0.6-0.6,0.8c-0.4,0.5,0,0.2-0.6,0.6c0.7-5.4,5-14,7.6-17.2c1.9-2.3,3.9-4.2,6.4-6c1.3-1,2.3-1.6,3.7-2.5
			c1.2-0.7,2.9-1.4,4-2.2c-6.4,0.1-8.8,2.1-14.1,4.5c0.9-2.4,3-5.7,4.4-7.7c1.4-2.1,3.2-3.7,5.3-5.1l0.8-0.7
			c-3.9,0.7-6.8,1.8-11.3,1.5c-2.7-0.2-8.2-1.6-9.7-2.9c5.2-0.1,10.1-0.9,14.2-2.9c3.4-1.7,7.8-5.1,9.7-7.2
			c-3.2-0.4-6.7,0.3-9.3,1.4c-2.5,1-5.6,3.3-6.9,3.8c3.8-8.3,10.1-14.7,18.7-18l1.7-0.8c-12.6-1.4-20,7-23.6,8.6
			c0.6-2,2.6-4.9,3.7-6.3c2.9-3.9,6-6.7,10.4-9.2c8.8-5.1,23.9-3.7,30.6-8.4c1.5-1,3.8-3.3,4.6-5.2c-8.3,2-12.3,3.6-19.2-3.4
			c2.9-0.6,4.1-0.5,6.6-2c3.4-2.1,5.7-5.7,8.2-8.7l3.9-4.4c-1.4-2-3.3-2.9-5.2-6.5c-3.9-7.2-2.1-11.6,6.2-13.8
			c3.8-1,6.9-0.6,9.2-2.2c5.9-3.9,10.3-1,14.9-2.3c4.1-1.2,11.5-2.4,14.8,0.1c2.8,2.1,2.5,4.8,2.6,8.8c7,1,10,2,14,5.5
			c1.3-2.2,0.7-6.6,1-9.2c1.6,1.8,4.2,7.5,4.9,10.4c0.6,2.1,0.8,4.6,0.8,6.9c-0.2,5.5-1.1,1.5,0.9,6.2c-4-1.2-10.4-4.8-14.4-0.9
			C-135-512.9-134.6-505.7-135.1-500.6L-135.1-500.6z M-120.1-540.1L-120.1-540.1c20.9-3.9,40.3-4.7,61.7-1.2
			c26.5,4.4,50.5,15,70.8,29.9l7.2,5.6c0.7,0.5,1.6,1.3,2.2,1.8c0.5,0.5,0.7,0.6,1.2,1l5.5,5c2.8,2.6,5.7,5.8,8.3,8.6
			c3.6,3.9,6.1,6.9,9.5,11.2c4.6,5.9,9.5,13.4,13.2,20.1c17,30.8,26,70.2,18.3,110.9c-3.5,18.6-9.4,35-17.5,49.6
			c-4.4,8-14,22.8-20.6,29.7c-1.3,1.3-2.6,3.1-3.9,4.4l-4.1,4.2c-0.9-0.7-2.1-2-2.9-2.9c-0.9-0.9-2.4-1.9-2.8-3
			c1.4-1.3,2.7-2.6,4-4.1c0.6-0.7,1.3-1.3,2-2.1c9.1-10.9,13.7-16.6,21.2-30.2c17.2-31.2,22.9-69.2,16.3-104.9
			c-1.7-8.9-4-16.7-6.8-24.8c-6.1-17.6-18.6-38.1-31.4-52c-2.7-2.9-9.5-9.8-12-11.8c-0.7-0.6-1.3-1.2-2-1.8c-3-2.3-5-4.3-8.7-7
			c-6.6-4.7-11.8-8.5-19.3-12.4c-7.2-3.7-13.7-6.8-21.9-9.8c-7.7-2.8-16.4-5.1-25-6.7c-9.4-1.7-19.3-2.6-29.2-2.6
			c-13.3,0.1-17,1.2-29.2,2.8c-0.4-1.2-1.3-2.8-2-3.9C-118.5-537.4-119.7-539-120.1-540.1L-120.1-540.1z M-165.7-554.7L-165.7-554.7
			l-0.6-3.4l3-0.5l-0.2-2.5l-3.2,0.4l-0.4-2.9l-2.4,0.4c0,1.2,0.4,2,0.2,3l-2.9,0.5l0.3,2.5l3.1-0.4l0.6,3.4
			c-4.9,2.3-2.7,9.6,2.7,8.8C-160.6-546.1-160-553.5-165.7-554.7L-165.7-554.7z M-45.8-571.7L-45.8-571.7l1.2,9.2l8.9,2l-8.2,3.7
			l1,9.2c-0.1,0-0.1-0.1-0.2-0.1l-5.9-6.5l-8.7,3.9l4.6-8.3c-0.9-1.2-4.9-5.8-5.2-6.6l8,1.7L-45.8-571.7L-45.8-571.7z M-117.5-562.5
			L-117.5-562.5c0.3-1.7,0.8-8.2,1.4-9.2l4.2,8.2l8.1-1.7c-0.3,0.6-2,2.6-2.6,3.3c-0.6,0.6-0.7,0.9-1.4,1.7c-0.4,0.5-1,1.1-1.4,1.7
			l4.6,8.3l-8.7-4l-6.1,6.6l1-9.1l-8-3.9L-117.5-562.5L-117.5-562.5z M-79.8-581L-79.8-581c0.5,0.7,1.5,4.5,1.9,5.6
			c0.2,0.7,1.3,5.3,2.1,5.5l10.7,0c-0.6,0.7-1.4,1.2-2.2,1.8l-6.5,4.9c0,1.8,3.1,9.7,3.7,12.2c-1.6-0.8-3.4-2.4-5.1-3.6
			c-1.7-1.2-3.4-2.5-5.1-3.6c-1.3,0.8-3.4,2.4-4.7,3.5c-1.1,0.8-3.9,3.2-4.9,3.5l3.8-11.5c-0.5-0.3-9.4-6.5-9.9-7.3l12.5,0
			L-79.8-581L-79.8-581z M79.9-192L79.9-192c0.9-0.9,1.8-1.8,2.7-2.8l7.8-8.6c2.1-2.2,7.6-9.2,9.7-12c5.3-7,12.9-18.6,17.1-26.4
			c6.2-11.6,9-17.3,13.9-29.7c13.7-34.3,18.3-76.3,13.5-113.3c-3.7-28.4-12.9-57.4-26.7-82.1c-2.6-4.7-5.2-9.3-8.1-13.6
			c-5.8-8.6-11.6-17.1-18.4-25l-7.7-8.7c-0.5-0.5-1-0.9-1.5-1.4C79-519,71-526.9,67.1-530.2l-15-12.1
			C12.4-571.4-35.2-588.1-86.7-588c-59.1,0.2-106.3,20.7-144.9,50.8c-3.5,2.7-6.4,5.5-8.9,7.5l-8.5,7.7c-3.5,3.3-5.1,5.4-7.9,8.3
			l-2.6,2.8c-2.4,2.4-7.8,8.9-9.9,11.7c-0.8,1.1-1.6,2-2.4,3.1c-0.8,1.1-1.6,2.1-2.3,3.1c-9,12-17.6,26.8-24.1,40.9
			c-35.1,77.1-25.9,168.6,25.5,236.6c1.5,2,10,12.7,12.2,14.9c0.6,0.6,0.8,0.9,1.3,1.5c0.4,0.5,0.8,0.8,1.3,1.3
			c0.9,0.9,1.6,2,2.6,2.9c1.1,1,1.7,1.6,2.6,2.6c-1.4,1.7-5.3,4.1-7.6,5.5c-9.4,5.7-18.7,8.5-30.3,8.7c-0.1,2.3,2.6,9.9,3.5,12
			c1.8,3.9,3.8,7,6.1,9.4c3.7,3.7,9,7.1,14.3,9.3c1,0.4,4.9,1.6,5.4,2.1c-0.4,0.2-4.9,0.8-6,1.1c-5,1.1-10.6,3.2-14.5,6.1
			c-5.2,4-9.1,8.9-9.1,18.5c0,9.3,0,18.6,0,27.9c0,6.4-0.3,22.5,0,27.6c4,0.2,8.7,0,12.8,0l89.5-0.1c33.9,0,68.2-0.5,102.1-0.2
			c34,0.3,68.2,0.2,102.1,0.2c34.1,0,68.2,0.1,102.4,0.1c0.4-4.2,0-9.7,0-14l0-41.4c0-9.2-4-14.9-9.1-18.5c-4.3-3-9.1-4.9-14.6-6.1
			c-1.3-0.3-5.1-0.7-5.9-1l0.8-0.4c0.2-0.1,0.5-0.2,0.7-0.2c0.5-0.2,0.9-0.3,1.4-0.5c6.3-2.3,12.1-5.8,16.6-10.3
			c5.4-5.4,8.8-13.9,9.8-21.2c-12.4-0.7-20.4-2.7-30.5-8.8L79.9-192L79.9-192z"/>
		<path class="st1" d="M-115-525.6c0.1,1.5,0.4,3.2,0.6,4.8c0.1,1.6,0.1,3.4,0.3,5c1,0.6,4.6,1.4,6,1.8c2,0.6,3.9,1.3,5.9,2
			c1.9,0.7,10.3,4.4,11.2,4.5c1.7,0.1,19.8-4.2,27.6-4.1c5.6,6.5,3.2,14.6,1.4,22.2c-1.8,7.6-1,11.3-5.6,15.4
			c-0.8,0.7-3.2,2.3-4.6,2.6c-0.2-3-0.7-8.7-1.7-10.9c-3,1.4-6.6,3.7-9.3,5.6c-0.8,0.5-1.3,1-2,1.5c-3.4,2.7-4.3,4.2-1,6.2
			c2.8,1.7,7.5,3.2,11.4,3.5c5.3,0.4,8-2.2,10.5-4.4c1.6,2.5,1.5,12.6,1,15.9c-1.9,12.5-8.1,14.1-16.2,19.5c-4.4,2.9-5,5-7,10.8
			l-3.4,10c-0.2,1,0.7,2.2,1.1,3.3c3.9,9.2,7,16.7,9,26.7c1,5.1-1.9,9-1.9,15.8c0.6,0.4,6.2,5.8,8.7,7.7
			c14.7,11,18.3,10.9,35.3,13.9c13.4,2.4,22.2,10,31.1,18.2c1.5,1.4,2.8,2.7,4.1,4.2c0.7,0.8,1.3,1.2,1.9,2.1c0.8,1,1.3,1.3,1.9,2.4
			c1.7-0.3,5.8-4,6.9-5c1.6-1.4,3.9-4.2,5.1-6.8c7.3-16.6-28.5-18.3-44-25.7c-7.9-3.8-14.2-9.5-19-16.5c-6.1-8.9-4.4-19.1-0.1-27.9
			c1.4-2.9,3-4.9,4.7-7.2l2.7-3.2c0.8-0.9,2.3-2.3,2.8-3.2c-2.1-3.3-4.7-6.3-4.5-11.9c0.4-10.3,10.3-11.3,14.8-18.2
			c1-1.6,1.9-3.5,2.6-5.5c0.8-2.1,1.1-4.4,1.8-6.5l1.9,3.1c0.6,1.1,1.1,2.2,1.5,3.5c5.3,14.5-0.7,20.5-1,24.8
			c1.7-0.5,4.1-3.1,5.1-4.2c1.7-1.8,2.6-3.3,3.8-5.5c1.4,3.1,1.2,15.7-1,20.7c-1.1,2.6-3.4,5-5.7,6.2c-3.6,1.9-6.2,1.3-10,0.5
			c-3,3.7-9.4,10.4-10,17.6c-0.4,5,2.5,7,4.8,9.1c7.3,6.7,17.8,11.2,27.8,14.1c8.6,2.5,24.5,5.3,31.2,10.5
			c13.4,10.3,13.5,31.6,4.8,45.6c-3.5,5.7-8.6,10-14.2,13.6c-1.5,0.9-3.1,1.6-4.6,2.6c-0.2,1.7,0.5,6.4,0.6,8.6
			c0.2,4.4,0.8,4.1,2.7,6.5l7.5,8.7c0.6,0.6,0.5,0.8,1.2,1.2c1.7-1.3,5.7-6.2,7.3-7.8c1.3-1.3,2.3-2.7,3.5-4.2
			c15.5-19.3,26.3-41.8,31-67.6c6.6-36.4-0.8-72.8-16.3-100.4C41-460.2,35.4-468.2,28-476.7l-3.7-3.9C14.2-491.8,0.9-502-14.3-510.4
			c-21.3-11.8-47.5-18.2-72.9-18C-92.2-528.4-111.5-527.3-115-525.6L-115-525.6z"/>
		<path class="st2" d="M-170.1-526.4c-1.2-1.5-2.2-5.5-1.8-7.9c0.4-2.4,2.3-5.5,3.8-6.1c0.5,8.7,0.5,5.7,1.7,13L-170.1-526.4z
			 M-177.5-522.5L-177.5-522.5c-1.6-1.1-5.7-5.5-5.8-9c-0.1-3.8,5.4-5.9,8.4-6.4c-2.6,7.2-1.8,7.6-0.5,14.1
			C-175.3-523.9-177.5-522.5-177.5-522.5z M-159.9-528.5L-159.9-528.5c0-5.6-1.2-7.9-2.5-12.6c2.4,0.3,5,2.6,6,4
			c1.4,2.1,1.6,5.7,0.8,8.3L-159.9-528.5L-159.9-528.5z M-150.4-531.7L-150.4-531.7c0.1-2-0.3-4.3-0.9-6.1c-0.9-2.5-2.3-3.1-2.7-3.8
			c11.8-0.7,10,4.5,6.9,13l-3.4-0.1L-150.4-531.7L-150.4-531.7z M-181.5-519.1L-181.5-519.1l-3.9,4.4c-2.5,3-4.9,6.6-8.2,8.7
			c-2.4,1.5-3.6,1.4-6.6,2c6.8,7.1,10.9,5.5,19.2,3.4c-0.8,1.9-3.1,4.1-4.6,5.2c-6.7,4.7-21.8,3.3-30.6,8.4
			c-4.4,2.5-7.4,5.2-10.4,9.2c-1.1,1.4-3.1,4.4-3.7,6.3c3.6-1.6,11-10,23.6-8.6l-1.7,0.8c-8.6,3.3-14.9,9.6-18.7,18
			c1.3-0.5,4.5-2.8,6.9-3.8c2.6-1.1,6.1-1.9,9.3-1.4c-1.9,2.2-6.3,5.5-9.7,7.2c-4.1,2.1-9,2.9-14.2,2.9c1.5,1.3,7,2.7,9.7,2.9
			c4.5,0.3,7.4-0.8,11.3-1.5l-0.8,0.7c-2.2,1.5-3.9,3.1-5.3,5.1c-1.4,2.1-3.5,5.3-4.4,7.7c5.3-2.4,7.6-4.4,14.1-4.5
			c-1.1,0.9-2.7,1.5-4,2.2c-1.4,0.8-2.4,1.5-3.7,2.5c-2.5,1.8-4.5,3.7-6.4,6c-2.6,3.2-6.9,11.9-7.6,17.2c0.6-0.4,0.2-0.1,0.6-0.6
			c0.2-0.2,0.5-0.6,0.6-0.8l3.7-4.2c5.5-5.8,12.3-10.1,21.1-11c0,0.1-0.1,0.1-0.2,0.2c-0.1,0.4-2.3,1.6-2.6,1.8
			c-2.7,1.8-5.5,4.1-7.6,6.4c-2.7,3-5.6,6.5-7.7,11.2c-3.9,8.8-5.1,22.3-4.3,32.9l12-16.4c0.7-0.8,1.3-1.5,2-2.3
			c1.9-2.5,9.7-10.3,12.1-12.2c1.5-1.2,2.9-2.7,4.5-3.6c-2.5,2.7-5.4,8-7.1,11.5c-7.3,14.6-8.3,32.3-8.1,48.8
			c3.5-1.7,6.6-7.5,7.9-11.1c1.6-4.7,2.6-10.3,3.7-15.3c1.2-5.4,2.4-9.9,4.6-14.5c2.1-4.4,4.4-8.3,7.2-11.8
			c-1.6,7.7-2.8,10.6-2.8,19.2c0.1,12.4,4.2,24.5,9.5,35.2c1.8,3.7,3.9,7.1,6.2,10.5c0.7,1.1,1.8,2.3,2.4,3.4
			c0.5-0.6,0.5-1.9,0.7-2.7c1.8-9.3,6.2-18.3,11.7-25.7c0.9-1.2,2-2.7,3-3.7c2.2-2.3,4.3-4.7,6.7-6.9l7.3-6.3
			c5.8-4.6,13.6-10.7,20.1-14c-1.8,3.7-7.2,10.7-9.8,13.9c-3,3.7-6,7.2-9.6,10.4l-2.1,2c-0.7,0.6-1.3,1.2-2,1.8
			c-0.7,0.6-1.6,1.3-2.2,1.8c-1.3,1.1-3.4,2.5-4.4,3.6c2.9-0.7,8.9-3.6,11.5-4.9c8-4.2,15.9-8.5,22.4-14.5c0.5-0.4,0.7-0.5,1.2-0.9
			c12.1-10.7,20.4-22.5,20.2-39.9c0-3.2-0.9-12-2.2-14.4c-1.2,2.7,1,9.2-6.5,17.5c-1.5,1.7-6.2,5.8-8.2,6.2
			c5.7-21.7-6.9-25.8,5.4-41.4c0.6-0.7,1.1-1.4,1.7-2.1c1-1.2,3.2-2.9,3.8-4.1c-4.2,0-7.4,0.2-11.2,1.4c-1.4,0.4-3.1,1.1-4.4,1.7
			c-1.3,0.6-3.1,1.7-4.3,2.1c0.5-4.8,1.2-9.4,2.5-13.6c2.3-7.2,4.4-7.6,5.9-10.7c-9.3-0.2-18.2,0.5-27.4,1.8c-2.6,0.4-6,1.2-8.4,1.3
			c1.9-1.2,4.2-1.9,6.1-3.1c6.5-3.8,10.8-8.6,11.6-16.5c0.6-5.1,0.1-12.3,3.3-15.3c4.1-3.9,10.4-0.3,14.4,0.9
			c-2.1-4.7-1.1-0.7-0.9-6.2c0.1-2.3-0.2-4.8-0.8-6.9c-0.8-2.8-3.3-8.6-4.9-10.4c-0.3,2.5,0.2,7-1,9.2c-4-3.5-7-4.5-14-5.5
			c-0.1-4,0.2-6.7-2.6-8.8c-3.3-2.5-10.7-1.3-14.8-0.1c-4.6,1.3-9-1.6-14.9,2.3c-2.4,1.6-5.4,1.2-9.2,2.2
			c-8.3,2.2-10.1,6.6-6.2,13.8C-184.8-522-182.8-521.1-181.5-519.1L-181.5-519.1z"/>
		<path class="st2" d="M-34.7-414.8c-0.9,1.1-2.2,1.8-3.3,2.8c-3.2,3.2-6.3,6.4-8.7,10.4c-7.6,13.2-3.4,26.2,7.9,35.2
			c16.7,13.2,45.7,13,54.3,22.2c5,5.4,3.4,13.5-0.7,18.9c-2.3,3-3.4,4.2-6.1,6.5c-0.5,0.4-1.1,0.9-1.7,1.4c-1.7,1.3-3.9,3-5.9,3.8
			l-8.7-8.8c-0.8-0.8-1.5-1.2-2.2-2.1l-7-6.5c-8.3-7.4-12.6-9.6-24.4-11.1c-5.1-0.6-10-1.6-14.5-3.2c-12.1-4.2-22.7-10.9-29.3-21.6
			l-0.5-0.9c0,0-0.1-0.1-0.1-0.1c-0.2-0.3-0.2-0.2-0.4-0.4c0.9,15.9,15,30.1,28.7,36.4c3.3,1.5,20.2,1.7,34.6,11.8
			c6.9,4.8,12.3,11.5,15.6,21.7c1.5,4.6,2.4,10.2,4.1,14.5c3.3,8.4,6,10.1,11.3,16.6c1.4,1.7,2.4,3.7,3.1,6.2
			c1.8,6.5-0.9,10-5.1,12.4C1-246-3.8-246.7-6.9-250.9c-2.7-3.6-3.7-9.3-5.1-13.5c-1.5-4.8-5.1-6.7-9.7-8.9
			c-4.5-2.1-9.8-3.1-15.2-3.6c0.2-0.3,1.3-1.6,1.6-2c4.4-5.1,7.5-11.6,8.4-18.6c0.4-3,0.1-11.8-1.6-13.8c-1.2-1.4-4.4,0.4-5.6,1
			c-7.9,4.2-8.8,4.8-18,2.6c-3.7-0.9-27.3-7.7-28.7-10.2c-2.1-3.7-5.4-12.1-7.1-16.3c-1.5-3.5-3.2-7.5-4.1-11.4
			c-2.6-11.7,3-21,6.9-30.7c1.2-3,1.3-2.9,0.7-6.4c-1.2-6.7-8.8-28.4-11.9-34.5c-0.1,1.8,0.2,4.9,0.3,6.8c0.3,7.3,0.4,14.6-0.1,21.9
			c-0.2,2.4-0.2,4.4-1.1,6.4c-0.9,1.8-1.6,3.4-2.4,5.2c-1.5,3.5-2.9,7.1-4.1,10.9c-1.8,5.7-1.6,7.2-1.2,13c0.3,4.4,0.9,9.1,1.8,13.2
			c2.3,10.1,4.1,13.9,7,23c1.6,4.9,2.4,13.8-1.4,18.3l-6.8,8.2c-5,6.3-11.9,16.6-12.8,24.8c-0.5,4.3-0.4,10-0.5,14.5
			c-0.1,5-0.1,10,0,15c0.1,2.6,0.8,12.9,0.1,14.4c-1.2-1.1-2-2.7-3.1-3.8c-4.2-4.1-10.2-5.8-16.1-3.7c-3.8,1.3-5.6,3.6-7.1,7.2
			c-1.1,2.4-2.8,9.4-2.1,12.3c9.9,0,19.8-0.1,29.7,0c2.7,0,3-0.5,4.4-2.9c0.9-1.7,1.6-3.6,2-5.6c1-4.3,1.1-9.3,1.2-13.8
			c0.4-9.5,0.9-18.5,2-27.8c0.3-2.3,3.8-7.8,5.1-9.9c1.4-2.4,4.6-7.9,7.3-7.8c0.8,0.9,1,2.7,1.1,4.1c0.1,2.7,0,2.5-1.2,4.2
			c-2.3,3.4-7.1,11.3-5.3,15.8c1.4,3.5,3.7,5.5,6,7.6c2.7,2.3,8.2,6.7,9.7,9.4c1.7,3.1-0.9,4.6-3.2,6.4c-4.6,3.5-7.6,8.8-5.6,15
			c0.4,1.3,1.2,2.7,1.8,3.6c1.2,1.6,1,1.9,3.5,1.9c7.3-0.1,14.6,0,21.9,0c2.3,0,4-2.1,6.6-4c2.2-1.6,4.4-2.8,6.6-4.3
			c8.5-6.1,0.1-15.6-4.1-21.2c-1.3-1.7-3.7-4.8-2.8-7.8c0.8-2.5,3.1-5,4.6-6.1c8.2-6.3,18.5-15.4,30.1-10.5c2.8,1.2,4.8,2.6,6.2,4.7
			c3.6,5.1,2.7,6.8,8.5,13.2c9.9,10.9,24.3,10.9,17.1,16.9c-3.3,2.8-5.6,5.2-6.3,10.1c-0.5,3.6-0.1,6.4,1.4,9c9.5,0.3,19.3,0,28.8,0
			c3.6,0,4.8,0.9,7-1.8c4.4-5.2,14.7-9.6,13.5-18.7c-1.6-12.5-11.6-14.7-18.7-21.9c-5.7-5.8-13.2-13.2-18.5-19.3L8-278.9
			c-2.2-2.6-2.1-5.3-2.5-9.3c-0.3-3.6-1.1-6.4-1.7-9.7c3.7-2.4,7-4.1,10.4-7c3.2-2.8,6.2-5.5,8.5-9.1c6-9.3,8.7-22.5,3-32.7
			c-1.4-2.5-2.8-4.1-4.6-5.9c-1.9-1.8-4.2-3-6.5-4.2c-12.8-6.1-27.9-6-42.3-14.2c-5.5-3.1-11.6-8.1-14.9-13.4
			c-2.1-3.4-1.8-7.7,0.1-11.4c1.7-3.4,8.7-14,11.9-16.3c11.1,5.8,16.3-6.3,15.6-17.6c-0.8,0.5-2.6,4.4-6.2,6.2
			c-1.7,0.9-3.9,0.8-4.6-0.7c-0.6-1.5,0.8-3.6,1.4-4.8c3.8-7.1,2.3-13.7,0.4-21.6c-0.1,0.2-0.2,0.2-0.3,0.5c-0.7,1.6-1,3.4-1.7,5
			c-1.6,3.6-4.1,5.5-7,7.8c-4.3,3.3-10,6.1-7.8,13.3C-38.8-417.8-36.5-417.9-34.7-414.8L-34.7-414.8z"/>
		<path class="st0" d="M-260.6-192.7c-12.2-13.7-18.8-22-28.4-37.4c-14.5-23.2-25.1-50.1-30.9-78.9c-10.5-52.2-1.9-105.5,18.6-148.1
			c5-10.4,10.2-19.4,15.8-28.2c3.3-5.2,12-17.2,16.3-22l7.7-8.7c2.5-3,13.8-14.1,16.5-16.3l5.9-5.1c5.6-4.9,12.5-9.9,18.7-14.2
			c34.3-23.7,81.5-41.4,134.2-41.4c55.1,0,108.2,19.1,150.1,53.3c1.1,0.9,2,1.6,3,2.5c1.1,1,1.9,1.7,3,2.5l2.9,2.6
			c0.9,0.9,1.7,1.5,2.8,2.6c0.9,0.9,1.9,1.7,2.9,2.6c1,0.9,1.8,1.9,2.7,2.8c4.9,4.8,7.6,7.8,12.1,12.7c2.9,3.2,8.4,10.2,11,13.6
			c1.5,2,3.1,4.1,4.6,6.4c1.5,2.2,3,4.2,4.4,6.5c5,7.8,7.8,12.6,12.1,20.8c3.8,7.1,7.4,15.2,10.3,22.8c2,5.4,4,10.6,5.7,16.2
			c11.4,37.3,13.7,78.4,6,116.6c-2.4,12-5.6,23.6-9.6,34.5c-2,5.4-4,10.5-6.3,15.6c-2.3,5.1-4.6,9.8-7.2,14.7
			c-7.3,14.3-20.2,33.2-31.3,45.4l-2.5,2.9c-1.1,1.4-2,1.9-2.5,2.9c2.6,1.3,3.9,2.4,7.3,4c8.5,4.1,18.1,6.2,27.8,5.8
			c0.2,2.6-1.2,9.4-1.9,11.9c-1.9,7.3-4.4,12.8-9.6,18c-3.2,3.2-6.9,5.1-7.8,5.9c7.4,3.7,10.5,6.2,14.8,12.1
			c4.6,6.3,4.7,12.9,4.7,22c0,17.9,0.1,35.8,0,53.7l-419.5-0.1c0-17.9,0-35.7,0-53.6c0-13,0.6-17.4,7.7-25.9c2.6-3.1,8-6.6,11.8-8.2
			c-1-1.1-8.7-4.4-13.7-13.9c-2.3-4.3-5.9-16.2-5.5-22c10.3,0.2,19.4-1.6,28.3-6C-265.9-189.5-261.9-191.6-260.6-192.7L-260.6-192.7
			z M-331.7-356.5L-331.7-356.5l0.2,12.9c0,1.4,0.3,1.8,0.2,3.3c0,1.5,0.2,1.7,0.2,3.1c0,1.5,0.2,2.1,0.2,3.3
			c0.1,3.1,0.9,9.5,1.4,12.5l1.9,11.9c0.2,1.1,0.4,1.8,0.5,2.8c0.6,4,2.1,10,3.2,13.9c0.6,1.9,0.9,3.5,1.4,5.5c1,3.5,2,7.1,3.3,10.5
			c0.2,0.6,0.2,0.7,0.4,1.3c0.1,0.5,0.3,0.7,0.5,1.2c0.3,0.8,0.6,1.8,0.9,2.7l3.8,10c0.3,0.8,0.6,1.5,1,2.3l12.5,25.4
			c0.4,0.8,0.9,1.4,1.3,2.1l6.6,10.8c0.5,0.8,0.8,1.3,1.3,2l2.8,4.1c0.5,0.8,1,1.3,1.5,2.1l10.4,13.7c1.5,1.9,3.5,3.7,4.8,5.7
			l-5.4,1.8c-8.1,2.7-17.3,2.8-26,2.8c0,9.3,0.8,18.1,3.8,26.6c1.8,5,6.7,12.5,11.2,15.5c-0.8,1-2.5,1.8-3.5,2.7
			c-0.6,0.5-0.9,0.9-1.6,1.5l-1.2,1.2c-0.2,0.2-0.3,0.3-0.4,0.5c-2.1,2.3-3.8,4.9-5,7.9c-2.2,5.6-3.1,14.5-3.1,22.4v56.7
			c0,0.5,0.2,0.7,0.7,0.7h430.4c0.5,0,0.7-0.2,0.7-0.7v-58.3c0-7.2-1-16.4-3.3-21.3l-2.1-4.1c-0.5-0.7-0.8-1.2-1.3-1.8
			c-0.5-0.7-0.9-1-1.4-1.7c-1.1-1.4-2.6-2.5-4-3.6c-0.8-0.7-2.1-1.3-2.7-2.1c1.9-0.5,7.3-7.7,8.3-9.5c0.2-0.4,0.3-0.6,0.6-1.1
			c0.3-0.5,0.4-0.6,0.7-1.2c1.2-2.4,2.2-5.1,3-7.7c1.4-5,1.8-10.3,2.4-15.5l0.3-7.1c-6.7,0-13.7,0-20.1-1.3l-8.5-2.2
			c-0.7-0.2-0.9-0.3-1.4-0.5c-0.6-0.2-0.9-0.3-1.4-0.5l19.2-25.1c2.3-3.1,4.6-7.2,6.6-10.5c0.9-1.5,1.7-2.9,2.5-4.4
			c0.4-0.7,0.8-1.4,1.2-2.1l2.4-4.5c0.3-0.5,0.4-0.7,0.6-1.1l3-5.8c2.4-4.7,4.3-9.5,6.4-14.3c0.7-1.6,1.3-3.1,1.9-4.8l1.9-5
			c1-2.5,1.6-5.1,2.6-7.6c1.5-3.8,3.5-11.9,4.6-16.1l1.3-5.6c0.2-1.1,0.4-2,0.6-3c1.9-7.7,2.9-15.5,3.8-23.5c0.1-0.8,0.2-2.1,0.3-3
			l1-12.8c0.1-1.1,0-2.5,0-3.6c0-1.2,0.3-1.6,0.3-3.1v-11.2c0-1.6-0.3-2.1-0.2-3.6l-0.3-7.4c-0.1-0.9-0.2-2.4-0.4-3.5l-0.3-3.5
			c-0.4-9.4-3.5-25.6-5.9-35.5c-1.2-5-2.6-9.9-4.2-14.8c-0.2-0.6-0.2-0.8-0.4-1.5l-3.4-9.9c-0.3-1.1-0.7-1.7-1.1-2.8l-2.2-5.5
			c-0.2-0.6-0.4-0.8-0.6-1.3c-1.3-3.5-3-7-4.6-10.4c-3.9-8.2-8.1-15.7-12.7-23.5L115-495c-3.4-4.9-11.7-16.1-15.7-20.3l-27.7-27.3
			l-19.3-14.7c-0.8-0.6-1.5-1-2.3-1.5l-14-8.8c-5.4-3.3-11.9-6.3-17.5-9.2l-5.1-2.3c-2.6-1.3-5.3-2.2-8-3.4l-28.6-9.5
			c-11.3-3.3-23.3-5.2-35-6.6c-0.9-0.1-2.4-0.4-3.4-0.4l-17.9-1.2l-31.7,1.2c-3.4,0.1-16.2,2.1-20,2.8l-6.4,1.3
			c-1,0.2-2,0.5-3.1,0.7l-5.9,1.5c-1,0.2-2,0.4-3.1,0.7c-1.1,0.3-2,0.5-3,0.8l-7.4,2.2c-11,3.2-23.6,8.3-33.9,13.5l-7.6,3.8
			c-0.6,0.3-0.6,0.4-1.2,0.7c-0.5,0.3-0.7,0.3-1.3,0.7c-0.9,0.5-1.6,0.8-2.5,1.3c-0.8,0.4-1.6,1-2.4,1.4l-4.8,2.8
			c-0.8,0.5-1.6,1-2.3,1.5l-6.9,4.5c-0.8,0.5-1.5,1-2.3,1.5l-9.8,7.1c-0.4,0.3-0.6,0.5-1,0.9l-11.5,9.4c-0.5,0.4-0.6,0.4-1.1,0.8
			l-5.9,5.5c-0.4,0.4-0.6,0.6-1,1l-6.9,6.7c0,0-0.1,0.1-0.1,0.1l-11.5,12.6c-0.4,0.5-0.4,0.6-0.8,1.1c-1.8,2-3.4,4.3-5.1,6.3
			c-0.6,0.8-1,1.4-1.7,2.1c-0.6,0.7-1,1.4-1.6,2.2c-0.6,0.8-1.1,1.4-1.6,2.2l-15.5,24.2c-0.3,0.6-0.4,0.6-0.7,1.2
			c-0.3,0.5-0.4,0.7-0.7,1.2c-0.2,0.3-0.2,0.4-0.3,0.6l-8,15.8c-0.2,0.4-0.3,0.7-0.5,1.2c-2.7,5.7-5,11.7-7.1,17.7l-2.9,8.6
			c-0.3,0.9-0.6,1.9-0.9,2.9c-0.3,0.9-0.5,1.9-0.8,3c-0.7,2-1,3.9-1.6,6c-0.6,2-1.1,4.1-1.6,6.1c-2.3,11.3-3.7,17.3-5,29.3
			c-0.7,5.9-1.2,11.9-1.2,17.8c0,1.5-0.3,2-0.2,3.6C-331.7-359.1-331.7-357.8-331.7-356.5L-331.7-356.5z"/>
		<path class="st2" d="M79.9-192l7.4,5.4c10,6.1,18.1,8.1,30.5,8.8c-1,7.4-4.4,15.8-9.8,21.2c-4.5,4.6-10.2,8-16.6,10.3
			c-0.5,0.2-0.9,0.3-1.4,0.5c-0.2,0.1-0.5,0.1-0.7,0.2l-0.8,0.4c0.8,0.3,4.6,0.8,5.9,1c5.4,1.2,10.2,3.1,14.6,6.1
			c5.2,3.6,9.1,9.3,9.1,18.5l0,41.4c0,4.3,0.3,9.9,0,14C83.9-63.9,49.8-64,15.6-64c-33.9,0-68.2,0.2-102.1-0.2
			c-34-0.3-68.2,0.2-102.1,0.2l-89.5,0.1c-4.1,0-8.8,0.2-12.8,0c-0.3-5.1,0-21.2,0-27.6c0-9.3,0-18.6,0-27.9
			c0-9.6,3.8-14.5,9.1-18.5c3.9-2.9,9.5-5,14.5-6.1c1.1-0.2,5.6-0.8,6-1.1c-0.5-0.5-4.4-1.7-5.4-2.1c-5.3-2.2-10.6-5.6-14.3-9.3
			c-2.3-2.4-4.4-5.4-6.1-9.4c-0.9-2-3.6-9.7-3.5-12c11.6-0.3,21-3.1,30.3-8.7c2.2-1.4,6.1-3.8,7.6-5.5c-0.8-1-1.4-1.6-2.6-2.6
			c-1-0.9-1.7-2-2.6-2.9c-0.5-0.5-0.9-0.8-1.3-1.3c-0.5-0.6-0.7-1-1.3-1.5c-2.3-2.2-10.7-13-12.2-14.9
			c-51.5-68-60.7-159.5-25.5-236.6c6.4-14.1,15-28.9,24.1-40.9c0.8-1,1.6-2.1,2.3-3.1c0.8-1.1,1.5-2,2.4-3.1
			c2.2-2.8,7.6-9.4,9.9-11.7l2.6-2.8c2.8-2.8,4.4-5,7.9-8.3l8.5-7.7c2.5-2,5.5-4.8,8.9-7.5c38.6-30.1,85.8-50.6,144.9-50.8
			c51.5-0.2,99.2,16.6,138.8,45.7l15,12.1C71-526.9,79-519,82.3-515.5c0.5,0.5,1,0.9,1.5,1.4l7.7,8.7c6.8,7.9,12.6,16.3,18.4,25
			c2.9,4.3,5.4,8.9,8.1,13.6c13.8,24.6,23,53.7,26.7,82.1c4.8,37,0.2,79-13.5,113.3c-4.9,12.4-7.7,18.1-13.9,29.7
			c-4.2,7.9-11.9,19.5-17.1,26.4c-2.1,2.8-7.6,9.8-9.7,12l-7.8,8.6C81.7-193.8,80.9-192.8,79.9-192L79.9-192z M-260.6-192.7
			L-260.6-192.7c-1.2,1.1-5.3,3.2-7,4c-8.9,4.4-18,6.2-28.3,6c-0.3,5.8,3.3,17.7,5.5,22c5,9.5,12.7,12.8,13.7,13.9
			c-3.8,1.6-9.2,5.1-11.8,8.2c-7.1,8.5-7.7,12.9-7.7,25.9c0,17.9,0,35.7,0,53.6L123.3-59c0.1-17.9,0-35.8,0-53.7
			c0-9.1-0.1-15.7-4.7-22c-4.3-5.9-7.4-8.4-14.8-12.1c0.9-0.8,4.6-2.8,7.8-5.9c5.2-5.2,7.7-10.7,9.6-18c0.7-2.5,2.1-9.3,1.9-11.9
			c-9.8,0.4-19.3-1.7-27.8-5.8c-3.4-1.6-4.8-2.7-7.3-4c0.5-1,1.4-1.5,2.5-2.9l2.5-2.9c11-12.2,24-31.1,31.3-45.4
			c2.5-5,4.8-9.6,7.2-14.7c2.3-5.1,4.3-10.2,6.3-15.6c4-10.8,7.1-22.4,9.6-34.5c7.7-38.2,5.4-79.3-6-116.6
			c-1.7-5.6-3.6-10.9-5.7-16.2c-2.9-7.6-6.5-15.7-10.3-22.8c-4.3-8.2-7.1-13-12.1-20.8c-1.5-2.3-3-4.3-4.4-6.5
			c-1.5-2.3-3.1-4.4-4.6-6.4c-2.5-3.3-8.1-10.4-11-13.6c-4.4-4.9-7.2-7.9-12.1-12.7c-0.9-0.9-1.7-1.9-2.7-2.8
			c-1-0.9-1.9-1.7-2.9-2.6c-1.1-1.1-1.9-1.7-2.8-2.6l-2.9-2.6c-1.1-0.9-1.8-1.6-3-2.5c-1-0.9-1.9-1.6-3-2.5
			C21.9-573.9-31.1-593-86.3-593c-52.7,0-99.9,17.7-134.2,41.4c-6.2,4.3-13.1,9.3-18.7,14.2l-5.9,5.1c-2.8,2.2-14,13.3-16.5,16.3
			l-7.7,8.7c-4.3,4.8-13,16.8-16.3,22c-5.7,8.8-10.9,17.8-15.8,28.2c-20.4,42.6-29,95.9-18.6,148.1c5.8,28.8,16.4,55.7,30.9,78.9
			C-279.4-214.7-272.8-206.4-260.6-192.7L-260.6-192.7z"/>
		<path class="st2" d="M-85.5-175.2l7,0.2l-0.2,6.1l-6.8-0.1L-85.5-175.2L-85.5-175.2z M4-170.1L4-170.1l-6.2-2.3
			c0.7-3.4,4.4-5.2,8.5-4.5c11.9,2,12.4,10.1,7.1,13.2c-3.2,1.8-6.7,2-9.8,3.5l9.3,3.2c-0.3,1.2-1.1,3.8-1.7,4.6l-17.8-5.7
			c0.8-4.5,8-6.8,11.6-8c1.9-0.6,6.1-1.7,5-4.5C9.5-171.5,6.7-174.6,4-170.1L4-170.1z M-180.8-171L-180.8-171l1.1,3.6l8.8-2.6
			l1.2,4.2l-8.6,2.6l2.6,8.5l-6.8,2.2c-1.1-3.5-2.3-6.8-3.5-10.2c-0.6-1.7-3.4-9-3.4-10.1c2.4-1.1,5.9-2,8.5-2.9
			c2.4-0.8,6.8-2.4,9.1-2.7c0.5,1,1.2,3.2,1.2,4.4L-180.8-171L-180.8-171z M-32.3-173.3L-32.3-173.3c-1.8,0.6-2.2,1.4-4.9,1.1
			c-9.3-0.9-9.4-15,1.4-14.6c15.7,0.7,10.9,17,6.3,20.6c-3.8,3-14.1,2.6-15.4-4.9l6.2,0.2c0.5,0.9,0.4,1.9,1.3,2.3
			C-34.5-166.8-32.9-170.8-32.3-173.3L-32.3-173.3z M-10.9-159.3L-10.9-159.3l5.6-21.1l-5.2-1.3c-1.3,0.8-2,1.8-4.1,2.6
			c-1.6,0.6-3.5,0.9-5.5,1l-1,4.8c3.3-0.2,4.5-0.7,7.4-1.4l-3.3,13.9L-10.9-159.3L-10.9-159.3z M-152-183.4L-152-183.4
			c0.9-0.5,6.2-1.5,7.4-1.5c0.5,4,2.8,11.7,2.5,15.3c-0.4,5.2-4.4,7.4-9.3,8.4c-6.2,1.2-9.9,0.1-12.1-4.7c-0.8-1.7-3.6-12-3.8-13.9
			c2-0.4,5.3-1.6,7.2-1.7c3,7.2,1.4,16.6,7.7,15.3c4.1-0.8,3.2-3.9,2.4-7.6C-150.5-176.5-151.7-180.8-152-183.4L-152-183.4z
			 M-116.4-188.9L-116.4-188.9l2,21.2l-6.6,0.7c-0.8-1.2-1.4-1.6-2.4-2.6l-4.9-5.1c-0.9-0.9-1.6-1.8-2.6-2.5l1.7,11.4l-6.5,1
			l-3.6-21.2l6.9-1.1c0.7,0.2,7.5,7.4,9,9l1,1l-0.9-11.3L-116.4-188.9L-116.4-188.9z M-62.4-179.4L-62.4-179.4
			c-0.1-6.2,0.3-4.5,3.7-5.8c2.5-0.9,4.4-2.3,5.2-4c1,0,2,0.2,3,0.3c1.1,0.1,1.9,0.1,2.7,0.5l-2.6,21.4c-1.2,0.2-4.8-0.4-6.3-0.6
			l1.4-14.2c-1.1,0.4-2.1,1-3.3,1.4C-59.8-180-61.2-179.6-62.4-179.4L-62.4-179.4z M-110.9-189.5L-110.9-189.5
			c3.1-0.5,12.7-1.1,15.5-0.4c4.3,1.1,6.6,4.5,6.8,9.6c0.2,5.4-1.8,9.3-5.7,10.7c-2,0.7-12.7,1.7-14.9,1.4L-110.9-189.5z
			 M-185.5-144.3L-185.5-144.3c4.1-1.4,8.5-2.8,12.9-4.1c28.2-8,56.7-14.1,86.8-13.9c33.6,0.2,73.6,8.8,105.4,20.6
			c1.9,0.7,4.1,1.7,6,2.3l0-40.7c-4.2-1.1-8.4-2.5-12.7-3.7c-13.4-3.6-26-6.5-39.8-9c-42.3-7.6-76.6-8.1-118.9-0.1
			c-9.1,1.7-17.9,3.6-26.8,5.8c-4.1,1-22.6,5.8-25.4,7.3l0,40L-185.5-144.3L-185.5-144.3z"/>
		<path class="st2" d="M-148.1-236.5c3-0.6,6.2-2.8,8.2-4.2c2.2-1.7,4-4.6,5.2-7.2c2.6-5.4,4.7-11.8,6.7-17.8
			c2.1-6.4,4.5-11.6,7-17.5c7.9-18.9,2.4-18.2-3.3-25.8c-1.8-2.3-3.4-4.6-5.2-6.9c-1.5-1.9-1-2.1-1-5.1l0-30.5c0-6.3,0-5.2,2.4-9.8
			c1.4-2.7,2.9-5.3,4.4-8c0.8-1.4,1.4-2.6,2.2-4c0.6-1,1.8-3,2.1-3.9c-3,0.8-13.2,6.9-16.2,8.9c-5.4,3.4-11.6,8-15.9,12
			c-0.6,0.5-0.9,1.1-1.5,1.6l-3.1,3.1c-4.9,5.5-12.9,16.2-14.5,22.7c-3.2-1.3-10.8-9.5-13.4-12.9c-1.4-1.8-2.3-3.1-3.5-5.1
			c-3.1-5.1-6.4-11.8-8.8-17.4c-0.5-1.1-2.1-5.2-2.7-5.8c-5.1,14-2.8,30.4,2.9,42.8c1.4,3.1,2.9,5.7,4.4,8.5
			c5.3,10.1,5.3,11.8-0.9,16.9l-5.4,4.4c-0.8,0.6-1.2,0.7-1.8,1.6c12.5-0.4,18.4,6.1,26.9,7.4c-2.6-2.1-2.5-1.8-4.9-4.2
			c-0.8-0.8-3.3-4.1-3.7-5.5c1.7-0.3,4.1-1.4,6-1.9c6.7-1.8,13.3-2.7,20.1-1c5.7,1.4,10.7,4.5,15.1,7.8c1.5,1.1,1.5,1.2,1.6,2.2
			c1.6,15-1.4,29.3-5.6,43.4C-145.6-244-147.1-240.2-148.1-236.5L-148.1-236.5z"/>
		<path class="st2" d="M-120.1-540.1c0.4,1.1,1.6,2.7,2.2,3.8c0.6,1.1,1.6,2.7,2,3.9c12.1-1.6,15.9-2.7,29.2-2.8
			c9.9,0,19.8,0.8,29.2,2.6c8.6,1.6,17.3,3.9,25,6.7c8.2,3,14.7,6.1,21.9,9.8c7.5,3.9,12.7,7.7,19.3,12.4c3.7,2.6,5.7,4.7,8.7,7
			c0.8,0.6,1.3,1.2,2,1.8c2.5,2,9.3,8.9,12,11.8c12.7,13.9,25.2,34.4,31.4,52c2.8,8.1,5.2,15.9,6.8,24.8c6.7,35.7,1,73.8-16.3,104.9
			c-7.5,13.6-12.1,19.2-21.2,30.2c-0.6,0.8-1.3,1.4-2,2.1c-1.3,1.5-2.6,2.7-4,4.1c0.4,1.1,1.9,2.1,2.8,3c0.9,0.9,2,2.3,2.9,2.9
			l4.1-4.2c1.3-1.3,2.6-3.1,3.9-4.4c6.6-6.9,16.1-21.6,20.6-29.7c8-14.6,14-31.1,17.5-49.6c7.7-40.7-1.3-80.1-18.3-110.9
			c-3.7-6.7-8.6-14.2-13.2-20.1c-3.3-4.3-5.9-7.3-9.5-11.2c-2.6-2.8-5.5-6-8.3-8.6l-5.5-5c-0.5-0.4-0.7-0.5-1.2-1
			c-0.6-0.6-1.5-1.3-2.2-1.8l-7.2-5.6c-20.3-14.9-44.3-25.5-70.8-29.9C-79.7-544.8-99.2-544.1-120.1-540.1L-120.1-540.1z"/>
		<path class="st2" d="M-121.1-111.3c0.8,0.6,1.2,1.4,1.9,2.2c0.6,0.8,1.1,1.5,1.7,2.1l17,22.3c3.2,4.2,4.3,7,8.8,6.9
			c2.8-0.1,3.9-1.2,5.2-2.7c1.2-1.5,2.3-3,3.4-4.4l17-22.3c0.6-0.8,2.8-3.8,3.4-4.2c-0.1,3.7-0.3,31.1,0.1,32.5l10,0
			c0.3-1.9,0.1-5.8,0.1-8c0-5.6,0.3-38.5-0.3-40.1c-0.7-1.8-2.7-2.7-5.3-2.8c-3.1-0.1-4.2,0.9-5.6,2.6
			c-8.7,11.1-17.5,23.1-26.2,34.5c-0.7,0.9-1.1,1.5-1.8,2.3c-0.8-0.5-22.3-29.3-24.6-32.4c-1.2-1.6-2.2-3.1-3.5-4.6
			c-3.4-4.3-10.1-2.4-11.1,0.4c-0.6,1.6-0.3,13.2-0.3,15.8c0,2.6-0.2,30.5,0.1,32.3l10,0L-121.1-111.3L-121.1-111.3z"/>
		<path class="st2" d="M58.1-107.3c-0.1-4.6-0.4-9.5,3.5-11.1c2.6-1.1,24.7-1.1,27.5,0c3.9,1.6,3.6,6.3,3.4,11.1L58.1-107.3
			L58.1-107.3z M58.1-96.1L58.1-96.1l34.5,0l0.1,17.3l11,0c0.4-1.7,0.1-7.8,0.1-9.9c0-6.8,0.4-24.1-0.5-28.9
			c-2.4-13.1-15.7-11.1-27.9-11.1c-5.8,0-13.2-0.4-18.5,0.9c-5.5,1.4-8.3,4.3-9.3,10.2c-1,5.5-0.4,30.9-0.5,38.7l11.1,0L58.1-96.1
			L58.1-96.1z"/>
		<path class="st1" d="M-237.6-377c0,22,5,45.2,14.5,64.7c1.2,2.5,2.5,5.3,3.8,7.6c0.4-0.4,4.6-11,5.2-12.5
			c1.7-4.1,3.8-8.1,5.7-12.2l4.3-9.1c0.6-1.2,0-2.2-0.4-3.6c-2.3-9.3-1.2-8.4-1.7-16.1c-0.9,0.9-3,5.8-7.6,7.3
			c-2.3-4-2.9-9.2-2.9-14.5l0-0.2c0-4.9,0.3-9.6,0.8-14.4c0.4-4.4,1.4-9.5,1.6-13.7c-1,0.7-3.2,3.4-4.3,4.7
			c-3.5,4.2-8.8,11.1-11.4,15.7c-1.3-1.9-1.6-14.3-1.6-17.4c0-11.3,1.4-19.4,6.4-29c0.6-1.3,1.4-2.3,1.8-3.5c-2.4,1.3-7,7-9.3,9.4
			c-1.1,1.1-2,7.4-2.4,9.1C-236.7-395.7-237.6-386.4-237.6-377L-237.6-377z"/>
		<path class="st2" d="M-265.7-94.8c-0.2-5.1-0.1-11,0-16.2c0.1-6.7,1.9-7.9,8.5-8c5.5,0,11,0,16.4,0c6.1,0,9.4,0.3,9.8,6.8
			c0.3,5,0.1,11.2,0,16.2c-0.1,6.7-2.2,7.7-8.6,7.8c-5.5,0-11,0-16.4,0C-262.1-88.3-265.4-88.3-265.7-94.8L-265.7-94.8z
			 M-276.7-92.5L-276.7-92.5c1.3,15.2,13,13.7,26.4,13.7c12.6,0,26.9,2.1,29.8-10.1c0.9-4,0.9-21.4,0.5-25.9
			c-0.7-8.9-4.5-12.6-13.3-13.5c-3.9-0.4-21.7-0.4-26.4-0.3c-3.8,0.1-8,0.6-11,2.2c-2.9,1.6-4.6,3.9-5.5,7.8
			C-277.1-114.3-277.1-97.1-276.7-92.5L-276.7-92.5z"/>
		<path class="st2" d="M-32.2-102l0-16.9c7.4-0.2,15,0,22.4,0c10.8,0,13.9-0.9,13.9,8.4c0,9.3-2.2,8.6-13.7,8.6
			C-16.8-102-25.1-101.6-32.2-102L-32.2-102z M-32.2-92.9L-32.2-92.9c9.9-0.8,25.2,0.7,35.1-0.4c5.8-0.6,9.4-2.3,11.1-6.7
			c1.4-3.5,1.4-12.3,1-16.4C13.5-129,3.8-128.6-8.2-128.6c-3.4,0-32.6-0.2-35.2,0l0.1,49.8l11,0L-32.2-92.9L-32.2-92.9z"/>
		<path class="st2" d="M73.7-308.7c1.4,3.2,1.3,5.7-0.1,8.7c-3.4,7.6-6.6,15.3-7.5,23.9c-0.6,6.3-0.1,13.4,1,19.5
			c0.7,4-0.2,4.1,4.9,5.5c9.1,2.6,18.1,1.9,25.7-3.1c2.4-1.6,6.8-5,8.5-7.2c0.7-1,1.5-1.9,2.3-2.9c7.6-9.6,5.4-14.4,16.4-24.3
			c0.2-0.2,0.2-0.2,0.4-0.4l0.2-0.3c-12.7,1.4-23.7,9-33.7,15.6c-1.7,1.1-3.1,2.2-4.9,3.4c-1.6,1.1-3.1,2.4-4.8,3.4
			c1.4-8.5,3.5-15.3,2-24.8C83.2-298.2,78.9-305.8,73.7-308.7L73.7-308.7z"/>
		<path class="st2" d="M-240.4-252.5c2.5-9.1,2.8-21.5,0.6-30.7c-1-4.3-2.7-8.8-4.4-12.5c-0.8-1.9-1.9-4.1-2.6-6
			c-1.1-3,0.2-4.7,0.6-7c-1.3,0.8-2.8,2.2-3.7,3.2c-7.2,7.9-8.1,16.7-6.9,27.4c0.4,3.6,1.9,10.7,2,11.5c-1.3-1.1-3-2.3-4.6-3.4
			c-11.3-8-24.4-17.2-38.7-19.1c0.3,0.5,0,0.2,0.5,0.6c0.2,0.2,0.1,0.1,0.4,0.3c1.5,1.1,4.3,4.2,5.4,5.6c2.3,3,6.2,11.5,9,16
			C-274.3-253.4-258.9-244.6-240.4-252.5L-240.4-252.5z"/>
		<path class="st2" d="M-225.3-285.5c0.5-1.1,0.9-3.7,1.3-5.2c2.5-8.3,2.3-3.2-2.5-13.1c-9.5-19.4-15.6-37.3-17.3-60.3
			c-2.1-28.5,2.9-55.6,14.9-81c0.7-1.6,1.6-2.9,2.2-4.5c-0.1-0.1-7.5-2.1-8.1-2.2c-1.7,1.9-6.8,14.9-8.1,18.5
			c-7.9,21.7-11,45.7-9.3,69c1.5,21.7,7.7,43.5,17.2,62.1C-233.5-299.3-227.1-287.2-225.3-285.5L-225.3-285.5z"/>
		<path class="st2" d="M84-341.1c0.7,2.6,1.9,4.1,1.7,7.5c-0.2,2.4-0.9,5.3-1.1,7.9c-1,10.6,1,20.7,5.6,30c1.7,3.4,1.1,3.6,5.6,3.4
			c12.2-0.4,22.4-7,27.1-17.6c3.5-7.8,3.8-16.2,6.1-21.1c1.1-2.3,2.7-4.4,3.3-5.6c-2.6,0.8-7.9,4.1-9.8,5.5
			c-5.9,4.3-10.4,9.5-15.1,15.2l-6.5,8.4c-0.4-7.5-1-15.3-3.8-21.4c-2-4.4-2.8-4.7-5.2-7.4C90.2-338,86.8-340.5,84-341.1L84-341.1z"
			/>
		<path class="st2" d="M-264.4-292.4c1.4-1.3,3.9-7.6,4.8-10.2c5.9-16.7,1.2-28.8,1.7-33.1c0.3-2.4,1.2-3.8,1.6-5.6
			c-5.8,1.9-10.4,6.6-12.9,12.2c-2.7,6-3.7,14.2-3.8,21.5l-13.8-16.5c-4.4-4.8-11.7-10.4-17.7-12.6c1.1,2.2,2.7,3.9,3.8,6.8
			c3.3,8.6,2.5,25.8,18.8,34.1C-277-293.3-270.9-291.9-264.4-292.4L-264.4-292.4z"/>
		<path class="st2" d="M-68.1-489.1c-4-0.9-4.6-0.3-8,1.3c-6.4,3.1-23,12.5-20.3,20.4c2.5,7.2,19.1,7.3,25.7,7.3
			c-0.6,4-4.8,8.2-8.2,9.2c-1.8,0.5-5.6-3.5-13.7-3.5c-3.6,0-12.4,1.4-15.1,2.9c1.8,1.1,8.7,1,12.6,9.2c1.2,2.5,2.1,5.3,2.8,8.2
			c0.3,1.5,0.6,3,0.8,4.6c0.2,1.2,0.3,4.2,0.6,5c0.4-0.5,1.8-4.4,2.1-5.4c3.5-9.1,5.4-6.4,12.4-10.9c5.5-3.5,10.8-10.6,10.7-20.3
			c0-0.9,0-3.7-0.5-4.5c-1,1.2-0.8,1.2-2.2,2.1c-2.8,1.7-8,0.2-11-0.6c-14.1-3.4-16-7.4-4.6-15.7c2.3-1.7,8.2-5.4,11.1-6.5
			c2.5,2.2,2.6,7.2,2.5,11c0.7-0.3,0.3,0,0.9-0.5l1.8-2.5c2-3.1,1.9-8.4,3.2-13.5c0.7-2.7,1.9-5.9,2.3-8.7c0.4-3.1-1.3-6.8-3-8
			c-4.9,0-24.5,4.3-26.3,3.9c-1.4-0.3-3.8-1.6-5.4-2.2l-11.2-4.1c-1.8-0.6-4.2-1.6-6-2c0.4,0.5-0.3-0.1,0.6,0.5l11.7,6.1
			c4.1,2.1,8.2,4.5,12.1,6.7c1.8,1,1.1,1,3.3,0.4l11.7-2.6c1.7-0.3,2.6,0.1,3.7,0.9c1.3,0.9,1.6,0.9,1.8,3
			C-68.6-495-68.4-492-68.1-489.1L-68.1-489.1z"/>
		<path class="st2" d="M-207.8-161c0.5-1.3,0.4-18,0.5-22c0-2.9-0.3-2.9,1.1-3.1c7.7-1.3,13.9-2.6,21.4-5.1c2.6-0.9,11-3.5,11-6.6
			c-3.1-2.8-11.7-0.7-15.8,0.1c-15.3,2.9-26.2,5.8-41.7,2.7c-2.7-0.5-5.1-1.4-7.6-1.9c2,8.2,8.1,13.8,13.7,18.7
			c-0.6,9.1-10,11.2-13,13.1c1.7,1.5,10.9,3.3,13.9,3.7C-219.2-160.8-213.2-160.7-207.8-161L-207.8-161z"/>
		<path class="st2" d="M63.8-166.6c-5.4-2.3-9.9-5.4-10.8-12.1c0.5-0.6,4.3-3.7,6.3-6.1c3.5-4.2,5.2-6,7.4-12.7
			c-1.4,0.1-5.6,1.5-7.6,1.9c-15.3,3.2-26.8,0.2-41.9-2.6c-3-0.6-14.3-3.3-15.7,0.2c0.8,2.1,2.8,2.9,4.9,3.9
			c5.7,2.7,14.1,4.9,20.3,6.1c9.8,2,8.2,0.1,8.3,5c0,1.4,0,2.9,0.1,4.3c0.1,5.6-0.1,11.7,0.2,17.1c12.4,0.5,20.1-0.3,30.8-4
			C65.6-166,64.7-166.2,63.8-166.6L63.8-166.6z"/>
		<path class="st0" d="M-265.7-94.8c0.3,6.6,3.6,6.6,9.7,6.6c5.5,0,11,0,16.4,0c6.4-0.1,8.5-1.1,8.6-7.8c0.1-5,0.3-11.2,0-16.2
			c-0.4-6.4-3.7-6.8-9.8-6.8c-5.5,0-11,0-16.4,0c-6.7,0-8.5,1.3-8.5,8C-265.8-105.8-265.9-100-265.7-94.8L-265.7-94.8z"/>
		<path class="st2" d="M-210.7-78.7l49.8-0.1l0-10.8c-1.7-0.6-34-0.2-38.8-0.2l0-38.7l-11.1,0L-210.7-78.7z"/>
		<path class="st2" d="M109.2-350.1c-0.5-0.3-0.5,0.2-0.8-2c-0.9-5.6-2.4-10.7-5.6-15.4c-2.6-3.8-7.8-8.5-14.1-9.9
			c2.5,5.4,3,2.7,3.1,11.1c0.1,9.3,2,14.6,6.2,22.4c1.1,2.1,4.3,7.4,5.7,8.8c4.8-0.1,10.4-2.8,13.7-4.9c15-9.5,11-27.4,12.4-34.1
			c0.6-3,1.7-4.6,2.5-7c-0.8,0.3-1.2,0.8-1.9,1.4c-0.7,0.5-1.1,1-1.8,1.5l-3.4,3.2c-2.3,2.3-4.3,4.4-6.3,7.3
			c-2.7,3.8-5.4,8.3-7.4,12.8c-0.3,0.7-0.6,1.5-1,2.4c-0.2,0.4-0.3,0.9-0.5,1.2C109.6-350.1,109.9-350.4,109.2-350.1L109.2-350.1z"
			/>
		<path class="st2" d="M-276-335.1c0.7-1.4,3.6-5.3,5.4-8.6c9.4-17.1,4.9-23.3,6.9-28.9c0.8-2.1,1.2-2.6,2.1-4.1
			c0.4-0.7,0.1,0,0.4-0.8c-5.7,1-11.7,6.3-14,9.8c-1.5,2.3-2.9,5.1-3.9,8c-0.5,1.4-0.9,3-1.3,4.7c-0.3,1.5-0.3,3.8-1.2,4.7
			c-1-0.4-1.8-3.2-2.3-4.4c-2.8-6.8-8.3-14.9-13.6-20.2c-1.2-1.2-2.1-1.9-3.4-3.2l-3.9-3c0.3,1.4,1.7,3.2,2.5,6.8
			c0.6,2.7,0.3,6.1,0.4,9c0.4,11,3.3,19.2,12,25.1C-286.6-337.9-280.7-335.3-276-335.1L-276-335.1z"/>
		<path class="st1" d="M-159.3-272.5c1.3,5.1,2.4,9.7-1,13.6c-3.5,3.9-2.4,0.9-4.2,4.3c-1.6,3-2.7,3.6-3.6,5
			c1.2,1.3,13.9,8.4,16.4,9.3c2.2-2.3,5.7-18,6.5-22.5c1.1-6.3,2.6-20.7,2.2-27c-2.2-2-9-5.1-12.7-6c-5.1-1.3-10-1.2-15.1-0.5
			c-1,0.1-1.1,0.1-1.7,0.6c2.5,0.8,4.2,3.1,5.4,5.4c0.6,1.2,4,2.9,6.1,4.6C-152-278.4-158-274.4-159.3-272.5L-159.3-272.5z"/>
		<path class="st2" d="M-168.7-255c-7.8,0.1-12.6,1-18.7-3.9c-2.3-1.9-9.3-9.1-11.3-11.5c-1.2-1.4-2.4-2.6-3.5-4.1
			c-2.7-3.6-7.8-10.1-8.4-14.7c-0.9-7,1.9-19.5,3.7-26.5l3.2-11.9c-1.1,1.5-2.4,4.5-3.3,6.3c-4.1,8-12.4,27-13.7,35.1
			c-0.9,5.6,1.5,9.2,5.1,13.7l10.2,11.9c0.6,0.6,0.7,0.7,1.1,1.3c0.7,0.9,1.6,1.6,2.3,2.4c6.4,6.9,10.7,9.3,20.5,8.5
			c3.6-0.3,5.2-0.3,7.8-2.1C-172-251.7-169.7-253.8-168.7-255L-168.7-255z"/>
		<path class="st2" d="M110.1-388.9c-0.5-0.2-0.3,0.3-1.1-1.5c-0.3-0.7-0.6-1.3-0.9-1.9c-1.6-3.2-4.1-7.7-6.3-10.1
			c-3.3-3.7-7.4-6.9-14.7-7.1c0.3,0.6,1.1,1.1,1.6,1.6c6.2,7-0.8,13.7,15.6,30.1c1,1,2.6,2.7,3.7,3.4c5-1.2,10.7-5.7,12.8-8.4
			c10-13.1,3-24.7,3.7-32.8c0.1-1.7,0.8-3.7,0.8-5.2C114.9-410.2,111.4-390.6,110.1-388.9L110.1-388.9z"/>
		<path class="st2" d="M-280.5-374.4c3.6-1.8,10.7-10.9,12.9-15.1c3.9-7.3,2.5-14.7,6.5-18.3c0.3-0.3,1.4-1.2,1.7-1.7
			c-6.9-0.2-12,3.6-14.7,7c-1.7,2.2-2.9,3.9-4.4,6.5c-0.6,1.1-3.1,6.6-3.9,7.1c-0.8-0.9-2.3-7.1-2.9-8.8c-2-5.9-4-11-7.2-16.2
			l-5.2-6.8c0.4,2.5,1.1,4.7,0.9,7.4c-0.3,5.9-3.4,13.2-0.7,22.2C-295.1-382.8-288.6-377-280.5-374.4L-280.5-374.4z"/>
		<path class="st1" d="M-14.1-243.4c-0.3-0.8-0.8-1.2-1.3-1.9l-3.4-5.9c-1.5-3-2.7-5.6-4.7-7.4c-2-1.7-6.2-3.1-9.5-2.2
			c-5.4,1.4-11.8,5.3-16,8.5c-9.7,7.3-6,8-1.8,13.9c2.2,3.1,3.8,7.2,4.3,7.8c5.3-0.7,19.6-6.7,24.9-9.1L-14.1-243.4L-14.1-243.4z"/>
		<path class="st0" d="M-32.2-102c7.1,0.4,15.4,0,22.6,0c11.5,0,13.7,0.7,13.7-8.6c0-9.3-3.1-8.4-13.9-8.4c-7.4,0-14.9-0.2-22.4,0
			L-32.2-102L-32.2-102z"/>
		<path class="st2" d="M-277.7-412.5c2.5-0.8,9.4-5.3,11.3-7.2c3.7-3.8,5.3-5.5,8.2-10.9c2.7-5,1.9-4.4,5.9-6.6
			c-1.4-1.1-6.1-0.7-7.9-0.2c-4.6,1.1-8.5,4.4-11.5,7.6c-0.7,0.7-1.7,1.7-2.3,2.4c-0.5,0.6-1.5,2.1-2.3,2.3c-0.4-0.8-0.2-2.7-0.2-4
			c0-4.7-0.3-10.1-1.3-14.5c-0.4-1.9-2.7-9.5-4-11.3c-0.3-0.4-0.2-0.2-0.4-0.5c0.4,10.8-5.6,13.4-5.9,23.7
			c-0.2,6.5,2.5,11.5,6.4,15.8C-281.2-415.2-278.7-413-277.7-412.5L-277.7-412.5z"/>
		<path class="st2" d="M104.1-425.2c-0.9,0-1.1-0.8-2.2-2l-4.6-4.9c-0.8-0.7-1.7-1.4-2.6-2.1c-1.7-1.3-3.7-2.5-6.4-3.1
			c-2.1-0.5-6.6-0.9-8.2,0.2c3.8,2.3,3.2,1.8,5.8,6.5c2.2,4.2,5.8,9.3,9.7,12.2c2.2,1.6,7.6,5.5,10,6c5.9-4.9,10.7-10.2,10.4-19.3
			c-0.3-10.2-6.4-13.2-5.9-23.9c0,0-0.1,0.1-0.1,0.1l-0.3,0.5c0,0-0.3,0.7-0.4,0.8l-2,4.9C103.2-438.2,104.8-427.4,104.1-425.2
			L104.1-425.2z"/>
		<polygon class="st2" points="-151.6,-78.8 -140.6,-78.8 -140.6,-128.6 -151.7,-128.6 		"/>
		<polygon class="st2" points="23,-78.8 34,-78.8 34,-128.6 23,-128.5 		"/>
		<path class="st2" d="M95.3-455.9c-1,0.1-1.9-0.8-2.6-1.2c-4.3-2.6-9.9-5.5-15.1-5.2c-1.9,0.1-5,0.9-6.1,2c2.4,1.3,3,0.3,6.6,4.3
			c1.6,1.8,3.5,3.8,5.7,5.2c3.1,2,11.5,5.4,15.9,6c2-1.7,4.3-6.5,5.1-9.3c1.1-4.1,0.3-8.4-1.4-11.9c-3.2-6.6-6.8-9.4-8.8-12.9
			c-1.1-1.9-1.3-3-2-5.2c-1.3,5.4-0.6,16,1,21.9C94-460.8,95.3-456.8,95.3-455.9L95.3-455.9z"/>
		<path class="st2" d="M-272.2-444.8c3,0.1,15.7-4.7,19.1-8.3c1-1,1.7-1.7,2.7-2.7c2.1-2.2,2.6-3.2,6.6-4.3c-1-1.3-4.5-1.9-6-2
			c-7.6-0.6-16.1,6.3-17.8,6.5c-0.1-3,4.8-8.9,2.8-28.1c-1.8,3.2,0.3,2.4-5.1,9.2c-2.2,2.8-3.9,5-5.7,8.6
			C-279.7-458.3-276.8-450-272.2-444.8L-272.2-444.8z"/>
		<path class="st0" d="M58.1-107.3l34.4,0.1c0.2-4.8,0.4-9.5-3.4-11.1c-2.8-1.2-24.8-1.1-27.5,0C57.7-116.7,58-111.9,58.1-107.3
			L58.1-107.3z"/>
		<path class="st0" d="M-123.4-188.4l0.9,11.3l-1-1c-1.4-1.6-8.2-8.8-9-9l-6.9,1.1l3.6,21.2l6.5-1l-1.7-11.4c1,0.7,1.7,1.6,2.6,2.5
			l4.9,5.1c0.9,1.1,1.6,1.5,2.4,2.6l6.6-0.7l-2-21.2L-123.4-188.4L-123.4-188.4z"/>
		<path class="st2" d="M-48.8-214.6c2.9-0.2,10.2-2.5,13.1-3.5c13.9-4.6,21.1-7.9,33.3-14.7c0.8-0.4,0.6-0.2,1.1-0.9
			c-4.2-2.1-5-3.4-7.4-4.8c-1.3,0.3-3,1.5-4.3,2.2c-1.4,0.7-2.7,1.3-4.1,2c-2.9,1.5-5.7,2.7-8.7,3.9c-4.5,1.9-9.3,3.6-14,5
			c-1.3,0.4-3.6,0.9-4.7,1.4C-45-218.1-46.5-217.8-48.8-214.6L-48.8-214.6z"/>
		<path class="st0" d="M-102.5-173.6c-0.2-1.6-0.8-10.5-0.6-11.6c5-0.3,7,0.3,7.2,5.6c0.1,2.1-0.1,4.1-1.4,5.2
			C-98.3-173.6-101-173.3-102.5-173.6L-102.5-173.6z M-110.9-189.5L-110.9-189.5l1.7,21.3c2.2,0.3,12.9-0.7,14.9-1.4
			c4-1.4,5.9-5.3,5.7-10.7c-0.2-5.1-2.5-8.5-6.8-9.6C-98.2-190.6-107.8-190-110.9-189.5z"/>
		<path class="st2" d="M80.2-480.2c-2.4-0.5-11.3-9.8-20.4-4.1c0.9,0.5,2,0.6,3.1,1.3c2,1.3,4.1,4.3,7.3,6.5
			c2.7,1.9,9.5,4.8,13.6,4.7c1.6-2.5,3-3.3,4-7.7c0.8-3.6,0.2-7.1-1.2-10.1c-3-6.6-6.6-6.2-9.1-14.5c-1.2,5.9-0.6,12.8,1,18.5
			C78.9-483.8,79.9-481.8,80.2-480.2L80.2-480.2z"/>
		<path class="st2" d="M-256.1-471.7c4.4-0.3,10.5-2.7,13.5-4.7c5-3.5,4.2-5.5,9.6-7.5c0.1,0,0.3-0.1,0.4-0.1
			c0.3-0.2,0.3-0.2,0.5-0.3c-7.1-3.4-11.6-1.5-18.2,2.9c-0.7,0.5-1.3,1.3-2.3,1.2c0.9-3.5,2.4-6.4,3-10.7c0.3-2.4,0.6-11-0.2-13
			c-1.7,3.3,0.7,1.4-4.2,7.6c-1.9,2.4-3.4,3.8-4.9,7C-262.2-482.4-260-477.1-256.1-471.7L-256.1-471.7z"/>
		<path class="st0" d="M-152-183.4c0.2,2.6,1.4,7,2,9.6c0.8,3.7,1.7,6.7-2.4,7.6c-6.3,1.3-4.7-8.2-7.7-15.3c-1.9,0-5.2,1.3-7.2,1.7
			c0.2,1.9,3,12.2,3.8,13.9c2.1,4.8,5.9,6,12.1,4.7c4.9-1,8.9-3.2,9.3-8.4c0.3-3.6-2-11.3-2.5-15.3
			C-145.8-184.9-151-183.9-152-183.4L-152-183.4z"/>
		<path class="st2" d="M-83.6-569.8l-12.5,0c0.5,0.8,9.3,7,9.9,7.3L-90-551c1-0.4,3.8-2.7,4.9-3.5c1.4-1.1,3.4-2.7,4.7-3.5
			c1.7,1.1,3.4,2.4,5.1,3.6c1.6,1.2,3.5,2.7,5.1,3.6c-0.6-2.5-3.7-10.4-3.7-12.2l6.5-4.9c0.7-0.5,1.6-1.1,2.2-1.8l-10.7,0
			c-0.8-0.2-1.9-4.8-2.1-5.5c-0.4-1.2-1.4-4.9-1.9-5.6L-83.6-569.8L-83.6-569.8z"/>
		<path class="st0" d="M-35.7-182.7c4.3-1.6,5.8,5.4,2.2,6.8C-38.1-174.1-39.5-181.3-35.7-182.7z M-32.3-173.3L-32.3-173.3
			c-0.6,2.6-2.2,6.5-5.1,4.8c-0.8-0.5-0.8-1.4-1.3-2.3l-6.2-0.2c1.2,7.5,11.5,7.9,15.4,4.9c4.6-3.7,9.4-20-6.3-20.6
			c-10.8-0.5-10.7,13.7-1.4,14.6C-34.5-172-34.2-172.8-32.3-173.3L-32.3-173.3z"/>
		<path class="st0" d="M4-170.1c2.6-4.5,5.5-1.3,5.8-0.6c1.1,2.9-3.1,3.9-5,4.5c-3.6,1.2-10.7,3.4-11.6,8l17.8,5.7
			c0.7-0.8,1.4-3.3,1.7-4.6l-9.3-3.2c3.1-1.6,6.6-1.7,9.8-3.5c5.3-3.1,4.9-11.1-7.1-13.2c-4.1-0.7-7.8,1.1-8.5,4.5L4-170.1L4-170.1z
			"/>
		<path class="st1" d="M-94.9-225.7c1-1.4,1.5-2.3,2.5-3.6c1-1.2,1.7-1.9,2.8-3.1c2.5-2.8,0.6-4.5-2.3-7c-3.5-3.1-6.8-4.9-9.6-8.7
			c-0.7-1-1.6-2.7-2.3-3.5l-1.4,25c0.3,0.2,0,0.1,0.6,0.3C-103.4-226.1-95.8-225.6-94.9-225.7L-94.9-225.7z"/>
		<path class="st0" d="M-170.5-174.1c0-1.2-0.6-3.4-1.2-4.4c-2.3,0.3-6.7,1.9-9.1,2.7c-2.6,0.8-6.1,1.8-8.5,2.9
			c0.1,1.2,2.8,8.5,3.4,10.1c1.2,3.4,2.5,6.7,3.5,10.2l6.8-2.2l-2.6-8.5l8.6-2.6l-1.2-4.2l-8.8,2.6l-1.1-3.6L-170.5-174.1
			L-170.5-174.1z"/>
		<path class="st2" d="M61.6-501.3c-2.6-0.6-8.6-6.9-17-1.5c2.9,0.3,3.2,0.8,4.9,2.3c1.1,0.9,2.8,2.2,4.2,3c2.8,1.6,7.8,3,11.5,2.7
			c2.8-4.1,3.3-10.4,0.7-14.8c-3.4-5.8-6.1-5.7-8.1-9.7l-0.5-0.8c-0.3,5.8,0.3,9.8,2.5,14.8C60.2-504.3,61.5-502.3,61.6-501.3
			L61.6-501.3z"/>
		<path class="st2" d="M-237.7-494.8c3.9,0.2,8.7-1,11.6-2.7c4.2-2.4,5.2-5.2,9-5.3c-1.1-1.7-6.6-2.5-8.9-2
			c-3.9,0.8-6.9,3.3-8.1,3.4c0.1-0.7,2.5-4.8,3.4-8.1c0.9-3.4,1.2-7.2,1-10.9c-0.6,1-1,2.3-1.7,3l-2.4,2.3
			C-241.3-508.2-241.2-503.2-237.7-494.8L-237.7-494.8z"/>
		<path class="st2" d="M-150.2-209.4c-0.2-4.5-0.2-8.2,1.7-11.9c0.9-1.7,1.7-2.8,2.8-4.2c1-1.3,2.6-2.3,3.4-3.7
			c-6.2,0.5-13.6,2.5-16.4,7.9c-2.2,4.3-1.3,7.7-0.6,12L-150.2-209.4z"/>
		<path class="st2" d="M-186.5-244.2c1.3,1.7,12.7,8.9,14.1,9.8c1.3,0.8,2.5,1.5,3.8,2.2c1.8,1,2,1.8,3.9,0.8c1.9-1,6.4-2.7,7.7-3.9
			c-4.9-2.9-7.7-4.1-13.2-7.5C-179.4-248.5-170.2-243.5-186.5-244.2L-186.5-244.2z"/>
		<path class="st2" d="M-50.3-563.6l-8-1.7c0.4,0.8,4.4,5.4,5.2,6.6l-4.6,8.3l8.7-3.9l5.9,6.5c0,0,0.1,0.1,0.2,0.1l-1-9.2l8.2-3.7
			l-8.9-2l-1.2-9.2L-50.3-563.6L-50.3-563.6z"/>
		<path class="st2" d="M-117.5-562.5l-8.8,1.8l8,3.9l-1,9.1l6.1-6.6l8.7,4l-4.6-8.3c0.4-0.6,1-1.2,1.4-1.7c0.6-0.8,0.8-1.1,1.4-1.7
			c0.6-0.6,2.3-2.6,2.6-3.3l-8.1,1.7l-4.2-8.2C-116.6-570.7-117.2-564.2-117.5-562.5L-117.5-562.5z"/>
		<path class="st0" d="M-62.4-179.4c1.2-0.2,2.6-0.5,3.7-0.9c1.2-0.4,2.2-1,3.3-1.4l-1.4,14.2c1.5,0.2,5.2,0.8,6.3,0.6l2.6-21.4
			c-0.8-0.5-1.6-0.4-2.7-0.5c-1-0.1-2-0.2-3-0.3c-0.8,1.8-2.8,3.1-5.2,4C-62.1-184-62.5-185.7-62.4-179.4L-62.4-179.4z"/>
		<path class="st0" d="M-5.4-180.4l-5.2-1.3c-1.3,0.8-2,1.8-4.1,2.6c-1.6,0.6-3.5,0.9-5.5,1l-1,4.8c3.3-0.2,4.5-0.7,7.4-1.4
			l-3.3,13.9l6.1,1.5L-5.4-180.4L-5.4-180.4z"/>
		<path class="st2" d="M-185.3-282.4c0.9,1.9,5.3,5.7,7.1,6.9c8,5.1,20.9,2.1,15.8-4.9c-1.4-1.9-2-1.9-5.1-1.7
			C-175.2-281.9-177.5-282.1-185.3-282.4L-185.3-282.4z"/>
		<path class="st2" d="M-185.4-271.7c1,2.5,1.9,4.5,3.2,6.5c4,6,10.7,6.8,17.3,5.1c2.7-0.7,3.1-4.3,2.9-6.7
			c-0.2-2.2-0.1-2.6-2.2-2.1c-2.3,0.5-5.1,2.1-7.2,2.3C-176.1-266.2-182.6-270.6-185.4-271.7L-185.4-271.7z"/>
		<path class="st2" d="M-163.9-209.4c-0.4-8.5-0.4-12.4,5.1-19.1l0.7-0.9c-2.3,0.4-4.3,1.6-5.9,2.6c-5.9,3.9-7.9,9.9-6.8,17.5
			L-163.9-209.4L-163.9-209.4z"/>
		<path class="st2" d="M-169.6-563.2c0,1.2,0.4,2,0.2,3l-2.9,0.5l0.3,2.5l3.1-0.4l0.6,3.4c-4.9,2.3-2.7,9.6,2.7,8.8
			c5-0.7,5.6-8.2-0.1-9.3l-0.6-3.4l3-0.5l-0.2-2.5l-3.2,0.4l-0.4-2.9L-169.6-563.2L-169.6-563.2z"/>
		<path class="st2" d="M39.9-524.9c0.3,3.8,3.8,11.1,7.6,13.7c1.3,0.9,4.3,2,5.4,0.5C57.4-516.6,42.8-524.6,39.9-524.9L39.9-524.9z"
			/>
		<path class="st2" d="M-212.3-524.8c-2.4-0.4-17.4,8.2-13,14c1.9,2.5,6.7-0.7,8.9-4C-215.2-516.5-212.4-522.2-212.3-524.8z"/>
		<path class="st2" d="M-105.8-219.6c-0.3,1.1-0.5,3.1-0.7,4.3c-0.2,1-0.9,3-0.9,3.7l11.8,1c-0.6-3.1-1.5-4.3-1.5-8.2L-105.8-219.6
			L-105.8-219.6z"/>
		<path class="st0" d="M-177.5-522.5l2.1-1.3c-1.3-6.5-2.2-6.9,0.5-14.1c-3,0.5-8.5,2.6-8.4,6.4C-183.2-528-179-523.6-177.5-522.5z"
			/>
		<path class="st2" d="M-102.5-173.6c1.5,0.2,4.2,0,5.2-0.9c1.3-1.1,1.5-3,1.4-5.2c-0.2-5.3-2.1-5.9-7.2-5.6
			C-103.3-184.1-102.7-175.2-102.5-173.6L-102.5-173.6z"/>
		<path class="st0" d="M-150.4-531.7l-0.1,2.9l3.4,0.1c3.1-8.5,4.9-13.7-6.9-13c0.5,0.7,1.8,1.3,2.7,3.8
			C-150.7-536.1-150.4-533.7-150.4-531.7L-150.4-531.7z"/>
		<path class="st2" d="M-105.5-494.1c1.4-0.4,3.4-2.5,4.2-3.4l8.4,1l-0.9-0.9c-0.3-0.2-0.6-0.4-1-0.7c-0.7-0.5-1.4-1-2.2-1.4
			c-2.5-1.5-6.7-3.4-9.5-4.6c-1.6-0.7-3.6-1.7-5.2-2.1c0.7,1.1,1.3,1.6,2.1,2.6C-106.7-500.2-105-498.3-105.5-494.1L-105.5-494.1z"
			/>
		<path class="st0" d="M-159.9-528.5l4.2-0.3c0.8-2.6,0.6-6.2-0.8-8.3c-0.9-1.4-3.6-3.7-6-4C-161.1-536.4-159.9-534.1-159.9-528.5
			L-159.9-528.5z"/>
		<path class="st0" d="M-170.1-526.4l3.7-1c-1.3-7.3-1.2-4.3-1.7-13c-1.4,0.6-3.3,3.7-3.8,6.1C-172.3-531.9-171.3-527.9-170.1-526.4
			z"/>
		<path class="st2" d="M-35.7-182.7c-3.9,1.4-2.4,8.6,2.2,6.8C-29.9-177.3-31.3-184.3-35.7-182.7z"/>
		<polygon class="st0" points="-85.3,-169.3 -78.9,-169.2 -78.7,-174.8 -85.3,-175 		"/>
		<path class="st3" d="M23-128.5l11,0l0,49.7l-11,0L23-128.5L23-128.5z M22.9-78.8L22.9-78.8c1,0.4,10.1,0.4,11.3,0l-0.1-49.8
			c-1.2-0.5-10.2-0.5-11.3,0L22.9-78.8L22.9-78.8z"/>
		<path class="st4" d="M-85.3-175l6.6,0.2l-0.2,5.7l-6.4-0.2L-85.3-175z M-85.5-169L-85.5-169l6.8,0.1l0.2-6.1l-7-0.2L-85.5-169
			L-85.5-169z"/>
	</g>
</g>
<g id="Layer_x0020_1_00000147913934585260980430000015480318417683921589_">
	<g id="_806914032_00000156569560609367407480000011705248789756132243_">
		<path class="st0" d="M161.7,74c-1.2-1.5-2.2-5.5-1.8-7.9c0.4-2.4,2.3-5.5,3.8-6.1c0.5,8.7,0.5,5.7,1.7,13L161.7,74z M154.3,77.8
			L154.3,77.8c-1.6-1.1-5.7-5.5-5.8-9c-0.1-3.8,5.4-5.9,8.4-6.4c-2.6,7.2-1.8,7.6-0.5,14.1C156.4,76.5,154.3,77.8,154.3,77.8z
			 M171.8,71.8L171.8,71.8c0-5.6-1.2-7.9-2.5-12.6c2.4,0.3,5,2.6,6,4c1.4,2.1,1.6,5.7,0.8,8.3L171.8,71.8L171.8,71.8z M181.3,68.6
			L181.3,68.6c0.1-2-0.3-4.3-0.9-6.1c-0.9-2.5-2.3-3.1-2.7-3.8c11.8-0.7,10,4.5,6.9,13l-3.4-0.1L181.3,68.6L181.3,68.6z M150.3,81.2
			L150.3,81.2l-3.9,4.4c-2.5,3-4.9,6.6-8.2,8.7c-2.4,1.5-3.6,1.4-6.6,2c6.8,7.1,10.9,5.5,19.2,3.4c-0.8,1.9-3.1,4.1-4.6,5.2
			c-6.7,4.7-21.8,3.3-30.6,8.4c-4.4,2.5-7.4,5.2-10.4,9.2c-1.1,1.4-3.1,4.4-3.7,6.3c3.6-1.6,11-10,23.6-8.6l-1.7,0.8
			c-8.6,3.3-14.9,9.6-18.7,18c1.3-0.5,4.5-2.8,6.9-3.8c2.6-1.1,6.1-1.9,9.3-1.4c-1.9,2.2-6.3,5.5-9.7,7.2c-4.1,2.1-9,2.9-14.2,2.9
			c1.5,1.3,7,2.7,9.7,2.9c4.5,0.3,7.4-0.8,11.3-1.5l-0.8,0.7c-2.2,1.5-3.9,3.1-5.3,5.1c-1.4,2.1-3.5,5.3-4.4,7.7
			c5.3-2.4,7.6-4.4,14.1-4.5c-1.1,0.9-2.7,1.5-4,2.2c-1.4,0.8-2.4,1.5-3.7,2.5c-2.5,1.8-4.5,3.7-6.4,6c-2.6,3.2-6.9,11.9-7.6,17.2
			c0.6-0.4,0.2-0.1,0.6-0.6c0.2-0.2,0.5-0.6,0.6-0.8l3.7-4.2c5.5-5.8,12.3-10.1,21.1-11c0,0.1-0.1,0.1-0.2,0.2
			c-0.1,0.4-2.3,1.6-2.6,1.8c-2.7,1.8-5.5,4.1-7.6,6.4c-2.7,3-5.6,6.5-7.7,11.2c-3.9,8.8-5.1,22.3-4.3,32.9l12-16.4
			c0.7-0.8,1.3-1.5,2-2.3c1.9-2.5,9.7-10.3,12.1-12.2c1.5-1.2,2.9-2.7,4.5-3.6c-2.5,2.7-5.4,8-7.1,11.5c-7.3,14.6-8.3,32.3-8.1,48.8
			c3.5-1.7,6.6-7.5,7.9-11.1c1.6-4.7,2.6-10.3,3.7-15.3c1.2-5.4,2.4-9.9,4.6-14.5c2.1-4.4,4.4-8.3,7.2-11.8
			c-1.6,7.7-2.8,10.6-2.8,19.2c0.1,12.4,4.2,24.5,9.5,35.2c1.8,3.7,3.9,7.1,6.2,10.5c0.7,1.1,1.8,2.3,2.4,3.4
			c0.5-0.6,0.5-1.9,0.7-2.7c1.8-9.3,6.2-18.3,11.7-25.7c0.9-1.2,2-2.7,3-3.7c2.2-2.3,4.3-4.7,6.7-6.9l7.3-6.3
			c5.8-4.6,13.6-10.7,20.1-14c-1.8,3.7-7.2,10.7-9.8,13.9c-3,3.7-6,7.2-9.6,10.4l-2.1,2c-0.7,0.6-1.3,1.2-2,1.8
			c-0.7,0.6-1.6,1.3-2.2,1.8c-1.3,1.1-3.4,2.5-4.4,3.6c2.9-0.7,8.9-3.6,11.5-4.9c8-4.2,15.9-8.5,22.4-14.5c0.5-0.4,0.7-0.5,1.2-0.9
			c12.1-10.7,20.4-22.5,20.2-39.9c0-3.2-0.9-12-2.2-14.4c-1.2,2.7,1,9.2-6.5,17.5c-1.5,1.7-6.2,5.8-8.2,6.2
			c5.7-21.7-6.9-25.8,5.4-41.4c0.6-0.7,1.1-1.4,1.7-2.1c1-1.2,3.2-2.9,3.8-4.1c-4.2,0-7.4,0.2-11.2,1.4c-1.4,0.4-3.1,1.1-4.4,1.7
			c-1.3,0.6-3.1,1.7-4.3,2.1c0.5-4.8,1.2-9.4,2.5-13.6c2.3-7.2,4.4-7.6,5.9-10.7c-9.3-0.2-18.2,0.5-27.4,1.8c-2.6,0.4-6,1.2-8.4,1.3
			c1.9-1.2,4.2-1.9,6.1-3.1c6.5-3.8,10.8-8.6,11.6-16.5c0.6-5.1,0.1-12.3,3.3-15.3c4.1-3.9,10.4-0.3,14.4,0.9
			c-2.1-4.7-1.1-0.7-0.9-6.2c0.1-2.3-0.2-4.8-0.8-6.9c-0.8-2.8-3.3-8.6-4.9-10.4c-0.3,2.5,0.2,7-1,9.2c-4-3.5-7-4.5-14-5.5
			c-0.1-4,0.2-6.7-2.6-8.8c-3.3-2.5-10.7-1.3-14.8-0.1c-4.6,1.3-9-1.6-14.9,2.3c-2.4,1.6-5.4,1.2-9.2,2.2
			c-8.3,2.2-10.1,6.6-6.2,13.8C146.9,78.3,148.9,79.2,150.3,81.2L150.3,81.2z"/>
		<path class="st0" d="M297,185.5c-0.9,1.1-2.2,1.8-3.3,2.8c-3.2,3.2-6.3,6.4-8.7,10.4c-7.6,13.2-3.4,26.2,7.9,35.2
			c16.7,13.2,45.7,13,54.3,22.2c5,5.4,3.4,13.5-0.7,18.9c-2.3,3-3.4,4.2-6.1,6.5c-0.5,0.4-1.1,0.9-1.7,1.4c-1.7,1.3-3.9,3-5.9,3.8
			l-8.7-8.8c-0.8-0.8-1.5-1.2-2.2-2.1l-7-6.5c-8.3-7.4-12.6-9.6-24.4-11.1c-5.1-0.6-10-1.6-14.5-3.2c-12.1-4.2-22.7-10.9-29.3-21.6
			l-0.5-0.9c0,0-0.1-0.1-0.1-0.1c-0.2-0.3-0.2-0.2-0.4-0.4c0.9,15.9,15,30.1,28.7,36.4c3.3,1.5,20.2,1.7,34.6,11.8
			c6.9,4.8,12.3,11.5,15.6,21.7c1.5,4.6,2.4,10.2,4.1,14.5c3.3,8.4,6,10.1,11.3,16.6c1.4,1.7,2.4,3.7,3.1,6.2
			c1.8,6.5-0.9,10-5.1,12.4c-5.3,2.9-10.1,2.3-13.2-1.9c-2.7-3.6-3.7-9.3-5.1-13.5c-1.5-4.8-5.1-6.7-9.7-8.9
			c-4.5-2.1-9.8-3.1-15.2-3.6c0.2-0.3,1.3-1.6,1.6-2c4.4-5.1,7.5-11.6,8.4-18.6c0.4-3,0.1-11.8-1.6-13.8c-1.2-1.4-4.4,0.4-5.6,1
			c-7.9,4.2-8.8,4.8-18,2.6c-3.7-0.9-27.3-7.7-28.7-10.2c-2.1-3.7-5.4-12.1-7.1-16.3c-1.5-3.5-3.2-7.5-4.1-11.4
			c-2.6-11.7,3-21,6.9-30.7c1.2-3,1.3-2.9,0.7-6.4c-1.2-6.7-8.8-28.4-11.9-34.5c-0.1,1.8,0.2,4.9,0.3,6.8c0.3,7.3,0.4,14.6-0.1,21.9
			c-0.2,2.4-0.2,4.4-1.1,6.4c-0.9,1.8-1.6,3.4-2.4,5.2c-1.5,3.5-2.9,7.1-4.1,10.9c-1.8,5.7-1.6,7.2-1.2,13c0.3,4.4,0.9,9.1,1.8,13.2
			c2.3,10.1,4.1,13.9,7,23c1.6,4.9,2.4,13.8-1.4,18.3l-6.8,8.2c-5,6.3-11.9,16.6-12.8,24.8c-0.5,4.3-0.4,10-0.5,14.5
			c-0.1,5-0.1,10,0,15c0.1,2.6,0.8,12.9,0.1,14.4c-1.2-1.1-2-2.7-3.1-3.8c-4.2-4.1-10.2-5.8-16.1-3.7c-3.8,1.3-5.6,3.6-7.1,7.2
			c-1.1,2.4-2.8,9.4-2.1,12.3c9.9,0,19.8-0.1,29.7,0c2.7,0,3-0.5,4.4-2.9c0.9-1.7,1.6-3.6,2-5.6c1-4.3,1.1-9.3,1.2-13.8
			c0.4-9.5,0.9-18.5,2-27.8c0.3-2.3,3.8-7.8,5.1-9.9c1.4-2.4,4.6-7.9,7.3-7.8c0.8,0.9,1,2.7,1.1,4.1c0.1,2.7,0,2.5-1.2,4.2
			c-2.3,3.4-7.1,11.3-5.3,15.8c1.4,3.5,3.7,5.5,6,7.6c2.7,2.3,8.2,6.7,9.7,9.4c1.7,3.1-0.9,4.6-3.2,6.4c-4.6,3.5-7.6,8.8-5.6,15
			c0.4,1.3,1.2,2.7,1.8,3.6c1.2,1.6,1,1.9,3.5,1.9c7.3-0.1,14.6,0,21.9,0c2.3,0,4-2.1,6.6-4c2.2-1.6,4.4-2.8,6.6-4.3
			c8.5-6.1,0.1-15.6-4.1-21.2c-1.3-1.7-3.7-4.8-2.8-7.8c0.8-2.5,3.1-5,4.6-6.1c8.2-6.3,18.5-15.4,30.1-10.5c2.8,1.2,4.8,2.6,6.2,4.7
			c3.6,5.1,2.7,6.8,8.5,13.2c9.9,10.9,24.3,10.9,17.1,16.9c-3.3,2.8-5.6,5.2-6.3,10.1c-0.5,3.6-0.1,6.4,1.4,9c9.5,0.3,19.3,0,28.8,0
			c3.6,0,4.8,0.9,7-1.8c4.4-5.2,14.7-9.6,13.5-18.7c-1.6-12.5-11.6-14.7-18.7-21.9c-5.7-5.8-13.2-13.2-18.5-19.3l-6.9-7.8
			c-2.2-2.6-2.1-5.3-2.5-9.3c-0.3-3.6-1.1-6.4-1.7-9.7c3.7-2.4,7-4.1,10.4-7c3.2-2.8,6.2-5.5,8.5-9.1c6-9.3,8.7-22.5,3-32.7
			c-1.4-2.5-2.8-4.1-4.6-5.9c-1.9-1.8-4.2-3-6.5-4.2c-12.8-6.1-27.9-6-42.3-14.2c-5.5-3.1-11.6-8.1-14.9-13.4
			c-2.1-3.4-1.8-7.7,0.1-11.4c1.7-3.4,8.7-14,11.9-16.3c11.1,5.8,16.3-6.3,15.6-17.6c-0.8,0.5-2.6,4.4-6.2,6.2
			c-1.7,0.9-3.9,0.8-4.6-0.7c-0.6-1.5,0.8-3.6,1.4-4.8c3.8-7.1,2.3-13.7,0.4-21.6c-0.1,0.2-0.2,0.2-0.3,0.5c-0.7,1.6-1,3.4-1.7,5
			c-1.6,3.6-4.1,5.5-7,7.8c-4.3,3.3-10,6.1-7.8,13.3C292.9,182.5,295.3,182.4,297,185.5L297,185.5z"/>
		<path class="st0" d="M71.1,407.6c-12.2-13.7-18.8-22-28.4-37.4c-14.5-23.2-25.1-50.1-30.9-78.9C1.3,239.1,9.9,185.8,30.3,143.2
			c5-10.4,10.2-19.4,15.8-28.2c3.3-5.2,12-17.2,16.3-22l7.7-8.7c2.5-3,13.8-14.1,16.5-16.3l5.9-5.1c5.6-4.9,12.5-9.9,18.7-14.2
			C145.6,25,192.7,7.3,245.5,7.3c55.1,0,108.2,19.1,150.1,53.3c1.1,0.9,2,1.6,3,2.5c1.1,1,1.9,1.7,3,2.5l2.9,2.6
			c0.9,0.9,1.7,1.5,2.8,2.6c0.9,0.9,1.9,1.7,2.9,2.6c1,0.9,1.8,1.9,2.7,2.8c4.9,4.8,7.6,7.8,12.1,12.7c2.9,3.2,8.4,10.2,11,13.6
			c1.5,2,3.1,4.1,4.6,6.4c1.5,2.2,3,4.2,4.4,6.5c5,7.8,7.8,12.6,12.1,20.8c3.8,7.1,7.4,15.2,10.3,22.8c2,5.4,4,10.6,5.7,16.2
			c11.4,37.3,13.7,78.4,6,116.6c-2.4,12-5.6,23.6-9.6,34.5c-2,5.4-4,10.5-6.3,15.6c-2.3,5.1-4.6,9.8-7.2,14.7
			c-7.3,14.3-20.2,33.2-31.3,45.4l-2.5,2.9c-1.1,1.4-2,1.9-2.5,2.9c2.6,1.3,3.9,2.4,7.3,4c8.5,4.1,18.1,6.2,27.8,5.8
			c0.2,2.6-1.2,9.4-1.9,11.9c-1.9,7.3-4.4,12.8-9.6,18c-3.2,3.2-6.9,5.1-7.8,5.9c7.4,3.7,10.5,6.2,14.8,12.1
			c4.6,6.3,4.7,12.9,4.7,22c0,17.9,0.1,35.8,0,53.7l-419.5-0.1c0-17.9,0-35.7,0-53.6c0-13,0.6-17.4,7.7-25.9c2.6-3.1,8-6.6,11.8-8.2
			c-1-1.1-8.7-4.4-13.7-13.9c-2.3-4.3-5.9-16.2-5.5-22c10.3,0.2,19.4-1.6,28.3-6C65.8,410.8,69.9,408.8,71.1,407.6L71.1,407.6z
			 M0,243.8L0,243.8l0.2,12.9c0,1.4,0.3,1.8,0.2,3.3c0,1.5,0.2,1.7,0.2,3.1c0,1.5,0.2,2.1,0.2,3.3c0.1,3.1,0.9,9.5,1.4,12.5
			l1.9,11.9c0.2,1.1,0.4,1.8,0.5,2.8c0.6,4,2.1,10,3.2,13.9c0.6,1.9,0.9,3.5,1.4,5.5c1,3.5,2,7.1,3.3,10.5c0.2,0.6,0.2,0.7,0.4,1.3
			c0.1,0.5,0.3,0.7,0.5,1.2c0.3,0.8,0.6,1.8,0.9,2.7l3.8,10c0.3,0.8,0.6,1.5,1,2.3l12.5,25.4c0.4,0.8,0.9,1.4,1.3,2.1l6.6,10.8
			c0.5,0.8,0.8,1.3,1.3,2l2.8,4.1c0.5,0.8,1,1.3,1.5,2.1L55.7,401c1.5,1.9,3.5,3.7,4.8,5.7l-5.4,1.8c-8.1,2.7-17.3,2.8-26,2.8
			c0,9.3,0.8,18.1,3.8,26.6c1.8,5,6.7,12.5,11.2,15.5c-0.8,1-2.5,1.8-3.5,2.7c-0.6,0.5-0.9,0.9-1.6,1.5l-1.2,1.2
			c-0.2,0.2-0.3,0.3-0.4,0.5c-2.1,2.3-3.8,4.9-5,7.9c-2.2,5.6-3.1,14.5-3.1,22.4v56.7c0,0.5,0.2,0.7,0.7,0.7h430.4
			c0.5,0,0.7-0.2,0.7-0.7v-58.3c0-7.2-1-16.4-3.3-21.3l-2.1-4.1c-0.5-0.7-0.8-1.2-1.3-1.8c-0.5-0.7-0.9-1-1.4-1.7
			c-1.1-1.4-2.6-2.5-4-3.6c-0.8-0.7-2.1-1.3-2.7-2.1c1.9-0.5,7.3-7.7,8.3-9.5c0.2-0.4,0.3-0.6,0.6-1.1c0.3-0.5,0.4-0.6,0.7-1.2
			c1.2-2.4,2.2-5.1,3-7.7c1.4-5,1.8-10.3,2.4-15.5l0.3-7.1c-6.7,0-13.7,0-20.1-1.3l-8.5-2.2c-0.7-0.2-0.9-0.3-1.4-0.5
			c-0.6-0.2-0.9-0.3-1.4-0.5l19.2-25.1c2.3-3.1,4.6-7.2,6.6-10.5c0.9-1.5,1.7-2.9,2.5-4.4c0.4-0.7,0.8-1.4,1.2-2.1l2.4-4.5
			c0.3-0.5,0.4-0.7,0.6-1.1l3-5.8c2.4-4.7,4.3-9.5,6.4-14.3c0.7-1.6,1.3-3.1,1.9-4.8l1.9-5c1-2.5,1.6-5.1,2.6-7.6
			c1.5-3.8,3.5-11.9,4.6-16.1l1.3-5.6c0.2-1.1,0.4-2,0.6-3c1.9-7.7,2.9-15.5,3.8-23.5c0.1-0.8,0.2-2.1,0.3-3l1-12.8
			c0.1-1.1,0-2.5,0-3.6c0-1.2,0.3-1.6,0.3-3.1v-11.2c0-1.6-0.3-2.1-0.2-3.6l-0.3-7.4c-0.1-0.9-0.2-2.4-0.4-3.5l-0.3-3.5
			c-0.4-9.4-3.5-25.6-5.9-35.5c-1.2-5-2.6-9.9-4.2-14.8c-0.2-0.6-0.2-0.8-0.4-1.5l-3.4-9.9c-0.3-1.1-0.7-1.7-1.1-2.8l-2.2-5.5
			c-0.2-0.6-0.4-0.8-0.6-1.3c-1.3-3.5-3-7-4.6-10.4c-3.9-8.2-8.1-15.7-12.7-23.5l-7.6-11.5c-3.4-4.9-11.7-16.1-15.7-20.3l-27.7-27.3
			L384.1,43c-0.8-0.6-1.5-1-2.3-1.5l-14-8.8c-5.4-3.3-11.9-6.3-17.5-9.2l-5.1-2.3c-2.6-1.3-5.3-2.2-8-3.4l-28.6-9.5
			c-11.3-3.3-23.3-5.2-35-6.6c-0.9-0.1-2.4-0.4-3.4-0.4L252.4,0l-31.7,1.2c-3.4,0.1-16.2,2.1-20,2.8l-6.4,1.3c-1,0.2-2,0.5-3.1,0.7
			l-5.9,1.5c-1,0.2-2,0.4-3.1,0.7c-1.1,0.3-2,0.5-3,0.8l-7.4,2.2c-11,3.2-23.6,8.3-33.9,13.5l-7.6,3.8c-0.6,0.3-0.6,0.4-1.2,0.7
			c-0.5,0.3-0.7,0.3-1.3,0.7c-0.9,0.5-1.6,0.8-2.5,1.3c-0.8,0.4-1.6,1-2.4,1.4l-4.8,2.8c-0.8,0.5-1.6,1-2.3,1.5l-6.9,4.5
			c-0.8,0.5-1.5,1-2.3,1.5L96.9,50c-0.4,0.3-0.6,0.5-1,0.9l-11.5,9.4c-0.5,0.4-0.6,0.4-1.1,0.8l-5.9,5.5c-0.4,0.4-0.6,0.6-1,1
			l-6.9,6.7c0,0-0.1,0.1-0.1,0.1L57.9,87c-0.4,0.5-0.4,0.6-0.8,1.1c-1.8,2-3.4,4.3-5.1,6.3c-0.6,0.8-1,1.4-1.7,2.1
			c-0.6,0.7-1,1.4-1.6,2.2c-0.6,0.8-1.1,1.4-1.6,2.2l-15.5,24.2c-0.3,0.6-0.4,0.6-0.7,1.2c-0.3,0.5-0.4,0.7-0.7,1.2
			c-0.2,0.3-0.2,0.4-0.3,0.6l-8,15.8c-0.2,0.4-0.3,0.7-0.5,1.2c-2.7,5.7-5,11.7-7.1,17.7l-2.9,8.6c-0.3,0.9-0.6,1.9-0.9,2.9
			c-0.3,0.9-0.5,1.9-0.8,3c-0.7,2-1,3.9-1.6,6c-0.6,2-1.1,4.1-1.6,6.1c-2.3,11.3-3.7,17.3-5,29.3c-0.7,5.9-1.2,11.9-1.2,17.8
			c0,1.5-0.3,2-0.2,3.6C0,241.3,0,242.5,0,243.8L0,243.8z"/>
		<path class="st0" d="M246.2,425.1l7,0.2l-0.2,6.1l-6.8-0.1L246.2,425.1L246.2,425.1z M335.7,430.2L335.7,430.2l-6.2-2.3
			c0.7-3.4,4.4-5.2,8.5-4.5c11.9,2,12.4,10.1,7.1,13.2c-3.2,1.8-6.7,2-9.8,3.5l9.3,3.2c-0.3,1.2-1.1,3.8-1.7,4.6l-17.8-5.7
			c0.8-4.5,8-6.8,11.6-8c1.9-0.6,6.1-1.7,5-4.5C341.2,428.9,338.4,425.7,335.7,430.2L335.7,430.2z M151,429.3L151,429.3l1.1,3.6
			l8.8-2.6l1.2,4.2l-8.6,2.6l2.6,8.5l-6.8,2.2c-1.1-3.5-2.3-6.8-3.5-10.2c-0.6-1.7-3.4-9-3.4-10.1c2.4-1.1,5.9-2,8.5-2.9
			c2.4-0.8,6.8-2.4,9.1-2.7c0.5,1,1.2,3.2,1.2,4.4L151,429.3L151,429.3z M299.4,427L299.4,427c-1.8,0.6-2.2,1.4-4.9,1.1
			c-9.3-0.9-9.4-15,1.4-14.6c15.7,0.7,10.9,17,6.3,20.6c-3.8,3-14.1,2.6-15.4-4.9l6.2,0.2c0.5,0.9,0.4,1.9,1.3,2.3
			C297.2,433.5,298.8,429.6,299.4,427L299.4,427z M320.8,441L320.8,441l5.6-21.1l-5.2-1.3c-1.3,0.8-2,1.8-4.1,2.6
			c-1.6,0.6-3.5,0.9-5.5,1l-1,4.8c3.3-0.2,4.5-0.7,7.4-1.4l-3.3,13.9L320.8,441L320.8,441z M179.8,416.9L179.8,416.9
			c0.9-0.5,6.2-1.5,7.4-1.5c0.5,4,2.8,11.7,2.5,15.3c-0.4,5.2-4.4,7.4-9.3,8.4c-6.2,1.2-9.9,0.1-12.1-4.7c-0.8-1.7-3.6-12-3.8-13.9
			c2-0.4,5.3-1.6,7.2-1.7c3,7.2,1.4,16.6,7.7,15.3c4.1-0.8,3.2-3.9,2.4-7.6C181.2,423.9,180,419.5,179.8,416.9L179.8,416.9z
			 M215.3,411.4L215.3,411.4l2,21.2l-6.6,0.7c-0.8-1.2-1.4-1.6-2.4-2.6l-4.9-5.1c-0.9-0.9-1.6-1.8-2.6-2.5l1.7,11.4l-6.5,1
			l-3.6-21.2l6.9-1.1c0.7,0.2,7.5,7.4,9,9l1,1l-0.9-11.3L215.3,411.4L215.3,411.4z M269.3,420.9L269.3,420.9
			c-0.1-6.2,0.3-4.5,3.7-5.8c2.5-0.9,4.4-2.3,5.2-4c1,0,2,0.2,3,0.3c1.1,0.1,1.9,0.1,2.7,0.5l-2.6,21.4c-1.2,0.2-4.8-0.4-6.3-0.6
			l1.4-14.2c-1.1,0.4-2.1,1-3.3,1.4C271.9,420.4,270.5,420.7,269.3,420.9L269.3,420.9z M220.8,410.8L220.8,410.8
			c3.1-0.5,12.7-1.1,15.5-0.4c4.3,1.1,6.6,4.5,6.8,9.6c0.2,5.4-1.8,9.3-5.7,10.7c-2,0.7-12.7,1.7-14.9,1.4L220.8,410.8z M146.2,456
			L146.2,456c4.1-1.4,8.5-2.8,12.9-4.1c28.2-8,56.7-14.1,86.8-13.9c33.6,0.2,73.6,8.8,105.4,20.6c1.9,0.7,4.1,1.7,6,2.3l0-40.7
			c-4.2-1.1-8.4-2.5-12.7-3.7c-13.4-3.6-26-6.5-39.8-9c-42.3-7.6-76.6-8.1-118.9-0.1c-9.1,1.7-17.9,3.6-26.8,5.8
			c-4.1,1-22.6,5.8-25.4,7.3l0,40L146.2,456L146.2,456z"/>
		<path class="st0" d="M183.6,363.9c3-0.6,6.2-2.8,8.2-4.2c2.2-1.7,4-4.6,5.2-7.2c2.6-5.4,4.7-11.8,6.7-17.8
			c2.1-6.4,4.5-11.6,7-17.5c7.9-18.9,2.4-18.2-3.3-25.8c-1.8-2.3-3.4-4.6-5.2-6.9c-1.5-1.9-1-2.1-1-5.1l0-30.5c0-6.3,0-5.2,2.4-9.8
			c1.4-2.7,2.9-5.3,4.4-8c0.8-1.4,1.4-2.6,2.2-4c0.6-1,1.8-3,2.1-3.9c-3,0.8-13.2,6.9-16.2,8.8c-5.4,3.4-11.6,8-15.9,12
			c-0.6,0.5-0.9,1.1-1.5,1.6l-3.1,3.1c-4.9,5.5-12.9,16.2-14.5,22.7c-3.2-1.3-10.8-9.5-13.4-12.9c-1.4-1.8-2.3-3.1-3.5-5.1
			c-3.1-5.1-6.4-11.8-8.8-17.4c-0.5-1.1-2.1-5.2-2.7-5.8c-5.1,14-2.8,30.4,2.9,42.8c1.4,3.1,2.9,5.7,4.4,8.5
			c5.3,10.1,5.3,11.8-0.9,16.9l-5.4,4.4c-0.8,0.6-1.2,0.7-1.8,1.6c12.5-0.4,18.4,6.1,26.9,7.4c-2.6-2.1-2.5-1.8-4.9-4.2
			c-0.8-0.8-3.3-4.1-3.7-5.5c1.7-0.3,4.1-1.4,6-1.9c6.7-1.8,13.3-2.7,20.1-1c5.7,1.4,10.7,4.5,15.1,7.8c1.5,1.1,1.5,1.2,1.6,2.2
			c1.6,15-1.4,29.3-5.6,43.4C186.2,356.3,184.6,360.1,183.6,363.9L183.6,363.9z"/>
		<path class="st0" d="M211.6,60.2c0.4,1.1,1.6,2.7,2.2,3.8c0.6,1.1,1.6,2.7,2,3.9c12.1-1.6,15.9-2.7,29.2-2.8
			c9.9,0,19.8,0.8,29.2,2.6c8.6,1.6,17.3,3.9,25,6.7c8.2,3,14.7,6.1,21.9,9.8c7.5,3.9,12.7,7.7,19.3,12.4c3.7,2.6,5.7,4.7,8.7,7
			c0.8,0.6,1.3,1.2,2,1.8c2.5,2,9.3,8.9,12,11.8c12.7,13.9,25.2,34.4,31.4,52c2.8,8.1,5.2,15.9,6.8,24.8c6.7,35.7,1,73.8-16.3,104.9
			c-7.5,13.6-12.1,19.2-21.2,30.2c-0.6,0.8-1.3,1.4-2,2.1c-1.3,1.5-2.6,2.7-4,4.1c0.4,1.1,1.9,2.1,2.8,3c0.9,0.9,2,2.3,2.9,2.9
			l4.1-4.2c1.3-1.3,2.6-3.1,3.9-4.4c6.6-6.9,16.1-21.6,20.6-29.7c8-14.6,14-31.1,17.5-49.6c7.7-40.7-1.3-80.1-18.3-110.9
			c-3.7-6.7-8.6-14.2-13.2-20.1c-3.3-4.3-5.9-7.3-9.5-11.2c-2.6-2.8-5.5-6-8.3-8.6l-5.5-5c-0.5-0.4-0.7-0.5-1.2-1
			c-0.6-0.6-1.5-1.3-2.2-1.8l-7.2-5.6c-20.3-14.9-44.3-25.5-70.8-29.9C252,55.5,232.5,56.3,211.6,60.2L211.6,60.2z"/>
		<path class="st0" d="M210.7,489c0.8,0.6,1.2,1.4,1.9,2.2c0.6,0.8,1.1,1.5,1.7,2.1l17,22.3c3.2,4.2,4.3,7,8.8,6.9
			c2.8-0.1,3.9-1.2,5.2-2.7c1.2-1.5,2.3-3,3.4-4.4l17-22.3c0.6-0.8,2.8-3.8,3.4-4.2c-0.1,3.7-0.3,31.1,0.1,32.5l10,0
			c0.3-1.9,0.1-5.8,0.1-8c0-5.6,0.3-38.5-0.3-40.1c-0.7-1.8-2.7-2.7-5.3-2.8c-3.1-0.1-4.2,0.9-5.6,2.6
			c-8.7,11.1-17.5,23.1-26.2,34.5c-0.7,0.9-1.1,1.5-1.8,2.3c-0.8-0.5-22.3-29.3-24.6-32.4c-1.2-1.6-2.2-3.1-3.5-4.6
			c-3.4-4.3-10.1-2.4-11.1,0.4c-0.6,1.6-0.3,13.2-0.3,15.8c0,2.6-0.2,30.5,0.1,32.3l10,0L210.7,489L210.7,489z"/>
		<path class="st0" d="M389.8,493c-0.1-4.6-0.4-9.5,3.5-11.1c2.6-1.1,24.7-1.1,27.5,0c3.9,1.6,3.6,6.3,3.4,11.1L389.8,493L389.8,493
			z M389.8,504.3L389.8,504.3l34.5,0l0.1,17.3l11,0c0.4-1.7,0.1-7.8,0.1-9.9c0-6.8,0.4-24.1-0.5-28.9c-2.4-13.1-15.7-11.1-27.9-11.1
			c-5.8,0-13.2-0.4-18.5,0.9c-5.5,1.4-8.3,4.3-9.3,10.2c-1,5.5-0.4,30.9-0.5,38.7l11.1,0L389.8,504.3L389.8,504.3z"/>
		<path class="st0" d="M66,505.5c-0.2-5.1-0.1-11,0-16.2c0.1-6.7,1.9-7.9,8.5-8c5.5,0,11,0,16.4,0c6.1,0,9.4,0.3,9.8,6.8
			c0.3,5,0.1,11.2,0,16.2c-0.1,6.7-2.2,7.7-8.6,7.8c-5.5,0-11,0-16.4,0C69.6,512,66.3,512.1,66,505.5L66,505.5z M55,507.9L55,507.9
			c1.3,15.2,13,13.7,26.4,13.7c12.6,0,26.9,2.1,29.8-10.1c0.9-4,0.9-21.4,0.5-25.9c-0.7-8.9-4.5-12.6-13.3-13.5
			c-3.9-0.4-21.7-0.4-26.4-0.3c-3.8,0.1-8,0.6-11,2.2c-2.9,1.6-4.6,3.9-5.5,7.8C54.6,486,54.6,503.2,55,507.9L55,507.9z"/>
		<path class="st0" d="M299.5,498.3l0-16.9c7.4-0.2,15,0,22.4,0c10.8,0,13.9-0.9,13.9,8.4c0,9.3-2.2,8.6-13.7,8.6
			C314.9,498.3,306.6,498.7,299.5,498.3L299.5,498.3z M299.5,507.4L299.5,507.4c9.9-0.8,25.2,0.7,35.1-0.4c5.8-0.6,9.4-2.3,11.1-6.7
			c1.4-3.5,1.4-12.3,1-16.4c-1.5-12.6-11.2-12.2-23.2-12.2c-3.4,0-32.6-0.2-35.2,0l0.1,49.8l11,0L299.5,507.4L299.5,507.4z"/>
		<path class="st0" d="M405.4,291.6c1.4,3.2,1.3,5.7-0.1,8.7c-3.4,7.6-6.6,15.3-7.5,23.9c-0.6,6.3-0.1,13.4,1,19.5
			c0.7,4-0.2,4.1,4.9,5.5c9.1,2.6,18.1,1.9,25.7-3.1c2.4-1.6,6.8-5,8.5-7.2c0.7-1,1.5-1.9,2.3-2.9c7.6-9.6,5.4-14.4,16.4-24.3
			c0.2-0.2,0.2-0.2,0.4-0.4l0.2-0.3c-12.7,1.4-23.7,9-33.7,15.6c-1.7,1.1-3.1,2.2-4.9,3.4c-1.6,1.1-3.1,2.4-4.8,3.4
			c1.4-8.5,3.5-15.3,2-24.8C414.9,302.1,410.6,294.5,405.4,291.6L405.4,291.6z"/>
		<path class="st0" d="M91.4,347.8c2.5-9.1,2.8-21.5,0.6-30.7c-1-4.3-2.7-8.8-4.4-12.5c-0.8-1.9-1.9-4.1-2.6-6c-1.1-3,0.2-4.7,0.6-7
			c-1.3,0.8-2.8,2.2-3.7,3.2c-7.2,7.9-8.1,16.7-6.9,27.4c0.4,3.6,1.9,10.7,2,11.5c-1.3-1.1-3-2.3-4.6-3.4
			c-11.3-8-24.4-17.2-38.7-19.1c0.3,0.5,0,0.2,0.5,0.6c0.2,0.2,0.1,0.1,0.4,0.3c1.5,1.1,4.3,4.2,5.4,5.6c2.3,3,6.2,11.5,9,16
			C57.4,347,72.9,355.7,91.4,347.8L91.4,347.8z"/>
		<path class="st0" d="M106.4,314.8c0.5-1.1,0.9-3.7,1.3-5.2c2.5-8.3,2.3-3.2-2.5-13.1c-9.5-19.4-15.6-37.3-17.3-60.3
			c-2.1-28.5,2.9-55.6,14.9-81c0.7-1.6,1.6-2.9,2.2-4.5c-0.1-0.1-7.5-2.1-8.1-2.2c-1.7,1.9-6.8,14.9-8.1,18.5
			c-7.9,21.7-11,45.7-9.3,69c1.5,21.7,7.7,43.5,17.2,62.1C98.2,301.1,104.6,313.1,106.4,314.8L106.4,314.8z"/>
		<path class="st0" d="M415.7,259.2c0.7,2.6,1.9,4.1,1.7,7.5c-0.2,2.4-0.9,5.3-1.1,7.9c-1,10.6,1,20.7,5.6,30
			c1.7,3.4,1.1,3.6,5.6,3.4c12.2-0.4,22.4-7,27.1-17.6c3.5-7.8,3.8-16.2,6.1-21.1c1.1-2.3,2.7-4.4,3.3-5.6c-2.6,0.8-7.9,4.1-9.8,5.5
			c-5.9,4.3-10.4,9.5-15.1,15.2l-6.5,8.4c-0.4-7.5-1-15.3-3.8-21.4c-2-4.4-2.8-4.7-5.2-7.4C421.9,262.4,418.5,259.8,415.7,259.2
			L415.7,259.2z"/>
		<path class="st0" d="M67.3,308c1.4-1.3,3.9-7.6,4.8-10.2c5.9-16.7,1.2-28.8,1.7-33.1c0.3-2.4,1.2-3.8,1.6-5.6
			c-5.8,1.9-10.4,6.6-12.9,12.2c-2.7,6-3.7,14.2-3.8,21.5l-13.8-16.5c-4.4-4.8-11.7-10.4-17.7-12.6c1.1,2.2,2.7,3.9,3.8,6.8
			c3.3,8.6,2.5,25.8,18.8,34.1C54.8,307.1,60.8,308.5,67.3,308L67.3,308z"/>
		<path class="st0" d="M263.6,111.3c-4-0.9-4.6-0.3-8,1.3c-6.4,3.1-23,12.5-20.3,20.4c2.5,7.2,19.1,7.3,25.7,7.3
			c-0.6,4-4.8,8.2-8.2,9.2c-1.8,0.5-5.6-3.5-13.7-3.5c-3.6,0-12.4,1.4-15.1,2.9c1.8,1.1,8.7,1,12.6,9.2c1.2,2.5,2.1,5.3,2.8,8.2
			c0.3,1.5,0.6,3,0.8,4.6c0.2,1.2,0.3,4.2,0.6,5c0.4-0.5,1.8-4.4,2.1-5.4c3.5-9.1,5.4-6.4,12.4-10.9c5.5-3.5,10.8-10.6,10.7-20.3
			c0-0.9,0-3.7-0.5-4.5c-1,1.2-0.8,1.2-2.2,2.1c-2.8,1.7-8,0.2-11-0.6c-14.1-3.4-16-7.4-4.6-15.7c2.3-1.7,8.2-5.4,11.1-6.5
			c2.5,2.2,2.6,7.2,2.5,11c0.7-0.3,0.3,0,0.9-0.5l1.8-2.5c2-3.1,1.9-8.4,3.2-13.5c0.7-2.7,1.9-5.9,2.3-8.7c0.4-3.1-1.3-6.8-3-8
			c-4.9,0-24.5,4.3-26.3,3.8c-1.4-0.3-3.8-1.6-5.4-2.2l-11.2-4.1c-1.8-0.6-4.2-1.6-6-2c0.4,0.5-0.3-0.1,0.6,0.5l11.7,6.1
			c4.1,2.1,8.2,4.5,12.1,6.7c1.8,1,1.1,1,3.3,0.4l11.7-2.6c1.7-0.3,2.6,0.1,3.7,0.9c1.3,0.9,1.6,0.9,1.8,3
			C263.1,105.4,263.3,108.3,263.6,111.3L263.6,111.3z"/>
		<path class="st0" d="M123.9,439.4c0.5-1.3,0.4-18,0.5-22c0-2.9-0.3-2.9,1.1-3.1c7.7-1.3,13.9-2.6,21.4-5.1c2.6-0.9,11-3.5,11-6.6
			c-3.1-2.8-11.7-0.7-15.8,0.1c-15.3,2.9-26.2,5.8-41.7,2.7c-2.7-0.5-5.1-1.4-7.6-1.9c2,8.2,8.1,13.8,13.7,18.7
			c-0.6,9.1-10,11.2-13,13.1c1.7,1.5,10.9,3.3,13.9,3.7C112.5,439.5,118.6,439.6,123.9,439.4L123.9,439.4z"/>
		<path class="st0" d="M395.5,433.7c-5.4-2.3-9.9-5.4-10.8-12.1c0.5-0.6,4.3-3.7,6.3-6.1c3.5-4.2,5.2-6,7.4-12.7
			c-1.4,0.1-5.6,1.5-7.6,1.9c-15.3,3.2-26.8,0.2-41.9-2.6c-3-0.6-14.3-3.3-15.7,0.2c0.8,2.1,2.8,2.9,4.9,3.9
			c5.7,2.7,14.1,4.9,20.3,6.1c9.8,2,8.2,0.1,8.3,5c0,1.4,0,2.9,0.1,4.3c0.1,5.6-0.1,11.7,0.2,17.1c12.4,0.5,20.1-0.3,30.8-4
			C397.3,434.3,396.5,434.1,395.5,433.7L395.5,433.7z"/>
		<path class="st0" d="M121,521.6l49.8-0.1l0-10.8c-1.7-0.6-34-0.2-38.8-0.2l0-38.7l-11.1,0L121,521.6z"/>
		<path class="st0" d="M440.9,250.2c-0.5-0.3-0.5,0.2-0.8-2c-0.9-5.6-2.4-10.7-5.6-15.4c-2.6-3.8-7.8-8.5-14.1-9.9
			c2.5,5.4,3,2.7,3.1,11.1c0.1,9.3,2,14.6,6.2,22.4c1.1,2.1,4.3,7.4,5.7,8.8c4.8-0.1,10.4-2.8,13.7-4.9c15-9.5,11-27.4,12.4-34.1
			c0.6-3,1.7-4.6,2.5-7c-0.8,0.3-1.2,0.8-1.9,1.4c-0.7,0.5-1.1,1-1.8,1.5l-3.4,3.2c-2.3,2.3-4.3,4.4-6.3,7.3
			c-2.7,3.8-5.4,8.3-7.4,12.8c-0.3,0.7-0.6,1.5-1,2.4c-0.2,0.4-0.3,0.9-0.5,1.2C441.3,250.2,441.6,249.9,440.9,250.2L440.9,250.2z"
			/>
		<path class="st0" d="M55.7,265.2c0.7-1.4,3.6-5.3,5.4-8.6c9.4-17.1,4.9-23.3,6.9-28.9c0.8-2.1,1.2-2.6,2.1-4.1
			c0.4-0.7,0.1,0,0.4-0.8c-5.7,1-11.7,6.3-14,9.8c-1.5,2.3-2.9,5.1-3.9,8c-0.5,1.4-0.9,3-1.3,4.7c-0.3,1.5-0.3,3.8-1.2,4.7
			c-1-0.4-1.8-3.2-2.3-4.4c-2.8-6.8-8.3-14.9-13.6-20.2c-1.2-1.2-2.1-1.9-3.4-3.2l-3.9-3c0.3,1.4,1.7,3.2,2.5,6.8
			c0.6,2.7,0.3,6.1,0.4,9c0.4,11,3.3,19.2,12,25.1C45.1,262.5,51,265,55.7,265.2L55.7,265.2z"/>
		<path class="st0" d="M163,345.3c-7.8,0.1-12.6,1-18.7-3.9c-2.3-1.9-9.3-9.1-11.3-11.5c-1.2-1.4-2.4-2.6-3.5-4.1
			c-2.7-3.6-7.8-10.1-8.4-14.7c-0.9-7,1.9-19.5,3.7-26.5l3.2-11.9c-1.1,1.5-2.4,4.5-3.3,6.3c-4.1,8-12.4,27-13.7,35.1
			c-0.9,5.6,1.5,9.2,5.1,13.7l10.2,11.9c0.6,0.6,0.7,0.7,1.1,1.3c0.7,0.9,1.6,1.6,2.3,2.4c6.4,6.9,10.7,9.3,20.5,8.5
			c3.6-0.3,5.2-0.3,7.8-2.1C159.7,348.6,162,346.6,163,345.3L163,345.3z"/>
		<path class="st0" d="M441.9,211.4c-0.5-0.2-0.3,0.3-1.1-1.5c-0.3-0.7-0.6-1.3-0.9-1.9c-1.6-3.2-4.1-7.7-6.3-10.1
			c-3.3-3.7-7.4-6.9-14.7-7.1c0.3,0.6,1.1,1.1,1.6,1.6c6.2,7-0.8,13.7,15.6,30.1c1,1,2.6,2.7,3.7,3.4c5-1.2,10.7-5.7,12.8-8.4
			c10-13.1,3-24.7,3.7-32.8c0.1-1.7,0.8-3.7,0.8-5.2C446.6,190.1,443.1,209.8,441.9,211.4L441.9,211.4z"/>
		<path class="st0" d="M51.2,225.9c3.6-1.8,10.7-10.9,12.9-15.1c3.9-7.3,2.5-14.7,6.5-18.3c0.3-0.3,1.4-1.2,1.7-1.7
			c-6.9-0.2-12,3.6-14.7,7c-1.7,2.2-2.9,3.9-4.4,6.5c-0.6,1.1-3.1,6.6-3.9,7.1c-0.8-0.9-2.3-7.1-2.9-8.8c-2-5.9-4-11-7.2-16.2
			l-5.2-6.8c0.4,2.5,1.1,4.7,0.9,7.4c-0.3,5.9-3.4,13.2-0.7,22.2C36.6,217.5,43.1,223.3,51.2,225.9L51.2,225.9z"/>
		<path class="st0" d="M54,187.8c2.5-0.8,9.4-5.3,11.3-7.2c3.7-3.8,5.3-5.5,8.2-10.9c2.7-5,1.9-4.4,5.9-6.6
			c-1.4-1.1-6.1-0.7-7.9-0.2c-4.6,1.1-8.5,4.4-11.5,7.6c-0.7,0.7-1.7,1.7-2.3,2.4c-0.5,0.6-1.5,2.1-2.3,2.3c-0.4-0.8-0.2-2.7-0.2-4
			c0-4.7-0.3-10.1-1.3-14.5c-0.4-1.9-2.7-9.5-4-11.3c-0.3-0.4-0.2-0.2-0.4-0.5c0.4,10.8-5.6,13.4-5.9,23.7
			c-0.2,6.5,2.5,11.5,6.4,15.8C50.6,185.1,53,187.3,54,187.8L54,187.8z"/>
		<path class="st0" d="M435.8,175.1c-0.9,0-1.1-0.8-2.2-2l-4.6-4.9c-0.8-0.7-1.7-1.4-2.6-2.1c-1.7-1.3-3.7-2.5-6.4-3.1
			c-2.1-0.5-6.6-0.9-8.2,0.2c3.8,2.3,3.2,1.8,5.8,6.5c2.2,4.2,5.8,9.3,9.7,12.2c2.2,1.6,7.6,5.5,10,6c5.9-4.9,10.7-10.2,10.4-19.3
			c-0.3-10.2-6.4-13.2-5.9-23.9c0,0-0.1,0.1-0.1,0.1l-0.3,0.5c0,0-0.3,0.7-0.4,0.8l-2,4.9C434.9,162.1,436.5,173,435.8,175.1
			L435.8,175.1z"/>
		<polygon class="st0" points="180.1,521.6 191.2,521.5 191.1,471.7 180,471.8 		"/>
		<polygon class="st0" points="354.8,521.5 365.7,521.5 365.7,471.8 354.7,471.8 		"/>
		<path class="st0" d="M427,144.4c-1,0.1-1.9-0.8-2.6-1.2c-4.3-2.6-9.9-5.5-15.1-5.2c-1.9,0.1-5,0.9-6.1,2c2.4,1.3,3,0.3,6.6,4.3
			c1.6,1.8,3.5,3.8,5.7,5.2c3.1,2,11.5,5.4,15.9,6c2-1.7,4.3-6.5,5.1-9.3c1.1-4.1,0.3-8.4-1.4-11.9c-3.2-6.6-6.8-9.4-8.8-12.9
			c-1.1-1.9-1.3-3-2-5.2c-1.3,5.4-0.6,16,1,21.9C425.7,139.5,427.1,143.5,427,144.4L427,144.4z"/>
		<path class="st0" d="M59.5,155.5c3,0.1,15.7-4.7,19.1-8.3c1-1,1.7-1.7,2.7-2.7c2.1-2.2,2.6-3.2,6.6-4.3c-1-1.3-4.5-1.9-6-2
			c-7.6-0.6-16.1,6.3-17.8,6.5c-0.1-3,4.8-8.9,2.8-28.1c-1.8,3.2,0.3,2.4-5.1,9.2c-2.2,2.8-3.9,5-5.7,8.6
			C52.1,142,54.9,150.4,59.5,155.5L59.5,155.5z"/>
		<path class="st0" d="M282.9,385.7c2.9-0.2,10.2-2.5,13.1-3.5c13.9-4.6,21.1-7.9,33.3-14.7c0.8-0.4,0.6-0.2,1.1-0.9
			c-4.2-2.1-5-3.4-7.4-4.8c-1.3,0.3-3,1.5-4.3,2.2c-1.4,0.7-2.7,1.3-4.1,2c-2.9,1.5-5.7,2.7-8.7,3.9c-4.5,1.9-9.3,3.6-14,5
			c-1.3,0.4-3.6,0.9-4.7,1.4C286.8,382.2,285.3,382.6,282.9,385.7L282.9,385.7z"/>
		<path class="st0" d="M411.9,120.1c-2.4-0.5-11.3-9.8-20.4-4.1c0.9,0.5,2,0.6,3.1,1.3c2,1.3,4.1,4.3,7.3,6.5
			c2.7,1.9,9.5,4.8,13.6,4.7c1.6-2.5,3-3.3,4-7.7c0.8-3.6,0.2-7.1-1.2-10.1c-3-6.6-6.6-6.2-9.1-14.5c-1.2,5.9-0.6,12.8,1,18.5
			C410.7,116.5,411.7,118.5,411.9,120.1L411.9,120.1z"/>
		<path class="st0" d="M75.6,128.6c4.4-0.3,10.5-2.7,13.5-4.7c5-3.5,4.2-5.5,9.6-7.5c0.1,0,0.3-0.1,0.4-0.1c0.3-0.2,0.3-0.2,0.5-0.3
			c-7.1-3.4-11.6-1.5-18.2,2.9c-0.7,0.5-1.3,1.3-2.3,1.2c0.9-3.5,2.4-6.4,3-10.7c0.3-2.4,0.6-11-0.2-13c-1.7,3.3,0.7,1.4-4.2,7.6
			c-1.9,2.4-3.4,3.8-4.9,7C69.5,117.9,71.7,123.3,75.6,128.6L75.6,128.6z"/>
		<path class="st0" d="M248.1,30.5l-12.5,0c0.5,0.8,9.3,7,9.9,7.3l-3.8,11.5c1-0.4,3.8-2.7,4.9-3.5c1.4-1.1,3.4-2.7,4.7-3.5
			c1.7,1.1,3.4,2.4,5.1,3.6c1.6,1.2,3.5,2.7,5.1,3.6c-0.6-2.5-3.7-10.4-3.7-12.2l6.5-4.9c0.7-0.5,1.6-1.1,2.2-1.8l-10.7,0
			c-0.8-0.2-1.9-4.8-2.1-5.5c-0.4-1.2-1.4-4.9-1.9-5.6L248.1,30.5L248.1,30.5z"/>
		<path class="st0" d="M393.3,99c-2.6-0.6-8.6-6.9-17-1.5c2.9,0.3,3.2,0.8,4.9,2.3c1.1,0.9,2.8,2.2,4.2,3c2.8,1.6,7.8,3,11.5,2.7
			c2.8-4.1,3.3-10.4,0.7-14.8c-3.4-5.8-6.1-5.7-8.1-9.7l-0.5-0.8c-0.3,5.8,0.3,9.8,2.5,14.8C392,96,393.2,98,393.3,99L393.3,99z"/>
		<path class="st0" d="M94.1,105.5c3.9,0.2,8.7-1,11.6-2.7c4.2-2.4,5.2-5.2,9-5.3c-1.1-1.7-6.6-2.5-8.9-2c-3.9,0.8-6.9,3.3-8.1,3.4
			c0.1-0.7,2.5-4.8,3.4-8.1c0.9-3.4,1.2-7.2,1-10.9c-0.6,1-1,2.3-1.7,3L98,85.4C90.4,92.2,90.5,97.1,94.1,105.5L94.1,105.5z"/>
		<path class="st0" d="M181.6,390.9c-0.2-4.5-0.2-8.2,1.7-11.9c0.9-1.7,1.7-2.8,2.8-4.2c1-1.3,2.6-2.3,3.4-3.7
			c-6.2,0.5-13.6,2.5-16.4,7.9c-2.2,4.3-1.3,7.7-0.6,12L181.6,390.9z"/>
		<path class="st0" d="M145.2,356.2c1.3,1.7,12.7,8.9,14.1,9.8c1.3,0.8,2.5,1.5,3.8,2.2c1.8,1,2,1.8,3.9,0.8c1.9-1,6.4-2.7,7.7-3.9
			c-4.9-2.9-7.7-4.1-13.2-7.5C152.4,351.9,161.5,356.8,145.2,356.2L145.2,356.2z"/>
		<path class="st0" d="M281.4,36.7l-8-1.7c0.4,0.8,4.4,5.4,5.2,6.6l-4.6,8.3l8.7-3.9l5.9,6.5c0,0,0.1,0.1,0.2,0.1l-1-9.2l8.2-3.7
			l-8.9-2l-1.2-9.2L281.4,36.7L281.4,36.7z"/>
		<path class="st0" d="M214.3,37.8l-8.8,1.8l8,3.9l-1,9.1l6.1-6.6l8.7,4l-4.6-8.3c0.4-0.6,1-1.2,1.4-1.7c0.6-0.8,0.8-1.1,1.4-1.7
			c0.6-0.6,2.3-2.6,2.6-3.3l-8.1,1.7l-4.2-8.2C215.1,29.6,214.6,36.1,214.3,37.8L214.3,37.8z"/>
		<path class="st0" d="M146.4,317.9c0.9,1.9,5.3,5.7,7.1,6.9c8,5.1,20.9,2.1,15.8-4.9c-1.4-1.9-2-1.9-5.1-1.7
			C156.6,318.5,154.2,318.2,146.4,317.9L146.4,317.9z"/>
		<path class="st0" d="M146.4,328.7c1,2.5,1.9,4.5,3.2,6.5c4,6,10.7,6.8,17.3,5.1c2.7-0.7,3.1-4.3,2.9-6.7c-0.2-2.2-0.1-2.6-2.2-2.1
			c-2.3,0.5-5.1,2.1-7.2,2.3C155.7,334.1,149.2,329.8,146.4,328.7L146.4,328.7z"/>
		<path class="st0" d="M167.9,391c-0.4-8.5-0.4-12.4,5.1-19.1l0.7-0.9c-2.3,0.4-4.3,1.6-5.9,2.6c-5.9,3.9-7.9,9.9-6.8,17.5
			L167.9,391L167.9,391z"/>
		<path class="st0" d="M162.1,37.1c0,1.2,0.4,2,0.2,3l-2.9,0.5l0.3,2.5l3.1-0.4l0.6,3.4c-4.9,2.3-2.7,9.6,2.7,8.8
			c5-0.7,5.6-8.2-0.1-9.3l-0.6-3.4l3-0.5l-0.2-2.5l-3.2,0.4l-0.4-2.9L162.1,37.1L162.1,37.1z"/>
		<path class="st0" d="M371.6,75.4c0.3,3.8,3.8,11.1,7.6,13.7c1.3,0.9,4.3,2,5.4,0.5C389.1,83.8,374.5,75.7,371.6,75.4L371.6,75.4z"
			/>
		<path class="st0" d="M119.4,75.5c-2.4-0.4-17.4,8.2-13,14c1.9,2.5,6.7-0.7,8.9-4C116.6,83.8,119.3,78.2,119.4,75.5z"/>
		<path class="st0" d="M225.9,380.7c-0.3,1.1-0.5,3.1-0.7,4.3c-0.2,1-0.9,3-0.9,3.7l11.8,1c-0.6-3.1-1.5-4.3-1.5-8.2L225.9,380.7
			L225.9,380.7z"/>
		<path class="st0" d="M229.2,426.7c1.5,0.2,4.2,0,5.2-0.9c1.3-1.1,1.5-3,1.4-5.2c-0.2-5.3-2.1-5.9-7.2-5.6
			C228.4,416.2,229,425.1,229.2,426.7L229.2,426.7z"/>
		<path class="st0" d="M226.2,106.2c1.4-0.4,3.4-2.5,4.2-3.4l8.4,1L238,103c-0.3-0.2-0.6-0.4-1-0.7c-0.7-0.5-1.4-1-2.2-1.4
			c-2.5-1.5-6.7-3.4-9.5-4.6c-1.6-0.7-3.6-1.7-5.2-2.1c0.7,1.1,1.3,1.6,2.1,2.6C225.1,100.2,226.8,102,226.2,106.2L226.2,106.2z"/>
		<path class="st0" d="M296,417.6c-3.9,1.4-2.4,8.6,2.2,6.8C301.8,423,300.4,416,296,417.6z"/>
		<path class="st0" d="M354.7,471.8l11,0l0,49.7l-11,0L354.7,471.8L354.7,471.8z M354.6,521.5L354.6,521.5c1,0.4,10.1,0.4,11.3,0
			l-0.1-49.8c-1.2-0.5-10.2-0.5-11.3,0L354.6,521.5L354.6,521.5z"/>
		<path class="st0" d="M246.4,425.3l6.6,0.2l-0.2,5.7l-6.4-0.2L246.4,425.3z M246.2,431.3L246.2,431.3l6.8,0.1l0.2-6.1l-7-0.2
			L246.2,431.3L246.2,431.3z"/>
	</g>
</g>
</svg>
