<?xml version="1.0" encoding="UTF-8" standalone="no"?><!DOCTYPE svg PUBLIC "-//W3C//DTD SVG 1.1//EN" "http://www.w3.org/Graphics/SVG/1.1/DTD/svg11.dtd"><svg width="100%" height="100%" viewBox="0 0 1043 1043" version="1.1" xmlns="http://www.w3.org/2000/svg" xmlns:xlink="http://www.w3.org/1999/xlink" xml:space="preserve" xmlns:serif="http://www.serif.com/" style="fill-rule:evenodd;clip-rule:evenodd;stroke-linejoin:round;stroke-miterlimit:2;"><g><path d="M515,87.917l0.833,22.083c0,1.667 -0.833,2.917 -2.5,2.917l-7.083,0.417c-1.667,0 -2.5,-0.833 -2.5,-2.5l0.417,-54.167c0,-2.5 2.083,-4.167 4.167,-4.167c0.833,0 1.667,0.417 2.083,0.417c10,5.833 8.75,21.667 12.5,31.25c0.417,1.25 1.667,1.667 2.5,1.25c0.417,0 0.833,-0.417 1.25,-0.833l16.25,-29.583c1.25,-2.5 4.167,-3.333 6.667,-1.667c1.667,0.833 2.5,2.5 2.5,4.167l0,50.417c0,1.667 -0.833,3.333 -2.083,4.167c-3.75,2.5 -6.25,2.5 -8.333,0.417c-1.25,-1.25 -1.667,-3.333 -1.667,-5.833c0.417,-7.083 0.417,-13.75 0,-20c0,-0.833 -0.833,-1.667 -1.667,-1.25c-0.417,0 -0.833,0.417 -1.25,0.833l-8.333,16.667c-0.833,1.25 -2.5,2.083 -3.75,1.25c-0.417,0 -0.417,-0.417 -0.833,-0.417c-4.583,-4.583 -6.25,-10 -5,-16.667c0,-0.417 -0.417,-0.833 -0.833,-1.25l-2.083,0c-0.833,0.417 -1.25,0.833 -1.25,2.083" style="fill:#fff;fill-rule:nonzero;"/><path d="M474.167,117.917c-12.917,1.667 -24.583,-11.25 -26.667,-28.333c-2.083,-17.083 6.667,-32.083 19.167,-33.75c12.917,-1.667 24.583,11.25 26.667,28.333c2.083,17.083 -6.667,32.5 -19.167,33.75m-1.667,-12.083c5.417,-0.833 9.167,-9.583 7.917,-20c-1.25,-10.417 -6.667,-18.333 -12.083,-17.917c-5.417,0.833 -9.167,9.583 -7.917,20c1.25,10.417 6.667,18.333 12.083,17.917m127.083,-16.25c14.583,30 -19.583,29.583 -36.667,25.833c-1.25,-0.417 -2.5,-1.667 -2.083,-2.917l7.5,-54.167c0,-1.25 0.833,-2.083 2.083,-1.667c15.417,0.833 41.25,7.083 29.167,29.167c-0.417,1.25 -0.417,2.5 0,3.75m-11.25,-10.417c2.083,-2.083 2.083,-5.833 -0.417,-8.333c-2.5,-2.5 -5.833,-2.5 -8.333,-0.417c-2.083,2.083 -2.083,5.833 0.417,8.333c2.5,2.5 6.25,2.917 8.333,0.417m-12.083,12.083l0,13.333c0,0.833 0.833,1.667 1.667,1.667l0.417,0c6.25,0 11.667,-3.333 11.667,-7.917l0,-1.25c0,-4.583 -5,-7.917 -11.667,-7.917l-0.417,0c-0.833,0.417 -1.667,1.25 -1.667,2.083" style="fill:#fff;fill-rule:nonzero;"/><path d="M625.833,65.833l4.167,1.25c2.083,0.417 3.75,2.917 2.917,5l-12.5,50.417c-0.417,2.083 -2.917,3.75 -5,2.917l-4.167,-1.25c-2.083,-0.417 -3.75,-2.917 -2.917,-5l12.5,-50.417c0.417,-2.083 2.917,-3.333 5,-2.917Z" style="fill:#fff;fill-rule:nonzero;"/><path d="M429.167,113.75l10.417,-3.333c0.833,-0.417 2.083,-0.417 2.917,0.417c3.333,1.667 4.583,4.583 4.167,8.333c-0.417,1.667 -1.25,2.5 -2.5,2.917l-24.583,5.417c-1.667,0.417 -2.917,-0.417 -3.333,-2.083l-12.083,-52.5c-0.417,-1.667 0.417,-3.333 2.083,-4.167c3.333,-1.25 5.833,-1.667 7.5,-1.25c1.667,0.417 2.917,2.083 3.333,5.417c2.5,12.917 5.417,25.833 8.75,38.75c0.417,1.25 1.667,2.083 3.333,2.083" style="fill:#fff;fill-rule:nonzero;"/><path d="M632.083,129.583c-3.333,-1.25 -4.583,-2.917 -3.333,-5.417c10,-15.417 20,-30.833 30,-45c2.083,-3.333 6.667,-4.167 10,-1.667c2.083,1.25 3.333,3.75 2.917,6.25l-1.667,54.167c0,2.083 -1.667,3.75 -4.167,3.75l-0.417,0c-5.417,-0.833 -8.333,-4.167 -8.75,-9.583c0,-1.25 -0.417,-2.083 -1.667,-2.5c-5.833,-4.583 -11.667,-4.583 -17.5,-0.417c-0.833,0.833 -3.333,0.833 -5.417,0.417m19.167,-13.75l5.417,1.667c0.833,0.417 1.667,0 2.083,-1.25l0,-0.417c2.917,-9.583 3.75,-17.5 1.25,-18.333l-0.417,0c-2.083,-0.833 -6.667,6.25 -9.583,15.833l0,0.417c-0,0.833 0.417,1.667 1.25,2.083m-261.667,21.667c-12.083,4.167 -26.667,-5.833 -32.083,-22.083c-5.417,-16.25 -0.417,-32.917 11.667,-37.083c12.083,-4.167 26.667,5.833 32.083,22.083c5.833,16.667 0.417,32.917 -11.667,37.083m-4.167,-11.25c5.417,-2.083 6.667,-11.667 3.333,-21.667c-3.75,-10 -10.833,-16.667 -16.25,-14.583c-5.417,2.083 -6.667,11.667 -3.333,21.667c3.75,10 11.25,16.667 16.25,14.583" style="fill:#fff;fill-rule:nonzero;"/><path d="M696.667,124.167c-2.5,6.25 -6.25,25.833 -15.417,22.917c-3.333,-0.833 -5.417,-4.583 -4.167,-7.917c0,-0.417 0.417,-0.833 0.417,-0.833l21.667,-45c1.25,-2.083 3.75,-3.333 5.833,-2.083c1.25,0.833 2.083,1.667 2.5,3.333l5.417,32.917c0,0.833 0.833,1.667 1.667,1.25c0.417,0 0.833,-0.417 1.25,-0.833l9.167,-20.833c1.25,-2.917 3.333,-3.75 6.667,-2.5c4.583,2.083 5.833,4.583 4.167,8.333c-7.5,15 -14.167,30.417 -20.417,45c-0.833,2.083 -3.333,3.333 -5.417,2.917c-2.917,-0.417 -5,-1.667 -5.833,-3.333c-0.417,-0.833 -0.417,-2.917 0,-5.833c2.083,-8.75 0.833,-17.917 -3.75,-27.917c-0.417,-0.833 -1.667,-1.25 -2.5,-0.833c-0.833,0 -1.25,0.417 -1.25,1.25m-339.583,15.417c1.25,0 2.917,0.833 3.333,2.083c1.25,4.583 -0.417,7.5 -4.583,8.75c-34.583,9.583 -53.75,-47.917 -21.667,-56.25c2.5,-0.833 5,0.833 5.833,3.333c0.417,2.083 -0.417,4.167 -2.083,5.417c-5.417,3.333 -7.5,8.75 -6.667,16.25c1.25,15.417 10,22.083 25.833,20.417" style="fill:#fff;fill-rule:nonzero;"/><path d="M287.917,147.5l-12.917,-18.333c-1.25,-1.667 -0.833,-2.917 0.833,-4.167l5.417,-4.167c1.25,-0.833 2.917,-0.833 3.75,0.417l29.167,43.333c2.083,2.917 1.25,6.667 -1.667,8.333c-2.083,1.25 -5,1.25 -7.083,0c-9.167,-6.667 -18.75,-11.667 -29.583,-15c-2.5,-0.833 -2.917,0 -1.667,2.083l13.75,20c2.5,3.75 1.667,6.667 -2.083,8.75c-3.75,2.083 -6.25,1.667 -8.333,-1.25c-9.583,-14.583 -18.75,-29.167 -28.333,-43.75c-1.25,-1.667 -0.833,-4.167 1.25,-5.417c0.833,-0.833 2.083,-0.833 3.333,-0.417l32.5,10.833c0.833,0.417 1.667,0 1.667,-0.833c0.417,0.417 0.417,0 0,-0.417m451.667,20.833c-4.167,-1.25 -8.333,-0.417 -12.083,1.25c-2.917,1.25 -6.25,0.417 -7.5,-2.5c-1.25,-2.5 -0.833,-5.417 1.25,-7.083l40.833,-34.583c2.5,-2.083 6.667,-2.083 8.75,0.833c1.25,1.667 1.667,3.75 1.25,5.833l-13.75,52.917c-0.417,1.667 -1.667,2.5 -3.333,2.083c-5.417,-0.833 -7.917,-3.75 -7.917,-9.167c0,-4.167 -2.917,-8.333 -7.5,-9.583m4.167,-12.083c-0.417,0.417 -0.417,1.25 0,2.083l0.417,0l6.25,4.167c0.833,0.417 1.667,0.417 2.083,-0.417l0,-0.417l5.833,-16.25c0.417,-0.833 0,-1.667 -0.833,-1.667c-0.417,0 -0.833,0 -1.25,0.417l-12.5,12.083Z" style="fill:#fff;fill-rule:nonzero;"/><path d="M556.25,148.75c0.833,0 1.667,0.833 1.667,1.667c0.417,2.083 -0.417,3.75 -2.083,5c-11.25,7.917 -22.5,16.25 -33.75,23.75c-0.833,0.833 -2.083,0.833 -2.917,0l-33.333,-25.417c-1.25,-0.833 -1.667,-2.917 -0.417,-4.167c0.417,-0.417 1.25,-0.833 1.667,-1.25c22.917,-2.917 45.833,-2.917 69.167,0.417" style="fill:#fff;fill-rule:nonzero;"/><path d="M210.109,156.771c0.245,-2.749 2.118,-4.831 4.179,-4.647c2.061,0.184 3.536,2.565 3.291,5.313c-0.245,2.749 -2.118,4.831 -4.179,4.647c-2.061,-0.184 -3.536,-2.565 -3.291,-5.313Z" style="fill:#fff;"/><path d="M808.75,157.5c1.25,-1.25 3.333,-1.25 4.583,-0.417l4.167,3.75c12.5,11.25 14.167,29.583 3.75,41.25l-2.083,2.5c-10.417,11.667 -29.167,12.083 -41.667,1.25l-4.167,-3.75c-1.25,-1.25 -1.25,-3.333 -0.417,-4.583l35.833,-40Zm2.083,15l-21.25,25c-0.417,0.417 -0.417,0.833 0,0.833l0.417,0c5.417,4.583 15,2.917 20.833,-4.167l0.833,-0.833c5.833,-7.083 6.25,-16.25 0.417,-21.25l-0.417,0c-0.417,0 -0.833,0 -0.833,0.417" style="fill:#fff;fill-rule:nonzero;"/><path d="M495.833,201.25c6.667,5.417 10.833,7.083 10.833,16.667l0,94.167c0,4.583 -2.5,8.75 -6.667,11.25l-173.333,100c-2.917,1.667 -6.25,2.083 -9.583,1.25c-23.75,-7.5 -47.5,-15.833 -71.667,-25.833c-6.25,-2.5 -9.167,-6.667 -10.833,-12.917c-5.833,-22.917 -12.5,-46.25 -19.167,-68.75c-1.667,-5 -1.25,-7.917 2.083,-12.083c54.583,-75.417 126.667,-124.583 217.083,-147.5c2.083,-0.417 3.75,0 5.417,1.25c19.167,13.75 37.917,28.333 55.833,42.5m111.25,-44.167c87.917,20.833 169.583,77.083 220.417,152.083c0.833,1.25 1.25,2.5 0.833,4.167l-22.5,78.333c-0.417,1.25 -1.25,2.5 -2.083,2.917c-3.75,2.5 -8.75,4.583 -14.583,7.083c-26.667,9.583 -62.5,28.333 -78.333,19.167c-55.833,-32.5 -111.667,-65 -167.917,-97.5c-4.583,-2.5 -7.5,-7.5 -7.5,-12.917l0,-94.167c0,-5 2.5,-9.583 6.25,-12.5l61.25,-45.417c1.667,-1.25 2.917,-1.25 4.167,-1.25" style="fill:#fff;fill-rule:nonzero;"/><path d="M260,211.25c-9.583,8.333 -26.667,4.583 -37.917,-7.917c-11.25,-12.917 -12.5,-30 -2.917,-38.333c9.583,-8.333 26.667,-4.583 37.917,7.917c11.25,12.917 12.5,30 2.917,38.333m-8.333,-8.75c4.167,-3.75 2.5,-12.917 -4.583,-21.25c-6.667,-7.917 -15.833,-11.667 -20,-7.917c-4.167,3.75 -2.5,12.917 4.583,21.25c6.667,7.917 15.833,11.25 20,7.917" style="fill:#fff;fill-rule:nonzero;"/><path d="M196.667,190.833l37.5,36.25c1.667,1.667 1.667,4.167 0,5.417l-3.333,3.333c-1.667,1.667 -4.167,1.667 -5.417,0l-37.5,-36.25c-1.667,-1.667 -1.667,-4.167 0,-5.417l3.333,-3.333c1.667,-1.25 3.75,-1.25 5.417,0Z" style="fill:#fff;fill-rule:nonzero;"/><path d="M845,209.167c0.833,4.583 2.917,7.917 7.083,10.417c1.25,0.833 1.667,1.667 2.083,2.917c0.833,4.583 -0.833,7.5 -4.583,9.167c-1.25,0.417 -2.5,0 -3.333,-0.833l-9.583,-9.583c-0.833,-0.833 -2.083,-0.833 -3.333,0l-9.167,9.167c-1.25,1.25 -1.25,2.5 0,3.75l7.917,7.917c1.25,1.25 1.25,2.5 0,3.333l-4.167,4.167c-1.25,1.25 -3.333,1.25 -4.583,0l-13.75,-15c-2.083,-2.5 -2.083,-6.25 0.417,-8.333l37.917,-35.417c0.833,-0.833 2.083,-0.833 2.917,0l16.667,17.917c1.25,1.25 1.25,2.5 0,3.75l-5,4.167c-0.833,0.833 -2.083,0.833 -3.333,0l-10,-9.583c-0.833,-0.833 -2.5,-0.833 -3.333,0c-0.417,0.833 -0.833,1.25 -0.833,2.083m-646.667,37.083c3.333,1.25 6.667,0 10.833,-3.333c0.833,-0.833 2.083,-1.25 3.333,-1.25c4.167,-0.417 6.667,1.25 7.917,5c0.417,0.833 0,2.083 -0.417,2.5c-24.167,26.25 -64.583,-5.417 -47.5,-39.583c0.417,-1.25 2.083,-1.667 3.333,-1.25l4.167,2.083c1.667,0.833 2.083,1.667 1.667,3.333c-5,16.667 0.417,27.5 16.667,32.5m670.833,16.667l-20,15c-1.25,0.833 -2.083,0.833 -2.917,-0.417l-5,-5.833c-0.833,-1.25 -0.833,-2.917 0.417,-4.167l45.417,-32.917c0.833,-0.833 2.083,-0.417 2.917,0.417l13.333,20c1.667,2.5 0.833,5.417 -1.25,7.083c-2.083,1.25 -4.583,1.25 -6.667,-0.833l-5.417,-5.417c-0.833,-0.833 -1.667,-1.667 -2.917,-2.083c-3.333,-1.667 -5.417,-1.667 -6.25,0.833c-0.417,0.833 0,2.083 0.417,2.5c3.333,3.75 5.833,7.083 7.083,10.417c0.833,2.917 -0.417,5.833 -2.917,6.667c-2.083,0.833 -4.583,0 -6.25,-1.667l-7.083,-9.583c-0.417,-0.833 -1.667,-1.25 -2.917,0m-676.667,18.333c-9.583,0 -21.25,7.083 -12.917,17.917c0.833,1.25 0.833,2.917 -0.417,3.75l-5,4.583c-1.25,0.833 -2.083,0.833 -2.917,0c-9.167,-10.833 -31.667,-33.75 -35.417,-46.667c-0.833,-2.917 0.833,-5.833 3.75,-6.667c0.833,-0.417 2.083,-0.417 2.917,0l51.667,15.417c3.333,0.833 5,4.583 4.167,7.5c-0.833,2.083 -2.917,3.75 -5.833,4.167m-26.667,2.083c0.417,0.833 1.667,0.833 2.5,0l0.417,-0.417l4.167,-6.25c0.417,-0.833 0.417,-1.667 -0.417,-2.083l-0.417,0l-13.75,-5c-0.833,-0.417 -1.667,0 -2.083,0.833c-0.417,0.417 0,1.25 0.417,1.667l9.167,11.25Z" style="fill:#fff;fill-rule:nonzero;"/><path d="M885.833,300.417c-4.167,2.5 -5.833,7.917 -3.333,12.5c0,0 0,0.417 0.417,0.417c4.167,6.25 9.583,5 15.417,1.667c9.583,-5.833 18.75,-10.833 27.917,-15.417c2.5,-1.25 5.833,-0.417 7.083,2.5c1.667,3.75 1.25,6.667 -2.083,8.75c-13.75,8.75 -40.417,28.75 -55.417,12.083c-23.333,-25.417 19.167,-42.083 35,-51.25c1.25,-0.833 2.5,-0.417 3.333,0.417l4.583,3.75c1.667,1.25 1.667,3.75 0.417,5c-0.417,0.417 -0.417,0.417 -0.833,0.833l-32.5,18.75Z" style="fill:#fff;fill-rule:nonzero;"/><path d="M928.359,284.246c0.204,-2.29 2.788,-3.934 5.765,-3.668c2.978,0.266 5.229,2.341 5.025,4.632c-0.204,2.29 -2.788,3.934 -5.765,3.668c-2.978,-0.266 -5.229,-2.341 -5.025,-4.632Z" style="fill:#fff;"/><path d="M150.833,330.833c4.583,0.833 7.083,3.75 7.5,8.333c0,2.917 -2.083,5.417 -5,5.417c-0.833,0 -1.667,0 -2.5,-0.417l-47.083,-24.583c-1.25,-0.417 -1.667,-1.667 -1.25,-2.917c4.583,-10.833 19.167,-35.833 33.75,-22.083c6.667,6.25 3.75,15.833 1.25,23.75c-0.833,2.083 0,2.5 2.083,2.083l28.75,-7.083c1.667,-0.417 2.083,0.417 2.083,2.083c-1.667,9.167 -6.667,12.917 -15.833,11.667c-0.833,0 -1.667,0 -2.5,0.833l-1.667,1.25c-0.417,0.417 -0.417,1.25 0,1.667l0.417,0m-32.5,-17.083l5.833,2.917c0.833,0.417 2.083,0 2.5,-0.833l0.417,-0.833c2.917,-5.417 3.333,-11.25 0.833,-12.083l-0.833,-0.417c-2.5,-1.25 -6.667,2.5 -9.167,7.917l-0.417,0.417c-0.833,1.25 -0.417,2.083 0.833,2.917" style="fill:#fff;fill-rule:nonzero;"/><path d="M894.583,361.667l-2.917,-6.667c-0.833,-1.25 -0.417,-2.5 1.25,-2.917l40,-17.083c1.667,-0.833 2.083,-1.667 1.25,-3.333l-2.083,-4.583c-0.833,-2.5 0,-5.417 2.5,-6.25c3.333,-1.25 5.417,-0.417 7.083,2.5c4.167,8.333 8.333,16.667 12.5,25.417c0.417,1.25 0,2.5 -0.833,3.333l-5,2.917c-1.25,0.833 -3.333,0.417 -4.167,-1.25l-3.333,-6.25c-0.417,-1.25 -2.083,-1.667 -2.917,-1.25l-39.167,17.083c-1.667,0.417 -3.333,0 -4.167,-1.667m-775.833,-1.667l14.167,5.833c1.25,0.417 2.5,0 2.917,-1.25l4.167,-11.667c0.417,-1.25 1.25,-1.667 2.5,-1.667c3.333,0 5.833,1.25 6.667,4.167c0.417,1.667 0,3.75 -1.25,6.667c-2.5,5.833 -4.583,11.25 -6.25,17.083c-0.417,1.667 -2.5,2.917 -4.167,2.083l-0.417,0l-50.833,-20c-1.667,-0.833 -2.083,-1.667 -1.25,-3.333l10.417,-22.917c0.833,-1.667 1.667,-1.667 3.333,-1.25l5.417,2.917c1.25,0.833 1.667,2.083 0.833,3.333c0,0 0,0.417 -0.417,0.417c-2.5,3.333 -4.167,7.083 -4.583,10.833c-0.417,2.083 1.25,4.167 3.333,4.583c2.083,0.417 3.75,-0.833 4.167,-2.5l4.583,-11.667c0.833,-1.667 2.083,-2.083 3.75,-1.667l5.417,2.5c1.25,0.417 1.667,2.083 1.25,3.333l-5.833,11.25c-0,0.833 0.417,2.083 2.083,2.917c-0.417,0 -0.417,0 0,0" style="fill:#fff;fill-rule:nonzero;"/><path d="M693.333,447.917c4.583,2.917 6.667,7.917 5.417,12.917l-53.333,207.917c-1.25,5.417 -6.25,9.167 -11.667,9.167c-70.833,1.25 -142.5,1.667 -215,0.833c-24.167,0 -22.5,-14.167 -27.5,-31.667c-15.833,-60.417 -31.667,-121.667 -47.083,-182.917c-1.667,-7.083 1.25,-14.167 7.5,-17.917c52.917,-31.25 106.25,-62.917 161.25,-94.583c8.333,-5 10.833,-2.5 17.917,1.667c54.583,30.417 108.75,62.083 162.5,94.583m-499.167,-89.167l10,38.75c0.417,2.083 -0.417,3.75 -2.083,5l-32.917,22.5c-2.083,1.667 -5,0.833 -6.667,-1.25c-0.833,-1.25 -1.25,-2.917 -0.417,-4.167l22.917,-61.25c0.833,-2.5 3.75,-3.75 5.833,-2.917c2.083,0.417 2.917,1.667 3.333,3.333m679.583,66.25l-34.167,-22.083c-1.667,-1.25 -2.5,-2.917 -2.083,-5l10.417,-39.167c0.833,-2.5 3.333,-3.75 5.417,-2.917c1.25,0.417 2.5,1.25 2.917,2.5l23.333,60.833c0.833,2.5 -0.417,5 -2.5,5.833c-0.833,0.833 -2.083,0.833 -3.333,0" style="fill:#fff;fill-rule:nonzero;"/><path d="M939.583,406.667c-20,19.583 -32.917,-9.167 -36.667,-25.417c-0.417,-0.833 0,-1.667 1.25,-2.083l54.167,-16.667c0.833,-0.417 1.667,0 2.083,0.833c4.167,10.417 10,27.083 0.417,34.583c-7.083,5.833 -14.167,1.667 -21.25,8.75m3.75,-17.917c9.167,2.917 12.5,-0.417 10.417,-10c-0.417,-1.667 -1.25,-2.083 -2.917,-1.667l-7.917,3.333c-2.5,0.833 -3.333,3.75 -2.5,5.833c0.417,1.25 1.667,2.5 2.917,2.5m-13.333,-4.167l-10.417,3.333c-1.667,0.417 -2.5,2.083 -2.083,3.75l0,0.417c1.667,5.417 6.667,9.167 10.833,7.5l0.833,-0.417c4.167,-1.25 6.25,-7.083 4.167,-12.5l0,-0.417c0,-1.25 -1.667,-2.083 -3.333,-1.667" style="fill:#fff;fill-rule:nonzero;"/><path d="M71.667,410.417c-1.667,-0.417 -2.917,-2.083 -2.083,-3.75l1.25,-5.417c4.167,-16.25 20.833,-26.25 36.667,-22.083l0.417,0c15.833,4.167 25.417,20.833 20.833,37.5l-1.25,5.417c-0.417,1.667 -2.083,2.917 -3.75,2.083l-52.083,-13.75Zm12.5,-9.583l32.917,8.75c0.417,0 0.833,0 0.833,-0.417l0,-0.417c2.083,-7.083 -3.75,-15 -12.917,-17.5l-1.25,-0.417c-9.167,-2.5 -17.917,1.25 -20,8.75l0,0.417c-0.417,0.417 0,0.833 0.417,0.833" style="fill:#fff;fill-rule:nonzero;"/><path d="M979.583,435c2.083,12.5 -9.583,25 -26.25,27.917c-16.667,2.917 -32.083,-5 -34.167,-17.5c-2.083,-12.5 9.583,-25 26.25,-27.917c16.667,-3.333 32.083,4.583 34.167,17.5m-11.25,2.083c-0.833,-5.417 -10.417,-8.333 -20.833,-6.667c-10.833,1.667 -18.75,7.5 -17.917,12.917c0.833,5.417 10.417,8.333 20.833,6.667c10.833,-1.667 18.75,-7.5 17.917,-12.917m-872.083,10.417l11.25,2.083c1.667,0.417 3.333,-0.833 3.333,-2.5l2.5,-11.25c0.417,-1.667 1.25,-2.083 2.917,-2.083l5.833,0c1.25,0 2.5,1.25 2.5,2.5l0,0.417l-4.167,24.583c-0.417,1.667 -1.25,2.083 -2.5,2.083l-54.583,-9.167c-1.667,-0.417 -2.5,-1.667 -2.083,-3.333l4.167,-23.333c0.417,-2.917 3.333,-4.583 6.25,-3.75c2.5,0.417 4.167,2.917 4.167,5c-0.417,4.583 -0.833,8.75 -1.667,12.917c-0.417,1.25 0.417,2.5 1.667,2.917l3.75,0c1.667,0 2.5,-0.833 2.917,-2.5l2.5,-15.417c0.417,-1.25 1.25,-2.083 2.5,-1.667l0.417,0l5.417,1.667c1.667,0.417 2.5,1.667 2.5,3.75l-1.25,13.75c-0.833,1.667 -0,2.917 1.667,3.333" style="fill:#fff;fill-rule:nonzero;"/><path d="M303.333,453.333c4.167,1.667 7.5,5 8.75,9.583l55.833,222.5c0.833,3.75 0,7.5 -2.083,10.417l-39.167,52.917c-2.917,3.75 -7.083,5.833 -12.083,5.833l-77.917,-1.25c-2.5,0 -4.583,-1.25 -6.25,-2.917c-61.667,-77.083 -87.5,-166.25 -77.917,-267.083c0.417,-5.417 2.083,-9.167 4.583,-10.833c22.917,-15.417 45,-30.417 67.083,-45.417c1.667,-0.833 3.333,-1.25 5.417,-0.417l73.75,26.667Zm578.333,16.25c13.75,9.583 12.083,51.25 11.25,66.25c-3.75,71.25 -26.25,136.25 -67.5,195.417c-5.833,8.333 -11.25,15 -17.083,20.417c-0.833,0.833 -1.667,1.25 -2.917,1.25l-78.333,1.25c-3.333,0 -6.667,-1.667 -9.167,-4.167c-12.5,-15.833 -25.417,-32.5 -38.333,-50.417c-6.667,-8.75 -6.25,-16.667 -3.333,-26.667c17.917,-68.75 35.417,-137.5 52.917,-206.667c2.083,-7.917 7.917,-12.917 15.833,-15.833c22.5,-8.333 45,-16.667 67.5,-25c1.25,-0.417 2.5,-0.417 3.75,0.417c22.5,14.583 44.167,29.167 65.417,43.75" style="fill:#fff;fill-rule:nonzero;"/><path d="M58.333,471.667c0.417,-2.917 2.917,-5 5.833,-4.583c2.917,0.417 4.583,2.5 4.583,5.417l0,10.417c0,2.083 1.667,4.167 3.75,4.167c2.083,0 4.167,-1.667 4.167,-3.75l1.667,-12.5c0.417,-2.5 2.5,-4.167 4.583,-4.167l3.75,0c1.25,0 2.5,1.25 2.5,2.5l0,0.417l-1.25,15.417c0,1.25 0.833,2.5 2.083,2.917l24.167,1.25c1.667,0 2.5,1.25 2.5,2.917l0,0.417l-0.833,7.5c-0.417,1.667 -1.25,2.083 -2.5,2.083l-54.167,-5.417c-1.667,0 -2.5,-0.833 -2.083,-2.5c-0.417,-7.917 0.417,-15.417 1.25,-22.5" style="fill:#fff;fill-rule:nonzero;"/><path d="M936.667,488.75l1.25,12.5c0,1.25 -0.833,2.083 -1.667,2.5l-7.083,1.667c-1.25,0.417 -2.5,-0.417 -2.917,-1.667l0,-0.417l-1.667,-26.25c0,-1.25 0.833,-2.5 2.083,-2.5l55.417,-4.583c1.25,0 2.5,0.833 2.5,2.083l0,7.917c0,1.25 -0.833,2.083 -2.083,2.5l-43.75,3.75c-1.25,-0 -2.083,1.25 -2.083,2.5" style="fill:#fff;fill-rule:nonzero;"/><path d="M503.75,922.083c2.917,0.417 5,2.5 5,5.417l0,54.583c0,4.583 -2.5,7.083 -7.083,6.667c-247.5,-7.083 -437.917,-211.25 -450,-452.5c0,-2.917 2.083,-5.833 5.417,-5.833l55.833,-2.5c2.917,0 5.833,2.083 5.833,5.417c10.833,213.333 171.667,372.917 385,388.75" style="fill:#fff;fill-rule:nonzero;"/><path d="M984.167,530.417c2.5,0 4.167,2.083 4.167,4.167c-4.583,116.667 -46.25,217.917 -124.583,302.917c-1.25,1.25 -2.5,1.25 -3.75,0l-42.917,-42.083c-1.25,-1.25 -1.25,-2.083 0,-3.333c65.417,-73.75 100.833,-160 105.833,-259.167c0,-2.5 2.083,-4.167 4.583,-4.167l56.667,1.667Zm-333.75,182.917l42.917,57.5c0.833,1.25 1.25,2.5 1.25,3.75c-0.833,24.167 -13.75,55.417 -19.167,80c-0.417,1.25 -0.833,2.5 -2.083,2.917c-7.917,4.167 -16.667,8.333 -26.667,11.667c-92.917,31.25 -183.75,28.333 -273.333,-8.75c-3.333,-1.25 -7.083,-5.417 -7.917,-8.333c-5.417,-24.167 -11.25,-48.333 -18.333,-72.083c-0.833,-3.75 -0.417,-7.5 2.083,-10.833l41.667,-54.583c2.083,-2.917 5.833,-4.583 9.583,-4.583l243.75,0c2.5,0.417 4.583,1.25 6.25,3.333m-379.167,72.917l42.083,-0.833c1.667,0 3.333,1.25 3.75,2.917l10.417,40.833c0.417,2.083 -0.833,4.167 -2.917,5c-1.25,0.417 -2.5,0 -3.333,-0.833l-52.5,-40.417c-1.667,-1.25 -2.083,-3.75 -0.833,-5.417c0.833,-0.833 2.083,-1.25 3.333,-1.25m443.333,42.5l10.833,-40.417c0.417,-1.667 2.083,-2.917 3.75,-2.917l41.667,0c2.083,0 4.167,1.667 4.167,4.167c0,1.25 -0.417,2.5 -1.667,3.333l-52.5,40.417c-1.667,1.25 -4.167,0.833 -5.417,-0.833c-0.833,-1.25 -1.25,-2.5 -0.833,-3.75" style="fill:#fff;fill-rule:nonzero;"/><path d="M839.167,862.083c0,0.417 -0.417,0.417 -0.417,0.833c-85,77.083 -185.417,119.583 -301.25,126.667c-2.5,0 -4.583,-1.667 -5,-4.167l0,-59.583c0,-2.083 1.667,-3.75 3.75,-4.167c98.333,-5.833 184.167,-41.667 257.083,-107.083c1.25,-1.25 3.333,-1.25 4.583,0c13.333,13.333 26.667,26.667 40.417,40.417c1.667,2.083 2.083,4.167 0.833,7.083" style="fill:#fff;fill-rule:nonzero;"/><g><path d="M521.25,1042.5c-287.5,0 -521.25,-233.75 -521.25,-521.25c0,-287.5 233.75,-521.25 521.25,-521.25c287.5,0 521.25,233.75 521.25,521.25c0,287.5 -233.75,521.25 -521.25,521.25Zm0,-1022.083c-276.25,-0 -500.833,224.583 -500.833,500.833c0,276.25 224.583,500.833 500.833,500.833c276.25,0 500.833,-224.583 500.833,-500.833c0,-276.25 -224.583,-500.833 -500.833,-500.833Z" style="fill:#fff;fill-rule:nonzero;"/></g></g></svg>