<?xml version="1.0" encoding="UTF-8" standalone="no"?><!DOCTYPE svg PUBLIC "-//W3C//DTD SVG 1.1//EN" "http://www.w3.org/Graphics/SVG/1.1/DTD/svg11.dtd"><svg width="100%" height="100%" viewBox="0 0 976 1153" version="1.1" xmlns="http://www.w3.org/2000/svg" xmlns:xlink="http://www.w3.org/1999/xlink" xml:space="preserve" xmlns:serif="http://www.serif.com/" style="fill-rule:evenodd;clip-rule:evenodd;stroke-linejoin:round;stroke-miterlimit:2;"><path d="M0,0l0,620.833c0,126.833 39.958,236.5 118.875,325.667c82.625,93.5 206.75,162.833 368.917,206.208c162.25,-43.375 286.333,-112.708 369.042,-206.208c78.792,-89.167 118.875,-198.75 118.875,-325.667l0,-620.833l-975.708,0Zm951.125,620.833c0,247.833 -161.167,422.917 -463.333,506c-302.083,-83.083 -462.208,-258.333 -462.208,-506l0,-595.958l925.417,0l0,596.167l0.125,-0.208Z" style="fill:#fff;fill-rule:nonzero;"/><path d="M473.417,777.25c0.762,-1.401 0.762,-3.099 0,-4.5c-0.667,-0.75 -1.667,-0.667 -2.792,0c-2.796,2.089 -4.866,5.005 -5.917,8.333c-0.292,0.625 -0.458,1.375 -0.75,2.042c-1.092,3.341 -1.71,6.82 -1.833,10.333c2.541,-2.484 4.921,-5.129 7.125,-7.917c0.408,-0.532 0.784,-1.089 1.125,-1.667c1.227,-2.104 2.245,-4.323 3.042,-6.625" style="fill:#fff;fill-rule:nonzero;"/><path d="M448.917,748.5c-7.043,4.317 -9.867,13.253 -6.583,20.833c3.595,8.53 12.078,14.031 21.333,13.833c0.292,-0.625 0.458,-1.375 0.75,-2.042c1.019,-3.344 3.096,-6.269 5.917,-8.333c-0.544,-4.123 -1.436,-8.194 -2.667,-12.167c-1.973,-4.213 -4.405,-8.195 -7.25,-11.875c-3.718,1.416 -7.847,1.326 -11.5,-0.25m38.042,-17.875c-1.851,-3.784 -2.779,-7.954 -2.708,-12.167c-0.039,-0.402 -0.039,-0.807 0,-1.208c-3.417,-2.75 -15.583,-11.125 -27.167,-1.667c-7.952,6.212 -10.304,17.353 -5.542,26.25c3.45,0.392 6.79,1.453 9.833,3.125c3.667,-3.001 7.507,-5.783 11.5,-8.333c4.427,-2.577 9.158,-4.593 14.083,-6" style="fill:#fff;fill-rule:nonzero;"/><path d="M450.333,741.5c-4.291,-0.758 -8.701,-0.501 -12.875,0.75c-4.174,1.251 1.75,3.5 11.125,6.167l0.292,0c3.697,1.441 7.803,1.441 11.5,0c1.068,-0.404 1.771,-1.442 1.75,-2.583c-0.15,-0.545 -0.471,-1.027 -0.917,-1.375c-3.043,-1.672 -6.383,-2.733 -9.833,-3.125c-0.336,0.11 -0.688,0.167 -1.042,0.167" style="fill:#fff;fill-rule:nonzero;"/><path d="M507.25,769.792c-5.495,-0.21 -10.997,0.153 -16.417,1.083c-5.99,1.529 -11.821,3.622 -17.417,6.25c-0.809,2.322 -1.93,4.523 -3.333,6.542c-0.306,0.599 -0.684,1.159 -1.125,1.667c5.936,7.158 15.154,10.782 24.375,9.583c16.042,-1.917 20.042,-12.875 20.833,-15.583c-0.397,-0.411 -0.772,-0.842 -1.125,-1.292c-2.293,-2.477 -4.241,-5.252 -5.792,-8.25m18.917,-29.958c-1.35,0.757 -2.741,1.439 -4.167,2.042c-3.248,1.416 -6.644,2.464 -10.125,3.125c-1.214,3.191 -1.931,6.55 -2.125,9.958c-0.07,3.736 0.28,7.467 1.042,11.125c2.58,2.198 4.914,4.671 6.958,7.375l0.667,0.917c0.572,0.833 1.101,1.695 1.583,2.583c4.708,0 15.292,-1.125 17.542,-16.042c2.625,-16.667 -9.042,-20.542 -11.375,-21.083m-1.833,-3.958c0.375,-1.917 3.542,-18.125 -11.042,-25.625c-7.709,-3.746 -17.019,-2.054 -22.917,4.167c0.186,0.907 0.311,1.826 0.375,2.75c0.675,4.152 0.548,8.396 -0.375,12.5c3.301,2.527 6.847,4.719 10.583,6.542c3.573,1.726 7.297,3.12 11.125,4.167c2.556,-1.162 5.187,-2.15 7.875,-2.958c1.396,-0.675 2.864,-1.192 4.375,-1.542" style="fill:#fff;fill-rule:nonzero;"/><path d="M490.75,716.917c0,-1.083 -0.292,-1.917 -0.375,-2.75c-1.208,-5.417 -3.792,-6.25 -3.792,-6.25c0,0 -2.583,1.583 -2.333,9.208l0,1c-0.005,4.205 0.92,8.36 2.708,12.167c0.381,0.656 1.124,1.019 1.875,0.917c0.667,0 1.125,-0.833 1.5,-1.917c0.873,-4.067 1.014,-8.258 0.417,-12.375m35.417,22.917c2.689,-1.246 5.209,-2.828 7.5,-4.708c-3.145,-0.238 -6.308,0.015 -9.375,0.75c-1.508,0.283 -2.997,0.659 -4.458,1.125c-2.672,0.826 -5.3,1.785 -7.875,2.875c-2.125,1.083 -3.333,2.375 -2.875,3.792c0.458,1.417 1.292,1.375 2.708,1.375c3.481,-0.661 6.877,-1.709 10.125,-3.125c1.125,-0.5 2.583,-1.25 4.25,-2.083m-8.542,33.625c-2.017,-2.727 -4.353,-5.203 -6.958,-7.375c-0.636,-0.54 -1.353,-0.976 -2.125,-1.292c-0.635,-0.348 -1.406,-0.348 -2.042,0c-0.542,0.542 -0.542,1.375 0,2.583c0.22,0.769 0.527,1.51 0.917,2.208c1.581,2.995 3.511,5.792 5.75,8.333c0.353,0.45 0.728,0.881 1.125,1.292c0.253,0.276 0.532,0.527 0.833,0.75c1.941,1.98 4.498,3.244 7.25,3.583c-0.141,-2.455 -0.901,-4.834 -2.208,-6.917c-0.483,-0.888 -1.011,-1.75 -1.583,-2.583c-0.301,-0.223 -0.622,-0.418 -0.958,-0.583" style="fill:#fff;fill-rule:nonzero;"/><path d="M498,748.583c1.292,4.958 -2.792,10.417 -9.167,12.083c-6.375,1.667 -12.5,-1.083 -14,-6.083c-1.5,-5 2.792,-10.333 9.292,-11.958c6.5,-1.625 12.542,1 13.875,5.958" style="fill:#fff;fill-rule:nonzero;"/><path d="M816.667,777.25c0.673,-1.451 0.563,-3.149 -0.292,-4.5c-0.639,-0.722 -1.569,-0.722 -2.792,-0c-2.796,2.089 -4.866,5.005 -5.917,8.333c-0.266,0.666 -0.489,1.347 -0.667,2.042c-1.152,3.331 -1.811,6.812 -1.958,10.333c2.514,-2.51 4.892,-5.153 7.125,-7.917l1.125,-1.667c1.342,-2.091 2.472,-4.31 3.375,-6.625" style="fill:#fff;fill-rule:nonzero;"/><path d="M792,748.5c-7.013,4.344 -9.798,13.273 -6.5,20.833c3.578,8.582 12.123,14.101 21.417,13.833c0.178,-0.694 0.401,-1.376 0.667,-2.042c1.019,-3.344 3.096,-6.269 5.917,-8.333c-0.5,-4.131 -1.393,-8.205 -2.667,-12.167c-2.043,-4.174 -4.471,-8.15 -7.25,-11.875c-3.748,1.412 -7.9,1.323 -11.583,-0.25m38.125,-17.875c-1.786,-3.806 -2.697,-7.963 -2.667,-12.167l0,-1.208c-3.333,-2.75 -15.583,-11.125 -27.083,-1.667c-7.952,6.212 -10.304,17.353 -5.542,26.25c3.476,0.391 6.844,1.453 9.917,3.125c3.667,-3.001 7.507,-5.783 11.5,-8.333c4.356,-2.573 9.017,-4.589 13.875,-6" style="fill:#fff;fill-rule:nonzero;"/><path d="M793.583,741.5c-4.263,-0.77 -8.648,-0.513 -12.792,0.75c-4.143,1.263 1.667,3.5 11.125,6.167c3.724,1.446 7.859,1.446 11.583,0c1.375,-0.75 1.958,-1.75 1.75,-2.583c-0.116,-0.56 -0.445,-1.053 -0.917,-1.375c-3.06,-1.703 -6.434,-2.766 -9.917,-3.125c-0.271,0.084 -0.551,0.14 -0.833,0.167" style="fill:#fff;fill-rule:nonzero;"/><path d="M850.333,769.792c-5.495,-0.204 -10.996,0.159 -16.417,1.083c-5.994,1.517 -11.826,3.61 -17.417,6.25c-0.809,2.322 -1.93,4.523 -3.333,6.542c-0.301,0.575 -0.635,1.131 -1,1.667c5.895,7.164 15.093,10.792 24.292,9.583c16.042,-1.917 20.042,-12.875 20.833,-15.583c-0.397,-0.411 -0.772,-0.842 -1.125,-1.292c-2.278,-2.498 -4.238,-5.269 -5.833,-8.25m19.083,-29.958c-1.34,0.777 -2.732,1.459 -4.167,2.042c-3.257,1.392 -6.65,2.439 -10.125,3.125c-1.214,3.191 -1.931,6.55 -2.125,9.958c-0.108,3.737 0.242,7.473 1.042,11.125c2.603,2.175 4.938,4.65 6.958,7.375c0.228,0.323 0.479,0.629 0.75,0.917c0.601,0.831 1.157,1.694 1.667,2.583c4.833,0 15.292,-1.125 17.542,-16.042c2.375,-16.667 -9.333,-20.542 -11.542,-21.083m-1.917,-3.958c0.458,-1.917 3.542,-18.125 -10.958,-25.625c-7.739,-3.733 -17.062,-2.044 -23,4.167c0.214,0.905 0.367,1.824 0.458,2.75c0.658,4.157 0.502,8.402 -0.458,12.5c3.271,2.507 6.773,4.698 10.458,6.542c3.606,1.716 7.357,3.11 11.208,4.167c2.526,-1.164 5.129,-2.153 7.792,-2.958c1.45,-0.649 2.956,-1.165 4.5,-1.542" style="fill:#fff;fill-rule:nonzero;"/><path d="M834,716.917c-0.034,-0.993 -0.146,-1.982 -0.333,-2.958c-1.208,-5.417 -3.792,-6.25 -3.792,-6.25c0,0 -2.583,1.583 -2.417,9.208l0,1.208c-0.005,4.205 0.92,8.36 2.708,12.167c0.375,0.641 1.096,1.002 1.833,0.917c0.667,0 1.125,-0.833 1.5,-1.917c0.91,-4.061 1.079,-8.254 0.5,-12.375m35.417,22.917c2.677,-1.268 5.195,-2.848 7.5,-4.708c-3.145,-0.238 -6.308,0.015 -9.375,0.75c-1.51,0.272 -3,0.648 -4.458,1.125c-2.646,0.821 -5.247,1.781 -7.792,2.875c-2.125,1.083 -3.417,2.375 -2.958,3.792c0.458,1.417 1.292,1.375 2.792,1.375c3.478,-0.674 6.872,-1.722 10.125,-3.125l4.167,-2.083Zm-8.625,33.625c-2.02,-2.725 -4.356,-5.2 -6.958,-7.375c-0.636,-0.54 -1.353,-0.976 -2.125,-1.292c-0.917,-0.292 -1.583,-0.292 -2.042,0c-0.458,0.292 -0.458,1.375 0,2.583c0.225,0.755 0.504,1.493 0.833,2.208c1.614,2.995 3.571,5.792 5.833,8.333c0.353,0.45 0.728,0.881 1.125,1.292c0.225,0.274 0.476,0.525 0.75,0.75c1.952,1.964 4.504,3.225 7.25,3.583c-0.205,-2.443 -0.96,-4.807 -2.208,-6.917c-0.51,-0.89 -1.066,-1.752 -1.667,-2.583c-0.199,-0.27 -0.475,-0.473 -0.792,-0.583" style="fill:#fff;fill-rule:nonzero;"/><path d="M841.208,748.583c1.292,4.958 -2.792,10.417 -9.167,12.083c-6.375,1.667 -12.5,-1.083 -14,-6.083c-1.5,-5 2.875,-10.333 9.25,-11.958c6.375,-1.625 12.625,1 13.917,5.958" style="fill:#fff;fill-rule:nonzero;"/><path d="M127.667,777.25c0.673,-1.451 0.563,-3.149 -0.292,-4.5c-0.667,-0.75 -1.583,-0.667 -2.792,-0c-2.796,2.089 -4.866,5.005 -5.917,8.333c-0.266,0.666 -0.489,1.347 -0.667,2.042c-1.152,3.331 -1.811,6.812 -1.958,10.333c2.514,-2.51 4.892,-5.153 7.125,-7.917l1.125,-1.667c1.381,-2.068 2.514,-4.292 3.375,-6.625" style="fill:#fff;fill-rule:nonzero;"/><path d="M103.083,748.5c-6.94,4.402 -9.706,13.266 -6.5,20.833c3.578,8.582 12.123,14.101 21.417,13.833c0.178,-0.694 0.401,-1.376 0.667,-2.042c1.051,-3.328 3.121,-6.244 5.917,-8.333c-0.466,-4.141 -1.374,-8.219 -2.708,-12.167c-2.009,-4.193 -4.438,-8.172 -7.25,-11.875c-3.735,1.405 -7.871,1.316 -11.542,-0.25m38.042,-17.875c-1.8,-3.802 -2.725,-7.96 -2.708,-12.167l0,-1.208c-3.417,-2.75 -15.5,-11.125 -27.083,-1.667c-7.967,6.201 -10.337,17.344 -5.583,26.25c3.448,0.402 6.786,1.463 9.833,3.125c3.667,-3.001 7.507,-5.783 11.5,-8.333c4.427,-2.548 9.14,-4.562 14.042,-6" style="fill:#fff;fill-rule:nonzero;"/><path d="M104.5,741.5c-4.263,-0.77 -8.648,-0.513 -12.792,0.75c-4.143,1.263 1.667,3.5 11.125,6.167c3.724,1.446 7.859,1.446 11.583,0c1.039,-0.441 1.725,-1.455 1.75,-2.583c-0.112,-0.561 -0.442,-1.056 -0.917,-1.375c-3.043,-1.672 -6.383,-2.733 -9.833,-3.125c-0.298,0.09 -0.606,0.146 -0.917,0.167" style="fill:#fff;fill-rule:nonzero;"/><path d="M161.5,769.792c-5.495,-0.21 -10.997,0.153 -16.417,1.083c-5.994,1.517 -11.826,3.61 -17.417,6.25c-0.82,2.302 -1.911,4.498 -3.25,6.542l-1.125,1.667c5.922,7.177 15.151,10.806 24.375,9.583c16.042,-1.917 20.042,-12.875 20.833,-15.583c-0.397,-0.411 -0.772,-0.842 -1.125,-1.292c-2.322,-2.472 -4.299,-5.247 -5.875,-8.25m18.917,-29.958c-1.34,0.777 -2.732,1.459 -4.167,2.042c-3.281,1.403 -6.704,2.451 -10.208,3.125c-1.173,3.203 -1.889,6.555 -2.125,9.958c-0.089,3.741 0.289,7.478 1.125,11.125c2.558,2.222 4.888,4.693 6.958,7.375c0.228,0.323 0.479,0.629 0.75,0.917c0.572,0.833 1.101,1.695 1.583,2.583c4.708,0 15.292,-1.125 17.625,-16.042c2.375,-16.667 -9.208,-20.542 -11.542,-21.083m-1.833,-3.958c0.458,-1.917 3.542,-18.125 -11.042,-25.625c-7.741,-3.719 -17.056,-2.032 -23,4.167c0.214,0.905 0.367,1.824 0.458,2.75c0.715,4.153 0.559,8.41 -0.458,12.5c3.316,2.506 6.859,4.696 10.583,6.542c3.606,1.716 7.357,3.11 11.208,4.167c2.55,-1.174 5.182,-2.163 7.875,-2.958c1.399,-0.669 2.866,-1.186 4.375,-1.542" style="fill:#fff;fill-rule:nonzero;"/><path d="M145,716.917c-0.042,-0.932 -0.196,-1.855 -0.458,-2.75c-1.125,-5.417 -3.792,-6.25 -3.792,-6.25c0,0 -2.583,1.583 -2.333,9.208l0,1.208c-0.005,4.205 0.92,8.36 2.708,12.167c0.396,0.64 1.127,0.997 1.875,0.917c0.667,0 1.208,-0.833 1.5,-1.917c1.031,-4.115 1.201,-8.399 0.5,-12.583m35.417,22.917c2.706,-1.215 5.23,-2.8 7.5,-4.708c-3.145,-0.238 -6.308,0.015 -9.375,0.75c-1.508,0.283 -2.997,0.659 -4.458,1.125c-2.691,0.768 -5.322,1.729 -7.875,2.875c-2.125,1.083 -3.333,2.375 -2.875,3.792c0.458,1.417 1.292,1.375 2.708,1.375c3.505,-0.674 6.927,-1.722 10.208,-3.125c1,-0.5 2.583,-1.25 4.167,-2.083m-8.542,33.625c-2.04,-2.708 -4.373,-5.182 -6.958,-7.375c-0.636,-0.54 -1.353,-0.976 -2.125,-1.292c-0.635,-0.348 -1.406,-0.348 -2.042,0c-0.458,0.542 -0.458,1.375 0,2.583c0.22,0.769 0.527,1.51 0.917,2.208c1.548,3.015 3.481,5.816 5.75,8.333c0.353,0.45 0.728,0.881 1.125,1.292l0.75,0.75c1.974,1.981 4.557,3.243 7.333,3.583c-0.205,-2.443 -0.96,-4.807 -2.208,-6.917c-0.483,-0.888 -1.011,-1.75 -1.583,-2.583c-0.5,0.042 -0.667,-0.292 -0.958,-0.583" style="fill:#fff;fill-rule:nonzero;"/><path d="M152.25,748.583c1.292,4.958 -2.792,10.417 -9.292,12.083c-6.5,1.667 -12.5,-1.083 -13.917,-6.083c-1.417,-5 2.875,-10.333 9.292,-11.958c6.417,-1.625 12.708,1 13.917,5.958" style="fill:#fff;fill-rule:nonzero;"/><path d="M473.417,459.5c0.755,-1.403 0.755,-3.097 0,-4.5c-0.667,-0.75 -1.667,-0.625 -2.792,-0c-2.739,2.144 -4.795,5.04 -5.917,8.333c-0.292,0.625 -0.458,1.292 -0.75,2.042c-1.089,3.371 -1.706,6.876 -1.833,10.417c2.558,-2.498 4.938,-5.171 7.125,-8c0.375,-0.542 0.833,-1.208 1.125,-1.667c1.227,-2.104 2.245,-4.323 3.042,-6.625" style="fill:#fff;fill-rule:nonzero;"/><path d="M448.917,430.833c-7.043,4.317 -9.867,13.253 -6.583,20.833c3.568,8.536 12.087,14.01 21.333,13.708c0.292,-0.625 0.458,-1.292 0.75,-2.042c1.121,-3.293 3.178,-6.189 5.917,-8.333c-0.536,-4.057 -1.428,-8.058 -2.667,-11.958c-1.974,-4.238 -4.405,-8.248 -7.25,-11.958c-3.724,1.382 -7.839,1.292 -11.5,-0.25m38.042,-18.042c-1.859,-3.782 -2.787,-7.954 -2.708,-12.167c-0.042,-0.402 -0.042,-0.807 0,-1.208c-3.417,-2.75 -15.583,-11.042 -27.167,-1.667c-7.952,6.212 -10.304,17.353 -5.542,26.25c3.436,0.405 6.769,1.436 9.833,3.042c3.667,-3.001 7.507,-5.783 11.5,-8.333c4.462,-2.486 9.185,-4.47 14.083,-5.917" style="fill:#fff;fill-rule:nonzero;"/><path d="M450.333,423.833c-4.294,-0.714 -8.693,-0.458 -12.875,0.75c-4.182,1.208 1.75,3.5 11.125,6.167l0.292,0c3.706,1.394 7.794,1.394 11.5,0c1.053,-0.423 1.747,-1.449 1.75,-2.583c-0.173,-0.534 -0.49,-1.01 -0.917,-1.375c-3.043,-1.672 -6.383,-2.733 -9.833,-3.125c-0.341,0.087 -0.69,0.143 -1.042,0.167" style="fill:#fff;fill-rule:nonzero;"/><path d="M507.25,452.042c-5.495,-0.21 -10.997,0.153 -16.417,1.083c-5.995,1.567 -11.827,3.701 -17.417,6.375c-0.848,2.331 -1.967,4.555 -3.333,6.625c-0.292,0.458 -0.667,1 -1.125,1.667c5.942,7.156 15.143,10.805 24.375,9.667c16.042,-2.042 20.042,-13 20.833,-15.75c-0.418,-0.391 -0.795,-0.824 -1.125,-1.292c-2.279,-2.534 -4.226,-5.348 -5.792,-8.375m18.917,-29.75c-1.35,0.757 -2.741,1.439 -4.167,2.042c-3.231,1.46 -6.633,2.51 -10.125,3.125c-1.214,3.191 -1.931,6.55 -2.125,9.958c-0.07,3.736 0.28,7.467 1.042,11.125c2.626,2.15 4.965,4.629 6.958,7.375c0.254,0.311 0.477,0.646 0.667,1c0.667,0.917 1.125,1.75 1.583,2.5c4.708,0 15.292,-1.083 17.542,-16.042c2.625,-16.917 -9.042,-20.625 -11.375,-21.083m-1.833,-4.167c0.458,-2.042 3.542,-18.125 -11.042,-25.583c-7.709,-3.746 -17.019,-2.054 -22.917,4.167c0.234,0.898 0.36,1.822 0.375,2.75c0.675,4.152 0.548,8.396 -0.375,12.5c3.301,2.527 6.847,4.719 10.583,6.542c3.592,1.681 7.312,3.074 11.125,4.167c2.537,-1.206 5.172,-2.195 7.875,-2.958c1.414,-0.643 2.877,-1.173 4.375,-1.583" style="fill:#fff;fill-rule:nonzero;"/><path d="M490.75,399.167c0,-1.125 -0.292,-1.917 -0.375,-2.75c-1.208,-5.417 -3.792,-6.25 -3.792,-6.25c0,0 -2.583,1.667 -2.333,9.208l0,1.208c-0.032,4.208 0.895,8.369 2.708,12.167c0.373,0.672 1.109,1.064 1.875,1c0.667,0 1.125,-0.917 1.5,-1.917c0.918,-4.16 1.059,-8.455 0.417,-12.667m35.417,23.125c2.689,-1.246 5.209,-2.828 7.5,-4.708c-4.681,-0.155 -9.355,0.464 -13.833,1.833c-2.688,0.808 -5.319,1.796 -7.875,2.958c-2.125,1.125 -3.333,2.292 -2.875,3.792c0.458,1.5 1.292,1.375 2.708,1.292c3.492,-0.615 6.894,-1.665 10.125,-3.125c1.125,-0.667 2.583,-1.417 4.25,-2.042m-8.542,33.333c-2.017,-2.727 -4.353,-5.203 -6.958,-7.375c-0.636,-0.54 -1.353,-0.976 -2.125,-1.292c-0.608,-0.437 -1.433,-0.437 -2.042,0c-0.542,0.542 -0.542,1.375 0,2.583c0.22,0.769 0.527,1.51 0.917,2.208c1.556,3.01 3.488,5.81 5.75,8.333c0.353,0.45 0.728,0.881 1.125,1.292c0.258,0.297 0.536,0.576 0.833,0.833c1.941,1.98 4.498,3.244 7.25,3.583c-0.137,-2.429 -0.898,-4.783 -2.208,-6.833c-0.485,-0.86 -1.014,-1.694 -1.583,-2.5c-0.279,-0.321 -0.602,-0.601 -0.958,-0.833" style="fill:#fff;fill-rule:nonzero;"/><path d="M498,430.833c1.292,4.958 -2.792,10.417 -9.167,12.083c-6.375,1.667 -12.5,-1.125 -14,-6.083c-1.5,-4.958 2.792,-10.417 9.292,-12.083c6.5,-1.667 12.542,1.125 13.875,6.083" style="fill:#fff;fill-rule:nonzero;"/><path d="M123.292,459.5c0.706,-1.416 0.706,-3.084 0,-4.5c-0.667,-0.75 -1.583,-0.625 -2.792,-0c-2.763,2.122 -4.825,5.026 -5.917,8.333c-0.319,0.645 -0.544,1.333 -0.667,2.042c-1.104,3.369 -1.735,6.874 -1.875,10.417c2.553,-2.54 4.973,-5.21 7.25,-8c0.375,-0.542 0.75,-1.208 1,-1.667c1.147,-2.139 2.15,-4.352 3,-6.625" style="fill:#fff;fill-rule:nonzero;"/><path d="M98.833,430.833c-6.94,4.402 -9.706,13.266 -6.5,20.833c3.539,8.56 12.077,14.046 21.333,13.708c0,-0.625 0.375,-1.292 0.667,-2.042c1.121,-3.326 3.229,-6.234 6.042,-8.333c-0.509,-4.065 -1.416,-8.071 -2.708,-11.958c-2.043,-4.219 -4.499,-8.225 -7.333,-11.958c-3.724,1.382 -7.839,1.292 -11.5,-0.25m38,-18.042c-1.808,-3.799 -2.734,-7.959 -2.708,-12.167l-0,-1.208c-3.417,-2.75 -15.583,-11.042 -27.167,-1.667c-7.995,6.177 -10.402,17.325 -5.667,26.25c3.466,0.385 6.83,1.417 9.917,3.042c3.647,-3.026 7.489,-5.81 11.5,-8.333c4.472,-2.495 9.21,-4.48 14.125,-5.917" style="fill:#fff;fill-rule:nonzero;"/><path d="M100.333,423.833c-4.294,-0.7 -8.691,-0.444 -12.875,0.75c-4.184,1.194 1.875,3.5 11.208,6.167c3.736,1.385 7.847,1.385 11.583,0c1.028,-0.48 1.737,-1.458 1.875,-2.583c-0.173,-0.534 -0.49,-1.01 -0.917,-1.375c-3.064,-1.692 -6.436,-2.755 -9.917,-3.125c-0.316,0.074 -0.636,0.13 -0.958,0.167" style="fill:#fff;fill-rule:nonzero;"/><path d="M157.167,452.042c-5.495,-0.201 -10.996,0.162 -16.417,1.083c-5.995,1.567 -11.827,3.701 -17.417,6.375c-0.863,2.31 -1.951,4.529 -3.25,6.625l-1,1.667c5.901,7.162 15.083,10.816 24.292,9.667c16.042,-2.042 20.125,-13 20.833,-15.75c-0.418,-0.391 -0.795,-0.824 -1.125,-1.292c-2.373,-2.486 -4.366,-5.308 -5.917,-8.375m18.875,-29.75c-1.34,0.777 -2.732,1.459 -4.167,2.042c-3.264,1.451 -6.692,2.5 -10.208,3.125c-1.173,3.203 -1.889,6.555 -2.125,9.958c-0.083,3.734 0.252,7.466 1,11.125c2.626,2.15 4.965,4.629 6.958,7.375c0.254,0.311 0.477,0.646 0.667,1c0.667,0.917 1.125,1.75 1.583,2.5c4.833,0 15.292,-1.083 17.625,-16.042c2.708,-16.917 -9,-20.625 -11.333,-21.083m-1.833,-4.167c0.458,-2.042 3.542,-18.125 -10.958,-25.583c-7.737,-3.746 -17.069,-2.056 -23,4.167c-0,0.833 0.292,1.667 0.458,2.75c0.636,4.155 0.509,8.391 -0.375,12.5c3.255,2.529 6.76,4.721 10.458,6.542c3.619,1.685 7.367,3.078 11.208,4.167c2.532,-1.217 5.168,-2.207 7.875,-2.958c1.4,-0.641 2.849,-1.171 4.333,-1.583" style="fill:#fff;fill-rule:nonzero;"/><path d="M140.625,399.167c0,-1.125 -0.292,-1.917 -0.458,-2.75c-1.208,-5.417 -3.792,-6.25 -3.792,-6.25c0,0 -2.5,1.667 -2.208,9.208l0,1.208c-0.032,4.208 0.895,8.369 2.708,12.167c0.373,0.672 1.109,1.064 1.875,1c0.667,0 1.125,-0.917 1.583,-1.917c0.858,-4.17 0.957,-8.461 0.292,-12.667m35.417,23.125c2.677,-1.268 5.195,-2.848 7.5,-4.708c-3.171,-0.126 -6.346,0.126 -9.458,0.75c-1.412,0.285 -2.804,0.66 -4.167,1.125c-2.693,0.795 -5.325,1.784 -7.875,2.958c-2.125,1.125 -3.333,2.292 -2.958,3.792c0.375,1.5 1.292,1.375 2.792,1.292c3.516,-0.629 6.943,-1.678 10.208,-3.125c0.917,-0.708 2.417,-1.458 3.958,-2.083m-8.5,33.333c-2.04,-2.708 -4.373,-5.182 -6.958,-7.375c-0.636,-0.54 -1.353,-0.976 -2.125,-1.292c-0.917,-0.375 -1.667,-0.292 -2.042,0c-0.375,0.292 -0.458,1.375 0,2.583c0.225,0.755 0.504,1.493 0.833,2.208c1.557,3.03 3.519,5.833 5.833,8.333c0.353,0.45 0.728,0.881 1.125,1.292c0.258,0.297 0.536,0.576 0.833,0.833c1.941,1.98 4.498,3.244 7.25,3.583c-0.161,-2.444 -0.966,-4.802 -2.333,-6.833c-0.485,-0.86 -1.014,-1.694 -1.583,-2.5c-0.186,-0.357 -0.477,-0.648 -0.833,-0.833" style="fill:#fff;fill-rule:nonzero;"/><path d="M147.958,430.833c1.292,4.958 -2.792,10.417 -9.292,12.083c-5.488,1.998 -11.662,-0.648 -14,-6c-1.292,-5.083 2.792,-10.417 9.292,-12.083c5.488,-2.042 11.694,0.618 14,6" style="fill:#fff;fill-rule:nonzero;"/><path d="M824.375,459.5c0.755,-1.403 0.755,-3.097 0,-4.5c-0.667,-0.75 -1.667,-0.625 -2.792,-0c-2.765,2.12 -4.827,5.024 -5.917,8.333c-0.28,0.66 -0.503,1.343 -0.667,2.042c-1.154,3.359 -1.814,6.868 -1.958,10.417c2.529,-2.525 4.908,-5.197 7.125,-8c0.375,-0.542 0.75,-1.208 1.125,-1.667c1.267,-2.089 2.301,-4.31 3.083,-6.625" style="fill:#fff;fill-rule:nonzero;"/><path d="M799.875,430.833c-6.94,4.402 -9.706,13.266 -6.5,20.833c3.588,8.557 12.144,14.033 21.417,13.708c0,-0.625 0.375,-1.292 0.667,-2.042c1.121,-3.293 3.178,-6.189 5.917,-8.333c-0.468,-4.061 -1.333,-8.066 -2.583,-11.958c-2.043,-4.219 -4.499,-8.225 -7.333,-11.958c-3.753,1.383 -7.894,1.293 -11.583,-0.25m37.958,-18.042c-1.794,-3.803 -2.705,-7.962 -2.667,-12.167l0,-1.208c-3.333,-2.75 -15.583,-11.042 -27.167,-1.667c-7.952,6.212 -10.304,17.353 -5.542,26.25c3.434,0.414 6.765,1.445 9.833,3.042c3.647,-3.026 7.489,-5.81 11.5,-8.333c4.464,-2.452 9.169,-4.435 14.042,-5.917" style="fill:#fff;fill-rule:nonzero;"/><path d="M801.375,423.833c-4.294,-0.714 -8.693,-0.458 -12.875,0.75c-4.182,1.208 1.75,3.5 11.125,6.167c3.736,1.385 7.847,1.385 11.583,0c1.064,-0.425 1.784,-1.439 1.833,-2.583c-0.103,-0.565 -0.435,-1.063 -0.917,-1.375c-3.047,-1.662 -6.386,-2.723 -9.833,-3.125c-0.302,0.073 -0.608,0.128 -0.917,0.167" style="fill:#fff;fill-rule:nonzero;"/><path d="M858.292,452.042c-5.495,-0.21 -10.997,0.153 -16.417,1.083c-6.035,1.566 -11.909,3.701 -17.542,6.375c-0.863,2.31 -1.951,4.529 -3.25,6.625c-0.278,0.472 -0.653,1.028 -1.125,1.667c5.901,7.162 15.083,10.816 24.292,9.667c16.042,-2.042 20.042,-13 20.833,-15.75c-0.418,-0.391 -0.795,-0.824 -1.125,-1.292c-2.275,-2.51 -4.183,-5.33 -5.667,-8.375m18.833,-29.75c-1.35,0.757 -2.741,1.439 -4.167,2.042c-3.259,1.462 -6.689,2.512 -10.208,3.125c-1.168,3.204 -1.883,6.556 -2.125,9.958c-0.083,3.734 0.252,7.466 1,11.125c2.626,2.15 4.965,4.629 6.958,7.375l0.75,1c0.667,0.917 1.125,1.75 1.583,2.5c4.708,0 15.292,-1.083 17.542,-16.042c2.583,-16.917 -8.958,-20.625 -11.333,-21.083m-1.792,-4.167c0.375,-2.042 3.417,-18.125 -11.042,-25.583c-7.739,-3.733 -17.062,-2.044 -23,4.167c0.257,0.9 0.439,1.82 0.542,2.75c0.608,4.16 0.453,8.396 -0.458,12.5c3.219,2.539 6.696,4.732 10.375,6.542c3.626,1.669 7.373,3.062 11.208,4.167c2.537,-1.206 5.172,-2.195 7.875,-2.958c1.465,-0.623 2.968,-1.152 4.5,-1.583" style="fill:#fff;fill-rule:nonzero;"/><path d="M841.792,399.25c-0.103,-0.93 -0.284,-1.85 -0.542,-2.75c-1.125,-5.417 -3.792,-6.25 -3.792,-6.25c0,0 -2.583,1.667 -2.333,9.208l0,1.208c-0.045,4.205 0.867,8.366 2.667,12.167c0.667,0.75 1.125,1.125 1.958,1c0.833,-0.125 1.125,-0.917 1.5,-1.917c1.01,-4.146 1.194,-8.45 0.542,-12.667m35.333,23.042c2.677,-1.268 5.195,-2.848 7.5,-4.708c-3.108,-0.193 -6.227,-0.012 -9.292,0.542c-1.51,0.272 -3,0.648 -4.458,1.125c-2.752,0.815 -5.44,1.831 -8.042,3.042c-2.125,1.125 -3.333,2.292 -2.875,3.792c0.458,1.5 1.208,1.375 2.708,1.292c3.519,-0.617 6.947,-1.667 10.208,-3.125c1.208,-0.583 2.667,-1.333 4.25,-1.958m-8.458,33.333c-2.07,-2.682 -4.401,-5.153 -6.958,-7.375c-0.649,-0.521 -1.364,-0.955 -2.125,-1.292c-0.613,-0.425 -1.429,-0.425 -2.042,-0c-0.306,0.834 -0.306,1.75 0,2.583c0.225,0.755 0.504,1.493 0.833,2.208c1.556,3.01 3.488,5.81 5.75,8.333c0.353,0.45 0.728,0.881 1.125,1.292c0.258,0.297 0.536,0.576 0.833,0.833c1.941,1.98 4.498,3.244 7.25,3.583c-0.192,-2.407 -0.918,-4.742 -2.125,-6.833c-0.485,-0.86 -1.014,-1.694 -1.583,-2.5c-0.5,-0.083 -0.75,-0.375 -0.958,-0.833" style="fill:#fff;fill-rule:nonzero;"/><path d="M848.917,430.833c1.292,4.958 -2.792,10.417 -9.167,12.083c-5.51,2.009 -11.709,-0.685 -14,-6.083c-1.292,-5.083 2.792,-10.417 9.292,-12.083c6.5,-1.667 12.583,1.125 13.875,6.083" style="fill:#fff;fill-rule:nonzero;"/><path d="M473.417,141.75c0.762,-1.401 0.762,-3.099 0,-4.5c-0.667,-0.75 -1.667,-0.625 -2.792,0c-2.796,2.089 -4.866,5.005 -5.917,8.333c-0.292,0.625 -0.458,1.375 -0.75,2.042c-1.092,3.341 -1.71,6.82 -1.833,10.333c2.541,-2.484 4.921,-5.129 7.125,-7.917c0.408,-0.532 0.784,-1.089 1.125,-1.667c1.253,-2.09 2.273,-4.312 3.042,-6.625" style="fill:#fff;fill-rule:nonzero;"/><path d="M448.917,113.125c-7.043,4.317 -9.867,13.253 -6.583,20.833c3.606,8.505 12.099,13.962 21.333,13.708c0.292,-0.625 0.458,-1.292 0.75,-2.042c1.051,-3.328 3.121,-6.244 5.917,-8.333c-0.597,-8.879 -4.08,-17.324 -9.917,-24.042c-3.699,1.474 -7.834,1.429 -11.5,-0.125m38.042,-18.083c-1.814,-3.798 -2.74,-7.958 -2.708,-12.167c-0.045,-0.402 -0.045,-0.807 0,-1.208c-3.417,-2.667 -15.583,-11.042 -27.167,-1.667c-7.952,6.212 -10.304,17.353 -5.542,26.25c3.436,0.405 6.769,1.436 9.833,3.042c2.667,-2.125 7.25,-5.542 11.5,-8.333c4.481,-2.446 9.2,-4.429 14.083,-5.917" style="fill:#fff;fill-rule:nonzero;"/><path d="M450.333,106.125c-4.294,-0.707 -8.692,-0.451 -12.875,0.75c-4.183,1.201 1.75,3.583 11.125,6.167c0.094,0.035 0.198,0.035 0.292,0c3.706,1.394 7.794,1.394 11.5,0c1.053,-0.423 1.747,-1.449 1.75,-2.583c-0.173,-0.534 -0.49,-1.01 -0.917,-1.375c-3.076,-1.594 -6.402,-2.651 -9.833,-3.125c-0.341,0.087 -0.69,0.143 -1.042,0.167" style="fill:#fff;fill-rule:nonzero;"/><path d="M507.25,134.375c-5.496,-0.196 -10.998,0.181 -16.417,1.125c-6.001,1.491 -11.837,3.585 -17.417,6.25c-0.863,2.31 -1.951,4.529 -3.25,6.625c-0.278,0.472 -0.653,1.028 -1.125,1.667c5.936,7.158 15.154,10.782 24.375,9.583c16.042,-2.042 20.042,-12.875 20.833,-15.667c-0.395,-0.384 -0.77,-0.787 -1.125,-1.208c-2.302,-2.534 -4.276,-5.348 -5.875,-8.375m18.917,-29.917c-1.667,0.833 -3.042,1.583 -4.167,2.042c-3.248,1.416 -6.644,2.464 -10.125,3.125c-1.214,3.191 -1.931,6.55 -2.125,9.958c-0.132,3.777 0.204,7.556 1,11.25c2.603,2.175 4.938,4.65 6.958,7.375l0.667,0.917c0.572,0.833 1.101,1.695 1.583,2.583c4.708,0 15.292,-1.208 17.542,-16.042c2.667,-16.792 -9,-20.667 -11.333,-21.208m-1.833,-4.083c0.375,-1.917 3.542,-18.125 -11.042,-25.583c-7.718,-3.692 -16.993,-2.006 -22.917,4.167c0.186,0.907 0.311,1.826 0.375,2.75c0.675,4.152 0.548,8.396 -0.375,12.5c3.301,2.527 6.847,4.719 10.583,6.542c3.573,1.726 7.297,3.12 11.125,4.167c2.556,-1.162 5.187,-2.15 7.875,-2.958c1.414,-0.643 2.877,-1.173 4.375,-1.583" style="fill:#fff;fill-rule:nonzero;"/><path d="M490.75,81.5c0,-1 -0.292,-1.917 -0.375,-2.75c-1.208,-5.417 -3.792,-6.25 -3.792,-6.25c0,0 -2.583,1.583 -2.333,9.208l0,1.208c-0.032,4.208 0.895,8.369 2.708,12.167c0.373,0.672 1.109,1.064 1.875,1c0.667,0 1.125,-0.917 1.5,-2.042c0.893,-4.121 1.034,-8.37 0.417,-12.542m35.417,22.958c2.721,-1.221 5.248,-2.835 7.5,-4.792c-4.681,-0.155 -9.355,0.464 -13.833,1.833c-2.688,0.808 -5.319,1.796 -7.875,2.958c-2.125,1.125 -3.333,2.375 -2.875,3.875c0.458,1.5 1.292,1.375 2.708,1.292c3.481,-0.661 6.877,-1.709 10.125,-3.125c1.125,-0.5 2.583,-1.208 4.25,-2.042m-8.542,33.625c-2.02,-2.725 -4.356,-5.2 -6.958,-7.375c-0.607,-0.578 -1.332,-1.019 -2.125,-1.292c-0.917,-0.375 -1.583,-0.292 -2.042,0.292c-0.458,0.583 -0.542,1.375 0,2.5c0.217,0.796 0.525,1.565 0.917,2.292c1.556,3.01 3.488,5.81 5.75,8.333l1.125,1.208l0.833,0.833c1.952,1.964 4.504,3.225 7.25,3.583c-0.137,-2.429 -0.898,-4.783 -2.208,-6.833c-0.483,-0.888 -1.011,-1.75 -1.583,-2.583c-0.24,-0.39 -0.568,-0.719 -0.958,-0.958" style="fill:#fff;fill-rule:nonzero;"/><path d="M498,113.208c1.292,4.958 -2.792,10.417 -9.167,12.083c-6.375,1.667 -12.5,-1.125 -14,-6.083c-1.5,-4.958 2.792,-10.417 9.292,-12.083c6.5,-1.667 12.667,1.083 13.875,6.083" style="fill:#fff;fill-rule:nonzero;"/><path d="M123.292,141.75c0.713,-1.414 0.713,-3.086 0,-4.5c-0.667,-0.75 -1.667,-0.625 -2.792,0c-3.266,2.68 -5.601,6.328 -6.667,10.417c-1.157,3.329 -1.817,6.811 -1.958,10.333c-0.141,3.522 4.458,-4.417 7.25,-7.917c0.365,-0.536 0.699,-1.092 1,-1.667c1.334,-2.079 2.398,-4.319 3.167,-6.667" style="fill:#fff;fill-rule:nonzero;"/><path d="M98.833,113.125c-6.94,4.402 -9.706,13.266 -6.5,20.833c3.578,8.528 12.09,13.998 21.333,13.708c0,-0.625 0.375,-1.292 0.667,-2.042c1.049,-3.363 3.172,-6.291 6.042,-8.333c-0.511,-4.106 -1.418,-8.152 -2.708,-12.083c-2.043,-4.219 -4.499,-8.225 -7.333,-11.958c-3.699,1.474 -7.834,1.429 -11.5,-0.125m38,-18.083c-1.814,-3.798 -2.74,-7.958 -2.708,-12.167l-0,-1.208c-3.417,-2.667 -15.583,-11.042 -27.167,-1.667c-7.995,6.177 -10.402,17.325 -5.667,26.25c3.465,0.395 6.827,1.426 9.917,3.042c3.678,-2.987 7.517,-5.769 11.5,-8.333c4.494,-2.449 9.227,-4.432 14.125,-5.917" style="fill:#fff;fill-rule:nonzero;"/><path d="M100.333,106.125c-4.294,-0.7 -8.691,-0.444 -12.875,0.75c-4.184,1.194 1.875,3.583 11.208,6.167c3.736,1.385 7.847,1.385 11.583,0c1.028,-0.48 1.737,-1.458 1.875,-2.583c-0.173,-0.534 -0.49,-1.01 -0.917,-1.375c-3.095,-1.619 -6.453,-2.677 -9.917,-3.125c-0.316,0.074 -0.636,0.13 -0.958,0.167" style="fill:#fff;fill-rule:nonzero;"/><path d="M157.167,134.375c-5.496,-0.19 -10.998,0.187 -16.417,1.125c-6.001,1.491 -11.837,3.585 -17.417,6.25c-0.863,2.31 -1.951,4.529 -3.25,6.625c-0.292,0.458 -0.667,1 -1,1.667c5.895,7.164 15.093,10.792 24.292,9.583c16.042,-2.042 20.042,-12.875 20.833,-15.667c-0.401,-0.378 -0.777,-0.781 -1.125,-1.208c-2.373,-2.486 -4.366,-5.308 -5.917,-8.375m18.875,-29.917c-1.583,0.833 -3.042,1.583 -4.167,2.042c-3.281,1.403 -6.704,2.451 -10.208,3.125c-1.173,3.203 -1.889,6.555 -2.125,9.958c-0.132,3.777 0.204,7.556 1,11.25c2.603,2.175 4.938,4.65 6.958,7.375l0.667,0.917c0.572,0.833 1.101,1.695 1.583,2.583c4.833,0 15.292,-1.208 17.625,-16.042c2.667,-16.792 -9,-20.667 -11.333,-21.208m-1.833,-4.083c0.458,-1.917 3.542,-18.125 -10.958,-25.583c-7.743,-3.706 -17.049,-2.02 -23,4.167c0,0.833 0.292,1.75 0.458,2.75c0.626,4.155 0.499,8.39 -0.375,12.5c3.255,2.529 6.76,4.721 10.458,6.542c3.601,1.728 7.353,3.123 11.208,4.167c2.55,-1.174 5.182,-2.163 7.875,-2.958c1.4,-0.641 2.849,-1.171 4.333,-1.583" style="fill:#fff;fill-rule:nonzero;"/><path d="M140.625,81.5c0,-1 -0.292,-1.917 -0.458,-2.75c-1.208,-5.417 -3.792,-6.25 -3.792,-6.25c0,0 -2.5,1.583 -2.208,9.208l0,1.208c-0.032,4.208 0.895,8.369 2.708,12.167c0.373,0.672 1.109,1.064 1.875,1c0.667,0 1.125,-0.917 1.583,-2.042c0.801,-4.134 0.899,-8.374 0.292,-12.542m35.417,22.958c2.708,-1.246 5.232,-2.858 7.5,-4.792c-3.171,-0.126 -6.346,0.126 -9.458,0.75c-1.412,0.285 -2.804,0.66 -4.167,1.125c-2.693,0.795 -5.325,1.784 -7.875,2.958c-2.125,1.125 -3.333,2.375 -2.958,3.875c0.375,1.5 1.292,1.375 2.792,1.292c3.505,-0.674 6.927,-1.722 10.208,-3.125c0.917,-0.542 2.417,-1.25 3.958,-2.083m-8.5,33.625c-2.045,-2.704 -4.378,-5.177 -6.958,-7.375c-0.607,-0.578 -1.332,-1.019 -2.125,-1.292c-0.917,-0.375 -1.667,-0.292 -2.042,0.292c-0.375,0.583 -0.458,1.375 0,2.5c0.221,0.783 0.5,1.549 0.833,2.292c1.557,3.03 3.519,5.833 5.833,8.333l1.125,1.208l0.833,0.833c1.952,1.964 4.504,3.225 7.25,3.583c-0.161,-2.444 -0.966,-4.802 -2.333,-6.833c-0.483,-0.888 -1.011,-1.75 -1.583,-2.583c-0.122,-0.427 -0.428,-0.778 -0.833,-0.958" style="fill:#fff;fill-rule:nonzero;"/><path d="M147.958,113.208c1.292,4.958 -2.792,10.417 -9.292,12.083c-5.51,2.009 -11.709,-0.685 -14,-6.083c-1.292,-4.958 2.792,-10.417 9.292,-12.083c5.51,-2.009 11.709,0.685 14,6.083" style="fill:#fff;fill-rule:nonzero;"/><path d="M824.375,141.75c0.762,-1.401 0.762,-3.099 0,-4.5c-0.809,-0.66 -1.982,-0.66 -2.792,0c-2.796,2.089 -4.866,5.005 -5.917,8.333c-0.266,0.666 -0.489,1.347 -0.667,2.042c-1.157,3.329 -1.817,6.811 -1.958,10.333c2.514,-2.51 4.892,-5.153 7.125,-7.917l1.125,-1.667c1.267,-2.089 2.301,-4.31 3.083,-6.625" style="fill:#fff;fill-rule:nonzero;"/><path d="M799.875,113.125c-6.94,4.402 -9.706,13.266 -6.5,20.833c3.626,8.526 12.156,13.985 21.417,13.708c0,-0.625 0.375,-1.292 0.667,-2.042c1.051,-3.328 3.121,-6.244 5.917,-8.333c-0.473,-4.101 -1.338,-8.147 -2.583,-12.083c-2.043,-4.219 -4.499,-8.225 -7.333,-11.958c-3.728,1.474 -7.888,1.429 -11.583,-0.125m37.958,-18.083c-1.794,-3.803 -2.705,-7.962 -2.667,-12.167l0,-1.208c-3.333,-2.667 -15.583,-11.042 -27.167,-1.667c-7.952,6.212 -10.304,17.353 -5.542,26.25c3.434,0.414 6.765,1.445 9.833,3.042c2.708,-2.125 7.25,-5.542 11.5,-8.333c4.485,-2.408 9.186,-4.389 14.042,-5.917" style="fill:#fff;fill-rule:nonzero;"/><path d="M801.375,106.125c-4.294,-0.707 -8.692,-0.451 -12.875,0.75c-4.183,1.201 1.75,3.583 11.125,6.167c3.736,1.385 7.847,1.385 11.583,0c1.064,-0.425 1.784,-1.439 1.833,-2.583c-0.103,-0.565 -0.435,-1.063 -0.917,-1.375c-3.082,-1.579 -6.405,-2.635 -9.833,-3.125c-0.302,0.073 -0.608,0.128 -0.917,0.167" style="fill:#fff;fill-rule:nonzero;"/><path d="M858.292,134.375c-5.496,-0.196 -10.998,0.181 -16.417,1.125c-6.044,1.482 -11.922,3.577 -17.542,6.25c-0.863,2.31 -1.951,4.529 -3.25,6.625c-0.278,0.472 -0.653,1.028 -1.125,1.667c5.895,7.164 15.093,10.792 24.292,9.583c16.042,-1.917 20.042,-12.875 20.833,-15.667c-0.401,-0.378 -0.777,-0.781 -1.125,-1.208c-2.275,-2.51 -4.183,-5.33 -5.667,-8.375m18.833,-29.917c-1.583,0.833 -3.167,1.583 -4.167,2.042c-3.242,1.47 -6.638,2.574 -10.125,3.292c-1.214,3.191 -1.931,6.55 -2.125,9.958c-0.082,3.775 0.253,7.548 1,11.25c2.603,2.175 4.938,4.65 6.958,7.375c0.228,0.323 0.479,0.629 0.75,0.917c0.572,0.833 1.101,1.695 1.583,2.583c4.708,0 15.292,-1.208 17.542,-16.042c2.5,-16.958 -9.042,-20.833 -11.417,-21.375m-1.792,-4.083c0.458,-1.917 3.542,-18.125 -11.042,-25.583c-7.747,-3.679 -17.036,-1.996 -23,4.167c0.242,0.903 0.423,1.822 0.542,2.75c0.618,4.159 0.462,8.397 -0.458,12.5c3.219,2.539 6.696,4.732 10.375,6.542c3.606,1.716 7.357,3.11 11.208,4.167c2.556,-1.162 5.187,-2.15 7.875,-2.958c1.469,-0.613 2.971,-1.142 4.5,-1.583" style="fill:#fff;fill-rule:nonzero;"/><path d="M841.792,81.5c-0.119,-0.928 -0.3,-1.847 -0.542,-2.75c-1.125,-5.417 -3.792,-6.25 -3.792,-6.25c0,0 -2.583,1.583 -2.333,9.208l0,1.208c-0.039,4.204 0.873,8.364 2.667,12.167c0.667,0.75 1.125,1.125 1.958,1c0.833,-0.125 1.125,-0.917 1.5,-2.042c0.994,-4.106 1.178,-8.366 0.542,-12.542m35.333,22.958c2.708,-1.246 5.232,-2.858 7.5,-4.792c-3.144,-0.132 -6.292,0.12 -9.375,0.75c-1.512,0.265 -3.002,0.641 -4.458,1.125c-2.698,0.78 -5.331,1.77 -7.875,2.958c-2.125,1.125 -3.333,2.375 -2.875,3.875c0.458,1.5 1.208,1.375 2.708,1.292c3.509,-0.658 6.933,-1.706 10.208,-3.125c1.125,-0.542 2.583,-1.25 4.167,-2.083m-8.458,33.625c-2.07,-2.682 -4.401,-5.153 -6.958,-7.375c-0.627,-0.552 -1.346,-0.99 -2.125,-1.292c-0.66,-0.401 -1.52,-0.278 -2.042,0.292c-0.312,0.804 -0.312,1.696 0,2.5c0.221,0.783 0.5,1.549 0.833,2.292c1.556,3.01 3.488,5.81 5.75,8.333l1.125,1.208l0.833,0.833c1.952,1.964 4.504,3.225 7.25,3.583c-0.203,-2.417 -0.959,-4.755 -2.208,-6.833c-0.483,-0.888 -1.011,-1.75 -1.583,-2.583c-0.245,-0.359 -0.539,-0.682 -0.875,-0.958" style="fill:#fff;fill-rule:nonzero;"/><path d="M848.917,113.208c1.292,4.958 -2.792,10.417 -9.167,12.083c-5.51,2.009 -11.709,-0.685 -14,-6.083c-1.292,-4.958 2.792,-10.417 9.292,-12.083c6.5,-1.667 12.583,1.083 13.875,6.083" style="fill:#fff;fill-rule:nonzero;"/><path d="M473.417,1047.625c0.542,-1.833 0.75,-3.417 0,-4.417c-0.75,-1 -1.667,-0.75 -2.792,0c-2.821,2.065 -4.898,4.989 -5.917,8.333c-0.292,0.625 -0.458,1.292 -0.75,2.042c-1.092,3.341 -1.71,6.82 -1.833,10.333c2.558,-2.498 4.938,-5.171 7.125,-8c0.408,-0.532 0.784,-1.089 1.125,-1.667c1.253,-2.09 2.273,-4.312 3.042,-6.625" style="fill:#fff;fill-rule:nonzero;"/><path d="M448.917,1019c-7.043,4.317 -9.867,13.253 -6.583,20.833c3.568,8.536 12.087,14.01 21.333,13.708c0.292,-0.667 0.458,-1.375 0.75,-2.042c1.019,-3.344 3.096,-6.269 5.917,-8.333c-0.543,-4.096 -1.435,-8.139 -2.667,-12.083c-1.996,-4.226 -4.426,-8.234 -7.25,-11.958c-3.699,1.474 -7.834,1.429 -11.5,-0.125m38.042,-18.042c-1.851,-3.784 -2.779,-7.954 -2.708,-12.167c-0.042,-0.374 -0.042,-0.751 0,-1.125c-3.417,-2.75 -15.583,-11.042 -27.167,-1.75c-7.952,6.212 -10.304,17.353 -5.542,26.25c3.436,0.405 6.769,1.436 9.833,3.042c3.647,-3.026 7.489,-5.81 11.5,-8.333c4.481,-2.446 9.2,-4.429 14.083,-5.917" style="fill:#fff;fill-rule:nonzero;"/><path d="M450.333,1012c-4.294,-0.714 -8.693,-0.458 -12.875,0.75c-4.182,1.208 1.75,3.5 11.125,6.25l0.292,0c3.706,1.394 7.794,1.394 11.5,0c1.068,-0.404 1.771,-1.442 1.75,-2.583c-0.15,-0.545 -0.471,-1.027 -0.917,-1.375c-3.049,-1.643 -6.389,-2.676 -9.833,-3.042c-0.375,0.083 -1.042,0.083 -1.042,0" style="fill:#fff;fill-rule:nonzero;"/><path d="M507.25,1040.25c-5.495,-0.21 -10.997,0.153 -16.417,1.083c-5.994,1.517 -11.826,3.61 -17.417,6.25c-0.835,2.322 -1.925,4.544 -3.25,6.625c-0.306,0.599 -0.684,1.159 -1.125,1.667c5.924,7.187 15.128,10.869 24.375,9.75c16.042,-2.042 20.042,-13 20.833,-15.667c-0.397,-0.411 -0.772,-0.842 -1.125,-1.292c-2.273,-2.572 -4.244,-5.396 -5.875,-8.417m18.917,-29.917c-1.35,0.757 -2.741,1.439 -4.167,2.042c-3.216,1.5 -6.623,2.552 -10.125,3.125c-1.214,3.191 -1.931,6.55 -2.125,9.958c-0.07,3.736 0.28,7.467 1.042,11.125c2.58,2.198 4.914,4.671 6.958,7.375c0.254,0.311 0.477,0.646 0.667,1c0.572,0.833 1.101,1.695 1.583,2.583c4.708,0 15.292,-1.083 17.542,-16.042c2.625,-16.75 -9.042,-20.625 -11.375,-21.167m-1.833,-4.042c0.375,-1.917 3.542,-18.125 -11.042,-25.583c-7.716,-3.706 -16.999,-2.018 -22.917,4.167c0.194,0.906 0.32,1.825 0.375,2.75c0.675,4.152 0.548,8.396 -0.375,12.5c3.256,2.592 6.809,4.788 10.583,6.542c3.592,1.681 7.312,3.074 11.125,4.167c2.537,-1.206 5.172,-2.195 7.875,-2.958c1.414,-0.643 2.877,-1.173 4.375,-1.583" style="fill:#fff;fill-rule:nonzero;"/><path d="M490.75,987.417c0,-1.083 -0.292,-1.917 -0.375,-2.75c-1.208,-5.417 -3.792,-6.25 -3.792,-6.25c0,0 -2.583,1.583 -2.333,9.208c-0.051,0.373 -0.051,0.752 0,1.125c-0.026,4.208 0.9,8.367 2.708,12.167c0.367,0.657 1.082,1.047 1.833,1c0.667,0 1.125,-0.917 1.5,-2.042c0.863,-4.096 1.018,-8.31 0.458,-12.458m35.417,22.917c2.716,-1.195 5.243,-2.781 7.5,-4.708c-3.145,-0.183 -6.3,0.069 -9.375,0.75c-1.508,0.283 -2.997,0.659 -4.458,1.125c-2.688,0.808 -5.319,1.796 -7.875,2.958c-2.125,1.125 -3.333,2.292 -2.875,3.792c0.458,1.5 1.292,1.375 2.708,1.292c3.481,-0.661 6.877,-1.709 10.125,-3.125c1.459,-0.604 2.879,-1.3 4.25,-2.083m-8.542,33.542c-2.017,-2.727 -4.353,-5.203 -6.958,-7.375c-0.636,-0.54 -1.353,-0.976 -2.125,-1.292c-0.626,-0.382 -1.416,-0.382 -2.042,0c-0.542,0.542 -0.542,1.458 -0,2.583c0.217,0.796 0.525,1.565 0.917,2.292c1.578,2.997 3.508,5.795 5.75,8.333c0.397,0.411 0.772,0.842 1.125,1.292c0.292,0 0.542,0.542 0.833,0.75c1.952,1.964 4.504,3.225 7.25,3.583c-0.137,-2.429 -0.898,-4.783 -2.208,-6.833c-0.483,-0.888 -1.011,-1.75 -1.583,-2.583c-0.331,-0.234 -0.651,-0.485 -0.958,-0.75" style="fill:#fff;fill-rule:nonzero;"/><path d="M498,1019.083c1.292,4.958 -2.792,10.417 -9.167,12.083c-6.375,1.667 -12.5,-1.083 -14,-6.083c-1.5,-5 2.792,-10.417 9.292,-12.083c6.5,-1.667 12.542,0.958 13.875,6.083" style="fill:#fff;fill-rule:nonzero;"/><path d="M784.667,818.125c0,0 13.625,-19.083 -34.208,-38.208c-35.417,-14.167 -84.208,-11.25 -115.25,-15.458c-25.958,-3.583 -28.833,-9.375 -27.458,-15.917c3.042,-14.292 27.333,-4.875 42.542,3.208c16.667,8.75 45.833,11.583 67.042,-8c5.268,-4.551 11.513,-7.83 18.25,-9.583c6.737,-1.753 -12.5,-8 -22.917,-0.917c-4.607,3.866 -10.332,6.158 -16.333,6.542c-15.208,1.125 -18.083,-3.667 -18.083,-3.667c0,0 7.792,5.167 26.875,-4.5c24.75,-12.5 9.917,-40.167 9.917,-40.167c0.576,6.784 -2.868,13.311 -8.792,16.667c-7.954,5.662 -18.585,5.992 -26.875,0.833c4.66,1.763 9.837,1.598 14.375,-0.458c10.833,-4.167 14.375,-9.75 10.75,-17.125c-1.799,-2.679 -4.056,-5.02 -6.667,-6.917c-2.611,-1.897 11.875,15.667 -35.125,12.5c-24,-1.458 -32.25,22.375 -32.25,22.375c-6.094,-1.462 -12.448,-1.462 -18.542,0c0.488,-4.606 -0.186,-9.262 -1.958,-13.542c-2.5,12.5 -11.958,20.167 -16.333,25.417c-4.375,5.25 -13.833,18.958 -1.958,35.167c11.792,13.625 33.083,15.583 46.625,16.667c20.042,1.458 53.208,3.208 82.625,7.292c39.667,5.417 32.75,24.333 27.917,30.125c-4.833,5.792 -14.458,6.375 -42,-3.208c-27.542,-9.583 -56.292,-26.625 -113.75,-24.417c-79.167,3.042 -135.833,60.708 -164.875,57.583c0.862,3.797 1.171,7.698 0.917,11.583c-2.583,20 -20.833,30.875 -20.833,30.875c0,0 -1,-4.167 -2.583,-4.167c-1.583,0 0,4.167 -6.667,9.125c-6.214,4.606 -10.4,11.453 -11.667,19.083c-1.266,7.631 -3.25,-6.375 -5.083,-0.625c-0.974,4.125 -4.208,7.359 -8.333,8.333c-4.125,0.974 0,-3.792 -1.875,-3.667c-2.5,0 -3.542,15.917 -31.25,13.375l-2.042,0.542c-20.292,3.417 -23.917,-16.375 -31.042,-23.375c-4.75,-4.5 -10.458,3.667 -10.458,3.667c-2.618,-3.373 -3.841,-7.627 -3.417,-11.875c0.542,-8.125 2.042,-10.875 -1.208,-16.375c-2.5,-4.167 -13.083,-13.167 -9.167,-28.375c-4.833,0 -14.458,-3.583 -18.458,-31.875c-0.292,-2.042 3.542,0.375 3.542,0.375c-0.75,-4.167 -4.542,-5.875 -5.292,-10.875c-1,-7.292 -2.042,-21.458 1.958,-26.333c6.125,-7.542 23,-10.208 15,-25c-0.544,1.562 -1.426,2.985 -2.583,4.167c-1.058,1.166 -2.597,1.781 -4.167,1.667c-2.849,-0.134 -5.094,-2.566 -5,-5.417c0.314,-1.907 1.306,-3.639 2.792,-4.875c1.486,-1.236 0,0 0,-0.292c-2.502,-0.156 -5.003,0.347 -7.25,1.458c0.375,-3.208 5.917,-20.375 -8.708,-24.125c0.233,2.329 -0.125,4.68 -1.042,6.833c-0.581,1.377 -1.741,2.429 -3.167,2.875c-2.741,0.878 -5.724,-0.613 -6.667,-3.333c-0.387,-1.912 -0.013,-3.901 1.042,-5.542c0.263,-0.723 0.485,-1.46 0.667,-2.208c-14.083,1.667 -11.208,19.875 -11.042,22.667c-0.292,-4.167 -8.917,-15.667 -17.042,-10.417c-0.299,0.179 -0.578,0.388 -0.833,0.625c0.995,0.781 1.866,1.708 2.583,2.75c0.862,1.204 1.166,2.723 0.833,4.167c-0.694,2.767 -3.508,4.5 -6.292,3.875c-1.958,-0.458 -2.958,-1.917 -4.167,-3.667c0,0 0,-0.292 -0.375,-0.458c-2.958,3.792 -2.5,10.583 5.375,16.667c11.792,8.75 15.667,44.5 13.833,49.167c-2.417,6.333 -8.708,-2.75 -8.708,-2.75c-0.408,5.951 1.305,11.858 4.833,16.667c10.375,14.833 13.542,21.375 5.75,18.875c-1.76,-0.755 -3.391,-1.782 -4.833,-3.042c-1.442,-1.26 0.458,7.375 9.917,15.125c3.792,3.042 3.25,4.708 0.542,4.417c-2.022,-0.298 -3.932,-1.117 -5.542,-2.375c1.931,4.673 4.421,9.094 7.417,13.167c4.228,5.903 9.427,11.045 15.375,15.208c-7.863,-1.299 -15.395,-4.13 -22.167,-8.333c-19.458,-11.333 -11.333,-19.25 -17.167,-32.583c-5.833,-13.333 -9.167,-14.833 -14.917,-15.667l-0.458,0c0.372,0.922 0.624,1.889 0.75,2.875c0.245,1.485 -0.166,3.006 -1.125,4.167c-1.869,2.169 -5.151,2.501 -7.417,0.75c-1.374,-1.399 -2.139,-3.289 -2.125,-5.25c-3.975,2.248 -5.991,6.895 -4.917,11.333c-4.246,-4.85 -9.671,-8.524 -15.75,-10.667c-3.437,-0.364 -6.903,0.35 -9.917,2.042c-0.15,0.043 -0.309,0.043 -0.458,0c0.34,0.205 0.648,0.458 0.917,0.75c1.235,0.886 2.014,2.276 2.125,3.792c0.118,2.882 -2.121,5.364 -5,5.542c-1.932,-0.125 -3.748,-0.973 -5.083,-2.375c-0.229,-0.185 -0.481,-0.339 -0.75,-0.458c-3.417,6.083 -2.417,17.667 17.792,24.208c0,0 -9.625,1.458 -12.792,8.583c2.298,-0.239 4.62,0.105 6.75,1c1.876,0.848 3.088,2.725 3.088,4.784c0,2.237 -1.43,4.24 -3.546,4.966c-1.947,0.381 -3.968,0.024 -5.667,-1c-0.29,-0.161 -0.597,-0.287 -0.917,-0.375c2.333,10.042 10.583,11.583 17.542,11.5c18.731,0.053 37.144,4.871 53.5,14c-3.906,0.314 -7.54,2.139 -10.125,5.083c-3.792,4.792 -2.875,7.625 -2.875,7.625c3.013,-2.134 6.533,-3.442 10.208,-3.792c7.958,-1.375 9.542,1.458 9.542,1.458c-4.843,1.703 -8.103,6.305 -8.103,11.438c0,1.64 0.333,3.262 0.978,4.77c3.393,-3.37 7.472,-5.971 11.958,-7.625c6.042,-2.042 13,-1.583 15.667,2.292c3.792,5.417 -12.5,10.667 -12.5,10.667c11.208,6.625 35.792,3.417 35.792,3.417c0,0 -17.167,3.042 -17.042,14.167c0,0 10.667,-8.125 31.625,0c31.708,12.167 70.542,18.042 121.292,-2.375c64.083,-25.875 65.833,-80.75 154.833,-109.958c2.875,4.167 22.917,22.833 48.042,32.042c20.125,7.458 48.667,12.5 57.292,14.542c12.5,3.042 34.75,7.75 21.417,31.792c-4.159,7.594 -10.2,13.994 -17.542,18.583c-1.042,0 -7.625,-2.042 -17.167,-5.417c-5.542,-2.042 -9.625,-0.75 -11.417,2.958c1.435,-0.052 2.862,0.233 4.167,0.833c1.203,0.548 2.156,1.531 2.667,2.75c0.831,2.434 -0.458,5.123 -2.875,6c-1.676,0.33 -3.416,0.065 -4.917,-0.75c-0.123,-0.028 -0.252,-0.028 -0.375,0c0.116,3.673 2.802,6.795 6.417,7.458c-3.647,1.349 -6.19,4.707 -6.5,8.583c1.09,-0.466 2.24,-0.775 3.417,-0.917c1.349,-0.126 2.692,0.312 3.708,1.208c0.975,0.884 1.532,2.141 1.532,3.457c0,1.174 -0.443,2.306 -1.24,3.168c-1.332,1.163 -3.067,1.762 -4.833,1.667c-1.766,-0.095 0.292,0.292 0.542,0.375c3.875,4.875 15.292,1.208 15.292,1.208c-1.449,3.277 -1.102,7.081 0.917,10.042c0.487,-1.65 1.31,-3.182 2.417,-4.5c0.907,-0.999 2.192,-1.573 3.542,-1.583c2.59,-0 4.727,2.118 4.75,4.708c-0.176,1.718 -1.013,3.303 -2.333,4.417l-0.667,0.833c0.65,0.086 1.308,0.086 1.958,0c5.458,-0.833 13.333,-5.792 17.042,-17.583c4.458,-13.542 8.917,-16.667 8.917,-16.667c0,0 11.5,-10.792 7.125,8.333c11.417,-3.042 10,-15.375 10,-15.375c0,0 9.167,4.167 11.958,1.917c3.792,-3.042 0,-11.958 4.458,-18.333c4.917,-7 7.708,1.125 5.917,6.833c4.512,-1.816 7.443,-6.263 7.333,-11.125c0.375,-5.792 -2.042,-12.5 3.542,-17.583c4.167,-3.5 5.208,1.583 4.167,6.25c0,0 5.458,0.292 6.417,-9.125c0.542,-5.708 -0.833,-7.542 0.833,-8.333c1.667,-0.792 3.542,4.708 3.542,4.708c2.741,-6.246 0.521,-13.632 -5.208,-17.333c-16.667,-10.875 -59.25,-3.417 -84.667,-43.208c-9.292,-14.542 -2.417,-21.292 -2.417,-21.292c0,0 45.25,21.167 69.708,17.667c29.5,-4.167 29.583,-20 29.583,-20c0,0 4.833,0.917 0.667,10.417c3.834,-1.229 6.741,-4.405 7.625,-8.333c2.655,-7.88 0.887,-16.607 -4.625,-22.833c7.042,-0.125 7.208,8.208 7.208,8.208" style="fill:#fff;fill-rule:nonzero;"/><path d="M161.5,895.958c2.17,-0.676 3.659,-2.699 3.659,-4.972c0,-0.532 -0.082,-1.062 -0.242,-1.569c-0.482,-1.415 -1.521,-2.575 -2.875,-3.208c-2.13,-0.895 -4.452,-1.239 -6.75,-1c-0.276,-0.047 -0.558,-0.047 -0.833,0c-6.268,0.74 -11.457,5.297 -13,11.417c3.875,-2.915 8.96,-3.713 13.542,-2.125c0.325,0.072 0.635,0.199 0.917,0.375c1.656,1.055 3.653,1.443 5.583,1.083m-5.375,-40.625c2.879,-0.178 5.118,-2.66 5,-5.542c-0.111,-1.516 -0.89,-2.906 -2.125,-3.792c-0.292,-0.292 -0.667,-0.458 -0.917,-0.75c-2.406,-1.455 -5.165,-2.224 -7.976,-2.224c-5.626,0 -10.823,3.08 -13.524,8.015c4.531,-1.917 9.736,-1.431 13.833,1.292c0.233,0.179 0.485,0.332 0.75,0.458c1.236,1.488 3.029,2.407 4.958,2.542m35.125,-7.625c2.251,1.795 5.57,1.459 7.417,-0.75c0.959,-1.16 1.37,-2.681 1.125,-4.167c-0.149,-0.951 -0.43,-1.876 -0.833,-2.75c-0.601,-1.516 -1.446,-2.923 -2.5,-4.167c-4.05,-4.837 -10.703,-6.683 -16.667,-4.625c4.89,1.705 8.486,5.94 9.375,11.042c-0.08,2.014 0.674,3.975 2.083,5.417m76.958,-82.458c-0.094,2.85 2.151,5.282 5,5.417c1.564,0.073 3.085,-0.535 4.167,-1.667c1.157,-1.182 2.039,-2.605 2.583,-4.167c0.377,-0.855 0.656,-1.749 0.833,-2.667c1.345,-6.146 -1.29,-12.517 -6.583,-15.917c1.591,4.827 0.458,10.154 -2.958,13.917c-3.417,3.762 0,0 0,0.292c-1.589,1.149 -2.678,2.865 -3.042,4.792m-23.708,-21.542c0.689,2.151 2.702,3.621 4.96,3.621c0.581,0 1.157,-0.097 1.706,-0.287c1.423,-0.451 2.581,-1.502 3.167,-2.875c0.99,-2.133 1.379,-4.496 1.125,-6.833c0.053,-0.205 0.053,-0.42 0,-0.625c-0.765,-6.258 -5.367,-11.411 -11.5,-12.875c2.639,3.495 3.531,8.015 2.417,12.25c-0,0.75 -0.375,1.375 -0.667,2.208c-1.141,1.557 -1.579,3.522 -1.208,5.417m-30.042,16.083c2.784,0.625 5.597,-1.108 6.292,-3.875c0.332,-1.443 0.029,-2.962 -0.833,-4.167c-0.712,-1.046 -1.584,-1.974 -2.583,-2.75c-1.06,-0.724 -2.175,-1.364 -3.333,-1.917c-5.815,-2.481 -12.59,-1.155 -17.042,3.333c5.004,-0.616 9.979,1.444 13.083,5.417l0.375,0.375c0.806,1.692 2.265,2.986 4.042,3.583m437.625,201.75c2.417,-0.877 3.706,-3.566 2.875,-6c-0.463,-1.264 -1.452,-2.267 -2.708,-2.75c-1.32,-0.55 -2.736,-0.833 -4.167,-0.833c-0.859,-0.089 -1.725,-0.089 -2.583,0c-5.608,0.85 -10.124,5.116 -11.292,10.667c3.528,-2.79 8.248,-3.592 12.5,-2.125c0.123,-0.028 0.252,-0.028 0.375,0c1.476,0.964 3.262,1.336 5,1.042m1.667,15.458c-1.016,-0.896 -2.359,-1.334 -3.708,-1.208c-1.177,0.142 -2.327,0.451 -3.417,0.917c-1.021,0.474 -1.985,1.061 -2.875,1.75c-4.538,3.352 -6.536,9.197 -5,14.625c1.815,-4.266 5.775,-7.256 10.375,-7.833c1.768,0.109 3.508,-0.491 4.833,-1.667c1.744,-1.865 1.65,-4.832 -0.208,-6.583m22.917,18.5c-0.022,-2.574 -2.134,-4.686 -4.708,-4.708c-1.34,0.052 -2.609,0.619 -3.542,1.583c-1.14,1.295 -1.967,2.835 -2.417,4.5c-0.195,0.571 -0.348,1.156 -0.458,1.75c-0.975,5.6 1.618,11.254 6.5,14.167c-1.477,-4.052 -0.852,-8.583 1.667,-12.083c0.169,-0.292 0.396,-0.548 0.667,-0.75c1.264,-1.171 2.075,-2.75 2.292,-4.458" style="fill:#fff;fill-rule:nonzero;"/><path d="M654.792,908.75c-51.667,-9.75 -62.5,-16.208 -83.333,-36.292c-2.125,1 -10.292,15.458 11.667,36.292c4.788,4.754 10.584,8.372 16.958,10.583c-11.453,-1.674 -23.069,-1.926 -34.583,-0.75c-9.167,-2.583 -15.75,-14.083 -27.917,-18.792c-3.169,-1.471 -6.831,-1.471 -10,0c1.349,0.515 2.581,1.294 3.625,2.292c0.982,0.885 1.544,2.146 1.544,3.468c0,2.56 -2.107,4.667 -4.667,4.667c-0.098,0 -0.196,-0.003 -0.294,-0.009c-1.632,-0.336 -3.102,-1.218 -4.167,-2.5l-1.125,-1c-0.618,4.211 0.955,8.458 4.167,11.25c-5.831,-0.6 -11.245,3.316 -12.5,9.042c1.624,-0.766 3.416,-1.11 5.208,-1c1.37,-0.002 2.67,0.61 3.542,1.667c0.697,0.838 1.08,1.895 1.08,2.985c0,1.414 -0.643,2.755 -1.746,3.64c-1.475,0.966 -3.267,1.324 -5,1c-0.869,0.007 -1.735,0.105 -2.583,0.292c0,0.292 0,0.542 0.375,0.625c3.792,11.333 21.25,3.042 21.25,3.042c0,0 -8.917,6.458 -4.167,14.292c0.5,-1.13 1.159,-2.182 1.958,-3.125c0.899,-1.021 2.182,-1.625 3.542,-1.667c0.056,-0.002 0.111,-0.003 0.167,-0.003c2.514,0 4.583,2.069 4.583,4.583c0,0.015 -0,0.03 -0,0.045c-0.198,1.754 -1.064,3.366 -2.417,4.5c-0.435,0.482 -0.813,1.014 -1.125,1.583c12.25,4.625 22.083,-13.708 22.083,-14.292c-0.805,7.141 3.442,13.954 10.208,16.375c-0.77,-3.721 0.907,-7.546 4.167,-9.5c5.025,-2.604 10.702,-3.69 16.333,-3.125c-1.667,6.708 0.833,9.75 4.542,10.958c0.917,-14.167 27.542,-14.625 27.542,-14.625c1.209,3.493 3.987,6.225 7.5,7.375c-0.075,-4.56 1.899,-8.922 5.375,-11.875c5.833,-4.417 15.375,-4.583 25.5,-10.208c12.167,-6.667 9.667,-19.5 -7.292,-21.792" style="fill:#fff;fill-rule:nonzero;"/><path d="M542.792,953.25c0,-0.024 0.001,-0.048 0.001,-0.072c0,-2.56 -2.107,-4.667 -4.667,-4.667c-1.43,0 -2.783,0.657 -3.667,1.781c-0.833,0.917 -1.497,1.975 -1.958,3.125c-0.402,0.982 -0.709,2.001 -0.917,3.042c-0.975,5.6 1.618,11.254 6.5,14.167c-1.38,-3.73 -0.932,-7.899 1.208,-11.25c0.341,-0.578 0.717,-1.134 1.125,-1.667c1.356,-1.108 2.212,-2.715 2.375,-4.458m-20.333,-19.083c1.979,-1.646 2.278,-4.617 0.667,-6.625c-0.829,-1.109 -2.159,-1.735 -3.542,-1.667c-1.789,-0.065 -3.57,0.277 -5.208,1c-0.458,0 -0.917,0.458 -1.5,0.75c-4.989,2.722 -7.774,8.292 -6.958,13.917c1.941,-3.23 5.201,-5.455 8.917,-6.083c0.848,-0.193 1.714,-0.291 2.583,-0.292c1.746,0.34 3.558,-0.019 5.042,-1m5.375,-24.042c2.569,0.072 4.761,-1.935 4.917,-4.5c0.039,-1.354 -0.508,-2.661 -1.5,-3.583c-1.057,-0.959 -2.288,-1.709 -3.625,-2.208c-0.804,-0.36 -1.641,-0.639 -2.5,-0.833c-5.539,-1.209 -11.286,1.093 -14.458,5.792c3.971,-1.227 8.297,-0.516 11.667,1.917l1.125,0.917c1.102,1.341 2.66,2.231 4.375,2.5" style="fill:#fff;fill-rule:nonzero;"/><path d="M432.167,809.208c2.208,-18.417 -10.583,-17.125 -10.583,-17.125c3.271,-2.604 5.635,-6.179 6.75,-10.208c3.042,-11.417 -3.708,-26.417 -3.708,-26.417c0,0 -7.042,12.5 -15.375,3.667c3.381,-4.613 4.778,-10.394 3.875,-16.042c-0.833,3.125 -26.792,22.667 -34.125,-12.5c-14.75,3.208 -13.458,17.417 -22.458,16.292c-4.833,-0.542 -9.625,-4.417 -6.042,-13.542c-7.792,0.613 -14.158,6.629 -15.208,14.375c-2.417,16.958 -10.75,-5.708 -22.083,-4.875c0,0 -8.333,8.917 -7.958,27.833c-10.208,0.458 -14.833,8.333 -15.75,20.833c-2.875,36 -12.5,24.125 -12.5,25c3.167,22.208 15.75,10.417 15.75,10.417c-2.125,15.458 -16.208,7 -16.208,7c4.167,23.667 14.083,15.833 14.083,15.833c-4.542,19.708 2.958,25 5.667,28.625c3.826,4.056 5.266,9.831 3.792,15.208c-0.679,3.4 -0.903,6.875 -0.667,10.333c0.236,3.459 6.042,-6.083 10.292,-1.458c6.583,6.917 10.583,27.917 25.792,25.333c0,0 -1.833,-9.208 1.5,-9.208c3.333,0 4.167,8.125 4.167,8.125c4.167,0.458 15.583,2.208 21.958,-5.875c3.792,-4.792 4.708,-11.708 8.708,-11.417c3.042,0.292 3.333,5.875 3.333,5.875c2.708,-1.667 3.167,-3.125 4.458,-9.667c1.5,-8.333 5.667,0.458 5.667,0.458c0.978,-6.175 4.602,-11.626 9.917,-14.917c7.125,-4.5 5.083,-16.667 9.375,-20c4.292,-3.333 5.667,9.958 5.667,9.958c9.398,-7.924 13.36,-20.64 10.125,-32.5c-2.417,-9.208 -5.083,-17.042 -2.042,-17.792c3.042,-0.75 2.208,8.333 8.333,11.792c4.167,2.583 11.042,-1 11.042,-1c-7.792,-8.5 -6.583,-23.5 -5.542,-32.417m-109.208,-13.458l0,-1.583l0.667,0.375l9.833,4.167c-0.702,0.57 -1.294,1.261 -1.75,2.042c-0.445,0.856 -0.677,1.806 -0.677,2.771c0,3.297 2.713,6.01 6.01,6.01c2.24,0 4.301,-1.252 5.333,-3.239c0.511,-1.15 0.671,-2.426 0.458,-3.667c4.132,1.796 6.626,6.106 6.125,10.583c-0.738,4.764 -2.273,9.371 -4.542,13.625c-2.268,4.254 -3.25,-1.458 -1.5,-7c1.958,-6.708 1,-6.833 1,-6.833c-4.045,0.798 -8.236,0.377 -12.042,-1.208l-0.542,-0.375c-5.408,-3.328 -8.627,-9.32 -8.417,-15.667l0.042,-0Zm42.292,69.083c-7.25,6.167 -5.917,15.458 -7.5,21.917c-1.526,6.148 -7.091,10.5 -13.426,10.5c-1.192,0 -2.38,-0.154 -3.533,-0.459c-6.75,-1.125 -13.167,-5.167 -13.708,-12.25c-0.667,-8.333 13,-18.875 4.167,-29.167c-7.042,-8.333 -6.667,-12.5 -6.667,-12.5c1.758,2.16 3.98,3.897 6.5,5.083c1.583,0.833 15.5,7.292 18.167,-3.333c0.667,-2.667 -1.375,-4.167 -3.042,-5.417c-1.149,-0.666 -2.236,-1.433 -3.25,-2.292c-1.215,-1.493 -1.365,-3.599 -0.375,-5.25c2.675,3.178 6.373,5.33 10.458,6.083c4.359,0.612 8.803,-0.054 12.792,-1.917c0.156,0.444 0.236,0.911 0.236,1.382c0,2.286 -1.881,4.167 -4.167,4.167c-0.079,0 -0.157,-0.002 -0.236,-0.007c-2.958,0.375 -7.417,0.542 -7.875,4.167c-1.75,12.25 16.042,9.667 21.417,8.75c4.167,-0.75 6.417,-1.292 6.417,-1.292c-3.333,5.292 -9.833,6.292 -16.417,11.833l0.042,0Zm32.917,-55.458l-0.292,0.75c-2.378,5.865 -7.607,10.117 -13.833,11.25l-0.542,0c-4.15,0.022 -8.214,-1.197 -11.667,-3.5c-3.453,-2.303 -0.917,-0.292 -1.75,6.625c-0.542,5.708 -4.167,5.792 -4.167,5.792c-0.446,-4.821 -0.066,-9.682 1.125,-14.375c1.215,-4.308 5.15,-7.322 9.625,-7.375c-0.706,1.089 -1.055,2.37 -1,3.667c0.369,3.233 3.253,5.637 6.5,5.417c3.292,-0.264 5.797,-3.163 5.583,-6.458c-0.098,-0.909 -0.381,-1.789 -0.833,-2.583l11.5,0l-0.25,0.792Z" style="fill:#fff;fill-rule:nonzero;"/><path d="M339.25,892.375c15.292,4.167 15.583,-11.875 15.75,-14.917c1,-16.125 12.25,-17.417 14.167,-19.25c-5.208,1 -15.75,0.625 -19.083,-5.333c-5.264,2.528 -11.403,2.528 -16.667,0c1.778,1.906 3.191,4.124 4.167,6.542c0.984,4.213 0.452,8.64 -1.5,12.5c-1.75,3.5 -10.75,17.042 3.167,20.458" style="fill:#fff;fill-rule:nonzero;"/><path d="M744.542,622.958c-123.792,-4.167 -155.042,-39.042 -155.042,-39.042c0,0 -14.167,23.375 42.667,48c0,0 -19.208,-3.125 -29.958,-3.583c-8.762,-0.273 -17.529,0.342 -26.167,1.833c-8.638,1.492 -14.292,-13 -24.292,-16.667c-4.19,-1.988 -9.06,-1.988 -13.25,0c1.438,0.484 2.758,1.265 3.875,2.292c1.135,0.963 1.778,2.387 1.75,3.875c-0.023,2.841 -2.367,5.167 -5.208,5.167c-1.893,-0.25 -3.637,-1.166 -4.917,-2.583c-0.542,-0.458 -1.125,-0.75 -1.583,-1.208c-1.875,5.002 0.233,10.682 4.917,13.25c-14.375,3.125 -18.625,6.708 -18.708,13.917c1.432,-0.742 3.013,-1.155 4.625,-1.208c1.54,-0.2 3.087,0.342 4.167,1.458c0.985,0.957 1.541,2.273 1.541,3.646c0,1.373 -0.556,2.689 -1.541,3.646c-1.476,1.222 -3.387,1.793 -5.292,1.583c-0.402,0.039 -0.807,0.039 -1.208,0c2.958,5.167 9.458,7.833 18.542,4.708c1.817,-0.535 3.587,-1.217 5.292,-2.042c1.705,-0.824 -7.792,8.833 -4.458,17.333c0.69,-1.148 1.596,-2.153 2.667,-2.958c1.144,-0.988 2.699,-1.361 4.167,-1c2.449,0.422 4.255,2.566 4.255,5.051c0,0.319 -0.03,0.636 -0.089,0.949c-0.375,1.833 -1.75,2.958 -3.542,4.167l-1.125,1c1.21,0.503 2.448,0.934 3.708,1.292c7.958,2.208 14.542,-4.417 19.917,-10.958c10.833,-13.083 21.5,-9.125 21.5,-9.125c-7.25,7.167 -0.458,15.833 -0.458,15.833c0,0 5.917,-13.917 15.75,-9.958c-1.958,8.333 6.583,13.167 6.583,13.167c0,0 5.083,-13.625 11.667,-13.625c8.708,0 4.167,13.167 4.167,13.167c0,0 4.708,-0.625 12.25,-8c4.917,-4.875 9.167,-10.208 19.292,-9.5c0.34,6.554 4.272,12.411 10.208,15.208c-0.292,-32.5 45.833,-36.917 53.583,-38.417c22.042,-3.708 19.75,-20.667 19.75,-20.667" style="fill:#fff;fill-rule:nonzero;"/><path d="M538.958,625c0.014,0 0.028,0 0.042,0c2.834,0 5.167,-2.332 5.167,-5.167c0,-0 -0,-0 -0,-0c0.028,-1.488 -0.615,-2.912 -1.75,-3.875c-1.117,-1.027 -2.437,-1.808 -3.875,-2.292c-0.931,-0.363 -1.894,-0.642 -2.875,-0.833c-6.153,-1.084 -12.385,1.653 -15.75,6.917c4.16,-1.435 8.752,-0.93 12.5,1.375c0.486,0.454 1.017,0.859 1.583,1.208c1.26,1.479 3.03,2.431 4.958,2.667m-11.667,30.958c1.006,-0.959 1.577,-2.29 1.577,-3.68c0,-2.789 -2.295,-5.083 -5.083,-5.083c-0.123,0 -0.246,0.004 -0.368,0.013c-1.612,0.053 -3.193,0.466 -4.625,1.208c-0.854,0.367 -1.665,0.828 -2.417,1.375c-5.198,3.425 -7.693,9.788 -6.208,15.833c2.062,-4.227 6.095,-7.165 10.75,-7.833l1.208,0c1.891,0.063 3.738,-0.593 5.167,-1.833m23.75,23.75c0.064,-0.324 0.096,-0.653 0.096,-0.983c0,-2.48 -1.815,-4.616 -4.263,-5.017c-1.481,-0.362 -3.049,0.046 -4.167,1.083c-1.086,0.801 -2.006,1.806 -2.708,2.958c-0.665,0.98 -1.224,2.027 -1.667,3.125c-2.305,5.861 -0.625,12.58 4.167,16.667c-0.78,-4.596 0.785,-9.291 4.167,-12.5l1.125,-1c1.554,-1.022 2.704,-2.555 3.25,-4.333m-237.208,-98.833c17.167,5.875 18.833,-12.167 19.375,-15.458c2.583,-18.25 15.5,-18.708 17.792,-20.542c-6.042,0.625 -18,-0.625 -21.333,-7.917c-6.211,2.395 -13.19,1.811 -18.917,-1.583c1.791,2.333 3.108,4.994 3.875,7.833c0.805,4.876 -0.187,9.883 -2.792,14.083c-1.958,3.875 -13.458,18.25 2,23.583" style="fill:#fff;fill-rule:nonzero;"/><path d="M428.708,470.542c5.208,-12.5 -1.125,-35.458 -1.125,-35.458c0,0 -10.375,16.292 -19.083,7.542c-8.333,-8.125 0.542,-20.833 0.542,-20.833c-9.917,-3.208 -18.375,10.333 -30.708,3.667c-8.625,-4.708 1.5,-20.167 1.5,-20.167c-6.927,-0.044 -13.785,1.376 -20.125,4.167c-8.708,4.167 -12.5,7.75 -18.542,7.542c-8.333,-0.292 -5.375,-13.833 -5.375,-13.833c-6.572,0.29 -12.515,4.056 -15.583,9.875c-2.707,5.322 -6.984,9.686 -12.25,12.5c-2.667,-4.167 -8.625,-4.167 -13.083,-5.625c-2.946,-0.797 -5.755,-2.033 -8.333,-3.667c-2.578,-1.633 -9.167,17.5 -4.917,32.042c-6.958,1.833 -8.792,9.5 -9.917,13.375c-7.958,28.833 -19.917,16.042 -19.833,16.667c2.208,25.5 17.042,24.667 15.75,30.667c-1.75,8 -15.5,-2.958 -15.5,-2.958c0.375,17.958 8.333,19.167 11.792,29.833c2.875,9.292 -2.958,15.458 1.75,29.75c4.708,14.292 1.292,20.167 1.292,20.167c6.264,-0.018 12.268,-2.54 16.667,-7c-2.042,18.875 6.958,27.833 6.958,27.833c0,0 5.583,-11.5 7.958,-3.875c6.292,20.542 16.667,27.833 16.667,27.833c0,0 9.375,-0.292 25.875,-17.667c11.583,-12.083 6.292,3.5 6.292,3.5c0,0 8.083,0.75 24.75,-29.75c5.458,-9.833 14.458,-15.583 17.708,0.458c19.083,-20.542 12.5,-42.75 12.5,-50.458c0,-6.917 3.417,-7.75 3.708,-4.625c1.958,18.958 21.958,12.5 21.958,12.5c0,0 -8.333,-8.333 0,-37.125c2.197,-9.64 0.819,-19.757 -3.875,-28.458c-4.694,-8.702 3.583,-6.125 4.583,-8.417m-124.542,-1l0,-1.75l0.75,0.458l10.958,5.625c-0.911,0.537 -1.671,1.297 -2.208,2.208c-0.691,1.08 -1.058,2.335 -1.058,3.617c0,2.358 1.243,4.549 3.267,5.758c3.18,1.953 7.401,0.958 9.375,-2.208c0.803,-1.229 1.102,-2.723 0.833,-4.167c4.503,2.396 6.918,7.498 5.917,12.5c-1.228,5.381 -3.4,10.503 -6.417,15.125c-3.016,4.622 -3.417,-2.042 -1,-8c2.792,-7.458 1.667,-7.625 1.667,-7.625c-4.661,0.522 -9.374,-0.348 -13.542,-2.5l-0.833,-0.458c-5.567,-4.465 -8.466,-11.492 -7.667,-18.583l-0.042,0Zm41.667,82.417c-8.792,6.333 -8.333,17.042 -10.583,24.208c-2.052,6.424 -8.061,10.814 -14.805,10.814c-1.814,0 -3.615,-0.318 -5.32,-0.939c-7.708,-1.833 -14.542,-7 -14.542,-15.208c0,-9.292 16.667,-20.375 7.583,-32.708c-7.333,-10.125 -6.5,-14.542 -6.5,-14.542c1.885,2.585 4.282,4.755 7.042,6.375c1.75,1.125 16.667,9.667 20.833,-2.125c1,-2.958 -1.125,-4.875 -3.042,-6.542c-1.222,-0.886 -2.365,-1.876 -3.417,-2.958c-1.21,-1.843 -1.21,-4.24 0,-6.083c2.776,3.86 6.816,6.632 11.417,7.833c4.909,1.111 10.036,0.763 14.75,-1c0.11,0.402 0.166,0.818 0.166,1.235c0,2.56 -2.107,4.667 -4.667,4.667c-0.167,0 -0.334,-0.009 -0.5,-0.027c-3.417,0 -8.333,0 -9.458,4.167c-3.167,13.917 17.417,12.5 23.625,11.958c2.458,-0.142 4.906,-0.42 7.333,-0.833c-4.333,5.542 -11.875,6 -19.833,11.708l-0.083,-0Zm42.667,-60.042l-0.458,0.75c-3.168,6.482 -9.487,10.873 -16.667,11.583l-0.75,0c-4.689,-0.335 -9.173,-2.062 -12.875,-4.958c-3.702,-2.897 -1.042,-0.458 -2.583,7.375c-1.208,6.333 -5.208,6.25 -5.208,6.25c-0.121,-5.514 0.754,-11.005 2.583,-16.208c1.858,-4.805 6.65,-7.87 11.792,-7.542c-0.954,1.18 -1.483,2.649 -1.5,4.167c0,3.794 3.122,6.917 6.917,6.917c3.794,0 6.917,-3.122 6.917,-6.917c-0.02,-1.041 -0.307,-2.06 -0.833,-2.958l12.25,0.917l0.833,0l-0.417,0.625Z" style="fill:#fff;fill-rule:nonzero;"/><path d="M891.042,609.542c0,0 1.125,-17.5 -11.667,-22.083c-16.667,-6.083 -38.375,1.75 -81.417,-2.208c-104.417,-9.75 -91.667,-47.25 -91.667,-47.25c0,0 65.667,29.167 93.458,15.458c15.375,-7.458 14.375,-20.833 14.375,-20.833c4.167,5.083 -0.375,14.917 -0.375,14.917c0,0 26.875,-19.708 -5.083,-50.375c-11.583,-11.042 -32.833,-19.25 -48.875,-21.375c-45.833,-6 -63.5,-3.5 -95.833,-7.917c-27.083,-3.792 -33.333,-13.25 -31.792,-20.833c4.167,-22.292 54.708,9.375 82.417,-2.75c7.417,-3.333 13.542,-8.333 19.917,-10.042c4.494,-0.885 9.133,-0.7 13.542,0.542c4.409,1.241 -6.5,-11.708 -28,-7.167c-17.625,3.667 -19,-2.208 -19,-2.208c6.708,0.017 13.279,-1.908 18.917,-5.542c6.875,-4.167 8.792,-12.5 16.333,-15.833c5.945,-2.312 12.527,-2.415 18.542,-0.292c-7.432,-11.891 -23.28,-15.638 -35.25,-8.333c-15.75,10.208 -21.5,2.667 -21.5,2.667c8.256,-0.622 15.534,-5.735 18.917,-13.292c5.833,-11.625 13.333,-13.458 13.333,-13.458c-7.448,-3.156 -16.108,-1.507 -21.875,4.167c-6.5,6.25 -15.958,8.125 -32.167,7.917c-20.583,-0.292 -28.833,24.042 -28.833,24.042c-5.282,0.447 -10.436,1.859 -15.208,4.167c-4.818,2.781 -9.27,6.155 -13.25,10.042l2.583,-7.917c0,0 -15.292,7.542 -15.667,30.833c-0.75,39.333 42.208,42.458 56.292,43.542c20.833,1.583 60.75,2.667 91.25,6.833c41.333,5.625 42.458,24.583 37,33.333c-6.042,9.75 -23,4.792 -51.75,-5.25c-28.75,-10.042 -52.958,-26.542 -111,-24.667c-91.667,2.958 -188.667,67.792 -216.667,51.208c1.375,10.583 -1.125,32.333 -25.208,51.75c-0.917,-16.208 -5.917,-14.083 -11.417,-4.167c-15.375,27.458 -31.333,30.208 -31.333,30.208c0,0 2.958,-9.292 -7.417,-0.375c-6.388,5.498 -14.152,9.156 -22.458,10.583c-8.834,-6.621 -15.178,-16.035 -18,-26.708c-0.458,-2.042 -2.958,5.167 -2.958,5.167c-12.25,-5.875 -15.125,-25 -15.125,-25c0,0 -5.833,3.792 -19.208,1.583c0,0 7.5,-8.333 -0.917,-29.583c-16.667,0 -83.333,-11.5 -91.667,-45.583c-3.042,-12.708 -6.875,-18.792 -14.917,-19.333c0.673,0.702 1.235,1.503 1.667,2.375c0.774,1.373 0.911,3.018 0.375,4.5c-0.824,2.158 -2.906,3.592 -5.216,3.592c-0.696,0 -1.386,-0.13 -2.034,-0.384c-1.821,-0.947 -3.209,-2.559 -3.875,-4.5c-0.375,-0.649 -0.807,-1.262 -1.292,-1.833c-6.5,5.083 -4.458,15.75 -4.458,15.75c-7.5,-6.25 -22.917,-16.667 -31.917,-10.208c1.546,0.578 2.962,1.456 4.167,2.583c1.307,1.116 2.061,2.75 2.061,4.469c0,3.223 -2.652,5.875 -5.875,5.875c-0.118,0 -0.235,-0.004 -0.353,-0.011c-2.2,-0.215 -4.232,-1.277 -5.667,-2.958c-0.917,-0.625 -1.75,-1.292 -2.583,-1.75c-7.958,12.792 17.792,26.708 17.792,26.708c-9.75,-0.542 -23.833,7.083 -23.458,15.917c1.293,-0.709 2.706,-1.175 4.167,-1.375c1.518,-0.134 3.027,0.363 4.167,1.375c1.19,1.028 1.875,2.525 1.875,4.098c0,1.351 -0.505,2.654 -1.416,3.652c-1.512,1.41 -3.517,2.173 -5.583,2.125c-0.331,-0.05 -0.669,-0.05 -1,0c2.5,5.333 7.042,8.75 19.75,5.333c30.5,-8.583 51.292,-3.125 51.292,-3.125c0,0 -0.917,10.125 -14.75,7.458c4.441,5.185 11.059,8.008 17.875,7.625c8.917,0.388 17.747,-1.922 25.333,-6.625c0.246,2.686 -1.349,5.223 -3.875,6.167c-9.833,4.958 -3.417,15.75 -3.417,15.75c5.375,-11.958 15.208,-7.292 15.208,-7.292c-3.174,4.597 -2.419,10.907 1.75,14.625c4.169,3.718 0.667,-6.917 11.5,-9.667c4.616,-1.134 9.469,-0.843 13.917,0.833c-3.697,5.891 -3.173,13.543 1.292,18.875c4.465,5.332 3.167,-14.458 13.25,-10.208c2.066,0.87 3.416,2.904 3.416,5.146c0,1.14 -0.349,2.252 -0.999,3.188c-1.665,1.91 -3.926,3.202 -6.417,3.667c15.667,7.458 19.667,-4.875 31.708,6.375c-15.583,7.083 -35.042,8.333 -53.042,7.542c-37.75,-3.208 -45.542,-10.583 -54.417,-18.708c-12.167,-11.5 -21.708,-12.708 -27.458,-10.958c0.703,0.382 1.361,0.843 1.958,1.375c1.249,1.136 1.986,2.73 2.042,4.417c0,0.014 0,0.028 0,0.042c0,3.253 -2.664,5.936 -5.917,5.958c-2.201,-0.274 -4.222,-1.359 -5.667,-3.042l-1.375,-1c-3.333,5.708 2.792,10.875 4.625,13.375c-2.208,-0.375 -5,-0.917 -7.042,-1.375c-7.958,-1.75 -14.75,1.208 -16.667,7.083c2.147,-0.32 4.337,-0.163 6.417,0.458c1.632,0.489 3,1.616 3.792,3.125c0.365,0.78 0.554,1.63 0.554,2.492c0,2.294 -1.344,4.387 -3.429,5.342c-2.107,0.702 -4.406,0.568 -6.417,-0.375c-0.833,-0 -1.5,-0.292 -2.208,-0.375c2.333,10.208 14.167,11.417 23.167,11.875c-4.167,2.583 -9,6.458 -7.958,12.5c1.182,-1.157 2.605,-2.039 4.167,-2.583c1.376,-0.428 2.864,-0.324 4.167,0.292c2.546,1.385 3.504,4.618 2.125,7.167c-1.146,1.554 -2.821,2.636 -4.708,3.042c-0.542,0 -1,0.458 -1.5,0.625c7.333,7.75 25.208,-2.375 30.208,-5.25c14.292,-8.125 26.625,-6.625 33.667,-3.208c13.25,6.542 -4.625,12.083 -4.625,12.083c4.167,3.5 11.5,1.833 15.875,0c4.375,-1.833 7.875,-4.792 9.75,-2.125c1.125,1.667 0.458,4.708 -2.5,7.375c-1.698,1.3 -3.661,2.21 -5.75,2.667c16.667,6.333 32.083,-8.833 32.083,-8.833c0.821,1.939 0.714,4.15 -0.292,6c-1.619,3.932 -4.717,7.075 -8.625,8.75c18,5.417 27.25,-15.917 27.25,-15.917c0,0 8.625,6.542 -1.958,15.917c14.833,0.458 16.667,-11.625 24,-7c4.167,2.75 2.042,8.833 -4.167,10.042c17.042,5.792 15.667,-9.375 35.5,-6.083c29.167,4.958 62.5,9.208 113.5,-10.417c78.458,-29.833 86.5,-98.542 172.375,-108.042c0,0 7.25,14.917 66,30.75c62.5,16.667 158.083,3.792 153.833,33.333c-2.125,15 -44.792,-6.542 -50,8.333c-0.032,0.249 -0.032,0.501 0,0.75c1.567,-0.326 3.183,-0.326 4.75,0c1.475,0.28 2.779,1.135 3.625,2.375c1.474,2.402 0.724,5.59 -1.667,7.083c-1.756,0.8 -3.753,0.905 -5.583,0.292l-0.667,0c1.887,3.108 5.1,5.183 8.708,5.625c-5.083,2.75 -8.333,4.792 -8.333,11.417l0,1.833c0.909,-0.728 1.938,-1.293 3.042,-1.667c1.331,-0.565 2.836,-0.565 4.167,0c2.5,1.337 3.489,4.47 2.208,7c-1.109,1.554 -2.759,2.639 -4.625,3.042l-0.667,0.292c3.099,3.047 7.621,4.182 11.792,2.958c2.821,-0.711 5.407,-2.147 7.5,-4.167c-2.516,3.646 -3.517,8.131 -2.792,12.5c0.265,1.619 1.091,3.094 2.333,4.167c0.266,-1.683 0.892,-3.289 1.833,-4.708c0.834,-1.237 2.15,-2.069 3.625,-2.292c0.237,-0.033 0.475,-0.05 0.714,-0.05c2.571,0 4.77,1.919 5.119,4.466c0.088,1.918 -0.621,3.789 -1.958,5.167c0,0.292 -0.292,0.458 -0.375,0.75c10.958,0.375 20.583,-14.083 22.625,-26.708c2.417,-16.125 7.417,-13.625 7.417,-13.625c0.289,2.315 1.363,4.463 3.042,6.083c1.746,1.753 4.041,2.856 6.5,3.125c-0.458,-10.958 7.708,-14.375 11.208,-11.25c3.5,3.125 0.667,9.583 0.667,9.583c0,0 5.542,1.917 12.125,-9.125c3.708,-5.875 3.417,-13.542 7.792,-14c5.917,0 3.542,7.167 3.542,7.167c13.833,-7.375 5.208,-29.167 10.583,-31.667c4.167,-1.083 2.583,6.833 2.583,6.833c4.973,-2.721 7.501,-8.501 6.125,-14c-2.917,-14.042 3.958,-2.625 3.958,-2.625" style="fill:#fff;fill-rule:nonzero;"/><path d="M99.375,565.417c1.974,-2.276 1.729,-5.771 -0.542,-7.75c-1.167,-0.964 -2.655,-1.455 -4.167,-1.375c-1.461,0.2 -2.873,0.666 -4.167,1.375c-1.083,0.489 -2.104,1.104 -3.042,1.833c-5.245,4.101 -7.397,11.073 -5.375,17.417c1.894,-4.76 6.095,-8.237 11.125,-9.208c0.332,-0.04 0.668,-0.04 1,0c1.945,-0.102 3.785,-0.918 5.167,-2.292m4.542,-45.417c0.016,0 0.033,0 0.049,0c3.223,0 5.875,-2.652 5.875,-5.875c0,-1.713 -0.749,-3.343 -2.049,-4.459c-1.205,-1.128 -2.621,-2.006 -4.167,-2.583c-1.149,-0.458 -2.333,-0.82 -3.542,-1.083c-7.044,-1.334 -14.222,1.823 -18,7.917c4.54,-1.564 9.541,-1.093 13.708,1.292c0.906,0.545 1.77,1.158 2.583,1.833c1.404,1.654 3.386,2.712 5.542,2.958m41.083,-12.167c2.869,1.098 6.133,-0.347 7.25,-3.208c0.51,-1.478 0.405,-3.1 -0.292,-4.5c-0.432,-0.929 -1.025,-1.776 -1.75,-2.5c-1.185,-1.345 -2.595,-2.473 -4.167,-3.333c-5.737,-3.506 -13.09,-3.072 -18.375,1.083c4.723,0.091 9.145,2.371 11.958,6.167c0.475,0.56 0.88,1.176 1.208,1.833c1.167,2.25 2.292,3.833 4.167,4.458m-13.542,162.75c0.427,-0.776 0.652,-1.647 0.652,-2.533c0,-2.88 -2.37,-5.25 -5.25,-5.25c-0.621,0 -1.236,0.11 -1.818,0.325c-1.553,0.562 -2.973,1.442 -4.167,2.583c-0.629,0.566 -1.214,1.179 -1.75,1.833c-4.028,4.852 -4.627,11.732 -1.5,17.208c0.712,-4.54 3.59,-8.461 7.708,-10.5c0.458,0 0.917,-0.458 1.5,-0.625c1.843,-0.457 3.475,-1.531 4.625,-3.042m1.292,-54.875c0.014,0 0.028,0 0.042,0c3.223,0 5.875,-2.652 5.875,-5.875c0,-0 -0,-0 -0,-0c0,-1.682 -0.712,-3.288 -1.958,-4.417c-0.575,-0.56 -1.236,-1.024 -1.958,-1.375c-1.813,-1.106 -3.822,-1.856 -5.917,-2.208c-7.045,-1.346 -14.231,1.814 -18,7.917c5.01,-1.731 10.556,-0.972 14.917,2.042l1.375,1c1.444,1.64 3.452,2.681 5.625,2.917m-18.708,26.417c2.086,-0.955 3.429,-3.048 3.429,-5.342c0,-0.861 -0.189,-1.712 -0.554,-2.492c-0.792,-1.509 -2.159,-2.636 -3.792,-3.125c-2.078,-0.628 -4.27,-0.785 -6.417,-0.458c-0.793,0.063 -1.576,0.217 -2.333,0.458c-6.94,1.762 -12.069,7.709 -12.792,14.833c3.653,-3.582 8.76,-5.29 13.833,-4.625c0.742,0.085 1.479,0.21 2.208,0.375c2.002,0.978 4.315,1.113 6.417,0.375m653.667,10.792c1.525,-0.919 2.461,-2.574 2.461,-4.355c0,-0.966 -0.276,-1.913 -0.794,-2.729c-0.813,-1.235 -2.09,-2.092 -3.542,-2.375c-1.567,-0.326 -3.183,-0.326 -4.75,0c-0.916,0.143 -1.811,0.395 -2.667,0.75c-5.823,2.239 -9.704,7.844 -9.75,14.083c3,-3.75 7.728,-5.704 12.5,-5.167c0.22,0.045 0.447,0.045 0.667,0c1.925,0.6 3.998,0.526 5.875,-0.208m3.458,24.667c0.378,-0.729 0.575,-1.537 0.575,-2.358c0,-1.918 -1.077,-3.682 -2.783,-4.559c-1.311,-0.654 -2.856,-0.654 -4.167,0c-1.086,0.412 -2.11,0.972 -3.042,1.667c-1.094,0.793 -2.087,1.717 -2.958,2.75c-3.914,4.866 -4.366,11.703 -1.125,17.042c0.7,-4.821 3.861,-8.945 8.333,-10.875l0.542,-0.292c1.854,-0.618 3.471,-1.797 4.625,-3.375m25,16.125c-0.341,-2.555 -2.544,-4.484 -5.121,-4.484c-1.75,0 -3.386,0.889 -4.337,2.359c-0.94,1.425 -1.578,3.027 -1.875,4.708c-0.181,0.779 -0.279,1.575 -0.292,2.375c-0.303,6.209 3.294,11.989 9,14.458c-2.242,-4.266 -2.1,-9.407 0.375,-13.542c-0,-0.292 0.292,-0.458 0.375,-0.75c1.229,-1.422 1.896,-3.246 1.875,-5.125m-695.833,-489.875c0.471,0.118 0.954,0.178 1.44,0.178c3.246,0 5.917,-2.671 5.917,-5.917c0,-1.211 -0.372,-2.393 -1.065,-3.386c-0.402,-0.577 -0.833,-1.133 -1.292,-1.667c-1.558,-1.573 -3.413,-2.819 -5.458,-3.667c-6.549,-2.927 -14.264,-1.533 -19.375,3.5c5.891,-0.572 11.661,2.035 15.125,6.833c3.464,4.799 0,0 0,0.292c1.004,1.846 2.697,3.224 4.708,3.833" style="fill:#fff;fill-rule:nonzero;"/><path d="M737.292,319.333c-107.917,-3.208 -143.625,-42 -143.625,-42c0,0 -18.167,27.542 26.625,45.5c-6.232,-1.583 -12.589,-2.628 -19,-3.125c-12.5,-1.083 -18.083,-1.208 -18.083,-1.208c-6.291,-8.796 -15.665,-14.912 -26.25,-17.125c-4.31,-0.834 -8.725,-0.989 -13.083,-0.458c0.289,0.157 0.544,0.369 0.75,0.625c1.132,1.072 1.689,2.62 1.5,4.167c-0.263,2.795 -2.741,4.9 -5.542,4.708c-1.863,-0.41 -3.511,-1.493 -4.625,-3.042c-0.635,-0.609 -1.318,-1.166 -2.042,-1.667l-0.542,0.542c-3.105,3.611 -3.702,8.777 -1.5,13c-15.375,2.042 -20.417,6.833 -21.708,13.083c2.413,-0.814 4.995,-1.001 7.5,-0.542c1.426,0.344 2.657,1.245 3.417,2.5c0.415,0.763 0.633,1.619 0.633,2.488c0,1.921 -1.063,3.692 -2.758,4.596c-1.744,0.738 -3.715,0.738 -5.458,0c-1.131,-0.175 -2.272,-0.273 -3.417,-0.292c1.5,8.125 11.208,13.917 26.708,7.458c3.792,-1.583 -9.458,4.583 -4.167,18.125c0.224,-0.945 0.575,-1.856 1.042,-2.708c0.734,-1.332 2.041,-2.254 3.542,-2.5c0.315,-0.059 0.635,-0.089 0.956,-0.089c2.492,0 4.646,1.803 5.086,4.256c0.153,1.914 -0.479,3.81 -1.75,5.25c-0.67,1.19 -1.175,2.465 -1.5,3.792c13.083,5.708 26.875,-10.042 28.667,-17.333c0.706,5.169 3.198,9.931 7.042,13.458c0.727,-2.691 2.052,-5.183 3.875,-7.292c5.75,-6.167 5.083,1.208 5.083,1.208c0,11.25 7.125,13.083 7.125,13.083c0,0 -1.125,-12.875 9,-15c4.167,13.917 19.583,-7.375 17.875,-1c-3.417,14.083 2.792,18.333 2.792,18.333c0,0 1.292,-16.667 35.333,-18.792c0.048,6.552 3.728,12.562 9.542,15.583c2.417,-32.5 48.875,-32.875 56.542,-34.167c22.292,-3.333 14.417,-23.417 14.417,-23.417" style="fill:#fff;fill-rule:nonzero;"/><path d="M540.542,310.208c0.175,0.018 0.35,0.027 0.526,0.027c2.618,0 4.836,-2.006 5.099,-4.61c0.169,-1.545 -0.385,-3.084 -1.5,-4.167c-0.206,-0.256 -0.461,-0.468 -0.75,-0.625c-1.679,-1.458 -3.677,-2.5 -5.833,-3.042c-6.008,-1.626 -12.432,0.615 -16.125,5.625c4.037,-0.98 8.306,-0.175 11.708,2.208c0.723,0.501 1.406,1.058 2.042,1.667c1.19,1.542 2.915,2.583 4.833,2.917m-27.083,31.042c1.746,0.729 3.713,0.729 5.458,0c1.654,-0.894 2.688,-2.629 2.688,-4.509c0,-0.872 -0.222,-1.73 -0.646,-2.491c-0.703,-1.305 -1.96,-2.225 -3.417,-2.5c-2.503,-0.498 -5.095,-0.311 -7.5,0.542c-5.935,1.878 -10.072,7.32 -10.292,13.542c2.618,-2.952 6.347,-4.689 10.292,-4.792c1.143,-0.061 2.289,0.009 3.417,0.208m29.792,24.5c-0.387,-2.509 -2.568,-4.379 -5.106,-4.379c-1.845,0 -3.556,0.989 -4.477,2.588c-0.544,0.777 -0.927,1.656 -1.125,2.583c-0.48,1.524 -0.733,3.111 -0.75,4.708c-0.021,6.222 3.821,11.843 9.625,14.083c-2.611,-4.399 -2.611,-9.893 -0,-14.292c1.167,-2 2.208,-3.458 1.833,-5.292" style="fill:#fff;fill-rule:nonzero;"/><path d="M420.667,185.583c3.792,-17.5 -10.125,-17.875 -10.125,-17.875c3.909,-2.798 6.828,-6.768 8.333,-11.333c4.167,-13 -3.25,-30.375 -3.25,-30.375c0,0 -4.792,12.958 -19.458,6.708c0,0 7.125,-8.333 1.5,-23.833c-1.45,4.161 -4.431,7.619 -8.333,9.667c-7.333,4.167 -15.875,3.417 -18.917,-1.917c-2.667,-4.708 -0.458,-11.125 5,-15.667c-6.353,-1.742 -13.042,-1.871 -19.458,-0.375c-7.851,2.951 -15.343,6.781 -22.333,11.417c-5.22,-4.161 -7.108,-11.303 -4.625,-17.5c-8.829,-0.361 -16.694,5.8 -18.458,14.458c-0.933,3.855 -4.058,6.817 -7.958,7.542c-0.7,-6.422 -4.985,-11.92 -11.042,-14.167c-11.74,8.972 -18.586,22.975 -18.458,37.75c-6.875,2.042 -9.542,9.875 -10.208,13.833c-8.333,50.458 -21.583,26.542 -21.5,27.333c2.792,25.417 20.292,21.833 20.292,21.833c-3.042,17.667 -21.583,8.333 -21.583,8.333c6.75,25.708 22.458,15 22.458,15c-11.042,18.958 -2.667,33.333 3.25,48c3.744,7.744 5.803,16.194 6.042,24.792c3.559,-1.927 7.42,-3.237 11.417,-3.875c5.667,0 3.792,6.167 4.167,13.708c0.292,10.792 4.708,14 4.708,14c0.566,-1.707 1.38,-3.322 2.417,-4.792c2.875,-4.417 4.458,-3.792 4.458,-3.792c0,0 -1.5,13.542 7.333,20.167c0,0 12.5,-18.042 19.458,-16.667c4.542,0.833 7.333,11.875 7.333,11.875c36.083,-22.667 40.875,-72.292 47.75,-54.625c1.066,2.669 1.753,5.474 2.042,8.333c0.289,2.859 21.958,-13 19.667,-61.25c3.087,2.736 6.767,4.719 10.75,5.792c3.471,1.205 7.266,1.102 10.667,-0.292c3.4,-1.393 -9.75,-13 -3.333,-42.208m-121.833,-20.083l0,-1.833l0.75,0.458l11.042,5.417c-0.911,0.537 -1.671,1.297 -2.208,2.208c-0.642,1.048 -0.981,2.253 -0.981,3.481c0,2.405 1.302,4.631 3.398,5.81c3.201,1.938 7.429,0.904 9.375,-2.292c0.698,-1.271 0.988,-2.725 0.833,-4.167c4.573,2.342 7.077,7.451 6.125,12.5c-1.128,5.391 -3.202,10.54 -6.125,15.208c-2.923,4.668 -3.625,-1.917 -1.208,-8c2.667,-7.542 1.583,-7.625 1.583,-7.625c-4.695,0.633 -9.474,-0.166 -13.708,-2.292l-0.542,-0.375c-5.79,-4.301 -8.948,-11.314 -8.333,-18.5m43.167,81.792c-8.708,6.542 -7.958,17.208 -10.208,24.417c-1.957,6.544 -8.02,11.06 -14.85,11.06c-1.724,0 -3.437,-0.288 -5.066,-0.851c-7.583,-1.75 -14.667,-6.833 -14.75,-14.917c0,-9.292 16.042,-20.542 6.958,-32.792c-7.417,-10.042 -6.667,-14.458 -6.667,-14.458c1.87,2.544 4.273,4.649 7.042,6.167c1.875,1.083 17.167,9.375 20.833,-2.375c1,-3.042 -1.125,-4.958 -3.042,-6.542c-1.282,-0.826 -2.47,-1.79 -3.542,-2.875c-1.241,-1.803 -1.241,-4.197 0,-6c2.812,3.819 6.888,6.522 11.5,7.625c4.91,1.001 10.007,0.552 14.667,-1.292c0.133,0.439 0.201,0.896 0.201,1.355c0,2.56 -2.107,4.667 -4.667,4.667c-0.151,0 -0.301,-0.007 -0.451,-0.022c-3.417,0 -8.333,0 -9.375,4.167c-2.875,13.917 17.708,12.167 23.917,11.5c2.435,-0.181 4.857,-0.515 7.25,-1c-4.417,5.625 -11.833,6.25 -19.75,12.167m41.667,-60.792l-0.375,0.75c-0.667,1.292 -6.042,11.333 -16.667,11.792l-0.75,0c-4.713,-0.27 -9.24,-1.938 -13,-4.792c-3.76,-2.853 -1.042,-0.458 -2.5,7.375c-0.917,6.375 -5.083,6.25 -5.083,6.25c-0.175,-5.498 0.615,-10.983 2.333,-16.208c1.742,-4.828 6.456,-7.982 11.583,-7.75c-0.915,1.194 -1.4,2.663 -1.375,4.167c0.278,3.559 3.284,6.34 6.854,6.34c3.57,0 6.576,-2.781 6.854,-6.34c-0.034,-1.039 -0.32,-2.054 -0.833,-2.958l12.5,0.75l0.833,0l-0.375,0.625Z" style="fill:#fff;fill-rule:nonzero;"/><path d="M310.417,276.667c17.25,5.625 18.625,-12.5 19,-15.75c2.333,-18.333 15.208,-18.958 17.542,-20.833c-6.042,0.75 -18,-0.375 -21.417,-7.542c-6.175,2.555 -13.198,2.108 -19,-1.208c1.868,2.296 3.282,4.926 4.167,7.75c0.875,4.868 -0.012,9.892 -2.5,14.167c-2.167,3.792 -13.458,18.375 2.208,23.417m-211.708,-26.417c0.894,-1 1.388,-2.296 1.388,-3.637c0,-2.994 -2.464,-5.458 -5.458,-5.458c-0.255,0 -0.51,0.018 -0.763,0.054c-2.255,0.283 -4.412,1.097 -6.292,2.375l-1.125,0.75c-5.215,4.123 -7.387,11.055 -5.458,17.417c1.738,-4.301 5.371,-7.565 9.833,-8.833c0.767,-0.225 1.546,-0.406 2.333,-0.542c2.045,-0.004 4.018,-0.761 5.542,-2.125m45.458,-60.167c2.611,1.524 6.01,0.665 7.583,-1.917c0.796,-1.408 0.963,-3.088 0.458,-4.625l-0.542,-1.292c-0.975,-2.042 -2.4,-3.837 -4.167,-5.25c-5.141,-4.318 -12.411,-5.126 -18.375,-2.042c5.065,0.925 9.325,4.367 11.292,9.125c0.178,0.311 0.305,0.649 0.375,1c0.375,2.065 1.601,3.88 3.375,5m-12.708,107.875c0.858,0.511 1.837,0.78 2.835,0.78c3.04,0 5.542,-2.502 5.542,-5.542c0,-0.605 -0.099,-1.207 -0.294,-1.78c-0.451,-1.32 -1.112,-2.558 -1.958,-3.667c-0.806,-1.071 -1.713,-2.062 -2.708,-2.958c-5.129,-4.365 -12.455,-5.129 -18.375,-1.917c5.465,0.992 9.984,4.872 11.792,10.125l0.292,1c0.489,1.603 1.501,2.998 2.875,3.958m-23.917,28.5c2.331,-0.834 3.896,-3.056 3.896,-5.532c0,-0.686 -0.12,-1.366 -0.355,-2.01c-0.599,-1.593 -1.839,-2.863 -3.417,-3.5c-2.338,-0.88 -4.851,-1.194 -7.333,-0.917l-1.292,0c-7.072,1.108 -12.741,6.527 -14.167,13.542c3.743,-3.005 8.607,-4.251 13.333,-3.417c1.025,0.117 2.023,0.398 2.958,0.833c1.925,1.117 4.2,1.474 6.375,1m23.833,25.458c-1.365,-1.07 -3.136,-1.482 -4.833,-1.125c-2.097,0.42 -4.083,1.271 -5.833,2.5c-0.664,0.434 -1.291,0.922 -1.875,1.458c-5.334,4.78 -7.151,12.413 -4.542,19.083c1.845,-5.673 6.643,-9.911 12.5,-11.042c2.141,-0.137 4.159,-1.057 5.667,-2.583c0.815,-1.03 1.258,-2.306 1.258,-3.619c0,-1.838 -0.869,-3.572 -2.342,-4.673" style="fill:#fff;fill-rule:nonzero;"/><path d="M873.958,282.292c-7.5,-3.583 -19.583,-2.042 -34.042,-0.542c-12.291,1.646 -24.722,1.981 -37.083,1c-87.25,-8.667 -94.292,-40.542 -90.792,-38.417c15.08,6.943 30.966,11.982 47.292,15c77.792,15 78.333,-27.25 78.333,-27.25c1.9,1.679 3.092,4.018 3.333,6.542c0.104,4.435 -0.884,8.828 -2.875,12.792c5.657,-4.322 9.207,-10.86 9.75,-17.958c-0,-16.042 -10.583,-21.625 -10.583,-21.625c0,0 2.208,0 6.042,3.125c2.922,3.301 5.034,7.239 6.167,11.5c1.133,4.261 4.167,-13.375 -10.833,-25.792c-41.667,-34.625 -132.042,-27.833 -166.667,-32.792c-30.417,-4.167 -38.375,-16.667 -36.25,-29.583c3.708,-21.083 32.167,-21.625 32.167,-21.625c-1.5,22.917 27.25,38.042 54.625,31.958c13.028,-2.651 25.181,-8.541 35.333,-17.125c4.515,-3.709 9.435,-6.896 14.667,-9.5c-14.083,-2.667 -23.083,2.875 -28.75,5.167c-6.013,2.616 -12.394,4.288 -18.917,4.958c-16.958,1.375 -18.625,-9.875 -18.625,-9.875c9.254,3.752 19.453,4.524 29.167,2.208c47.375,-10.958 31.917,-54.875 31.917,-54.875c0,0 -4.167,16.667 -19,22.833c-8.532,3.303 -18.183,2.046 -25.583,-3.333c-7.4,-5.379 22.917,2.292 27.708,-15.458c1.436,-6.047 -1.399,-12.352 -6.875,-15.292c-5.476,-2.94 2.125,22.667 -52.583,19.25c-23.917,-1.458 -23.833,18.792 -23.833,18.792c-4.632,0.464 -9.2,1.428 -13.625,2.875c-5.286,1.519 -10.314,3.823 -14.917,6.833c2.417,-6.542 12.042,-9.667 12.042,-9.667c-8.577,0.572 -16.727,3.972 -23.167,9.667c0.193,-2.104 0.817,-4.147 1.833,-6c-9.705,9.699 -15.796,22.44 -17.25,36.083c-1.593,12.165 2.044,24.452 10,33.792c13.167,15.292 38.292,17.333 53.417,18.5c22.542,1.667 59.625,3.667 92.458,8.125c44.417,6.167 47.083,20.833 41.167,30.292c-6.5,10.5 -26.25,10.792 -57.042,0c-30.792,-10.792 -92.708,-33.083 -137.208,-32.875c-117.583,0.458 -170.25,50 -205.375,40.792c1,44.75 -31.25,62.5 -31.25,62.5c-4.833,-24.667 -1.5,20.167 -49.25,43.458c0,0 -0.375,-11.125 -5.292,-12.083c-6.5,-1.292 -15.75,16.042 -15.75,16.042c-6.19,-4.17 -10.903,-10.196 -13.458,-17.208l-2.5,5.083c-4.73,-3.173 -8.151,-7.957 -9.625,-13.458c-1.75,-8.667 0.833,-15 -2.958,-15.208c-4.458,0 -13.833,6.083 -13.833,6.083c0.67,-10.285 -1.115,-20.583 -5.208,-30.042c-3.708,-9.875 -9.25,-18.875 -10.208,-29.458c-37.833,-7 -83.917,-22.125 -85.042,-36.583c-0.917,-13.625 1.375,-27.333 -13.708,-31.792c0.216,0.415 0.398,0.847 0.542,1.292c0.196,0.577 0.295,1.182 0.295,1.792c0,3.063 -2.52,5.583 -5.583,5.583c-0.981,0 -1.946,-0.259 -2.795,-0.75c-1.875,-1 -2.417,-2.875 -3.167,-5.083l-0.458,-1c-8.708,5.083 -5.208,20.833 -5.208,20.833c-6.875,-6.917 -21.333,-19.708 -30.042,-11.625c0.506,0.515 0.966,1.072 1.375,1.667c0.942,1.407 1.273,3.137 0.917,4.792c-0.904,3.089 -4.126,4.94 -7.25,4.167c-1.979,-0.775 -3.599,-2.262 -4.542,-4.167c-9.292,12.875 9.75,28.375 9.75,28.375c-2.792,1.375 -18,4.417 -18,15.375c1.872,-1.315 4.027,-2.172 6.292,-2.5c1.507,-0.162 3.016,0.306 4.167,1.292c1.19,1.028 1.875,2.525 1.875,4.098c0,1.351 -0.505,2.654 -1.416,3.652c-1.512,1.41 -3.517,2.173 -5.583,2.125c-0.79,0.124 -1.57,0.305 -2.333,0.542c4.173,6.037 12.115,8.286 18.833,5.333c24.292,-10.333 30.5,-4.5 41.083,-2.208c7.5,1.667 14.292,0 14.375,4.167c0,3.667 -3.417,6.333 -14.75,4.958c0,0 2.708,7.083 15.042,8.333c18.625,2.042 24.375,-2.5 26.875,0.625c4.542,6 -13.333,8.125 -13.333,8.125c14.542,11.042 33.833,2.5 33.833,2.5c1.042,6.542 -12.792,7.833 -12.792,7.833c4.47,3.975 10.75,5.25 16.417,3.333c2.658,-0.702 5.24,-1.665 7.708,-2.875c-1.516,6.256 1.229,12.815 6.75,16.125c5.521,3.31 5.375,-18.25 13,-13.542c2.09,0.927 3.444,3.008 3.444,5.295c0,1.073 -0.298,2.125 -0.861,3.039c-1.436,1.847 -3.71,2.851 -6.042,2.667c2.208,5.542 11.958,5.542 11.958,5.542c0,0 -11.792,7.292 -44.875,6.833c-43.875,-3.583 -41.333,-8.333 -52,-21.292c-8.333,-11.333 -13.542,-11.875 -17.417,-10.208c0.83,1.119 1.489,2.355 1.958,3.667c0.195,0.573 0.294,1.175 0.294,1.78c0,3.04 -2.502,5.542 -5.542,5.542c-0.998,0 -1.978,-0.27 -2.835,-0.78c-1.45,-0.959 -2.456,-2.461 -2.792,-4.167c-4.341,3.572 -5.168,9.985 -1.875,14.542c-2.125,-0.375 -22.792,-3.333 -26.5,6.167c2.51,-0.364 5.071,-0.047 7.417,0.917c1.612,0.584 2.872,1.874 3.417,3.5c0.235,0.644 0.355,1.324 0.355,2.01c0,2.476 -1.565,4.698 -3.896,5.532c-2.177,0.51 -4.469,0.183 -6.417,-0.917c-0.952,-0.37 -1.945,-0.622 -2.958,-0.75l0,0.917c0,14.083 20.5,14.458 30.708,14.833c-4.167,2.583 -9,6.458 -7.958,12.5c1.71,-1.299 3.713,-2.158 5.833,-2.5c0.397,-0.083 0.802,-0.125 1.208,-0.125c3.246,0 5.917,2.671 5.917,5.917c0,1.294 -0.425,2.553 -1.208,3.583c-1.508,1.526 -3.525,2.446 -5.667,2.583c13.542,8.833 23.625,-3.417 28.542,-6.25c14.292,-8.125 36.167,-7.167 41.667,-1.208c4.167,4.417 -5,9.5 -5,9.5c6.253,0.667 12.53,-1.078 17.542,-4.875c-1.498,2.034 -2.458,4.413 -2.792,6.917c-0.746,3.801 0.552,7.727 3.417,10.333c8.333,-15.917 14.75,-14.917 18,-11.875c3.875,3.583 -3.875,9.042 -3.875,9.042c9.625,4.875 22.25,-4.958 22.25,-4.958c-0.489,4.507 0.881,9.024 3.792,12.5c6.292,-11.5 20.292,-10.417 29.5,-9.292c0,0 -13.167,8.917 -7.958,20.25c8.333,-8 18.625,-10.958 32.75,-9.208c29.167,3.5 84.542,20 179.5,-67.5c64.167,-59.208 107.083,-51.583 107.083,-51.583c57.042,45.833 166.667,46.792 194.625,48.917c13.542,1 13.708,9.292 7.792,16.667c-2.345,2.761 -5.491,4.727 -9,5.625c-3.509,0.898 -27,-11.125 -36.917,3.792c1.744,-0.378 3.548,-0.378 5.292,0c1.392,0.294 2.601,1.155 3.333,2.375c0.43,0.75 0.656,1.6 0.656,2.464c0,1.824 -1.007,3.507 -2.614,4.369c-1.723,0.697 -3.652,0.697 -5.375,0l-2.333,-0.292c0.573,4.025 3.67,7.256 7.667,8c1.208,0 1.125,0.375 0.75,0.833c-3.706,3.211 -5.698,7.982 -5.375,12.875c1.243,-0.918 2.661,-1.571 4.167,-1.917c0.438,-0.123 0.891,-0.186 1.345,-0.186c2.72,0 4.958,2.238 4.958,4.958c0,0.987 -0.294,1.951 -0.845,2.769c-1.196,1.412 -2.874,2.333 -4.708,2.583c-0.458,0 -1,0.375 -1.5,0.458c2.875,4.417 7.958,7.167 15.875,4.167c2.959,-0.801 5.714,-2.222 8.083,-4.167c-1.677,2.768 -1.85,6.203 -0.458,9.125c0.281,0.421 0.587,0.824 0.917,1.208c0.499,-2.204 1.629,-4.217 3.25,-5.792c0.961,-1.07 2.355,-1.652 3.792,-1.583c2.687,0.109 4.838,2.349 4.838,5.038c0,0.071 -0.001,0.142 -0.004,0.212c-0.335,1.83 -1.328,3.476 -2.792,4.625c-0.434,0.503 -0.837,1.032 -1.208,1.583c2.28,0.333 4.595,0.333 6.875,-0c8.333,-1.667 14.917,-8.75 16.667,-26.417c0.117,-3.87 1.299,-7.634 3.417,-10.875c2.706,-2.435 5.863,-4.318 9.292,-5.542c1.529,4.113 0.784,8.741 -1.958,12.167c16.667,2.75 18.833,-23.208 18.833,-23.208c1.186,3.144 3.05,5.989 5.458,8.333c2.545,2.163 5.625,3.602 8.917,4.167c-3.042,-18.5 4.167,-24.792 7.792,-25.708c7.042,-1.75 6.75,6.708 6.75,6.708c3.891,-2.873 5.779,-7.757 4.833,-12.5c-0.613,-3.216 -1.709,-6.32 -3.25,-9.208c-1.541,-2.888 5.917,-2.875 9,4.958c0,0 6.292,-10.042 0.542,-15.583c0.904,-0.58 2.024,-0.718 3.042,-0.375c1.176,0.403 2.167,1.217 2.792,2.292c1.251,-8.083 -3.131,-16.056 -10.625,-19.333" style="fill:#fff;fill-rule:nonzero;"/><path d="M754.5,348.792c1.6,-0.876 2.598,-2.561 2.598,-4.386c0,-0.857 -0.22,-1.7 -0.64,-2.448c-0.671,-1.297 -1.9,-2.219 -3.333,-2.5c-1.717,-0.366 -3.492,-0.366 -5.208,0l-2.042,0.542c-5.754,1.899 -9.751,7.196 -10,13.25c2.759,-3.181 6.836,-4.919 11.042,-4.708c0.777,-0.044 1.556,-0.044 2.333,0c1.651,0.762 3.535,0.852 5.25,0.25m4.75,26.333c1.512,-2.276 0.893,-5.392 -1.375,-6.917c-1.224,-0.823 -2.755,-1.052 -4.167,-0.625c-1.514,0.321 -2.937,0.976 -4.167,1.917c-0.777,0.56 -1.515,1.172 -2.208,1.833c-4.25,4.295 -5.37,10.827 -2.792,16.292c1.102,-4.311 4.202,-7.845 8.333,-9.5c0.542,0 1,-0.375 1.5,-0.458c1.883,-0.215 3.62,-1.121 4.875,-2.542m29.958,11.25c0.072,-2.751 -2.085,-5.094 -4.833,-5.25c-1.44,-0.087 -2.841,0.498 -3.792,1.583c-1.603,1.589 -2.729,3.596 -3.25,5.792c0.045,0.22 0.045,0.447 0,0.667c-1.343,5.886 1.103,12.024 6.125,15.375c-1.286,-4.067 -0.558,-8.514 1.958,-11.958c0.349,-0.567 0.754,-1.097 1.208,-1.583c1.208,-1.583 2.5,-2.792 2.583,-4.625" style="fill:#fff;fill-rule:nonzero;"/></svg>