<?xml version="1.0" encoding="UTF-8"?>
<svg id="Layer_1" data-name="Layer 1" xmlns="http://www.w3.org/2000/svg" viewBox="0 0 684.64 684.64">
  <defs>
    <style>
      .cls-1 {
        fill: #fff;
      }
    </style>
  </defs>
  <path class="cls-1" d="m342.32,0C153.56,0,0,153.56,0,342.32s153.56,342.32,342.32,342.32,342.32-153.56,342.32-342.32S531.08,0,342.32,0Zm0,672.41c-182.01,0-330.09-148.08-330.09-330.09S160.31,12.23,342.32,12.23s330.09,148.08,330.09,330.09-148.08,330.09-330.09,330.09Z"/>
  <polygon class="cls-1" points="516.95 548.48 513.09 565.99 495.54 569.84 513.1 573.68 516.98 591.17 520.83 573.68 538.39 569.81 520.83 565.98 516.95 548.48"/>
  <polygon class="cls-1" points="167.66 548.48 163.81 565.99 146.26 569.84 163.81 573.68 167.69 591.17 171.55 573.68 189.1 569.81 171.54 565.98 167.66 548.48"/>
  <path class="cls-1" d="m303.97,581.06c-2.26-1.41-4.5-2.84-6.71-4.3-110.16-21.13-193.66-118.21-193.66-234.44,0-63.63,25.03-121.53,65.75-164.37v-8.75c-44.38,44.34-71.87,105.58-71.87,173.12,0,124.28,93.09,227.23,213.19,242.8-2.26-1.32-4.49-2.68-6.7-4.05Z"/>
  <path class="cls-1" d="m515.3,169.21v8.75c40.72,42.84,65.74,100.73,65.74,164.36,0,116.01-83.19,212.95-193.05,234.32-2.2,1.47-4.43,2.9-6.68,4.31-2.21,1.39-4.44,2.74-6.7,4.07,119.79-15.86,212.54-118.66,212.54-242.71,0-67.53-27.49-128.77-71.86-173.11Z"/>
  <path class="cls-1" d="m342.32,97.48c-51.87,0-100.01,16.23-139.65,43.86h10.95c37.16-23.88,81.34-37.74,128.7-37.74h0c47.36,0,91.54,13.86,128.7,37.74h10.95c-39.64-27.63-87.78-43.86-139.65-43.86Z"/>
  <path class="cls-1" d="m495.94,151.83H179.85v186.78c0,101.12,55.37,193.65,143.42,241.68,2.19,1.2,4.41,2.36,6.65,3.5,2.2,1.13,4.42,2.23,6.67,3.3.21.1.42.2.63.3l5.47,2.59,6.07-2.89s.03-.01.04-.02c2.24-1.08,4.46-2.19,6.67-3.33,2.23-1.15,4.45-2.32,6.64-3.52,40.92-22.49,75.53-55.07,100.44-94.75,27.63-43.89,42.28-94.71,42.26-146.57v-187.07h-8.87Zm2.75,10.25v176.82c0,103.07-58.85,197.05-151.48,242.09-.38.18-.75.37-1.13.55l-3.43,1.65-2.83-1.34c-.59-.28-1.17-.57-1.76-.85-92.95-44.89-152.11-139.04-152.1-242.39v-180.63h312.74v4.1Z"/>
  <path class="cls-1" d="m342.32,310.99c-9.29,0-17.36-4.12-21.21-10.09,0,0,0,.01,0,.02.02,11.71,9.52,21.19,21.23,21.18,11.7-.01,21.18-9.5,21.19-21.19,0-.01,0-.02,0-.04-3.86,6.02-11.92,10.13-21.21,10.13Z"/>
  <path class="cls-1" d="m321.11,300.93s0-.01,0-.02,0-.01,0-.02c0,0,0,0,0,0,.02-11.7,9.51-21.18,21.21-21.18s21.17,9.46,21.21,21.14c0,0,0,0,0,0,0,.01,0,.03,0,.04s0,.03,0,.04l21.39-.08-21.21-8.76,15.09-13.36-20.53,5.36,5.38-20.25-15.68,14.59-5.65-20.16-5.65,20.17-15.68-14.59,5.38,20.25-20.53-5.36,15.09,13.43-21.21,8.76h21.39Z"/>
  <path class="cls-1" d="m363.53,300.86s0,.02,0,.04c0-.01,0-.03,0-.04,0,0,0,0,0,0Z"/>
  <path class="cls-1" d="m321.11,300.89s0,.01,0,.02c0,0,0-.01,0-.02,0,0,0,0,0,0Z"/>
  <path class="cls-1" d="m338.96,397.13l-65.81-65.8h9.64l56.2,56.19v-14.71l-41.46-41.46h9.64l31.87,31.82c.05-7.76-2.01-15.39-5.97-22.07-8.25-13.73-23.1-22.13-39.12-22.12h-28.9c-5.03-.32-8.85-4.65-8.53-9.68.2-3.15,2.01-5.97,4.8-7.47,1.3-.66,2.74-1,4.19-.96h9.2c10.22.06,18.6-8.1,18.8-18.32.05-5.1-2.02-9.98-5.71-13.5l18.18-5.11h-37.06c-2.7,0-5.11,1.69-6.04,4.22l-44.26,8h56.45c3.44,0,6.21,2.8,6.2,6.23,0,.13,0,.27-.01.4-.3,3.31-3.09,5.83-6.41,5.79h-9.37c-11.79,0-21.34,9.56-21.34,21.34,0,5.57,2.18,10.92,6.08,14.89l5.65,5.83,83.08,83.07v-16.59Zm-62.46-125.04h-7.37v-4.08h7.37v4.08Z"/>
  <polygon class="cls-1" points="244.15 309.92 244.15 309.91 244.15 309.91 244.15 309.92"/>
  <path class="cls-1" d="m391.12,282.52c.23,10.21,8.62,18.35,18.83,18.27h9.2c1.46-.03,2.9.3,4.19.96,4.47,2.33,6.21,7.83,3.88,12.3-1.5,2.87-4.4,4.74-7.64,4.9h-28.81c-16.02-.01-30.87,8.39-39.12,22.12-3.96,6.68-6.02,14.31-5.97,22.07l31.87-31.82h9.64l-41.46,41.46v14.71l56.2-56.19h9.64l-65.8,65.8v16.6l83.08-83.07,5.65-5.83c8.18-8.35,8.1-21.74-.17-30l-.1-.02c-3.99-4.01-9.42-6.26-15.08-6.25h-9.33c-3.32.04-6.12-2.48-6.41-5.79-.23-3.43,2.36-6.39,5.79-6.62.13,0,.27-.01.4-.01h56.45l-44.26-8c-.92-2.54-3.34-4.22-6.04-4.22h-37.1l18.18,5.11c-3.69,3.52-5.76,8.4-5.71,13.5Zm17.01-14.51h7.37v4.08h-7.37v-4.08Z"/>
  <path class="cls-1" d="m331.33,223.62l10.99,11.06,11.02-11.02,5.79,11.67h13.19l-21.19-42.97h-17.63l-21.16,42.93h13.19l5.79-11.67Zm10.99-22.37l6.38,12.97-6.38,6.38-6.38-6.38,6.38-12.97Z"/>
  <polygon class="cls-1" points="233.55 209.13 250.73 226.32 267.95 209.09 267.95 235.32 280.36 235.32 280.36 192.35 267.95 192.35 267.95 192.37 267.94 192.35 250.73 209.56 233.55 192.37 233.55 192.35 221.14 192.35 221.14 235.32 233.55 235.32 233.55 209.13"/>
  <rect class="cls-1" x="291.57" y="192.35" width="12.4" height="42.96"/>
  <path class="cls-1" d="m397.71,390l-12.54,12.54v-18.9l-6.11,6.11v18.91l-36.7,36.69-36.68-36.71v-18.76l-6.11-6.09v18.76l-12.54-12.54v-18.76l-6.12-6.12v27.41l18.64,18.63v97.25h-18.73v6.11h24.86v-97.24l32.37,32.37-16.16,16.17,20.5,20.47,20.48-20.47-16.17-16.17,32.38-32.37v97.24h24.74v-6.11h-18.63v-97.25l18.63-18.63v-27.56l-6.11,6.12v18.9Zm-43.49,75.82l-11.83,11.83-11.85-11.84,11.84-11.84,11.84,11.85Z"/>
  <polygon class="cls-1" points="393.07 209.13 410.25 226.32 427.48 209.09 427.48 235.32 439.88 235.32 439.88 192.35 427.48 192.35 427.48 192.37 427.46 192.35 410.25 209.56 393.07 192.37 393.07 192.35 380.66 192.35 380.66 235.32 393.07 235.32 393.07 209.13"/>
  <rect class="cls-1" x="451.09" y="192.35" width="12.4" height="42.96"/>
  <polygon class="cls-1" points="589.41 235.65 596.48 232.19 589.86 218.69 595.77 215.8 601.03 226.55 608.1 223.09 602.84 212.34 608.75 209.45 615.37 222.95 622.44 219.5 612.21 198.56 579.17 214.72 589.41 235.65"/>
  <path class="cls-1" d="m560.8,185.75c6,8.19,17.5,9.96,25.69,3.97,8.19-6,9.96-17.5,3.97-25.69l-7.25-10.21-29.97,21.25,7.24,10.22c.11.15.22.31.33.46Zm21-20.85l2.49,3.51c3.59,5.1,2.02,11.33-2.81,14.74-4.82,3.41-11.25,2.83-14.84-2.23l-2.49-3.49,17.65-12.54Z"/>
  <path class="cls-1" d="m242.03,84.43l14.28-5.14,5.69,6.21,8.09-2.89-27.21-29.29-7.02,2.52-2.37,39.9,8.09-2.89.45-8.41Zm.97-19.72l8.07,8.87-8.67,3.1.6-11.98Z"/>
  <polygon class="cls-1" points="531.97 140.5 520.4 130.59 539.19 108.64 532.93 103.28 509.03 131.22 526.85 146.47 531.97 140.5"/>
  <polygon class="cls-1" points="196.71 116.21 185 96.74 212.06 106.96 218.11 103.29 199.14 71.81 192.05 76.09 203.75 95.51 176.75 85.31 170.68 88.96 189.66 120.45 196.71 116.21"/>
  <polygon class="cls-1" points="604.28 282.03 618.33 278.92 620.76 289.89 628.47 288.19 626.04 277.22 632.51 275.78 635.6 289.8 643.31 288.1 638.42 266 602.49 273.99 604.28 282.03"/>
  <path class="cls-1" d="m159.35,145.44l-10.12-11.3.96-.9,19.23,3.15,7.36-6.6-20.48-3.4c2.36-4.34,2.22-8.31-.96-11.86-4.07-4.51-10.7-5.28-15.87-.66l-10.8,9.64,24.55,27.41,6.13-5.5Zm-14.83-16.53l-4.7-5.26,3.98-3.55c1.81-1.62,4.05-1.74,5.47-.17,1.42,1.56,1.04,3.8-.77,5.42l-3.98,3.56Z"/>
  <path class="cls-1" d="m476.98,100.56l13.08,7.77-1.17,8.34,7.35,4.42,5.26-39.63-6.4-3.81-32.3,23.6,7.44,4.32,6.75-5Zm15.81-11.75l-1.71,11.88-7.94-4.71,9.64-7.17Z"/>
  <polygon class="cls-1" points="432.26 64.84 441.53 92.26 448.17 94.63 460.49 60 452.69 57.22 445.08 78.59 435.86 51.23 429.21 48.85 416.88 83.5 424.64 86.25 432.26 64.84"/>
  <path class="cls-1" d="m281.36,61.1c1.16,6.81,5.88,12.48,12.36,14.87,10,3.67,21.08-1.46,24.75-11.45l-7.71-2.8c-.73,2.2-2.14,4.11-4.03,5.46-4.95,3.55-11.84,2.43-15.4-2.52-3.55-4.95-2.43-11.84,2.52-15.4s11.84-2.43,15.4,2.52l6.57-4.98c-4.2-5.49-11.02-8.31-17.87-7.39-10.56,1.42-17.97,11.12-16.55,21.68h-.04Z"/>
  <polygon class="cls-1" points="346.69 36.79 338.46 36.79 338.45 73.55 346.69 73.55 346.69 36.79"/>
  <path class="cls-1" d="m382.64,77.14s.03,0,.05,0c10.38,1.54,20.04-5.63,21.58-16s-5.63-20.04-16-21.58c-10.38-1.54-20.04,5.63-21.58,16-1.53,10.36,5.61,20,15.96,21.57Zm-7.86-19.67c.69-5.87,6.01-10.06,11.88-9.36,5.87.69,10.06,6.01,9.36,11.88h0c-.82,5.94-6.28,10.1-12.23,9.31-5.7-.87-9.69-6.1-9.01-11.83Z"/>
  <path class="cls-1" d="m601.82,412.61c-.03.09-.05.19-.08.28-1.5,5.8,1.99,11.72,7.79,13.22,3.53.95,7.29-.17,9.72-2.89,1.18,2.07,3.15,3.56,5.46,4.13,5.84,1.49,11.79-2.03,13.29-7.88l3.42-13.36-35.6-9.14-4,15.65Zm22.01,2.3l1.16-4.51,7.12,1.81-1.15,4.52s-.01.05-.02.07c-.51,2-2.54,3.22-4.54,2.71-.02,0-.05-.01-.07-.02-1.96-.58-3.07-2.63-2.49-4.59Zm-14.53-1.04l1.79-7.07,7.13,1.82-1.78,6.97s-.02.07-.02.11c-.47,2.01-2.49,3.26-4.5,2.79-.04-.01-.08-.02-.12-.03-1.96-.58-3.07-2.63-2.5-4.59Z"/>
  <polygon class="cls-1" points="433.67 594.54 424.35 597.79 419.75 611.29 408.58 602.43 398.99 604.78 416.83 618.79 408.74 640.8 417.78 638.6 423.41 623.55 436.19 633.14 445 630.13 426.32 615.97 433.67 594.54"/>
  <polygon class="cls-1" points="138.35 166.82 132.15 162 122.87 173.78 117.69 169.72 125.07 160.31 118.88 155.49 111.5 164.9 106.32 160.84 115.62 148.99 109.43 144.17 95.06 162.49 123.98 185.14 138.35 166.82"/>
  <polygon class="cls-1" points="389.27 606.81 379.49 608.42 372.74 620.85 363.26 610.25 353.44 610.94 368.58 627.74 356.88 647.99 366.17 647.38 374.25 633.53 385.27 645.22 394.39 643.71 378.38 626.61 389.27 606.81"/>
  <path class="cls-1" d="m611.15,445.21c-9.52-4.4-20.81-.24-25.21,9.29,0,0,0,0,0,0-4.4,9.53-.24,20.81,9.29,25.21,9.53,4.4,20.81.24,25.21-9.29,4.4-9.53.24-20.81-9.29-25.21Zm1.59,21.26c-2.3,5.44-8.58,7.98-14.02,5.67-5.46-2.44-7.93-8.83-5.54-14.31,2.41-5.25,8.57-7.64,13.89-5.38,5.44,2.3,7.98,8.58,5.67,14.02Z"/>
  <path class="cls-1" d="m625.43,331.5c-4.39.27-7.25-2.35-7.5-6.43s2.27-7.04,6.66-7.31l22.27-1.38-.51-8.22-22.18,1.37h0c-9.15.57-14.75,7.24-14.21,16.03.54,8.78,6.93,14.72,16.07,14.16l22.18-1.37-.5-8.22-22.28,1.37Z"/>
  <polygon class="cls-1" points="658.6 323.71 650.26 320.59 650.62 326.33 659.13 332.28 658.6 323.71"/>
  <polygon class="cls-1" points="320.31 626.03 310.06 609.58 302.5 608.62 299.89 645.53 308.1 646.64 309.72 623.49 319.42 639.05 331.14 624.98 329.52 648.12 337.82 648.22 340.41 611.22 332.84 611.08 320.31 626.03"/>
  <polygon class="cls-1" points="639.01 366.73 610.26 363.97 609.47 372.21 638.23 374.95 637.33 384.38 645.16 385.13 647.73 358.13 639.9 357.39 639.01 366.73"/>
  <polygon class="cls-1" points="556.73 504.95 563.21 509.39 571.82 496.86 595.64 513.15 600.29 506.4 569.99 485.61 556.73 504.95"/>
  <polygon class="cls-1" points="85.72 261.77 64.26 254.29 91.61 244.86 93.94 238.13 59.23 226.03 56.5 233.85 77.9 241.31 50.62 250.71 48.28 257.46 83.01 269.55 85.72 261.77"/>
  <polygon class="cls-1" points="78.52 290.46 42.32 283.96 40.88 292.07 77.07 298.56 78.52 290.46"/>
  <polygon class="cls-1" points="80.72 200.14 105.89 214.29 109.96 207.08 84.79 192.9 89.43 184.65 82.58 180.79 69.27 204.43 76.12 208.28 80.72 200.14"/>
  <polygon class="cls-1" points="263.59 616.18 256.89 598.05 249.63 595.62 239.64 631.2 247.46 633.87 253.69 611.6 260.05 628.81 274.39 617.32 268.14 639.63 276.2 641.56 286.2 605.88 278.74 604.17 263.59 616.18"/>
  <path class="cls-1" d="m73.8,354.46c0-.09,0-.18-.01-.27-.32-5.99-5.43-10.6-11.43-10.28-3.66.15-6.91,2.37-8.38,5.72-1.75-1.61-4.09-2.44-6.46-2.28-6.02.35-10.62,5.5-10.28,11.52l.79,13.8,36.73-2.09-.96-16.12Zm-28.76,9.58l-.27-4.65s0-.06,0-.09c-.12-2.06,1.45-3.83,3.52-3.95.03,0,.06,0,.09,0,2.04-.04,3.73,1.58,3.77,3.62l.24,4.65-7.34.42Zm14.33-.82l-.4-7.18c-.02-.15-.03-.3-.03-.45,0-2.03,1.64-3.69,3.67-3.7,2.03,0,3.69,1.64,3.7,3.67l.4,7.23-7.34.42Z"/>
  <path class="cls-1" d="m96.11,473.2l.48,8.23c2.31-.19,4.62.34,6.6,1.54,5.22,3.14,6.9,9.91,3.77,15.13-3.14,5.22-9.91,6.9-15.13,3.77-5.22-3.14-6.9-9.91-3.77-15.13l-7.16-4.08c-3.42,6.04-3.32,13.45.24,19.41,5.48,9.14,17.32,12.1,26.46,6.63v-.04c5.81-3.75,9.16-10.32,8.79-17.23-.57-10.64-9.65-18.8-20.29-18.23Z"/>
  <path class="cls-1" d="m70.18,422.84c8.89-2.12,13.31-9.65,11.26-18.22-2.04-8.56-9.35-13.32-18.26-11.2l-21.66,5.14,1.93,8.01,21.72-5.17c4.28-1.02,7.55,1.07,8.5,5.05.94,3.98-1.02,7.32-5.3,8.34l-21.72,5.17,1.93,8.01,21.61-5.15h0Z"/>
  <polygon class="cls-1" points="88.16 430.9 80.86 433.85 86.57 447.97 59.79 458.81 62.85 466.44 96.97 452.64 88.16 430.9"/>
</svg>