<?xml version="1.0" encoding="UTF-8" standalone="no"?><!DOCTYPE svg PUBLIC "-//W3C//DTD SVG 1.1//EN" "http://www.w3.org/Graphics/SVG/1.1/DTD/svg11.dtd"><svg width="100%" height="100%" viewBox="0 0 3150 2784" version="1.1" xmlns="http://www.w3.org/2000/svg" xmlns:xlink="http://www.w3.org/1999/xlink" xml:space="preserve" xmlns:serif="http://www.serif.com/" style="fill-rule:evenodd;clip-rule:evenodd;stroke-linejoin:round;stroke-miterlimit:2;"><path d="M2449.175,1556.562c0,-62.833 -4.683,-124.262 -13.592,-183.812l191.308,0l522.358,-1370.6l-2570.058,-0l-296.342,777.908c-174.908,211.475 -279.933,482.033 -279.933,776.504c-0,673.812 549.55,1223.367 1223.367,1223.367c673.338,0 1222.887,-549.554 1222.892,-1223.367Zm-77.372,-0c0,-90.025 -10.774,-177.242 -30.474,-261.642l232.108,-0.002l463.279,-1214.931l-2404.067,-0l-282.271,739.458c-168.342,199.758 -269.627,457.179 -269.627,737.117c0,631.146 514.392,1145.529 1145.529,1145.529c630.667,0 1145.522,-514.396 1145.522,-1145.529Z" style="fill:#fff;"/><path d="M1226.283,2501.875c520.483,0 945.304,-424.833 945.304,-945.313c0,-520.479 -424.821,-945.308 -945.304,-945.308c-520.487,0 -945.312,424.825 -945.312,945.308c0,520.483 424.825,945.313 945.312,945.313Zm-221.029,-320.354l111.429,29.15l-8.479,32.421l-75,-19.621l-7.117,27.2l68.546,17.933l-8.196,31.325l-68.55,-17.925l-7.733,29.592l76.962,20.133l-9.1,34.817l-113.392,-29.667l40.629,-155.358Zm301.725,30.962l37.829,-5.763l77.613,150.6l-38.825,5.912l-13.133,-27.112l-49.833,7.592l-4.667,29.825l-38.221,5.829l29.237,-166.883Zm197.308,-14.45l-40.9,13.646l39.417,118.192l-35.708,11.917l-39.425,-118.192l-40.9,13.642l-11.383,-34.137l117.525,-39.2l11.375,34.133Zm-1.104,-41.717l33.671,-16.842l71.837,143.617l-33.667,16.842l-71.842,-143.617Zm-628.033,-37.162l55.567,27.821c39.642,19.858 49.962,58.475 27.712,102.917c-23.562,47.075 -60.321,60.358 -99.6,40.692l-55.563,-27.825l71.883,-143.604Zm255.967,93.867l73.575,3.892c25.467,1.342 49.862,15.471 48.15,47.804c-0.917,17.296 -9.258,33.296 -24.767,39.013l-0.021,0.45c15.15,4.854 18.583,24.175 18.987,39.508c0.046,6.763 -0.596,30.379 4.15,36.479l-37.196,-1.954c-2.95,-5.563 -2.725,-21.325 -2.892,-25.833c-0.154,-16.225 -1.7,-32.967 -19.287,-33.896l-28.5,-1.513l-3.092,58.396l-37.6,-1.979l8.492,-160.367Zm-358.117,-173.612l90.267,71.538l-20.804,26.263l-60.767,-48.146l-17.458,22.029l55.529,44l-20.117,25.396l-55.521,-44.012l-18.996,23.971l62.338,49.413l-22.35,28.204l-91.85,-72.804l99.729,-125.85Zm452.821,-1270.421l-42.979,3.4l9.825,124.212l-37.529,2.967l-9.821,-124.213l-42.992,3.396l-2.833,-35.875l123.492,-9.767l2.838,35.879Zm-244.479,0.325c43.475,-13.587 79.083,14.163 92.975,58.6c13.892,44.438 0.421,87.529 -43.05,101.117c-43.479,13.592 -79.079,-14.158 -92.967,-58.6c-13.892,-44.438 -0.429,-87.525 43.042,-101.117Zm-179.917,81.117c38.979,-23.562 80.175,-5.1 104.263,34.737c24.087,39.837 21.283,84.9 -17.696,108.458c-38.975,23.558 -80.171,5.1 -104.254,-34.742c-24.083,-39.842 -21.283,-84.892 17.688,-108.454Zm806.504,1240.458c37.013,-26.55 79.529,-11.383 106.667,26.446c27.138,37.829 27.883,82.971 -9.125,109.529c-37.012,26.542 -79.529,11.375 -106.667,-26.458c-27.142,-37.825 -27.879,-82.971 9.125,-109.517Zm66.95,-46.396l25.888,-28.713l107.117,28.983l0.271,-0.3l-73.492,-66.271l23.717,-26.3l119.271,107.533l-25.896,28.704l-107.954,-29.733l-0.267,0.3l74.333,67.017l-23.721,26.308l-119.267,-107.529Zm-1048.542,-1049.725l77.242,-73.271l23.062,24.312l-49.933,47.358l22.6,23.825l43.171,-40.958l22.292,23.496l-43.179,40.954l42.571,44.875l-27.317,25.908l-110.508,-116.5Zm1128.988,-67.258l27.317,25.908l-85.754,90.396l48.904,46.388l-24.767,26.108l-76.217,-72.3l110.517,-116.5Zm-259.558,-146.746l35.817,13.446l-5.862,169.329l-36.767,-13.8l1.792,-30.083l-47.196,-17.717l-18.646,23.742l-36.204,-13.587l107.067,-131.329Zm128.358,56.221l31.771,20.212l-66.879,105.133l56.867,36.179l-19.308,30.367l-88.646,-56.383l86.196,-135.508Zm-346.804,-102.2l67,9.096c24.729,2.9 50.842,13.712 46.333,46.917c-1.937,14.263 -11.133,24.821 -23.208,29.533c14.571,6.971 22.008,22.962 19.558,41.017c-5.142,37.883 -31.792,46.071 -62.483,41.904l-68.8,-9.342l21.6,-159.125Zm-806.904,597.175l48.758,0l0,286.033c0,37.512 -8.908,70.333 -25.783,98c-17.35,27.663 -49.712,41.733 -97.075,41.733l-27.65,0l0,-53.454l34.233,0c22.033,0 38.45,-7.033 50.167,-20.629c11.721,-14.067 17.35,-33.296 17.35,-57.679l0,-294.004Zm331.975,425.75l40.8,-377.925c1.404,-17.817 6.087,-31.417 15,-41.267c7.971,-9.842 17.821,-15.004 28.6,-15.004c8.45,0 16.883,4.221 25.792,12.188c7.508,8.446 13.125,19.696 16.408,34.233l76.438,293.062l73.15,-286.967c8.904,-33.767 23.912,-51.117 44.538,-51.117c11.253,0 20.633,4.221 28.142,12.663c7.967,8.437 12.188,19.692 13.592,33.292l43.617,386.842l-51.575,0l-35.642,-348.862l-83.467,317.45c-2.342,11.25 -7.033,19.696 -13.121,25.779c-6.571,6.1 -13.6,9.383 -21.1,9.383c-15.004,0 -25.329,-11.25 -31.417,-33.75l-83.467,-320.267l-34.233,350.267l-52.054,0Zm698.195,-425.746l50.167,0l0,425.758l-50.167,0l0,-425.758Zm-953.275,425.754l0.938,-282.75c0,-14.067 1.879,-27.192 4.688,-39.85c2.812,-12.667 7.496,-25.788 13.596,-38.442c11.25,-22.983 25.321,-40.8 42.671,-52.992c36.575,-25.788 89.096,-23.917 125.675,0c18.75,12.658 34.225,30.946 45.004,54.867c5.633,12.179 9.383,25.783 12.196,40.783c2.808,15.013 4.217,30.95 4.217,48.767l0,269.617l-48.292,0l0,-193.65l-131.292,0l0,-54.392l130.825,0l0.467,-16.892c0,-34.7 -5.633,-61.888 -17.35,-81.583c-23.921,-41.258 -90.967,-46.417 -115.821,-2.342c-11.717,20.633 -17.35,42.667 -17.35,66.108l0,282.75l-50.171,-0Zm664.904,0l1.404,-282.75c0,-14.067 1.4,-27.192 4.217,-39.85c3.433,-13.239 8.144,-26.113 14.067,-38.442c10.783,-22.983 25.321,-40.8 42.667,-52.992c36.112,-25.788 88.629,-23.917 125.2,0c19.222,12.658 34.228,30.947 45.017,54.867c5.622,12.183 9.843,25.778 12.662,40.783c2.804,15.013 4.217,30.95 4.217,48.767l0,269.617l-48.296,0l0,-193.65l-131.762,0l0,-54.392l131.296,0l0.467,-16.892c0,-34.7 -6.096,-61.888 -17.35,-81.583c-24.383,-41.258 -91.433,-46.417 -116.287,-2.342c-11.717,20.633 -17.346,42.667 -17.346,66.108l0,282.75l-50.171,-0Zm378.871,-260.708c3.283,-14.533 7.508,-28.6 13.596,-41.733c10.321,-25.321 24.862,-47.354 44.083,-66.112c8.56,-8.559 17.809,-16.399 27.654,-23.442c10.325,-7.033 20.633,-13.6 31.425,-19.225c21.567,-9.375 42.192,-14.537 61.888,-14.537l46.896,0l0,53.454l-38.917,0c-14.542,0 -28.146,2.346 -40.8,6.562c-13.125,4.221 -24.85,10.783 -36.1,18.754c-21.108,15.479 -36.575,35.175 -46.892,59.55c-24.85,60.496 -17.817,127.075 15.479,183.346c19.688,33.763 55.8,50.638 107.379,50.638l39.858,0l0,53.458l-48.771,0c-34.229,0 -65.167,-9.846 -93.312,-28.608c-28.125,-19.225 -49.7,-45.008 -64.233,-77.833c-22.05,-46.892 -29.55,-103.154 -19.233,-154.271Zm243.362,260.708l0.933,-282.75c0,-14.067 1.875,-27.192 4.688,-39.85c2.813,-12.667 7.5,-25.788 13.6,-38.442c11.246,-22.983 25.321,-40.8 42.671,-52.992c17.35,-12.658 37.042,-18.754 58.608,-18.754l2.342,0c23.925,0 45.492,6.567 64.717,18.754c18.758,12.658 34.229,30.946 45.012,54.867c5.633,12.179 9.383,25.783 12.196,40.783c2.804,15.013 4.217,30.95 4.217,48.767l0,269.617l-48.292,0l0,-193.65l-131.292,0l0,-54.392l130.821,0l0.467,-16.892c0,-34.7 -5.633,-61.888 -17.35,-81.583c-12.662,-21.567 -31.883,-32.821 -57.204,-32.821l-1.408,0c-26.725,0 -45.95,10.317 -57.208,30.479c-11.717,20.633 -17.346,42.667 -17.346,66.108l0,282.75l-50.171,-0Zm-1138.483,194.683l69.9,80.325l-25.287,21.992l-45.183,-51.917l-24.775,21.558l39.075,44.892l-24.442,21.262l-39.058,-44.896l-46.663,40.6l-24.721,-28.4l121.154,-105.417Z" style="fill:#fff;"/><path d="M1324.554,2311.717l32.417,-4.937l-24.279,-53.179l-0.396,0.062l-7.742,58.054Z" style="fill:#fff;"/><path d="M853.042,2247.442l15.925,7.975c25.829,12.175 41.5,6.188 55.908,-22.575c13.083,-26.142 6.754,-45.167 -16.233,-56.671l-15.925,-7.983l-39.675,79.254Z" style="fill:#fff;"/><path d="M1165.025,2284.629l31.533,1.671c11.317,0.587 17.742,-5.821 18.383,-17.95c0.629,-11.9 -7.575,-17.746 -18.083,-18.296l-29.917,-1.575l-1.917,36.15Z" style="fill:#fff;"/><path d="M1020.533,894.679c23.183,-7.242 24.958,-32.775 17.842,-55.533c-7.117,-22.758 -23.108,-42.733 -46.292,-35.483c-23.183,7.25 -24.962,32.779 -17.846,55.533c7.104,22.758 23.104,42.733 46.296,35.483Z" style="fill:#fff;"/><path d="M869.371,962.833c20.788,-12.567 16.421,-37.783 4.083,-58.188c-12.329,-20.404 -32.629,-35.988 -53.412,-23.421c-20.783,12.567 -16.421,37.783 -4.087,58.188c12.333,20.404 32.633,35.987 53.417,23.421Z" style="fill:#fff;"/><path d="M1684.492,2197.617c19.738,-14.162 13.413,-38.963 -0.487,-58.333c-13.9,-19.371 -35.363,-33.321 -55.096,-19.15c-19.737,14.162 -13.412,38.954 0.488,58.333c13.896,19.367 35.363,33.312 55.096,19.15Z" style="fill:#fff;"/><path d="M1462.621,875.938l30.696,11.525l4.8,-58.254l-0.383,-0.146l-35.113,46.875Z" style="fill:#fff;"/><path d="M1306.129,802.479l28.883,3.921c6.417,0.875 15.754,-1.721 17.3,-13.083c1.583,-11.588 -5.329,-16.388 -13.158,-17.45l-28.875,-3.921l-4.15,30.533Z" style="fill:#fff;"/><path d="M1297.529,865.775l29.892,4.054c11.833,1.604 20.696,-1.962 22.479,-15.104c1.904,-14.042 -6.283,-19.917 -17.517,-21.446l-29.888,-4.054l-4.967,36.55Z" style="fill:#fff;"/><path d="M2491.383,1137.833l40.325,-106.908l-681.317,-357.3l983.758,-460.933l-267.742,-0l-842.617,394.817l-752.592,-394.825l-244.767,0l788.221,413.108c113.013,35.167 217.579,90.967 309.483,162.238l667.246,349.804Z" style="fill:#fff;"/><path d="M2497.475,212.683l-1463.446,0l690.696,361.996l772.75,-361.996Z" style="fill:#fff;"/><path d="M2116.729,1162.217l357.771,0l-558.933,-293.067c83.933,83.933 152.4,183.342 201.163,293.067Z" style="fill:#fff;"/></svg>