<?xml version="1.0" encoding="UTF-8" standalone="no"?><!DOCTYPE svg PUBLIC "-//W3C//DTD SVG 1.1//EN" "http://www.w3.org/Graphics/SVG/1.1/DTD/svg11.dtd"><svg width="100%" height="100%" viewBox="0 0 98 129" version="1.1" xmlns="http://www.w3.org/2000/svg" xmlns:xlink="http://www.w3.org/1999/xlink" xml:space="preserve" xmlns:serif="http://www.serif.com/" style="fill-rule:evenodd;clip-rule:evenodd;stroke-linejoin:round;stroke-miterlimit:2;"><path d="M87.917,89.167c0,0.417 0,0.417 0,0Z" style="fill:#fff;fill-rule:nonzero;"/><path d="M9.167,90l0,-0.833l0,0.833Z" style="fill:#fff;fill-rule:nonzero;"/><path d="M7.917,77.083l0,1.667l0,-1.667Z" style="fill:#fff;fill-rule:nonzero;"/><path d="M89.167,78.333l0,-1.25l0,1.25Z" style="fill:#fff;fill-rule:nonzero;"/><path d="M14.583,98.75c-2.5,-2.083 -4.167,-4.583 -5,-7.083c1.25,2.5 2.5,5 5,7.083c2.917,2.5 7.083,5 13.75,7.917c2.5,1.25 5,2.083 7.5,3.333c-2.5,-1.25 -5,-2.5 -7.5,-3.333c-6.25,-2.917 -10.833,-5.417 -13.75,-7.917Z" style="fill:#fff;fill-rule:nonzero;"/><path d="M8.333,84.583l0,-0.417l0,0.417Z" style="fill:#fff;fill-rule:nonzero;"/><path d="M8.75,87.5l0,-0.833c-0.417,0.417 0,0.833 0,0.833Z" style="fill:#fff;fill-rule:nonzero;"/><path d="M7.917,82.5l0,-0.417l0,0.417Z" style="fill:#fff;fill-rule:nonzero;"/><path d="M94.583,76.667l0,1.667l0,-1.667Z" style="fill:#fff;fill-rule:nonzero;"/><path d="M37.917,9.167l0,-0.417l-0.417,-0.417l0,0.833l-0.833,1.667l2.083,0l-0.833,-1.667Z" style="fill:#fff;fill-rule:nonzero;"/><path d="M94.583,76.667l0,-74.583l-92.083,0l0,74.583c0,0 -0.417,10.417 2.083,17.083c2.5,6.667 7.5,12.083 21.667,17.917c14.167,6.25 22.5,13.333 22.5,13.333c0,0 8.333,-7.083 22.5,-13.333c14.167,-6.25 19.167,-11.25 21.667,-17.917c2.083,-5 2.083,-12.083 2.083,-15.417c-0.417,-1.25 -0.417,-1.667 -0.417,-1.667Zm-30.417,-70.833l2.5,0l2.917,4.167l0,-4.167c0,0 0,-0.417 0.417,-0.417l2.083,0l0,7.917c0,0 0,0.417 -0.417,0.417l-2.083,0l-2.917,-4.167l0,4.167c0,0 0,0.417 -0.417,0.417l-2.083,0l0,-8.333Zm-11.25,7.917l1.667,-5l0.833,-2.083l0.417,-0.833c0,-0.417 0.417,-0.417 0.833,-0.417l2.5,0l-0.417,0.833l0,0.417l1.667,4.167l0.833,2.5l-2.5,0l0.417,-0.833l-3.333,0l-0.417,1.25l-2.5,0Zm-8.333,-7.917l4.167,-0.417c1.667,0 2.917,1.667 2.917,3.333c0,1.667 -1.25,2.917 -2.917,2.917l-1.667,0l0,2.083l-2.5,0l0,-7.917Zm-10.417,5.417l1.667,-4.167l0.417,-0.833c0,-0.417 0.417,-0.417 0.833,-0.417l2.5,0l-0.417,0.833l0,0.417l1.667,4.167l0.833,2.5l-2.083,0l-0.417,-1.25l-3.333,0l-0.417,1.25l-2.5,0l1.25,-2.5Zm-8.75,0c0.417,0.417 1.25,0.417 1.667,0.417c1.667,0 1.25,-1.25 1.25,-1.25l0,-2.917l-1.25,0l0.833,-1.667l2.917,0c0.417,0 0.417,0 0.417,0.417l0,4.583c0,1.25 -0.833,1.667 -0.833,1.667c-0.417,0.833 -1.667,1.25 -3.333,1.25c-0.833,0 -1.667,-0.417 -2.5,-0.417l0.833,-2.083Zm62.5,77.917c0,0.417 0,0.417 0,0c0,1.25 -0.417,2.083 -0.417,2.5c-0.833,2.5 -2.5,4.583 -5,7.083c-2.917,2.5 -7.083,5 -13.75,7.917c-7.083,2.917 -13.75,6.667 -20,11.25c-4.167,-2.917 -8.333,-5.417 -12.917,-7.917c-2.5,-1.25 -5,-2.5 -7.5,-3.333c-6.25,-2.917 -10.833,-5.417 -13.75,-7.917c-2.5,-2.083 -4.167,-4.583 -5,-7.083c-0.417,-0.417 -0.417,-1.25 -0.417,-2.083l0,-0.833c0,-0.417 -0.417,-1.25 -0.417,-1.667l0,-0.833c0,-0.833 0,-1.25 -0.417,-2.083l0,-66.667l81.25,0l0,65c0,1.667 -0.417,3.333 -0.417,4.583c-0.833,0.833 -0.833,1.667 -1.25,2.083Z" style="fill:#fff;fill-rule:nonzero;"/><path d="M57.5,9.167l0,-0.833l-0.417,0.417l0,0.417l-0.833,1.667l2.083,0l-0.833,-1.667Z" style="fill:#fff;fill-rule:nonzero;"/><path d="M49.167,8.75c0,-0.833 -0.417,-1.25 -1.25,-1.25l-0.833,0l0,2.5l1.25,0c0.417,0 0.833,-0.833 0.833,-1.25Z" style="fill:#fff;fill-rule:nonzero;"/><path d="M70.833,111.667c-14.167,6.25 -22.5,13.333 -22.5,13.333c0,0 8.333,-7.083 22.5,-13.333c14.167,-6.25 19.167,-11.25 21.667,-17.917c2.083,-5 2.083,-12.083 2.083,-15.417c0,3.333 -0.417,10.417 -2.083,15.417c-2.5,6.667 -7.5,12.083 -21.667,17.917Z" style="fill:#fff;fill-rule:nonzero;"/><path d="M35.417,13.75l0.417,-1.25l-0.417,1.25Z" style="fill:#fff;fill-rule:nonzero;"/><path d="M57.5,101.667l0.833,-2.5l1.667,0l-1.667,0l-0.833,2.5l-4.583,0l4.583,0Z" style="fill:#fff;fill-rule:nonzero;"/><path d="M46.667,84.167l-3.333,0c-0.417,0 -0.833,0.417 -0.833,0.833l0,16.25l4.167,0l0,-5.833l4.167,0l1.25,-3.75l-5,0l0,-3.75l6.667,0l1.25,-4.167l-8.333,0l0,0.417Z" style="fill:#fff;fill-rule:nonzero;"/><path d="M37.917,95l0,-9.583c0,-0.417 0,-0.417 -0.417,-0.833c0,0 -0.417,-0.417 -0.833,-0.417l-4.583,0l-1.25,4.167l2.917,0l0,6.667c0,0 0,2.5 -2.5,2.5c-1.25,0 -2.083,-0.417 -2.917,-0.833l-1.25,3.75c1.25,0.833 2.917,1.25 4.583,1.25c2.5,0 4.583,-0.833 5.833,-2.083c-0.417,-0.417 0.417,-1.25 0.417,-4.583Z" style="fill:#fff;fill-rule:nonzero;"/><path d="M37.917,95l0,-9.583c0,-0.417 0,-0.417 -0.417,-0.833c0,0 0.417,0.417 0.417,0.833l0,9.583c0,3.333 -1.25,4.167 -1.25,4.167c0,0 1.25,-0.833 1.25,-4.167Z" style="fill:#fff;fill-rule:nonzero;"/><path d="M37.083,69.583c0,-0.417 0,-0.417 0,0c0,-0.417 0,0 0,0Z" style="fill:#fff;fill-rule:nonzero;"/><path d="M37.083,77.917l1.667,0c0.417,-0.833 0.833,-1.25 1.25,-2.083c0.417,-0.417 0.833,-0.833 0.833,-0.833c0.417,-0.833 0,-1.667 0,-1.667l-2.917,-5.417l-0.417,0.833c0,0.417 -0.417,0.417 -0.833,0.417l0,1.25l0.417,7.5Z" style="fill:#fff;fill-rule:nonzero;"/><path d="M33.333,74.167c0,-4.583 -3.75,-8.333 -8.333,-8.333c-4.583,0 -8.333,3.75 -8.333,8.333c0,4.583 3.75,8.333 8.333,8.333c4.583,0 8.333,-3.75 8.333,-8.333Z" style="fill:#fff;fill-rule:nonzero;"/><path d="M57.917,70.417l-0.833,0.417l1.25,0.417l0.417,0.417c0.417,0 0.417,0.417 0.417,0.833c0,0.417 0,0.833 -0.417,0.833l-2.5,1.667l1.667,3.333l2.5,0l0,-5.833l-2.5,-2.083c0,-0.417 0,0 0,0Z" style="fill:#fff;fill-rule:nonzero;"/><path d="M67.5,96.25l-1.667,-4.583l-1.667,-4.167l-0.417,-0.833l0.833,-2.083l-4.583,0c-0.833,0 -1.25,0.417 -1.25,0.833l0,0.417l-0.417,1.667l-1.667,4.167l-3.333,10l4.167,0l0.833,-2.5l5.833,0l0.833,2.5l4.167,0l-1.667,-5.417Zm-7.917,-0.833l1.25,-3.75l0.417,-0.833l0.417,0.833l1.25,3.75l-3.333,0Z" style="fill:#fff;fill-rule:nonzero;"/><path d="M58.333,99.167l-0.833,2.5l-4.583,0l4.583,0l0.833,-2.5l1.667,0l-1.667,0Z" style="fill:#fff;fill-rule:nonzero;"/><path d="M56.25,82.083l-5,0c0,0 -0.417,0 -0.833,0.417c0,0.417 -0.417,0.417 -0.833,0.417c-0.417,0 -0.417,0 -0.833,-0.417c0,0 -0.417,0.417 -0.833,0.417c-0.417,0 -0.417,0 -0.833,-0.417l-0.417,-0.417l-5.833,0c0,0.417 -0.417,0.417 -0.833,0.417l-2.917,0l0,0.833c0.417,0 0.833,0 1.25,0.417c0.417,0.417 0.417,0.833 0.417,1.25l0,9.583c0,3.333 -0.833,4.583 -1.25,5c0,0.417 -0.417,0.417 -0.833,0.833l0,5c3.333,1.667 6.667,3.333 9.583,5.417c0.833,0.417 1.25,0.833 1.667,1.25c1.667,-1.25 3.75,-2.5 5.833,-3.75c1.667,-0.833 3.75,-2.083 5.833,-3.333l0,-5l-1.25,0l-0,1.667c0,0.417 -0.417,0.833 -0.833,0.833l-4.167,0c-0.417,0 -0.833,0 -0.833,-0.417c0,-0.417 -0.417,-0.833 0,-0.833l3.333,-10l1.667,-4.167l0.417,-1.667l0,-0.417c0.417,-0.833 1.25,-1.667 2.083,-1.667l0,-0.833l-2.917,0c-0.417,0 -0.833,0 -0.833,-0.417Zm-0.833,2.5l-1.25,4.167c0,0.417 -0.417,0.833 -0.833,0.833l-5.417,0l0,1.667l4.167,0c0.417,0 0.833,0 0.833,0.417c0,0.417 0.417,0.833 0,0.833l-1.25,3.333c0,0.417 -0.417,0.833 -0.833,0.833l-2.917,0l0,5c0,0.417 -0.417,0.833 -0.833,0.833l-4.167,0c-0.417,0 -0.833,-0.417 -0.833,-0.833l0,-16.25c0,-1.25 0.833,-2.083 2.083,-2.083l11.25,0c0.417,0 0.833,0.417 0.833,0.833c-0.417,0.417 -0.417,0.417 -0.833,0.417Z" style="fill:#fff;fill-rule:nonzero;"/><path d="M46.667,84.167l-3.333,0c-0.417,0 -0.833,0.417 -0.833,0.833l0,16.25l4.167,0l0,-5.833l4.167,0l1.25,-3.75l-5,0l0,-3.75l6.667,0l1.25,-4.167l-8.333,0l0,0.417Z" style="fill:#fff;fill-rule:nonzero;"/><path d="M51.25,77.917l1.25,0l-2.917,-5.417c0,0.417 0,0.833 -0.417,0.833l-3.75,2.5l-1.25,2.5l1.25,0c1.25,0 2.083,0.833 2.5,2.083c0,0 0,0.417 0.417,0.417c0,0 0,-0.417 0.417,-0.417c0.833,-1.667 1.667,-2.5 2.5,-2.5Z" style="fill:#fff;fill-rule:nonzero;"/><path d="M39.583,24.583c0.417,-0.417 1.25,-0.417 1.667,-0.417c0.833,0 1.25,0 1.25,0.417c0.417,0.417 1.25,0.833 1.667,1.25c0.417,-0.833 0.833,-0.833 1.25,-0.833l0.833,0c0,0 0.833,0.833 1.25,0.833l6.667,0c0.417,0 0.833,0.417 0.833,0.417c0.417,0 1.25,0.833 1.667,1.25c0.417,0 0.417,0.417 0.417,0.833l0.417,-0.833c0,-0.417 0.417,-0.417 0.833,-0.833l0.417,-0.417c0.417,-0.417 0.833,-0.417 0.833,-0.833l0,-3.333l-22.5,0l0,3.75c0.417,0 0.833,0 1.25,-0.417c0.417,-0.417 1.25,-0.833 1.25,-0.833Z" style="fill:#fff;fill-rule:nonzero;"/><path d="M45.417,35.833l0,0.833l4.167,4.583l6.25,-10l0.417,-0.833l-10.417,5c-0.417,0 -0.417,0.417 -0.417,0.417Z" style="fill:#fff;fill-rule:nonzero;"/><path d="M33.333,30.833l0,15l-1.25,5c0,0 -0.417,1.25 0,2.083c0.417,0.417 2.917,5.417 5,10l-10.833,0l-1.667,-1.25l-0.417,0l0,1.667l-2.5,0l-1.667,2.917c1.667,-0.833 3.333,-1.667 5,-1.667c3.333,0 6.25,1.667 7.917,4.583c0.833,1.25 1.25,2.5 1.25,3.75l1.25,-2.5c0,0 0.417,-0.833 0,-1.25c-0.417,-0.417 -3.75,-3.75 -3.75,-3.75l2.083,0l2.5,2.917l1.25,-2.917c2.083,3.75 3.75,7.5 3.75,7.5c0,0 0.833,1.25 0,2.5c0,0.417 -0.417,0.833 -0.417,1.25c-0.417,0.833 -0.833,1.667 -1.25,2.5l-2.5,0c-0.417,0 -0.833,-0.417 -0.833,-0.833l0,1.25l-2.917,0c0,0 -1.667,0 -1.667,2.917c0,0 0.833,-0.833 2.083,-0.833l6.667,0l0,-0.417l6.25,0c0,0 0.417,0 0.833,0.417l0.417,0.417c0,-0.417 -0.833,-2.917 -2.083,-2.917l-2.917,0l2.083,-4.167l4.167,-2.5l-3.75,-1.667l2.5,-1.25l-2.083,-1.667l2.5,0l5.833,11.25l-2.917,0c-1.667,0 -2.5,2.917 -2.083,2.917c0.417,-0.833 1.25,-0.833 1.25,-0.833l6.25,0l0,0.417l6.667,0c0.833,0 2.083,0.833 2.083,0.833c0,-2.917 -1.667,-2.917 -1.667,-2.917l-2.5,0l0,-1.25c-0.417,0.417 -0.833,0.833 -1.25,0.833l-2.5,0l-2.5,-4.583l3.333,-2.083l-0.417,-0.417l-3.333,-1.25l2.5,-1.25l-2.5,-1.667l2.5,0l0.417,0.417l6.667,7.5l2.917,0l-10,-11.25l2.5,0l10,11.25l2.917,0l-12.917,-14.583l2.917,0l12.917,14.583l3.75,0l-15.417,-17.083l7.5,0l-4.583,-5l-7.083,0l-1.667,-1.667l7.917,0l3.75,-5l-14.167,0l1.25,-1.667l14.167,0l3.75,-5l-15,0l1.25,-1.667l15,0l3.75,-5.417l-15.417,0l1.25,-1.667l15.833,0l4.167,-6.667l-20.417,0c-2.917,0 -4.583,1.25 -5.417,2.083l-0.417,0.417c-0.417,0.417 -0.417,0.417 -0.417,0.833l-2.083,3.333l-7.083,11.25l-5,-5.417c0,0 0,-0.417 -0.417,-0.417l0,-1.25c0,-0.417 0.417,-0.417 0.833,-0.833l11.25,-5.833c0,0 0.833,-0.417 0.417,-0.833c-0.417,-0.417 -1.667,-1.25 -1.667,-1.25l-7.083,0c0,0 -0.417,0 -0.417,-0.417c-0.417,-0.417 -1.25,-0.833 -1.25,-0.833l-0.417,0c0,0 -0.417,0 -0.417,0.417c0,0 0,0.417 -0.417,0.417l-0.417,0c-0.417,0 -2.083,-1.25 -2.083,-1.25l-0.833,0c0,0 -0.417,0 -0.833,0.417c-0.417,0 -0.833,0.417 -1.25,0.833c-2.5,0.833 -5.417,2.083 -5.417,2.083c0,0 -0.833,0.833 -0.833,2.083Zm15.417,-2.083c0.417,0 0,0.417 0,0l-3.333,1.667l0,-1.25l3.333,-0.417Zm-7.083,0.417c0.417,-0.417 0.417,-0.417 0.833,-0.417l0.417,0c0.833,0 1.667,0.833 1.667,1.667c0,0.833 -0.833,1.667 -1.667,1.667c-0.833,0 -1.667,-0.833 -1.667,-1.667c0,-0.833 0,-0.833 0.417,-1.25Z" style="fill:#fff;fill-rule:nonzero;"/><path d="M49.167,82.083c0,-0.417 0,0 0,0Z" style="fill:#fff;fill-rule:nonzero;"/><path d="M60,78.75c-0.417,0.417 -0.417,0 -0.417,0c0,0.417 0,0.417 0.417,0Z" style="fill:#fff;fill-rule:nonzero;"/><path d="M41.25,25c0,0 0,0.417 0,0c0,0.417 0,0.417 0,0c0,0.417 0,0 0,0Z" style="fill:#fff;fill-rule:nonzero;"/><path d="M42.917,28.75c-0.417,0 -0.417,0 0,0Z" style="fill:#fff;fill-rule:nonzero;"/><path d="M37.083,69.583l0,0.833l0,-0.833Z" style="fill:#fff;fill-rule:nonzero;"/><path d="M44.583,26.667c0,0 -0.417,0 0,0c-0.417,0 0,0 0,0Z" style="fill:#fff;fill-rule:nonzero;"/><path d="M47.083,81.25c-0.417,0 -0.833,-0.417 -0.833,-0.417c0.417,0.417 0.417,0.417 0.833,0.417Z" style="fill:#fff;fill-rule:nonzero;"/><path d="M54.583,74.583l2.5,4.583l-2.5,-4.583l3.333,-2.083l-0.417,-0.417l0.417,0.417l-3.333,2.083Z" style="fill:#fff;fill-rule:nonzero;"/><path d="M45.417,70.833l3.333,1.667l-4.167,2.5l-1.667,4.167l1.667,-4.167l4.167,-2.5l-3.333,-1.667l2.917,-1.667l-2.5,-1.25l2.5,1.25l-2.917,1.667Z" style="fill:#fff;fill-rule:nonzero;"/><path d="M49.167,81.667c0.417,-0.833 1.25,-0.833 1.25,-0.833c0.417,0.417 -0.417,0.417 -1.25,0.833Z" style="fill:#fff;fill-rule:nonzero;"/><path d="M47.917,82.083c0,0 -0.833,-2.917 -2.083,-2.917c1.25,0 2.083,2.5 2.083,2.917Z" style="fill:#fff;fill-rule:nonzero;"/><path d="M42.083,72.917c0,0 -1.667,-3.333 -3.75,-7.5l3.75,7.5c0,0 0.833,1.25 0,2.5c0,0.417 -0.417,0.833 -0.417,1.25c0.417,-0.417 0.417,-0.833 0.417,-1.25c0.417,-1.667 0,-2.5 0,-2.5Z" style="fill:#fff;fill-rule:nonzero;"/><path d="M37.083,62.5l0,0.417l0,-0.417Z" style="fill:#fff;fill-rule:nonzero;"/><path d="M57.5,72.083l-2.917,-1.25l2.917,1.25Z" style="fill:#fff;fill-rule:nonzero;"/><path d="M57.5,67.917l0.417,0.417l-0.417,-0.417Z" style="fill:#fff;fill-rule:nonzero;"/><path d="M59.167,79.167c0,0 0.417,0 0,0l-2.083,0l2.083,0Z" style="fill:#fff;fill-rule:nonzero;"/><path d="M60,78.75c0,0.417 -0.417,0.417 0,0c-0.417,0.417 -0.417,0.417 0,0Z" style="fill:#fff;fill-rule:nonzero;"/><path d="M51.25,79.167l2.917,0l-5.833,-11.25l5.833,11.25l-2.917,0c-1.667,0 -2.5,2.917 -2.083,2.917c0,-0.417 0.833,-2.917 2.083,-2.917Z" style="fill:#fff;fill-rule:nonzero;"/><path d="M54.583,27.5c0,0 1.25,0.417 1.667,1.25c-0.417,-0.833 -1.667,-1.25 -1.667,-1.25Z" style="fill:#fff;fill-rule:nonzero;"/><path d="M45.417,25.833c0,0 0.833,0.833 1.25,0.833l-1.25,-0.833Z" style="fill:#fff;fill-rule:nonzero;"/><path d="M46.667,27.083l0.417,0.417c0,-0.417 0,-0.417 -0.417,-0.417Z" style="fill:#fff;fill-rule:nonzero;"/><path d="M42.917,29.583c-0.417,0 -0.833,0.417 -0.833,0.833c0,0.417 0.417,0.833 0.833,0.833c-0.417,0 -0.833,-0.417 -0.833,-0.833c0,-0.417 0.417,-1.25 0.833,-0.833Z" style="fill:#fff;fill-rule:nonzero;"/><path d="M43.333,30c0,0.417 -0.417,0.833 -0.833,0.833c0.833,0 0.833,-0.417 0.833,-0.833c0,-0.417 -0.417,-0.833 -0.833,-0.833c0.833,0.417 0.833,0.417 0.833,0.833Z" style="fill:#fff;fill-rule:nonzero;"/><path d="M42.083,30c0,0.417 0.417,0.833 0.833,0.833c-0.833,0 -0.833,-0.417 -0.833,-0.833c0,-0.417 0.417,-0.833 0.833,-0.833c-0.417,0 -0.833,0.417 -0.833,0.833Z" style="fill:#fff;fill-rule:nonzero;"/><path d="M42.917,31.667c-0.833,0 -1.667,-0.833 -1.667,-1.667c0,-0.417 0,-0.833 0.417,-0.833c-0.417,0.417 -0.417,0.417 -0.417,0.833c0,0.833 0.833,1.667 1.667,1.667Z" style="fill:#fff;fill-rule:nonzero;"/><path d="M42.5,28.75c-0.417,0 -0.833,0 -0.833,0.417c0,-0.417 0.417,-0.417 0.833,-0.417Z" style="fill:#fff;fill-rule:nonzero;"/><path d="M42.917,28.75c-0.417,0 -0.417,0 0,0Z" style="fill:#fff;fill-rule:nonzero;"/><path d="M42.5,28.75c-0.417,0 -0.833,0 -0.833,0.417c0,-0.417 0.417,-0.417 0.833,-0.417Z" style="fill:#fff;fill-rule:nonzero;"/><path d="M42.917,31.667c-0.833,0 -1.667,-0.833 -1.667,-1.667c0,-0.417 0,-0.833 0.417,-0.833c-0.417,0.417 -0.417,0.417 -0.417,0.833c0,0.833 0.833,1.667 1.667,1.667Z" style="fill:#fff;fill-rule:nonzero;"/><path d="M42.917,28.75c0.417,0 0.833,0 1.25,0.417c0,0.417 0.417,0.417 0.417,0.833c0,0.833 -0.833,1.667 -1.667,1.667c0.833,0 1.667,-0.833 1.667,-1.667c-0.417,-0.833 -0.833,-1.25 -1.667,-1.25Z" style="fill:#fff;fill-rule:nonzero;"/><path d="M43.75,29.167c-0.417,-0.417 -0.833,-0.417 -1.25,-0.417c0.833,0 1.25,0 1.25,0.417Z" style="fill:#fff;fill-rule:nonzero;"/><path d="M48.75,28.75c0.417,0 0,0.417 0,0l-3.75,1.667l3.75,-1.667c0,0.417 0.417,0 0,0Z" style="fill:#fff;fill-rule:nonzero;"/><path d="M45.417,30.417l0,-1.25l3.333,-0.417l-3.333,0.417l0,1.25Z" style="fill:#fff;fill-rule:nonzero;"/><path d="M48.75,29.167l-3.75,1.25l3.75,-1.25c0,0 0.417,-0.417 0,0c0,-0.417 0,-0.417 0,0c0.417,-0.417 0,0 0,0Z" style="fill:#fff;fill-rule:nonzero;"/><path d="M43.333,30c0,-0.417 -0.417,-0.833 -0.833,-0.833c-0.417,0 -0.833,0.417 -0.833,0.833c0,0.417 0.417,0.833 0.833,0.833c0.833,0 0.833,-0.417 0.833,-0.833Z" style="fill:#fff;fill-rule:nonzero;"/><path d="M45.417,30.417l0,-1.25l3.333,-0.417l-3.333,0.417l0,1.25Z" style="fill:#fff;fill-rule:nonzero;"/><path d="M40.833,25.417c0,0 -0.417,0 -0.833,0.417c0.417,-0.417 0.833,-0.417 0.833,-0.417Z" style="fill:#fff;fill-rule:nonzero;"/><path d="M41.667,25.417c-0.417,0 0,0 0,0Z" style="fill:#fff;fill-rule:nonzero;"/><path d="M41.25,25.417c-0.417,0 0,0 0,0Z" style="fill:#fff;fill-rule:nonzero;"/><path d="M42.083,25.417l2.083,1.25c0,0 -2.5,-1.25 -2.083,-1.25Z" style="fill:#fff;fill-rule:nonzero;"/><path d="M45,26.25c0,0 0,0.417 -0.417,0.417c0.417,0 0.417,-0.417 0.417,-0.417Z" style="fill:#fff;fill-rule:nonzero;"/><path d="M44.583,26.667c0,0 -0.417,0 0,0c-0.417,0 0,0 0,0Z" style="fill:#fff;fill-rule:nonzero;"/><path d="M56.25,29.167l-10.833,5.417c-0.417,0.417 -0.833,0.417 -0.833,0.833c0,-0.417 0.417,-0.417 0.833,-0.833l10.833,-5.417c0,0 0.833,-0.417 0.417,-0.833c0.417,0.417 -0.417,0.833 -0.417,0.833Z" style="fill:#fff;fill-rule:nonzero;"/><path d="M38.75,26.25c0.417,-0.417 1.25,-0.417 1.25,-0.833c-0,0.417 -0.417,0.417 -1.25,0.833Z" style="fill:#fff;fill-rule:nonzero;"/><path d="M40,79.167c0.417,-0.833 0.833,-1.667 1.25,-2.5c-0.417,0.833 -0.833,1.667 -1.25,2.5l-2.5,0l2.5,0Z" style="fill:#fff;fill-rule:nonzero;"/><path d="M47.5,82.083c0.417,0 0.417,0 0,0c0,0 0,-0.417 0,0Z" style="fill:#fff;fill-rule:nonzero;"/><path d="M47.5,81.667c0,0.417 0,0 0,0c0,0 0,0.417 0,0Z" style="fill:#fff;fill-rule:nonzero;"/><g><path d="M87.083,20c0,-0.417 -0.417,-0.417 -0.417,-0.417l-76.25,0c-0.417,0 -0.417,0.417 -0.417,0.417l0,57.083c0,0.833 -0.417,9.167 1.667,14.167c0.417,1.25 0.833,2.083 1.667,3.333c0.833,1.25 1.667,2.083 2.917,2.917c1.25,1.25 3.333,2.5 5.417,3.75c2.083,1.25 5,2.5 7.917,3.75c4.167,1.667 8.333,3.75 12.083,6.25c2.5,1.25 4.583,2.917 6.667,4.167l0.833,0c2.083,-1.667 4.583,-2.917 6.667,-4.167c3.75,-2.5 7.917,-4.583 12.083,-6.25c3.333,-1.25 5.833,-2.5 7.917,-3.75c2.083,-1.25 3.75,-2.5 5.417,-3.75c1.25,-0.833 2.083,-2.083 2.917,-2.917c0.833,-0.833 1.25,-2.083 1.667,-3.333c2.083,-5 1.667,-13.333 1.667,-14.167l-0.417,-57.083Zm-2.5,70.833c-0.417,1.25 -0.833,2.083 -1.667,2.917c-0.833,0.833 -1.667,2.083 -2.5,2.917c-1.25,1.25 -2.917,2.5 -5,3.333c-2.083,1.25 -4.583,2.5 -7.917,3.75c-4.167,1.667 -8.333,3.75 -12.5,6.25c-2.083,1.25 -4.583,2.917 -6.667,4.167c-2.083,-1.25 -4.167,-2.917 -6.667,-4.167c-4.167,-2.5 -8.333,-4.583 -12.5,-6.25c-2.917,-1.25 -5.833,-2.5 -7.917,-3.75c-2.083,-1.25 -3.75,-2.5 -5,-3.333c-1.25,-0.833 -2.083,-1.667 -2.5,-2.917c-0.833,-0.833 -1.25,-2.083 -1.667,-2.917c-1.667,-5 -1.667,-12.917 -1.667,-13.75l0,-56.667l75.417,-0l0,56.667c0.417,0.833 0.833,8.75 -1.25,13.75Z" style="fill:#fff;fill-rule:nonzero;"/></g><path d="M89.167,78.75c0,0 0,-0.417 0,0l0,3.333l0,-3.333Z" style="fill:#fff;fill-rule:nonzero;"/><path d="M89.167,82.083c0,1.667 -0.417,3.333 -0.417,4.583c0,-1.25 0,-2.917 0.417,-4.583Z" style="fill:#fff;fill-rule:nonzero;"/><path d="M8.75,89.167c0,-0.417 -0.417,-1.25 -0.417,-1.667c0.417,0.417 0.417,1.25 0.417,1.667Z" style="fill:#fff;fill-rule:nonzero;"/><path d="M89.167,76.667c0,0 0,0.417 0,0l0,-59.167l0,59.167Z" style="fill:#fff;fill-rule:nonzero;"/><path d="M7.917,78.75l0,3.333l0,-3.333Z" style="fill:#fff;fill-rule:nonzero;"/><path d="M8.333,87.083c0,-0.833 0,-1.25 -0.417,-2.083c0.417,0.417 0.417,1.25 0.417,2.083Z" style="fill:#fff;fill-rule:nonzero;"/><path d="M9.583,91.667c-0.417,-0.417 -0.417,-1.25 -0.417,-2.083c0,0.833 0.417,1.667 0.417,2.083Z" style="fill:#fff;fill-rule:nonzero;"/><path d="M88.333,87.083c0,0.833 -0.417,1.25 -0.417,2.083c0.417,-0.417 0.417,-1.25 0.417,-2.083Z" style="fill:#fff;fill-rule:nonzero;"/><path d="M82.5,98.75c-2.917,2.5 -7.083,5 -13.75,7.917c-7.083,2.917 -13.75,6.667 -20,11.25c-4.167,-2.917 -8.333,-5.417 -12.917,-7.917c4.583,2.5 8.75,5 12.917,7.917c6.25,-4.583 12.917,-8.333 20,-11.25c6.25,-2.917 10.833,-5.417 13.75,-7.917c2.5,-2.083 4.167,-4.583 5,-7.083c0.417,-0.833 0.417,-1.25 0.833,-2.083c0,0.833 -0.417,1.667 -0.833,2.083c-1.25,2.5 -2.5,5 -5,7.083Z" style="fill:#fff;fill-rule:nonzero;"/><path d="M7.917,76.667c0,0.417 0,0 0,0Z" style="fill:#fff;fill-rule:nonzero;"/><path d="M8.333,84.167l0,-1.667c-0.417,0.417 -0.417,1.25 0,1.667Z" style="fill:#fff;fill-rule:nonzero;"/></svg>