<?xml version="1.0" encoding="UTF-8"?>
<svg id="Capa_1" data-name="Capa 1" xmlns="http://www.w3.org/2000/svg" viewBox="0 0 941.91 1725.45">
  <defs>
    <style>
      .cls-1 {
        fill: #fff;
      }
    </style>
  </defs>
  <path class="cls-1" d="m884.76.9c-.29.48-.77,5.01-.96,10.02-.77,17.15-5.49,43.07-11.66,64.17-14.45,49.14-23.41,72.36-43.36,111.77-30.74,61.09-79.69,126.23-128.15,170.65-40.86,37.48-74.68,63.21-156.96,119.39-12.72,8.77-28.71,20.14-35.65,25.53-16.86,13.01-34.4,30.45-41.34,41.14-8.38,12.91-18.21,35.17-28.52,64.85-9.83,27.94-20.33,46.64-34.88,61.76-12.82,13.3-29.97,23.41-42.49,24.96-7.42.96-9.54.1-9.15-3.66.29-2.7,1.16-3.47,7.32-6.94,9.64-5.3,15.42-10.21,22.93-19.27,9.15-11.27,15.32-24.47,23.51-51.07,3.76-12.24,9.06-28.91,11.76-37.1,21.58-65.72,47.99-103.29,111.58-158.6,12.72-11.08,51.17-43.65,60.7-51.45,36.33-29.68,75.45-68.7,101.75-101.66,33.34-41.63,53.67-80.46,59.74-113.7,2.41-13.2,2.41-37,.1-45.77-2.7-9.92-7.8-19.75-13.39-25.63-5.49-5.78-17.92-14.94-24.28-17.83-4.91-2.22-11.95-2.41-12.72-.39-.29.77,1.35,5.4,3.76,10.31,6.74,13.68,7.9,18.89,7.8,36.42,0,14.55-.1,15.22-3.66,26.5-14.84,47.21-38.54,87.88-81.32,139.33-29.77,35.75-48.18,53.67-109.08,105.8-59.64,51.07-75.64,66.68-94.43,91.92-13.97,18.79-27.94,47.7-36.13,74.39-1.93,6.36-8,29.29-13.49,51.07-11.27,44.61-14.36,53-22.74,61.38-3.95,3.95-5.2,4.63-8.29,4.63-7.8,0-14.16-8.58-17.34-23.22-2.7-12.43-2.41-44.13.48-56.95,3.08-14.16,8.38-29.2,15.03-42.88,13.68-28.04,26.98-46.15,67.74-91.83,48.08-54.06,59.93-74.68,60.03-103.97,0-11.66-1.93-19.56-7.61-30.35-5.01-9.83-10.98-16.28-19.17-21.1-7.61-4.43-7.32-5.97,1.25-5.97,3.76,0,10.12.58,14.26,1.25,34.01,5.3,72.27-7.32,82.29-27.17,2.89-5.69,4.14-16.09,2.22-18.4-1.54-1.83-4.82-1.93-4.82-.1,0,2.22-4.63,7.13-9.25,9.83-18.6,10.89-40.28,8.38-104.45-12.14-40.57-12.91-45.48-14.45-57.14-17.25-15.42-3.76-30.26-5.2-46.15-4.72-14.74.58-20.81,2.31-28.52,8.48-7.42,5.78-9.25,11.66-6.46,20.81.67,2.02.39,2.02-18.02,2.79-10.21.39-18.79.77-18.98.87-.19,0-1.64-3.57-3.18-8.09-4.14-12.43-6.65-18.31-7.9-18.31-.58.1-3.85.67-7.32,1.45s-7.9,1.35-9.83,1.45c-2.02,0-3.66.29-3.66.58s1.06,1.93,2.31,3.57c3.18,4.14,8.29,15.03,8.86,19.17l.58,3.18-8.58,2.79c-22.55,7.13-35.27,16.28-41.92,29.87-3.57,7.42-4.53,11.18-2.89,11.18.48,0,5.4-1.73,11.08-3.85,12.62-4.72,27.65-8.48,37.68-9.35l7.61-.58-.58,7.13c-.48,6.17-3.95,21.78-5.01,22.93-.96.96-9.44,1.93-16.57,2.02-7.13,0-7.9.19-8.48,2.02-1.54,4.91,2.79,9.35,12.24,12.33,2.02.67,3.85,1.54,4.14,2.02,1.06,1.73-7.03,15.32-14.65,24.86l-3.28,4.05-4.14-3.37c-7.03-5.78-14.36-8.48-23.9-8.96-10.7-.58-18.4,1.64-33.05,9.44-5.78,3.08-13.3,6.46-16.57,7.61-5.4,1.83-6.26,1.83-10.5.58-5.4-1.64-6.46-.87-5.11,3.66,2.6,8.96,16.57,15.03,31.99,13.88,8.19-.58,12.33-2.12,24.96-9.06,13.39-7.42,29.68-11.18,29.68-6.94,0,2.6-10.98,10.41-30.93,22.07-12.33,7.13-22.45,16-26.21,22.84-3.18,5.97-4.14,13.59-2.6,20.91,2.12,10.31,13.1,18.89,24.19,18.89,3.47,0,3.85-.19,3.18-1.73-1.64-3.66-1.54-10.6.19-14.36.96-2.02,6.55-8.48,12.53-14.26,8.67-8.58,10.98-11.47,12.24-15.32,1.83-5.4,2.12-10.79.67-14.45-.87-2.31-.39-2.89,7.03-8.58,4.34-3.37,8.38-6.46,9.06-6.84.77-.39,2.51,1.93,5.2,7.32,12.43,24.76,35.56,32.66,55.4,18.98,10.41-7.13,18.02-18.21,19.37-28.33l.58-4.82-3.47,3.08c-4.72,4.14-10.7,7.52-16.86,9.44l-5.11,1.73-5.97-5.78c-3.28-3.08-7.42-6.65-9.15-7.9-4.82-3.37-13.97-5.88-21.39-5.88h-6.65l5.01-6.74c2.79-3.66,7.8-11.27,11.18-16.86,4.14-6.84,6.84-10.31,8.19-10.5,1.16-.19,7.9-1.35,15.03-2.41,7.13-1.16,17.83-3.08,23.61-4.43,31.6-7.23,51.07-4.14,64.56,10.21,2.41,2.6,5.88,7.71,7.52,11.27,2.89,6.07,3.08,7.03,3.08,17.54,0,12.62-1.45,17.73-8.29,29.1-11.47,19.37-30.74,37.48-93.37,87.59-39.31,31.41-53.57,43.75-70.82,60.99-19.56,19.56-37.39,41.82-49.72,61.96-4.91,7.9-16,30.93-21.1,43.65-18.4,46.15-20.14,102.23-4.63,149.35,4.53,13.59,15.9,36.71,24.38,49.62,10.6,16.09,28.71,35.36,46.93,50.11,18.21,14.74,47.21,32.38,70.44,42.97,53.29,24.38,111.58,41.43,172.19,50.3l14.94,2.22,3.57,10.79c11.76,35.17,12.91,72.85,3.18,102.04-1.35,4.05-2.31,7.52-2.02,7.71.19.19,2.99-.87,6.17-2.51,7.8-3.95,19.85-13.78,25.15-20.52,3.37-4.43,4.53-5.4,5.4-4.43.67.67,2.12,7.71,3.28,15.71,3.76,24.86,9.92,54.15,17.15,80.94,9.25,34.59,28.62,85.66,40.86,108.02,5.2,9.44,5.4,13.97.96,17.92-2.99,2.7-3.57,2.89-8.67,2.22-6.84-.77-13.3-2.6-26.11-7.42-14.55-5.4-35.94-9.73-45.77-9.25-8.19.48-13.68,2.51-17.34,6.55-1.54,1.64-1.93,3.47-1.93,8.29v6.17h-9.64c-5.3,0-11.27.48-13.2.96-4.34,1.25-10.6,5.88-14.55,10.89-5.59,6.94-4.34,19.95,2.31,23.32,4.05,2.12,5.2,1.83,7.03-2.41,3.57-8.09,13.78-13.39,27.65-14.16,6.07-.39,8.48-.19,9.06.67.48.77.1,1.54-.77,2.12-14.45,8-19.17,21.01-11.08,30.26,3.66,4.14,6.65,5.78,12.14,6.46q4.05.48,4.05-2.6c0-3.18,3.47-8.96,7.32-12.33,3.85-3.28,14.65-8.48,22.55-10.7,19.17-5.59,44.61-7.9,86.72-7.9,55.6,0,81.9,4.91,93.37,17.34,2.02,2.22,3.85,4.53,4.05,5.2,1.54,4.63,16.19-6.65,20.72-15.9,6.46-13.1-.77-23.61-19.46-28.33-6.74-1.73-10.31-1.93-30.74-1.83-24.47.19-28.81-.29-37.1-4.53-2.41-1.16-6.26-4.14-8.48-6.55-18.02-19.56-42.3-116.4-49.43-197.43-.58-7.23-.87-13.49-.58-13.78.29-.39,2.89.87,5.69,2.7,12.72,8.48,26.88,13.3,40.76,13.97,8.09.39,10.21.1,12.91-1.35,1.83-.96,3.47-2.22,3.66-2.79s-4.53-4.91-10.41-9.64c-28.62-22.64-47.12-57.24-53.29-99.73-2.31-15.8-1.83-47.5.96-56.85.29-1.06-3.37-4.82-11.85-12.04-33.24-28.33-62.15-57.14-82.1-82-27.08-33.82-42.2-66-45.38-96.93-.77-7.71-.67-10.02.48-12.72,2.51-6.07,3.47-5.01,9.64,11.08,5.59,14.74,16.67,37.68,24.38,50.59,15.03,25.25,33.44,45.67,79.21,88.17,39.41,36.52,61.19,60.13,72.36,78.63,18.31,29.97,26.4,60.61,25.82,97.13-.29,14.36-.1,16.48,1.25,17.34,3.76,2.31,7.52-5.3,11.37-23.51,5.4-25.15,3.85-58.2-3.95-85.28-7.8-26.88-21.68-53.67-37.58-72.27-9.64-11.37-32.18-33.24-48.18-46.83-7.71-6.55-21.1-18.02-29.87-25.44-18.31-15.51-45.09-41.92-53.86-53-8.48-10.7-20.52-29.29-22.16-34.11-1.45-4.34-.29-8.77,2.31-8.77.67,0,4.82,3.66,9.06,8.19,35.36,37.39,78.82,63.31,120.35,71.69,12.82,2.6,33.72,4.14,41.82,2.99,24.76-3.57,50.78-16.38,72.17-35.56,6.74-5.97,8.58-9.83,5.4-10.98-.77-.29-8.77-.58-17.92-.58-17.54-.1-32.38-1.16-47.02-3.47-16.38-2.6-43.55-8.96-58.01-13.49-16.09-5.01-44.13-17.34-50.39-22.07-2.7-2.02-1.73-4.82,1.73-5.2,19.75-1.83,35.94-6.07,49.05-13.01,13.01-6.84,30.16-24.86,28.33-29.77-.48-1.25-3.47-1.35-21.78-.96-27.17.58-53.57-1.93-54.83-5.3-1.06-2.7,1.64-3.85,10.02-4.53,4.72-.29,13.68-1.73,20.14-2.99,33.63-6.84,58.78-22.07,69.28-42.11,2.41-4.53,3.28-11.37,1.45-11.37-.48,0-9.92,1.73-20.91,3.95-29.97,5.78-43.46,7.61-60.51,8.19-16.28.58-19.27,0-17.25-3.18.67-1.16,6.55-3.08,18.79-6.17,17.25-4.43,34.59-10.41,48.66-16.77,17.15-7.8,31.51-20.14,37.77-32.18,4.34-8.58,4.14-16.48-.58-16.48-.77,0-6.17,1.93-12.04,4.24-21.97,8.67-46.83,16-70.05,20.72-13.97,2.79-20.62,3.37-21.87,1.83-1.93-2.31.77-4.24,10.79-7.52,49.14-16.19,82.29-36.04,93.27-55.89,5.78-10.6,7.9-20.81,5.3-26.4-.58-1.35-1.73-2.7-2.6-2.99s-9.15,2.99-18.31,7.32c-28.52,13.2-59.84,24.96-63.31,23.61-4.91-1.93,1.93-6.84,74.29-54.06,22.84-14.94,35.94-24.19,56.37-39.89,41.53-31.99,56.18-44.61,84.31-72.85,49.14-49.05,92.98-106.38,120.93-158.02,23.61-43.46,35.46-71.4,42.59-100.21,3.08-12.62,2.89-30.26-.48-42.98-4.24-16.19-13.3-32.86-22.35-41.24-4.24-3.85-6.55-4.82-7.71-2.99M332.16,258.75c20.81,3.66,34.69,7.13,34.69,8.48,0,.77-2.89,1.93-7.42,2.89-4.14.87-12.53,2.6-18.6,3.95s-12.04,2.41-13.2,2.41c-4.05,0-9.92-3.08-11.37-5.88-2.51-4.82-1.54-14.36,1.45-14.36.29,0,6.84,1.16,14.45,2.51m-53.09,26.5c7.32,1.16,11.27,2.99,12.14,5.78,2.6,8.19-9.35,15.8-32.18,20.33-5.88,1.16-10.89,1.83-11.18,1.64-.19-.29.58-4.82,1.83-10.12,1.35-5.2,2.6-11.56,2.99-14.16l.58-4.53h9.83c5.4,0,12.62.48,16,1.06m9.73,249.37c0,1.06-2.12,5.3-4.63,9.44-20.04,32.47-33.92,71.59-37.68,106.47-4.43,40.18,5.3,86.43,26.98,128.93,17.25,33.92,46.15,64.75,87.01,92.98,6.65,4.53,12.14,8.96,12.14,9.73,0,2.22-5.11,1.64-15.22-1.93-38.45-13.49-65.81-29.97-92.6-55.98-16.28-15.9-26.69-29.1-36.42-46.73-10.5-19.08-18.79-46.06-21.58-70.34-1.45-12.72-.67-40.08,1.54-51.07,5.01-25.92,15.32-49.82,32.95-76.31,16.38-24.67,47.5-54.25,47.5-45.19"/>
  <path class="cls-1" d="m932.75,102.84c-.48.39-3.66,7.8-6.94,16.57-14.65,38.35-48.47,99.34-74.1,133.16-26.69,35.36-28.81,37.87-62.73,73.81-14.07,15.03-26.21,28.33-26.98,29.49-1.73,2.89-.77,5.4,2.22,5.4,2.6,0,9.83-5.59,30.45-23.61,45.58-39.7,84.22-79.21,110.62-113.12,28.43-36.52,35.46-51.84,36.52-80.07.87-23.13-3.85-45-9.06-41.63m-158.99,16.77c-.39.67-.77,6.84-.77,13.78-.1,10.12-.58,14.65-2.7,23.7-9.44,39.89-26.11,72.85-60.32,118.81-10.31,13.88-25.05,30.45-43.46,48.76-22.64,22.74-37,35.46-84.79,75.25-38.74,32.28-54.35,45.87-70.34,61.09-21.29,20.33-26.02,26.4-23.13,29.87,2.7,3.28,6.46,1.73,17.15-7.13,21.2-17.44,46.93-36.33,96.07-70.44,48.18-33.44,93.56-74.19,126.23-113.22,18.02-21.58,29.87-38.54,44.13-63.11,16-27.75,21.58-44.13,22.55-65.52.67-15.51-1.06-25.05-6.84-37.19-5.88-12.33-11.47-18.21-13.78-14.65"/>
  <path class="cls-1" d="m918.2,230.9c-1.06.96-6.65,7.61-12.33,14.74-45.96,57.81-105.8,113.6-176.72,164.96-23.7,17.15-72.46,49.05-89.42,58.58-4.72,2.7-4.82,3.08-1.25,12.53,3.85,10.31,2.31,24.38-3.85,35.36-3.08,5.59-3.18,6.07-1.93,6.07,2.7,0,51.65-29.68,78.53-47.5,52.03-34.69,90.09-65.91,129.7-106.28,20.43-20.81,31.22-33.44,44.03-51.74,26.21-37.48,46.06-83.06,37.96-87.4q-2.41-1.25-4.72.67m-77.47,164.29c-55.4,55.31-121.12,102.23-194.35,139.04-5.88,2.89-10.7,5.69-10.7,6.07s.48,3.47,1.06,6.94c1.93,11.95-2.31,28.43-9.73,37.77-3.57,4.34-3.85,6.94-.67,5.97,4.63-1.35,27.08-11.85,44.52-20.62,55.12-27.94,96.45-57.14,132.97-93.85,34.5-34.59,54.25-64.94,58.39-89.52,1.06-6.55,1.06-7.71-.1-8.38-.77-.58-1.93-.96-2.6-.96s-9.06,7.9-18.79,17.54m-28.71,102.62c-1.83,1.45-7.23,6.07-12.04,10.41-4.72,4.24-10.21,8.86-12.04,10.21s-7.52,5.49-12.53,9.25c-28.33,20.81-58.58,38.54-93.47,54.83-16.28,7.52-39.99,17.25-49.24,20.14l-5.4,1.73-.67,7.8c-1.35,16.38-6.26,27.94-16.77,39.22-3.37,3.66-5.97,7.03-5.59,7.32,1.64,1.64,31.32-6.84,50.2-14.36,14.55-5.78,37.48-16.67,46.73-22.26,30.35-18.21,53.38-35.65,74.29-56.56,16.48-16.48,26.21-28.43,34.5-42.3,5.69-9.64,10.6-23.61,9.06-26.02s-3.37-2.31-7.03.58m-44.42,106.09c-2.89,2.02-7.23,5.2-9.73,7.13-11.66,8.96-38.83,24.09-61.48,34.3-28.04,12.62-54.83,21.49-81.52,26.98l-12.62,2.51-.58,8c-.58,9.15-3.66,16.86-10.12,25.05-4.53,5.69-14.45,13.88-22.55,18.6-2.99,1.83-5.2,3.66-4.91,4.14,1.54,2.51,37.68-4.14,55.69-10.21,24.76-8.38,50.59-20.04,69.95-31.51,33.24-19.66,72.27-55.31,84.5-77.18,3.28-5.78,3.76-8.48,1.93-10.31-1.73-1.73-2.89-1.45-8.58,2.51m-67.84,101.46c-34.98,18.4-66.1,29.2-99.44,34.59-9.92,1.64-9.15,3.18,2.41,5.2,19.27,3.47,55.89,4.24,74.29,1.54,5.4-.77,6.74-1.35,10.41-5.01,5.4-5.2,20.33-24.47,25.44-32.66,3.66-5.88,4.63-10.5,2.31-11.08-.48-.1-7.42,3.18-15.42,7.42m-196.47,97.03c-.29.29-.58,1.06-.58,1.73,0,1.64,23.8,21.39,47.21,39.41,41.43,31.6,55.5,43.55,73.81,62.34,14.84,15.32,24.76,27.75,38.83,48.95,24.47,36.62,33.53,55.12,43.36,88.84,14.36,49.24,15.13,91.73,2.41,136.83-2.51,9.15-2.79,11.95-1.35,12.82,3.18,1.93,8.67-5.49,22.16-29.77,35.94-64.66,43.65-127.09,23.22-188.47-15.51-46.44-48.47-84.89-95.49-111.29-16.28-9.15-41.24-19.56-84.5-35.27-35.46-12.82-40.37-14.74-53.29-20.62-11.56-5.2-14.94-6.46-15.8-5.49m-219.79,174.31c-2.99,36.33-12.04,75.16-24.57,105.9l-3.66,9.06h2.6c5.49,0,17.92-3.95,26.21-8.38,4.72-2.41,12.91-7.9,18.21-12.04,5.4-4.14,9.92-7.52,10.12-7.52s-.67,3.76-1.93,8.38c-8.77,32.47-38.16,98.57-62.82,141.45-14.94,26.02-44.03,73.33-48.08,78.24-1.83,2.31-5.4,5.3-7.9,6.74-4.14,2.51-5.3,2.7-14.65,2.7-9.44-.1-10.89-.29-21.68-4.24-24.76-8.86-33.34-10.21-45.09-6.94-11.37,3.08-15.9,7.8-14.94,15.32l.48,3.57h-11.66c-11.85,0-18.12,1.16-24.76,4.43-12.43,6.17-14.26,22.07-3.37,30.16q2.6,2.02,3.66.1c2.12-3.95,10.31-10.89,16.28-13.78,11.27-5.49,26.02-7.8,30.26-4.63,1.83,1.35,1.73,1.45-1.35,3.18-8.19,4.53-13.3,8.77-16.19,13.68-6.55,10.89-4.63,19.37,5.4,24.38,3.28,1.73,6.84,2.7,9.35,2.7h4.14l-.58-3.28c-.96-6.26,4.05-12.82,13.78-17.73,14.45-7.32,45.58-10.79,97.22-10.79,43.84-.1,68.03,2.51,80.94,8.58,8.19,3.76,11.08,6.74,11.08,11.18,0,2.89.29,3.37,2.22,3.37,2.89,0,9.25-4.24,12.72-8.48,2.99-3.57,6.26-13.1,6.26-18.12,0-10.79-10.41-18.89-28.43-22.07-6.36-1.06-14.55-1.45-30.83-1.35-15.71.1-22.93-.29-24.76-1.06-3.57-1.64-5.11-5.69-3.76-9.83,1.25-3.57,11.85-18.79,32.28-46.54,38.25-51.94,64.08-88.74,71.79-102.14,8.96-15.71,16.67-38.74,18.12-53.86.96-11.08,1.06-11.18,6.84-6.07,11.56,10.21,29.29,19.95,36.52,19.95,2.31,0,4.14-.19,4.14-.39s-1.83-3.37-4.05-6.94c-14.16-23.32-23.61-56.95-26.4-93.56l-.67-8.86-9.25-1.54c-23.51-4.05-50.2-12.91-79.4-26.4-4.72-2.22-8.67-3.95-8.86-3.95s-.58,3.37-.96,7.42m395.06,439.29c-34.4,2.6-48.56,5.88-70.73,16.38-16.28,7.71-28.33,16.19-40.08,28.14-18.12,18.31-28.33,35.07-36.04,58.68-7.03,21.2-8.19,29-8.09,50.88.1,31.6,2.22,43.26,12.24,66.39,10.02,23.32,24.19,41.24,44.52,56.56,12.33,9.25,20.91,13.97,35.75,19.95,26.5,10.6,40.47,13.2,66.29,12.33,31.03-.87,52.13-5.2,83.54-16.96,6.36-2.41,5.3,1.73,8.86-32.76,2.22-22.16,2.31-22.64.48-24.47-1.73-1.93-1.93-1.83-9.25,5.4-12.91,12.43-30.26,22.55-46.06,26.59-28.62,7.42-56.75,5.88-81.42-4.53-19.08-8-37.58-27.75-49.14-52.32-4.91-10.6-10.12-28.52-11.56-40.57-1.54-11.95-.67-42.88,1.35-51.74,3.08-13.39,10.5-30.45,18.21-41.82,5.2-7.71,17.25-20.14,24.28-25.15,6.55-4.63,20.72-11.95,27.94-14.45,17.54-5.88,39.22-5.59,63.6.87,17.44,4.72,32.09,13.49,48.47,29,8.96,8.58,9.54,8.86,11.76,7.71,2.7-1.45,2.79.1-.1-29.87-2.7-29.39-2.89-30.35-4.63-31.22-2.12-1.16-40.66-9.35-52.13-11.08-9.64-1.54-29.87-2.51-38.06-1.93m-671.89,6.17c-1.35,2.22-1.25,2.41,3.57,8.67,1.83,2.41,4.91,7.8,6.94,12.04,6.74,14.45,6.55,10.89,6.65,121.51.1,86.91-.1,100.02-1.45,106.47-3.37,16.38-8.67,28.14-17.44,38.93-4.34,5.11-5.3,6.94-4.82,8.77l.58,2.31h161.01l1.25-3.18c.77-1.64,3.76-10.21,6.84-18.98,2.99-8.77,7.8-22.45,10.6-30.35l5.11-14.45-2.02-2.22c-1.64-1.73-2.22-1.93-3.57-.96-.87.67-5.11,3.85-9.35,7.13-13.59,10.31-36.42,20.62-52.8,23.9-8,1.64-26.98,3.47-35.84,3.47h-5.11v-215.36l2.31-9.06c3.57-13.49,7.32-20.62,15.71-28.71,6.65-6.55,6.94-7.03,5.88-9.35l-1.06-2.51h-45.87c-45.19,0-45.87,0-47.12,1.93m276.83.58c-.87,1.35-1.45,2.6-1.25,2.7,9.92,6.84,16.77,18.12,20.72,34.21,1.45,5.59,1.64,17.25,1.93,102.72.29,61.48,0,99.25-.58,104.35-2.22,18.12-7.71,32.18-16.77,42.78-5.11,6.07-5.4,6.55-4.43,9.35l1.06,2.99h89.52l1.45-3.37q1.35-3.37-2.22-6.55c-4.82-4.24-12.24-15.8-14.65-23.03-1.93-5.78-2.02-7.71-2.02-56.85v-50.88h8.96c23.13,0,49.33,7.61,59.55,17.34l3.95,3.76,3.28-1.54,3.28-1.64v-70.63l-2.31-2.12-2.41-2.22-2.79,3.18c-1.64,1.83-6.26,5.3-10.5,7.8-13.88,8.48-25.92,11.37-47.21,11.66l-14.26.19v-92.5l4.82-.29c7.42-.48,31.6,1.64,42.69,3.76,17.44,3.37,33.72,10.02,41.24,16.86,3.28,3.08,3.85,3.28,6.36,2.22,3.28-1.35,3.28-.1.29-27.08-1.35-11.85-2.41-23.32-2.41-25.63v-4.05h-163.61l-1.64,2.51Zm-66,256.69c-10.31,1.93-17.34,10.41-17.34,20.91.1,12.62,8.77,21.49,21.2,21.49s21.2-8.86,21.2-21.2c0-13.68-11.76-23.7-25.05-21.2m217.77,0c-13.78,2.6-21.29,17.63-15.32,30.35,3.66,7.8,10.6,12.04,19.66,12.04,18.98,0,28.52-23.32,14.84-36.62-5.11-5.01-12.24-7.13-19.17-5.78m390.34.1c-16,2.99-22.55,23.13-11.47,35.17,9.73,10.6,26.31,9.25,34.21-2.6,3.08-4.63,4.05-13.1,2.22-18.69-3.28-9.92-13.97-15.9-24.96-13.88"/>
</svg>