<?xml version="1.0" encoding="UTF-8" standalone="no"?><!DOCTYPE svg PUBLIC "-//W3C//DTD SVG 1.1//EN" "http://www.w3.org/Graphics/SVG/1.1/DTD/svg11.dtd"><svg width="100%" height="100%" viewBox="0 0 3774 5017" version="1.1" xmlns="http://www.w3.org/2000/svg" xmlns:xlink="http://www.w3.org/1999/xlink" xml:space="preserve" xmlns:serif="http://www.serif.com/" style="fill-rule:evenodd;clip-rule:evenodd;stroke-linejoin:round;stroke-miterlimit:2;"><path d="M8.333,300.042c1.325,-54.188 3.409,-108.358 6.25,-162.5c9.217,-51.992 34.911,-92.269 77.083,-120.833l25,-6.25c1183.333,-2.778 2366.667,-2.778 3550,0c52.208,23.079 84.833,62.663 97.917,118.75c2.792,1083.333 2.792,2166.667 0,3250c-5.163,60.122 -13.508,119.928 -25,179.167c-17.125,72.789 -35.875,143.622 -56.25,212.5c-42.201,99.704 -92.364,195.849 -150,287.5c-3.417,3.708 -7.583,5.083 -12.5,4.167c0.27,3.393 0.121,6.706 -0.452,9.934c-0.222,1.25 -0.508,2.487 -0.855,3.71c-0.698,2.449 -1.65,4.846 -2.859,7.189c-105.917,149 -233.708,275.375 -383.333,379.167c-82.077,53.508 -165.423,104.898 -250,154.167c-254.708,138.417 -520,254.417 -795.833,347.917c-63,24.375 -128.292,38.958 -195.833,43.75c-55.458,-4.167 -109.625,-14.583 -162.5,-31.25c-152.855,-52.547 -304.26,-108.805 -454.167,-168.75c-38.292,-20.75 -77.208,-41.583 -116.667,-62.5c-31.792,-13.375 -63.75,-25.875 -95.833,-37.5c-86.161,-50.984 -173.693,-99.613 -262.5,-145.833c-13.057,-11.482 -26.988,-21.93 -41.667,-31.25c-38.253,-23.978 -77.157,-46.904 -116.667,-68.75c-330.192,-232.5 -533.662,-547.792 -610.417,-945.833c-8.849,-52.379 -14.415,-105.26 -16.667,-158.333c-0.693,-447.228 -2.776,-894.452 -6.25,-1341.667c5.371,-572.21 5.371,-1144.457 -0,-1716.667Zm108.333,2987.5c-1.342,24.408 0.047,48.019 4.167,70.833l0,8.333c-0.892,38.639 3.275,76.139 12.5,112.5c5.78,37.016 12.728,73.84 20.833,110.417c3.624,9.269 7.798,18.312 12.5,27.083c4.419,23.7 9.281,47.315 14.583,70.833c49.694,131.347 113.583,254.958 191.667,370.833c13.887,15.292 27.779,30.542 41.667,45.833c1.952,7.247 4.749,14.239 8.333,20.833c46.417,46.417 92.942,92.958 139.583,139.583c64.75,48.632 130.031,96.552 195.833,143.75c57.895,34.774 116.233,68.805 175,102.083c5.042,4.333 9.208,9.208 12.5,14.583c16.093,8.247 32.812,15.213 50,20.833c20.497,17.583 44.108,30.083 70.833,37.5c14.542,13.542 31.208,23.958 50,31.25c27.25,5.292 50.875,17.083 70.833,35.417c4.208,8.417 11.125,14 20.833,16.667c9.708,2.792 19.458,5.542 29.167,8.333c1.375,2.792 2.792,5.542 4.167,8.333c17.625,6.583 35.667,10.75 54.167,12.5c22.917,5.75 43.75,15.5 62.5,29.167c2.417,7.333 7.292,12.875 14.583,16.667c9.958,5.292 19.667,6.708 29.167,4.167c13.083,6.5 26.292,12.75 39.583,18.75l-4.167,4.167c39.792,13.75 79.375,28.333 118.75,43.75c4.208,-3.5 9.083,-4.875 14.583,-4.167c5.958,4.333 12.917,7.083 20.833,8.333c-1.75,3 -4.5,5.083 -8.333,6.25c10,3.042 19.042,7.917 27.083,14.583l4.167,-4.167c15.542,8.958 31.5,12.417 47.917,10.417c7.792,6.25 15.417,12.5 22.917,18.75l4.167,-4.167c8.333,2.083 15.25,6.25 20.833,12.5c1.375,-2.792 2.792,-5.542 4.167,-8.333c15.583,14.208 34.333,21.833 56.25,22.917l8.333,8.333c31.25,5.25 61.792,7.333 91.667,6.25c3.625,4.292 8.5,7.042 14.583,8.333c5.125,-4.667 10,-4.667 14.583,0c13.917,-8.125 29.875,-9.5 47.917,-4.167c39.667,-13.5 79.25,-24.625 118.75,-33.333l-0,-12.5c10.958,4.042 21.375,5.458 31.25,4.167c4.625,-6.417 10.875,-9.167 18.75,-8.333l0,-12.5c5.852,-0.369 11.677,1.087 16.667,4.167c5.069,-3.154 9.346,-7.431 12.5,-12.5c3.292,1.792 6.792,3.167 10.417,4.167c12.457,-3.097 24.391,-8.011 35.417,-14.583l-4.167,-4.167c19.25,-2.583 37.292,-4.667 54.167,-6.25l0,-16.667c14.083,-0.75 27.292,-0.75 39.583,0c2.417,-6.25 5.917,-11.792 10.417,-16.667c2.458,0.875 4.542,2.25 6.25,4.167c15.708,-8.708 34.458,-17.042 56.25,-25c2.792,1.375 5.542,2.792 8.333,4.167c15,-10.792 31.667,-17.708 50,-20.833c4.333,-10.375 7.792,-10.375 10.417,0c2,-7.042 -0.083,-12.625 -6.25,-16.667c27.458,-15.792 56.625,-28.292 87.5,-37.5c16.375,1.125 31.625,-2.375 45.833,-10.417c-5.542,-2.792 -5.542,-5.542 0,-8.333c33.25,-8.542 65.875,-21.708 97.917,-39.583c1.375,2.792 2.792,5.542 4.167,8.333c2.042,-6.792 2.75,-13.75 2.083,-20.833c31.333,0.75 54.958,-11.75 70.833,-37.5c55.458,-30.5 111,-61.042 166.667,-91.667c92.542,-56.667 182.833,-116.375 270.833,-179.167c76.042,-62.167 145.5,-131.625 208.333,-208.333c4.167,-1.375 6.958,-4.167 8.333,-8.333c5.5,-0.708 10.375,0.667 14.583,4.167c7.24,-15.849 15.594,-31.165 25,-45.833c37.625,-41.917 66.792,-89.125 87.5,-141.667c15.167,-14.333 22.792,-28.917 22.917,-43.75c27.087,-55.007 51.423,-111.326 72.917,-168.75c6.569,-26.046 11.44,-52.49 14.583,-79.167c12.169,-56.733 23.282,-113.687 33.333,-170.833c6.208,-24.025 9.667,-49.025 10.417,-75c3.458,-746.529 2.792,-1492.362 -2.083,-2237.5c-1179.875,-4.167 -2360.417,-5.554 -3541.667,-4.167c-14.281,6.306 -15.669,14.639 -4.167,25c-3.206,712.022 -4.594,1421.05 -4.167,2127.083c2.267,2.989 5.044,5.072 8.333,6.25Zm0,-2270.833c1181.25,4.167 2363.208,5.554 3545.833,4.167c1.375,-292.375 0,-584.042 -4.167,-875c-6.588,-14.649 -16.59,-27.509 -29.167,-37.5c-6.542,-3.375 -13.5,-4.763 -20.833,-4.167c-1145.833,-5.556 -2291.667,-5.556 -3437.5,0c-14.661,-1 -25.772,4.556 -33.333,16.667c-3.244,4.997 -7.503,9.256 -12.5,12.5c-2.569,0.461 -4.653,1.85 -6.25,4.167c-2.078,16.58 -2.775,33.304 -2.083,50c-3.194,2.8 -5.972,6.272 -8.333,10.417c-0.456,262.507 0.933,525.013 4.167,787.5c-1.889,11.806 -4.667,21.528 -8.333,29.167c3.842,1.994 8.219,2.723 12.5,2.083Zm2925,-229.167c-40.917,4.139 -82.583,5.528 -125,4.167c-1,-5.379 0.417,-9.546 4.167,-12.5c2.792,-8.333 5.542,-16.667 8.333,-25c-0.625,-13.4 3.542,-24.511 12.5,-33.333c44.17,-128.885 91.406,-256.699 141.667,-383.333c45.833,-5.556 91.667,-5.556 137.5,-0c52.917,150.581 107.083,300.581 162.5,450c-42.292,4.142 -85.375,5.533 -129.167,4.167l0,-12.5c-2.375,-16.821 -7.917,-32.096 -16.667,-45.833c-58.333,-5.556 -116.667,-5.556 -175,0c-5.044,18.73 -12.026,36.884 -20.833,54.167Zm104.167,-291.667c-15.958,45.9 -31.25,91.733 -45.833,137.5l100,-0c-10.653,-35.103 -22.465,-69.845 -35.417,-104.167c-5.042,-12.672 -11.292,-23.783 -18.75,-33.333Zm-1766.667,291.667c-39.542,4.142 -79.792,5.529 -120.833,4.167c-1.375,-153.487 0,-306.267 4.167,-458.333c41.667,-5.556 83.333,-5.556 125,0c25.179,26.791 47.52,56.113 66.667,87.5c48.792,57.125 96.042,115.458 141.667,175c4.167,-88.167 5.542,-177.054 4.167,-266.667c39.625,-1.363 78.542,0.025 116.667,4.167l0,450c-38.167,4.825 -77.042,5.517 -116.667,2.083c-70.094,-90.165 -140.93,-179.752 -212.5,-268.75c-2.792,90.279 -5.542,180.554 -8.333,270.833Zm-975,0c-4.166,-152.74 -5.555,-305.543 -4.167,-458.333c75.026,-1.387 150.077,0.003 225,4.167c5.378,-0.989 9.544,0.4 12.5,4.167c20.994,0.778 39.05,8.417 54.167,22.917l35.417,35.417c3.647,12.086 8.508,23.197 14.583,33.333c3.2,3.181 5.283,7.347 6.25,12.5c3.417,27.139 2.722,53.528 -2.083,79.167c-12.5,63.878 -50,102.767 -112.5,116.667c-36.742,4.139 -74.242,5.528 -112.5,4.167l0,145.833l-116.667,0Zm116.667,-245.833c24.291,2.903 48.597,5.68 72.917,8.333c4.223,-3.479 7.757,-7.719 10.417,-12.5c8.293,-6.189 15.968,-13.166 22.917,-20.833c16.558,-39.033 6.142,-67.506 -31.25,-85.417c-26.353,-2.083 -52.742,-2.778 -79.167,-2.083c-1.361,38.258 0.028,75.758 4.167,112.5Zm2666.667,-337.5c19.417,12.469 36.083,27.747 50,45.833c-13.105,17.974 -27.008,35.352 -41.667,52.083c-29.25,3.458 -58.417,2.764 -87.5,-2.083c25.373,-32.771 51.775,-64.731 79.167,-95.833Zm-2320.833,575l-0,12.5l-133.333,0c-0.989,-5.381 0.4,-9.547 4.167,-12.5c42.54,-110.782 84.208,-221.896 125,-333.333c11.871,-37.707 24.372,-75.212 37.5,-112.5c22.875,-2.778 46.486,-4.167 70.833,-4.167c25.175,0.017 48.786,2.794 70.833,8.333c9.089,29.374 18.814,58.547 29.167,87.5c24.448,64.972 48.061,130.255 70.833,195.833c8.958,8.822 13.125,19.933 12.5,33.333c16.945,41.036 32.235,82.737 45.833,125c3.75,2.954 5.167,7.121 4.167,12.5c-42.417,1.361 -84.083,-0.028 -125,-4.167c-8.596,-18.814 -15.566,-38.33 -20.833,-58.333c-58.237,-4.095 -116.634,-5.485 -175,-4.167c-7.222,17.5 -12.802,35.634 -16.667,54.167Zm100,-279.167c-16.438,42.635 -31.721,85.706 -45.833,129.167c33.161,4.152 66.609,5.546 100,4.167c-13.133,-37.408 -26.328,-74.908 -39.583,-112.5c-2.906,-8.683 -7.767,-15.628 -14.583,-20.833Zm954.167,266.667c0.618,7.198 -0.828,14.426 -4.167,20.833c-42.921,4.161 -86.066,5.553 -129.167,4.167c-1.875,-10.458 0.917,-18.792 8.333,-25c11.464,-39.713 25.38,-78.676 41.667,-116.667c-0.625,-13.4 3.542,-24.511 12.5,-33.333c34.577,-94.001 67.913,-188.454 100,-283.333c47.292,-1.383 94.542,0 141.667,4.167c52.493,150.599 106.663,300.608 162.5,450c-42.333,4.829 -85.375,5.521 -129.167,2.083c-3.667,-5.65 -5.042,-11.9 -4.167,-18.75l0,-4.167c-6.667,-9.783 -10.833,-20.894 -12.5,-33.333l0,-4.167l-4.167,0c-57.292,-1.312 -114.208,0.079 -170.833,4.167c-1.917,12.108 -6.083,23.219 -12.5,33.333Zm89.067,-41.859c-25.517,-0.493 -51.045,-0.429 -76.567,0.193c25.664,-0.612 51.187,-0.676 76.567,-0.193Zm6.766,-228.974c-14.43,46.112 -29.711,91.953 -45.833,137.5l100,0c-11.875,-39.071 -25.042,-77.958 -39.583,-116.667c-2.292,-9.417 -7.167,-16.358 -14.583,-20.833Zm404.167,254.167c-3.424,12.348 -6.205,24.864 -8.333,37.5c-37.583,1.381 -75.083,-0.008 -112.5,-4.167c4.834,-23.488 9.002,-47.109 12.5,-70.833c3.375,-32.854 8.958,-64.796 16.667,-95.833l0,-8.333c-0.333,-13.671 2.458,-26.171 8.333,-37.5c12.054,-57.921 21.784,-116.301 29.167,-175c-0.875,-12.479 1.917,-23.592 8.333,-33.333c2.989,-9.426 4.397,-19.281 4.167,-29.167c38.917,-0.692 77.792,0 116.667,2.083c6.802,15.511 12.375,31.533 16.667,47.917c10,11.704 15.542,25.592 16.667,41.667c17.5,46.972 34.167,94.194 50,141.667c4.417,4.583 7.875,10.142 10.417,16.667c1.583,-2.317 3.667,-3.706 6.25,-4.167c-0.417,-8.554 2.375,-15.5 8.333,-20.833c22.271,-67.134 45.887,-133.814 70.833,-200c0.708,-9.837 2.125,-19.558 4.167,-29.167c40.292,-0.692 80.583,0 120.833,2.083c3.792,7.079 5.167,14.721 4.167,22.917c3.625,30.6 7.792,61.156 12.5,91.667c6.417,9.742 9.208,20.854 8.333,33.333c7.162,33.046 12.724,66.418 16.667,100c4.833,11.554 7.583,24.054 8.333,37.5c6.936,50.223 15.273,100.242 25,150c3.375,6.238 6.125,13.183 8.333,20.833c-39,2.875 -77.917,5.658 -116.667,8.333c-2.403,-0.836 -4.554,-2.27 -6.25,-4.167c-2.083,-11.025 -2.75,-22.137 -2.083,-33.333c-6.976,-48.834 -15.313,-97.464 -25,-145.833c-7.667,-15.279 -12.542,-31.946 -14.583,-50c-1.583,2.317 -3.667,3.706 -6.25,4.167c-23.89,74.483 -50.294,148.136 -79.167,220.833c-29.458,2.842 -59.292,5.621 -89.583,8.333c-2.037,-5.304 -2.752,-11.025 -2.083,-16.667c-2.375,-16.821 -7.917,-32.096 -16.667,-45.833c-5.708,-10.15 -9.875,-21.261 -12.5,-33.333c-15.121,-51.287 -33.92,-101.417 -56.25,-150c-5.197,19.097 -8.683,38.618 -10.417,58.333c-0.292,12.2 -3.042,23.312 -8.333,33.333l0,25c-3.667,28.667 -9.208,56.446 -16.667,83.333Z" style="fill:#fff;"/><path d="M2800,2762.542c-37.625,8.125 -75.792,9.517 -114.583,4.167c-3.458,-88.213 -2.75,-175.713 2.083,-262.5c45.083,-4.144 90.917,-5.533 137.5,-4.167c177.083,-4.854 354.833,-5.546 533.333,-2.083c3.667,2.95 6.458,6.425 8.333,10.417c10.083,18.9 10.083,38.344 0,58.333c-2.25,15 -6.417,29.583 -12.5,43.75c-1.417,4.292 -4.167,6.375 -8.333,6.25c-59.875,90.354 -144.583,133.412 -254.167,129.167c-43.75,4.021 -88.167,6.792 -133.333,8.333l-8.333,0c-47.792,6.208 -96.375,8.992 -145.833,8.333l-4.167,0Z" style="fill:#fff;"/><path d="M462.5,2983.375c-7.017,-13.408 -4.239,-24.519 8.333,-33.333c19.202,-6.372 38.664,-11.932 58.333,-16.667c28.064,-8.597 57.231,-14.153 87.5,-16.667c59.518,-12.181 119.25,-23.294 179.167,-33.333c4.475,-0.189 8.807,-1.633 12.5,-4.167c49.63,-11.539 99.663,-21.267 150,-29.167c6.078,0.278 11.633,-1.111 16.667,-4.167c12.869,-5.353 26.758,-8.131 41.667,-8.333c12.869,-5.353 26.758,-8.131 41.667,-8.333c8.792,-4.033 18.5,-5.425 29.167,-4.167c4.167,84 5.542,168.721 4.167,254.167l-33.333,0c-22.589,6.867 -46.2,11.033 -70.833,12.5c-51.846,5.216 -103.329,13.565 -154.167,25c-28.233,6.811 -57.4,10.978 -87.5,12.5l-29.167,0c-24.244,4.803 -49.244,5.497 -75,2.083c-10.85,-1.628 -20.572,-5.1 -29.167,-10.417c-70.928,-22.972 -120.928,-68.806 -150,-137.5Z" style="fill:#fff;"/><path d="M2762.5,3087.542c-25.042,-2.389 -50.042,-5.167 -75,-8.333l0,-254.167c7.958,-1.183 14.917,0.204 20.833,4.167c17.875,3.854 35.917,6.625 54.167,8.333c11.375,-1.375 21.083,1.404 29.167,8.333l16.667,0c104.667,22.258 208.833,44.481 312.5,66.667c63.28,9.185 125.908,22.406 187.5,39.583c5.792,3.983 8.583,9.537 8.333,16.667c-27.292,79.372 -81.458,131.456 -162.5,156.25c-19.708,6.444 -40.542,9.222 -62.5,8.333c-25.958,0.5 -50.958,-2.278 -75,-8.333l-8.333,0c-13.667,0.333 -26.167,-2.444 -37.5,-8.333c-69.583,-9.75 -139.042,-19.471 -208.333,-29.167Z" style="fill:#fff;"/><path d="M1204.167,3275.042c-4.863,-319.422 -5.557,-638.893 -2.083,-958.333c0.833,-7.583 4.292,-13.138 10.417,-16.667c2.672,-5.432 7.068,-9.828 12.5,-12.5c3.5,-6.971 9.083,-11.833 16.667,-14.583c431.25,-3.471 861.792,-2.775 1291.667,2.083c8.042,2.542 15,6.708 20.833,12.5c7.167,7.306 13.417,15.639 18.75,25c0.708,162.5 1.375,325 2.083,487.5c-0.083,168.404 -2.875,336.458 -8.333,504.167c-8.125,56.188 -28.292,107.575 -60.417,154.167c-82.917,117.637 -187.75,210 -314.583,277.083c-67.08,40.486 -136.665,76.67 -208.333,108.333l-93.75,31.25c-25.875,-5.833 -51.583,-13.475 -77.083,-22.917c-130.083,-52.447 -250.917,-120.503 -362.5,-204.167c-78,-62.367 -143.958,-135.283 -197.917,-218.75c-10.826,-26.225 -21.244,-52.617 -31.25,-79.167c-5.515,-25.009 -11.07,-50.009 -16.667,-75Zm36.205,-986.148c1.89,0.683 3.711,1.621 5.462,2.815c-1.697,-1.181 -3.535,-2.125 -5.462,-2.815Zm659.628,1465.315c58.847,-25.964 117.191,-53.052 175,-81.25c81.11,-43.997 157.845,-95.619 229.167,-154.167c73.333,-62.75 124.042,-139.833 152.083,-231.25c5.958,-99.858 8.042,-199.858 6.25,-300l0.091,-3.246c-0.356,-2.38 -1.77,-4.075 -4.257,-5.087c-188.167,4.162 -377.083,5.55 -566.667,4.167c-2.75,258.371 0,515.317 8.333,770.833Zm-579.167,-775l566.667,0l0,-587.5l-566.667,0l0,587.5Z" style="fill:#fff;"/><path d="M2025,3258.375c-13.458,-6.225 -14.875,-13.862 -4.167,-22.917c37.458,-2.083 74.958,-2.778 112.5,-2.083c8.75,-29.875 18.458,-59.042 29.167,-87.5c-1,-16.779 5.958,-22.337 20.833,-16.667c4.455,9.163 7.275,19.034 8.333,29.167c4.333,5.958 7.083,12.904 8.333,20.833c6.208,17.846 11.75,35.9 16.667,54.167c39,-1.383 77.875,0.008 116.667,4.167c6.625,7.188 5.25,11.354 -4.167,12.5c-3.458,7.35 -9,12.908 -16.667,16.667c-8.931,7.991 -18.711,14.977 -29.167,20.833c-12.208,11.696 -26.083,21.417 -41.667,29.167c11.491,22.375 19.901,46.203 25,70.833c4.333,5.958 7.083,12.904 8.333,20.833l0,4.167c4.583,4.583 5.25,10.142 2.083,16.667c-2.333,2.175 -5.125,3.562 -8.333,4.167c-17.701,-10.117 -33.842,-22.749 -47.917,-37.5c-16.533,-8.77 -32.533,-18.509 -47.917,-29.167c-23.679,18.884 -47.999,36.95 -72.917,54.167c-5.717,4.915 -12.014,9.113 -18.75,12.5c-6.25,-0.696 -9.708,-4.167 -10.417,-10.417c7.283,-24.653 15.624,-48.981 25,-72.917c0.917,-9.529 3.708,-18.554 8.333,-27.083c-1,-3.758 -2.417,-7.229 -4.167,-10.417c-7.737,-4.484 -14.76,-10.102 -20.833,-16.667c-10.455,-5.856 -20.236,-12.843 -29.167,-20.833c-9.351,-3.852 -17.848,-9.517 -25,-16.667Z" style="fill:#fff;"/><path d="M1512.5,2704.208c-23.486,-15.869 -46.417,-32.546 -68.75,-50c-2.792,-2.778 -2.792,-5.556 0,-8.333c39.25,-4.103 78.833,-5.492 118.75,-4.167c8.589,-36.84 19.727,-73.038 33.333,-108.333c5.083,-5.046 9.958,-5.046 14.583,0c7.125,10.037 10.583,21.146 10.417,33.333c7.917,23.517 16.25,47.128 25,70.833c38.802,3.467 77.716,5.552 116.667,6.25c1.917,1.725 3.292,3.808 4.167,6.25c-29.29,22.979 -59.161,45.209 -89.583,66.667c0.25,26.75 6.5,51.75 18.75,75c9.958,14.429 12.75,29.704 8.333,45.833c-11.599,-3.661 -22.773,-8.55 -33.333,-14.583c-21.512,-16.938 -43.755,-32.926 -66.667,-47.917c-32.605,19.803 -64.566,40.647 -95.833,62.5c-0.542,-38.292 7.792,-75.097 25,-110.417c-5.167,-9.467 -12.125,-17.108 -20.833,-22.917Z" style="fill:#fff;"/><path d="M641.667,3491.708c-40.269,-12.181 -74.297,-34.403 -102.083,-66.667l-16.667,-25c-6.844,-20.533 -0.594,-35.117 18.75,-43.75c43.984,-18.519 88.443,-35.886 133.333,-52.083c101.208,-42.106 202.598,-83.773 304.167,-125c14.383,-11.331 31.05,-18.275 50,-20.833c18.681,-9.042 38.125,-17.375 58.333,-25c0.257,82.374 7.224,164.591 20.833,245.833c-28.63,7.091 -56.53,16.856 -83.333,29.167c-19.65,9.328 -40.483,16.272 -62.5,20.833c-62.098,18.617 -123.278,40.169 -183.333,64.583c-46.308,14.531 -92.142,13.836 -137.5,-2.083c0.64,-4.281 -0.089,-8.658 -2.083,-12.5c2.011,3.95 2.706,8.117 2.083,12.5Z" style="fill:#fff;"/><path d="M1454.167,2012.542c2.667,17.025 4.042,34.383 4.167,52.083c0.917,22.633 -1.875,44.162 -8.333,64.583c-0.63,9.553 -3.484,18.828 -8.333,27.083c-71.542,3.453 -142.375,2.758 -212.5,-2.083c-12,-20.633 -28.667,-36.606 -50,-47.917c-44.943,-19.02 -89.401,-39.165 -133.333,-60.417c-10.278,-1.064 -18.611,-5.231 -25,-12.5c-56.894,-26.497 -113.839,-52.886 -170.833,-79.167c-10.278,-1.064 -18.611,-5.231 -25,-12.5c-46.403,-21.759 -92.251,-44.683 -137.5,-68.75c-78.342,-22.128 -139.453,-67.267 -183.333,-135.417c-7.272,-6.389 -11.439,-14.722 -12.5,-25c-13.17,-29.026 -21.61,-59.973 -25,-91.667c-4.811,-28.419 -5.506,-57.586 -2.083,-87.5c1.158,-3.814 3.242,-6.592 6.25,-8.333c6.569,-17.175 19.069,-23.425 37.5,-18.75c70.454,29.407 141.293,57.882 212.5,85.417c13.422,1.65 24.533,7.206 33.333,16.667c24.506,10.949 49.536,20.683 75,29.167c10.278,1.064 18.611,5.231 25,12.5c145.376,60.834 291.213,120.558 437.5,179.167c10.792,-0.167 19.125,4 25,12.5c55.333,27.437 95.583,69.104 120.833,125c10.375,13.025 15.917,28.3 16.667,45.833Z" style="fill:#fff;"/><path d="M712.5,2350.042c-147.556,-30.183 -242.694,-117.683 -285.417,-262.5c-2.783,-13.749 -2.783,-27.918 0,-41.667c9.211,-11.625 21.017,-15.097 35.417,-10.417c208.388,42.091 416.722,84.452 625,127.083c4.167,93.725 5.542,188.167 4.167,283.333c-6.667,1.117 -12.208,-0.275 -16.667,-4.167l-337.5,-83.333c-9.992,1 -18.325,-1.778 -25,-8.333Z" style="fill:#fff;"/><path d="M1491.667,1725.042c-4,-7.354 -5.375,-15.688 -4.167,-25c59.083,1.372 117.417,-0.017 175,-4.167c-20.325,-13.98 -41.173,-27.184 -62.5,-39.583c-33.25,-29.517 -45.083,-66.325 -35.417,-110.417c2.583,-10.703 7.571,-20.678 14.583,-29.167c47.208,31.946 94.458,63.888 141.667,95.833c1.375,-1.388 2.792,-2.779 4.167,-4.167c-11.654,-25.884 -22.082,-52.302 -31.25,-79.167c-4.208,-49.921 15.25,-87.421 58.333,-112.5c3.958,1.687 6.708,4.467 8.333,8.333c16.757,46.624 35.525,92.5 56.25,137.5c7.292,6.389 11.458,14.722 12.5,25c13.083,24.196 32.542,40.863 58.333,50c40.917,2.342 81.167,5.121 120.833,8.333c25.667,11.679 39.583,31.125 41.667,58.333c45.927,-1.699 91.916,0.392 137.5,6.25c36.625,15.783 59.542,42.867 68.75,81.25c2.792,31.944 2.792,63.889 0,95.833c-19.042,12.9 -35,9.429 -47.917,-10.417c-33.333,-2.778 -66.667,-2.778 -100,0c-30.708,16.775 -41.833,42.467 -33.333,77.083c6.833,19.725 9.625,40.558 8.333,62.5c6.417,9.742 9.208,20.854 8.333,33.333c13.875,27.642 31.917,52.642 54.167,75c10.833,4.033 20.542,9.583 29.167,16.667c20.875,0.833 40.292,6.387 58.333,16.667c-229.167,5.556 -458.333,5.556 -687.5,0c6.458,-3.967 13.375,-5.354 20.833,-4.167c25.076,-7.687 48.927,-18.911 70.833,-33.333c12.5,-13.196 24.292,-27.083 35.417,-41.667c23.5,-54.097 33.917,-111.042 31.25,-170.833c-4.281,-0.637 -8.657,0.092 -12.5,2.083c-14.125,12.575 -29.375,22.992 -45.833,31.25c-1.75,3.008 -4.5,5.092 -8.333,6.25c-18.833,3.392 -36.875,2.696 -54.167,-2.083c-22.208,-4.756 -40.958,-15.867 -56.25,-33.333c-2.792,-4.167 -2.792,-8.333 0,-12.5c44.58,-31.372 89.727,-61.933 135.417,-91.667c-37.667,-2.569 -75.167,-6.042 -112.5,-10.417c-28.25,-17.763 -47.667,-42.067 -58.333,-72.917Zm345.833,0c5.333,9.867 12.292,18.896 20.833,27.083c37.833,14.592 65.625,4.175 83.333,-31.25c3.958,-5.917 5.333,-12.854 4.167,-20.833l-116.667,0c0.375,9.525 3.167,17.858 8.333,25Z" style="fill:#fff;"/><path d="M2687.5,2445.875c-4.167,-96.504 -5.542,-193.725 -4.167,-291.667l20.833,0c24.81,-5.236 49.833,-9.407 75,-12.5c30.2,-7.36 60.809,-12.925 91.667,-16.667c16.875,-7.333 34.917,-11.5 54.167,-12.5l4.167,0c55.75,-14.167 112.667,-25.279 170.833,-33.333c1.75,-3.008 4.5,-5.092 8.333,-6.25c16.625,-2.675 33.292,-4.758 50,-6.25l8.333,0c46.021,-9.575 91.862,-19.993 137.5,-31.25c41.208,-8.796 57.167,7.175 47.917,47.917c-0.875,6.489 -2.958,12.044 -6.25,16.667c-36.833,123.642 -117.375,203.5 -241.667,239.583c-67.251,15.033 -133.958,32.405 -200,52.083c-20.833,9.371 -43.042,14.929 -66.667,16.667c-44.837,9.478 -89.311,20.597 -133.333,33.333c-4.458,3.892 -10,5.283 -16.667,4.167Z" style="fill:#fff;"/><path d="M3225,1525.042c8.625,-3.644 16.958,-8.506 25,-14.583c16.958,-6.775 33.625,-6.775 50,0c5.792,4.875 9.292,11.125 10.417,18.75c19.333,137.554 -30,242.412 -147.917,314.583c-41.177,16.755 -81.503,35.528 -120.833,56.25c-8.375,6.521 -18.083,10.688 -29.167,12.5c-94.817,43.649 -189.265,88.095 -283.333,133.333c-5.264,9.029 -11.556,17.418 -18.75,25c-5.833,-2.296 -11.375,-3.683 -16.667,-4.167c-12.833,9.511 -27.417,15.067 -43.75,16.667c-25.196,12.82 -50.199,26.015 -75,39.583c-7.563,11.01 -15.919,21.454 -25,31.25l0,4.167c-71.5,4.154 -143.708,5.542 -216.667,4.167l0,-12.5c-4.751,-14.852 -7.553,-30.259 -8.333,-45.833c-4.833,-31.208 -5.5,-63.146 -2.083,-95.833c1.167,-3.814 3.25,-6.592 6.25,-8.333c24.083,-83.792 76.875,-140.737 158.333,-170.833c19.75,-7.508 39.167,-15.842 58.333,-25c71.792,-28.896 144,-58.062 216.667,-87.5c46.161,-21.927 93.449,-41.399 141.667,-58.333c8.792,-9.463 19.917,-15.017 33.333,-16.667c30.875,-12.683 61.417,-25.183 91.667,-37.5c65.582,-25.631 130.864,-52.022 195.833,-79.167c3.083,-0.546 5.875,0.15 8.333,2.083c-2.327,-1.901 -5.386,-2.666 -8.333,-2.083Z" style="fill:#fff;"/><path d="M2725,3395.875c-18.185,-4.676 -35.69,-11.678 -52.083,-20.833c1.083,-28.808 5.958,-56.588 14.583,-83.333l0,-158.333c5.375,-0.989 9.542,0.4 12.5,4.167c2.792,0 4.167,1.387 4.167,4.167c37.503,10.867 73.801,25.526 108.333,43.75c43.846,16.111 86.945,34.184 129.167,54.167c35.833,14.475 71.958,27.667 108.333,39.583c9.667,2.75 19.375,5.529 29.167,8.333c7,1.533 11.167,5.7 12.5,12.5c24.167,11.306 49.167,21.028 75,29.167c10.292,1.064 18.625,5.231 25,12.5c22.708,6.644 43.542,16.367 62.5,29.167c6.208,3.383 9,8.938 8.333,16.667c-0.083,5.108 -1.458,9.275 -4.167,12.5c-70.958,93.45 -162.625,122.617 -275,87.5c-18.417,-1.503 -35.083,-7.058 -50,-16.667c-70.023,-23.362 -139.487,-48.369 -208.333,-75Z" style="fill:#fff;"/><path d="M458.333,2650.042c-34.339,-39.486 -51.006,-85.319 -50,-137.5c4.258,-1.481 7.036,-4.258 8.333,-8.333c0.461,-2.569 1.85,-4.653 4.167,-6.25c164.592,-3.464 328.481,-2.769 491.667,2.083c58.366,-1.386 116.766,0.005 175,4.167c4.167,86.779 5.542,174.279 4.167,262.5c-31.331,1.356 -61.886,-0.033 -91.667,-4.167c-65.347,-1.303 -130.625,-4.081 -195.833,-8.333c-49.414,0.111 -98.025,-2.667 -145.833,-8.333c-21.942,1.294 -42.775,-1.483 -62.5,-8.333c-57.858,-10.7 -103.692,-39.867 -137.5,-87.5Z" style="fill:#fff;"/><path d="M2270.833,4308.375c3.208,15.208 8.75,29.083 16.667,41.667c7.583,23.417 14.542,47.042 20.833,70.833l12.5,58.333c-1.75,9.375 -7.292,15.625 -16.667,18.75c-95.5,9.542 -171.167,-24.5 -227.083,-102.083c-42.837,-109.274 -84.506,-219.003 -125,-329.167l-8.333,-8.333c-9.894,-23.945 -16.212,-49.216 -18.75,-75c18.083,-4.417 36.167,-9.25 54.167,-14.583c54.625,-24.583 108.792,-48.875 162.5,-72.917c42.25,137.792 85.292,275.292 129.167,412.5Z" style="fill:#fff;"/><path d="M2391.667,3841.708c4,1.887 7.458,4.663 10.417,8.333c35.613,67.711 73.128,134.404 112.5,200c6.583,19.417 0.333,31.917 -18.75,37.5c-10.708,0.917 -20.417,3.708 -29.167,8.333c-93.958,14.542 -169.625,-16 -227.083,-91.667c-25.125,-38.333 -49.417,-77.208 -72.917,-116.667c15.375,-15.75 33.417,-26.85 54.167,-33.333c44.181,-25.992 87.274,-53.794 129.167,-83.333c19.292,20.583 33.208,44.196 41.667,70.833Z" style="fill:#fff;"/><path d="M1379.167,4095.875c-29.292,0.5 -58.458,-0.875 -87.5,-4.167c-28,-8.875 -35.667,-26.917 -22.917,-54.167c22.685,-35.408 44.224,-71.538 64.583,-108.333c9.542,-4.667 17.167,-11.625 22.917,-20.833c8.125,-17.792 17.833,-34.458 29.167,-50c4.769,-12.103 8.261,-24.671 10.417,-37.5c10.17,-15.683 18.556,-32.454 25,-50c62.808,40.637 126.721,79.541 191.667,116.667c-31.734,57.292 -69.444,111.065 -112.5,160.417c-17.667,11.875 -35.708,23 -54.167,33.333c-21.568,7.479 -43.946,12.375 -66.667,14.583Z" style="fill:#fff;"/><path d="M1737.5,3941.708c39.625,17.708 79.875,34.375 120.833,50c-41.763,102.369 -80.667,205.881 -116.667,310.417c-14.75,29.292 -27.958,59.167 -39.583,89.583c-38.958,57.292 -92.417,92.042 -160.417,104.167c-74.5,12.458 -94.625,-13.917 -60.417,-79.167c2.083,-12.417 2.75,-24.917 2.083,-37.5c26.375,-80.542 52.792,-161.083 79.167,-241.667c13.333,-12.458 21.667,-28.458 25,-47.917c4.583,-13.083 8.75,-26.25 12.5,-39.583c-0.458,-3.917 -1.833,-7.417 -4.167,-10.417c11.375,-20.25 21.083,-41.083 29.167,-62.5c-2.458,-1.917 -5.25,-2.625 -8.333,-2.083c1.792,-13.667 5.958,-26.167 12.5,-37.5c4.167,0.375 7.625,-1.042 10.417,-4.167c3.083,-7.167 6.542,-14.125 10.417,-20.833c25,16.458 54.167,26.167 87.5,29.167Z" style="fill:#fff;"/><path d="M137.5,3456.292c0.549,-6.718 1.131,-13.22 1.747,-19.506c-0.641,6.496 -1.224,12.999 -1.747,19.506Z" style="fill:#fff;"/><path d="M3658.333,1133.375c-1179.875,-1.389 -2359.042,0 -3537.5,4.167c1176.375,-0.696 2352.792,0 3529.167,2.083c2.5,6.758 5.292,13.008 8.333,18.75l0,-25Z" style="fill:#fff;"/><path d="M1048.236,117.13c-8.461,-1.406 -16.902,-2.936 -25.32,-4.589c8.7,1.691 17.14,3.221 25.32,4.589Z" style="fill:#fff;"/><path d="M116.667,1016.708c-4.281,0.64 -8.658,-0.089 -12.5,-2.083c3.667,-7.639 6.444,-17.361 8.333,-29.167c-3.234,-262.487 -4.623,-524.993 -4.167,-787.5c2.361,-4.144 5.139,-7.617 8.333,-10.417l0,829.167Z" style="fill:#fff;fill-opacity:1;"/><path d="M8.333,300.042l0,858.333c-2.792,-286.972 -5.569,-574.472 -8.333,-862.5c2.817,-44.994 4.9,-92.217 6.25,-141.667c2.489,-66.2 32.35,-114.811 89.583,-145.833l-4.167,8.333c-42.172,28.564 -67.867,68.842 -77.083,120.833c-2.841,54.142 -4.925,108.312 -6.25,162.5Z" style="fill:#fff;fill-opacity:0.21;"/><path d="M116.667,187.542c-0.692,-16.696 0.005,-33.42 2.083,-50c1.597,-2.317 3.681,-3.706 6.25,-4.167c-4.139,294.349 -5.528,588.8 -4.167,883.333c1177.792,0.696 2355.542,-0 3533.333,-2.083c4.167,-289.292 5.542,-578.875 4.167,-868.75c4.167,290.958 5.542,582.625 4.167,875c-1182.625,1.388 -2364.583,0 -3545.833,-4.167l0,-829.167Z" style="fill:#fff;"/><path d="M91.667,16.708l4.167,-8.333c8.112,-2.886 16.484,-4.979 25,-6.25l391.667,-2.083c1045.583,-0.222 2095.583,0.472 3150,2.083c66.125,23.233 102.958,69.763 110.417,139.583c1,1072.211 1,2144.433 0,3216.667c-7.625,143.117 -37.458,280.617 -89.583,412.5c20.375,-68.878 39.125,-139.711 56.25,-212.5c11.492,-59.239 19.837,-119.045 25,-179.167c2.792,-1083.333 2.792,-2166.667 0,-3250c-13.083,-56.088 -45.708,-95.671 -97.917,-118.75c-1183.333,-2.778 -2366.667,-2.778 -3550,-0l-25,6.25Z" style="fill:#fff;fill-opacity:0.76;"/><path d="M8.333,3291.708c-2.781,-423.9 -5.558,-848.206 -8.333,-1272.917c0.953,-1.664 2.342,-2.358 4.167,-2.083l4.167,-0l0,1275Z" style="fill:#fff;fill-opacity:0.21;"/><path d="M133.333,3479.208c-9.225,-36.361 -13.392,-73.861 -12.5,-112.5c5.686,37.316 9.856,74.846 12.5,112.5Z" style="fill:#fff;"/></svg>