<?xml version="1.0" encoding="UTF-8"?>
<svg id="Capa_1" data-name="Capa 1" xmlns="http://www.w3.org/2000/svg" viewBox="0 0 76.81 76.81">
  <defs>
    <style>
      .cls-1 {
        fill: #fff;
      }
    </style>
  </defs>
  <path class="cls-1" d="m38.4,0h0c-21.18,0-38.4,17.23-38.4,38.4s17.23,38.41,38.4,38.41,38.4-17.23,38.4-38.41S59.58,0,38.4,0Zm25.16,63.63c-6.74,6.74-15.69,10.44-25.22,10.44s-18.48-3.71-25.21-10.44c-6.74-6.74-10.44-15.69-10.44-25.21s3.71-18.48,10.44-25.22c6.73-6.74,15.69-10.44,25.21-10.44s18.48,3.71,25.22,10.44c6.73,6.74,10.44,15.69,10.44,25.22s-3.71,18.48-10.44,25.21Z"/>
  <path class="cls-1" d="m22.28,21.6h0s-2-1.82-2-1.82l2.48-2.73c1.12-1.23,1.12-3.21-.11-4.33-1.23-1.12-3.23-.97-4.35.26l-3.68,4.04,6.4,5.83c.4-.44.82-.86,1.25-1.27Zm-5.3-4.83l2.4-2.64c.55-.59,1.47-.62,2.06-.07.58.54.62,1.44.09,2.03l-2.4,2.64-2.15-1.96Z"/>
  <path class="cls-1" d="m51.39,9.27c-.56-.25-1.12-.48-1.69-.7l-3.39,8.15c.57.21,1.14.45,1.69.7l3.39-8.15Z"/>
  <path class="cls-1" d="m54.12,13c-1.15,1.09-.5,2.76.51,3.82l.98,1.03c1,1.05,1.86,2.09,1.06,2.75-.85.7-3.23-1.06-4.67-4.09l-1.28.97c.31.8,1,1.95,1.93,2.93,1.05,1.11,2.2,1.83,3.22,2.03.81.16,1.61.04,2.14-.45,1.32-1.23.84-3.01-1.24-5.2l-.86-.91c-.96-1.01-.57-1.58-.2-1.67,1.32-.31,3.75,2.1,4.21,3.73.39-.3,1.25-.92,1.25-.92-1.03-2.92-5.11-5.84-7.05-4.01Z"/>
  <path class="cls-1" d="m28.02,15.35c1.22-.54,2.47-.98,3.76-1.31l1.54,1.76c.68-.15,1.36-.26,2.06-.35l-6.76-7.42c-.63.2-1.25.42-1.86.66l-.66,10c.59-.36,1.2-.7,1.83-1.01l.09-2.33Zm.21-5.38l2.48,2.85c-.9.26-1.78.57-2.64.92l.15-3.77Z"/>
  <path class="cls-1" d="m38.23,15.27v-2.67h2.23l1.93,3.05c.76.14,1.51.31,2.25.53l-2.31-3.68c1.32-.35,2.42-1.52,2.42-2.9,0-1.66-1.58-3.02-3.24-3.02h-5.06v8.78c.59-.05,1.18-.07,1.78-.07h0Zm0-7.14h3.28c.8,0,1.46.65,1.46,1.46s-.65,1.46-1.46,1.46h-3.28v-2.91Z"/>
  <path class="cls-1" d="m38.38,17.5c-11.6,0-21.03,9.43-21.03,21.03s9.43,21.03,21.03,21.03,21.03-9.43,21.03-21.03-9.44-21.03-21.03-21.03Zm0,1.41c.6,0,1.19.03,1.78.09,0,0,0,0,0,0,0,0,0,0,0,0,.03,1.77.17,3.47.38,5.11.43,3.29,1.23,6.34,2.33,9.17.66,1.7,1.42,3.33,2.3,4.87h0s0,0,0,0h-13.61s0,0,0,0h0c1.53-2.69,2.75-5.62,3.61-8.81.19-.73.36-1.47.52-2.22.02-.07.04-.14.05-.22.06-.29.1-.58.15-.87.25-1.39.45-2.82.56-4.3.01-.18.01-.37.03-.55.05-.72.09-1.45.1-2.19.31-.03.63-.03.95-.04.28-.01.56-.04.85-.04Zm-19.62,19.62c0-9.89,7.33-18.07,16.85-19.42-.86,12.61-6.12,21.75-14.76,28.23-1.38-2.73-2.09-5.75-2.09-8.81Zm26.66,18.31c-2.25.87-4.63,1.31-7.04,1.31-2.48,0-4.85-.47-7.04-1.31-.82-1.24-1.26-2.69-1.26-4.18,0-4.35,3.72-7.88,8.3-7.88s8.3,3.53,8.3,7.88c0,1.49-.44,2.94-1.26,4.17Zm9.36-7.55c-.21.32-.46.62-.69.93-1.45,1.95-3.24,3.63-5.3,4.93-.03.02-.05.04-.08.05h0s0,0,0,0c.05-.26.08-.53.1-.79.02-.26.03-.53.04-.8,0-5.41-4.69-9.79-10.47-9.79-1.45,0-2.82.27-4.08.77-2.19.87-4,2.41-5.13,4.35-.16.28-.31.56-.44.86-.53,1.17-.82,2.46-.82,3.81,0,.05,0,.1,0,.14,0,.22.01.44.03.66,0,.03,0,.06.01.09.02.23.05.47.09.7,0,0,0,0,0,0,0,0,0,0,0,0-2.43-1.51-4.5-3.53-6.07-5.92,2.04-1.65,3.91-3.46,5.59-5.44,1.31-1.54,2.5-3.17,3.55-4.92h14.51c1.21,2.02,2.61,3.89,4.16,5.63,1.52,1.71,3.19,3.29,4.99,4.74,0,0,0,0,0,0,0,0,0,0,0,0Zm-13.63-30.18c9.52,1.35,16.85,9.53,16.85,19.42,0,3.17-.76,6.16-2.09,8.81-8.64-6.48-13.89-15.62-14.76-28.23Z"/>
  <path class="cls-1" d="m41.57,51.25h0c-1.02,0-1.99.82-2.56,2.31-.03.09,0,.19.1.22.08.03.17,0,.21-.07h0s0-.01,0-.01c.43-.94,1.24-1.38,1.7-1.38.26.01.46.23.45.48-.01.26-.23.46-.48.45-.02,0-.03,0-.04,0-.02,0-.07-.01-.09.04-.02.05-.06.27.14.5.12.13.36.24.59.24.77,0,1.39-.62,1.39-1.39s-.62-1.39-1.39-1.39Z"/>
  <path class="cls-1" d="m38.38,53.8c.09,0,.16-.07.16-.16h0c0-.86,1.21-2.43,1.21-3.03,0-.8-1.05-3.3-1.36-3.3-.02,0-.05.01-.08.04-.38.31-1.29,2.52-1.29,3.27,0,.6,1.21,2.17,1.21,3.03,0,.09.07.16.16.16Z"/>
  <path class="cls-1" d="m39.07,55.01c-.23-.14-.4-.37-.47-.63-.03-.1-.12-.18-.23-.18-.11,0-.2.07-.23.18-.07.26-.23.49-.47.63-.04.03-.05.04-.03.08.14.28.37.62.66.85.04.03.06.03.06.03s.02,0,.06-.03c.29-.23.52-.57.66-.85.02-.03.01-.05-.03-.08h0Z"/>
  <path class="cls-1" d="m37.69,53.56h0c-.57-1.49-1.54-2.31-2.56-2.31-.77,0-1.39.62-1.39,1.39s.62,1.39,1.39,1.39c.23,0,.47-.11.59-.24.2-.23.16-.45.14-.5-.02-.06-.07-.05-.09-.04-.25.04-.49-.13-.54-.38-.04-.25.13-.49.38-.54.02,0,.05,0,.07,0,.46,0,1.26.44,1.7,1.38h0s0,0,0,.01c.05.08.16.11.24.06.07-.04.1-.13.07-.21Z"/>
  <path class="cls-1" d="m21.47,58.1l-3.29,1.55.38.35,1.11-.53,1.12.95-.36,1.18.42.32,1.01-3.47-.4-.34Zm-.53,1.82l-.79-.67,1.13-.54-.35,1.21Z"/>
  <path class="cls-1" d="m17.86,56.44l-.31-.42c-.25-.33-.24-.55-.18-.67.05-.1.14-.18.26-.19.02,0,.04,0,.05,0,.56,0,1.36.94,1.57,1.66v.02s.02,0,.02,0l.34-.19h0s0-.02,0-.02c-.27-1-1.29-1.99-2.06-1.99-.16,0-.33.05-.46.15-.15.11-.25.27-.27.45-.04.3.07.67.32.99l.35.47c.27.36.53.74.48,1.04-.02.12-.09.23-.2.29-.06.04-.14.06-.21.06-.48,0-1.28-.85-1.68-2.06v-.02s-.35.33-.35.33h0s0,.01,0,.01c.08.3.28.8.63,1.26.37.49.78.83,1.17.95.13.04.25.06.37.06.16,0,.31-.04.44-.13.18-.12.3-.31.33-.53.06-.39-.15-.9-.61-1.52Z"/>
  <polygon class="cls-1" points="51.06 61.08 50.99 63.41 49.06 62.1 48.64 62.31 50.07 65.27 50.5 65.08 49.51 62.98 49.51 62.97 51.43 64.27 51.5 61.96 51.51 61.96 52.63 64 53.04 63.77 51.48 60.86 51.06 61.08"/>
  <polygon class="cls-1" points="58.36 54.98 60.22 56.65 60.22 56.66 57.05 56.44 56.73 56.79 59.19 59 59.52 58.66 57.64 56.97 57.64 56.96 60.84 57.18 61.13 56.83 58.68 54.63 58.36 54.98"/>
  <path class="cls-1" d="m47.83,63.69c-.19-.64-.75-.75-1.26-.6l-1.86.56.95,3.15.45-.13-.39-1.32,1.17-.35,1.02,1.12.5-.18-1.03-1.11c.26-.1.65-.45.45-1.14Zm-.84.78l-1.4.42-.28-.93,1.4-.42c.26-.08.56-.07.67.28.09.31-.05.54-.39.64Z"/>
  <polygon class="cls-1" points="41.79 67.02 41.65 66.02 42.75 65.86 42.69 65.4 41.58 65.55 41.46 64.7 43.65 64.38 43.59 63.92 40.92 64.3 41.39 67.55 44.13 67.16 44.07 66.69 41.79 67.02"/>
  <path class="cls-1" d="m53.26,59.67l.69,3.54.42-.27-.23-1.19,1.2-.85,1.02.62.41-.33-3.08-1.82-.43.3Zm1.63.97l-.84.6-.24-1.23,1.09.63Z"/>
  <polygon class="cls-1" points="55.4 58.05 57.64 60.46 57.99 60.15 55.75 57.73 55.4 58.05"/>
  <path class="cls-1" d="m38.45,66.38l1.03.02v.37c0,.28-.42.54-.99.53-.83-.02-1.33-.6-1.32-1.25,0-.69.52-1.25,1.4-1.24.6.01.85.32,1,.48l.33-.33c-.19-.19-.59-.61-1.38-.62-1.05-.02-1.82.74-1.83,1.68-.02,1.12.89,1.73,1.76,1.75.83.01,1.48-.37,1.49-.96v-.87s-1.49-.02-1.49-.02v.47Z"/>
  <polygon class="cls-1" points="26.12 64.14 26.12 64.14 25.55 61.02 25.13 60.8 23.59 63.72 24 63.96 25.18 61.71 25.19 61.72 25.76 64.88 26.18 65.06 27.71 62.15 27.29 61.93 26.12 64.14"/>
  <polygon class="cls-1" points="23.71 59.84 21.86 62.63 22.26 62.89 24.1 60.1 23.71 59.84"/>
  <polygon class="cls-1" points="28.45 62.98 29.54 63.36 28.6 66.04 29.05 66.2 29.99 63.52 31.08 63.9 31.23 63.45 28.61 62.53 28.45 62.98"/>
  <rect class="cls-1" x="33.29" y="65.08" width=".48" height="1.2" transform="translate(-37.81 84.33) rotate(-77.6)"/>
</svg>