<?xml version="1.0" encoding="utf-8"?>
<!-- Generator: Adobe Illustrator 27.2.0, SVG Export Plug-In . SVG Version: 6.00 Build 0)  -->
<svg version="1.1" id="Capa_1" xmlns="http://www.w3.org/2000/svg" xmlns:xlink="http://www.w3.org/1999/xlink" x="0px" y="0px"
	 viewBox="0 0 142.9 199.5" style="enable-background:new 0 0 142.9 199.5;" xml:space="preserve">
<style type="text/css">
	.st0{fill:#00529F;}
	.st1{fill:#EE324E;}
	.st2{fill:#FFFFFF;}
	.st3{fill:#FEBE10;}
</style>
<path class="st0" d="M-149.4-61.9c0.4-0.6,0.7-1.3,0.7-2c0-0.2,0-0.4-0.1-0.6c-0.1-0.8-0.6-1.5-1.2-1.9c0.2-0.4,0.3-0.9,0.3-1.4
	c0-1.4-0.9-2.6-2.1-3.1c0.6-0.6,0.9-1.4,0.9-2.2c0-1.6-1.1-2.9-2.6-3.3c0.2-0.5,0.4-0.9,0.4-1.4c0-1.9-1.5-3.4-3.4-3.4
	c-0.1,0-0.2,0-0.3,0c0.1-0.3,0.1-0.6,0.1-0.9c0-1.9-1.5-3.4-3.4-3.4c-0.3,0-0.7,0.1-1,0.2c0-1.9-1.5-3.4-3.4-3.4
	c-0.6,0-1.1,0.2-1.6,0.4c-0.5-1.3-1.7-2.3-3.1-2.3c-1,0-2,0.5-2.6,1.3c-0.6-0.5-1.4-0.9-2.2-0.9c0,0-0.1,0-0.2,0
	c0.1-0.2,0.1-0.5,0.1-0.7c0-1.9-1.5-3.4-3.4-3.4c-0.4,0-0.8,0.1-1.2,0.3c0-0.9-0.4-1.7-1-2.3c-0.6-0.6-1.5-1-2.4-1
	c-0.6,0-1.1,0.2-1.7,0.5c-0.5-1.3-1.7-2.3-3.1-2.3c-0.8,0-1.5,0.3-2.1,0.7c-0.6-1-1.7-1.6-2.8-1.6c-0.3,0-0.6,0.1-0.9,0.1
	c-0.6-0.6-1.2-1.1-2-1.3l-0.3-0.1v-1.8h2c0.2,0,0.3-0.1,0.3-0.3v-2.3c0-0.2-0.1-0.3-0.3-0.3h-2v-1.7c0-0.2-0.1-0.3-0.3-0.3
	c0,0,0,0,0,0h-2.5c-0.2,0-0.3,0.1-0.3,0.3v1.7h-2c-0.2,0-0.3,0.1-0.3,0.3c0,0,0,0,0,0v2.3c0,0.2,0.1,0.3,0.3,0.3h2v1.8l-0.3,0.1
	c-0.8,0.3-1.4,0.8-2,1.3c-0.3-0.1-0.6-0.1-0.9-0.1c-1.2,0-2.2,0.6-2.8,1.6c-0.6-0.5-1.3-0.7-2.1-0.7c-1.4,0-2.7,0.9-3.1,2.3
	c-0.5-0.3-1.1-0.5-1.7-0.5c-1.8,0-3.3,1.5-3.4,3.3c-0.4-0.2-0.8-0.3-1.2-0.3c-1.9,0-3.4,1.5-3.4,3.4c0,0.2,0,0.5,0.1,0.7l-0.2,0
	c-0.8,0-1.6,0.3-2.2,0.9c-0.6-0.8-1.6-1.3-2.6-1.3c-1.4,0-2.7,0.9-3.1,2.3c-0.5-0.3-1-0.4-1.6-0.4c-1.9,0-3.4,1.5-3.4,3.4
	c-0.3-0.1-0.7-0.2-1-0.2c-1.9,0-3.4,1.5-3.4,3.4c0,0.3,0.1,0.6,0.1,0.9c-0.1,0-0.2,0-0.3,0c-1.9,0-3.4,1.5-3.4,3.4
	c0,0.5,0.1,1,0.4,1.4c-1.5,0.3-2.6,1.7-2.6,3.3c0,0.8,0.3,1.6,0.9,2.2c-1.3,0.5-2.1,1.7-2.1,3.1c0,0.5,0.1,1,0.3,1.4
	c-0.6,0.5-1,1.1-1.2,1.9c0,0.2-0.1,0.4-0.1,0.6c0,0.7,0.3,1.4,0.7,2c-0.4,0.5-0.7,1-0.7,1.7l0,0.1c0,1.3,0.9,2.6,1.7,3.2
	c1.5,1.2,3.2,1.3,4.6,0.5c1.3,0.9,3,1.3,4.6,1c0,0.1-0.1,0.2-0.1,0.3c0,0.3,0.1,0.6,0.2,0.9c0.2,0.5,0.6,0.9,1.2,1.1
	c0.3,0.1,0.7,0.1,1,0.1c0,0.1-0.1,0.1-0.1,0.2c-0.1,0.3-0.1,0.6,0.1,0.9c0.1,0.3,0.3,0.5,0.6,0.6c0.1,0,0.1,0,0.2,0l-0.5,1.9
	c0,0.1,0,0.2,0.1,0.2l1.9,1.1c-0.2,0.2-0.3,0.5-0.3,0.7c0,0.2,0,0.3,0.1,0.5c0.3,0.6,1,0.9,1.5,0.6c9.7-4.6,20.1-6.9,30.9-6.9
	c10.8,0,21.3,2.3,30.9,6.9c0.6,0.3,1.2,0,1.5-0.6c0.1-0.2,0.1-0.3,0.1-0.5c0-0.3-0.1-0.5-0.3-0.7l1.9-1.1c0.1,0,0.1-0.1,0.1-0.2
	l-0.5-1.9c0.4,0,0.7-0.2,0.8-0.6c0.1-0.2,0.1-0.3,0.1-0.5c0-0.1,0-0.2-0.1-0.4c0-0.1-0.1-0.2-0.1-0.2c0.9,0.1,1.8-0.3,2.2-1.1
	c0.1-0.3,0.2-0.6,0.2-0.9c0-0.1-0.1-0.2-0.1-0.3c1.6,0.3,3.3,0,4.6-1c1.4,0.8,3.1,0.7,4.6-0.5c0.8-0.6,1.7-1.9,1.7-3.2l0-0.1
	C-148.7-60.9-148.9-61.5-149.4-61.9 M-226-76.7c0,0.1,0,0.1,0,0.2c-1.6,0.4-3.5,0.9-5,1.4c-1,0.4-1.9,0.9-2.7,1.5
	c1.6-3.5,4.4-6,9-8.3c0,0.8,0.3,1.5,0.9,2C-225.2-79.3-226-78.1-226-76.7 M-199-88c-0.3,0.5-0.5,1-0.5,1.6c0,0.6,0.2,1.1,0.5,1.6
	v1.5c-5.4-0.8-12.2-0.3-17.6,2.5c2.6-6.4,8.5-11.5,17.1-11c0,0.6,0.2,1.1,0.5,1.6V-88z M-194-83.4v-1.5c0.3-0.5,0.5-1,0.5-1.6
	c0-0.6-0.2-1.1-0.5-1.6v-2.3c0.3-0.5,0.5-1,0.5-1.6c8.6-0.5,14.6,4.6,17.1,11C-181.7-83.7-188.6-84.2-194-83.4 M-161.9-75
	c-1.5-0.6-3.4-1.1-5-1.4c0-0.1,0-0.1,0-0.2c0-1.4-0.9-2.6-2.1-3.1c0.5-0.6,0.8-1.3,0.9-2c4.6,2.4,7.3,4.8,9,8.3
	C-160-74.2-161-74.7-161.9-75"/>
<path class="st1" d="M-158.2-58.5c-0.5,0-1-0.1-1.4-0.3c-0.9-0.5-1.4-1.4-1.4-2.3c0-0.1,0-0.1,0-0.2c0.3-0.4,0.5-0.8,0.7-1.3
	c0.2-0.9,0.1-1.8-0.4-2.6c-0.5-0.8-1.2-1.3-2.1-1.6c-1.8-0.5-3.7,0.6-4.1,2.4l-0.1,0.6c-0.7,0.8-1.7,1.2-2.7,0.9
	c-1.1-0.3-1.9-1.3-2-2.4c2.4,0.5,3.9-0.4,4.5-2.8c0.1-0.5,0.2-0.9,0.2-1.4c0-1.3-0.6-2.2-1.8-2.8c0,0,0-0.1,0-0.1
	c0-0.5-0.1-0.9-0.2-1.3c1-0.4,1.8-1.3,2-2.4c1.6,0.4,3.4,0.8,4.9,1.4c1.2,0.5,2.3,1.1,3.3,2c0.8,2.1,1.3,4.5,1.5,7.4
	c-0.8,0.4-1.5,1.1-2,2.4c-0.2,0.6-0.4,1.2-0.4,1.7C-159.6-60-159.1-59.2-158.2-58.5 M-177.4-66.7c-0.6,1-1.8,1.5-2.9,1.2
	c-1.1-0.3-1.9-1.3-2-2.5c0.3-0.5,0.4-1,0.4-1.6c0-1.9-1.5-3.4-3.4-3.4c-1.9,0-3.4,1.5-3.4,3.4c0,0.3,0.1,0.6,0.1,0.8
	c-0.4,1.1-1.4,1.9-2.5,1.9c-1.2,0-2.2-0.8-2.5-1.9c2.4-0.2,3.6-1.4,3.6-3.8c0-2.1-0.9-3.3-2.6-3.7c-0.3-1.2-1-2-2.1-2.4
	c0.7-0.6,1.1-1.4,1.1-2.3c0-0.6-0.2-1.1-0.5-1.6V-83c5.4-0.8,12.5-0.3,17.8,2.7c0.5,1.5,0.9,3,1.1,4.5c-0.6,0.3-1.1,0.8-1.5,1.5
	c-1.8,0-2.9,0.9-3.4,2.9c-0.1,0.5-0.2,0.9-0.2,1.4C-180.2-68.4-179.2-67.3-177.4-66.7 M-198.3-78.7c-1.1,0.4-1.8,1.2-2.1,2.4
	c-1.8,0.4-2.6,1.6-2.6,3.7c0,2.4,1.2,3.7,3.6,3.8c-0.3,1.1-1.3,1.9-2.5,1.9c-1.1,0-2.2-0.8-2.5-1.9c0.1-0.3,0.1-0.5,0.1-0.8
	c0-0.9-0.4-1.8-1-2.4c-0.6-0.6-1.5-1-2.4-1c-1.9,0-3.4,1.5-3.4,3.4c0,0.5,0.1,1.1,0.4,1.6c0,1.2-0.9,2.2-2,2.5
	c-1.1,0.3-2.3-0.2-2.9-1.2c1.9-0.6,2.8-1.7,2.8-3.3c0-0.4-0.1-0.9-0.2-1.4c-0.5-2-1.6-2.9-3.4-2.9c-0.4-0.7-0.9-1.2-1.5-1.5
	c0.2-1.5,0.5-3.1,1.1-4.5c5.3-3,12.4-3.5,17.8-2.7v0.4c-0.3,0.5-0.5,1-0.5,1.6C-199.5-80.1-199-79.2-198.3-78.7 M-224.2-72.2
	c-1.2,0.6-1.8,1.6-1.8,2.8c0,0.4,0.1,0.9,0.2,1.4c0.6,2.3,2.1,3.3,4.5,2.8c-0.1,1.1-0.8,2.1-2,2.4c-1,0.3-2.1-0.1-2.7-0.9l-0.1-0.6
	c-0.5-1.8-2.3-2.9-4.1-2.4c-0.9,0.2-1.6,0.8-2.1,1.6c-0.5,0.8-0.6,1.7-0.4,2.6c0.1,0.5,0.4,0.9,0.7,1.3c0,0.1,0,0.1,0,0.2
	c0,1-0.5,1.9-1.4,2.3c-0.4,0.2-0.9,0.3-1.4,0.3c0.9-0.7,1.4-1.5,1.4-2.5c0-0.5-0.1-1.1-0.4-1.7c-0.5-1.3-1.2-2-2-2.4
	c0.2-2.9,0.7-5.4,1.5-7.4c1-0.8,2.1-1.5,3.3-2c1.5-0.6,3.3-1.1,4.9-1.4c0.2,1.1,1,2,2,2.4c-0.1,0.4-0.2,0.8-0.2,1.3
	C-224.2-72.3-224.2-72.3-224.2-72.2 M-167.3-59.8c0.7-0.2,1.3-0.5,1.9-0.9c0.3,0.2,0.6,0.4,1,0.4l0.2,0c0.2,0.7,0.4,1.3,0.8,1.9
	C-164.7-58.8-166-59.3-167.3-59.8 M-196.5-65l-1.9,0c0.9-0.7,1.5-1.6,1.9-2.6c0.4,1,1.1,1.9,1.9,2.6C-195.5-65-196.5-65-196.5-65
	 M-229.5-58.3c0.4-0.6,0.6-1.2,0.8-1.9l0.2,0c0.4-0.1,0.7-0.2,1-0.4c0.6,0.4,1.2,0.7,1.9,0.9C-226.9-59.3-228.2-58.8-229.5-58.3
	 M-219.3-61.9c0.7-0.9,1-1.9,1.2-3c0.6,0.9,1.5,1.6,2.5,2C-216.9-62.5-218.1-62.2-219.3-61.9"/>
<path class="st1" d="M-209.2-64c0.6-0.6,1.2-1.4,1.5-2.2c0.2,0,0.5-0.1,0.7-0.1c0.5,0.7,1.2,1.3,2,1.8
	C-206.4-64.4-207.8-64.2-209.2-64 M-188-64.6c0.8-0.4,1.5-1,2-1.8c0.2,0.1,0.5,0.1,0.7,0.1c0.3,0.8,0.8,1.6,1.5,2.2
	C-185.2-64.2-186.6-64.4-188-64.6 M-177.3-62.8c1-0.4,1.9-1.1,2.5-2c0.1,1.1,0.5,2.1,1.2,3C-174.9-62.2-176.1-62.5-177.3-62.8"/>
<path class="st2" d="M-202.7-96.6c0-0.8,0.7-1.5,1.5-1.5c0.8,0,1.5,0.7,1.5,1.5c0,0.8-0.7,1.5-1.5,1.5
	C-202.1-95.1-202.7-95.8-202.7-96.6 M-198-91.9c0-0.8,0.7-1.5,1.5-1.5c0.8,0,1.5,0.7,1.5,1.5c0,0.8-0.7,1.5-1.5,1.5
	C-197.3-90.4-198-91.1-198-91.9 M-198-86.5c0-0.8,0.7-1.5,1.5-1.5c0.8,0,1.5,0.7,1.5,1.5c0,0.8-0.7,1.5-1.5,1.5
	C-197.3-85-198-85.6-198-86.5 M-198-81c0-0.8,0.7-1.5,1.5-1.5c0.8,0,1.5,0.7,1.5,1.5c0,0.8-0.7,1.5-1.5,1.5
	C-197.3-79.5-198-80.2-198-81 M-207.7-95.7c0-0.4,0.2-0.8,0.4-1.1c0.3-0.3,0.7-0.4,1.1-0.4c0.8,0,1.5,0.7,1.5,1.5
	c0,0.8-0.7,1.5-1.5,1.5C-207-94.2-207.7-94.9-207.7-95.7 M-212.4-93.9c0-0.8,0.7-1.5,1.5-1.5c0.8,0,1.5,0.7,1.5,1.5
	c0,0.8-0.7,1.5-1.5,1.5C-211.8-92.4-212.4-93.1-212.4-93.9 M-217-90.9c0-0.8,0.7-1.5,1.5-1.5c0.4,0,0.8,0.2,1.1,0.4
	c0.6,0.6,0.6,1.5,0,2.1c-0.3,0.3-0.7,0.4-1.1,0.4C-216.4-89.4-217-90.1-217-90.9 M-220.6-86.8c0-0.8,0.7-1.5,1.5-1.5
	c0.8,0,1.5,0.7,1.5,1.5c0,0.8-0.7,1.5-1.5,1.5C-219.9-85.3-220.6-86-220.6-86.8 M-225.4-87.2c0-0.8,0.7-1.5,1.5-1.5
	c0.4,0,0.8,0.2,1.1,0.4c0.3,0.3,0.4,0.7,0.4,1.1c0,0.8-0.7,1.5-1.5,1.5C-224.7-85.7-225.4-86.4-225.4-87.2 M-230.1-85.4
	c0-0.8,0.7-1.5,1.5-1.5c0.8,0,1.5,0.7,1.5,1.5c0,0.8-0.7,1.5-1.5,1.5C-229.4-83.9-230.1-84.6-230.1-85.4 M-234.5-82.2
	c0-0.8,0.7-1.5,1.5-1.5c0.8,0,1.5,0.7,1.5,1.5c0,0.8-0.7,1.5-1.5,1.5C-233.8-80.7-234.5-81.4-234.5-82.2 M-238-78
	c0-0.8,0.7-1.5,1.5-1.5c0.8,0,1.5,0.7,1.5,1.5c0,0.8-0.7,1.5-1.5,1.5C-237.4-76.5-238-77.2-238-78 M-240.3-73.3
	c0-0.8,0.7-1.5,1.5-1.5c0.8,0,1.4,0.7,1.5,1.5c0,0.8-0.7,1.5-1.5,1.5C-239.6-71.8-240.3-72.5-240.3-73.3 M-241.5-67.9
	c0-0.8,0.7-1.5,1.5-1.5c0.8,0,1.5,0.7,1.5,1.5c0,0.8-0.7,1.5-1.5,1.5C-240.8-66.4-241.5-67.1-241.5-67.9 M-222.9-82.1
	c0-0.4,0.2-0.8,0.4-1.1c0.3-0.3,0.7-0.4,1.1-0.4c0.8,0,1.5,0.7,1.5,1.5c0,0.8-0.7,1.5-1.5,1.5C-222.3-80.6-222.9-81.3-222.9-82.1
	 M-224.2-76.7c0-0.8,0.7-1.5,1.5-1.5c0.8,0,1.5,0.7,1.5,1.5c0,0.8-0.7,1.5-1.5,1.5C-223.5-75.2-224.2-75.9-224.2-76.7 M-199.2-73.2
	c0-1.5,1.2-2.7,2.7-2.7c1.5,0,2.7,1.2,2.7,2.7s-1.2,2.7-2.7,2.7C-198-70.5-199.2-71.7-199.2-73.2 M-220.9-68c-0.6-0.4-1.1-1-1.2-1.7
	c-0.4-1.4,0.5-2.9,1.9-3.3c1.4-0.4,2.9,0.5,3.3,1.9c0.4,1.4-0.5,2.9-1.9,3.3C-219.6-67.5-220.3-67.6-220.9-68 M-241.8-59.6
	c-0.7-1.3-0.2-2.9,1.1-3.7c0.6-0.3,1.4-0.4,2.1-0.2c0.7,0.2,1.3,0.7,1.6,1.3v0c0.7,1.3,0.2,2.9-1.1,3.7
	C-239.4-57.8-241.1-58.3-241.8-59.6 M-193.2-96.6c0-0.4,0.2-0.8,0.4-1.1c0.3-0.3,0.7-0.4,1.1-0.4c0.8,0,1.5,0.7,1.5,1.5
	c0,0.8-0.7,1.5-1.5,1.5C-192.6-95.1-193.2-95.8-193.2-96.6 M-188.3-95.7c0-0.8,0.7-1.5,1.5-1.5c0.8,0,1.5,0.7,1.5,1.5
	c0,0.8-0.7,1.5-1.5,1.5C-187.6-94.2-188.3-94.9-188.3-95.7 M-183.5-93.9c0-0.8,0.7-1.5,1.5-1.5c0.8,0,1.5,0.7,1.5,1.5
	c0,0.8-0.7,1.5-1.5,1.5C-182.9-92.4-183.5-93.1-183.5-93.9 M-178.9-90.9c0-0.8,0.7-1.5,1.5-1.5c0.8,0,1.5,0.7,1.5,1.5
	c0,0.8-0.7,1.5-1.5,1.5C-178.3-89.4-178.9-90.1-178.9-90.9 M-175.4-86.8c0-0.8,0.7-1.5,1.5-1.5c0.4,0,0.8,0.2,1.1,0.4
	c0.3,0.3,0.4,0.7,0.4,1.1c0,0.8-0.7,1.5-1.5,1.5C-174.7-85.3-175.4-86-175.4-86.8 M-170.6-87.2c0-0.8,0.7-1.5,1.5-1.5
	c0.8,0,1.5,0.7,1.5,1.5c0,0.8-0.7,1.5-1.5,1.5C-169.9-85.7-170.6-86.4-170.6-87.2 M-165.9-85.4c0-0.8,0.7-1.5,1.5-1.5
	c0.8,0,1.5,0.7,1.5,1.5c0,0.8-0.7,1.5-1.5,1.5C-165.2-83.9-165.9-84.6-165.9-85.4 M-161.5-82.2c0-0.8,0.7-1.5,1.5-1.5
	c0.8,0,1.5,0.7,1.5,1.5c0,0.8-0.7,1.5-1.5,1.5C-160.8-80.7-161.5-81.4-161.5-82.2 M-157.9-78c0-0.8,0.7-1.5,1.5-1.5
	c0.8,0,1.5,0.7,1.5,1.5c0,0.8-0.7,1.5-1.5,1.5C-157.3-76.5-157.9-77.2-157.9-78 M-155.7-73.3c0-0.8,0.7-1.5,1.5-1.5
	c0.8,0,1.5,0.7,1.5,1.5c0,0.8-0.7,1.5-1.5,1.5C-155-71.8-155.7-72.5-155.7-73.3 M-154.5-67.9c0-0.8,0.7-1.5,1.5-1.5
	c0.8,0,1.5,0.7,1.5,1.5c0,0.8-0.7,1.5-1.5,1.5C-153.8-66.4-154.4-67.1-154.5-67.9 M-173-82.1c0-0.8,0.7-1.5,1.5-1.5
	c0.8,0,1.5,0.7,1.5,1.5c0,0.8-0.7,1.5-1.5,1.5C-172.4-80.6-173-81.3-173-82.1 M-171.8-76.7c0-0.8,0.7-1.5,1.5-1.5
	c0.8,0,1.5,0.7,1.5,1.5c0,0.8-0.7,1.5-1.5,1.5C-171.1-75.2-171.8-75.9-171.8-76.7 M-174.1-67.7c-0.7-0.2-1.3-0.6-1.6-1.2
	c-0.4-0.6-0.5-1.3-0.3-2c0.2-0.7,0.6-1.3,1.2-1.6c0.6-0.4,1.4-0.5,2-0.3c0.7,0.2,1.3,0.6,1.6,1.2c0.4,0.6,0.5,1.3,0.3,2
	c-0.2,0.7-0.6,1.3-1.2,1.7C-172.7-67.6-173.4-67.5-174.1-67.7 M-154.8-58.6c-0.6-0.3-1.1-0.9-1.3-1.6c-0.2-0.7-0.1-1.4,0.2-2l0,0
	c0.3-0.6,0.9-1.1,1.6-1.3c0.7-0.2,1.4-0.1,2.1,0.2c0.6,0.3,1.1,0.9,1.3,1.6c0.2,0.7,0.1,1.4-0.2,2.1
	C-151.9-58.3-153.5-57.8-154.8-58.6 M-207.6-56.9c0-0.4,0.2-0.8,0.4-1.1c0.3-0.3,0.7-0.4,1.1-0.4c0.8,0,1.5,0.7,1.5,1.5
	c0,0.8-0.7,1.5-1.5,1.5C-207-55.4-207.6-56.1-207.6-56.9 M-226.2-51.9c0-0.4,0.2-0.8,0.4-1.1c0.3-0.3,0.7-0.4,1.1-0.4
	c0.8,0,1.5,0.7,1.5,1.5c0,0.8-0.7,1.5-1.5,1.5C-225.5-50.4-226.2-51-226.2-51.9"/>
<path class="st1" d="M-196.5-59.2l4.8,1.8l-4.8,1.8l-4.8-1.8L-196.5-59.2z M-229.9-51.6l2,0.7l-0.6,2.3l-1.9-1.1L-229.9-51.6z"/>
<path class="st2" d="M-188.3-56.9c0-0.8,0.7-1.5,1.5-1.5c0.8,0,1.5,0.7,1.5,1.5c0,0.8-0.7,1.5-1.5,1.5
	C-187.7-55.4-188.3-56.1-188.3-56.9 M-169.8-51.9c0-0.8,0.7-1.5,1.5-1.5c0.8,0,1.5,0.7,1.5,1.5c0,0.8-0.7,1.5-1.5,1.5
	C-169.1-50.4-169.8-51-169.8-51.9"/>
<path class="st3" d="M-162.5-52.9c-10.7-5-22.1-7.6-34-7.6c-11.9,0-23.3,2.5-34,7.6c-0.1,0-0.1,0.1-0.2,0.2c0,0.1,0,0.2,0,0.4
	c0.1,0.2,0.4,0.3,0.6,0.2c0,0,0,0,0,0c0.2-0.1,0.4,0,0.4,0.2l0,0.1l2,0.7c0.1,0,0.2,0.2,0.1,0.3l-0.6,2.4l0.1,0.1
	c0.1,0.2,0,0.4-0.2,0.4c-0.3,0.1-0.4,0.4-0.3,0.7c0.1,0.2,0.4,0.4,0.7,0.3c9.8-4.6,20.3-6.9,31.2-6.9c10.9,0,21.4,2.3,31.2,6.9
	c0.3,0.1,0.5,0,0.7-0.3c0.1-0.3,0-0.6-0.3-0.7c-0.2-0.1-0.2-0.3-0.2-0.4l0.1-0.1l-0.6-2.4c0-0.1,0-0.2,0.1-0.3l2-0.7l0-0.1
	c0.1-0.2,0.3-0.2,0.4-0.2c0,0,0,0,0,0c0.2,0.1,0.5,0,0.6-0.2c0.1-0.1,0.1-0.3,0-0.4C-162.4-52.8-162.4-52.9-162.5-52.9 M-224.7-49.9
	c-1.1,0-1.9-0.9-1.9-1.9c0-0.5,0.2-1,0.6-1.4c0.4-0.4,0.9-0.6,1.4-0.6c1.1,0,1.9,0.9,1.9,1.9C-222.8-50.8-223.6-49.9-224.7-49.9
	 M-210.1-56.2l-4.7,3.3c0,0-0.1,0-0.1,0l-5.8-0.6c-0.1,0-0.2-0.1-0.2-0.2c0-0.1,0-0.1,0.1-0.2l4.7-3.3c0,0,0.1,0,0.1,0l5.8,0.6
	c0.1,0,0.2,0.1,0.2,0.2C-210.1-56.2-210.1-56.2-210.1-56.2 M-206.1-55c-1.1,0-1.9-0.9-1.9-1.9c0-0.5,0.2-1,0.6-1.4
	c0.4-0.4,0.9-0.6,1.4-0.6c1.1,0,1.9,0.9,1.9,1.9C-204.2-55.8-205.1-55-206.1-55 M-191-57.2l-5.4,2c0,0-0.1,0-0.2,0l-5.4-2
	c-0.1,0-0.2-0.2-0.1-0.3c0-0.1,0.1-0.1,0.1-0.1l5.4-2c0,0,0.1,0,0.2,0l5.4,2c0.1,0,0.2,0.2,0.1,0.3C-190.9-57.2-190.9-57.2-191-57.2
	 M-186.8-55c-1.1,0-1.9-0.9-1.9-1.9c0-1.1,0.9-1.9,1.9-1.9c1.1,0,1.9,0.9,1.9,1.9C-184.9-55.8-185.8-55-186.8-55 M-172.2-53.4
	l-5.8,0.6c-0.1,0-0.1,0-0.1,0l-4.7-3.3c-0.1-0.1-0.1-0.2-0.1-0.3c0-0.1,0.1-0.1,0.2-0.1l5.8-0.6c0.1,0,0.1,0,0.1,0l4.7,3.3
	c0.1,0.1,0.1,0.2,0.1,0.3C-172-53.5-172.1-53.4-172.2-53.4 M-168.3-49.9c-1.1,0-1.9-0.9-1.9-1.9s0.9-1.9,1.9-1.9
	c1.1,0,1.9,0.9,1.9,1.9C-166.3-50.8-167.2-49.9-168.3-49.9"/>
<path class="st3" d="M-150-61.6c-0.1-0.1-0.2-0.3,0-0.5c0.6-0.7,0.8-1.6,0.6-2.4c-0.1-0.7-0.5-1.3-1.1-1.7c-0.1-0.1-0.2-0.3-0.1-0.4
	c0.2-0.4,0.4-0.9,0.4-1.4c0-1.3-0.9-2.4-2.2-2.7c-0.2,0-0.3-0.2-0.3-0.4c0-0.1,0.1-0.1,0.1-0.2c0.7-0.5,1-1.3,1-2.1
	c0-1.4-1.1-2.6-2.5-2.7c-0.2,0-0.3-0.2-0.3-0.4c0-0.1,0-0.1,0.1-0.1c0.3-0.4,0.5-1,0.5-1.5c0-1.5-1.2-2.7-2.7-2.7
	c-0.2,0-0.5,0-0.7,0.1c-0.2,0-0.4-0.1-0.4-0.2c0-0.1,0-0.2,0-0.2c0.2-0.4,0.2-0.7,0.2-1.1c0-1.5-1.2-2.7-2.7-2.7
	c-0.4,0-0.9,0.1-1.2,0.3c-0.1,0.1-0.2,0-0.3,0c-0.1-0.1-0.2-0.2-0.1-0.3l0-0.4c0-1.5-1.2-2.7-2.7-2.7c-0.6,0-1.1,0.2-1.5,0.5
	c-0.1,0.1-0.4,0.1-0.5-0.1c0,0,0-0.1-0.1-0.1c-0.3-1.2-1.4-2.1-2.7-2.1c-0.9,0-1.8,0.5-2.3,1.3c-0.1,0.2-0.3,0.2-0.5,0.1
	c0,0,0,0-0.1-0.1c-0.5-0.6-1.2-0.9-2-0.9l-0.6,0.1c-0.1,0-0.2,0-0.3-0.1c-0.1-0.1-0.1-0.2-0.1-0.3c0.1-0.3,0.2-0.6,0.2-1
	c0-1.5-1.2-2.7-2.7-2.7c-0.5,0-1,0.1-1.4,0.4c-0.1,0.1-0.2,0.1-0.3,0c-0.1-0.1-0.2-0.2-0.2-0.3l0-0.4c0-0.7-0.3-1.4-0.8-1.9
	c-0.5-0.5-1.2-0.8-1.9-0.8c-0.6,0-1.2,0.2-1.6,0.5c-0.1,0.1-0.4,0.1-0.5-0.1c0,0,0-0.1-0.1-0.1c-0.3-1.2-1.4-2.1-2.6-2.1
	c-0.7,0-1.4,0.3-1.9,0.8c-0.1,0.1-0.3,0.1-0.5,0c0,0,0-0.1-0.1-0.1c-0.4-1-1.4-1.6-2.5-1.6c-0.3,0-0.6,0.1-0.9,0.1
	c-0.1,0-0.3,0-0.4-0.1c-0.5-0.6-1.1-1-1.9-1.3l-0.5-0.2c-0.1,0-0.2-0.2-0.2-0.3v-2.3c0-0.2,0.1-0.3,0.3-0.3h2v-1.7h-2
	c-0.2,0-0.3-0.1-0.3-0.3v-1.7h-1.8v1.7c0,0.2-0.1,0.3-0.3,0.3c0,0,0,0,0,0h-2v1.7h2c0.2,0,0.3,0.1,0.3,0.3v2.3
	c0,0.1-0.1,0.3-0.2,0.3l-0.5,0.2c-0.7,0.3-1.4,0.7-1.9,1.3c-0.1,0.1-0.2,0.1-0.4,0.1c-0.3-0.1-0.6-0.1-0.9-0.1c-1.1,0-2,0.6-2.5,1.6
	c-0.1,0.2-0.3,0.2-0.4,0.2c0,0-0.1,0-0.1-0.1c-0.5-0.5-1.2-0.8-1.9-0.8c-1.3,0-2.4,0.9-2.6,2.1c0,0.2-0.2,0.3-0.4,0.2
	c0,0-0.1,0-0.1-0.1c-0.5-0.4-1-0.5-1.6-0.5c-1.5,0-2.7,1.2-2.7,2.7l0,0.4c0,0.1,0,0.3-0.2,0.3c-0.1,0.1-0.2,0.1-0.3,0
	c-0.4-0.3-0.9-0.4-1.4-0.4c-1.5,0-2.7,1.2-2.7,2.7c0,0.3,0.1,0.7,0.2,1c0,0.1,0,0.2-0.1,0.3c-0.1,0.1-0.2,0.1-0.3,0.1l-0.6-0.1
	c-0.8,0-1.5,0.3-2,0.9c-0.1,0.1-0.3,0.1-0.5,0c0,0,0,0-0.1-0.1c-0.5-0.8-1.4-1.3-2.3-1.3c-1.3,0-2.4,0.9-2.6,2.1
	c0,0.2-0.2,0.3-0.4,0.3c0,0-0.1,0-0.1-0.1c-0.5-0.3-1-0.5-1.6-0.5c-1.5,0-2.7,1.2-2.7,2.7l0,0.4c0,0.1,0,0.2-0.1,0.3
	c-0.1,0.1-0.2,0.1-0.3,0c-0.4-0.2-0.8-0.3-1.2-0.3c-1.5,0-2.7,1.2-2.7,2.7c0,0.4,0.1,0.8,0.2,1.1c0.1,0.2,0,0.4-0.2,0.4
	c-0.1,0-0.1,0-0.2,0c-0.2-0.1-0.5-0.1-0.7-0.1c-1.5,0-2.7,1.2-2.7,2.7c0,0.5,0.2,1.1,0.5,1.5c0.1,0.2,0.1,0.4-0.1,0.5
	c0,0-0.1,0-0.2,0.1c-1.4,0.1-2.5,1.3-2.5,2.7c0,0.8,0.4,1.6,1,2.1c0.1,0.1,0.2,0.3,0.1,0.5c0,0.1-0.1,0.1-0.2,0.1
	c-1.2,0.3-2.2,1.4-2.2,2.7c0,0.5,0.1,1,0.4,1.4c0.1,0.2,0,0.3-0.1,0.4c-0.6,0.4-1,1-1.1,1.7c-0.1,0.8,0.1,1.6,0.6,2.4
	c0.1,0.1,0.1,0.3,0,0.5c-0.4,0.4-0.7,0.9-0.7,1.5c0,1.1,0.7,2.2,1.5,2.7c0.8,0.6,2.4,1.5,4,0.4c0.1-0.1,0.3-0.1,0.4,0
	c1.3,1,3.1,1.3,4.7,0.8c0.2-0.1,0.4,0,0.4,0.2c0,0.1,0,0.2,0,0.2c-0.2,0.4-0.2,0.8,0,1.2c0.2,0.4,0.4,0.6,0.8,0.7
	c0.3,0.1,0.7,0.1,1-0.1c10.8-5.1,22.4-7.7,34.4-7.7c12,0,23.6,2.6,34.4,7.7c0.7,0.3,1.5,0,1.8-0.7c0.2-0.4,0.2-0.8,0-1.2
	c-0.1-0.2,0-0.4,0.2-0.4c0.1,0,0.2,0,0.2,0c1.6,0.5,3.4,0.2,4.7-0.8c0.1-0.1,0.3-0.1,0.4,0c1.6,1.1,3.2,0.2,4-0.4
	c0.7-0.6,1.4-1.7,1.5-2.7C-149.3-60.8-149.5-61.3-150-61.6 M-151-67.9c0,1.1-0.9,1.9-1.9,1.9c-1.1,0-1.9-0.9-1.9-1.9
	c0-1.1,0.9-1.9,1.9-1.9C-151.9-69.9-151-69-151-67.9 M-154.2-75.2c1.1,0,1.9,0.9,1.9,1.9c0,1.1-0.9,1.9-1.9,1.9
	c-1.1,0-1.9-0.9-1.9-1.9C-156.1-74.4-155.3-75.2-154.2-75.2 M-156.4-79.9c1.1,0,1.9,0.9,1.9,1.9c0,1.1-0.9,1.9-1.9,1.9
	c-1.1,0-1.9-0.9-1.9-1.9C-158.4-79.1-157.5-79.9-156.4-79.9 M-156.3-62.4L-156.3-62.4L-156.3-62.4z M-160-84.1
	c1.1,0,1.9,0.9,1.9,1.9c0,1.1-0.9,1.9-1.9,1.9c-1.1,0-1.9-0.9-1.9-1.9C-161.9-83.3-161.1-84.1-160-84.1 M-164.4-87.3
	c1.1,0,1.9,0.9,1.9,1.9c0,1.1-0.9,1.9-1.9,1.9c-1.1,0-1.9-0.9-1.9-1.9C-166.3-86.5-165.5-87.3-164.4-87.3 M-169.1-89.2
	c1.1,0,1.9,0.9,1.9,1.9c0,1.1-0.9,1.9-1.9,1.9c-1.1,0-1.9-0.9-1.9-1.9C-171-88.3-170.2-89.2-169.1-89.2 M-171.5-84
	c1.1,0,1.9,0.9,1.9,1.9c0,1.1-0.9,1.9-1.9,1.9c-1.1,0-1.9-0.9-1.9-1.9C-173.5-83.2-172.6-84-171.5-84 M-175-73
	c0.7-0.4,1.6-0.5,2.4-0.3c0.8,0.2,1.5,0.7,1.9,1.4c0.4,0.7,0.5,1.6,0.3,2.4c-0.2,0.8-0.7,1.5-1.4,1.9c-0.7,0.4-1.6,0.5-2.4,0.3
	c-0.8-0.2-1.5-0.7-1.9-1.4c-0.4-0.7-0.5-1.6-0.3-2.4C-176.3-71.9-175.7-72.6-175-73 M-170.3-74.8c-1.1,0-1.9-0.9-1.9-1.9
	c0-1.1,0.9-1.9,1.9-1.9c1.1,0,1.9,0.9,1.9,1.9C-168.4-75.6-169.2-74.8-170.3-74.8 M-173.9-88.8c0.5,0,1,0.2,1.4,0.6
	c0.4,0.4,0.6,0.9,0.6,1.4c0,1.1-0.9,1.9-1.9,1.9c-1.1,0-1.9-0.9-1.9-1.9C-175.8-87.9-175-88.8-173.9-88.8 M-177.4-92.8
	c1.1,0,1.9,0.9,1.9,1.9c0,1.1-0.9,1.9-1.9,1.9c-1.1,0-1.9-0.9-1.9-1.9C-179.4-91.9-178.5-92.8-177.4-92.8 M-182-95.9
	c1.1,0,1.9,0.9,1.9,1.9c0,1.1-0.9,1.9-1.9,1.9c-1.1,0-1.9-0.9-1.9-1.9C-184-95-183.1-95.9-182-95.9 M-186.8-97.7
	c1.1,0,1.9,0.9,1.9,1.9c0,1.1-0.9,1.9-1.9,1.9c-1.1,0-1.9-0.9-1.9-1.9C-188.8-96.8-187.9-97.7-186.8-97.7 M-193.1-97.9
	c0.4-0.4,0.9-0.6,1.4-0.6c1.1,0,1.9,0.9,1.9,1.9c0,1.1-0.9,1.9-1.9,1.9c-1.1,0-1.9-0.9-1.9-1.9C-193.7-97.1-193.5-97.6-193.1-97.9
	 M-196.5-93.8c1.1,0,1.9,0.9,1.9,1.9c0,1.1-0.9,1.9-1.9,1.9c-1.1,0-1.9-0.9-1.9-1.9C-198.4-93-197.6-93.8-196.5-93.8 M-198.4-81
	c0-1.1,0.9-1.9,1.9-1.9c1.1,0,1.9,0.9,1.9,1.9c0,1.1-0.9,1.9-1.9,1.9C-197.6-79.1-198.4-79.9-198.4-81 M-193.4-73.2
	c0,1.7-1.4,3.1-3.1,3.1c-1.7,0-3.1-1.4-3.1-3.1c0-1.7,1.4-3.1,3.1-3.1C-194.8-76.4-193.4-74.9-193.4-73.2 M-196.5-84.5
	c-1.1,0-1.9-0.9-1.9-1.9c0-1.1,0.9-1.9,1.9-1.9c1.1,0,1.9,0.9,1.9,1.9C-194.5-85.4-195.4-84.5-196.5-84.5 M-201.2-98.5
	c1.1,0,1.9,0.9,1.9,1.9c0,1.1-0.9,1.9-1.9,1.9c-1.1,0-1.9-0.9-1.9-1.9C-203.2-97.6-202.3-98.5-201.2-98.5 M-207.5-97.1
	c0.4-0.4,0.9-0.6,1.4-0.6c1.1,0,1.9,0.9,1.9,1.9c0,1.1-0.9,1.9-1.9,1.9c-1.1,0-1.9-0.9-1.9-1.9C-208.1-96.2-207.9-96.7-207.5-97.1
	 M-210.9-95.9c1.1,0,1.9,0.9,1.9,1.9c0,1.1-0.9,1.9-1.9,1.9c-1.1,0-1.9-0.9-1.9-1.9C-212.9-95-212-95.9-210.9-95.9 M-215.5-92.8
	c0.5,0,1,0.2,1.4,0.6c0.8,0.8,0.8,2,0,2.7c-0.4,0.4-0.9,0.6-1.4,0.6c-1.1,0-1.9-0.9-1.9-1.9C-217.5-91.9-216.6-92.8-215.5-92.8
	 M-219.1-88.8c1.1,0,1.9,0.9,1.9,1.9c0,1.1-0.9,1.9-1.9,1.9c-1.1,0-1.9-0.9-1.9-1.9C-221-87.9-220.1-88.8-219.1-88.8 M-220.3-73.3
	c1.7-0.4,3.4,0.6,3.8,2.3c0.4,1.7-0.6,3.4-2.3,3.8c-0.8,0.2-1.7,0.1-2.4-0.3c-0.7-0.4-1.2-1.1-1.4-1.9
	C-223-71.2-222-72.9-220.3-73.3 M-224.6-76.7c0-1.1,0.9-1.9,1.9-1.9c1.1,0,1.9,0.9,1.9,1.9c0,1.1-0.9,1.9-1.9,1.9
	C-223.7-74.8-224.6-75.7-224.6-76.7 M-221.4-84c1.1,0,1.9,0.9,1.9,1.9c0,1.1-0.9,1.9-1.9,1.9c-1.1,0-1.9-0.9-1.9-1.9
	c0-0.5,0.2-1,0.6-1.4C-222.4-83.8-221.9-84-221.4-84 M-223.9-89.2c0.5,0,1,0.2,1.4,0.6c0.4,0.4,0.6,0.9,0.6,1.4
	c0,1.1-0.9,1.9-1.9,1.9c-1.1,0-1.9-0.9-1.9-1.9C-225.8-88.3-224.9-89.2-223.9-89.2 M-228.6-87.3c1.1,0,1.9,0.9,1.9,1.9
	c0,1.1-0.9,1.9-1.9,1.9c-1.1,0-1.9-0.9-1.9-1.9C-230.5-86.5-229.7-87.3-228.6-87.3 M-233-84.1c1.1,0,1.9,0.9,1.9,1.9
	c0,1.1-0.9,1.9-1.9,1.9c-1.1,0-1.9-0.9-1.9-1.9C-234.9-83.3-234-84.1-233-84.1 M-236.5-79.9c1.1,0,1.9,0.9,1.9,1.9
	c0,1.1-0.9,1.9-1.9,1.9c-1.1,0-1.9-0.9-1.9-1.9C-238.5-79.1-237.6-79.9-236.5-79.9 M-240.7-73.3c0-1.1,0.9-1.9,1.9-1.9
	c1.1,0,1.9,0.9,1.9,1.9c0,1.1-0.9,1.9-1.9,1.9C-239.8-71.4-240.7-72.2-240.7-73.3 M-240-69.9c1.1,0,1.9,0.9,1.9,1.9
	c0,1.1-0.9,1.9-1.9,1.9c-1.1,0-1.9-0.9-1.9-1.9C-242-69-241.1-69.9-240-69.9 M-237.9-58.2c-1.5,0.8-3.4,0.3-4.3-1.2
	c-0.8-1.5-0.3-3.4,1.2-4.3c0.7-0.4,1.6-0.5,2.4-0.3c0.8,0.2,1.5,0.8,1.9,1.5C-235.9-60.9-236.4-59-237.9-58.2 M-224.3-59.6
	c-2.1,0.7-4.1,1.5-6.1,2.4c-0.2,0.1-0.4,0-0.4-0.2c-0.1-0.1,0-0.3,0.1-0.4c0.7-0.8,1.2-1.8,1.4-2.8c0-0.1,0.1-0.2,0.3-0.3l0.4-0.1
	c0.3-0.1,0.7-0.2,1-0.5c0.1-0.1,0.3-0.1,0.4,0c0.8,0.6,1.9,1,3,1.1c0.2,0,0.3,0.2,0.3,0.3C-224.1-59.8-224.2-59.6-224.3-59.6
	 M-223.1-62.2c-1.3,0.3-2.7-0.1-3.5-1.2c0,0-0.1-0.1-0.1-0.2l-0.1-0.6c-0.4-1.5-1.9-2.3-3.3-2c-0.7,0.2-1.3,0.6-1.7,1.3
	c-0.4,0.6-0.5,1.4-0.3,2.1c0.1,0.4,0.3,0.8,0.6,1.1c0,0.1,0.1,0.1,0.1,0.2c0.1,1.3-0.5,2.6-1.7,3.2c-0.8,0.5-1.8,0.5-2.7,0.2
	c-0.2-0.1-0.3-0.3-0.2-0.4c0-0.1,0.1-0.1,0.2-0.2c1.7-0.9,2.2-2.1,1.5-3.9c-0.5-1.2-1.1-1.9-1.8-2.1c-0.1,0-0.2-0.2-0.2-0.3
	c0.7-9.2,3.6-13.5,11.8-17.7c0.1-0.1,0.2-0.1,0.3,0c0.1,0.1,0.2,0.2,0.2,0.3l0,0.3c0,0.8,0.4,1.6,1,2.1c0.1,0.1,0.2,0.3,0.1,0.5
	c0,0.1-0.1,0.1-0.2,0.1c-1.3,0.3-2.2,1.4-2.2,2.7c0,1.2,0.8,2.3,1.9,2.6c0.2,0.1,0.3,0.2,0.2,0.4c0,0,0,0,0,0.1
	c-0.2,0.4-0.3,1-0.3,1.6c0,0.1-0.1,0.3-0.2,0.3c-1.4,0.7-1.9,1.8-1.4,3.5c0.5,2.1,1.8,2.8,4.1,2.2c0.2,0,0.4,0.1,0.4,0.2
	c0,0,0,0,0,0C-220.5-64.1-221.5-62.6-223.1-62.2 M-214.4-62.4c-2,0.4-3.9,0.9-5.9,1.5c-0.2,0.1-0.4,0-0.4-0.2c0-0.1,0-0.3,0.1-0.3
	c1.3-1.1,2-2.8,1.8-4.5c0-0.2,0.1-0.3,0.3-0.4c0.1,0,0.3,0.1,0.3,0.2c0.7,1.6,2.1,2.7,3.7,3.1c0.2,0,0.3,0.2,0.3,0.4
	C-214.2-62.5-214.3-62.4-214.4-62.4 M-203.7-64c-2.2,0.2-4.4,0.5-6.5,0.8c-0.2,0-0.3-0.1-0.4-0.3c0-0.1,0-0.3,0.1-0.3
	c1.1-0.7,1.9-1.7,2.3-2.8c0-0.1,0.2-0.2,0.3-0.2l0.2,0c0.3,0,0.5,0,0.8-0.1c0.1,0,0.3,0,0.4,0.1c0.7,1,1.7,1.8,2.9,2.2
	c0.2,0.1,0.3,0.2,0.2,0.4C-203.5-64.1-203.6-64-203.7-64 M-205.1-68.6c0-0.1,0-0.1,0-0.2c0.1-0.3,0.1-0.5,0.1-0.8
	c0-0.7-0.3-1.4-0.8-1.9c-0.5-0.5-1.2-0.8-1.9-0.8c-1.5,0-2.7,1.2-2.7,2.7c0,0.5,0.1,0.9,0.4,1.4c0,0.1,0,0.1,0,0.2
	c0,1.5-1.1,2.8-2.5,3.1c-1.6,0.4-3.2-0.4-3.9-1.9c-0.1-0.2,0-0.4,0.2-0.4c0,0,0,0,0,0c2.3-0.6,3.1-1.8,2.5-3.9
	c-0.5-1.8-1.4-2.5-3-2.4c-0.1,0-0.3-0.1-0.3-0.2c-0.4-0.8-0.8-1.2-1.5-1.5c-0.1-0.1-0.2-0.2-0.2-0.3c0.9-9.1,7.9-17.8,19.5-16.9
	c0.2,0,0.3,0.2,0.3,0.4l0,0.3c0,0.5,0.1,0.9,0.4,1.3c0,0.1,0.1,0.1,0.1,0.2v2.5c0,0.1,0,0.1-0.1,0.2c-0.5,0.8-0.5,1.8,0,2.6
	c0,0.1,0.1,0.1,0.1,0.2v2.5c0,0.1,0,0.1-0.1,0.2c-0.3,0.4-0.4,0.8-0.4,1.3c0,0.9,0.5,1.8,1.4,2.1c0.2,0.1,0.2,0.3,0.2,0.4
	c0,0.1-0.1,0.2-0.2,0.2c-1.4,0.2-2.1,1-2.4,2.3c0,0.1-0.1,0.2-0.3,0.3c-1.6,0.3-2.3,1.3-2.3,3.1c0,2.2,1.1,3.2,3.4,3.2
	c0.2,0,0.3,0.1,0.3,0.3c0,0,0,0,0,0.1c-0.3,1.6-1.6,2.8-3.3,2.8C-203.4-66.3-204.7-67.2-205.1-68.6 M-193.1-64.5
	c0,0.2-0.2,0.3-0.3,0.3l-3.1-0.1l-3.1,0.1c-0.2,0-0.3-0.1-0.3-0.3c0-0.1,0-0.3,0.2-0.4c1.6-0.7,2.6-2.2,2.9-3.9
	c0-0.2,0.2-0.3,0.4-0.3c0.1,0,0.3,0.1,0.3,0.3c0.2,1.7,1.3,3.2,2.9,3.9C-193.1-64.8-193.1-64.7-193.1-64.5 M-182.4-63.4
	c-0.1,0.1-0.2,0.2-0.4,0.2c-2.2-0.4-4.4-0.6-6.5-0.8c-0.2,0-0.3-0.2-0.3-0.4c0-0.1,0.1-0.2,0.2-0.3c1.2-0.4,2.2-1.2,2.9-2.2
	c0.1-0.1,0.2-0.2,0.4-0.1c0.3,0.1,0.5,0.1,0.8,0.1l0.2,0c0.1,0,0.3,0.1,0.3,0.2c0.4,1.2,1.2,2.2,2.3,2.8
	C-182.4-63.7-182.3-63.6-182.4-63.4 M-180.4-64.9c-1.4-0.4-2.5-1.7-2.5-3.1c0-0.1,0-0.1,0-0.2c0.2-0.4,0.4-0.9,0.4-1.4
	c0-1.5-1.2-2.7-2.7-2.7c-1.5,0-2.7,1.2-2.7,2.7c0,0.3,0,0.5,0.1,0.8c0,0.1,0,0.1,0,0.2c-0.4,1.4-1.7,2.4-3.2,2.4
	c-1.6,0-3-1.2-3.3-2.8c0-0.2,0.1-0.3,0.3-0.4c0,0,0,0,0.1,0c2.4,0,3.4-1,3.4-3.2c0-1.8-0.7-2.8-2.3-3.1c-0.1,0-0.2-0.1-0.3-0.3
	c-0.3-1.4-1-2.1-2.4-2.3c-0.2,0-0.3-0.2-0.3-0.4c0-0.1,0.1-0.2,0.2-0.2c0.8-0.4,1.4-1.2,1.4-2.1c0-0.5-0.1-0.9-0.4-1.3
	c0-0.1-0.1-0.1-0.1-0.2V-85c0-0.1,0-0.1,0.1-0.2c0.3-0.4,0.4-0.8,0.4-1.3c0-0.5-0.1-0.9-0.4-1.3c0-0.1-0.1-0.1-0.1-0.2v-2.5
	c0-0.1,0-0.1,0.1-0.2c0.3-0.4,0.4-0.8,0.4-1.3l0-0.3c0-0.2,0.1-0.4,0.3-0.4c11.6-0.8,18.6,7.9,19.5,16.9c0,0.1-0.1,0.3-0.2,0.3
	c-0.6,0.2-1.1,0.7-1.5,1.5c-0.1,0.1-0.2,0.2-0.3,0.2c-1.6-0.1-2.5,0.7-3,2.4c-0.5,2.1,0.2,3.3,2.5,3.9c0.2,0,0.3,0.2,0.2,0.4
	c0,0,0,0,0,0C-177.2-65.3-178.9-64.5-180.4-64.9 M-172.3-61.1c-0.1,0.1-0.2,0.2-0.4,0.2c-1.9-0.6-3.9-1.1-5.8-1.5
	c-0.2,0-0.3-0.2-0.3-0.4c0-0.1,0.1-0.2,0.3-0.3c1.7-0.3,3.1-1.5,3.7-3.1c0.1-0.2,0.3-0.2,0.4-0.2c0.1,0.1,0.2,0.2,0.2,0.3
	c-0.2,1.7,0.5,3.4,1.8,4.5C-172.3-61.4-172.3-61.2-172.3-61.1 M-162.2-57.3c-0.1,0.1-0.3,0.2-0.4,0.1c-2-0.9-4-1.7-6.1-2.4
	c-0.2-0.1-0.3-0.2-0.2-0.4c0-0.1,0.2-0.2,0.3-0.2c1.1-0.1,2.1-0.4,3-1.1c0.1-0.1,0.3-0.1,0.4,0c0.3,0.2,0.6,0.4,1,0.5l0.4,0.1
	c0.1,0,0.3,0.1,0.3,0.3c0.2,1,0.7,2,1.4,2.8C-162.1-57.6-162.1-57.4-162.2-57.3 M-156.8-64.7c-0.7,0.2-1.4,0.9-1.8,2.1
	c-0.7,1.9-0.2,3.1,1.5,3.9c0.2,0.1,0.2,0.3,0.1,0.4c0,0.1-0.1,0.1-0.2,0.2c-1.7,0.6-3.6-0.2-4.3-2c-0.2-0.5-0.2-1-0.2-1.5
	c0-0.1,0-0.1,0.1-0.2c0.3-0.3,0.5-0.7,0.6-1.1c0.2-0.7,0.1-1.4-0.3-2.1c-0.4-0.6-1-1.1-1.7-1.3c-1.5-0.4-2.9,0.5-3.3,2l-0.1,0.6
	c0,0.1,0,0.1-0.1,0.2c-0.8,1.1-2.2,1.6-3.5,1.2c-1.6-0.4-2.6-1.9-2.5-3.5c0-0.2,0.2-0.3,0.4-0.3c0,0,0,0,0.1,0
	c2.3,0.6,3.6-0.1,4.1-2.2c0.5-1.8,0-2.9-1.4-3.5c-0.1-0.1-0.2-0.2-0.2-0.3c0-0.6,0-1.1-0.3-1.6c-0.1-0.2,0-0.4,0.1-0.4
	c0,0,0,0,0.1,0c1.1-0.3,1.9-1.4,1.9-2.6c0-1.3-0.9-2.4-2.2-2.7c-0.1,0-0.2-0.1-0.3-0.2c0-0.1,0-0.3,0.1-0.3c0.7-0.5,1-1.3,1-2.1
	l0-0.3c0-0.1,0.1-0.2,0.2-0.3c0.1-0.1,0.2-0.1,0.3,0c8.2,4.1,11,8.4,11.8,17.7C-156.6-64.9-156.7-64.8-156.8-64.7 M-150.8-59.4
	c-0.8,1.5-2.7,2.1-4.3,1.2c-0.7-0.4-1.3-1.1-1.5-1.9c-0.2-0.8-0.1-1.7,0.3-2.4c0.4-0.7,1.1-1.3,1.9-1.5c0.8-0.2,1.7-0.1,2.4,0.3
	c0.7,0.4,1.3,1.1,1.5,1.9C-150.3-61-150.4-60.1-150.8-59.4"/>
<path class="st1" d="M-163.1-51.6l0.5,2l-1.9,1.1l-0.6-2.3L-163.1-51.6z"/>
<path class="st0" d="M-267.5,19.5c0,39.1,31.9,71,71,71s71-31.8,71-71c0-39.2-31.9-71.1-71-71.1C-235.7-51.6-267.5-19.7-267.5,19.5"
	/>
<path class="st3" d="M-265.5,19.5c0,19,7.7,36.3,20.2,48.8c12.5,12.5,29.8,20.2,48.8,20.2c19,0,36.3-7.7,48.8-20.2
	c12.5-12.5,20.2-29.7,20.2-48.8c0-19-7.7-36.3-20.2-48.8c-12.5-12.5-29.8-20.2-48.8-20.2c-19,0-36.3,7.7-48.8,20.2
	C-257.8-16.8-265.5,0.4-265.5,19.5"/>
<path class="st0" d="M-259.5,19.4c0-34.7,28.2-63,63-63c34.7,0,63,28.2,63,63c0,34.7-28.2,63-63,63
	C-231.2,82.4-259.5,54.2-259.5,19.4"/>
<path class="st2" d="M-257.4,19.4c0-33.6,27.3-61,61-61s61,27.3,61,61s-27.3,61-61,61C-230.1,80.4-257.4,53-257.4,19.4"/>
<path class="st0" d="M-138.1,19.2c0-21.3-11.6-40.9-30.3-51.3l-0.4-0.2l-13.6,14.1h-0.1l-0.2,0.2c-4.4-1.6-9-2.5-13.8-2.6h0
	c-4.9,0-10,0.9-14.4,2.5l-13.6-14.2l-0.4,0.2c-0.1,0.1-0.3,0.2-0.4,0.2l0,0c-10.6,6-19.2,15.3-24.4,26.5c0,0,0,0,0,0
	c-3.5,7.6-5.4,15.9-5.4,24.4c0,14,5,27,14.5,37.7l0.4,0.5l7.8-7.9l-0.4-0.4c-4.2-4-12-15.1-12-29.2c0-0.4,0-0.8,0-1.2
	c0.2-5.6,1.2-10.9,3-15.8c2.2,2.2,4.3,4.4,6.5,6.6c-0.7,2.7-1.1,5.4-1.1,8.2c0,0.2,0,0.3,0,0.5c0,17.8,12.3,33.7,29.5,38.2v10h10.8
	v-8.7c2.4-0.1,4.9-0.3,7.2-0.9c5.2,5.3,10.4,10.7,15.7,16c11.1-4.9,20.4-13,26.6-23.3l0,0C-141,40.4-138.1,29.9-138.1,19.2
	 M-206.8,44.4c-11.1-4-18.2-13.5-18.4-24.7c6.1,6.3,12.3,12.5,18.4,18.8L-206.8,44.4z M-196.6-3.1l-5.8-5.9c2-0.4,4-0.6,5.4-0.5
	c2.1,0.1,4.1,0.3,5.9,0.7C-192.2-7.8-195.9-3.8-196.6-3.1 M-155,40.9l-34.5-35.6l9-9.5c3.6,2.6,6.6,5.9,8.5,9.7l0.3,0.7l8.7-7.5
	l-0.2-0.4c-2.4-4-5.6-7.6-9.5-10.6l5.7-5.9c8.9,6.4,17.9,21,17.9,36.9C-149.1,28-151.2,34.7-155,40.9"/>
<path class="st3" d="M-168.4-29.8c-2.4,2.5-12.9,13.4-12.9,13.4l-0.3,0.3h-0.1l-0.1,0.1l-0.4,0.4l-0.5-0.2l-0.4-0.1
	c-4.2-1.6-8.8-2.5-13.5-2.5c-4.7,0-9.9,0.9-14.1,2.5l-0.9,0.3l-0.4-0.4l-13-13.6c-17.4,10.2-28.2,28.8-28.2,48.8
	c0,13,4.5,25.1,13,35.2l4.8-5c-4.6-4.9-11.5-15.9-11.6-29.6c0-0.4,0-0.8,0-1.2c0.5-15.7,7.1-28.8,19.3-38.8l1-0.8l8.7,9l-1.3,1
	c-9.4,7.1-15.1,17.9-15.2,28.7c0,0.2,0,0.3,0,0.5c0,17,11.9,32.3,28.4,36.4l1.1,0.3v9.5h6.8v-8.7l1.4,0c10.5-0.1,21.1-4.9,28-12.7
	l-5.3-5.4c-6.6,7.1-15.8,10.8-22,10.8c-0.3,0-0.5,0-0.8,0l-1.4-0.1V38h0.9c0,0,8.2,0,11,0v-5.9c-2.8,0-11,0-11,0h-0.9v-8.4h0.9
	c0,0,8.3,0,11.1,0v-5h-18.7v28.5l-1.9-0.6c-12.5-4.2-20.6-14.9-20.5-27.5c0-0.2,0-0.4,0-0.6C-227,8.4-222.2-0.7-214-6.4l1-0.7
	l0.5,0.5c0,0,12.9,13.3,15.9,16.4l15.3-16.2l0.5-0.5l1,0.7c3.6,2.4,6.5,5.6,8.7,9.2l5.5-4.7c-2.3-3.5-5.3-6.8-8.8-9.4l-1.3-1
	l8.5-8.7l1,0.7c9.6,6.7,19.1,22,19.1,38.9c0,13.4-4.6,22.1-11.4,30.5c1.3,1.3,4.2,4.3,5.6,5.6c8.2-10,12.7-22.6,12.7-35.6
	C-140.1-1-150.9-19.6-168.4-29.8 M-195.9-0.9l-0.6,0.6l-9.8-10l2.5-0.6c2.2-0.5,4.6-0.8,6.3-0.8c0.2,0,0.4,0,0.6,0
	c2.6,0.1,5,0.4,7.3,1l2.3,0.6L-195.9-0.9z"/>
<g>
	<g>
		<g>
			<path class="st2" d="M54.6,45.3c-1.4,0-2.7-0.7-3.5-2l-1-1.6l1.8-0.6c1.7-0.6,1.7-1.4,1.7-1.8c0-0.3,0-0.6-0.1-1
				c-0.4-1.5-1-1.8-2-1.8l-0.9,0l-0.4-0.8c-0.2-0.4-0.5-0.7-0.8-0.9l-0.9-0.5l0.1-1c0.2-1.7,0.6-3.3,1.1-4.9l0.2-0.5l0.5-0.3
				c5-2.8,12.1-3.9,18.8-2.9l1.3,0.2v2.1l-0.2,0.4C70.1,27.7,70,28,70,28.2c0,0.4,0.2,0.9,0.6,1.2l2.1,1.7L70.1,32
				c-0.6,0.2-1,0.6-1.2,1.3l-0.2,0.9l-0.9,0.2c-0.9,0.2-1.5,0.7-1.5,2.2c0,1.6,0.6,2.2,2.2,2.3l1.9,0.1L70,40.9
				c-0.5,1.8-2.1,2.9-3.9,2.9c-1.8,0-3.4-1.2-4-2.9l-0.1-0.4l0.1-0.4c0-0.1,0.1-0.3,0.1-0.5c0-0.5-0.2-1-0.5-1.3
				c-0.4-0.4-0.8-0.6-1.3-0.6c0,0,0,0,0,0c-1,0-1.9,0.8-1.9,1.9c0,0.3,0.1,0.6,0.2,0.9l0.2,0.4l0,0.4c-0.1,1.8-1.4,3.4-3.1,3.9
				C55.3,45.2,54.9,45.3,54.6,45.3z M52.4,33.5c1.8,0.3,3.2,1.4,3.8,3.3c0.9-1.3,2.4-2.1,4-2.1c0,0,0,0,0,0c1.2,0,2.3,0.4,3.2,1.2
				c0.2-2,1.2-3.5,2.9-4.2c0.3-0.6,0.6-1.2,1.1-1.6c-0.3-0.6-0.4-1.2-0.4-1.9c0-0.2,0-0.5,0.1-0.7c-4.4-0.4-10.1,0.1-14.7,2.5
				c-0.3,0.9-0.5,1.8-0.7,2.8C51.9,33,52.2,33.3,52.4,33.5z"/>
		</g>
		<g>
			<path class="st2" d="M109.6,52.2c-0.7,0-1.4-0.2-2-0.5c-1.3-0.7-2.2-2.1-2.2-3.6c0-0.1,0-0.2,0-0.3l0-0.5l0.3-0.4
				c0.2-0.2,0.3-0.5,0.4-0.7c0.1-0.5,0.1-1-0.2-1.4c-0.3-0.4-0.7-0.7-1.2-0.9c-1-0.3-2,0.3-2.3,1.3l-0.1,0.9l-0.3,0.3
				c-1,1.3-2.7,1.9-4.3,1.5c-1.8-0.5-3-2-3.1-3.8l-0.1-1.9l1.9,0.4c1.6,0.3,2.4-0.1,2.8-1.7c0.1-0.4,0.1-0.7,0.1-1
				c0-0.5-0.1-1-1-1.5l-0.8-0.4l0-1c0-0.3,0-0.5-0.1-0.8L97,34.8l1.3-0.6c0.6-0.2,1-0.7,1.1-1.3l0.3-1.5l1.5,0.3
				c2.1,0.5,3.8,1,5.1,1.5c1.3,0.5,2.6,1.3,3.7,2.2l0.3,0.2l0.1,0.3c0.9,2.2,1.4,4.7,1.6,7.9l0.1,1.1l-1,0.4c-0.6,0.2-1,1-1.2,1.6
				c-0.2,0.5-0.3,0.9-0.3,1.2c0,0.4,0.1,0.8,0.8,1.3l3.5,2.5l-4.3,0.2C109.8,52.2,109.7,52.2,109.6,52.2z M104.4,40.9
				c0.4,0,0.8,0,1.2,0.2c1.2,0.3,2.3,1.1,3,2.3c0.1,0.1,0.1,0.2,0.2,0.3c0.1-0.1,0.2-0.2,0.4-0.3c-0.2-2.3-0.6-4.2-1.2-5.8
				c-0.8-0.6-1.6-1.1-2.5-1.5c-0.9-0.4-2.1-0.7-3.5-1.1c-0.3,0.5-0.7,0.9-1.1,1.3c1.1,0.9,1.7,2.1,1.7,3.6c0,0.5-0.1,1-0.2,1.5
				C102.9,41,103.6,40.9,104.4,40.9z"/>
		</g>
		<g>
			<path class="st2" d="M33.4,52.2c-0.1,0-0.2,0-0.3,0L28.9,52l3.5-2.5c0.7-0.5,0.8-0.9,0.8-1.3c0-0.3-0.1-0.8-0.3-1.2
				c-0.2-0.6-0.6-1.3-1.2-1.6l-1-0.4l0.1-1.1c0.3-3.2,0.8-5.7,1.6-7.9l0.1-0.3l0.3-0.2c1.1-0.9,2.3-1.7,3.7-2.2
				c1.3-0.5,3.1-1,5.1-1.5l1.5-0.3l0.3,1.5c0.1,0.6,0.5,1.1,1.1,1.3l1.3,0.6l-0.5,1.4c-0.1,0.3-0.1,0.5-0.1,0.8l0,1l-0.8,0.4
				c-0.9,0.5-1,1-1,1.5c0,0.3,0,0.6,0.1,1l0,0c0.4,1.6,1.1,2,2.8,1.7l1.9-0.4L48.2,44c-0.1,1.8-1.3,3.4-3.1,3.8
				c-1.6,0.4-3.3-0.2-4.3-1.5l-0.3-0.3l-0.1-0.9c-0.3-1-1.3-1.5-2.3-1.3c-0.5,0.1-0.9,0.4-1.2,0.9c-0.3,0.4-0.3,0.9-0.2,1.4
				c0.1,0.3,0.2,0.5,0.4,0.7l0.3,0.4l0,0.5c0,0.1,0,0.2,0,0.3c0,1.5-0.8,2.9-2.2,3.6C34.8,52,34.1,52.2,33.4,52.2z M33.8,43.2
				c0.1,0.1,0.3,0.2,0.4,0.3c0.1-0.1,0.1-0.2,0.2-0.3c0.7-1.1,1.7-1.9,3-2.2c1.1-0.3,2.3-0.2,3.3,0.3c-0.1-0.5-0.2-1-0.2-1.5
				c0-1.5,0.6-2.7,1.7-3.6c-0.4-0.4-0.8-0.8-1.1-1.3c-1.4,0.3-2.5,0.7-3.5,1.1c-0.9,0.4-1.8,0.9-2.5,1.5
				C34.5,39.1,34.1,40.9,33.8,43.2z"/>
		</g>
		<g>
			<path class="st2" d="M88.3,45.3c-0.3,0-0.7,0-1-0.1c-1.8-0.5-3-2-3.1-3.9l0-0.4l0.2-0.4c0.1-0.3,0.2-0.6,0.2-0.9
				c0-1-0.8-1.9-1.9-1.9c-1,0-1.9,0.8-1.9,1.9c0,0.1,0,0.3,0.1,0.4l0.1,0.4l-0.1,0.4c-0.6,1.7-2.1,2.9-4,2.9c-1.8,0-3.4-1.2-3.9-2.9
				l-0.6-1.8l1.9-0.1c1.7-0.1,2.2-0.7,2.2-2.3c0-1.5-0.6-2-1.5-2.2l-0.9-0.2L74,33.3c-0.2-0.7-0.5-1.1-1.2-1.3l-2.6-0.9l2.1-1.7
				c0.4-0.3,0.6-0.7,0.6-1.2c0-0.3-0.1-0.5-0.2-0.8l-0.2-0.4V25l1.3-0.2c6.7-1,13.7,0.1,18.8,2.9l0.5,0.3l0.2,0.5
				c0.6,1.6,1,3.2,1.1,4.9l0.1,1l-0.9,0.5c-0.3,0.2-0.6,0.4-0.8,0.9l-0.4,0.8l-0.9,0c-1,0-1.6,0.3-2,1.8c-0.1,0.4-0.1,0.7-0.1,1
				c0,0.4,0,1.3,1.7,1.8l1.8,0.6l-1,1.6C91.1,44.6,89.7,45.3,88.3,45.3z M82.7,34.8c1.7,0,3.1,0.8,4,2.1c0.7-1.9,2-3.1,3.8-3.3
				c0.2-0.3,0.5-0.5,0.7-0.8c-0.2-0.9-0.4-1.9-0.7-2.8c-4.6-2.4-10.3-2.8-14.7-2.5c0,0.2,0.1,0.5,0.1,0.7c0,0.7-0.2,1.3-0.4,1.9
				c0.5,0.4,0.9,1,1.1,1.6c1.7,0.7,2.7,2.1,2.9,4.2C80.4,35.2,81.5,34.8,82.7,34.8z"/>
		</g>
	</g>
	<g>
		<polygon class="st2" points="39.4,21.9 39.4,21.9 39.4,21.9 		"/>
		<path class="st2" d="M117.9,47.2c0.6-0.7,0.8-1.6,0.6-2.4c-0.1-0.7-0.5-1.3-1.1-1.7c-0.1-0.1-0.2-0.3-0.1-0.4
			c0.2-0.4,0.4-0.9,0.4-1.4c0-1.3-0.9-2.4-2.2-2.7c-0.2,0-0.3-0.2-0.3-0.4c0-0.1,0.1-0.1,0.1-0.2c0.7-0.5,1-1.3,1-2.1
			c0-1.4-1.1-2.6-2.5-2.7c-0.2,0-0.3-0.2-0.3-0.4c0-0.1,0-0.1,0.1-0.1c0.3-0.4,0.5-1,0.5-1.5c0-1.5-1.2-2.7-2.7-2.7
			c-0.2,0-0.5,0-0.7,0.1c-0.2,0-0.4-0.1-0.4-0.2c0-0.1,0-0.2,0-0.2c0.2-0.4,0.2-0.7,0.2-1.1c0-1.5-1.2-2.7-2.7-2.7
			c-0.4,0-0.9,0.1-1.2,0.3c-0.1,0.1-0.2,0-0.3,0c-0.1-0.1-0.2-0.2-0.1-0.3l0-0.4c0-1.5-1.2-2.7-2.7-2.7c-0.6,0-1.1,0.2-1.5,0.5
			c-0.1,0.1-0.4,0.1-0.5-0.1c0,0,0-0.1-0.1-0.1c-0.3-1.2-1.4-2.1-2.7-2.1c-0.9,0-1.8,0.5-2.3,1.3c-0.1,0.2-0.3,0.2-0.5,0.1
			c0,0,0,0-0.1-0.1c-0.5-0.6-1.2-0.9-2-0.9l-0.6,0.1c-0.1,0-0.2,0-0.3-0.1c-0.1-0.1-0.1-0.2-0.1-0.3c0.1-0.3,0.2-0.6,0.2-1
			c0-1.5-1.2-2.7-2.7-2.7c-0.5,0-1,0.1-1.4,0.4c-0.1,0.1-0.2,0.1-0.3,0c-0.1-0.1-0.2-0.2-0.2-0.3l0-0.4c0-0.7-0.3-1.4-0.8-1.9
			c-0.5-0.5-1.2-0.8-1.9-0.8c-0.6,0-1.2,0.2-1.6,0.5c-0.1,0.1-0.4,0.1-0.5-0.1c0,0,0-0.1-0.1-0.1c-0.3-1.2-1.4-2.1-2.6-2.1
			c-0.7,0-1.4,0.3-1.9,0.8c-0.1,0.1-0.3,0.1-0.5,0c0,0,0-0.1-0.1-0.1c-0.4-1-1.4-1.6-2.5-1.6c-0.3,0-0.6,0.1-0.9,0.1
			c-0.1,0-0.3,0-0.4-0.1c-0.5-0.6-1.1-1-1.9-1.3l-0.5-0.2c-0.1,0-0.2-0.2-0.2-0.3V5.9c0-0.2,0.1-0.3,0.3-0.3h2V3.9h-2
			c-0.2,0-0.3-0.1-0.3-0.3V1.8h-1.8v1.7c0,0.2-0.1,0.3-0.3,0.3c0,0,0,0,0,0h-2v1.7h2c0.2,0,0.3,0.1,0.3,0.3v2.3
			c0,0.1-0.1,0.3-0.2,0.3l-0.5,0.2C69.1,9,68.5,9.4,67.9,10c-0.1,0.1-0.2,0.1-0.4,0.1C67.3,10,67,10,66.7,10c-1.1,0-2,0.6-2.5,1.6
			c-0.1,0.2-0.3,0.2-0.4,0.2c0,0-0.1,0-0.1-0.1c-0.5-0.5-1.2-0.8-1.9-0.8c-1.3,0-2.4,0.9-2.6,2.1c0,0.2-0.2,0.3-0.4,0.2
			c0,0-0.1,0-0.1-0.1c-0.5-0.4-1-0.5-1.6-0.5c-1.5,0-2.7,1.2-2.7,2.7l0,0.4c0,0.1,0,0.3-0.2,0.3c-0.1,0.1-0.2,0.1-0.3,0
			c-0.4-0.3-0.9-0.4-1.4-0.4c-1.5,0-2.7,1.2-2.7,2.7c0,0.3,0.1,0.7,0.2,1c0,0.1,0,0.2-0.1,0.3c-0.1,0.1-0.2,0.1-0.3,0.1l-0.6-0.1
			c-0.8,0-1.5,0.3-2,0.9c-0.1,0.1-0.3,0.1-0.5,0c0,0,0,0-0.1-0.1c-0.5-0.8-1.4-1.3-2.3-1.3c-1.3,0-2.4,0.9-2.6,2.1
			c0,0.2-0.2,0.3-0.4,0.3c0,0-0.1,0-0.1-0.1c-0.5-0.3-1-0.5-1.6-0.5c-1.5,0-2.7,1.2-2.7,2.7l0,0.4c0,0.1,0,0.2-0.1,0.3
			c-0.1,0.1-0.2,0.1-0.3,0c-0.4-0.2-0.8-0.3-1.2-0.3c-1.5,0-2.7,1.2-2.7,2.7c0,0.4,0.1,0.8,0.2,1.1c0.1,0.2,0,0.4-0.2,0.4
			c-0.1,0-0.1,0-0.2,0c-0.2-0.1-0.5-0.1-0.7-0.1c-1.5,0-2.7,1.2-2.7,2.7c0,0.5,0.2,1.1,0.5,1.5c0.1,0.2,0.1,0.4-0.1,0.5
			c0,0-0.1,0-0.2,0.1c-1.4,0.1-2.5,1.3-2.5,2.7c0,0.8,0.4,1.6,1,2.1c0.1,0.1,0.2,0.3,0.1,0.5c0,0.1-0.1,0.1-0.2,0.1
			c-1.2,0.3-2.2,1.4-2.2,2.7c0,0.5,0.1,1,0.4,1.4c0.1,0.2,0,0.3-0.1,0.4c-0.6,0.4-1,1-1.1,1.7c-0.1,0.8,0.1,1.6,0.6,2.4
			c0.1,0.1,0.1,0.3,0,0.5c-0.4,0.4-0.7,0.9-0.7,1.5c0,1.1,0.7,2.2,1.5,2.7c0.8,0.6,2.4,1.5,4,0.4c0.1-0.1,0.3-0.1,0.4,0
			c1.3,1,3.1,1.3,4.7,0.8c0.2-0.1,0.4,0,0.4,0.2c0,0.1,0,0.2,0,0.2c-0.2,0.4-0.2,0.8,0,1.2c0.2,0.4,0.4,0.6,0.8,0.7
			c0.3,0.1,0.7,0.1,1-0.1c10.8-5.1,22.4-7.7,34.4-7.7c12,0,23.6,2.6,34.4,7.7c0.7,0.3,1.5,0,1.8-0.7c0.2-0.4,0.2-0.8,0-1.2
			c-0.1-0.2,0-0.4,0.2-0.4c0.1,0,0.2,0,0.2,0c1.6,0.5,3.4,0.2,4.7-0.8c0.1-0.1,0.3-0.1,0.4,0c1.6,1.1,3.2,0.2,4-0.4
			c0.7-0.6,1.4-1.7,1.5-2.7c0-0.6-0.2-1.1-0.6-1.5C117.9,47.5,117.8,47.3,117.9,47.2z M111.7,46.8L111.7,46.8L111.7,46.8z
			 M97.6,39.7c-0.2,0.8-0.7,1.5-1.4,1.9c-0.7,0.4-1.6,0.5-2.4,0.3c-0.8-0.2-1.5-0.7-1.9-1.4c-0.4-0.7-0.5-1.6-0.3-2.4
			c0.2-0.8,0.7-1.5,1.4-1.9c0.7-0.4,1.6-0.5,2.4-0.3c0.8,0.2,1.5,0.7,1.9,1.4C97.7,38.1,97.8,38.9,97.6,39.7z M74.6,36
			c0,1.7-1.4,3.1-3.1,3.1c-1.7,0-3.1-1.4-3.1-3.1c0-1.7,1.4-3.1,3.1-3.1C73.2,32.9,74.6,34.3,74.6,36z M47.6,35.9L47.6,35.9
			c1.7-0.4,3.4,0.6,3.8,2.3c0.4,1.7-0.6,3.4-2.3,3.8c-0.8,0.2-1.7,0.1-2.4-0.3c-0.7-0.4-1.2-1.1-1.4-1.9C44.9,38,46,36.3,47.6,35.9z
			 M30,51.1L30,51.1c-1.5,0.8-3.4,0.3-4.3-1.2c-0.8-1.5-0.3-3.4,1.2-4.3c0.7-0.4,1.6-0.5,2.4-0.3c0.8,0.2,1.5,0.8,1.9,1.5
			C32.1,48.3,31.5,50.2,30,51.1z M43.7,49.6c-2.1,0.7-4.1,1.5-6.1,2.4c-0.2,0.1-0.4,0-0.4-0.2c-0.1-0.1,0-0.3,0.1-0.4
			c0.7-0.8,1.2-1.8,1.4-2.8c0-0.1,0.1-0.2,0.3-0.3l0.4-0.1c0.3-0.1,0.7-0.2,1-0.5c0.1-0.1,0.3-0.1,0.4,0c0.8,0.6,1.9,1,3,1.1
			c0.2,0,0.3,0.2,0.3,0.3C43.9,49.5,43.8,49.6,43.7,49.6z M44.9,47L44.9,47c-1.3,0.3-2.7-0.1-3.5-1.2c0,0-0.1-0.1-0.1-0.2l-0.1-0.6
			c-0.4-1.5-1.9-2.3-3.3-2c-0.7,0.2-1.3,0.6-1.7,1.3c-0.4,0.6-0.5,1.4-0.3,2.1c0.1,0.4,0.3,0.8,0.6,1.1c0,0.1,0.1,0.1,0.1,0.2
			c0.1,1.3-0.5,2.6-1.7,3.2c-0.8,0.5-1.8,0.5-2.7,0.2c-0.2-0.1-0.3-0.3-0.2-0.4c0-0.1,0.1-0.1,0.2-0.2c1.7-0.9,2.2-2.1,1.5-3.9
			c-0.5-1.2-1.1-1.9-1.8-2.1c-0.1,0-0.2-0.2-0.2-0.3c0.7-9.2,3.6-13.5,11.8-17.7c0.1-0.1,0.2-0.1,0.3,0c0.1,0.1,0.2,0.2,0.2,0.3
			l0,0.3c0,0.8,0.4,1.6,1,2.1c0.1,0.1,0.2,0.3,0.1,0.5c0,0.1-0.1,0.1-0.2,0.1c-1.3,0.3-2.2,1.4-2.2,2.7c0,1.2,0.8,2.3,1.9,2.6
			c0.2,0.1,0.3,0.2,0.2,0.4c0,0,0,0,0,0.1c-0.2,0.4-0.3,1-0.3,1.6c0,0.1-0.1,0.3-0.2,0.3c-1.4,0.7-1.9,1.8-1.4,3.5
			c0.5,2.1,1.8,2.8,4.1,2.2c0.2,0,0.4,0.1,0.4,0.2c0,0,0,0,0,0C47.5,45.2,46.4,46.6,44.9,47z M53.6,46.8c-2,0.4-3.9,0.9-5.9,1.5
			c-0.2,0.1-0.4,0-0.4-0.2c0-0.1,0-0.3,0.1-0.3c1.3-1.1,2-2.8,1.8-4.5c0-0.2,0.1-0.3,0.3-0.4c0.1,0,0.3,0.1,0.3,0.2
			c0.7,1.6,2.1,2.7,3.7,3.1c0.2,0,0.3,0.2,0.3,0.4C53.8,46.7,53.7,46.8,53.6,46.8z M64.3,45.2L64.3,45.2c-2.2,0.2-4.4,0.5-6.5,0.8
			c-0.2,0-0.3-0.1-0.4-0.3c0-0.1,0-0.3,0.1-0.3c1.1-0.7,1.9-1.7,2.3-2.8c0-0.1,0.2-0.2,0.3-0.2l0.2,0c0.3,0,0.5,0,0.8-0.1
			c0.1,0,0.3,0,0.4,0.1c0.7,1,1.7,1.8,2.9,2.2c0.2,0.1,0.3,0.2,0.2,0.4C64.5,45.1,64.4,45.2,64.3,45.2z M62.8,40.6
			c0-0.1,0-0.1,0-0.2c0.1-0.3,0.1-0.5,0.1-0.8c0-0.7-0.3-1.4-0.8-1.9c-0.5-0.5-1.2-0.8-1.9-0.8c-1.5,0-2.7,1.2-2.7,2.7
			c0,0.5,0.1,0.9,0.4,1.4c0,0.1,0,0.1,0,0.2c0,1.5-1.1,2.8-2.5,3.1c-1.6,0.4-3.2-0.4-3.9-1.9c-0.1-0.2,0-0.4,0.2-0.4c0,0,0,0,0,0
			c2.3-0.6,3.1-1.8,2.5-3.9c-0.5-1.8-1.4-2.5-3-2.4c-0.1,0-0.3-0.1-0.3-0.2c-0.4-0.8-0.8-1.2-1.5-1.5c-0.1-0.1-0.2-0.2-0.2-0.3
			c0.9-9.1,7.9-17.8,19.5-16.9c0.2,0,0.3,0.2,0.3,0.4l0,0.3c0,0.5,0.1,0.9,0.4,1.3c0,0.1,0.1,0.1,0.1,0.2v2.5c0,0.1,0,0.1-0.1,0.2
			c-0.5,0.8-0.5,1.8,0,2.6c0,0.1,0.1,0.1,0.1,0.2v2.5c0,0.1,0,0.1-0.1,0.2c-0.3,0.4-0.4,0.8-0.4,1.3c0,0.9,0.5,1.8,1.4,2.1
			c0.2,0.1,0.2,0.3,0.2,0.4c0,0.1-0.1,0.2-0.2,0.2c-1.4,0.2-2.1,1-2.4,2.3c0,0.1-0.1,0.2-0.3,0.3c-1.6,0.3-2.3,1.3-2.3,3.1
			c0,2.2,1.1,3.2,3.4,3.2c0.2,0,0.3,0.1,0.3,0.3c0,0,0,0,0,0.1C69,41.8,67.6,43,66,43C64.6,43,63.3,42,62.8,40.6z M74.9,44.7
			C74.9,44.7,74.9,44.7,74.9,44.7c0,0.2-0.2,0.3-0.3,0.3l-3.1-0.1L68.4,45c-0.2,0-0.3-0.1-0.3-0.3c0-0.1,0-0.3,0.2-0.4
			c1.6-0.7,2.6-2.2,2.9-3.9c0-0.2,0.2-0.3,0.4-0.3c0.1,0,0.3,0.1,0.3,0.3c0.2,1.7,1.3,3.2,2.9,3.9C74.8,44.4,74.9,44.6,74.9,44.7
			L74.9,44.7L74.9,44.7z M85.6,45.8c-0.1,0.1-0.2,0.2-0.4,0.2c-2.2-0.4-4.4-0.6-6.5-0.8c-0.2,0-0.3-0.2-0.3-0.4
			c0-0.1,0.1-0.2,0.2-0.3c1.2-0.4,2.2-1.2,2.9-2.2c0.1-0.1,0.2-0.2,0.4-0.1c0.3,0.1,0.5,0.1,0.8,0.1l0.2,0c0.1,0,0.3,0.1,0.3,0.2
			c0.4,1.2,1.2,2.2,2.3,2.8C85.6,45.5,85.7,45.7,85.6,45.8z M87.5,44.3c-1.4-0.4-2.5-1.7-2.5-3.1c0-0.1,0-0.1,0-0.2
			c0.2-0.4,0.4-0.9,0.4-1.4c0-1.5-1.2-2.7-2.7-2.7c-1.5,0-2.7,1.2-2.7,2.7c0,0.3,0,0.5,0.1,0.8c0,0.1,0,0.1,0,0.2
			C79.7,42,78.4,43,76.9,43c-1.6,0-3-1.2-3.3-2.8c0-0.2,0.1-0.3,0.3-0.4c0,0,0,0,0.1,0c2.4,0,3.4-1,3.4-3.2c0-1.8-0.7-2.8-2.3-3.1
			c-0.1,0-0.2-0.1-0.3-0.3c-0.3-1.4-1-2.1-2.4-2.3c-0.2,0-0.3-0.2-0.3-0.4c0-0.1,0.1-0.2,0.2-0.2c0.8-0.4,1.4-1.2,1.4-2.1
			c0-0.5-0.1-0.9-0.4-1.3c0-0.1-0.1-0.1-0.1-0.2v-2.5c0-0.1,0-0.1,0.1-0.2c0.3-0.4,0.4-0.8,0.4-1.3c0-0.5-0.1-0.9-0.4-1.3
			c0-0.1-0.1-0.1-0.1-0.2v-2.5c0-0.1,0-0.1,0.1-0.2c0.3-0.4,0.4-0.8,0.4-1.3l0-0.3c0-0.2,0.1-0.4,0.3-0.4
			c11.6-0.8,18.6,7.9,19.5,16.9c0,0.1-0.1,0.3-0.2,0.3c-0.6,0.2-1.1,0.7-1.5,1.5c-0.1,0.1-0.2,0.2-0.3,0.2c-1.6-0.1-2.5,0.7-3,2.4
			c-0.5,2.1,0.2,3.3,2.5,3.9c0.2,0,0.3,0.2,0.2,0.4c0,0,0,0,0,0C90.7,43.9,89.1,44.7,87.5,44.3z M95.6,48.2
			c-0.1,0.1-0.2,0.2-0.4,0.2c-1.9-0.6-3.9-1.1-5.8-1.5c-0.2,0-0.3-0.2-0.3-0.4c0-0.1,0.1-0.2,0.3-0.3c1.7-0.3,3.1-1.5,3.7-3.1
			c0.1-0.2,0.3-0.2,0.4-0.2c0.1,0.1,0.2,0.2,0.2,0.3c-0.2,1.7,0.5,3.4,1.8,4.5C95.7,47.9,95.7,48,95.6,48.2z M105.8,51.9
			c-0.1,0.1-0.3,0.2-0.4,0.1c-2-0.9-4-1.7-6.1-2.4c-0.2-0.1-0.3-0.2-0.2-0.4c0-0.1,0.2-0.2,0.3-0.2c1.1-0.1,2.1-0.4,3-1.1
			c0.1-0.1,0.3-0.1,0.4,0c0.3,0.2,0.6,0.4,1,0.5l0.4,0.1c0.1,0,0.3,0.1,0.3,0.3c0.2,1,0.7,2,1.4,2.8
			C105.8,51.6,105.9,51.8,105.8,51.9z M111.1,44.5L111.1,44.5c-0.7,0.2-1.4,0.9-1.8,2.1c-0.7,1.9-0.2,3.1,1.5,3.9
			c0.2,0.1,0.2,0.3,0.1,0.4c0,0.1-0.1,0.1-0.2,0.2c-1.7,0.6-3.6-0.2-4.3-2c-0.2-0.5-0.2-1-0.2-1.5c0-0.1,0-0.1,0.1-0.2
			c0.3-0.3,0.5-0.7,0.6-1.1c0.2-0.7,0.1-1.4-0.3-2.1c-0.4-0.6-1-1.1-1.7-1.3c-1.5-0.4-2.9,0.5-3.3,2l-0.1,0.6c0,0.1,0,0.1-0.1,0.2
			c-0.8,1.1-2.2,1.6-3.5,1.2c-1.6-0.4-2.6-1.9-2.5-3.5c0-0.2,0.2-0.3,0.4-0.3c0,0,0,0,0.1,0c2.3,0.6,3.6-0.1,4.1-2.2
			c0.5-1.8,0-2.9-1.4-3.5c-0.1-0.1-0.2-0.2-0.2-0.3c0-0.6,0-1.1-0.3-1.6c-0.1-0.2,0-0.4,0.1-0.4c0,0,0,0,0.1,0
			c1.1-0.3,1.9-1.4,1.9-2.6c0-1.3-0.9-2.4-2.2-2.7c-0.1,0-0.2-0.1-0.3-0.2c0-0.1,0-0.3,0.1-0.3c0.7-0.5,1-1.3,1-2.1l0-0.3
			c0-0.1,0.1-0.2,0.2-0.3c0.1-0.1,0.2-0.1,0.3,0c8.2,4.1,11,8.4,11.8,17.7C111.4,44.3,111.3,44.5,111.1,44.5z M117.2,49.8
			L117.2,49.8c-0.8,1.5-2.7,2.1-4.3,1.2c-0.7-0.4-1.3-1.1-1.5-1.9c-0.2-0.8-0.1-1.7,0.3-2.4c0.4-0.7,1.1-1.3,1.9-1.5
			c0.8-0.2,1.7-0.1,2.4,0.3c0.7,0.4,1.3,1.1,1.5,1.9C117.7,48.3,117.6,49.1,117.2,49.8z"/>
		<polygon class="st2" points="74.9,44.7 74.9,44.7 74.9,44.7 		"/>
		<polygon class="st2" points="108,25.1 108,25.1 108,25.1 		"/>
		<polygon class="st2" points="81.1,11.6 81.1,11.6 81.1,11.6 		"/>
	</g>
	<path class="st2" d="M105.4,56.3c-10.7-5-22.1-7.6-34-7.6c-11.9,0-23.3,2.5-34,7.6c-0.1,0-0.1,0.1-0.2,0.2c0,0.1,0,0.2,0,0.4
		c0.1,0.2,0.4,0.3,0.6,0.2c0,0,0,0,0,0c0.2-0.1,0.4,0,0.4,0.2l0,0.1l2,0.7c0.1,0,0.2,0.2,0.1,0.3L40,60.7l0.1,0.1
		c0.1,0.2,0,0.4-0.2,0.4c-0.3,0.1-0.4,0.4-0.3,0.7c0.1,0.2,0.4,0.4,0.7,0.3c9.8-4.6,20.3-6.9,31.2-6.9c10.9,0,21.4,2.3,31.2,6.9
		c0.3,0.1,0.5,0,0.7-0.3c0.1-0.3,0-0.6-0.3-0.7c-0.2-0.1-0.2-0.3-0.2-0.4l0.1-0.1l-0.6-2.4c0-0.1,0-0.2,0.1-0.3l2-0.7l0-0.1
		c0.1-0.2,0.3-0.2,0.4-0.2c0,0,0,0,0,0c0.2,0.1,0.5,0,0.6-0.2c0.1-0.1,0.1-0.3,0-0.4C105.6,56.4,105.5,56.3,105.4,56.3 M43.3,59.3
		c-1.1,0-1.9-0.9-1.9-1.9c0-0.5,0.2-1,0.6-1.4c0.4-0.4,0.9-0.6,1.4-0.6c1.1,0,1.9,0.9,1.9,1.9C45.2,58.4,44.3,59.3,43.3,59.3
		 M57.8,53.1l-4.7,3.3c0,0-0.1,0-0.1,0l-5.8-0.6c-0.1,0-0.2-0.1-0.2-0.2c0-0.1,0-0.1,0.1-0.2l4.7-3.3c0,0,0.1,0,0.1,0l5.8,0.6
		c0.1,0,0.2,0.1,0.2,0.2C57.9,53,57.9,53.1,57.8,53.1 M61.8,54.3c-1.1,0-1.9-0.9-1.9-1.9c0-0.5,0.2-1,0.6-1.4
		c0.4-0.4,0.9-0.6,1.4-0.6c1.1,0,1.9,0.9,1.9,1.9C63.8,53.4,62.9,54.3,61.8,54.3 M77,52.1l-5.4,2c0,0-0.1,0-0.2,0l-5.4-2
		c-0.1,0-0.2-0.2-0.1-0.3c0-0.1,0.1-0.1,0.1-0.1l5.4-2c0,0,0.1,0,0.2,0l5.4,2c0.1,0,0.2,0.2,0.1,0.3C77.1,52,77,52,77,52.1
		 M81.1,54.3c-1.1,0-1.9-0.9-1.9-1.9c0-1.1,0.9-1.9,1.9-1.9c1.1,0,1.9,0.9,1.9,1.9S82.2,54.3,81.1,54.3 M95.8,55.8L90,56.4
		c-0.1,0-0.1,0-0.1,0l-4.7-3.3C85,53,85,52.9,85.1,52.8c0-0.1,0.1-0.1,0.2-0.1l5.8-0.6c0.1,0,0.1,0,0.1,0l4.7,3.3
		c0.1,0.1,0.1,0.2,0.1,0.3C95.9,55.8,95.9,55.8,95.8,55.8 M99.7,59.3c-1.1,0-1.9-0.9-1.9-1.9s0.9-1.9,1.9-1.9c1.1,0,1.9,0.9,1.9,1.9
		C101.6,58.4,100.8,59.3,99.7,59.3"/>
	<g>
		<path class="st2" d="M46.4,97l-5.1-5.3c-7,5.9-11.9,12.8-14.7,20.8c1.9,2,3.8,3.9,5.7,5.8C34.5,110.2,39.4,102.6,46.4,97z"/>
		<path class="st2" d="M113.4,165.9l-5.6-5.6c-0.9-0.9-1-2.4-0.2-3.3c1.8-2.2,3.5-4.5,5.1-7.1l-33.8-34.9l-5.6,5.9
			c-0.5,0.5-1.1,0.8-1.8,0.8c-0.6,0-1.3-0.3-1.8-0.8l-14.9-15.4c-7.1,5.3-11.3,13.4-11.5,22.4c0,0.2,0,0.4,0,0.5c0,0.4,0,0.7,0,1.1
			c5.8,5.9,11.6,11.8,17.4,17.7V128c0-1.4,1.1-2.5,2.5-2.5h18.7c1.4,0,2.5,1.1,2.5,2.5v5c0,0.7-0.3,1.3-0.7,1.8s-1.1,0.7-1.8,0.7h0
			l-9.5,0v3.4l9.3,0c1.4,0,2.5,1.1,2.5,2.5v5.9c0,0.7-0.3,1.3-0.7,1.8s-1.1,0.7-1.8,0.7l-9.3,0v5.4c5.3-0.2,13.6-3.3,19.8-10
			c0.5-0.5,1.1-0.8,1.8-0.8c0,0,0,0,0,0c0.7,0,1.3,0.3,1.8,0.7l5.3,5.4c0.9,0.9,1,2.4,0.1,3.4c-5.5,6.3-13.4,10.7-21.7,12.6
			c5.1,5.2,10.2,10.4,15.3,15.6c8.1-3.6,15.3-8.9,21-15.6c-0.2,0-0.3,0.1-0.5,0.1C114.6,166.6,113.9,166.4,113.4,165.9z"/>
		<path class="st2" d="M43.4,77.1l-0.1,0.1C43.4,77.2,43.5,77.2,43.4,77.1L43.4,77.1z"/>
		<path class="st2" d="M99.2,77L99.2,77C99.2,77,99.2,77,99.2,77L99.2,77z"/>
		<path class="st2" d="M100,82.7L88.3,94.8c-0.1,0.1-0.3,0.3-0.5,0.4l-0.2,0.2c-0.7,0.7-1.7,0.9-2.7,0.6l-0.9-0.3
			c-4-1.5-8.2-2.3-12.6-2.4c0,0,0,0,0,0c-4.4,0-9.2,0.9-13.1,2.4L57.4,96c-0.9,0.4-2,0.1-2.7-0.6l-12-12.6
			C27,92.7,17.4,110,17.4,128.5c0,11.4,3.7,22.2,10.7,31.4l1.3-1.3c-5.4-6.6-10.6-17.3-10.7-29.5c0-0.4,0-0.9,0-1.3
			c0.6-16.5,7.4-30.1,20.2-40.6l1-0.8c1-0.8,2.5-0.7,3.4,0.2l8.7,9c0.5,0.5,0.8,1.2,0.7,1.9s-0.4,1.4-1,1.8l-1.3,1
			c-8.8,6.6-14.1,16.6-14.2,26.8l0,0.4c0,15.9,11.1,30.2,26.5,34l1.1,0.3c1.1,0.3,1.9,1.3,1.9,2.4v7h1.8v-6.2c0-1.4,1.1-2.5,2.5-2.5
			l1.4,0c8.9-0.1,18.1-3.9,24.5-10.2l-1.8-1.8c-7.1,6.7-16,9.7-22,9.8c-0.3,0-0.6,0-0.9,0l-1.4-0.1c-1.3-0.1-2.4-1.2-2.4-2.5v-10.3
			c0-1.4,1.1-2.5,2.5-2.5l9.3,0v-0.9c-3.4,0-8.2,0-8.4,0c0,0,0,0,0,0h-0.9c-1.4,0-2.5-1.1-2.5-2.5V133c0-1.4,1.1-2.5,2.5-2.5l9.5,0
			H65.6v26c0,0.8-0.4,1.6-1,2c-0.7,0.5-1.5,0.6-2.3,0.3l-1.9-0.6c-13.5-4.5-22.3-16.2-22.3-29.9c0-0.2,0-0.4,0-0.6
			c0.2-10.9,5.5-20.7,14.3-26.9l1-0.7c1-0.7,2.4-0.6,3.2,0.3l14.6,15.1l14-14.8c0.8-0.9,2.2-1,3.2-0.4l1,0.7c3,2,5.7,4.6,7.8,7.5
			l1.6-1.4c-1.9-2.6-4.3-5-7-7l-1.3-1c-0.6-0.4-0.9-1.1-1-1.8c-0.1-0.7,0.2-1.4,0.7-1.9l8.5-8.7c0.9-0.9,2.2-1,3.2-0.3l1,0.7
			c9.7,6.7,20.2,22.4,20.2,40.9c0,14.1-4.9,23-10.5,30.3l2.1,2.1c6.8-9.2,10.5-20.4,10.5-31.9C125.4,109.9,115.7,92.5,100,82.7z
			 M82.5,101l-8.6,9.1c0,0,0,0,0,0l-0.6,0.6c-0.5,0.5-1.1,0.8-1.8,0.8c0,0,0,0,0,0c-0.7,0-1.3-0.3-1.8-0.8l-9.8-10
			c-0.6-0.6-0.9-1.6-0.6-2.5c0.3-0.9,1-1.5,1.8-1.7l2.5-0.6c2.4-0.5,4.9-0.9,6.9-0.9c0.2,0,0.5,0,0.7,0c2.8,0.1,5.4,0.4,7.8,1.1
			l2.3,0.6c0.9,0.2,1.5,0.9,1.8,1.7C83.3,99.4,83.1,100.3,82.5,101z"/>
		<polygon class="st2" points="129.9,128.5 129.9,128.5 129.9,128.5 		"/>
		<path class="st2" d="M120.3,79.9c-12.5-12.5-29.8-20.2-48.8-20.2c-19,0-36.3,7.7-48.8,20.2C10.2,92.4,2.5,109.7,2.5,128.7v0
			c0,19,7.7,36.3,20.2,48.8c12.5,12.5,29.8,20.2,48.8,20.2c19,0,36.3-7.7,48.8-20.2c12.5-12.5,20.2-29.7,20.2-48.8
			C140.5,109.7,132.8,92.4,120.3,79.9z M71.5,189.6c-33.6,0-61-27.3-61-61c0-33.6,27.3-61,61-61c33.6,0,61,27.3,61,61
			C132.4,162.3,105.1,189.6,71.5,189.6z"/>
		<path class="st2" d="M99.6,79.5C97.2,82,86.7,92.8,86.7,92.8l-0.3,0.3h-0.1l-0.1,0.1l-0.4,0.4l-0.5-0.2L85,93.3
			c-4.2-1.6-8.8-2.5-13.5-2.5c-4.7,0-9.9,0.9-14.1,2.5l-0.9,0.3l-0.4-0.4l-13-13.6c-17.4,10.2-28.2,28.8-28.2,48.8
			c0,13,4.5,25.1,13,35.2l4.8-5c-4.6-4.9-11.5-15.9-11.6-29.6c0-0.4,0-0.8,0-1.2c0.5-15.7,7.1-28.8,19.3-38.8l1-0.8l8.7,9l-1.3,1
			c-9.4,7.1-15.1,17.9-15.2,28.7c0,0.2,0,0.3,0,0.5c0,17,11.9,32.3,28.4,36.4l1.1,0.3v9.5h6.8v-8.7l1.4,0c10.5-0.1,21.1-4.9,28-12.7
			l-5.3-5.4c-6.6,7.1-15.8,10.8-22,10.8c-0.3,0-0.5,0-0.8,0l-1.4-0.1v-10.3h0.9c0,0,8.2,0,11,0v-5.9c-2.8,0-11,0-11,0h-0.9V133h0.9
			c0,0,8.3,0,11.1,0v-5H63.1v28.5l-1.9-0.6c-12.5-4.2-20.6-14.9-20.5-27.5c0-0.2,0-0.4,0-0.6c0.2-10.1,5.1-19.2,13.3-24.9l1-0.7
			l0.5,0.5c0,0,12.9,13.3,15.9,16.4l15.3-16.2l0.5-0.5l1,0.7c3.6,2.4,6.5,5.6,8.7,9.2l5.5-4.7c-2.3-3.5-5.3-6.8-8.8-9.4l-1.3-1
			l8.5-8.7l1,0.7c9.6,6.7,19.1,22,19.1,38.9c0,13.4-4.6,22.1-11.4,30.5c1.3,1.3,4.2,4.3,5.6,5.6c8.2-10,12.7-22.6,12.7-35.6
			C127.9,108.3,117.1,89.6,99.6,79.5 M72,108.4l-0.6,0.6l-9.8-10l2.5-0.6c2.2-0.5,4.6-0.8,6.3-0.8c0.2,0,0.4,0,0.6,0
			c2.6,0.1,5,0.4,7.3,1l2.3,0.6L72,108.4z"/>
	</g>
</g>
</svg>
