<?xml version="1.0" encoding="UTF-8" standalone="no"?><!DOCTYPE svg PUBLIC "-//W3C//DTD SVG 1.1//EN" "http://www.w3.org/Graphics/SVG/1.1/DTD/svg11.dtd"><svg width="100%" height="100%" viewBox="0 0 197 385" version="1.1" xmlns="http://www.w3.org/2000/svg" xmlns:xlink="http://www.w3.org/1999/xlink" xml:space="preserve" xmlns:serif="http://www.serif.com/" style="fill-rule:evenodd;clip-rule:evenodd;stroke-linejoin:round;stroke-miterlimit:2;"><g><path d="M47.535,358.333l0,26.25l7.083,0l0,-10l8.333,0l0,-6.25l-8.333,0l0,-4.583l8.333,0l0,-5.417l-15.417,0Zm41.667,0l0,26.25l7.083,0l0,-10l8.333,0l0,-6.25l-8.333,0l0,-4.583l8.333,0l0,-5.417l-15.417,0Zm42.5,0l0,26.25l7.083,0l0,-10l8.333,0l0,-6.25l-8.333,0l0,-4.583l8.333,0l0,-5.417l-15.417,0Z" style="fill:#fff;fill-rule:nonzero;"/><path d="M137.535,235.417c-0.833,-2.083 -2.5,-5.833 -3.333,-8.333l-1.667,-5l-0.417,4.583c-0.833,5.833 0,13.333 1.667,17.083c2.5,6.667 9.583,9.583 21.667,10l5,0l-5.417,-2.917c-7.083,-2.917 -15,-10 -17.5,-15.417Z" style="fill:#fff;fill-rule:nonzero;"/><path d="M33.369,103.75c1.667,3.333 4.583,3.333 9.167,0c4.583,-3.333 6.25,-6.25 6.25,-11.25c0,-3.75 -0.417,-4.583 -2.917,-7.083c-3.333,-3.333 -5.417,-3.75 -9.583,-2.083c-2.5,1.25 -2.5,1.25 -4.167,-1.25c-2.083,-2.917 -3.333,-3.333 -10.417,-4.167c-1.667,0 -2.917,-0.417 -3.75,-0.417c-1.25,0 -1.25,0.417 -0.417,0.833c0,0.833 3.333,2.917 6.25,5c3.333,2.083 5.417,3.75 5,3.75c-0.417,0 -3.333,0 -6.25,-0.417c-6.667,-0.833 -10,-1.25 -10,0c0,0.417 3.333,2.5 7.5,4.583c7.5,3.75 10,5.833 13.333,12.5Zm0.417,-15.833c0.833,-0.833 0.833,-0.833 2.083,-0.833c1.25,0 2.083,0.417 2.5,1.667c0.417,0.833 0,2.083 -0.833,2.917c-0.833,0.833 -2.5,0.833 -2.917,0.417c-0.833,-0.417 -1.25,-1.25 -1.25,-2.5c-0.417,-0.417 -0.417,-0.833 0.417,-1.667Z" style="fill:#fff;fill-rule:nonzero;"/><path d="M25.035,200c0,-4.167 -0.417,-7.5 -0.833,-7.917c-2.917,-3.75 -5.417,-7.917 -7.5,-12.5l0,4.583c0,8.75 1.667,24.583 2.5,28.75c1.25,4.167 5.417,9.583 9.583,12.917l2.083,1.667l-2.083,-5c-2.917,-5.833 -3.75,-12.5 -3.75,-22.5Z" style="fill:#fff;fill-rule:nonzero;"/><path d="M180.869,206.25c-2.917,-3.75 -5.833,-7.083 -6.25,-8.333c-0.417,-0.833 -1.25,-5.417 -2.083,-10c-0.833,-4.583 -1.667,-9.583 -2.083,-11.25c-2.917,-11.667 -14.583,-21.25 -27.083,-22.5c-12.5,-0.833 -25,6.667 -36.667,12.917c1.667,-1.667 17.917,-12.083 22.917,-14.583c10,-4.583 18.75,-6.25 25.417,-4.167c4.583,1.25 10.833,7.5 13.75,13.75c4.583,8.333 6.667,17.5 7.083,28.75l0.417,9.583l3.75,4.583c2.083,2.5 3.75,4.583 4.167,4.583c0.833,0 1.25,-7.083 1.25,-15.833c0,-29.583 -13.75,-52.917 -32.917,-55.833c-10.833,-1.667 -21.667,2.5 -33.333,12.5c-9.167,8.333 -14.167,18.333 -24.167,24.583c-3.333,2.5 -6.667,4.167 -10.417,4.583c-2.917,0.833 -4.167,0.833 -6.667,0c-2.083,-0.417 -5.417,-2.083 -7.083,-3.333c-27.917,-17.917 -9.167,-52.083 -20,-75c11.667,12.5 -0.833,40.417 7.5,57.5c0.417,0.833 0.833,1.25 1.25,2.083c1.667,2.917 1.667,3.333 1.667,1.667c-1.25,-7.5 -1.25,-20.417 0,-28.333c2.083,-13.333 0.833,-25.417 -4.167,-31.25c-1.667,-2.5 -6.25,-5.417 -7.917,-5.417c-0.417,0 -0.833,0 -0.417,0.833c0.833,1.667 0.833,3.75 1.25,29.167c0.417,22.917 0.417,23.75 2.5,31.25c2.5,9.167 5,14.583 8.333,17.917c1.667,1.667 3.333,2.917 4.583,4.583c12.5,2.5 14.167,4.167 30.417,0.417c-0.833,-1.25 23.75,-12.917 29.167,-14.167c6.667,-1.667 11.667,-2.083 12.5,-2.083c11.667,2.5 25.417,14.583 28.75,30c0.833,2.5 5.417,12.083 8.333,15.417c1.667,1.667 2.5,2.917 1.667,2.5c-1.25,-0.833 -1.25,-0.833 -1.25,4.167c0,7.917 2.917,18.333 6.25,22.917c0.833,1.25 1.25,0 0.833,-11.25l0,-3.75l-0.417,-8.333l0,-0.417l3.333,0.417l3.333,0l-1.25,-1.667c-0,-2.083 -2.917,-5.833 -6.25,-9.167Zm0.833,9.167c-0.417,0 -1.25,-0.417 -2.083,-1.25c-0.833,-0.417 -1.25,-0.833 -0.833,-0.833c0,0 0.417,0 1.25,0.417c2.5,1.25 2.917,1.667 1.667,1.667Z" style="fill:#fff;fill-rule:nonzero;"/><path d="M147.952,302.917c1.667,0.417 5,1.667 7.083,2.917l3.75,2.083l-5.833,5.417c-8.75,7.917 -10.833,8.333 -18.75,4.167c-6.25,-3.333 -9.167,-3.333 -13.333,0c-5.417,4.583 -5,4.583 -10.417,2.917c-2.917,-0.833 -7.5,-1.667 -10.417,-1.667c-5,0 -5.833,0 -9.167,2.5c-5.833,3.75 -8.333,3.333 -13.75,-1.667c-5.417,-5 -7.083,-5.417 -15,-4.167c-9.583,1.667 -11.667,1.25 -16.667,-3.75c-4.583,-5 -10.417,-7.5 -17.5,-7.5c-5.833,0 -5,-0.833 3.333,-2.917c3.75,-0.833 5.833,-2.083 6.667,-2.917c1.25,-1.667 1.25,-1.667 -0.833,-1.667c-5,0 -17.5,4.583 -22.5,8.333c-3.333,2.5 -1.667,3.333 9.167,2.917c11.667,0 15.417,1.25 19.583,6.25c4.583,5.417 8.75,6.667 17.5,5c9.167,-1.667 9.583,-1.667 14.167,2.917c6.667,6.25 9.167,6.667 17.5,2.5c5,-2.5 5.417,-2.917 10,-2.5c2.5,0.417 6.667,1.25 9.167,2.083c5,1.667 5.417,1.667 11.667,-3.333c2.083,-1.667 4.167,-2.917 4.167,-2.917c0,0 2.917,1.25 5.833,2.917c4.167,2.5 6.25,2.917 9.583,2.917c2.083,0 5,-0.417 5.833,-0.833c2.5,-1.25 14.167,-12.083 15,-13.75c0.833,-2.083 -5.417,-6.25 -15,-9.167c-6.25,-2.083 -6.667,-2.083 -4.583,0.417c-0.417,0.417 1.667,1.667 3.75,2.5Z" style="fill:#fff;fill-rule:nonzero;"/><path d="M53.369,180.833l-4.167,-3.333l2.083,4.167c2.917,5.417 11.25,13.75 16.25,16.667c4.583,2.5 15,5.417 26.667,7.083c7.917,1.25 12.5,2.917 12.917,4.167c1.25,11.25 2.917,19.167 5.833,28.333c0,0.417 0.417,0.417 0.417,0.833c2.083,4.167 8.333,7.917 13.333,7.917l3.75,0l-2.5,-2.917c-5,-5.417 -8.75,-16.25 -8.75,-25c0,-5 -1.667,-12.083 -3.333,-13.75c-2.083,-2.083 -6.667,-3.75 -17.083,-5c-19.167,-2.5 -32.083,-7.917 -45.417,-19.167Z" style="fill:#fff;fill-rule:nonzero;"/><path d="M84.619,208.75c-9.583,0 -17.083,-1.25 -21.25,-3.75c-4.167,-2.083 -9.583,-6.667 -12.083,-10l-2.917,-3.333l-0.833,3.75c-1.25,5.417 -1.25,6.667 2.083,9.583c9.583,8.75 18.75,11.25 32.917,7.5c3.333,-0.833 7.5,-2.083 8.75,-2.5c2.5,-1.25 2.5,-1.25 -6.667,-1.25Z" style="fill:#fff;fill-rule:nonzero;"/><path d="M92.119,237.5c2.083,-0.833 2.5,-0.833 5.833,0.833c3.75,2.083 12.917,3.75 14.583,3.333c0.833,-0.417 1.25,-1.25 0.833,-2.5c0,0 -2.917,-7.917 -3.75,-12.083c-0.417,-0.417 -0.833,-0.417 -1.25,0c-8.333,2.917 -13.333,1.25 -24.167,-7.917c-3.75,-2.917 -4.167,-3.333 -3.75,-1.667c1.25,3.75 5.417,10.417 9.583,14.583l4.167,4.583c-1.667,0 -2.917,-0.417 -4.167,-0.833c-0.833,0 -1.667,0 -2.5,-0.417c-2.917,-0.417 -7.5,-1.25 -10.417,-2.083c-1.25,-0.417 -1.667,-0.417 -2.083,-0.833c-16.667,-5 -29.167,-13.75 -36.667,-24.583c9.167,10.417 19.583,17.917 35,23.333c-2.5,-5 -4.167,-8.333 -5.417,-12.083c-8.75,0 -14.583,-2.5 -22.5,-7.5c-2.917,-2.083 -5,-3.75 -5,-4.167c0,-0.417 -0.417,-2.083 -1.667,-4.167c-0.833,-2.083 -1.667,-5.417 -2.083,-7.5c-0.417,-3.333 -1.25,-5.417 -5.417,-10.833c-8.333,-12.083 -18.333,-30.833 -11.25,-46.25c-5,15 2.083,32.083 11.667,45.833c4.167,5.417 13.333,15.833 13.75,15.833c0.833,0 2.5,-7.083 2.5,-10l0,-2.083l1.25,2.083c3.333,5 10,10.833 14.583,12.917c6.667,2.917 11.25,3.75 22.917,3.75c12.083,0 15.833,-0.833 7.917,-1.667c-7.5,-0.833 -18.75,-3.75 -24.583,-6.667c-10.417,-5 -18.75,-15.833 -22.917,-28.333c-0.417,-1.25 -0.833,-2.917 -1.25,-4.583l0,-0.417c-2.917,-15.417 -2.083,-32.083 -1.667,-47.5c-3.333,22.917 -6.25,35 -0.833,60l3.333,7.917l1.25,2.5l-4.167,-2.083c-4.167,-2.5 -11.25,-8.75 -12.917,-12.083l-0.833,-2.083l1.25,2.083c2.917,4.167 8.333,9.583 11.25,10.833l2.917,1.667l-4.167,-10.417c-11.667,-28.333 -12.083,-36.25 -0.417,-58.333c1.667,-3.75 2.917,-6.667 3.75,-8.75l0,-4.167l-0.417,0c-9.167,5.417 -18.75,15.417 -26.25,25c-9.583,15 -7.917,43.333 7.083,62.083c1.25,2.083 5.417,6.25 8.333,9.583c3.333,3.333 5,5.833 4.583,5.417c-1.25,-0.417 -1.25,-0.417 -0.833,1.25c4.583,16.25 10,23.75 19.167,27.917c4.583,2.083 14.167,4.167 19.583,4.167c4.167,0.417 12.917,-1.25 16.25,-2.917Zm-55,-125.417c-4.583,8.75 -18.333,35.833 -11.667,48.75c-7.5,-10.833 4.583,-36.667 11.667,-48.75Z" style="fill:#fff;fill-rule:nonzero;"/><path d="M120.869,291.25c-1.667,0 -5,0.417 -8.333,1.25c-5.417,1.25 -5.417,1.25 -11.25,-0.833l-5.417,-2.083l-3.75,1.667c-3.333,1.667 -4.583,1.667 -15.417,1.667c-6.667,0 -11.667,0 -11.667,0.417c0,0.417 0.417,1.25 0.833,2.083c0.833,1.667 1.25,1.667 12.917,1.25c10,-0.417 12.5,-0.417 15,-1.667c2.917,-1.667 2.917,-1.667 7.083,0.417c3.333,1.25 5,1.667 8.75,1.25c2.5,-0.417 6.667,-0.833 9.167,-0.833c4.583,-0.417 5,-0.417 5,-2.083c0,-2.5 -0.417,-2.5 -2.917,-2.5Z" style="fill:#fff;fill-rule:nonzero;"/><path d="M137.535,165.417c-0.417,0 0,0.833 2.083,2.083c5,2.083 11.25,8.75 14.167,14.583c2.917,6.25 3.333,11.25 4.167,34.583c0.417,15.417 0.417,15.833 2.083,16.25c2.917,0.417 1.25,0.833 -2.083,0.833c0.417,0.417 0.417,0.417 0,0.417l-4.583,0c-2.5,-0.417 -2.917,-0.833 -3.75,-1.25c-0.417,0 -0.833,0 -0.833,-0.417c-0.417,0 -0.833,-0.417 -1.25,-1.25c-0.833,-0.833 -1.667,-1.667 -2.5,-2.917c-0.833,-1.25 -0.833,-1.25 -0.417,-1.667l-0.417,-0.417c-2.917,-5.417 -3.333,-5.833 -5.417,-20.417c-1.25,-8.333 -2.5,-15.833 -3.333,-17.083c-2.083,-4.167 -5.417,-5 -20.833,-5.833c-4.583,0 -7.917,-0.417 -10.417,-0.417c0,0.417 -1.25,0 -3.333,0c-0.417,0 -0.833,0 -0.833,-0.417c-1.667,-0.417 -2.917,-0.417 -3.333,-0.833c-8.333,3.333 -20,3.75 -30,0c3.75,3.75 11.25,7.083 17.083,8.333c2.5,0.417 9.583,0.833 15,0.833c12.083,0 22.917,1.25 26.25,2.917c3.333,1.667 4.583,4.583 7.083,16.25c3.333,17.5 6.25,23.75 11.667,25.833c2.917,0.833 11.667,0.833 14.167,-0.417c0.833,-0.417 1.25,0 1.667,1.667c0.833,3.75 5,8.75 9.583,11.25c4.167,2.083 9.167,2.917 9.167,1.667c0,-0.417 -1.667,-2.5 -3.75,-5c-2.083,-2.5 -4.167,-5.417 -4.583,-6.667c-0.417,-1.25 -0.833,-7.917 -1.25,-15c-0.417,-7.083 -0.833,-16.25 -1.25,-20.417c-1.25,-17.5 -14.583,-33.333 -30,-37.083Z" style="fill:#fff;fill-rule:nonzero;"/><path d="M43.785,127.5l0,-18.75c-0.833,2.083 -2.083,5.417 -3.75,8.75c-11.25,22.5 -11.25,30.417 0.417,58.333l4.167,10.417l-2.917,-1.667c-2.917,-1.25 -8.333,-6.667 -11.25,-10.833l-1.25,-2.083l0.833,2.083c1.667,3.333 8.333,10 12.917,12.083l4.167,2.083l-1.25,-2.5l-3.333,-7.917c-5.833,-25 -2.5,-37.083 0.833,-60c-0.417,15.833 -1.25,32.083 1.667,47.5l0,0.417c0,-0.833 -0.417,-1.25 -0.417,-2.083c-0.417,-4.583 -0.833,-12.083 -0.833,-35.833Z" style="fill:#cad4d7;fill-rule:nonzero;"/><path d="M181.702,240c-3.333,-4.583 -6.25,-15 -6.25,-22.917c0,-5 0,-5.417 1.25,-4.167c0.833,0.417 0,-0.417 -1.667,-2.5c-2.917,-3.333 -7.5,-13.333 -8.333,-15.417c-3.75,-15.417 -17.083,-27.5 -28.75,-30c-0.833,0 -5.833,0.417 -12.5,2.083c-5.417,1.25 -30,12.917 -29.167,14.167c-16.25,3.75 -17.917,2.083 -30.417,-0.417c-1.667,-1.667 -3.333,-2.917 -4.583,-4.583c-3.333,-3.333 -5.833,-8.75 -8.333,-17.917c-2.083,-7.5 -2.083,-8.333 -2.5,-31.25c-0.417,-25.417 -0.417,-27.5 -1.25,-29.167c-0.417,-0.833 -0.417,-0.833 0.417,-0.833c1.667,0 6.25,3.333 7.917,5.417c4.583,6.25 6.25,18.333 4.167,31.25c-1.25,7.917 -1.25,20.417 0,28.333c0.417,1.667 0,1.667 -1.667,-1.667c-0.417,-0.833 -0.833,-1.25 -1.25,-2.083c-8.333,-16.667 4.167,-44.583 -7.5,-57.5c10.833,23.333 -7.917,57.5 20,75c2.083,1.25 5,2.5 7.083,3.333c2.917,0.833 3.75,0.833 6.667,0c1.667,-0.833 3.333,-1.667 4.583,-2.5c-3.333,1.667 -7.5,2.917 -10.417,2.083c-7.5,-1.25 -15,-7.917 -17.083,-15c-1.667,-5.833 -1.667,-23.75 -0.417,-33.75c1.667,-11.667 -0.417,-24.167 -5.833,-29.583c-2.083,-2.083 -2.083,-3.75 0,-3.75c0.417,0 1.667,0.833 1.667,2.083c0.833,2.083 1.667,2.5 2.917,0.833c0.417,-0.833 2.083,-1.25 3.333,-1.25c3.75,0 7.5,-7.083 4.167,-7.917c-0.833,-0.417 -2.5,-0.417 -3.75,-0.833l-2.5,-0.417l2.083,-2.083c3.333,-3.75 2.917,-4.167 -4.167,-3.75c-3.333,0.417 -6.25,0.417 -6.25,0c0,-0.417 1.25,-2.5 2.5,-4.583c1.25,-2.083 2.083,-4.583 2.083,-5c-0.417,-0.417 -3.333,0 -6.667,0.833c-3.333,0.833 -6.667,1.25 -7.083,1.25c-0.417,0 -0.833,-2.083 -1.25,-4.167c-0.417,-2.5 -0.833,-4.167 -1.25,-4.167c-0.417,0 -2.083,2.083 -2.917,5c-0.833,2.917 -2.917,5.417 -4.167,6.25c-1.667,1.25 -2.083,1.25 -5.833,0c-5.417,-1.667 -11.667,-2.083 -12.917,-1.25c-1.25,0.833 -0.833,1.667 6.25,5.833c2.5,1.667 4.167,2.917 4.167,2.917c0,0 -3.333,0 -7.083,-0.833c-5.417,-0.833 -7.083,-0.417 -7.917,0c-1.25,1.25 0.417,2.5 8.333,6.25c6.25,2.917 6.25,3.333 5.833,5c-1.25,4.583 -5.417,6.667 -12.5,5.833c-3.333,-0.417 -5,0 -7.083,0.833c-4.583,2.5 -3.75,6.25 1.667,8.75c2.917,1.25 2.917,1.25 1.25,2.5c-2.083,2.083 -3.333,6.25 -2.5,7.917c2.5,2.5 6.667,2.5 11.25,0.417c4.583,-1.667 4.583,-1.667 -4.167,7.5c-12.5,13.333 -15.833,25.417 -11.667,44.167c1.667,6.667 6.667,16.667 10.833,21.25c2.917,3.333 3.333,4.583 4.167,9.583c1.25,9.167 2.083,11.25 6.25,15.417c7.5,7.917 16.25,12.917 24.167,12.917c2.5,0 2.917,0 3.75,3.75c1.667,6.25 8.75,15.417 15.417,19.583c1.667,1.25 3.333,2.5 3.333,3.333c0.833,2.083 -1.667,12.083 -3.333,15.833c-1.25,2.5 -6.667,8.333 -10.833,10.833c0,0 -0.417,0.833 -0.417,2.083c0,1.25 -0.833,1.667 -3.75,2.5c-4.583,0.833 -13.75,2.5 -20.417,4.167c-5.833,1.25 -17.5,7.083 -18.75,9.167c-1.667,2.5 0.417,3.333 10.833,2.917c11.667,0 14.583,0.833 18.75,5.833c1.667,2.083 3.75,4.167 5.417,4.583c2.5,1.25 10,1.667 15,0.417c5.417,-1.25 7.5,-0.833 10,1.667c1.25,1.25 3.75,3.333 5.833,4.583c2.917,2.083 4.167,2.083 7.083,1.667c2.083,-0.417 5,-1.25 6.667,-2.5c5,-3.333 13.75,-2.917 22.917,0.833c1.25,0.417 5.417,-2.083 10.417,-5.833l2.083,-1.667l5.417,2.917c4.167,2.083 6.25,2.917 9.167,2.917c5.833,0 7.917,-1.25 15.833,-8.75c6.667,-6.25 6.667,-6.667 5.833,-8.333c-1.667,-2.5 -9.167,-6.667 -16.667,-8.333c-14.167,-3.75 -13.75,-3.75 -16.667,-14.583c-0.833,-3.333 -3.75,-10.833 -6.25,-16.25c-4.167,-8.333 -7.083,-16.667 -8.75,-24.583l-0.417,-2.5l2.083,2.083c3.333,3.333 6.667,4.583 11.667,4.583c3.75,0 4.167,0 3.333,-0.833c-0.417,-0.417 -1.25,-5.833 -2.083,-12.083c-1.667,-15 -4.167,-29.583 -5.417,-32.5c-2.083,-4.583 -6.667,-7.5 -15.417,-9.583l-4.583,-0.833l3.75,0c5,0 14.167,1.25 16.667,2.5c2.917,1.25 4.167,4.583 6.667,17.083c3.75,17.5 6.25,23.333 11.667,25l0.417,0c1.25,0.417 5,0.417 10,0.417l1.25,0c0,0 0,-0.417 0.417,-0.417c0.417,0 1.25,0 1.667,-0.417c0.833,-0.417 1.25,0.417 2.083,2.083c2.083,6.25 9.583,12.083 16.25,12.5c5,0.417 5,-0.417 0,-6.25c-2.083,-2.5 -4.167,-5 -4.583,-6.25c-0.417,-1.25 -0.833,-6.25 -1.25,-13.333c0,-11.25 -0.833,-19.583 -1.667,-22.917c0,-0.833 0.833,0.417 2.083,2.5c1.25,2.5 2.917,4.583 3.333,5.417c0.833,0.833 1.25,2.917 1.25,6.667c0,7.083 1.667,14.583 4.583,20c4.583,9.167 4.583,9.167 4.167,-6.25l0,-5.417l0,3.75c0,12.5 0,13.75 -1.25,12.5Zm-161.667,-148.75c-4.167,-2.083 -7.5,-4.167 -7.5,-4.583c0,-0.833 3.333,-0.833 10,0c2.917,0.417 5.833,0.833 6.25,0.417c0.417,0 -1.667,-2.083 -5,-3.75c-3.333,-2.083 -6.25,-4.167 -6.667,-5c-0.417,-0.833 -0.833,-0.833 0.417,-0.833c0.833,0 2.083,0 3.75,0.417c6.667,0.833 8.333,1.25 10.417,4.167c1.667,2.083 1.667,2.5 4.167,1.25c4.167,-1.667 6.25,-1.25 9.583,2.083c2.917,2.917 2.917,3.333 2.917,7.083c0,5 -1.667,8.333 -6.25,11.25c-4.167,3.333 -7.083,2.917 -9.167,0c-2.917,-6.667 -5.417,-8.75 -12.917,-12.5Zm9.167,9.167c-0.417,-0.833 -0.417,-2.083 -0.417,-2.083c0,0 1.25,1.25 2.5,3.75c0.833,1.667 2.083,2.917 2.5,3.333c0.833,0.833 2.5,1.25 4.583,1.25c1.667,0 1.667,0 1.25,0.417c-0.833,0.417 -10.833,7.917 -11.25,8.333l-0.417,0c0,0 0.417,-0.833 0.833,-2.083c1.25,-4.167 1.667,-9.167 0.417,-12.917Zm-0.417,125c-4.167,-2.917 -8.333,-8.75 -9.583,-12.917c-1.25,-4.167 -2.5,-19.583 -2.5,-28.75l0,-4.583c2.083,4.167 4.583,8.333 7.5,12.5c0.417,0.417 0.833,4.167 0.833,8.333c0,10 1.25,16.667 3.75,22.5l2.083,5l-2.083,-2.083Zm27.5,11.25c-9.167,-4.167 -14.583,-12.083 -19.167,-27.917c-0.417,-1.25 -0.417,-1.667 0.833,-1.25c0.833,0.417 -1.25,-2.083 -4.583,-5.417c-3.333,-3.333 -7.083,-7.917 -8.333,-9.583c-14.583,-18.75 -16.667,-47.083 -7.917,-62.5c7.5,-9.583 17.5,-19.583 26.25,-25l0.417,0l0,-0.417l1.667,-2.083c1.667,-1.667 2.083,-2.5 2.5,-2.5l0.417,0c0.833,0.833 1.25,4.583 1.667,9.583l0,12.5c-0.417,19.583 -0.417,24.167 1.25,32.083c0.833,3.75 2.083,8.75 2.917,11.667c1.25,3.333 2.917,6.667 4.583,8.75c1.25,1.667 2.5,2.917 4.167,4.583c4.167,4.167 7.917,6.667 12.917,8.75c1.667,0.833 2.917,1.25 2.917,1.667c0.417,0.417 -1.25,0 -3.333,-0.417c-10,-2.917 -19.583,-7.5 -25,-12.083c-2.083,-2.083 -3.333,-3.75 -4.583,-5.833c4.167,12.5 12.5,23.333 22.917,28.333c5.833,2.917 17.5,5.833 24.583,6.667c8.333,0.833 4.167,1.667 -7.917,1.667c-11.667,0 -16.25,-0.833 -22.917,-3.75c-4.583,-2.083 -10.833,-7.917 -14.583,-12.917l-1.25,-2.083l0,2.083c0,2.917 -1.667,10 -2.5,10c-0.833,0 -9.583,-10 -13.75,-15.833c-10,-13.75 -17.083,-30.833 -11.667,-45.833c-7.083,15.833 2.917,34.583 11.25,46.25c4.167,5.417 5,7.083 5.417,10.833c0.417,2.5 1.25,5.833 2.083,7.5c0.833,2.083 1.667,3.75 1.667,4.167c0,0.417 2.083,2.083 5,4.167c7.917,4.583 13.75,7.083 22.5,7.5c1.25,4.167 2.917,7.083 5.417,12.083c-15.417,-5.417 -25.833,-12.917 -35,-23.333c7.5,10.833 20,19.583 36.667,24.583c-0.417,0 -0.833,-0.417 -0.833,-0.833c-1.25,-2.083 -5,-8.75 -5.833,-11.667c-0.417,-1.25 -0.417,-1.667 1.25,-2.083c0.417,0 2.083,-0.833 2.917,-1.667c2.5,-1.667 3.333,-2.083 4.167,-2.083c1.667,0 2.917,1.25 5,5.833c2.5,5.417 5.833,9.583 9.167,13.333l2.083,2.083l-2.083,0c1.25,0 2.917,0.417 4.167,0.833l-4.167,-4.583c-4.167,-4.583 -8.333,-10.833 -9.583,-14.583c-0.417,-1.667 0,-1.25 3.75,1.667c10.833,9.167 15.833,10.833 24.167,7.917c0.833,-0.417 1.25,-0.417 1.25,0c1.25,4.167 3.75,12.083 3.75,12.083c0.417,1.667 0,2.083 -0.833,2.5c-1.667,0.833 -10.833,-1.25 -14.583,-3.333c-3.333,-1.667 -3.75,-1.667 -5.833,-0.833c-2.917,1.667 -12.083,3.333 -16.25,3.333c-5,-0.417 -14.583,-2.5 -19.167,-4.583Zm37.5,-27.083c5.417,-2.083 5.833,-2.5 7.5,-2.5c3.333,0 4.583,0.833 5.417,5c1.25,4.167 2.5,11.667 2.5,13.333c0,0.417 -0.417,0.417 -2.083,-0.417c-2.083,-1.25 -15,-10.833 -16.667,-12.083c-0.417,-0.417 -0.833,-0.833 -0.833,-1.25c0.417,-0.417 1.25,-0.833 4.167,-2.083Zm-11.25,2.917c-14.167,3.333 -23.75,1.25 -32.917,-7.5c-3.333,-2.917 -3.333,-4.167 -2.083,-9.583l0.833,-3.75l2.5,3.333c2.5,3.75 7.917,7.917 12.083,10c4.583,2.5 12.083,3.75 21.25,3.75c9.167,0 9.167,0 6.667,1.25c-1.25,0.417 -5,1.667 -8.333,2.5Zm-41.25,85.833c1.25,-0.417 3.333,-0.833 5,-0.833l0.417,0c0.417,0 0.833,0 0.417,0.417c0,0 -2.083,0.417 -4.167,0.833c-2.5,0 -3.333,0 -1.667,-0.417Zm106.25,0.833c9.583,2.917 15.833,7.083 15,9.167c-0.417,1.667 -12.5,12.5 -15,13.75c-0.833,0.417 -3.75,0.833 -5.833,0.833c-3.333,0 -5,-0.417 -9.583,-2.917c-2.917,-1.667 -5.417,-2.917 -5.833,-2.917c-0.417,0 -2.083,1.25 -4.167,2.917c-6.25,5 -6.25,5 -11.667,3.333c-2.5,-0.833 -6.667,-1.667 -9.167,-2.083c-4.583,-0.417 -5,-0.417 -10,2.5c-7.917,4.167 -10.833,3.75 -17.5,-2.5c-4.583,-4.583 -5,-4.583 -14.167,-2.917c-8.75,1.667 -13.333,0.417 -17.5,-5c-4.167,-5 -7.917,-6.25 -19.583,-6.25c-10.417,0 -12.5,-0.417 -9.167,-2.917c5,-3.75 17.5,-8.333 22.5,-8.333c2.083,0 2.083,0 0.833,1.667c-0.833,1.25 -2.917,2.083 -6.667,2.917c-8.333,2.083 -9.167,2.917 -3.333,2.917c7.083,0 12.917,2.5 17.5,7.5c4.583,5 6.667,5.417 16.667,3.75c7.917,-1.25 10,-0.833 15,4.167c5,5 7.917,5 13.75,1.667c3.333,-2.083 4.167,-2.5 9.167,-2.5c3.333,0 7.5,0.833 10.417,1.667c5.417,1.667 4.583,1.667 10.417,-2.917c4.167,-3.333 7.083,-3.333 13.333,0c7.917,4.167 10.417,3.75 18.75,-4.167l5.833,-5.417l-3.75,-2.083c-2.083,-1.25 -5.417,-2.5 -7.083,-2.917c-2.083,-0.417 -3.75,-1.667 -5,-3.333c-0.833,-1.667 -0.417,-1.667 5.833,0.417Zm-12.917,0c1.667,0 5.833,0.833 7.083,1.25c0.833,0.417 1.25,0.417 0.417,0.417c-2.083,0 -7.917,-1.25 -8.333,-1.667l0.833,0Zm-5.833,5.833c0.417,-0.833 0.833,-1.25 0.833,-1.25c0,0 1.25,0 2.917,0.417c1.667,0.417 3.333,0.833 4.583,1.25c5,0.833 12.083,3.333 12.917,4.167c0.417,0.417 0,0.833 -2.083,2.5c-2.917,2.5 -4.583,3.75 -6.667,3.75c-1.667,0 -3.333,-0.417 -6.667,-2.083c-4.167,-2.083 -5.833,-2.5 -8.75,-2.5c-3.333,0 -5.417,1.25 -9.583,4.583l-1.667,0.833l-3.75,-0.833c-2.083,-0.417 -5,-1.25 -6.25,-1.25c-3.333,-0.417 -8.75,-0.417 -10.417,0c-0.833,0 -3.333,1.25 -5.833,2.5c-2.5,1.25 -4.583,2.083 -4.583,2.083c0,0 -0.833,-0.417 -1.25,-0.833c-0.833,-0.417 -2.5,-2.083 -3.75,-2.917c-2.5,-2.5 -4.583,-3.75 -6.25,-4.583c-1.25,-0.417 -1.667,-0.417 -4.583,-0.417c-2.083,0 -4.583,0 -6.667,0.417c-5,0.833 -7.5,0.833 -9.167,0.417c-1.25,-0.417 -1.667,-0.417 -3.75,-2.917c-2.5,-2.5 -3.333,-3.75 -2.917,-3.75c0,0 2.5,-0.417 7.917,-1.25c1.667,0 3.333,-0.417 4.167,-0.833c2.083,-0.833 5.417,-0.833 15.833,-0.833c10.417,0 15.833,-0.417 17.917,-0.833c0.833,-0.417 1.667,-0.417 2.5,-0.833c0.833,-0.417 1.667,-0.833 2.5,-0.833c0.833,0 2.083,0.417 3.75,0.833c3.333,1.25 5.833,1.667 7.083,1.667l0.833,0c0,0 -1.25,0.833 -2.5,1.25c-2.5,1.25 -4.167,2.5 -4.167,2.917l1.25,0c0.833,-0.417 3.75,-0.833 7.083,-1.25l1.25,0l-0.833,0.417l-1.667,1.25c-1.667,0.833 -3.333,2.5 -3.75,3.333c-0.417,1.25 -0.417,1.25 0,0.833c0.833,-0.833 2.5,-0.833 13.75,-1.667c7.5,0 9.167,-0.833 10.417,-3.75Zm-5,-12.083c0,1.667 -0.417,2.083 -5,2.083c-2.5,0.417 -6.667,0.833 -9.167,0.833c-3.75,0.417 -5,0 -8.75,-1.25c-4.167,-1.667 -4.167,-1.667 -7.083,-0.417c-2.5,1.25 -5,1.667 -15,1.667c-11.667,0.417 -12.083,0.417 -12.917,-1.25c-0.417,-0.833 -0.833,-1.667 -0.833,-2.083c0,-0.417 5.417,-0.417 11.667,-0.417c10.833,0 12.083,0 15.417,-1.667l3.75,-1.667l5.833,2.083c5.833,2.083 5.833,2.083 11.25,0.833c2.917,-0.833 6.667,-1.25 8.333,-1.25c2.083,0.833 2.5,0.833 2.5,2.5Zm-2.5,-8.333c2.5,4.583 2.5,5.833 0,5.833c-1.25,0 -5,0.417 -8.333,1.25c-6.25,1.25 -6.667,1.25 -10,-0.417c-5.833,-2.5 -7.5,-2.5 -10.417,-0.833c-3.333,1.667 -9.167,2.083 -19.583,1.667c-6.25,-0.417 -7.083,-0.833 -6.25,-1.667c0.417,-0.833 0.833,-2.083 0.833,-3.333c0,-2.5 5.833,-13.75 10.417,-19.167c3.75,-4.583 5.833,-8.333 5.833,-10c0,-0.417 -2.5,-4.167 -5.833,-8.333l-5.833,-7.5l12.5,-1.667l12.917,13.333c12.083,13.333 19.167,22.5 23.75,30.833Zm-5.833,-80c1.667,1.667 3.333,9.167 3.333,13.75c0,8.75 4.167,19.583 8.75,25l2.5,2.917l-3.75,0c-5,0 -11.25,-3.75 -13.333,-7.917c0,-0.417 0,-0.417 -0.417,-0.833c-2.917,-9.167 -4.583,-17.5 -5.833,-28.333c0,-1.25 -5,-2.917 -12.917,-4.167c-11.667,-1.667 -22.083,-4.583 -26.667,-7.083c-5,-2.917 -13.333,-11.25 -16.25,-16.667l-2.083,-4.167l4.167,3.333c13.333,11.25 25.833,16.25 45,18.75c10.833,2.083 15.417,3.333 17.5,5.417Zm53.333,17.5c0,7.083 0.833,14.167 1.25,15c0.417,1.25 2.5,4.167 4.583,6.667c2.083,2.5 3.75,4.583 3.75,5c0,1.25 -5.417,0.417 -9.167,-1.667c-4.583,-2.5 -9.167,-7.5 -9.583,-11.25c-0.417,-1.667 -0.833,-2.083 -1.667,-1.667c-2.917,1.25 -11.667,1.25 -14.167,0.417c-5.417,-1.667 -8.333,-8.333 -11.667,-25.833c-2.5,-11.667 -3.75,-15 -7.083,-16.25c-3.333,-1.667 -14.167,-2.917 -26.25,-2.917c-5.417,0 -12.083,-0.417 -15,-0.833c-5.833,-0.833 -12.917,-4.583 -17.083,-8.333c10,3.75 21.667,3.333 30,0c0.417,0.417 1.667,0.833 3.333,0.833c-1.667,-0.417 -3.333,-0.833 -3.333,-1.25c0,0 9.167,-5.417 13.333,-7.5c2.917,-1.667 8.75,-4.167 9.167,-4.167c0.417,-0.833 7.5,-2.5 11.667,-3.333c4.167,-0.833 5,-0.417 8.333,1.25c5,2.917 11.667,9.167 14.167,14.167c2.917,5.417 3.333,10.833 4.167,32.5l0.417,18.333l-2.5,0c0.417,0.417 1.25,0.417 2.5,0.417c0.417,0 0.417,0.417 0.833,0.417c3.333,0 5,-0.417 2.083,-0.833c-1.667,-0.417 -1.667,-0.833 -2.083,-16.25c-0.833,-22.917 -1.25,-28.333 -4.167,-34.583c-2.917,-5.833 -9.167,-12.5 -14.167,-14.583c-2.083,-0.833 -2.917,-2.083 -2.083,-2.083c15.417,3.333 28.333,19.583 29.583,36.25c-0,5.833 0.833,15 0.833,22.083Z" style="fill:#cad4d7;fill-rule:nonzero;"/><path d="M37.119,91.667c0.833,-0.833 1.25,-1.667 0.833,-2.917c-0.417,-1.25 -0.833,-1.667 -2.5,-1.667c-0.833,0 -1.25,0 -2.083,0.833c-0.417,0.417 -0.833,0.833 -0.833,1.667c0,0.833 0.417,1.667 1.25,2.5c0.833,0.417 2.917,0 3.333,-0.417Z" style="fill:#b0babf;fill-rule:nonzero;"/><path d="M143.369,235.833l-0.417,0c0,-0.417 0.417,0 0.417,0c3.333,0.833 3.75,1.25 4.583,3.75c0,0.417 0.417,1.25 0.417,1.667c0.417,0.833 0.833,1.667 1.25,2.5c0.417,0.833 0.833,1.25 1.25,2.083c0.417,0.417 0.417,0.417 0.833,0.833c2.917,2.917 6.667,5 10.417,5c2.917,0 4.583,-0.417 5,-0.833c-0.417,-0.417 -1.25,-1.25 -2.917,-2.5c-2.917,-2.083 -8.333,-7.917 -9.583,-10c-0.417,-0.833 -0.417,-1.25 -0.417,-1.25l0,-0.417l-1.25,0c-4.583,-0.417 -8.333,-0.417 -9.583,-0.833Z" style="fill:#b0babf;fill-rule:nonzero;"/><path d="M104.202,182.5c0,0 0.417,0 0,0c-0.833,-0.417 2.083,-1.25 7.917,-2.917c5.833,-1.25 11.667,-2.5 12.917,-2.5c5.833,0 12.917,5.833 15.417,12.5c0,0.417 0.417,0.833 0.417,1.25c0,0.417 0.417,1.25 0.417,1.667c0.833,3.333 1.25,8.75 2.083,19.167c0.417,4.583 0.833,9.583 1.25,14.167c0,0 0,0.417 -0.417,0.417c1.25,1.667 2.083,3.333 2.917,4.583c0.417,0.417 1.25,0.833 1.667,1.25c1.25,0.417 3.333,0.833 5.417,0.833l2.917,0c0,0 -0.417,-0.417 -0.833,-0.417c-1.25,0 -1.667,0 -2.5,-0.417c-1.25,0 -1.667,-0.417 -1.667,-1.25l0,-10.833c-0.833,-24.583 -1.667,-32.083 -4.167,-38.75c-1.25,-3.75 -2.5,-5.417 -4.583,-7.917c-2.917,-2.917 -6.25,-4.583 -10.833,-5l-2.083,0c-2.083,0 -4.583,0.417 -7.917,1.25c-4.583,0.833 -4.583,0.833 -4.583,0.417l0,-0.417c-0.417,0 -5.833,2.5 -9.167,4.167c-4.167,2.083 -13.333,7.083 -13.333,7.5c0,0 2.083,0.833 3.333,1.25c2.5,-0.417 3.75,0 5.417,0Z" style="fill:#b0babf;fill-rule:nonzero;"/><path d="M104.619,310.417c-0.833,0.417 -0.833,0.417 0,-0.833c0.417,-0.833 2.083,-2.5 3.75,-3.333l2.083,-1.25l0.833,-0.417l-1.25,0c-3.333,0.417 -6.25,0.833 -7.083,1.25c-0.417,0 -1.25,0.417 -1.25,0c-0.417,-0.417 1.667,-1.667 4.167,-2.917c1.25,-0.833 2.5,-1.25 2.5,-1.25l-0.833,0c-1.25,0 -4.167,-0.833 -7.083,-1.667c-1.667,-0.417 -2.5,-0.833 -3.75,-0.833c-0.833,0 -1.667,0 -2.5,0.833c-0.833,0.417 -1.667,0.833 -2.5,0.833c-2.083,0.417 -7.5,0.833 -17.917,0.833c-10.417,0 -14.167,0.417 -15.833,0.833c-0.833,0.417 -2.5,0.417 -4.167,0.833c-5.417,0.833 -7.917,0.833 -7.917,1.25c-0.417,0.417 0.833,1.667 2.917,3.75c2.5,2.5 2.5,2.5 3.75,2.917c1.667,0.417 4.167,0.417 9.167,-0.417c2.083,-0.417 4.583,-0.417 6.667,-0.417c2.917,0 3.333,0 4.583,0.417c1.667,0.833 3.75,2.083 6.25,4.583c1.25,1.25 2.917,2.5 3.75,2.917c0.833,0.417 1.25,0.833 1.25,0.833c0,0 2.083,-0.833 4.583,-2.083c2.5,-1.25 5.417,-2.5 5.833,-2.5c1.667,-0.417 7.083,-0.417 10.417,0c1.25,0 4.167,0.833 6.25,1.25l3.75,0.833l2.083,-1.667c4.167,-3.333 6.25,-4.583 9.583,-4.583c2.5,0 4.167,0.417 8.75,2.5c3.75,1.667 5,2.5 6.667,2.083c2.083,0 3.75,-0.833 6.667,-3.75c1.667,-1.667 2.083,-2.083 2.083,-2.5c-0.417,-0.833 -7.917,-2.917 -12.917,-4.167c-1.667,-0.417 -3.333,-0.833 -4.583,-1.25c-1.25,-0.417 -2.5,-0.417 -2.917,-0.417c0,0 -0.417,0.833 -0.833,1.25c-1.667,2.917 -3.333,3.75 -10.417,4.167c-12.083,1.25 -13.333,1.667 -14.583,2.083Z" style="fill:#b0babf;fill-rule:nonzero;"/><path d="M195.869,164.167c-0.833,-9.583 -6.25,-20.833 -13.75,-28.333c-3.75,-3.75 -7.5,-6.25 -12.917,-8.75c-7.5,-3.75 -16.25,-5.417 -23.333,-5.417c-1.667,0 -3.333,0 -4.583,0.417c-8.75,1.25 -16.25,5.833 -23.75,14.583c-5,5.417 -8.75,11.667 -15.833,25c-2.5,5 -4.167,8.75 -7.083,12.083c-0.417,0.417 -0.417,0.833 -0.833,0.833c-0.833,0.833 -2.083,1.667 -3.75,2.5c-1.25,0.833 -2.917,1.667 -4.583,2.5c0.417,0 1.25,-0.417 1.667,-0.417c3.333,-0.833 6.25,-2.5 8.75,-3.75c5.833,-4.583 11.25,-11.667 16.25,-18.75l1.25,-2.083c1.667,-2.917 6.25,-7.917 10.833,-12.083c0.417,-0.417 1.25,-1.25 2.083,-1.667c2.917,-2.5 5.833,-4.583 7.917,-5.833c8.333,-4.167 20.417,-3.75 30.417,1.25c5.833,2.917 14.583,10.833 17.5,15.833c1.25,2.5 2.5,5.417 3.75,8.75c0.417,0.833 0.417,1.667 0.833,2.5c0,0.417 0.417,0.833 0.417,1.25c0.417,2.083 0.833,4.167 1.25,6.667c0.833,6.667 1.25,12.083 1.667,25.833c0,12.5 0.417,15.833 0.417,17.083l0,0.417c0.833,0 2.5,-3.333 3.75,-7.5l0,-0.417c0,-0.417 0,-0.833 0.417,-1.25c0.833,-2.5 1.25,-5 1.667,-7.917c-0.417,-3.75 0,-28.75 -0.417,-33.333Z" style="fill:#b0babf;fill-rule:nonzero;"/><path d="M27.952,115.417c0,0 0.417,0 0,0c0.833,-0.417 10.833,-7.917 11.667,-8.333c0.417,-0.417 0.417,-0.417 -1.25,-0.417c-2.083,0 -3.75,0 -4.583,-1.25c-0.417,-0.417 -1.25,-2.083 -2.5,-3.333c-1.25,-2.5 -2.5,-3.75 -2.5,-3.75c0,0 0,1.25 0.417,2.083c0.833,4.167 0.833,8.75 -0.417,12.917c-0.417,0.833 -0.833,1.667 -0.833,2.083Z" style="fill:#b0babf;fill-rule:nonzero;"/><path d="M90.452,235.833l1.25,0l-2.083,-2.083c-3.333,-3.75 -6.667,-8.333 -9.167,-13.333c-2.083,-4.167 -3.333,-5.833 -5,-5.833c-0.833,0 -1.25,0.417 -4.167,2.083c-1.25,0.833 -2.5,1.667 -2.917,1.667c-1.25,0.417 -1.667,0.833 -1.25,2.083c0.833,2.917 4.167,9.583 5.833,11.667c0.417,0.417 0.417,0.417 0.833,0.833c4.583,1.25 10,2.5 15,3.333c1.25,-0.417 1.667,-0.417 1.667,-0.417Z" style="fill:#b0babf;fill-rule:nonzero;"/><path d="M107.535,225c1.667,0.833 2.083,0.833 2.083,0.417c0,-1.667 -1.25,-8.75 -2.5,-13.333c-1.25,-4.167 -2.083,-5 -5.417,-5c-1.667,0 -2.083,0 -7.5,2.5c-2.917,1.25 -3.75,1.667 -3.75,2.083c0,0.417 0.417,0.833 0.833,1.25c1.25,1.667 14.167,10.833 16.25,12.083Z" style="fill:#b0babf;fill-rule:nonzero;"/><path d="M43.785,108.75l0,18.75c0,23.75 0.417,31.25 0.833,36.667c0,0.833 0,1.667 0.417,2.083c0.417,1.667 0.833,3.333 1.25,4.583c0.833,2.083 2.083,3.75 4.583,5.833c5.417,5 15,9.583 25,12.083c2.083,0.417 3.75,0.833 3.333,0.417c0,0 -1.667,-0.833 -2.917,-1.667c-5,-2.083 -9.167,-5 -12.917,-8.75c-1.25,-1.25 -2.917,-2.917 -4.167,-4.583c-1.667,-2.083 -3.333,-5.833 -4.583,-8.75c-0.833,-2.917 -2.5,-8.333 -2.917,-11.667c-1.25,-7.5 -1.667,-12.5 -1.25,-32.083l0,-12.5c-0.417,-5 -0.833,-8.75 -1.667,-9.583l-0.417,0c-0.417,0 -0.833,0.833 -2.5,2.5l-2.083,2.083l0,0.417c0.417,0.417 0.417,1.667 0,4.167Z" style="fill:#b0babf;fill-rule:nonzero;"/><path d="M78.785,37.917l-12.5,-7.917l-12.5,8.333l4.167,-14.167l-11.667,-9.167l15,-0.833l5,-14.167l5,13.75l15,0.833l-11.667,9.167l4.167,14.167Z" style="fill:#fff;fill-rule:nonzero;"/><path d="M143.369,37.917l-12.5,-7.917l-12.5,8.333l4.167,-14.167l-11.667,-9.167l15,-0.833l5,-14.167l5,13.75l15,0.833l-11.667,9.167l4.167,14.167Z" style="fill:#fff;fill-rule:nonzero;"/></g></svg>