<?xml version="1.0" encoding="UTF-8" standalone="no"?><!DOCTYPE svg PUBLIC "-//W3C//DTD SVG 1.1//EN" "http://www.w3.org/Graphics/SVG/1.1/DTD/svg11.dtd"><svg width="100%" height="100%" viewBox="0 0 834 1315" version="1.1" xmlns="http://www.w3.org/2000/svg" xmlns:xlink="http://www.w3.org/1999/xlink" xml:space="preserve" xmlns:serif="http://www.serif.com/" style="fill-rule:evenodd;clip-rule:evenodd;stroke-linejoin:round;stroke-miterlimit:2;"><path d="M414.167,1314.875c-245.833,-111.667 -363.333,-209.167 -412.083,-399.583c-4.167,-236.667 -0.833,-492.5 -0.417,-729.167l831.667,-0c-1.25,245 -2.5,489.583 -4.167,734.583c-37.5,178.75 -208.333,307.083 -415,394.167Zm390.417,-395.417c1.667,-236.25 9.167,-505 9.167,-715l-796.667,-0.833c1.25,234.583 0.833,273.75 4.167,711.667c51.667,185.833 205.833,299.167 392.917,376.667c181.667,-79.583 352.5,-198.333 390.417,-372.5Z" style="fill:#fff;"/><path d="M342.689,999.415c-0.751,-0.662 -1.508,-1.342 -2.273,-2.04c-5.397,-5.128 -9.222,-9.032 -13.058,-13.75l-155.275,0l0,-20l142.238,0c-0.293,-0.585 -0.495,-1.022 -0.571,-1.25c0,-0.417 -0.417,-0.833 -0.417,-1.25c-0.833,-0.417 -2.5,-5.417 -4.583,-11.25c-0.649,-1.947 -1.256,-3.915 -1.818,-5.895l-134.849,-0.355l0,-20l130.767,0c-0.735,-6.426 -0.884,-12.645 -0.351,-18.333c0.029,-0.4 0.063,-0.818 0.103,-1.25l-130.103,0l0,-20l133.346,0c1.793,-6.761 4.159,-13.321 7.067,-19.583l-140.413,0l0,-20l152.34,0c2.984,-3.98 6.236,-7.743 9.743,-11.25c3.818,-3.898 7.774,-7.492 11.877,-10.786c17.389,-13.956 37.442,-22.51 61.04,-25.881c7.083,-0.833 25,-0.833 32.5,0c20.833,2.917 40,10.833 56.667,23.333c1.043,0.722 2.225,1.63 3.484,2.66c5.278,4.321 11.902,10.803 15.266,14.84c2.204,2.581 4.274,5.22 6.214,7.917l153.369,0l0,20l-84.167,-0.833l-58.027,0c2.877,6.25 5.206,12.773 7.012,19.583l135.182,0l0,20l-131.833,0c0.102,2.105 0.166,4.661 0.166,7.917c0,5.948 0,9.007 -0.199,11.667l131.866,0l0,20l-135.855,-0c-1.561,5.508 -3.42,10.809 -5.395,15.417c-0.708,1.54 -1.455,3.068 -2.239,4.583l143.906,0l0,20l-157,-0c-4.554,5.651 -9.619,10.922 -15.07,15.678c-4.864,4.244 -10.036,8.077 -15.43,11.405c-5.417,3.333 -10.833,6.25 -11.25,5.833c0,0 -0.417,0 -0.833,0.417c-0.833,0.833 -10,4.583 -16.25,6.667c-10,2.917 -18.333,4.583 -29.583,5c-6.667,0.833 -8.333,0.833 -15,0.417c-16.25,-1.25 -30.833,-5 -45,-11.667c-10.736,-4.984 -18.649,-10.322 -27.311,-17.96Zm153.651,-0.122c4.356,-3.658 12.41,-11.142 12.41,-11.501c0,-0.833 -4.167,-1.25 -12.083,-1.25l-8.75,0l-33.333,20.833l-3.75,6.667c-2.083,3.75 -3.75,7.083 -3.75,7.083c0.417,0.833 2.917,0.417 7.5,-0.833c14.583,-4.167 28.75,-11.25 40,-19.583c0.459,-0.344 1.061,-0.831 1.757,-1.416Zm-37.643,-0.019c2.892,-1.727 6.716,-4.018 10.886,-6.482c8.75,-5.417 16.25,-10 16.25,-10.417c0,0 1.25,-9.167 2.917,-20c2.917,-19.167 2.917,-20 2.083,-20.833c-1.25,-1.25 -27.083,-15.833 -27.917,-15.833c-0.417,0 -8.333,4.167 -17.083,9.583c-9.167,5 -16.667,9.583 -17.083,9.583c-0.417,0 -0.833,0.417 -0.833,0.417c0,0 -2.083,1.25 -4.583,2.5c-2.5,1.25 -4.167,2.5 -4.167,2.5c0,0 -4.167,24.167 -4.167,25c0,0.833 2.917,2.917 16.667,12.5c7.421,5.06 14.023,9.847 16.489,11.486c0.58,0.386 0.931,0.597 1.011,0.597c1.25,1.25 3.75,2.5 4.167,2.5c-0.227,0.227 1.898,-1.032 5.364,-3.101Zm-95.944,0.112c0.047,-0.405 0.1,-0.801 0.163,-1.178l0.417,-5.417l-10.417,-10.833c-5.833,-5.833 -11.25,-11.667 -12.5,-12.917l-2.083,-2.083l-7.5,0.417c-6.25,0.417 -7.5,0.417 -7.5,0.833c0,0.812 6.335,9.94 10.514,15.417l0.319,0.417c4.187,4.831 10.365,10.657 16.225,15.363c1.722,1.383 3.416,2.668 5.025,3.804c3.333,2.083 5.833,4.167 5.833,4.167c0,0 0.417,-1.25 0.833,-2.083c0.354,-1.062 0.407,-3.625 0.67,-5.906Zm-28.297,-154.928c-0.605,-1.191 -1.03,-1.99 -1.124,-2.083c-0.244,-0.244 -0.915,0.368 -2.263,2.083c-0.958,1.219 -2.257,2.994 -3.987,5.417c-2.888,4.332 -5.776,9.378 -8.309,14.583c-2.585,5.309 -4.801,10.784 -6.274,15.833c-0.572,1.429 -0.947,2.859 -1.127,3.75c-0.082,0.408 -0.123,0.703 -0.123,0.833c0,0.417 0.833,1.25 5.417,3.333c3.333,1.667 6.25,2.5 6.667,2.5c0,0 0.639,-0.852 3.744,-6.667c1.238,-2.319 2.868,-5.426 5.006,-9.583c1.941,-3.705 3.807,-7.186 5.313,-10c2.051,-3.832 3.437,-6.426 3.437,-6.667c0,-0.324 -4.273,-9.193 -6.376,-13.333Zm138.46,-27.083c3.333,-1.667 5.833,-2.917 6.25,-3.333c0.417,-0.417 -13.333,-6.25 -18.75,-8.333c-7.917,-2.5 -17.083,-4.583 -26.25,-5.417c-6.667,-0.833 -8.333,-0.833 -15.417,-0.417c-8.333,0.417 -16.667,1.25 -17.5,2.083c-0.417,0.417 0.833,1.667 4.583,5c2.917,2.5 6.25,5.417 7.5,6.667l2.5,2.083l5.833,0.417c3.333,0.417 12.917,0.833 21.667,1.667c8.75,0.417 17.083,1.25 18.75,1.25c4.583,1.25 4.167,1.25 10.833,-1.667Zm-113.54,166.25c4.121,4.292 5.802,5.833 6.457,5.833c0.833,-0.417 8.333,-2.5 16.667,-5.417c8.333,-2.5 17.917,-5.833 21.25,-6.667l5.833,-1.667l2.083,-10.833c1.25,-6.25 2.083,-11.667 2.083,-12.917l0,-1.667l-20.417,-17.083c-12.5,-10.417 -20.833,-17.083 -21.25,-17.083c-0.417,0 -7.083,1.667 -15,3.75l-14.167,3.75l-0.417,4.583c0,2.5 -0.417,5 -0.417,5.833c0,2.5 -0.417,22.083 -0.833,26.25l-0.333,3.333l0.75,0l2.5,3.75l2.676,3.122c2.414,2.456 5.638,5.781 8.574,8.962l0.417,0.417l2.5,2.083l2.917,1.667l-1.873,0Zm158.188,-96.471c-9.548,-7.633 -35.898,-27.695 -35.898,-27.695c-0.417,0 -5,3.333 -10.833,7.5l-10.417,7.5l0,2.083c0,1.25 0.417,5.833 0.833,10.417c0.417,4.583 1.667,13.75 2.5,20.417c0.833,6.667 1.25,12.917 1.667,13.333c0,0.833 1.667,1.667 14.167,9.167c7.5,4.583 14.167,7.917 14.167,7.917c0,0.417 5.417,-4.583 11.667,-10c6.667,-5.833 13.333,-11.667 15.417,-13.333l3.333,-2.917l-1.667,-10.833c-0.833,-5.833 -1.667,-10.833 -1.667,-10.833c-0.381,-0.381 -1.553,-1.351 -3.268,-2.721Zm-104.694,-64.632c-1.88,1.569 -5.384,4.761 -9.121,8.186c-5,4.583 -9.167,7.917 -9.583,8.333c-0.417,0 -0.417,0.417 -0.417,0.417l-1.667,1.667c-0.833,0.833 -1.667,1.25 -1.667,1.667c0,0.417 11.25,23.75 11.667,24.167c0.417,0.417 4.167,0.833 25.833,2.5c11.25,0.833 22.083,1.667 23.75,2.083c1.667,0 3.75,0.417 4.167,0.417c0.833,-0.417 2.917,-1.667 11.667,-8.333c7.083,-5 10.833,-8.333 10.833,-8.75c0,-0.417 -12.5,-30 -12.917,-30.417c0,0 -10.196,-0.755 -23.038,-1.906l-1.962,-0.177l-25,-1.667l-1.25,0.833c-0.211,0.105 -0.66,0.45 -1.296,0.98Zm122.192,61.52c-0.786,-2.919 -1.48,-5 -1.729,-5c0,0 -2.083,2.083 -3.75,5c-4.167,5.833 -4.167,3.333 -2.083,17.917l1.25,9.583l4.583,6.25c2.175,2.9 4.035,5.485 4.481,5.833l0.102,0c0,-0.417 0.417,-2.5 0.417,-5.417c0.218,-3.492 0.094,-8.813 -0.254,-14.167c-0.316,-4.867 -0.817,-9.762 -1.412,-13.333c-0.503,-2.349 -1.074,-4.698 -1.604,-6.667Zm-208.079,10.963c2.159,3.615 14.297,23.204 14.683,23.204c0,0.417 3.75,-0.833 7.917,-1.667c17.917,-4.583 21.25,-5.417 21.667,-5.833c0.833,-0.417 25,-37.917 25.833,-40l0.833,-1.667l-1.667,-3.75c-0.833,-2.083 -1.667,-3.75 -1.667,-3.75c0,0 0,-0.417 -0.417,-0.417c-0.417,0 -2.083,-3.75 -4.167,-7.917c-2.083,-4.167 -3.75,-7.917 -4.167,-7.917c-0.417,0 -8.333,2.5 -20.833,7.083l-20.273,7.447l-0.406,0.541l-8.905,16.595c-2.836,5.435 -5.404,10.334 -7.019,13.557l-1.314,3.943l-0.099,0.546Z" style="fill:#fff;"/><path d="M628.75,388.625c-11.667,10.833 -20.833,37.083 -2.5,46.25l0,45c-6.25,-17.083 -24.583,-23.333 -42.5,-20.833c0.417,17.917 11.667,38.333 33.75,34.583c3.75,-0.833 7.5,-3.75 8.75,-8.333l0,53.75l-0.833,-3.333l-2.5,-4.167l-1.25,-1.667l-0.833,-0.833l-4.167,-3.333l-6.667,-4.167l-6.667,-2.5l-7.5,-1.667l-11.667,-0.833l-0.833,0.833l0,7.5l0.833,5.833l1.667,5.833l3.333,5l3.333,4.167l5,4.167l5.833,2.5l5.833,0.833l5.833,0l5,-2.5l2.5,-2.5l1.667,-3.333l0,55.833l-1.667,-5l-2.5,-4.167l-5,-5l-5.833,-3.333l-4.167,-1.667l-6.667,-1.667l-9.167,-0.833l-7.917,0.833l-0.833,0l0.833,8.333l1.667,6.667l3.333,6.667l4.167,4.167l5,4.167l5.833,2.5l5,0.833l6.667,0l4.167,-1.667l3.333,-2.5l2.5,-4.167l0,60l-1.667,-5l-2.083,-3.333l-4.167,-4.167l-5,-3.333l-6.667,-2.5l-7.5,-1.667l-13.333,0l-4.167,0.833l0.833,5.833l0.833,5l0.833,2.5l0.833,2.083l3.333,5.833l4.167,5l5.833,4.167l5.833,2.5l5.833,0.833l6.667,0l3.333,-0.833l3.333,-1.667l2.5,-2.5l0.833,-2.5l0,58.333l-1.667,-4.167l-3.333,-4.167l-5,-4.167l-5.833,-3.333l-7.5,-2.5l-7.5,-0.833l-7.5,0.833l-8.333,1.667l-0.833,0.833l1.667,6.667l2.5,6.667l3.333,5.833l7.5,6.667l6.667,2.5l5.833,1.667l8.333,0l5,-1.667l3.333,-2.5l2.5,-4.583l0,81.667l5.417,0l0,-81.667l0.833,1.25l0.833,1.667l3.333,2.5l4.167,1.667l5.833,0.833l6.667,-0.833l5,-1.667l5,-2.5l6.667,-5.833l4.167,-5.833l2.5,-5l1.667,-6.667l0.833,-2.5l-4.167,-0.833l-5,-0.833l-11.25,0l-7.5,1.667l-5,2.5l-5,3.333l-4.167,4.167l-2.5,3.333l-2.083,4.167l0,-57.5l0.833,2.5l2.5,2.5l5.833,2.5l8.333,0l4.167,-1.667l6.667,-2.5l5.833,-5l3.333,-4.167l3.333,-5.833l1.667,-6.667l0.833,-6.667l-0.833,-0.833l-5.833,-0.833l-10.833,0l-8.333,1.667l-6.667,2.5l2.083,3.75l-2.5,1.667l-4.167,4.167l-2.5,4.167l-0.833,2.5l0,-59.167l1.667,3.333l3.333,2.5l4.167,1.667l7.917,0.417l5.833,-1.667l5,-2.5l4.167,-3.333l3.333,-3.333l4.167,-5.833l2.5,-6.667l1.25,-6.25l0,-5.417l-2.5,0l-6.25,-0.417l-8.333,0.833l-6.667,1.667l-5,1.667l-2.083,1.25l-7.5,6.25l-3.333,5l-1.667,5l0,-55.833l2.5,4.167l3.333,2.5l3.333,1.667l2.5,0l2.5,0.417c19.167,-3.333 28.75,-18.333 27.083,-36.25l-3.333,0c-15,0 -30.417,4.167 -37.083,18.333l-1.25,2.917l0,-53.333l0.833,3.333c18.75,18.333 44.167,-10.833 41.25,-30c-14.167,-0.417 -34.583,4.167 -42.5,20.417l0,-44.167c22.083,-11.25 5.417,-41.25 -2.083,-47.083Z" style="fill:#fff;"/><path d="M500.15,822.535c17.715,-0.027 35.441,-0.077 53.183,-0.16l0.417,-0.417c0,-170.417 -0.417,-363.75 -0.833,-534.167c-44.583,18.75 -80.417,27.5 -132.5,47.917c-58.333,-19.583 -76.667,-26.667 -133.333,-47.917l0.417,534.583c19.671,0 39.321,0.02 58.96,0.048c17.389,-13.956 37.442,-22.51 61.04,-25.881c7.083,-0.833 25,-0.833 32.5,0c20.833,2.917 40,10.833 56.667,23.333c1.043,0.722 2.225,1.63 3.484,2.66Zm-163.067,-301.41l39.167,0l0,72.083l87.917,0l0,-72.083l38.75,0l0,73.75c-9.167,8.333 -22.083,18.75 -37.5,21.667l-86.667,0c-16.667,-1.667 -30.417,-10.833 -41.667,-22.083l0,-73.333Zm5,137.5l160,0l0,19.167l-122.917,0l0,18.75l121.25,0l0,17.917l-121.25,0l0,39.583l-37.083,0l0,-95.417Zm53.333,-267.083l49.583,0c22.083,36.667 33.75,56.25 57.917,94.583c-11.667,0 -25.417,0 -39.167,0.417c-2.5,-5 -5,-10.417 -7.917,-15.833l-71.25,0l-7.5,15.833l-39.583,0c19.583,-32.917 36.25,-60 57.917,-95Z" style="fill:#fff;"/><path d="M420,409.458c-7.5,11.667 -16.667,25 -25.417,37.917l50.417,0c-6.667,-11.667 -16.667,-24.583 -25,-37.917Z" style="fill:#fff;"/><path d="M342.689,999.415c-18.593,0.025 -37.145,0.043 -55.606,0.043l0,118.75l0.417,0c46.667,-12.5 76.667,-22.917 132.5,-40.417c56.667,17.083 65.833,20.417 132.5,40.417l0.417,0l0,-118.75c-16.417,-0.079 -32.952,-0.127 -49.57,-0.155c-4.864,4.244 -10.036,8.077 -15.43,11.405c-5.417,3.333 -10.833,6.25 -11.25,5.833c0,0 -0.417,0 -0.833,0.417c-0.833,0.833 -10,4.583 -16.25,6.667c-10,2.917 -18.333,4.583 -29.583,5c-6.667,0.833 -8.333,0.833 -15,0.417c-16.25,-1.25 -30.833,-5 -45,-11.667c-10.736,-4.984 -18.649,-10.322 -27.311,-17.96Z" style="fill:#fff;"/><path d="M442.379,822.552c-0.648,-0.058 -1.302,-0.117 -1.962,-0.177l-25,-1.667l-1.25,0.833c-0.211,0.105 -0.66,0.45 -1.296,0.98c9.836,0.013 19.672,0.023 29.508,0.03Z" style="fill:#fff;"/><path d="M211.667,490.708l0,48.056l-0.307,0.716l-0.526,-2.105l-0,-48.243c0.101,-0.2 0.196,-0.404 0.286,-0.612l0.547,2.188Z" style="fill:#fff;"/><path d="M210.833,537.375l-2.5,-4.167l-2.5,-3.333l-4.167,-3.333l-6.667,-4.167l-6.667,-2.5l-7.5,-1.667l-11.667,-0.833l-0.833,0.833l0,7.5l0.833,5.833l1.667,5.833l3.333,5l3.333,4.167l5,4.167l5.833,2.5l5.833,0.833l5.417,-0.417l5,-2.5l2.5,-2.5l1.667,-3.333l0,55.833l-1.667,-5l-2.5,-4.167l-5,-5l-5.833,-3.333l-4.167,-1.667l-6.667,-1.667l-9.167,-0.833l-7.917,0.833l-0.417,0l-0.417,0.417l0.833,8.333l1.667,6.667l3.333,6.667l4.167,4.167l2.5,1.667l2.5,2.083l5.833,2.5l5,0.833l6.667,0l4.167,-1.667l3.333,-2.5l2.5,-4.167l0,60l-2.083,-4.583l-2.5,-3.333l-4.167,-4.167l-5,-3.333l-6.667,-2.5l-7.5,-1.667l-13.333,0l-4.167,0.833l0.833,5.833l0.833,5l1.667,4.583l3.333,5.833l4.167,5l5.833,4.167l5.833,2.5l5.833,0.833l6.667,0l3.333,-0.833l3.333,-1.667l2.5,-2.5l0.833,-2.5l0,58.333l-1.667,-4.167l-3.333,-4.167l-5,-4.167l-5.833,-3.333l-7.5,-2.5l-7.5,-0.833l-7.5,0.833l-8.333,1.667l-0.833,0.833l1.667,6.667l2.5,6.667l3.333,5.833l7.5,6.667l6.667,2.5l5.833,1.667l8.333,0l5,-1.667l3.333,-2.5l2.5,-4.167l0,83.75l5.417,0l0,-81.667l0.833,1.667l0.833,1.25l3.333,2.5l4.167,1.667l5.833,0.833l6.667,-0.833l5,-1.667l5,-2.5l6.667,-5.833l4.167,-5.833l2.5,-5l1.667,-6.667l0.833,-2.5l-4.167,-0.833l-5,-0.833l-11.25,0l-7.5,1.667l-5,2.5l-5,3.333l-4.167,4.167l-2.5,3.333l-2.083,4.167l0,-57.5l0.417,1.667l0.417,1.25l2.5,2.5l5.833,2.5l8.333,0l4.167,-1.667l6.667,-2.5l5.833,-5l3.333,-4.167l3.333,-5.833l2.083,-7.083l0.833,-6.667l-0.833,-0.833l-5.833,-0.833l-10.833,0l-4.167,0.833l-3.75,0.833l-6.667,2.5l-5,3.333l-4.167,4.167l-2.5,4.167l-0.833,2.5l0,-59.167l1.667,3.333l3.333,2.5l4.167,1.667l7.5,0l5.833,-1.667l5,-2.5l4.167,-3.333l3.333,-3.333l4.167,-5.833l2.5,-6.667l0.417,-2.917l0.833,-2.917l0,-3.75l-2.5,0l-6.25,-0.417l-8.333,0.833l-6.667,1.667l-5,1.667l-4.583,2.5l-5,4.167l-3.333,5l-1.667,5l0,-56.667l2.5,4.167l3.333,2.5l3.333,1.667l2.5,0l2.5,0.417c19.167,-3.333 28.75,-18.333 27.083,-36.25l-3.333,0c-15,0 -30.417,4.167 -37.083,18.333l-0.417,0.972l0,1.944l-0.307,-1.228l-0.526,1.228l0,-3.333Z" style="fill:#fff;"/><path d="M211.667,490.708c18.75,18.333 44.167,-10.833 41.25,-30c-13.473,-0.396 -32.6,3.73 -41.25,18.114l0,2.72c-0.2,-0.547 -0.412,-1.082 -0.637,-1.607c-0.212,0.39 -0.416,0.786 -0.613,1.19l0,-2.536c-7.194,-14.848 -24.406,-20.231 -41.25,-17.881c0.417,17.917 11.667,38.333 33.75,34.583c3.118,-0.693 6.236,-2.826 7.917,-6.159l0,-1.757l0.286,1.145c0.215,-0.497 0.399,-1.018 0.547,-1.562l-0,3.75Z" style="fill:#fff;"/><path d="M211.566,436.491c0.033,0.017 0.067,0.034 0.101,0.051l0,42.28c-0.219,0.364 -0.431,0.735 -0.637,1.113c-0.195,-0.457 -0.4,-0.906 -0.613,-1.346l0,-41.631c0.392,-0.152 0.775,-0.308 1.149,-0.467Z" style="fill:#fff;"/><path d="M211.566,436.491c26.301,-11.203 9.995,-40.448 2.601,-46.199c-11.645,10.813 -20.8,36.987 -2.601,46.199Z" style="fill:#fff;"/><g><path d="M831.25,61.542l-51.25,37.083l19.583,60l-50.833,-37.5l-50.833,36.667l20,-59.583l-51.25,-36.667l62.917,0.417l19.167,-60l19.167,60l63.333,-0.417Zm-243.333,96.667l-50.833,-37.083l-50.833,37.083l19.167,-59.583l-50.833,-37.083l62.917,0l19.167,-59.583l19.167,59.583l62.917,0.417l-51.25,36.667l20.417,59.583Zm-274.167,-37.083l-50.833,37.083l19.583,-59.583l-51.25,-36.667l62.917,-0.417l19.167,-59.583l19.167,59.583l62.917,0l-50.833,37.083l19.583,59.583l-50.417,-37.083Zm-262.5,36.667l19.583,-59.583l-50.833,-37.5l62.917,0.417l19.583,-59.583l18.75,60l62.917,0l-50.833,37.083l19.167,60l-50.417,-37.083l-50.833,36.25Z" style="fill:#fff;fill-rule:nonzero;"/></g></svg>