<?xml version="1.0" encoding="UTF-8"?>
<svg id="svg2" xmlns="http://www.w3.org/2000/svg" viewBox="0 0 19.62 49.82">
  <defs>
    <style>
      .cls-1 {
        fill: none;
        stroke: #fff;
        stroke-linecap: round;
        stroke-linejoin: round;
        stroke-width: .5px;
      }
    </style>
  </defs>
  <g id="layer1">
    <path class="cls-1" d="m17.66,48.71c-1.03.7-5.08.83-7.17.85h0s-.9,0-.9,0h0c-2.09-.03-6.14-.16-7.17-.86-.13-.08-.33-.27-.27-.48l.68-1.99c.07-.25.22-.3.38-.3,0,.15.14.3.25.36.88.6,4.39.71,6.2.73h0s.78.01.78.01h0c1.81-.03,5.31-.14,6.2-.74.1-.06.24-.21.24-.36.16,0,.3.05.37.3l.68,1.99c.06.21-.14.4-.27.48Z"/>
    <path class="cls-1" d="m16.88,45.94c0,.15-.14.3-.24.36-.89.6-4.39.71-6.2.73h0s-.78.01-.78.01h0c-1.81-.03-5.32-.14-6.2-.74-.11-.06-.26-.21-.25-.36h0s0-.05.01-.06l.58-1.72c.03-.1.08-.16.13-.21,0,.01.01.01.01.01.82.56,4.06.66,5.74.68h0s.72.01.72.01h0c1.67-.03,4.91-.13,5.73-.69.01,0,.01-.01.02-.01.06.03.11.1.14.21l.58,1.72s.01.03.01.06Z"/>
    <path class="cls-1" d="m16.15,43.95s0,.01-.02.01c-.82.56-4.06.66-5.73.68h0s-.72.01-.72.01h0c-1.68-.03-4.92-.13-5.74-.69,0,0-.01,0-.01-.01-.1-.06-.26-.22-.21-.37l.54-1.6c.06-.2.18-.24.31-.24,0,.02.01.05.02.07,0,.02.02.05.03.07.03.04.06.08.1.11.03.03.06.05.1.07.12.08.28.16.47.22.12.04.26.08.42.12h.01c.09.02.18.04.27.06.1.02.19.04.3.06.2.04.41.07.63.1.17.02.34.04.51.06.12.01.24.03.37.04.14.01.28.02.41.03.07,0,.13,0,.2,0,.17.01.35.02.53.03.49.03.89.03,1.1.02h.04c.47,0,1.02-.01,1.59-.05.23,0,.46-.03.69-.05.14-.02.29-.03.43-.05.15-.02.29-.03.43-.05.21-.03.42-.06.61-.1.19-.03.37-.07.54-.11.13-.03.25-.07.37-.11.07-.02.14-.04.21-.07.05-.02.1-.04.14-.06.07-.03.13-.06.18-.1.04-.02.07-.04.1-.07.04-.03.07-.07.09-.1.01-.02.02-.04.03-.06.02-.03.03-.05.03-.08h0c.12,0,.23.04.29.23l.54,1.6c.05.15-.09.3-.2.37Z"/>
    <path class="cls-1" d="m8.94,42.79c.35.01.72.02,1.1.02-.21,0-.61,0-1.1-.02Z"/>
    <path class="cls-1" d="m15.52,41.74h0s0,.06-.03.09c.01-.03.02-.06.01-.09h.02Z"/>
    <path class="cls-1" d="m15.52,41.74h0s0,.06-.03.09c.01-.03.02-.06.01-.09-.02-.01-.04-.01-.06-.01h-.11c0-.09-.01-.18-.03-.28.09.06.16.12.19.19h0s.03.07.03.1Z"/>
    <polygon class="cls-1" points="13.97 13.26 13.85 13.33 13.76 13.26 13.97 13.26"/>
    <polygon class="cls-1" points="15.6 13.26 15.48 13.28 15.45 13.26 15.6 13.26"/>
    <path class="cls-1" d="m12.04,20.83h0s-.98-.52-.98-.52l-.25-.99c.16-.02.32-.04.48-.06h0s.75,1.57.75,1.57Z"/>
    <path class="cls-1" d="m13.33,18.7c-.23.09-.47.17-.71.24h-.03s0,0,0,0c-.06.02-.12.05-.19.07v-.02c.08-.02.15-.04.22-.07h.02s.07-.02.1-.04l.05-.02.49-.22.02.03h.01l.02.03Z"/>
    <path class="cls-1" d="m13.69,18.55c-.08.04-.16.07-.25.11v-.04c.07-.03.16-.07.24-.11v.04Z"/>
    <path class="cls-1" d="m14.42,18.19c-.2.11-.39.21-.6.3l-.05-.02c.22-.1.43-.21.62-.33l.03.05Z"/>
    <polygon class="cls-1" points="14.54 20.8 14.35 21.53 14.52 20.81 14.54 20.8"/>
    <polygon class="cls-1" points="13.84 19.08 13.58 19.12 13.83 18.94 13.84 19.08"/>
    <path class="cls-1" d="m14.16,19.57c-.26.24-.55.26-.86.14.25-.18.5-.32.86-.14Z"/>
    <polygon class="cls-1" points="14.05 22.22 13.58 22.58 13.82 22 14.02 20.78 14.05 22.22"/>
    <path class="cls-1" d="m15.5,41.74s0,.06-.01.09c-.01.02-.02.04-.03.06-.02.03-.05.07-.09.1-.03.03-.06.05-.1.07-.05.04-.11.07-.18.1-.04.02-.09.04-.14.06-.07.03-.14.05-.21.07-.12.04-.24.08-.37.11-.17.04-.35.08-.54.11-.19.04-.4.07-.61.1-.14.02-.28.03-.43.05-.14.02-.29.03-.43.05-.23.02-.46.04-.69.05-.57.04-1.12.05-1.59.05h-.04c-.38,0-.75-.01-1.1-.02-.18-.01-.36-.02-.53-.03-.07,0-.13,0-.2,0-.13-.01-.27-.02-.41-.03-.13-.01-.25-.03-.37-.04-.17-.02-.34-.04-.51-.06-.22-.03-.43-.06-.63-.1-.11-.02-.2-.04-.3-.06-.09-.02-.18-.04-.27-.06h-.01c-.16-.04-.3-.08-.42-.12-.19-.06-.35-.14-.47-.22-.04-.02-.07-.04-.1-.07-.04-.03-.07-.07-.1-.11-.01-.02-.03-.05-.03-.07,0-.02-.02-.05-.02-.07h0s.01-.04.02-.05c.01-.03.02-.04.03-.07h0c.05-.1.16-.18.32-.26l-.07.37-.04.23.15-.23.32-.51c.1-.04.22-.07.35-.1l-.42.61-.2.29c.22.12.45.19.71.22l.16-.51.22-.72c.07-.02.15-.03.23-.04l-.25.76-.16.47.56-.47,1.06-.92h.01s.01-.01.01-.01c.28-.02.57-.05.87-.06l-1.15.82c.07-.03,1.14-.53,1.84-.85h0c.3-.14.53-.25.58-.27l-.15.26-.33.57,1.55-.57h.01l1.48-.54-1.06.55-1.94,1.01-1.59.83c1.53.21,2.11.13,3.53.03l1.58-.86.88-.47-.19.48-.26.66c.77-.05,1.52-.16,2.09-.6v-.06h.11s.04,0,.06.01Z"/>
    <path class="cls-1" d="m11.03,28.25l-2.54,5.57-1.45.71-1.21,4.01-.37.06-.52,2.76c-.16.08-.27.16-.32.25.64-1.4.76-2.94,1.13-4.41h.21c-.7-2.49.71-5.68-1.03-7.99v-.67c-.68-1-1.07-2.06-1.37-3.15v-.77c-.25-.96-.47-1.93-.55-2.95l-.29-3.97-.93-1.35-.56-.52-.64-1.61.3-.96c1.29,3.33,4.39,5.76,8.1,6.07l.87,3.74.53.75.64,4.43Z"/>
    <path class="cls-1" d="m11.59,31.5l-.71,4.44-1.37.46-2.03,3.33-.8.26-.33.98c-.08.01-.16.02-.23.04l.32-1.05-.79,1.16c-.13.03-.25.06-.35.1l1.04-1.66,3.09-3.9.46-.32,1.7-3.84Z"/>
    <path class="cls-1" d="m10.04,42.81c-.21,0-.61,0-1.1-.02.35.01.72.02,1.1.02Z"/>
    <path class="cls-1" d="m18.61,13.73l-.55,2.7v1.11l-1.71,5.12-.24,3.03-1.5,4.66-.13,1.41-.49,2.04-.08,1.27.48,1.02v1.47c.4,1.36,1.03,2.7,1.1,4.08h0s.01.06.01.08v.02s-.04-.01-.06-.01h-.11c0-.09-.01-.18-.03-.28-.12-1.3-.85-2.89-1.24-3.92v-1.31s-.57-.96-.57-.96l-.31,2.1-4.73,3.38c-.3.01-.59.04-.87.06l.57-.48,4.12-3.79,1.34-3.24.35-4.88,1.28-4.32.47-.6,1.85-5.49.19-.41.66-3.6.2-.26Z"/>
    <path class="cls-1" d="m15.98,2.51l.25.75.91.88.05,1.09-.34-.69-.59-.7-.05.67.87,1.14-.83.14-.53.4-.63-.86.32.73-.03.49-.54.98-.78.33-.16.26v.99l-.75.33-.66.31-.32-1.04-.59-.48v-.57l-.25-.13-.73.72-.87.21v.79l-.84,1.1-.72-.63.27-1.16-.14-.98-.62.47v-.91l-.74-.03-.13-.36-1.37-.38.44.67.93.35.28.32-1.32.44-.05.39-.8.3-.8-1.13-.39-1.52-.15,1.18.52,1.16.72.65.72.02-.23.47-.5.64v.49l-.59.68.03.39-.2.53.12.31.46.16v.39s-.02.29-.02.29l-.29.36-.04.89.3,1.06-.28.16-.91-.18-1.76-2.58-.46-.67-.8-2.53h-.09c.04-2.45.73-4.25,1.69-5.65v-.03l.18-.21.66-.78h0c.1-.11.18-.23.28-.33C5.68.37,9.55-.13,12.56.66c-.87-.27-1.79-.41-2.75-.41C4.53.25.25,4.53.25,9.81c0,1.22.23,2.38.64,3.45,1.29,3.33,4.39,5.76,8.1,6.07l-.2-.87-.31-.51-.34-3.82-.72-.87-.3-.36-.19-1.24.15-.14-.04-.11.24-.43.27,1.04-.22-.88.26-.33.03.1h.29s.63,1.1.63,1.1l-.41-.75.5.02.47.56.23.83-.15.59-.13.48,1.56,3.58-.18.46.38,1.54c.16-.02.32-.04.48-.06v-.55s-.43-.18-.43-.18l.52-1.76.98-.49,2.09.06,1.08-.78.29.59-.42.46.29.06.55-.21.05-.32,1.51-2.6v-2.12l.79-1.04.12.5-.43.62-.04.55.07-.55.4-.59.04.49.06.32-.43.8.39-.69.34.02-.21.66.04.14c.28-.9.43-1.85.43-2.84,0-2.93-1.32-5.55-3.39-7.3ZM6.94,13.99l-.29,1.33h-.59v-.71s-.36-.26-.36-.26l.02-.27.42-.23-.05-.59-.03-.41.54.39v.02l.07.39.27.34Zm8.8-7.23l.36-.31.28.05v.92s-.36.26-.36.26l-.3-.49.02-.43Zm-.03,1.51l.34-.2.44.21-.54.57-.34.02.1-.6Zm1.03.8l.19.39-.23.03-.52.26.1-.46.46-.22Zm-2.37-.82l.28.03.24.2-.16.44-.41.13-.16-.6.21-.2Zm.88,2.2l.78.3s-.6.57-.53.57c.06,0,1.38.03,1.38.03l-2,1.01-1.03-1.03c.06-.01,1.4-.88,1.4-.88Zm-2.61-.44l.62-.1-.15.98-.72-.29.25-.59Zm1.21,3.32l-.09-.07-.88-.7-.08-.54-.52-.6-.13-.56,1.16.51.28.99.89.61-.51.29-.12.07Zm2.04.6l-.31-.26-.9.05-.41-.36.51-.07.04-.03.27-.23.36.23h.15l1.22-.21.16.21.02.03-1.11.64Zm1.37-4.28l.16-.78-.59-.03.92-.69.03-1.43.33,1.37-.85,1.56Zm.85-2.8l-.04-.3-.26-.06.49-.56v.33l.33.19-.52.4Z"/>
    <polygon class="cls-1" points="3.41 4.82 4.26 4.98 3.61 5.56 2.51 5.56 2.5 5.36 2.1 5.26 1.97 4.41 1.97 4.38 2.15 4.17 2.81 3.39 2.74 3.76 2.41 4.22 2.17 4.32 2.25 4.98 2.48 4.98 2.61 4.54 2.92 4.28 2.89 4.8 3.26 4.72 3.38 4.04 3.79 4.1 3.41 4.82"/>
    <polygon class="cls-1" points="6.73 3.76 6.54 4.06 6.86 4.23 6.49 4.85 6.06 4.61 6.31 4.45 5.96 4.01 6.67 3.35 7.07 3.65 6.73 3.76"/>
    <path class="cls-1" d="m15.98,2.5h0s-.02-.01-.03-.02c0,.01.02.02.03.02Z"/>
    <polygon class="cls-1" points="13.26 9.91 13.11 10.89 12.39 10.6 12.64 10.01 13.26 9.91"/>
    <polygon class="cls-1" points="14.48 12.97 13.97 13.26 13.85 13.33 13.76 13.26 12.88 12.56 12.8 12.02 12.28 11.42 12.15 10.86 13.31 11.37 13.59 12.36 14.48 12.97"/>
    <polygon class="cls-1" points="14.89 8.48 14.73 8.92 14.32 9.05 14.16 8.45 14.37 8.25 14.65 8.28 14.89 8.48"/>
    <polygon class="cls-1" points="16.39 7.42 16.02 7.68 15.72 7.19 15.74 6.76 16.1 6.45 16.38 6.5 16.39 7.42"/>
    <polygon class="cls-1" points="16.49 8.28 15.95 8.85 15.61 8.87 15.71 8.27 16.05 8.07 16.49 8.28"/>
    <path class="cls-1" d="m16.88,11.35l-2,1.01-1.03-1.03c.06-.01,1.4-.88,1.4-.88l.78.3s-.6.57-.53.57c.06,0,1.38.03,1.38.03Z"/>
    <polygon class="cls-1" points="16.93 9.46 16.7 9.49 16.18 9.75 16.28 9.29 16.74 9.07 16.93 9.46"/>
    <polygon class="cls-1" points="15.6 13.26 15.48 13.28 15.45 13.26 15.6 13.26"/>
    <polygon class="cls-1" points="17.26 9.65 17.42 8.87 16.83 8.84 17.75 8.15 17.78 6.72 18.11 8.09 17.26 9.65"/>
    <polygon class="cls-1" points="18.63 6.45 18.11 6.85 18.07 6.55 17.81 6.49 18.3 5.93 18.3 6.26 18.63 6.45"/>
    <path class="cls-1" d="m13.33,18.7c-.23.09-.47.17-.71.24h-.03s0,0,0,0c-.06.02-.12.05-.19.07v-.02c.08-.02.15-.04.22-.07h.02s.07-.02.1-.04l.05-.02.49-.22.02.03h.01l.02.03Z"/>
    <path class="cls-1" d="m13.69,18.55c-.08.04-.16.07-.25.11v-.04c.07-.03.16-.07.24-.11v.04Z"/>
    <path class="cls-1" d="m14.42,18.19c-.2.11-.39.21-.6.3l-.05-.02c.22-.1.43-.21.62-.33l.03.05Z"/>
    <path class="cls-1" d="m13.3,18.67c-.16.07-.33.14-.51.19l.49-.22.02.03Z"/>
    <path class="cls-1" d="m16.77,16.25l-.16.26c-.14.12-.29.24-.43.37l-.02.08-.14.92-1.27,2.84-.44.98.04-.17.19-.73h-.02s-.49.19-.49.19v-.21s-.01-.12-.01-.12l.39-.23.28-1.25-.1-.64-.17-.35-.03-.05-.4-.82-1.69-.02-.98.7-.02.71-.44-.18.52-1.76.98-.49,2.09.06,1.08-.78.29.59-.42.46.29.06.55-.21.53-.21Z"/>
    <polygon class="cls-1" points="13.84 19.08 13.58 19.12 13.83 18.94 13.84 19.08"/>
    <path class="cls-1" d="m14.16,19.57c-.26.24-.55.26-.86.14.25-.18.5-.32.86-.14Z"/>
    <polygon class="cls-1" points="14.05 22.22 13.58 22.58 13.82 22 14.02 20.78 14.05 22.22"/>
    <path class="cls-1" d="m18.94,12.65l-.04-.14.21-.66-.34-.02-.39.69.43-.8-.06-.32-.04-.49-.4.59-.07.55.04-.55.43-.62-.12-.5-.79,1.04v2.12l-1.51,2.6-.05.32.53-.21-.16.26c-.14.12-.29.24-.43.37l-.02.08-.14.92-1.27,2.84-.44.98.04-.17.17-.72-.49.18v-.21s.02,1.44.02,1.44l-.47.36.24-.58.2-1.22v-.12l.39-.23.28-1.25-.1-.64-.17-.35c-.2.11-.39.21-.6.3l.4.19-.42-.08-.07.25-.04-.3c-.08.04-.16.07-.25.11l.06.27-.17-.23c-.23.09-.47.17-.71.24h-.03s0,0,0,0c-.06.02-.12.05-.19.07l-.21.38h-.39s.35.39.35.39l.43.13-.03.67,1.59-.2.29-1.1-.23,1.18-1.53.6.54,1.48-1.01-1.43.27-1.15-.34-.08-.46-.56h.44l.09-.25h0s.41-1.18.41-1.18l.33.21.84-.38.23.44-1.16.02-.44.81c.07-.02.14-.04.21-.07h.02s.73-.56.73-.56l.06.26c.08-.03.17-.07.25-.11v-.09s.09.05.09.05c.22-.1.43-.21.62-.33l-.4-.82-1.69-.02-.98.7-.02.71v.55s-.01.01-.01.01l.75,1.56h0s-.98-.52-.98-.52l-.25-.99-.38-1.54.18-.46-1.56-3.58.13-.48.15-.59-.23-.83-.47-.56-.5-.02.41.75-.63-1.09h-.29s-.03-.11-.03-.11l-.26.33.22.88-.27-1.04-.24.43.04.11-.15.14.19,1.24.3.36.72.87.34,3.82.31.51.2.87.87,3.74.53.75.64,4.43-2.54,5.57-1.45.71-1.21,4.01-.37.06-.52,2.76-.07.37-.04.23.15-.23.32-.51,1.04-1.66,3.09-3.9.46-.32,1.7-3.84-.71,4.44-1.37.46-2.03,3.33-.8.26-.33.98-.25.76-.16.47.56-.47,1.06-.92h.01s.01-.01.01-.01l.57-.48,4.12-3.79,1.34-3.24.35-4.88,1.28-4.32.47-.6,1.85-5.49.19-.41.66-3.6.2-.26.44-.6-.11-.47h0Zm-5.11,6.28v.14s-.25.04-.25.04l.25-.18Zm-.53.77c.25-.18.5-.32.86-.14-.26.24-.55.26-.86.14Z"/>
    <path class="cls-1" d="m13.69,18.55c-.08.04-.16.07-.25.11v-.04c.07-.03.16-.07.24-.11v.04Z"/>
    <path class="cls-1" d="m14.42,18.19c-.2.11-.39.21-.6.3l-.05-.02c.22-.1.43-.21.62-.33l.03.05Z"/>
    <path class="cls-1" d="m13.33,18.7c-.23.09-.47.17-.71.24h-.03s0,0,0,0c-.06.02-.12.05-.19.07v-.02c.08-.02.15-.04.22-.07h.02s.07-.02.1-.04l.05-.02.49-.22.02.03h.01l.02.03Z"/>
    <polygon class="cls-1" points="14.54 20.8 14.35 21.53 14.52 20.81 14.54 20.8"/>
    <path id="path3841" class="cls-1" d="m12.64,18.91h-.02s-.03.04-.03.04h.03s.12-.07.12-.07c-.03.02-.07.03-.1.03Zm1.19.03l-.25.18.26-.04v-.14Zm-.54.77c.31.12.6.1.86-.14-.36-.18-.61-.04-.86.14Zm.72,1.07l-.2,1.22-.24.58.47-.36-.03-1.44Zm.5.03l-.17.72.19-.73h-.02Z"/>
    <polygon class="cls-1" points="14.22 18.68 13.8 18.6 13.73 18.85 13.69 18.55 13.68 18.51 13.67 18.42 13.77 18.47 13.82 18.49 14.22 18.68"/>
    <polygon class="cls-1" points="14.2 20.46 12.67 21.06 13.21 22.54 12.2 21.11 12.47 19.96 12.13 19.88 11.67 19.32 12.11 19.32 12.2 19.07 12.2 19.06 12.61 17.89 12.94 18.1 13.78 17.72 14.01 18.16 12.85 18.18 12.41 18.99 12.4 19.01 12.19 19.39 11.8 19.38 12.15 19.78 12.58 19.91 12.55 20.58 14.14 20.38 14.43 19.28 14.2 20.46"/>
    <path class="cls-1" d="m13.5,18.93l-.17-.23-.02-.03h-.01l-.02-.03-.49.22-.05.02s-.07.03-.1.03l.73-.55.06.26v.04s.07.27.07.27Z"/>
    <path class="cls-1" d="m6.44,39.96l-.32,1.05-.22.72-.16.51c-.26-.03-.49-.1-.71-.22l.2-.29.42-.61.79-1.16Z"/>
    <path id="path3034" class="cls-1" d="m14.07,29.1l.36,1.52-.12,1.16-.41,1.58v-1.73s.16-2.53.16-2.53Z"/>
    <path id="path3032" class="cls-1" d="m15.57,24.11l.43,1.25.22-2.53-.3.73-.35.55Z"/>
    <path class="cls-1" d="m15.33,41.73v.06c-.57.44-1.32.55-2.09.6l.26-.66.19-.48-.88.47-1.58.86c-1.42.1-2,.18-3.53-.03l1.59-.83,1.94-1.01,1.06-.55-1.48.54h-.01l-1.55.57.33-.57.15-.26s-.28.13-.58.27h0c-.7.32-1.77.82-1.84.85l1.15-.82,4.73-3.38.31-2.1.58.96v1.31c.38,1.03,1.11,2.62,1.23,3.92.02.1.03.19.03.28Z"/>
    <path id="path3014" class="cls-1" d="m8.55,32.27l.65-4.84-1.74-3.1.45-1.08-1.18-.07-2.09-3.12-.47-1.19-1.27-1.13,2.12.73c1.4,1.18,3.37,5.42,4.73,5.54l.51,4.13-1.71,4.12Z"/>
    <path id="path3012" class="cls-1" d="m5.51,29.65l.59,1.87-.09,2.69c-.12,1.24-.03,2.14.09,2.72l1.13-4.34-1.71-2.94Z"/>
    <path id="path3010" class="cls-1" d="m3.84,24.62l4.09,7.03.55,1.43-.83-1.25-2.22-2.73-1.61-3.66.03-.82Z"/>
    <path id="path3854" class="cls-1" d="m8.28,30.05l-2.75-3.51-2.25-5.21,2.93,4.83,1.84,2.36.24,1.54Z"/>
    <path class="cls-1" d="m16.26,3.84l.59.7.34.69-.05-1.09-.91-.88-.25-.75s-.02-.02-.03-.03c-.02-.02-.04-.04-.06-.05-.9-.74-1.94-1.32-3.08-1.7-.09-.03-.17-.05-.25-.07C9.55-.13,5.68.37,3.09,3.06c-.1.1-.18.22-.28.32h0s-.07.38-.07.38l-.33.46-.24.1.08.66h.23l.13-.44.31-.26-.03.52.37-.08.12-.68.41.06-.38.72.85.16-.65.58h-1.1v-.2s-.41-.1-.41-.1l-.13-.85c-.96,1.4-1.65,3.2-1.69,5.65h.09l.8,2.53.46.67,1.76,2.58.91.18.28-.16-.3-1.06.04-.89.29-.36v-.29s.02-.39.02-.39l-.46-.16-.12-.31.2-.53-.03-.39.59-.68v-.49l.5-.64.23-.47-.72-.02-.72-.65-.52-1.16.15-1.18.39,1.52.8,1.13.8-.3.05-.39,1.32-.44-.28-.32-.93-.35-.44-.67,1.37.38.13.36.74.03v.91l.62-.47.14.98-.27,1.16.72.63.84-1.1v-.79l.87-.21.73-.72.25.13v.57l.59.48.32,1.04.66-.31.75-.33v-.99l.16-.26.78-.33.54-.98.03-.49-.32-.73.63.86.53-.4.83-.14-.87-1.14.05-.67Zm-9.53-.08l-.19.3.32.17-.37.62-.43-.24.25-.16-.35-.44.71-.66.4.3-.34.11Z"/>
    <path class="cls-1" d="m3.41,4.82l.85.16-.65.58h-1.1v-.2s-.41-.1-.41-.1l-.13-.85c.06-.08.12-.16.18-.24l.66-.78-.07.37-.33.46-.24.1.08.66h.23l.13-.44.31-.26-.03.52.37-.08.12-.68.41.06-.38.72Z"/>
    <polygon class="cls-1" points="6.73 3.76 6.54 4.06 6.86 4.23 6.49 4.85 6.06 4.61 6.31 4.45 5.96 4.01 6.67 3.35 7.07 3.65 6.73 3.76"/>
    <path class="cls-1" d="m15.89,2.43c-.9-.74-1.94-1.32-3.08-1.7,1.24.36,2.32.95,3.08,1.7Z"/>
    <polygon class="cls-1" points="6.54 4.06 6.86 4.23 6.49 4.85 6.06 4.61 6.31 4.45 5.96 4.01 6.67 3.35 7.07 3.65 6.73 3.76 6.54 4.06"/>
    <polygon class="cls-1" points="4.26 4.98 3.61 5.56 2.51 5.56 2.5 5.36 2.1 5.26 1.97 4.41 1.97 4.38 2.15 4.17 2.81 3.39 2.74 3.76 2.41 4.22 2.17 4.32 2.25 4.98 2.48 4.98 2.61 4.54 2.92 4.28 2.89 4.8 3.26 4.72 3.38 4.04 3.79 4.1 3.41 4.82 4.26 4.98"/>
    <polygon class="cls-1" points="6.94 13.99 6.65 15.32 6.06 15.32 6.05 14.61 5.7 14.35 5.72 14.08 6.14 13.85 6.09 13.26 6.06 12.85 6.6 13.24 6.6 13.26 6.67 13.65 6.94 13.99"/>
    <polygon class="cls-1" points="16.39 7.42 16.02 7.68 15.72 7.19 15.74 6.76 16.1 6.45 16.38 6.5 16.39 7.42"/>
    <polygon class="cls-1" points="16.49 8.28 15.95 8.85 15.61 8.87 15.71 8.27 16.05 8.07 16.49 8.28"/>
    <polygon class="cls-1" points="14.89 8.48 14.73 8.92 14.32 9.05 14.16 8.45 14.37 8.25 14.65 8.28 14.89 8.48"/>
    <polygon class="cls-1" points="13.26 9.91 13.11 10.89 12.39 10.6 12.64 10.01 13.26 9.91"/>
    <path class="cls-1" d="m16.88,11.35l-2,1.01-1.03-1.03c.06-.01,1.4-.88,1.4-.88l.78.3s-.6.57-.53.57c.06,0,1.38.03,1.38.03Z"/>
    <polygon class="cls-1" points="14.48 12.97 13.97 13.26 13.85 13.33 13.76 13.26 12.88 12.56 12.8 12.02 12.28 11.42 12.15 10.86 13.31 11.37 13.59 12.36 14.48 12.97"/>
    <polygon class="cls-1" points="17 13.29 15.89 13.93 15.58 13.67 14.68 13.72 14.27 13.36 14.78 13.29 14.82 13.26 15.09 13.03 15.45 13.26 15.48 13.28 15.6 13.26 16.82 13.05 16.98 13.26 17 13.29"/>
    <polygon class="cls-1" points="17.26 9.65 17.42 8.87 16.83 8.84 17.75 8.15 17.78 6.72 18.11 8.09 17.26 9.65"/>
    <polygon class="cls-1" points="18.63 6.45 18.11 6.85 18.07 6.55 17.81 6.49 18.3 5.93 18.3 6.26 18.63 6.45"/>
    <polygon class="cls-1" points="16.93 9.46 16.7 9.49 16.18 9.75 16.28 9.29 16.74 9.07 16.93 9.46"/>
  </g>
</svg>