<?xml version="1.0" encoding="UTF-8"?>
<svg id="Capa_1" data-name="Capa 1" xmlns="http://www.w3.org/2000/svg" viewBox="0 0 935.4 824">
  <defs>
    <style>
      .cls-1 {
        fill: #d9272e;
      }
    </style>
  </defs>
  <path class="cls-1" d="m.04,269.72C.04,192.09.02,114.46.07,36.83c0-5.22.26-10.46.8-15.65C2.03,10.12,12.45.92,22.84.33,26.32.14,29.81.01,33.29.01,122.28,0,211.26,0,300.24,0c3.05,0,6.1.1,9.15.23,11.92.51,21.66,10.64,23.25,22.79.23,1.72.22,3.48.24,5.22.04,3.49.02,6.98.02,10.47,0,138.69,0,277.38,0,416.06,0,6.11-.04,12.21.11,18.32.25,10.1,2.11,19.94,5.43,29.46,7.19,20.58,21.18,34.72,41.32,42.81,12.29,4.94,25.18,7,38.35,7.27,9.59.2,19.19.06,28.79.06,26.61,0,53.21,0,79.82,0,3.49,0,6.98.07,10.47.12,11.88.16,23.45,11.23,23.91,23.48.13,3.48.21,6.97.21,10.46.01,67.6,0,135.2,0,202.8,0,3.05-.07,6.1-.12,9.16-.2,12.76-10.71,24.2-25.33,25.17-2.17.14-4.36.07-6.54.08-61.94,0-123.88.09-185.82-.05-19.65-.04-39.19-2.07-58.61-4.96-27.25-4.05-53.87-10.76-79.53-20.85-86.84-34.17-146.82-95.05-180.23-182.08-10.83-28.21-17.52-57.46-21.4-87.42-2.7-20.81-3.55-41.72-3.61-62.64-.21-65.42-.08-130.84-.08-196.26Z"/>
  <path class="cls-1" d="m935.37,618.16c0,56.27,0,112.53,0,168.8,0,3.93.13,7.86-.1,11.77-.78,13.3-10.79,23.71-24.11,25.08-2.59.27-5.23.16-7.85.16-89.43,0-178.86,0-268.28,0-5.23,0-10.43.15-15.43-2.02-9.62-4.18-15.38-11.24-16.42-21.73-.47-4.76-.36-9.58-.36-14.38-.02-91.6-.03-183.19,0-274.79,0-13.14-1.2-26.12-4.34-38.89-1.78-7.25-4.59-14.11-8.36-20.52-8.91-15.15-22.1-24.35-39.3-27.84-8.16-1.66-16.41-2.1-24.73-2.09-38.82.05-77.65.03-116.47.01-3.92,0-7.86.08-11.77-.22-10.52-.82-19.91-9-22.16-19.27-.56-2.54-.8-5.17-.97-7.78-.18-2.61-.11-5.23-.11-7.85,0-77.2,0-154.4.02-231.61,0-4.35,0-8.75.54-13.06,1.61-12.85,11.62-22.13,24.56-23.03,2.61-.18,5.23-.16,7.85-.16,62.38.05,124.77-.44,187.14.33,49.24.6,97.17,9.33,142.82,28.44,81.45,34.1,138.25,92.54,171.04,174.36,10.58,26.41,17.55,53.82,21.76,81.98,3.3,22.04,5.07,44.16,5.05,66.45-.04,49.29-.01,98.57-.01,147.86Z"/>
</svg>